G04 #@! TF.GenerationSoftware,KiCad,Pcbnew,(5.0.2)-1*
G04 #@! TF.CreationDate,2019-08-02T19:21:12-04:00*
G04 #@! TF.ProjectId,A-10C-UFC,412d3130-432d-4554-9643-2e6b69636164,1.2*
G04 #@! TF.SameCoordinates,Original*
G04 #@! TF.FileFunction,Legend,Bot*
G04 #@! TF.FilePolarity,Positive*
%FSLAX46Y46*%
G04 Gerber Fmt 4.6, Leading zero omitted, Abs format (unit mm)*
G04 Created by KiCad (PCBNEW (5.0.2)-1) date 8/2/2019 7:21:12 PM*
%MOMM*%
%LPD*%
G01*
G04 APERTURE LIST*
%ADD10C,0.150000*%
%ADD11C,0.120000*%
G04 APERTURE END LIST*
D10*
X305356304Y-106351914D02*
X305356304Y-107018580D01*
X305594400Y-105970961D02*
X305832495Y-106685247D01*
X305213447Y-106685247D01*
X304832495Y-106923342D02*
X304784876Y-106970961D01*
X304832495Y-107018580D01*
X304880114Y-106970961D01*
X304832495Y-106923342D01*
X304832495Y-107018580D01*
X304165828Y-106018580D02*
X304070590Y-106018580D01*
X303975352Y-106066200D01*
X303927733Y-106113819D01*
X303880114Y-106209057D01*
X303832495Y-106399533D01*
X303832495Y-106637628D01*
X303880114Y-106828104D01*
X303927733Y-106923342D01*
X303975352Y-106970961D01*
X304070590Y-107018580D01*
X304165828Y-107018580D01*
X304261066Y-106970961D01*
X304308685Y-106923342D01*
X304356304Y-106828104D01*
X304403923Y-106637628D01*
X304403923Y-106399533D01*
X304356304Y-106209057D01*
X304308685Y-106113819D01*
X304261066Y-106066200D01*
X304165828Y-106018580D01*
X302975352Y-106018580D02*
X303165828Y-106018580D01*
X303261066Y-106066200D01*
X303308685Y-106113819D01*
X303403923Y-106256676D01*
X303451542Y-106447152D01*
X303451542Y-106828104D01*
X303403923Y-106923342D01*
X303356304Y-106970961D01*
X303261066Y-107018580D01*
X303070590Y-107018580D01*
X302975352Y-106970961D01*
X302927733Y-106923342D01*
X302880114Y-106828104D01*
X302880114Y-106590009D01*
X302927733Y-106494771D01*
X302975352Y-106447152D01*
X303070590Y-106399533D01*
X303261066Y-106399533D01*
X303356304Y-106447152D01*
X303403923Y-106494771D01*
X303451542Y-106590009D01*
X301689638Y-107018580D02*
X301689638Y-106018580D01*
X301308685Y-106018580D01*
X301213447Y-106066200D01*
X301165828Y-106113819D01*
X301118209Y-106209057D01*
X301118209Y-106351914D01*
X301165828Y-106447152D01*
X301213447Y-106494771D01*
X301308685Y-106542390D01*
X301689638Y-106542390D01*
X300689638Y-107018580D02*
X300689638Y-106351914D01*
X300689638Y-106018580D02*
X300737257Y-106066200D01*
X300689638Y-106113819D01*
X300642019Y-106066200D01*
X300689638Y-106018580D01*
X300689638Y-106113819D01*
X300213447Y-106351914D02*
X300213447Y-107018580D01*
X300213447Y-106447152D02*
X300165828Y-106399533D01*
X300070590Y-106351914D01*
X299927733Y-106351914D01*
X299832495Y-106399533D01*
X299784876Y-106494771D01*
X299784876Y-107018580D01*
X298594400Y-106970961D02*
X298499161Y-107018580D01*
X298308685Y-107018580D01*
X298213447Y-106970961D01*
X298165828Y-106875723D01*
X298165828Y-106828104D01*
X298213447Y-106732866D01*
X298308685Y-106685247D01*
X298451542Y-106685247D01*
X298546780Y-106637628D01*
X298594400Y-106542390D01*
X298594400Y-106494771D01*
X298546780Y-106399533D01*
X298451542Y-106351914D01*
X298308685Y-106351914D01*
X298213447Y-106399533D01*
X297737257Y-106351914D02*
X297737257Y-107351914D01*
X297737257Y-106399533D02*
X297642019Y-106351914D01*
X297451542Y-106351914D01*
X297356304Y-106399533D01*
X297308685Y-106447152D01*
X297261066Y-106542390D01*
X297261066Y-106828104D01*
X297308685Y-106923342D01*
X297356304Y-106970961D01*
X297451542Y-107018580D01*
X297642019Y-107018580D01*
X297737257Y-106970961D01*
X296403923Y-107018580D02*
X296403923Y-106494771D01*
X296451542Y-106399533D01*
X296546780Y-106351914D01*
X296737257Y-106351914D01*
X296832495Y-106399533D01*
X296403923Y-106970961D02*
X296499161Y-107018580D01*
X296737257Y-107018580D01*
X296832495Y-106970961D01*
X296880114Y-106875723D01*
X296880114Y-106780485D01*
X296832495Y-106685247D01*
X296737257Y-106637628D01*
X296499161Y-106637628D01*
X296403923Y-106590009D01*
X295499161Y-106970961D02*
X295594400Y-107018580D01*
X295784876Y-107018580D01*
X295880114Y-106970961D01*
X295927733Y-106923342D01*
X295975352Y-106828104D01*
X295975352Y-106542390D01*
X295927733Y-106447152D01*
X295880114Y-106399533D01*
X295784876Y-106351914D01*
X295594400Y-106351914D01*
X295499161Y-106399533D01*
X295070590Y-107018580D02*
X295070590Y-106351914D01*
X295070590Y-106018580D02*
X295118209Y-106066200D01*
X295070590Y-106113819D01*
X295022971Y-106066200D01*
X295070590Y-106018580D01*
X295070590Y-106113819D01*
X294594400Y-106351914D02*
X294594400Y-107018580D01*
X294594400Y-106447152D02*
X294546780Y-106399533D01*
X294451542Y-106351914D01*
X294308685Y-106351914D01*
X294213447Y-106399533D01*
X294165828Y-106494771D01*
X294165828Y-107018580D01*
X293261066Y-106351914D02*
X293261066Y-107161438D01*
X293308685Y-107256676D01*
X293356304Y-107304295D01*
X293451542Y-107351914D01*
X293594400Y-107351914D01*
X293689638Y-107304295D01*
X293261066Y-106970961D02*
X293356304Y-107018580D01*
X293546780Y-107018580D01*
X293642019Y-106970961D01*
X293689638Y-106923342D01*
X293737257Y-106828104D01*
X293737257Y-106542390D01*
X293689638Y-106447152D01*
X293642019Y-106399533D01*
X293546780Y-106351914D01*
X293356304Y-106351914D01*
X293261066Y-106399533D01*
X292165828Y-106351914D02*
X291784876Y-106351914D01*
X292022971Y-107018580D02*
X292022971Y-106161438D01*
X291975352Y-106066200D01*
X291880114Y-106018580D01*
X291784876Y-106018580D01*
X291308685Y-107018580D02*
X291403923Y-106970961D01*
X291451542Y-106923342D01*
X291499161Y-106828104D01*
X291499161Y-106542390D01*
X291451542Y-106447152D01*
X291403923Y-106399533D01*
X291308685Y-106351914D01*
X291165828Y-106351914D01*
X291070590Y-106399533D01*
X291022971Y-106447152D01*
X290975352Y-106542390D01*
X290975352Y-106828104D01*
X291022971Y-106923342D01*
X291070590Y-106970961D01*
X291165828Y-107018580D01*
X291308685Y-107018580D01*
X290546780Y-107018580D02*
X290546780Y-106351914D01*
X290546780Y-106542390D02*
X290499161Y-106447152D01*
X290451542Y-106399533D01*
X290356304Y-106351914D01*
X290261066Y-106351914D01*
X310665828Y-108382866D02*
X310189638Y-108382866D01*
X310761066Y-108668580D02*
X310427733Y-107668580D01*
X310094400Y-108668580D01*
X309761066Y-108668580D02*
X309761066Y-108001914D01*
X309761066Y-108192390D02*
X309713447Y-108097152D01*
X309665828Y-108049533D01*
X309570590Y-108001914D01*
X309475352Y-108001914D01*
X308713447Y-108668580D02*
X308713447Y-107668580D01*
X308713447Y-108620961D02*
X308808685Y-108668580D01*
X308999161Y-108668580D01*
X309094400Y-108620961D01*
X309142019Y-108573342D01*
X309189638Y-108478104D01*
X309189638Y-108192390D01*
X309142019Y-108097152D01*
X309094400Y-108049533D01*
X308999161Y-108001914D01*
X308808685Y-108001914D01*
X308713447Y-108049533D01*
X307808685Y-108001914D02*
X307808685Y-108668580D01*
X308237257Y-108001914D02*
X308237257Y-108525723D01*
X308189638Y-108620961D01*
X308094400Y-108668580D01*
X307951542Y-108668580D01*
X307856304Y-108620961D01*
X307808685Y-108573342D01*
X307332495Y-108668580D02*
X307332495Y-108001914D01*
X307332495Y-107668580D02*
X307380114Y-107716200D01*
X307332495Y-107763819D01*
X307284876Y-107716200D01*
X307332495Y-107668580D01*
X307332495Y-107763819D01*
X306856304Y-108001914D02*
X306856304Y-108668580D01*
X306856304Y-108097152D02*
X306808685Y-108049533D01*
X306713447Y-108001914D01*
X306570590Y-108001914D01*
X306475352Y-108049533D01*
X306427733Y-108144771D01*
X306427733Y-108668580D01*
X305808685Y-108668580D02*
X305903923Y-108620961D01*
X305951542Y-108573342D01*
X305999161Y-108478104D01*
X305999161Y-108192390D01*
X305951542Y-108097152D01*
X305903923Y-108049533D01*
X305808685Y-108001914D01*
X305665828Y-108001914D01*
X305570590Y-108049533D01*
X305522971Y-108097152D01*
X305475352Y-108192390D01*
X305475352Y-108478104D01*
X305522971Y-108573342D01*
X305570590Y-108620961D01*
X305665828Y-108668580D01*
X305808685Y-108668580D01*
X304284876Y-107668580D02*
X304284876Y-108478104D01*
X304237257Y-108573342D01*
X304189638Y-108620961D01*
X304094400Y-108668580D01*
X303903923Y-108668580D01*
X303808685Y-108620961D01*
X303761066Y-108573342D01*
X303713447Y-108478104D01*
X303713447Y-107668580D01*
X303237257Y-108668580D02*
X303237257Y-107668580D01*
X302665828Y-108668580D01*
X302665828Y-107668580D01*
X301999161Y-107668580D02*
X301808685Y-107668580D01*
X301713447Y-107716200D01*
X301618209Y-107811438D01*
X301570590Y-108001914D01*
X301570590Y-108335247D01*
X301618209Y-108525723D01*
X301713447Y-108620961D01*
X301808685Y-108668580D01*
X301999161Y-108668580D01*
X302094400Y-108620961D01*
X302189638Y-108525723D01*
X302237257Y-108335247D01*
X302237257Y-108001914D01*
X302189638Y-107811438D01*
X302094400Y-107716200D01*
X301999161Y-107668580D01*
X300094400Y-109049533D02*
X300142019Y-109001914D01*
X300237257Y-108859057D01*
X300284876Y-108763819D01*
X300332495Y-108620961D01*
X300380114Y-108382866D01*
X300380114Y-108192390D01*
X300332495Y-107954295D01*
X300284876Y-107811438D01*
X300237257Y-107716200D01*
X300142019Y-107573342D01*
X300094400Y-107525723D01*
X299570590Y-108668580D02*
X299665828Y-108620961D01*
X299713447Y-108573342D01*
X299761066Y-108478104D01*
X299761066Y-108192390D01*
X299713447Y-108097152D01*
X299665828Y-108049533D01*
X299570590Y-108001914D01*
X299427733Y-108001914D01*
X299332495Y-108049533D01*
X299284876Y-108097152D01*
X299237257Y-108192390D01*
X299237257Y-108478104D01*
X299284876Y-108573342D01*
X299332495Y-108620961D01*
X299427733Y-108668580D01*
X299570590Y-108668580D01*
X298665828Y-108668580D02*
X298761066Y-108620961D01*
X298808685Y-108573342D01*
X298856304Y-108478104D01*
X298856304Y-108192390D01*
X298808685Y-108097152D01*
X298761066Y-108049533D01*
X298665828Y-108001914D01*
X298522971Y-108001914D01*
X298427733Y-108049533D01*
X298380114Y-108097152D01*
X298332495Y-108192390D01*
X298332495Y-108478104D01*
X298380114Y-108573342D01*
X298427733Y-108620961D01*
X298522971Y-108668580D01*
X298665828Y-108668580D01*
X297903923Y-108001914D02*
X297903923Y-109001914D01*
X297903923Y-108049533D02*
X297808685Y-108001914D01*
X297618209Y-108001914D01*
X297522971Y-108049533D01*
X297475352Y-108097152D01*
X297427733Y-108192390D01*
X297427733Y-108478104D01*
X297475352Y-108573342D01*
X297522971Y-108620961D01*
X297618209Y-108668580D01*
X297808685Y-108668580D01*
X297903923Y-108620961D01*
X297046780Y-108620961D02*
X296951542Y-108668580D01*
X296761066Y-108668580D01*
X296665828Y-108620961D01*
X296618209Y-108525723D01*
X296618209Y-108478104D01*
X296665828Y-108382866D01*
X296761066Y-108335247D01*
X296903923Y-108335247D01*
X296999161Y-108287628D01*
X297046780Y-108192390D01*
X297046780Y-108144771D01*
X296999161Y-108049533D01*
X296903923Y-108001914D01*
X296761066Y-108001914D01*
X296665828Y-108049533D01*
X296284876Y-109049533D02*
X296237257Y-109001914D01*
X296142019Y-108859057D01*
X296094400Y-108763819D01*
X296046780Y-108620961D01*
X295999161Y-108382866D01*
X295999161Y-108192390D01*
X296046780Y-107954295D01*
X296094400Y-107811438D01*
X296142019Y-107716200D01*
X296237257Y-107573342D01*
X296284876Y-107525723D01*
X294332495Y-108620961D02*
X294427733Y-108668580D01*
X294618209Y-108668580D01*
X294713447Y-108620961D01*
X294761066Y-108573342D01*
X294808685Y-108478104D01*
X294808685Y-108192390D01*
X294761066Y-108097152D01*
X294713447Y-108049533D01*
X294618209Y-108001914D01*
X294427733Y-108001914D01*
X294332495Y-108049533D01*
X293761066Y-108668580D02*
X293856304Y-108620961D01*
X293903923Y-108573342D01*
X293951542Y-108478104D01*
X293951542Y-108192390D01*
X293903923Y-108097152D01*
X293856304Y-108049533D01*
X293761066Y-108001914D01*
X293618209Y-108001914D01*
X293522971Y-108049533D01*
X293475352Y-108097152D01*
X293427733Y-108192390D01*
X293427733Y-108478104D01*
X293475352Y-108573342D01*
X293522971Y-108620961D01*
X293618209Y-108668580D01*
X293761066Y-108668580D01*
X292999161Y-108668580D02*
X292999161Y-108001914D01*
X292999161Y-108097152D02*
X292951542Y-108049533D01*
X292856304Y-108001914D01*
X292713447Y-108001914D01*
X292618209Y-108049533D01*
X292570590Y-108144771D01*
X292570590Y-108668580D01*
X292570590Y-108144771D02*
X292522971Y-108049533D01*
X292427733Y-108001914D01*
X292284876Y-108001914D01*
X292189638Y-108049533D01*
X292142019Y-108144771D01*
X292142019Y-108668580D01*
X291665828Y-108001914D02*
X291665828Y-109001914D01*
X291665828Y-108049533D02*
X291570590Y-108001914D01*
X291380114Y-108001914D01*
X291284876Y-108049533D01*
X291237257Y-108097152D01*
X291189638Y-108192390D01*
X291189638Y-108478104D01*
X291237257Y-108573342D01*
X291284876Y-108620961D01*
X291380114Y-108668580D01*
X291570590Y-108668580D01*
X291665828Y-108620961D01*
X290332495Y-108668580D02*
X290332495Y-108144771D01*
X290380114Y-108049533D01*
X290475352Y-108001914D01*
X290665828Y-108001914D01*
X290761066Y-108049533D01*
X290332495Y-108620961D02*
X290427733Y-108668580D01*
X290665828Y-108668580D01*
X290761066Y-108620961D01*
X290808685Y-108525723D01*
X290808685Y-108430485D01*
X290761066Y-108335247D01*
X290665828Y-108287628D01*
X290427733Y-108287628D01*
X290332495Y-108240009D01*
X289999161Y-108001914D02*
X289618209Y-108001914D01*
X289856304Y-107668580D02*
X289856304Y-108525723D01*
X289808685Y-108620961D01*
X289713447Y-108668580D01*
X289618209Y-108668580D01*
X289284876Y-108668580D02*
X289284876Y-108001914D01*
X289284876Y-107668580D02*
X289332495Y-107716200D01*
X289284876Y-107763819D01*
X289237257Y-107716200D01*
X289284876Y-107668580D01*
X289284876Y-107763819D01*
X288808685Y-108668580D02*
X288808685Y-107668580D01*
X288808685Y-108049533D02*
X288713447Y-108001914D01*
X288522971Y-108001914D01*
X288427733Y-108049533D01*
X288380114Y-108097152D01*
X288332495Y-108192390D01*
X288332495Y-108478104D01*
X288380114Y-108573342D01*
X288427733Y-108620961D01*
X288522971Y-108668580D01*
X288713447Y-108668580D01*
X288808685Y-108620961D01*
X287903923Y-108668580D02*
X287903923Y-108001914D01*
X287903923Y-107668580D02*
X287951542Y-107716200D01*
X287903923Y-107763819D01*
X287856304Y-107716200D01*
X287903923Y-107668580D01*
X287903923Y-107763819D01*
X287284876Y-108668580D02*
X287380114Y-108620961D01*
X287427733Y-108525723D01*
X287427733Y-107668580D01*
X286903923Y-108668580D02*
X286903923Y-108001914D01*
X286903923Y-107668580D02*
X286951542Y-107716200D01*
X286903923Y-107763819D01*
X286856304Y-107716200D01*
X286903923Y-107668580D01*
X286903923Y-107763819D01*
X286570590Y-108001914D02*
X286189638Y-108001914D01*
X286427733Y-107668580D02*
X286427733Y-108525723D01*
X286380114Y-108620961D01*
X286284876Y-108668580D01*
X286189638Y-108668580D01*
X285951542Y-108001914D02*
X285713447Y-108668580D01*
X285475352Y-108001914D02*
X285713447Y-108668580D01*
X285808685Y-108906676D01*
X285856304Y-108954295D01*
X285951542Y-109001914D01*
X304456552Y-70500266D02*
X303980361Y-70500266D01*
X304551790Y-70785980D02*
X304218457Y-69785980D01*
X303885123Y-70785980D01*
X303551790Y-70405028D02*
X302789885Y-70405028D01*
X301789885Y-70785980D02*
X302361314Y-70785980D01*
X302075600Y-70785980D02*
X302075600Y-69785980D01*
X302170838Y-69928838D01*
X302266076Y-70024076D01*
X302361314Y-70071695D01*
X301170838Y-69785980D02*
X301075600Y-69785980D01*
X300980361Y-69833600D01*
X300932742Y-69881219D01*
X300885123Y-69976457D01*
X300837504Y-70166933D01*
X300837504Y-70405028D01*
X300885123Y-70595504D01*
X300932742Y-70690742D01*
X300980361Y-70738361D01*
X301075600Y-70785980D01*
X301170838Y-70785980D01*
X301266076Y-70738361D01*
X301313695Y-70690742D01*
X301361314Y-70595504D01*
X301408933Y-70405028D01*
X301408933Y-70166933D01*
X301361314Y-69976457D01*
X301313695Y-69881219D01*
X301266076Y-69833600D01*
X301170838Y-69785980D01*
X299837504Y-70690742D02*
X299885123Y-70738361D01*
X300027980Y-70785980D01*
X300123219Y-70785980D01*
X300266076Y-70738361D01*
X300361314Y-70643123D01*
X300408933Y-70547885D01*
X300456552Y-70357409D01*
X300456552Y-70214552D01*
X300408933Y-70024076D01*
X300361314Y-69928838D01*
X300266076Y-69833600D01*
X300123219Y-69785980D01*
X300027980Y-69785980D01*
X299885123Y-69833600D01*
X299837504Y-69881219D01*
X299408933Y-70405028D02*
X298647028Y-70405028D01*
X298170838Y-69785980D02*
X298170838Y-70595504D01*
X298123219Y-70690742D01*
X298075600Y-70738361D01*
X297980361Y-70785980D01*
X297789885Y-70785980D01*
X297694647Y-70738361D01*
X297647028Y-70690742D01*
X297599409Y-70595504D01*
X297599409Y-69785980D01*
X296789885Y-70262171D02*
X297123219Y-70262171D01*
X297123219Y-70785980D02*
X297123219Y-69785980D01*
X296647028Y-69785980D01*
X295694647Y-70690742D02*
X295742266Y-70738361D01*
X295885123Y-70785980D01*
X295980361Y-70785980D01*
X296123219Y-70738361D01*
X296218457Y-70643123D01*
X296266076Y-70547885D01*
X296313695Y-70357409D01*
X296313695Y-70214552D01*
X296266076Y-70024076D01*
X296218457Y-69928838D01*
X296123219Y-69833600D01*
X295980361Y-69785980D01*
X295885123Y-69785980D01*
X295742266Y-69833600D01*
X295694647Y-69881219D01*
X301599409Y-71435980D02*
X301266076Y-72435980D01*
X300932742Y-71435980D01*
X300075600Y-72435980D02*
X300647028Y-72435980D01*
X300361314Y-72435980D02*
X300361314Y-71435980D01*
X300456552Y-71578838D01*
X300551790Y-71674076D01*
X300647028Y-71721695D01*
X299647028Y-72340742D02*
X299599409Y-72388361D01*
X299647028Y-72435980D01*
X299694647Y-72388361D01*
X299647028Y-72340742D01*
X299647028Y-72435980D01*
X299218457Y-71531219D02*
X299170838Y-71483600D01*
X299075600Y-71435980D01*
X298837504Y-71435980D01*
X298742266Y-71483600D01*
X298694647Y-71531219D01*
X298647028Y-71626457D01*
X298647028Y-71721695D01*
X298694647Y-71864552D01*
X299266076Y-72435980D01*
X298647028Y-72435980D01*
X304099409Y-73562171D02*
X303956552Y-73609790D01*
X303908933Y-73657409D01*
X303861314Y-73752647D01*
X303861314Y-73895504D01*
X303908933Y-73990742D01*
X303956552Y-74038361D01*
X304051790Y-74085980D01*
X304432742Y-74085980D01*
X304432742Y-73085980D01*
X304099409Y-73085980D01*
X304004171Y-73133600D01*
X303956552Y-73181219D01*
X303908933Y-73276457D01*
X303908933Y-73371695D01*
X303956552Y-73466933D01*
X304004171Y-73514552D01*
X304099409Y-73562171D01*
X304432742Y-73562171D01*
X303527980Y-73419314D02*
X303289885Y-74085980D01*
X303051790Y-73419314D02*
X303289885Y-74085980D01*
X303385123Y-74324076D01*
X303432742Y-74371695D01*
X303527980Y-74419314D01*
X301908933Y-74085980D02*
X301908933Y-73085980D01*
X301527980Y-73419314D02*
X301004171Y-73419314D01*
X301527980Y-74085980D01*
X301004171Y-74085980D01*
X300242266Y-74038361D02*
X300337504Y-74085980D01*
X300527980Y-74085980D01*
X300623219Y-74038361D01*
X300670838Y-73943123D01*
X300670838Y-73562171D01*
X300623219Y-73466933D01*
X300527980Y-73419314D01*
X300337504Y-73419314D01*
X300242266Y-73466933D01*
X300194647Y-73562171D01*
X300194647Y-73657409D01*
X300670838Y-73752647D01*
X299766076Y-74085980D02*
X299766076Y-73085980D01*
X299766076Y-73562171D02*
X299194647Y-73562171D01*
X299194647Y-74085980D02*
X299194647Y-73085980D01*
X298575600Y-74085980D02*
X298670838Y-74038361D01*
X298718457Y-73990742D01*
X298766076Y-73895504D01*
X298766076Y-73609790D01*
X298718457Y-73514552D01*
X298670838Y-73466933D01*
X298575600Y-73419314D01*
X298432742Y-73419314D01*
X298337504Y-73466933D01*
X298289885Y-73514552D01*
X298242266Y-73609790D01*
X298242266Y-73895504D01*
X298289885Y-73990742D01*
X298337504Y-74038361D01*
X298432742Y-74085980D01*
X298575600Y-74085980D01*
X297385123Y-73419314D02*
X297385123Y-74085980D01*
X297813695Y-73419314D02*
X297813695Y-73943123D01*
X297766076Y-74038361D01*
X297670838Y-74085980D01*
X297527980Y-74085980D01*
X297432742Y-74038361D01*
X297385123Y-73990742D01*
X297004171Y-73419314D02*
X296480361Y-73419314D01*
X297004171Y-74085980D01*
X296480361Y-74085980D01*
X295718457Y-74038361D02*
X295813695Y-74085980D01*
X296004171Y-74085980D01*
X296099409Y-74038361D01*
X296147028Y-73943123D01*
X296147028Y-73562171D01*
X296099409Y-73466933D01*
X296004171Y-73419314D01*
X295813695Y-73419314D01*
X295718457Y-73466933D01*
X295670838Y-73562171D01*
X295670838Y-73657409D01*
X296147028Y-73752647D01*
D11*
G04 #@! TO.C,J2*
X307654000Y-112970000D02*
X307654000Y-115630000D01*
X284734000Y-112970000D02*
X307654000Y-112970000D01*
X284734000Y-115630000D02*
X307654000Y-115630000D01*
X284734000Y-112970000D02*
X284734000Y-115630000D01*
X283464000Y-112970000D02*
X282134000Y-112970000D01*
X282134000Y-112970000D02*
X282134000Y-114300000D01*
G04 #@! TO.C,J3*
X275650000Y-65014800D02*
X275650000Y-67674800D01*
X262890000Y-65014800D02*
X275650000Y-65014800D01*
X262890000Y-67674800D02*
X275650000Y-67674800D01*
X262890000Y-65014800D02*
X262890000Y-67674800D01*
X261620000Y-65014800D02*
X260290000Y-65014800D01*
X260290000Y-65014800D02*
X260290000Y-66344800D01*
G04 #@! TO.C,J1*
X280730000Y-112970000D02*
X280730000Y-115630000D01*
X262890000Y-112970000D02*
X280730000Y-112970000D01*
X262890000Y-115630000D02*
X280730000Y-115630000D01*
X262890000Y-112970000D02*
X262890000Y-115630000D01*
X261620000Y-112970000D02*
X260290000Y-112970000D01*
X260290000Y-112970000D02*
X260290000Y-114300000D01*
G04 #@! TO.C,J4*
X214570000Y-79603600D02*
X214570000Y-80933600D01*
X214570000Y-80933600D02*
X215900000Y-80933600D01*
X217170000Y-80933600D02*
X252790000Y-80933600D01*
X252790000Y-78273600D02*
X252790000Y-80933600D01*
X217170000Y-78273600D02*
X252790000Y-78273600D01*
X217170000Y-78273600D02*
X217170000Y-80933600D01*
G04 #@! TO.C,J5*
X217170000Y-93539000D02*
X217170000Y-96199000D01*
X217170000Y-93539000D02*
X252790000Y-93539000D01*
X252790000Y-93539000D02*
X252790000Y-96199000D01*
X217170000Y-96199000D02*
X252790000Y-96199000D01*
X214570000Y-96199000D02*
X215900000Y-96199000D01*
X214570000Y-94869000D02*
X214570000Y-96199000D01*
G04 #@! TO.C,J2*
D10*
X308193380Y-113966666D02*
X308907666Y-113966666D01*
X309050523Y-113919047D01*
X309145761Y-113823809D01*
X309193380Y-113680952D01*
X309193380Y-113585714D01*
X308288619Y-114395238D02*
X308241000Y-114442857D01*
X308193380Y-114538095D01*
X308193380Y-114776190D01*
X308241000Y-114871428D01*
X308288619Y-114919047D01*
X308383857Y-114966666D01*
X308479095Y-114966666D01*
X308621952Y-114919047D01*
X309193380Y-114347619D01*
X309193380Y-114966666D01*
G04 #@! TO.C,J3*
X258742380Y-66011466D02*
X259456666Y-66011466D01*
X259599523Y-65963847D01*
X259694761Y-65868609D01*
X259742380Y-65725752D01*
X259742380Y-65630514D01*
X258742380Y-66392419D02*
X258742380Y-67011466D01*
X259123333Y-66678133D01*
X259123333Y-66820990D01*
X259170952Y-66916228D01*
X259218571Y-66963847D01*
X259313809Y-67011466D01*
X259551904Y-67011466D01*
X259647142Y-66963847D01*
X259694761Y-66916228D01*
X259742380Y-66820990D01*
X259742380Y-66535276D01*
X259694761Y-66440038D01*
X259647142Y-66392419D01*
G04 #@! TO.C,J1*
X258742380Y-113966666D02*
X259456666Y-113966666D01*
X259599523Y-113919047D01*
X259694761Y-113823809D01*
X259742380Y-113680952D01*
X259742380Y-113585714D01*
X259742380Y-114966666D02*
X259742380Y-114395238D01*
X259742380Y-114680952D02*
X258742380Y-114680952D01*
X258885238Y-114585714D01*
X258980476Y-114490476D01*
X259028095Y-114395238D01*
G04 #@! TO.C,J4*
X212582380Y-79270266D02*
X213296666Y-79270266D01*
X213439523Y-79222647D01*
X213534761Y-79127409D01*
X213582380Y-78984552D01*
X213582380Y-78889314D01*
X212915714Y-80175028D02*
X213582380Y-80175028D01*
X212534761Y-79936933D02*
X213249047Y-79698838D01*
X213249047Y-80317885D01*
G04 #@! TO.C,J5*
X212582380Y-94535666D02*
X213296666Y-94535666D01*
X213439523Y-94488047D01*
X213534761Y-94392809D01*
X213582380Y-94249952D01*
X213582380Y-94154714D01*
X212582380Y-95488047D02*
X212582380Y-95011857D01*
X213058571Y-94964238D01*
X213010952Y-95011857D01*
X212963333Y-95107095D01*
X212963333Y-95345190D01*
X213010952Y-95440428D01*
X213058571Y-95488047D01*
X213153809Y-95535666D01*
X213391904Y-95535666D01*
X213487142Y-95488047D01*
X213534761Y-95440428D01*
X213582380Y-95345190D01*
X213582380Y-95107095D01*
X213534761Y-95011857D01*
X213487142Y-94964238D01*
G04 #@! TD*
M02*
