G04 #@! TF.GenerationSoftware,KiCad,Pcbnew,(5.1.4)-1*
G04 #@! TF.CreationDate,2019-08-18T12:41:48-04:00*
G04 #@! TF.ProjectId,A-10C-UFC,412d3130-432d-4554-9643-2e6b69636164,1.2*
G04 #@! TF.SameCoordinates,Original*
G04 #@! TF.FileFunction,Legend,Top*
G04 #@! TF.FilePolarity,Positive*
%FSLAX46Y46*%
G04 Gerber Fmt 4.6, Leading zero omitted, Abs format (unit mm)*
G04 Created by KiCad (PCBNEW (5.1.4)-1) date 2019-08-18 12:41:48*
%MOMM*%
%LPD*%
G04 APERTURE LIST*
%ADD10C,0.200000*%
%ADD11C,0.120000*%
%ADD12C,0.150000*%
G04 APERTURE END LIST*
D10*
X228440171Y-76130200D02*
X228440171Y-66630200D01*
X188567671Y-88852200D02*
G75*
G03X188567671Y-88852200I-1500000J0D01*
G01*
X226940171Y-65130200D02*
X204839171Y-65130200D01*
X204839171Y-77630200D02*
G75*
G02X203339171Y-76130200I0J1500000D01*
G01*
X167943671Y-83416200D02*
X167943671Y-92916200D01*
X180443671Y-92916200D02*
X180443671Y-83416200D01*
X226940171Y-65130200D02*
G75*
G02X228440171Y-66630200I0J-1500000D01*
G01*
X228440171Y-76130200D02*
G75*
G02X226940171Y-77630200I-1500000J0D01*
G01*
X204839171Y-77630200D02*
X226940171Y-77630200D01*
X185923171Y-64416200D02*
G75*
G02X187423171Y-65916200I0J-1500000D01*
G01*
X178943671Y-81916200D02*
G75*
G02X180443671Y-83416200I0J-1500000D01*
G01*
X178943671Y-81916200D02*
X169443671Y-81916200D01*
X187423171Y-75416200D02*
X187423171Y-65916200D01*
X169444171Y-76916200D02*
X185923171Y-76916200D01*
X67240671Y-119980200D02*
G75*
G03X67240671Y-119980200I-1500000J0D01*
G01*
X67240671Y-59980200D02*
G75*
G03X67240671Y-59980200I-1500000J0D01*
G01*
X316240671Y-59980200D02*
G75*
G03X316240671Y-59980200I-1500000J0D01*
G01*
X167944171Y-65916200D02*
X167944171Y-75416200D01*
X169444171Y-76916200D02*
G75*
G02X167944171Y-75416200I0J1500000D01*
G01*
X167943671Y-83416200D02*
G75*
G02X169443671Y-81916200I1500000J0D01*
G01*
X185923171Y-64416200D02*
X169444171Y-64416200D01*
X187423171Y-75416200D02*
G75*
G02X185923171Y-76916200I-1500000J0D01*
G01*
X167944171Y-65916200D02*
G75*
G02X169444171Y-64416200I1500000J0D01*
G01*
X180443671Y-92916200D02*
G75*
G02X178943671Y-94416200I-1500000J0D01*
G01*
X203339171Y-66630200D02*
G75*
G02X204839171Y-65130200I1500000J0D01*
G01*
X203339171Y-66630200D02*
X203339171Y-76130200D01*
X316240671Y-119980200D02*
G75*
G03X316240671Y-119980200I-1500000J0D01*
G01*
X177732741Y-95751200D02*
X177732741Y-98314200D01*
X174486401Y-98313200D02*
X174486401Y-95750200D01*
X158359401Y-113666200D02*
X158359401Y-116229200D01*
X176195071Y-96604530D02*
X176195071Y-97458870D01*
X169873401Y-95750200D02*
X169873401Y-97515820D01*
X154004131Y-115517260D02*
X155000851Y-113666200D01*
X153007401Y-113666200D02*
X154004131Y-115517260D01*
X155968181Y-115517260D02*
X157392071Y-115517260D01*
X158359401Y-116229200D02*
X159783291Y-116229200D01*
X156680131Y-113666200D02*
X157676851Y-116229200D01*
X155683401Y-116229200D02*
X156680131Y-113666200D01*
X155000851Y-113666200D02*
X155000851Y-116229200D01*
X160466401Y-114947700D02*
X161890291Y-114947700D01*
X79699401Y-89650700D02*
X81123291Y-89650700D01*
X270630401Y-97413200D02*
X272339071Y-97413200D01*
X80553741Y-83290200D02*
X80553741Y-85853200D01*
X80196047Y-78238672D02*
G75*
G02X80993427Y-78210195I454304J-1542948D01*
G01*
X269947071Y-99976200D02*
X269947071Y-97413200D01*
X171582071Y-97515820D02*
X171582071Y-95750200D01*
X81050380Y-79662558D02*
G75*
G02X81306681Y-80459943I-166969J-493552D01*
G01*
X79699401Y-83290200D02*
X81408071Y-83290200D01*
X273022401Y-99976200D02*
X274731071Y-99976200D01*
X176878401Y-95751200D02*
X178587071Y-95751200D01*
X171582071Y-97515820D02*
G75*
G02X169873411Y-97515820I-854330J0D01*
G01*
X81408071Y-83290200D02*
X80553741Y-83290200D01*
X80110613Y-80773208D02*
G75*
G02X79711922Y-80516906I142858J660468D01*
G01*
X81306678Y-80459939D02*
G75*
G02X80907990Y-80744716I-618127J443909D01*
G01*
X79797363Y-78523462D02*
G75*
G02X80196051Y-78238685I618128J-443908D01*
G01*
X172265401Y-98313200D02*
X172265401Y-95750200D01*
X173205171Y-95750200D02*
G75*
G02X173205171Y-97031700I0J-640750D01*
G01*
X268238401Y-99976200D02*
X268238401Y-97413200D01*
X178587071Y-95751200D02*
X177732741Y-95751200D01*
X272339071Y-97413200D02*
X271484741Y-97413200D01*
X176195068Y-97458869D02*
G75*
G02X175369214Y-98313199I-824427J-29381D01*
G01*
X277123071Y-99976200D02*
X277123071Y-97413200D01*
X80053661Y-79320830D02*
X81050381Y-79662570D01*
X275414401Y-99976200D02*
X275414401Y-97413200D01*
X273022401Y-97413200D02*
X273022401Y-99976200D01*
X174486401Y-95750200D02*
X175369211Y-95750200D01*
X175369211Y-98313200D02*
X174486401Y-98313200D01*
X80907994Y-80744729D02*
G75*
G02X80110614Y-80773206I-454303J1542949D01*
G01*
X73200611Y-76319700D02*
X74681461Y-76319700D01*
X80053663Y-79320842D02*
G75*
G02X79797360Y-78523458I166968J493552D01*
G01*
X80993428Y-78210194D02*
G75*
G02X81392119Y-78466495I-142857J-660466D01*
G01*
X273022401Y-98694700D02*
X274446291Y-98694700D01*
X175369218Y-95750201D02*
G75*
G02X176195071Y-96604532I-33167J-858389D01*
G01*
X73138401Y-104418700D02*
X74619251Y-104418700D01*
X162175071Y-113666200D02*
X160466401Y-113666200D01*
X73941041Y-77060120D02*
X73941041Y-75579280D01*
X275414401Y-97413200D02*
X277123071Y-99976200D01*
X268238401Y-97413200D02*
X269947071Y-99976200D01*
X173205171Y-97031700D02*
X172265401Y-97031700D01*
X274731071Y-97413200D02*
X273022401Y-97413200D01*
X267555401Y-97413200D02*
X267555401Y-99976200D01*
X271484741Y-97413200D02*
X271484741Y-99976200D01*
X172265401Y-95750200D02*
X173205171Y-95750200D01*
X160466401Y-113666200D02*
X160466401Y-116229200D01*
X141784741Y-116535200D02*
X141784741Y-115253700D01*
X139777071Y-95750200D02*
X138922741Y-95750200D01*
X136189047Y-95778672D02*
G75*
G02X136986427Y-95750195I454304J-1542948D01*
G01*
X143150663Y-79495842D02*
G75*
G02X142894360Y-78698458I166968J493552D01*
G01*
X144090428Y-78385194D02*
G75*
G02X144489119Y-78641495I-142857J-660466D01*
G01*
X138110401Y-80948200D02*
X138110401Y-78385200D01*
X138110401Y-78385200D02*
X139050171Y-78385200D01*
X147252071Y-113972200D02*
X146397741Y-113972200D01*
X145244401Y-97031700D02*
X146241131Y-97031700D01*
X142852401Y-98313200D02*
X144561071Y-98313200D01*
X128353071Y-116535200D02*
X128353071Y-113972200D01*
X145543401Y-113972200D02*
X147252071Y-113972200D01*
X144262171Y-115253700D02*
X143322401Y-115253700D01*
X136147291Y-113972200D02*
X136859241Y-116535200D01*
X136986428Y-95750194D02*
G75*
G02X137385119Y-96006495I-142857J-660466D01*
G01*
X141784741Y-115253700D02*
X142639071Y-113972200D01*
X142153981Y-80093870D02*
G75*
G02X140331401Y-80093870I-911290J0D01*
G01*
X139251131Y-113972200D02*
X140247851Y-116535200D01*
X138254401Y-116535200D02*
X139251131Y-113972200D01*
X140460401Y-95750200D02*
X140460401Y-98313200D01*
X138539181Y-115823260D02*
X139963071Y-115823260D01*
X134723401Y-113972200D02*
X135435351Y-116535200D01*
X146184171Y-97031700D02*
X145244401Y-97031700D01*
X136900994Y-98284729D02*
G75*
G02X136103614Y-98313206I-454303J1542949D01*
G01*
X146241131Y-97031700D02*
X146810681Y-98313200D01*
X136103613Y-98313208D02*
G75*
G02X135704922Y-98056906I142858J660468D01*
G01*
X135790363Y-96063462D02*
G75*
G02X136189051Y-95778685I618128J-443908D01*
G01*
X146184171Y-95750200D02*
G75*
G02X146184171Y-97031700I0J-640750D01*
G01*
X142852401Y-97031700D02*
X144276291Y-97031700D01*
X140460401Y-97031700D02*
X141884291Y-97031700D01*
X136046661Y-96860830D02*
X137043381Y-97202570D01*
X143293047Y-78413672D02*
G75*
G02X144090427Y-78385195I454304J-1542948D01*
G01*
X144004994Y-80919729D02*
G75*
G02X143207614Y-80948206I-454303J1542949D01*
G01*
X139050171Y-78385200D02*
G75*
G02X139050171Y-79666700I0J-640750D01*
G01*
X140460401Y-98313200D02*
X142169071Y-98313200D01*
X138922741Y-95750200D02*
X138922741Y-98313200D01*
X138068401Y-95750200D02*
X139777071Y-95750200D01*
X143207613Y-80948208D02*
G75*
G02X142808922Y-80691906I142858J660468D01*
G01*
X143150661Y-79495830D02*
X144147381Y-79837570D01*
X140331401Y-79239530D02*
G75*
G02X142153981Y-79239530I911290J0D01*
G01*
X137043380Y-97202558D02*
G75*
G02X137299681Y-97999943I-166969J-493552D01*
G01*
X153007401Y-116229200D02*
X153007401Y-113666200D01*
X143322401Y-116535200D02*
X143322401Y-113972200D01*
X135435351Y-116535200D02*
X136147291Y-113972200D01*
X142852401Y-95750200D02*
X142852401Y-98313200D01*
X145244401Y-98313200D02*
X145244401Y-95750200D01*
X140930401Y-113972200D02*
X141784741Y-115253700D01*
X136859241Y-116535200D02*
X137571181Y-113972200D01*
X142169071Y-95750200D02*
X140460401Y-95750200D01*
X146397741Y-113972200D02*
X146397741Y-116535200D01*
X144262171Y-113972200D02*
G75*
G02X144262171Y-115253700I0J-640750D01*
G01*
X140331401Y-79239530D02*
X140331401Y-80093870D01*
X145244401Y-95750200D02*
X146184171Y-95750200D01*
X136046663Y-96860842D02*
G75*
G02X135790360Y-96063458I166968J493552D01*
G01*
X139050171Y-79666700D02*
X138110401Y-79666700D01*
X126644400Y-113972200D02*
X128353071Y-116535200D01*
X141784741Y-115253700D02*
X141784741Y-116535200D01*
X144561071Y-95750200D02*
X142852401Y-95750200D01*
X137299678Y-97999939D02*
G75*
G02X136900990Y-98284716I-618127J443909D01*
G01*
X142153981Y-80093870D02*
X142153981Y-79239530D01*
X144403678Y-80634939D02*
G75*
G02X144004990Y-80919716I-618127J443909D01*
G01*
X142894363Y-78698462D02*
G75*
G02X143293051Y-78413685I618128J-443908D01*
G01*
X144147380Y-79837558D02*
G75*
G02X144403681Y-80634943I-166969J-493552D01*
G01*
X143322401Y-113972200D02*
X144262171Y-113972200D01*
X296684401Y-97343700D02*
X297681131Y-97343700D01*
X251240401Y-79213200D02*
X251240401Y-76650200D01*
X81408071Y-93449200D02*
X79699401Y-93449200D01*
X296684401Y-96062200D02*
X297624171Y-96062200D01*
X96443671Y-64621200D02*
X86943671Y-64621200D01*
X78610671Y-101540200D02*
X78610671Y-79540200D01*
X70110671Y-102540200D02*
G75*
G02X69110671Y-101540200I0J1000000D01*
G01*
X86943671Y-77121200D02*
G75*
G02X85443671Y-75621200I0J1500000D01*
G01*
X296684401Y-83386200D02*
X296684401Y-80823200D01*
X296684401Y-80823200D02*
X297567211Y-80823200D01*
X96443671Y-64621200D02*
G75*
G02X97943671Y-66121200I0J-1500000D01*
G01*
X97943671Y-75621200D02*
X97943671Y-66121200D01*
X77610671Y-78540200D02*
G75*
G02X78610671Y-79540200I0J-1000000D01*
G01*
X296684401Y-88466200D02*
X298393071Y-88466200D01*
X79699401Y-94730700D02*
X81123291Y-94730700D01*
X78610671Y-101540200D02*
G75*
G02X77610671Y-102540200I-1000000J0D01*
G01*
X297624171Y-96062199D02*
G75*
G02X297624171Y-97343701I0J-640751D01*
G01*
X297624171Y-90982200D02*
G75*
G02X297624171Y-92263700I0J-640750D01*
G01*
X296684401Y-98625200D02*
X296684401Y-96062200D01*
X252438471Y-83011700D02*
X253064981Y-83011700D01*
X70110671Y-102540200D02*
X77610671Y-102540200D01*
X297681131Y-97343700D02*
X298250681Y-98625200D01*
X297567211Y-83386200D02*
X296684401Y-83386200D01*
X80639171Y-99809700D02*
X79699401Y-99809700D01*
X276667611Y-73104700D02*
X278148461Y-73104700D01*
X79699401Y-99809700D02*
X80696131Y-99809700D01*
X79699401Y-93449200D02*
X79699401Y-96012200D01*
X298393071Y-85903200D02*
X296684401Y-85903200D01*
X296684401Y-87184700D02*
X298108291Y-87184700D01*
X252180171Y-76650200D02*
G75*
G02X252180171Y-77931700I0J-640750D01*
G01*
X297624171Y-92263700D02*
X296684401Y-92263700D01*
X79699401Y-101091200D02*
X79699401Y-98528200D01*
X296684401Y-90982200D02*
X297624171Y-90982200D01*
X79699401Y-88369200D02*
X79699401Y-90932200D01*
X253064981Y-83011700D02*
X253064981Y-83438870D01*
X298393068Y-82531869D02*
G75*
G02X297567214Y-83386199I-824427J-29381D01*
G01*
X253064982Y-83438870D02*
G75*
G02X251242400Y-83438870I-911291J0D01*
G01*
X80696131Y-99809700D02*
X81265681Y-101091200D01*
X251240401Y-76650200D02*
X252180171Y-76650200D01*
X79699401Y-90932200D02*
X81408071Y-90932200D01*
X79699401Y-98528200D02*
X80639171Y-98528200D01*
X277408041Y-73845120D02*
X277408041Y-72364280D01*
X297624171Y-97343700D02*
X296684401Y-97343700D01*
X296684401Y-85903200D02*
X296684401Y-88466200D01*
X251242406Y-82584533D02*
G75*
G02X252865633Y-82100413I877635J20693D01*
G01*
X297567218Y-80823201D02*
G75*
G02X298393071Y-81677532I-33167J-858389D01*
G01*
X69110671Y-79540200D02*
G75*
G02X70110671Y-78540200I1000000J0D01*
G01*
X296684401Y-93545200D02*
X296684401Y-90982200D01*
X252180171Y-77931700D02*
X251240401Y-77931700D01*
X97943671Y-93018200D02*
G75*
G02X96443671Y-94518200I-1500000J0D01*
G01*
X86943671Y-94518200D02*
X96443671Y-94518200D01*
X97943671Y-75621200D02*
G75*
G02X96443671Y-77121200I-1500000J0D01*
G01*
X298393071Y-81677530D02*
X298393071Y-82531870D01*
X77610671Y-78540200D02*
X70110671Y-78540200D01*
X79699401Y-96012200D02*
X81408071Y-96012200D01*
X86943671Y-94518200D02*
G75*
G02X85443671Y-93018200I0J1500000D01*
G01*
X85443671Y-66121200D02*
X85443671Y-75621200D01*
X276606401Y-88408700D02*
X278087251Y-88408700D01*
X69110671Y-79540200D02*
X69110671Y-101540200D01*
X85443671Y-66121200D02*
G75*
G02X86943671Y-64621200I1500000J0D01*
G01*
X251242401Y-83438870D02*
X251242401Y-82584530D01*
X81408071Y-88369200D02*
X79699401Y-88369200D01*
X80639171Y-98528200D02*
G75*
G02X80639171Y-99809700I0J-640750D01*
G01*
X86943671Y-77121200D02*
X96443671Y-77121200D01*
X147443671Y-75621200D02*
X147443671Y-66121200D01*
X130943671Y-110416200D02*
G75*
G02X129443671Y-111916200I-1500000J0D01*
G01*
X147443671Y-75621200D02*
G75*
G02X145943671Y-77121200I-1500000J0D01*
G01*
X118443671Y-100916200D02*
G75*
G02X119943671Y-99416200I1500000J0D01*
G01*
X101943671Y-100916200D02*
X101943671Y-110416200D01*
X136443671Y-77121200D02*
G75*
G02X134943671Y-75621200I0J1500000D01*
G01*
X130943671Y-110416200D02*
X130943671Y-100916200D01*
X119943671Y-111916200D02*
X129443671Y-111916200D01*
X119943671Y-111916200D02*
G75*
G02X118443671Y-110416200I0J1500000D01*
G01*
X130943671Y-93018200D02*
G75*
G02X129443671Y-94518200I-1500000J0D01*
G01*
X118443671Y-83518200D02*
G75*
G02X119943671Y-82018200I1500000J0D01*
G01*
X119943671Y-94518200D02*
G75*
G02X118443671Y-93018200I0J1500000D01*
G01*
X129443671Y-64621200D02*
G75*
G02X130943671Y-66121200I0J-1500000D01*
G01*
X114443671Y-110416200D02*
G75*
G02X112943671Y-111916200I-1500000J0D01*
G01*
X130943671Y-75621200D02*
G75*
G02X129443671Y-77121200I-1500000J0D01*
G01*
X129443671Y-64621200D02*
X119943671Y-64621200D01*
X101943671Y-100916200D02*
G75*
G02X103443671Y-99416200I1500000J0D01*
G01*
X118443671Y-66121200D02*
G75*
G02X119943671Y-64621200I1500000J0D01*
G01*
X114443671Y-110416200D02*
X114443671Y-100916200D01*
X112943671Y-99416200D02*
X103443671Y-99416200D01*
X118443671Y-83518200D02*
X118443671Y-93018200D01*
X129443671Y-82018200D02*
X119943671Y-82018200D01*
X145943671Y-99416200D02*
G75*
G02X147443671Y-100916200I0J-1500000D01*
G01*
X136443671Y-94518200D02*
X145943671Y-94518200D01*
X163943671Y-110416200D02*
G75*
G02X162443671Y-111916200I-1500000J0D01*
G01*
X152943671Y-111916200D02*
X162443671Y-111916200D01*
X118443671Y-66121200D02*
X118443671Y-75621200D01*
X152943671Y-111916200D02*
G75*
G02X151443671Y-110416200I0J1500000D01*
G01*
X147443671Y-93018200D02*
X147443671Y-83518200D01*
X134943671Y-100916200D02*
X134943671Y-110416200D01*
X145943671Y-64621200D02*
X136443671Y-64621200D01*
X129443671Y-99416200D02*
X119943671Y-99416200D01*
X134943671Y-100916200D02*
G75*
G02X136443671Y-99416200I1500000J0D01*
G01*
X119943671Y-77121200D02*
G75*
G02X118443671Y-75621200I0J1500000D01*
G01*
X134943671Y-66121200D02*
G75*
G02X136443671Y-64621200I1500000J0D01*
G01*
X119943671Y-94518200D02*
X129443671Y-94518200D01*
X129443671Y-99416200D02*
G75*
G02X130943671Y-100916200I0J-1500000D01*
G01*
X145943671Y-99416200D02*
X136443671Y-99416200D01*
X147443671Y-110416200D02*
X147443671Y-100916200D01*
X134943671Y-83518200D02*
X134943671Y-93018200D01*
X145943671Y-82018200D02*
X136443671Y-82018200D01*
X136443671Y-94518200D02*
G75*
G02X134943671Y-93018200I0J1500000D01*
G01*
X134943671Y-66121200D02*
X134943671Y-75621200D01*
X147443671Y-110416200D02*
G75*
G02X145943671Y-111916200I-1500000J0D01*
G01*
X136443671Y-111916200D02*
X145943671Y-111916200D01*
X136443671Y-111916200D02*
G75*
G02X134943671Y-110416200I0J1500000D01*
G01*
X118443671Y-100916200D02*
X118443671Y-110416200D01*
X112943671Y-99416200D02*
G75*
G02X114443671Y-100916200I0J-1500000D01*
G01*
X130943671Y-93018200D02*
X130943671Y-83518200D01*
X136443671Y-77121200D02*
X145943671Y-77121200D01*
X134943671Y-83518200D02*
G75*
G02X136443671Y-82018200I1500000J0D01*
G01*
X130943671Y-75621200D02*
X130943671Y-66121200D01*
X119943671Y-77121200D02*
X129443671Y-77121200D01*
X145943671Y-82018200D02*
G75*
G02X147443671Y-83518200I0J-1500000D01*
G01*
X147443671Y-93018200D02*
G75*
G02X145943671Y-94518200I-1500000J0D01*
G01*
X145943671Y-64621200D02*
G75*
G02X147443671Y-66121200I0J-1500000D01*
G01*
X129443671Y-82018200D02*
G75*
G02X130943671Y-83518200I0J-1500000D01*
G01*
X96443671Y-99416200D02*
X86943671Y-99416200D01*
X85443671Y-100916200D02*
X85443671Y-110416200D01*
X288637671Y-69100200D02*
G75*
G02X289637671Y-70100200I0J-1000000D01*
G01*
X299911671Y-79540200D02*
X299911671Y-101540200D01*
X255743671Y-93100200D02*
X263243671Y-93100200D01*
X281137671Y-93100200D02*
X288637671Y-93100200D01*
X260175671Y-102390200D02*
G75*
G02X261175671Y-101390200I1000000J0D01*
G01*
X283175671Y-101390200D02*
X261175671Y-101390200D01*
X96443671Y-99416200D02*
G75*
G02X97943671Y-100916200I0J-1500000D01*
G01*
X97943671Y-110416200D02*
X97943671Y-100916200D01*
X97943671Y-110416200D02*
G75*
G02X96443671Y-111916200I-1500000J0D01*
G01*
X260175671Y-102390200D02*
X260175671Y-109890200D01*
X264243671Y-92100200D02*
X264243671Y-70100200D01*
X86943671Y-111916200D02*
G75*
G02X85443671Y-110416200I0J1500000D01*
G01*
X261175671Y-110890200D02*
G75*
G02X260175671Y-109890200I0J1000000D01*
G01*
X280137671Y-70100200D02*
X280137671Y-92100200D01*
X289637671Y-92100200D02*
G75*
G02X288637671Y-93100200I-1000000J0D01*
G01*
X309411671Y-101540200D02*
G75*
G02X308411671Y-102540200I-1000000J0D01*
G01*
X255743671Y-93100200D02*
G75*
G02X254743671Y-92100200I0J1000000D01*
G01*
X284175671Y-109890200D02*
X284175671Y-102390200D01*
X280137671Y-70100200D02*
G75*
G02X281137671Y-69100200I1000000J0D01*
G01*
X264243671Y-92100200D02*
G75*
G02X263243671Y-93100200I-1000000J0D01*
G01*
X254743671Y-70100200D02*
G75*
G02X255743671Y-69100200I1000000J0D01*
G01*
X263243671Y-69100200D02*
X255743671Y-69100200D01*
X85443671Y-83518200D02*
G75*
G02X86943671Y-82018200I1500000J0D01*
G01*
X299911671Y-79540200D02*
G75*
G02X300911671Y-78540200I1000000J0D01*
G01*
X300911671Y-102540200D02*
X308411671Y-102540200D01*
X300911671Y-102540200D02*
G75*
G02X299911671Y-101540200I0J1000000D01*
G01*
X96443671Y-82018200D02*
G75*
G02X97943671Y-83518200I0J-1500000D01*
G01*
X103443671Y-111916200D02*
X112943671Y-111916200D01*
X103443671Y-111916200D02*
G75*
G02X101943671Y-110416200I0J1500000D01*
G01*
X114443671Y-93018200D02*
X114443671Y-83518200D01*
X101943671Y-83518200D02*
G75*
G02X103443671Y-82018200I1500000J0D01*
G01*
X101943671Y-66121200D02*
G75*
G02X103443671Y-64621200I1500000J0D01*
G01*
X101943671Y-83518200D02*
X101943671Y-93018200D01*
X284175671Y-109890200D02*
G75*
G02X283175671Y-110890200I-1000000J0D01*
G01*
X112943671Y-82018200D02*
X103443671Y-82018200D01*
X112943671Y-82018200D02*
G75*
G02X114443671Y-83518200I0J-1500000D01*
G01*
X263243671Y-69100200D02*
G75*
G02X264243671Y-70100200I0J-1000000D01*
G01*
X163624671Y-88091200D02*
G75*
G03X163624671Y-88091200I-6250000J0D01*
G01*
X103443671Y-77121200D02*
G75*
G02X101943671Y-75621200I0J1500000D01*
G01*
X283175671Y-101390200D02*
G75*
G02X284175671Y-102390200I0J-1000000D01*
G01*
X309411671Y-101540200D02*
X309411671Y-79540200D01*
X86943671Y-111916200D02*
X96443671Y-111916200D01*
X308411671Y-78540200D02*
G75*
G02X309411671Y-79540200I0J-1000000D01*
G01*
X85443671Y-100916200D02*
G75*
G02X86943671Y-99416200I1500000J0D01*
G01*
X254743671Y-70100200D02*
X254743671Y-92100200D01*
X114443671Y-93018200D02*
G75*
G02X112943671Y-94518200I-1500000J0D01*
G01*
X289637671Y-92100200D02*
X289637671Y-70100200D01*
X112943671Y-64621200D02*
X103443671Y-64621200D01*
X288637671Y-69100200D02*
X281137671Y-69100200D01*
X114443671Y-75621200D02*
G75*
G02X112943671Y-77121200I-1500000J0D01*
G01*
X103443671Y-94518200D02*
X112943671Y-94518200D01*
X103443671Y-94518200D02*
G75*
G02X101943671Y-93018200I0J1500000D01*
G01*
X101943671Y-66121200D02*
X101943671Y-75621200D01*
X112943671Y-64621200D02*
G75*
G02X114443671Y-66121200I0J-1500000D01*
G01*
X114443671Y-75621200D02*
X114443671Y-66121200D01*
X261175671Y-110890200D02*
X283175671Y-110890200D01*
X103443671Y-77121200D02*
X112943671Y-77121200D01*
X281137671Y-93100200D02*
G75*
G02X280137671Y-92100200I0J1000000D01*
G01*
X96443671Y-82018200D02*
X86943671Y-82018200D01*
X308411671Y-78540200D02*
X300911671Y-78540200D01*
X97943671Y-93018200D02*
X97943671Y-83518200D01*
X85443671Y-83518200D02*
X85443671Y-93018200D01*
X226443671Y-100916200D02*
G75*
G02X227943671Y-99416200I1500000J0D01*
G01*
X227943671Y-111916200D02*
X237443671Y-111916200D01*
X178943671Y-99416200D02*
G75*
G02X180443671Y-100916200I0J-1500000D01*
G01*
X205943671Y-110416200D02*
G75*
G02X204443671Y-111916200I-1500000J0D01*
G01*
X238943671Y-110416200D02*
X238943671Y-100916200D01*
X211443671Y-111916200D02*
X220943671Y-111916200D01*
X162443671Y-99416200D02*
X152943671Y-99416200D01*
X204443671Y-99416200D02*
G75*
G02X205943671Y-100916200I0J-1500000D01*
G01*
X209943671Y-83518200D02*
G75*
G02X211443671Y-82018200I1500000J0D01*
G01*
X211443671Y-94518200D02*
G75*
G02X209943671Y-93018200I0J1500000D01*
G01*
X237443671Y-99416200D02*
X227943671Y-99416200D01*
X193443671Y-100916200D02*
X193443671Y-110416200D01*
X194943671Y-111916200D02*
G75*
G02X193443671Y-110416200I0J1500000D01*
G01*
X204443671Y-99416200D02*
X194943671Y-99416200D01*
X180443671Y-110416200D02*
X180443671Y-100916200D01*
X204443671Y-82018200D02*
G75*
G02X205943671Y-83518200I0J-1500000D01*
G01*
X237443671Y-99416200D02*
G75*
G02X238943671Y-100916200I0J-1500000D01*
G01*
X237443671Y-82018200D02*
G75*
G02X238943671Y-83518200I0J-1500000D01*
G01*
X238943671Y-110416200D02*
G75*
G02X237443671Y-111916200I-1500000J0D01*
G01*
X227943671Y-111916200D02*
G75*
G02X226443671Y-110416200I0J1500000D01*
G01*
X238943671Y-93018200D02*
X238943671Y-83518200D01*
X238943671Y-93018200D02*
G75*
G02X237443671Y-94518200I-1500000J0D01*
G01*
X209943671Y-100916200D02*
X209943671Y-110416200D01*
X205943671Y-110416200D02*
X205943671Y-100916200D01*
X193443671Y-83518200D02*
G75*
G02X194943671Y-82018200I1500000J0D01*
G01*
X227943671Y-94518200D02*
X237443671Y-94518200D01*
X178943671Y-99416200D02*
X169443671Y-99416200D01*
X220943671Y-99416200D02*
X211443671Y-99416200D01*
X205943671Y-93018200D02*
X205943671Y-83518200D01*
X209943671Y-83518200D02*
X209943671Y-93018200D01*
X167943671Y-100916200D02*
X167943671Y-110416200D01*
X163943671Y-110416200D02*
X163943671Y-100916200D01*
X211443671Y-111916200D02*
G75*
G02X209943671Y-110416200I0J1500000D01*
G01*
X169443671Y-111916200D02*
X178943671Y-111916200D01*
X220943671Y-82018200D02*
G75*
G02X222443671Y-83518200I0J-1500000D01*
G01*
X204443671Y-82018200D02*
X194943671Y-82018200D01*
X222443671Y-93018200D02*
G75*
G02X220943671Y-94518200I-1500000J0D01*
G01*
X163624671Y-71091200D02*
G75*
G03X163624671Y-71091200I-6250000J0D01*
G01*
X180443671Y-110416200D02*
G75*
G02X178943671Y-111916200I-1500000J0D01*
G01*
X151443671Y-100916200D02*
G75*
G02X152943671Y-99416200I1500000J0D01*
G01*
X194943671Y-94518200D02*
G75*
G02X193443671Y-93018200I0J1500000D01*
G01*
X211443671Y-94518200D02*
X220943671Y-94518200D01*
X237443671Y-82018200D02*
X227943671Y-82018200D01*
X226443671Y-83518200D02*
G75*
G02X227943671Y-82018200I1500000J0D01*
G01*
X222443671Y-110416200D02*
X222443671Y-100916200D01*
X222443671Y-110416200D02*
G75*
G02X220943671Y-111916200I-1500000J0D01*
G01*
X220943671Y-82018200D02*
X211443671Y-82018200D01*
X193443671Y-100916200D02*
G75*
G02X194943671Y-99416200I1500000J0D01*
G01*
X205943671Y-93018200D02*
G75*
G02X204443671Y-94518200I-1500000J0D01*
G01*
X194943671Y-94518200D02*
X204443671Y-94518200D01*
X169443671Y-94416200D02*
X178943671Y-94416200D01*
X169443671Y-94416200D02*
G75*
G02X167943671Y-92916200I0J1500000D01*
G01*
X222443671Y-93018200D02*
X222443671Y-83518200D01*
X193443671Y-83518200D02*
X193443671Y-93018200D01*
X167943671Y-100916200D02*
G75*
G02X169443671Y-99416200I1500000J0D01*
G01*
X226443671Y-100916200D02*
X226443671Y-110416200D01*
X226443671Y-83518200D02*
X226443671Y-93018200D01*
X209943671Y-100916200D02*
G75*
G02X211443671Y-99416200I1500000J0D01*
G01*
X220943671Y-99416200D02*
G75*
G02X222443671Y-100916200I0J-1500000D01*
G01*
X194943671Y-111916200D02*
X204443671Y-111916200D01*
X169443671Y-111916200D02*
G75*
G02X167943671Y-110416200I0J1500000D01*
G01*
X162443671Y-99416200D02*
G75*
G02X163943671Y-100916200I0J-1500000D01*
G01*
X151443671Y-100916200D02*
X151443671Y-110416200D01*
X227943671Y-94518200D02*
G75*
G02X226443671Y-93018200I0J1500000D01*
G01*
X124679613Y-116535208D02*
G75*
G02X124280922Y-116278906I142858J660468D01*
G01*
X90882994Y-98488729D02*
G75*
G02X90085614Y-98517206I-454303J1542949D01*
G01*
X91025380Y-97406558D02*
G75*
G02X91281681Y-98203943I-166969J-493552D01*
G01*
X95296741Y-95954200D02*
X95296741Y-98517200D01*
X89641380Y-79673558D02*
G75*
G02X89897681Y-80470943I-166969J-493552D01*
G01*
X88644661Y-79331830D02*
X89641381Y-79673570D01*
X92050401Y-97235700D02*
X93474291Y-97235700D01*
X89584428Y-78221194D02*
G75*
G02X89983119Y-78477495I-142857J-660466D01*
G01*
X90968428Y-95954194D02*
G75*
G02X91367119Y-96210495I-142857J-660466D01*
G01*
X91281678Y-98203939D02*
G75*
G02X90882990Y-98488716I-618127J443909D01*
G01*
X90085613Y-98517208D02*
G75*
G02X89686922Y-98260906I142858J660468D01*
G01*
X92050401Y-95954200D02*
X92050401Y-98517200D01*
X92050401Y-98517200D02*
X93759071Y-98517200D01*
X90028661Y-97064830D02*
X91025381Y-97406570D01*
X88701613Y-80784208D02*
G75*
G02X88302922Y-80527906I142858J660468D01*
G01*
X93759071Y-95954200D02*
X92050401Y-95954200D01*
X88644663Y-79331842D02*
G75*
G02X88388360Y-78534458I166968J493552D01*
G01*
X90171047Y-95982672D02*
G75*
G02X90968427Y-95954195I454304J-1542948D01*
G01*
X89772363Y-96267462D02*
G75*
G02X90171051Y-95982685I618128J-443908D01*
G01*
X94442401Y-95954200D02*
X96151071Y-95954200D01*
X88787047Y-78249672D02*
G75*
G02X89584427Y-78221195I454304J-1542948D01*
G01*
X90666401Y-78221200D02*
X91520741Y-79502700D01*
X89498994Y-80755729D02*
G75*
G02X88701614Y-80784206I-454303J1542949D01*
G01*
X89897678Y-80470939D02*
G75*
G02X89498990Y-80755716I-618127J443909D01*
G01*
X96151071Y-95954200D02*
X95296741Y-95954200D01*
X90028663Y-97064842D02*
G75*
G02X89772360Y-96267458I166968J493552D01*
G01*
X88388363Y-78534462D02*
G75*
G02X88787051Y-78249685I618128J-443908D01*
G01*
X93428613Y-80784208D02*
G75*
G02X93029922Y-80527906I142858J660468D01*
G01*
X93115363Y-78534462D02*
G75*
G02X93514051Y-78249685I618128J-443908D01*
G01*
X91520741Y-79502700D02*
X91520741Y-80784200D01*
X109350401Y-95862200D02*
X110347131Y-97713260D01*
X104737401Y-95862200D02*
X104737401Y-98425200D01*
X93371660Y-79331830D02*
X94368381Y-79673570D01*
X108319131Y-78089200D02*
X109315851Y-80652200D01*
X91520741Y-80784200D02*
X91520741Y-79502700D01*
X94368380Y-79673558D02*
G75*
G02X94624681Y-80470943I-166969J-493552D01*
G01*
X93371663Y-79331842D02*
G75*
G02X93115360Y-78534458I166968J493552D01*
G01*
X105617851Y-113871200D02*
X105617851Y-116434200D01*
X104621131Y-115722260D02*
X105617851Y-113871200D01*
X103624401Y-113871200D02*
X104621131Y-115722260D01*
X108069171Y-97143700D02*
X107129401Y-97143700D01*
X106446071Y-95862200D02*
X104737401Y-95862200D01*
X104737401Y-97143700D02*
X106161291Y-97143700D01*
X103624401Y-116434200D02*
X103624401Y-113871200D01*
X107129401Y-95862200D02*
X108069171Y-95862200D01*
X94225994Y-80755728D02*
G75*
G02X93428614Y-80784206I-454304J1542948D01*
G01*
X107129401Y-98425200D02*
X107129401Y-95862200D01*
X110852741Y-80652200D02*
X111707071Y-78089200D01*
X107322401Y-80652200D02*
X108319131Y-78089200D01*
X93514047Y-78249672D02*
G75*
G02X94311427Y-78221195I454304J-1542948D01*
G01*
X104930401Y-78089200D02*
X106639071Y-80652200D01*
X104930401Y-80652200D02*
X104930401Y-78089200D01*
X94311428Y-78221194D02*
G75*
G02X94710119Y-78477495I-142857J-660466D01*
G01*
X106639071Y-80652200D02*
X106639071Y-78089200D01*
X91520741Y-79502700D02*
X92375071Y-78221200D01*
X111343851Y-95862200D02*
X111343851Y-98425200D01*
X110347131Y-97713260D02*
X111343851Y-95862200D01*
X109350401Y-98425200D02*
X109350401Y-95862200D01*
X108069171Y-95862200D02*
G75*
G02X108069171Y-97143700I0J-640750D01*
G01*
X109998401Y-78089200D02*
X110852741Y-80652200D01*
X107607181Y-79940260D02*
X109031071Y-79940260D01*
X94624678Y-80470939D02*
G75*
G02X94225990Y-80755716I-618127J443909D01*
G01*
X320590671Y-54360200D02*
X320590671Y-125480200D01*
X60240671Y-125480200D02*
X60240671Y-54360200D01*
X87209401Y-96808530D02*
X87209401Y-97662870D01*
X87209401Y-96808530D02*
G75*
G02X89031981Y-96808530I911290J0D01*
G01*
X89031981Y-97662870D02*
X89031981Y-96808530D01*
X89031982Y-97662870D02*
G75*
G02X87209400Y-97662870I-911291J0D01*
G01*
X97201071Y-116597200D02*
X97201071Y-114034200D01*
X95492401Y-114034200D02*
X97201071Y-116597200D01*
X95492401Y-116597200D02*
X95492401Y-114034200D01*
X89428171Y-115315700D02*
X88488401Y-115315700D01*
X93813131Y-114034200D02*
X94809851Y-116597200D01*
X90709401Y-114034200D02*
X90709401Y-116597200D01*
X88488401Y-116597200D02*
X88488401Y-114034200D01*
X87805071Y-114034200D02*
X86096401Y-114034200D01*
X86096401Y-115315700D02*
X87520291Y-115315700D01*
X92816401Y-116597200D02*
X93813131Y-114034200D01*
X93101180Y-115885260D02*
X94525071Y-115885260D01*
X320590671Y-125480200D02*
X60240671Y-125480200D01*
X88488401Y-114034200D02*
X89428171Y-114034200D01*
X86096401Y-114034200D02*
X86096401Y-116597200D01*
X90709401Y-116597200D02*
X92133291Y-116597200D01*
X89428171Y-114034199D02*
G75*
G02X89428171Y-115315701I0J-640751D01*
G01*
X60240671Y-54360200D02*
X320590671Y-54360200D01*
X124622662Y-115082841D02*
G75*
G02X124366360Y-114285458I166968J493551D01*
G01*
X124765047Y-114000672D02*
G75*
G02X125562427Y-113972195I454304J-1542948D01*
G01*
X123626851Y-113972200D02*
X123626851Y-116535200D01*
X125562428Y-113972194D02*
G75*
G02X125961119Y-114228495I-142857J-660466D01*
G01*
X121633401Y-116535200D02*
X121633401Y-113972200D01*
X127273401Y-95831200D02*
X128127741Y-98394200D01*
X121633401Y-113972200D02*
X122630131Y-115823260D01*
X128127741Y-98394200D02*
X128982071Y-95831200D01*
X124366363Y-114285462D02*
G75*
G02X124765051Y-114000685I618128J-443908D01*
G01*
X125476994Y-116506729D02*
G75*
G02X124679614Y-116535206I-454303J1542949D01*
G01*
X125875678Y-116221939D02*
G75*
G02X125476990Y-116506716I-618127J443909D01*
G01*
X125619380Y-115424558D02*
G75*
G02X125875681Y-116221943I-166969J-493552D01*
G01*
X124622661Y-115082830D02*
X125619381Y-115424570D01*
X122630131Y-115823260D02*
X123626851Y-113972200D01*
X111681531Y-115010310D02*
X112906071Y-116434200D01*
X109916171Y-113871199D02*
G75*
G02X109916171Y-115152701I0J-640751D01*
G01*
X107297131Y-113871200D02*
X108293851Y-116434200D01*
X111197401Y-116434200D02*
X111197401Y-115465960D01*
X109973131Y-115152700D02*
X110542681Y-116434200D01*
X108976401Y-116434200D02*
X108976401Y-113871200D01*
X124881401Y-98394200D02*
X126590071Y-98394200D01*
X124881401Y-95831200D02*
X124881401Y-98394200D01*
X123657131Y-97112700D02*
X124226681Y-98394200D01*
X120439401Y-95831200D02*
X121379171Y-95831200D01*
X126590071Y-95831200D02*
X124881401Y-95831200D01*
X108976401Y-115152700D02*
X109973131Y-115152700D01*
X122660401Y-97112700D02*
X123657131Y-97112700D01*
X123600171Y-97112700D02*
X122660401Y-97112700D01*
X111197401Y-113871200D02*
X111197401Y-116434200D01*
X121379171Y-95831200D02*
G75*
G02X121379171Y-97112700I0J-640750D01*
G01*
X123557291Y-78109200D02*
X124269241Y-80672200D01*
X111197401Y-115465960D02*
X111681531Y-115010310D01*
X122660401Y-98394200D02*
X122660401Y-95831200D01*
X120439401Y-98394200D02*
X120439401Y-95831200D01*
X122845351Y-80672200D02*
X123557291Y-78109200D01*
X106585181Y-115722260D02*
X108009071Y-115722260D01*
X109916171Y-115152700D02*
X108976401Y-115152700D01*
X108976401Y-113871200D02*
X109916171Y-113871200D01*
X122133401Y-78109200D02*
X122845351Y-80672200D01*
X124881401Y-97112700D02*
X126305291Y-97112700D01*
X123600171Y-95831200D02*
G75*
G02X123600171Y-97112700I0J-640750D01*
G01*
X122660401Y-95831200D02*
X123600171Y-95831200D01*
X121379171Y-97112700D02*
X120439401Y-97112700D01*
X126604171Y-79390700D02*
X125664401Y-79390700D01*
X126604171Y-78109200D02*
G75*
G02X126604171Y-79390700I0J-640750D01*
G01*
X125664401Y-78109200D02*
X126604171Y-78109200D01*
X125664401Y-80672200D02*
X125664401Y-78109200D01*
X106300401Y-116434200D02*
X107297131Y-113871200D01*
X124269241Y-80672200D02*
X124981181Y-78109200D01*
X111681531Y-115010310D02*
X112906071Y-113871200D01*
X112906071Y-116434200D02*
X111681531Y-115010310D01*
X126644400Y-116535200D02*
X126644400Y-113972200D01*
D11*
X308248000Y-98123000D02*
X308248000Y-96623000D01*
X306998000Y-94123000D02*
X302498000Y-94123000D01*
X301248000Y-96623000D02*
X301248000Y-98123000D01*
X302498000Y-100623000D02*
X306998000Y-100623000D01*
X308248000Y-84280000D02*
X308248000Y-82780000D01*
X306998000Y-80280000D02*
X302498000Y-80280000D01*
X301248000Y-82780000D02*
X301248000Y-84280000D01*
X302498000Y-86780000D02*
X306998000Y-86780000D01*
X288436000Y-88725000D02*
X288436000Y-87225000D01*
X287186000Y-84725000D02*
X282686000Y-84725000D01*
X281436000Y-87225000D02*
X281436000Y-88725000D01*
X282686000Y-91225000D02*
X287186000Y-91225000D01*
X288436000Y-74882000D02*
X288436000Y-73382000D01*
X287186000Y-70882000D02*
X282686000Y-70882000D01*
X281436000Y-73382000D02*
X281436000Y-74882000D01*
X282686000Y-77382000D02*
X287186000Y-77382000D01*
X282086000Y-106759000D02*
X282086000Y-105259000D01*
X280836000Y-102759000D02*
X276336000Y-102759000D01*
X275086000Y-105259000D02*
X275086000Y-106759000D01*
X276336000Y-109259000D02*
X280836000Y-109259000D01*
X269386000Y-106759000D02*
X269386000Y-105259000D01*
X268136000Y-102759000D02*
X263636000Y-102759000D01*
X262386000Y-105259000D02*
X262386000Y-106759000D01*
X263636000Y-109259000D02*
X268136000Y-109259000D01*
X263036000Y-88725000D02*
X263036000Y-87225000D01*
X261786000Y-84725000D02*
X257286000Y-84725000D01*
X256036000Y-87225000D02*
X256036000Y-88725000D01*
X257286000Y-91225000D02*
X261786000Y-91225000D01*
X263036000Y-74882000D02*
X263036000Y-73382000D01*
X261786000Y-70882000D02*
X257286000Y-70882000D01*
X256036000Y-73382000D02*
X256036000Y-74882000D01*
X257286000Y-77382000D02*
X261786000Y-77382000D01*
X236239000Y-106124000D02*
X236239000Y-104624000D01*
X234989000Y-102124000D02*
X230489000Y-102124000D01*
X229239000Y-104624000D02*
X229239000Y-106124000D01*
X230489000Y-108624000D02*
X234989000Y-108624000D01*
X236239000Y-88471000D02*
X236239000Y-86971000D01*
X234989000Y-84471000D02*
X230489000Y-84471000D01*
X229239000Y-86971000D02*
X229239000Y-88471000D01*
X230489000Y-90971000D02*
X234989000Y-90971000D01*
X219602000Y-106124000D02*
X219602000Y-104624000D01*
X218352000Y-102124000D02*
X213852000Y-102124000D01*
X212602000Y-104624000D02*
X212602000Y-106124000D01*
X213852000Y-108624000D02*
X218352000Y-108624000D01*
X219729000Y-88471000D02*
X219729000Y-86971000D01*
X218479000Y-84471000D02*
X213979000Y-84471000D01*
X212729000Y-86971000D02*
X212729000Y-88471000D01*
X213979000Y-90971000D02*
X218479000Y-90971000D01*
X215665000Y-71961000D02*
X215665000Y-70461000D01*
X214415000Y-67961000D02*
X209915000Y-67961000D01*
X208665000Y-70461000D02*
X208665000Y-71961000D01*
X209915000Y-74461000D02*
X214415000Y-74461000D01*
X203092000Y-106124000D02*
X203092000Y-104624000D01*
X201842000Y-102124000D02*
X197342000Y-102124000D01*
X196092000Y-104624000D02*
X196092000Y-106124000D01*
X197342000Y-108624000D02*
X201842000Y-108624000D01*
X203092000Y-88471000D02*
X203092000Y-86971000D01*
X201842000Y-84471000D02*
X197342000Y-84471000D01*
X196092000Y-86971000D02*
X196092000Y-88471000D01*
X197342000Y-90971000D02*
X201842000Y-90971000D01*
X177692000Y-106378000D02*
X177692000Y-104878000D01*
X176442000Y-102378000D02*
X171942000Y-102378000D01*
X170692000Y-104878000D02*
X170692000Y-106378000D01*
X171942000Y-108878000D02*
X176442000Y-108878000D01*
X177819000Y-88471000D02*
X177819000Y-86971000D01*
X176569000Y-84471000D02*
X172069000Y-84471000D01*
X170819000Y-86971000D02*
X170819000Y-88471000D01*
X172069000Y-90971000D02*
X176569000Y-90971000D01*
X181502000Y-71326000D02*
X181502000Y-69826000D01*
X180252000Y-67326000D02*
X175752000Y-67326000D01*
X174502000Y-69826000D02*
X174502000Y-71326000D01*
X175752000Y-73826000D02*
X180252000Y-73826000D01*
X161436000Y-106378000D02*
X161436000Y-104878000D01*
X160186000Y-102378000D02*
X155686000Y-102378000D01*
X154436000Y-104878000D02*
X154436000Y-106378000D01*
X155686000Y-108878000D02*
X160186000Y-108878000D01*
X160928000Y-88725000D02*
X160928000Y-87225000D01*
X159678000Y-84725000D02*
X155178000Y-84725000D01*
X153928000Y-87225000D02*
X153928000Y-88725000D01*
X155178000Y-91225000D02*
X159678000Y-91225000D01*
X160801000Y-71453000D02*
X160801000Y-69953000D01*
X159551000Y-67453000D02*
X155051000Y-67453000D01*
X153801000Y-69953000D02*
X153801000Y-71453000D01*
X155051000Y-73953000D02*
X159551000Y-73953000D01*
X144545000Y-106378000D02*
X144545000Y-104878000D01*
X143295000Y-102378000D02*
X138795000Y-102378000D01*
X137545000Y-104878000D02*
X137545000Y-106378000D01*
X138795000Y-108878000D02*
X143295000Y-108878000D01*
X144799000Y-88725000D02*
X144799000Y-87225000D01*
X143549000Y-84725000D02*
X139049000Y-84725000D01*
X137799000Y-87225000D02*
X137799000Y-88725000D01*
X139049000Y-91225000D02*
X143549000Y-91225000D01*
X144799000Y-71453000D02*
X144799000Y-69953000D01*
X143549000Y-67453000D02*
X139049000Y-67453000D01*
X137799000Y-69953000D02*
X137799000Y-71453000D01*
X139049000Y-73953000D02*
X143549000Y-73953000D01*
X128162000Y-106378000D02*
X128162000Y-104878000D01*
X126912000Y-102378000D02*
X122412000Y-102378000D01*
X121162000Y-104878000D02*
X121162000Y-106378000D01*
X122412000Y-108878000D02*
X126912000Y-108878000D01*
X128416000Y-88725000D02*
X128416000Y-87225000D01*
X127166000Y-84725000D02*
X122666000Y-84725000D01*
X121416000Y-87225000D02*
X121416000Y-88725000D01*
X122666000Y-91225000D02*
X127166000Y-91225000D01*
X128289000Y-71453000D02*
X128289000Y-69953000D01*
X127039000Y-67453000D02*
X122539000Y-67453000D01*
X121289000Y-69953000D02*
X121289000Y-71453000D01*
X122539000Y-73953000D02*
X127039000Y-73953000D01*
X111652000Y-106378000D02*
X111652000Y-104878000D01*
X110402000Y-102378000D02*
X105902000Y-102378000D01*
X104652000Y-104878000D02*
X104652000Y-106378000D01*
X105902000Y-108878000D02*
X110402000Y-108878000D01*
X111779000Y-88725000D02*
X111779000Y-87225000D01*
X110529000Y-84725000D02*
X106029000Y-84725000D01*
X104779000Y-87225000D02*
X104779000Y-88725000D01*
X106029000Y-91225000D02*
X110529000Y-91225000D01*
X111652000Y-71453000D02*
X111652000Y-69953000D01*
X110402000Y-67453000D02*
X105902000Y-67453000D01*
X104652000Y-69953000D02*
X104652000Y-71453000D01*
X105902000Y-73953000D02*
X110402000Y-73953000D01*
X95396000Y-106378000D02*
X95396000Y-104878000D01*
X94146000Y-102378000D02*
X89646000Y-102378000D01*
X88396000Y-104878000D02*
X88396000Y-106378000D01*
X89646000Y-108878000D02*
X94146000Y-108878000D01*
X95396000Y-88725000D02*
X95396000Y-87225000D01*
X94146000Y-84725000D02*
X89646000Y-84725000D01*
X88396000Y-87225000D02*
X88396000Y-88725000D01*
X89646000Y-91225000D02*
X94146000Y-91225000D01*
X95269000Y-71453000D02*
X95269000Y-69953000D01*
X94019000Y-67453000D02*
X89519000Y-67453000D01*
X88269000Y-69953000D02*
X88269000Y-71453000D01*
X89519000Y-73953000D02*
X94019000Y-73953000D01*
X77489000Y-98123000D02*
X77489000Y-96623000D01*
X76239000Y-94123000D02*
X71739000Y-94123000D01*
X70489000Y-96623000D02*
X70489000Y-98123000D01*
X71739000Y-100623000D02*
X76239000Y-100623000D01*
X77489000Y-84280000D02*
X77489000Y-82780000D01*
X76239000Y-80280000D02*
X71739000Y-80280000D01*
X70489000Y-82780000D02*
X70489000Y-84280000D01*
X71739000Y-86780000D02*
X76239000Y-86780000D01*
X223328608Y-72792335D02*
G75*
G03X223485516Y-69560000I-1078608J1672335D01*
G01*
X221171392Y-72792335D02*
G75*
G02X221014484Y-69560000I1078608J1672335D01*
G01*
X223329837Y-72161130D02*
G75*
G03X223330000Y-70079039I-1079837J1041130D01*
G01*
X221170163Y-72161130D02*
G75*
G02X221170000Y-70079039I1079837J1041130D01*
G01*
X223486000Y-69560000D02*
X223330000Y-69560000D01*
X221170000Y-69560000D02*
X221014000Y-69560000D01*
D12*
X302938476Y-93527761D02*
X303081333Y-93575380D01*
X303319428Y-93575380D01*
X303414666Y-93527761D01*
X303462285Y-93480142D01*
X303509904Y-93384904D01*
X303509904Y-93289666D01*
X303462285Y-93194428D01*
X303414666Y-93146809D01*
X303319428Y-93099190D01*
X303128952Y-93051571D01*
X303033714Y-93003952D01*
X302986095Y-92956333D01*
X302938476Y-92861095D01*
X302938476Y-92765857D01*
X302986095Y-92670619D01*
X303033714Y-92623000D01*
X303128952Y-92575380D01*
X303367047Y-92575380D01*
X303509904Y-92623000D01*
X303843238Y-92575380D02*
X304081333Y-93575380D01*
X304271809Y-92861095D01*
X304462285Y-93575380D01*
X304700380Y-92575380D01*
X304986095Y-92575380D02*
X305605142Y-92575380D01*
X305271809Y-92956333D01*
X305414666Y-92956333D01*
X305509904Y-93003952D01*
X305557523Y-93051571D01*
X305605142Y-93146809D01*
X305605142Y-93384904D01*
X305557523Y-93480142D01*
X305509904Y-93527761D01*
X305414666Y-93575380D01*
X305128952Y-93575380D01*
X305033714Y-93527761D01*
X304986095Y-93480142D01*
X306509904Y-92575380D02*
X306033714Y-92575380D01*
X305986095Y-93051571D01*
X306033714Y-93003952D01*
X306128952Y-92956333D01*
X306367047Y-92956333D01*
X306462285Y-93003952D01*
X306509904Y-93051571D01*
X306557523Y-93146809D01*
X306557523Y-93384904D01*
X306509904Y-93480142D01*
X306462285Y-93527761D01*
X306367047Y-93575380D01*
X306128952Y-93575380D01*
X306033714Y-93527761D01*
X305986095Y-93480142D01*
X302938476Y-79684761D02*
X303081333Y-79732380D01*
X303319428Y-79732380D01*
X303414666Y-79684761D01*
X303462285Y-79637142D01*
X303509904Y-79541904D01*
X303509904Y-79446666D01*
X303462285Y-79351428D01*
X303414666Y-79303809D01*
X303319428Y-79256190D01*
X303128952Y-79208571D01*
X303033714Y-79160952D01*
X302986095Y-79113333D01*
X302938476Y-79018095D01*
X302938476Y-78922857D01*
X302986095Y-78827619D01*
X303033714Y-78780000D01*
X303128952Y-78732380D01*
X303367047Y-78732380D01*
X303509904Y-78780000D01*
X303843238Y-78732380D02*
X304081333Y-79732380D01*
X304271809Y-79018095D01*
X304462285Y-79732380D01*
X304700380Y-78732380D01*
X304986095Y-78732380D02*
X305605142Y-78732380D01*
X305271809Y-79113333D01*
X305414666Y-79113333D01*
X305509904Y-79160952D01*
X305557523Y-79208571D01*
X305605142Y-79303809D01*
X305605142Y-79541904D01*
X305557523Y-79637142D01*
X305509904Y-79684761D01*
X305414666Y-79732380D01*
X305128952Y-79732380D01*
X305033714Y-79684761D01*
X304986095Y-79637142D01*
X306462285Y-79065714D02*
X306462285Y-79732380D01*
X306224190Y-78684761D02*
X305986095Y-79399047D01*
X306605142Y-79399047D01*
X283126476Y-84129761D02*
X283269333Y-84177380D01*
X283507428Y-84177380D01*
X283602666Y-84129761D01*
X283650285Y-84082142D01*
X283697904Y-83986904D01*
X283697904Y-83891666D01*
X283650285Y-83796428D01*
X283602666Y-83748809D01*
X283507428Y-83701190D01*
X283316952Y-83653571D01*
X283221714Y-83605952D01*
X283174095Y-83558333D01*
X283126476Y-83463095D01*
X283126476Y-83367857D01*
X283174095Y-83272619D01*
X283221714Y-83225000D01*
X283316952Y-83177380D01*
X283555047Y-83177380D01*
X283697904Y-83225000D01*
X284031238Y-83177380D02*
X284269333Y-84177380D01*
X284459809Y-83463095D01*
X284650285Y-84177380D01*
X284888380Y-83177380D01*
X285174095Y-83177380D02*
X285793142Y-83177380D01*
X285459809Y-83558333D01*
X285602666Y-83558333D01*
X285697904Y-83605952D01*
X285745523Y-83653571D01*
X285793142Y-83748809D01*
X285793142Y-83986904D01*
X285745523Y-84082142D01*
X285697904Y-84129761D01*
X285602666Y-84177380D01*
X285316952Y-84177380D01*
X285221714Y-84129761D01*
X285174095Y-84082142D01*
X286126476Y-83177380D02*
X286745523Y-83177380D01*
X286412190Y-83558333D01*
X286555047Y-83558333D01*
X286650285Y-83605952D01*
X286697904Y-83653571D01*
X286745523Y-83748809D01*
X286745523Y-83986904D01*
X286697904Y-84082142D01*
X286650285Y-84129761D01*
X286555047Y-84177380D01*
X286269333Y-84177380D01*
X286174095Y-84129761D01*
X286126476Y-84082142D01*
X283126476Y-70286761D02*
X283269333Y-70334380D01*
X283507428Y-70334380D01*
X283602666Y-70286761D01*
X283650285Y-70239142D01*
X283697904Y-70143904D01*
X283697904Y-70048666D01*
X283650285Y-69953428D01*
X283602666Y-69905809D01*
X283507428Y-69858190D01*
X283316952Y-69810571D01*
X283221714Y-69762952D01*
X283174095Y-69715333D01*
X283126476Y-69620095D01*
X283126476Y-69524857D01*
X283174095Y-69429619D01*
X283221714Y-69382000D01*
X283316952Y-69334380D01*
X283555047Y-69334380D01*
X283697904Y-69382000D01*
X284031238Y-69334380D02*
X284269333Y-70334380D01*
X284459809Y-69620095D01*
X284650285Y-70334380D01*
X284888380Y-69334380D01*
X285174095Y-69334380D02*
X285793142Y-69334380D01*
X285459809Y-69715333D01*
X285602666Y-69715333D01*
X285697904Y-69762952D01*
X285745523Y-69810571D01*
X285793142Y-69905809D01*
X285793142Y-70143904D01*
X285745523Y-70239142D01*
X285697904Y-70286761D01*
X285602666Y-70334380D01*
X285316952Y-70334380D01*
X285221714Y-70286761D01*
X285174095Y-70239142D01*
X286174095Y-69429619D02*
X286221714Y-69382000D01*
X286316952Y-69334380D01*
X286555047Y-69334380D01*
X286650285Y-69382000D01*
X286697904Y-69429619D01*
X286745523Y-69524857D01*
X286745523Y-69620095D01*
X286697904Y-69762952D01*
X286126476Y-70334380D01*
X286745523Y-70334380D01*
X276776476Y-102163761D02*
X276919333Y-102211380D01*
X277157428Y-102211380D01*
X277252666Y-102163761D01*
X277300285Y-102116142D01*
X277347904Y-102020904D01*
X277347904Y-101925666D01*
X277300285Y-101830428D01*
X277252666Y-101782809D01*
X277157428Y-101735190D01*
X276966952Y-101687571D01*
X276871714Y-101639952D01*
X276824095Y-101592333D01*
X276776476Y-101497095D01*
X276776476Y-101401857D01*
X276824095Y-101306619D01*
X276871714Y-101259000D01*
X276966952Y-101211380D01*
X277205047Y-101211380D01*
X277347904Y-101259000D01*
X277681238Y-101211380D02*
X277919333Y-102211380D01*
X278109809Y-101497095D01*
X278300285Y-102211380D01*
X278538380Y-101211380D01*
X278824095Y-101211380D02*
X279443142Y-101211380D01*
X279109809Y-101592333D01*
X279252666Y-101592333D01*
X279347904Y-101639952D01*
X279395523Y-101687571D01*
X279443142Y-101782809D01*
X279443142Y-102020904D01*
X279395523Y-102116142D01*
X279347904Y-102163761D01*
X279252666Y-102211380D01*
X278966952Y-102211380D01*
X278871714Y-102163761D01*
X278824095Y-102116142D01*
X280395523Y-102211380D02*
X279824095Y-102211380D01*
X280109809Y-102211380D02*
X280109809Y-101211380D01*
X280014571Y-101354238D01*
X279919333Y-101449476D01*
X279824095Y-101497095D01*
X264076476Y-102163761D02*
X264219333Y-102211380D01*
X264457428Y-102211380D01*
X264552666Y-102163761D01*
X264600285Y-102116142D01*
X264647904Y-102020904D01*
X264647904Y-101925666D01*
X264600285Y-101830428D01*
X264552666Y-101782809D01*
X264457428Y-101735190D01*
X264266952Y-101687571D01*
X264171714Y-101639952D01*
X264124095Y-101592333D01*
X264076476Y-101497095D01*
X264076476Y-101401857D01*
X264124095Y-101306619D01*
X264171714Y-101259000D01*
X264266952Y-101211380D01*
X264505047Y-101211380D01*
X264647904Y-101259000D01*
X264981238Y-101211380D02*
X265219333Y-102211380D01*
X265409809Y-101497095D01*
X265600285Y-102211380D01*
X265838380Y-101211380D01*
X266124095Y-101211380D02*
X266743142Y-101211380D01*
X266409809Y-101592333D01*
X266552666Y-101592333D01*
X266647904Y-101639952D01*
X266695523Y-101687571D01*
X266743142Y-101782809D01*
X266743142Y-102020904D01*
X266695523Y-102116142D01*
X266647904Y-102163761D01*
X266552666Y-102211380D01*
X266266952Y-102211380D01*
X266171714Y-102163761D01*
X266124095Y-102116142D01*
X267362190Y-101211380D02*
X267457428Y-101211380D01*
X267552666Y-101259000D01*
X267600285Y-101306619D01*
X267647904Y-101401857D01*
X267695523Y-101592333D01*
X267695523Y-101830428D01*
X267647904Y-102020904D01*
X267600285Y-102116142D01*
X267552666Y-102163761D01*
X267457428Y-102211380D01*
X267362190Y-102211380D01*
X267266952Y-102163761D01*
X267219333Y-102116142D01*
X267171714Y-102020904D01*
X267124095Y-101830428D01*
X267124095Y-101592333D01*
X267171714Y-101401857D01*
X267219333Y-101306619D01*
X267266952Y-101259000D01*
X267362190Y-101211380D01*
X257726476Y-84129761D02*
X257869333Y-84177380D01*
X258107428Y-84177380D01*
X258202666Y-84129761D01*
X258250285Y-84082142D01*
X258297904Y-83986904D01*
X258297904Y-83891666D01*
X258250285Y-83796428D01*
X258202666Y-83748809D01*
X258107428Y-83701190D01*
X257916952Y-83653571D01*
X257821714Y-83605952D01*
X257774095Y-83558333D01*
X257726476Y-83463095D01*
X257726476Y-83367857D01*
X257774095Y-83272619D01*
X257821714Y-83225000D01*
X257916952Y-83177380D01*
X258155047Y-83177380D01*
X258297904Y-83225000D01*
X258631238Y-83177380D02*
X258869333Y-84177380D01*
X259059809Y-83463095D01*
X259250285Y-84177380D01*
X259488380Y-83177380D01*
X259821714Y-83272619D02*
X259869333Y-83225000D01*
X259964571Y-83177380D01*
X260202666Y-83177380D01*
X260297904Y-83225000D01*
X260345523Y-83272619D01*
X260393142Y-83367857D01*
X260393142Y-83463095D01*
X260345523Y-83605952D01*
X259774095Y-84177380D01*
X260393142Y-84177380D01*
X260869333Y-84177380D02*
X261059809Y-84177380D01*
X261155047Y-84129761D01*
X261202666Y-84082142D01*
X261297904Y-83939285D01*
X261345523Y-83748809D01*
X261345523Y-83367857D01*
X261297904Y-83272619D01*
X261250285Y-83225000D01*
X261155047Y-83177380D01*
X260964571Y-83177380D01*
X260869333Y-83225000D01*
X260821714Y-83272619D01*
X260774095Y-83367857D01*
X260774095Y-83605952D01*
X260821714Y-83701190D01*
X260869333Y-83748809D01*
X260964571Y-83796428D01*
X261155047Y-83796428D01*
X261250285Y-83748809D01*
X261297904Y-83701190D01*
X261345523Y-83605952D01*
X257726476Y-70286761D02*
X257869333Y-70334380D01*
X258107428Y-70334380D01*
X258202666Y-70286761D01*
X258250285Y-70239142D01*
X258297904Y-70143904D01*
X258297904Y-70048666D01*
X258250285Y-69953428D01*
X258202666Y-69905809D01*
X258107428Y-69858190D01*
X257916952Y-69810571D01*
X257821714Y-69762952D01*
X257774095Y-69715333D01*
X257726476Y-69620095D01*
X257726476Y-69524857D01*
X257774095Y-69429619D01*
X257821714Y-69382000D01*
X257916952Y-69334380D01*
X258155047Y-69334380D01*
X258297904Y-69382000D01*
X258631238Y-69334380D02*
X258869333Y-70334380D01*
X259059809Y-69620095D01*
X259250285Y-70334380D01*
X259488380Y-69334380D01*
X259821714Y-69429619D02*
X259869333Y-69382000D01*
X259964571Y-69334380D01*
X260202666Y-69334380D01*
X260297904Y-69382000D01*
X260345523Y-69429619D01*
X260393142Y-69524857D01*
X260393142Y-69620095D01*
X260345523Y-69762952D01*
X259774095Y-70334380D01*
X260393142Y-70334380D01*
X260964571Y-69762952D02*
X260869333Y-69715333D01*
X260821714Y-69667714D01*
X260774095Y-69572476D01*
X260774095Y-69524857D01*
X260821714Y-69429619D01*
X260869333Y-69382000D01*
X260964571Y-69334380D01*
X261155047Y-69334380D01*
X261250285Y-69382000D01*
X261297904Y-69429619D01*
X261345523Y-69524857D01*
X261345523Y-69572476D01*
X261297904Y-69667714D01*
X261250285Y-69715333D01*
X261155047Y-69762952D01*
X260964571Y-69762952D01*
X260869333Y-69810571D01*
X260821714Y-69858190D01*
X260774095Y-69953428D01*
X260774095Y-70143904D01*
X260821714Y-70239142D01*
X260869333Y-70286761D01*
X260964571Y-70334380D01*
X261155047Y-70334380D01*
X261250285Y-70286761D01*
X261297904Y-70239142D01*
X261345523Y-70143904D01*
X261345523Y-69953428D01*
X261297904Y-69858190D01*
X261250285Y-69810571D01*
X261155047Y-69762952D01*
X230929476Y-101528761D02*
X231072333Y-101576380D01*
X231310428Y-101576380D01*
X231405666Y-101528761D01*
X231453285Y-101481142D01*
X231500904Y-101385904D01*
X231500904Y-101290666D01*
X231453285Y-101195428D01*
X231405666Y-101147809D01*
X231310428Y-101100190D01*
X231119952Y-101052571D01*
X231024714Y-101004952D01*
X230977095Y-100957333D01*
X230929476Y-100862095D01*
X230929476Y-100766857D01*
X230977095Y-100671619D01*
X231024714Y-100624000D01*
X231119952Y-100576380D01*
X231358047Y-100576380D01*
X231500904Y-100624000D01*
X231834238Y-100576380D02*
X232072333Y-101576380D01*
X232262809Y-100862095D01*
X232453285Y-101576380D01*
X232691380Y-100576380D01*
X233024714Y-100671619D02*
X233072333Y-100624000D01*
X233167571Y-100576380D01*
X233405666Y-100576380D01*
X233500904Y-100624000D01*
X233548523Y-100671619D01*
X233596142Y-100766857D01*
X233596142Y-100862095D01*
X233548523Y-101004952D01*
X232977095Y-101576380D01*
X233596142Y-101576380D01*
X233929476Y-100576380D02*
X234596142Y-100576380D01*
X234167571Y-101576380D01*
X230929476Y-83875761D02*
X231072333Y-83923380D01*
X231310428Y-83923380D01*
X231405666Y-83875761D01*
X231453285Y-83828142D01*
X231500904Y-83732904D01*
X231500904Y-83637666D01*
X231453285Y-83542428D01*
X231405666Y-83494809D01*
X231310428Y-83447190D01*
X231119952Y-83399571D01*
X231024714Y-83351952D01*
X230977095Y-83304333D01*
X230929476Y-83209095D01*
X230929476Y-83113857D01*
X230977095Y-83018619D01*
X231024714Y-82971000D01*
X231119952Y-82923380D01*
X231358047Y-82923380D01*
X231500904Y-82971000D01*
X231834238Y-82923380D02*
X232072333Y-83923380D01*
X232262809Y-83209095D01*
X232453285Y-83923380D01*
X232691380Y-82923380D01*
X233024714Y-83018619D02*
X233072333Y-82971000D01*
X233167571Y-82923380D01*
X233405666Y-82923380D01*
X233500904Y-82971000D01*
X233548523Y-83018619D01*
X233596142Y-83113857D01*
X233596142Y-83209095D01*
X233548523Y-83351952D01*
X232977095Y-83923380D01*
X233596142Y-83923380D01*
X234453285Y-82923380D02*
X234262809Y-82923380D01*
X234167571Y-82971000D01*
X234119952Y-83018619D01*
X234024714Y-83161476D01*
X233977095Y-83351952D01*
X233977095Y-83732904D01*
X234024714Y-83828142D01*
X234072333Y-83875761D01*
X234167571Y-83923380D01*
X234358047Y-83923380D01*
X234453285Y-83875761D01*
X234500904Y-83828142D01*
X234548523Y-83732904D01*
X234548523Y-83494809D01*
X234500904Y-83399571D01*
X234453285Y-83351952D01*
X234358047Y-83304333D01*
X234167571Y-83304333D01*
X234072333Y-83351952D01*
X234024714Y-83399571D01*
X233977095Y-83494809D01*
X214292476Y-101528761D02*
X214435333Y-101576380D01*
X214673428Y-101576380D01*
X214768666Y-101528761D01*
X214816285Y-101481142D01*
X214863904Y-101385904D01*
X214863904Y-101290666D01*
X214816285Y-101195428D01*
X214768666Y-101147809D01*
X214673428Y-101100190D01*
X214482952Y-101052571D01*
X214387714Y-101004952D01*
X214340095Y-100957333D01*
X214292476Y-100862095D01*
X214292476Y-100766857D01*
X214340095Y-100671619D01*
X214387714Y-100624000D01*
X214482952Y-100576380D01*
X214721047Y-100576380D01*
X214863904Y-100624000D01*
X215197238Y-100576380D02*
X215435333Y-101576380D01*
X215625809Y-100862095D01*
X215816285Y-101576380D01*
X216054380Y-100576380D01*
X216387714Y-100671619D02*
X216435333Y-100624000D01*
X216530571Y-100576380D01*
X216768666Y-100576380D01*
X216863904Y-100624000D01*
X216911523Y-100671619D01*
X216959142Y-100766857D01*
X216959142Y-100862095D01*
X216911523Y-101004952D01*
X216340095Y-101576380D01*
X216959142Y-101576380D01*
X217863904Y-100576380D02*
X217387714Y-100576380D01*
X217340095Y-101052571D01*
X217387714Y-101004952D01*
X217482952Y-100957333D01*
X217721047Y-100957333D01*
X217816285Y-101004952D01*
X217863904Y-101052571D01*
X217911523Y-101147809D01*
X217911523Y-101385904D01*
X217863904Y-101481142D01*
X217816285Y-101528761D01*
X217721047Y-101576380D01*
X217482952Y-101576380D01*
X217387714Y-101528761D01*
X217340095Y-101481142D01*
X214419476Y-83875761D02*
X214562333Y-83923380D01*
X214800428Y-83923380D01*
X214895666Y-83875761D01*
X214943285Y-83828142D01*
X214990904Y-83732904D01*
X214990904Y-83637666D01*
X214943285Y-83542428D01*
X214895666Y-83494809D01*
X214800428Y-83447190D01*
X214609952Y-83399571D01*
X214514714Y-83351952D01*
X214467095Y-83304333D01*
X214419476Y-83209095D01*
X214419476Y-83113857D01*
X214467095Y-83018619D01*
X214514714Y-82971000D01*
X214609952Y-82923380D01*
X214848047Y-82923380D01*
X214990904Y-82971000D01*
X215324238Y-82923380D02*
X215562333Y-83923380D01*
X215752809Y-83209095D01*
X215943285Y-83923380D01*
X216181380Y-82923380D01*
X216514714Y-83018619D02*
X216562333Y-82971000D01*
X216657571Y-82923380D01*
X216895666Y-82923380D01*
X216990904Y-82971000D01*
X217038523Y-83018619D01*
X217086142Y-83113857D01*
X217086142Y-83209095D01*
X217038523Y-83351952D01*
X216467095Y-83923380D01*
X217086142Y-83923380D01*
X217943285Y-83256714D02*
X217943285Y-83923380D01*
X217705190Y-82875761D02*
X217467095Y-83590047D01*
X218086142Y-83590047D01*
X210355476Y-67365761D02*
X210498333Y-67413380D01*
X210736428Y-67413380D01*
X210831666Y-67365761D01*
X210879285Y-67318142D01*
X210926904Y-67222904D01*
X210926904Y-67127666D01*
X210879285Y-67032428D01*
X210831666Y-66984809D01*
X210736428Y-66937190D01*
X210545952Y-66889571D01*
X210450714Y-66841952D01*
X210403095Y-66794333D01*
X210355476Y-66699095D01*
X210355476Y-66603857D01*
X210403095Y-66508619D01*
X210450714Y-66461000D01*
X210545952Y-66413380D01*
X210784047Y-66413380D01*
X210926904Y-66461000D01*
X211260238Y-66413380D02*
X211498333Y-67413380D01*
X211688809Y-66699095D01*
X211879285Y-67413380D01*
X212117380Y-66413380D01*
X212450714Y-66508619D02*
X212498333Y-66461000D01*
X212593571Y-66413380D01*
X212831666Y-66413380D01*
X212926904Y-66461000D01*
X212974523Y-66508619D01*
X213022142Y-66603857D01*
X213022142Y-66699095D01*
X212974523Y-66841952D01*
X212403095Y-67413380D01*
X213022142Y-67413380D01*
X213355476Y-66413380D02*
X213974523Y-66413380D01*
X213641190Y-66794333D01*
X213784047Y-66794333D01*
X213879285Y-66841952D01*
X213926904Y-66889571D01*
X213974523Y-66984809D01*
X213974523Y-67222904D01*
X213926904Y-67318142D01*
X213879285Y-67365761D01*
X213784047Y-67413380D01*
X213498333Y-67413380D01*
X213403095Y-67365761D01*
X213355476Y-67318142D01*
X197782476Y-101528761D02*
X197925333Y-101576380D01*
X198163428Y-101576380D01*
X198258666Y-101528761D01*
X198306285Y-101481142D01*
X198353904Y-101385904D01*
X198353904Y-101290666D01*
X198306285Y-101195428D01*
X198258666Y-101147809D01*
X198163428Y-101100190D01*
X197972952Y-101052571D01*
X197877714Y-101004952D01*
X197830095Y-100957333D01*
X197782476Y-100862095D01*
X197782476Y-100766857D01*
X197830095Y-100671619D01*
X197877714Y-100624000D01*
X197972952Y-100576380D01*
X198211047Y-100576380D01*
X198353904Y-100624000D01*
X198687238Y-100576380D02*
X198925333Y-101576380D01*
X199115809Y-100862095D01*
X199306285Y-101576380D01*
X199544380Y-100576380D01*
X199877714Y-100671619D02*
X199925333Y-100624000D01*
X200020571Y-100576380D01*
X200258666Y-100576380D01*
X200353904Y-100624000D01*
X200401523Y-100671619D01*
X200449142Y-100766857D01*
X200449142Y-100862095D01*
X200401523Y-101004952D01*
X199830095Y-101576380D01*
X200449142Y-101576380D01*
X200830095Y-100671619D02*
X200877714Y-100624000D01*
X200972952Y-100576380D01*
X201211047Y-100576380D01*
X201306285Y-100624000D01*
X201353904Y-100671619D01*
X201401523Y-100766857D01*
X201401523Y-100862095D01*
X201353904Y-101004952D01*
X200782476Y-101576380D01*
X201401523Y-101576380D01*
X197782476Y-83875761D02*
X197925333Y-83923380D01*
X198163428Y-83923380D01*
X198258666Y-83875761D01*
X198306285Y-83828142D01*
X198353904Y-83732904D01*
X198353904Y-83637666D01*
X198306285Y-83542428D01*
X198258666Y-83494809D01*
X198163428Y-83447190D01*
X197972952Y-83399571D01*
X197877714Y-83351952D01*
X197830095Y-83304333D01*
X197782476Y-83209095D01*
X197782476Y-83113857D01*
X197830095Y-83018619D01*
X197877714Y-82971000D01*
X197972952Y-82923380D01*
X198211047Y-82923380D01*
X198353904Y-82971000D01*
X198687238Y-82923380D02*
X198925333Y-83923380D01*
X199115809Y-83209095D01*
X199306285Y-83923380D01*
X199544380Y-82923380D01*
X199877714Y-83018619D02*
X199925333Y-82971000D01*
X200020571Y-82923380D01*
X200258666Y-82923380D01*
X200353904Y-82971000D01*
X200401523Y-83018619D01*
X200449142Y-83113857D01*
X200449142Y-83209095D01*
X200401523Y-83351952D01*
X199830095Y-83923380D01*
X200449142Y-83923380D01*
X201401523Y-83923380D02*
X200830095Y-83923380D01*
X201115809Y-83923380D02*
X201115809Y-82923380D01*
X201020571Y-83066238D01*
X200925333Y-83161476D01*
X200830095Y-83209095D01*
X172382476Y-101782761D02*
X172525333Y-101830380D01*
X172763428Y-101830380D01*
X172858666Y-101782761D01*
X172906285Y-101735142D01*
X172953904Y-101639904D01*
X172953904Y-101544666D01*
X172906285Y-101449428D01*
X172858666Y-101401809D01*
X172763428Y-101354190D01*
X172572952Y-101306571D01*
X172477714Y-101258952D01*
X172430095Y-101211333D01*
X172382476Y-101116095D01*
X172382476Y-101020857D01*
X172430095Y-100925619D01*
X172477714Y-100878000D01*
X172572952Y-100830380D01*
X172811047Y-100830380D01*
X172953904Y-100878000D01*
X173287238Y-100830380D02*
X173525333Y-101830380D01*
X173715809Y-101116095D01*
X173906285Y-101830380D01*
X174144380Y-100830380D01*
X174477714Y-100925619D02*
X174525333Y-100878000D01*
X174620571Y-100830380D01*
X174858666Y-100830380D01*
X174953904Y-100878000D01*
X175001523Y-100925619D01*
X175049142Y-101020857D01*
X175049142Y-101116095D01*
X175001523Y-101258952D01*
X174430095Y-101830380D01*
X175049142Y-101830380D01*
X175668190Y-100830380D02*
X175763428Y-100830380D01*
X175858666Y-100878000D01*
X175906285Y-100925619D01*
X175953904Y-101020857D01*
X176001523Y-101211333D01*
X176001523Y-101449428D01*
X175953904Y-101639904D01*
X175906285Y-101735142D01*
X175858666Y-101782761D01*
X175763428Y-101830380D01*
X175668190Y-101830380D01*
X175572952Y-101782761D01*
X175525333Y-101735142D01*
X175477714Y-101639904D01*
X175430095Y-101449428D01*
X175430095Y-101211333D01*
X175477714Y-101020857D01*
X175525333Y-100925619D01*
X175572952Y-100878000D01*
X175668190Y-100830380D01*
X172509476Y-83875761D02*
X172652333Y-83923380D01*
X172890428Y-83923380D01*
X172985666Y-83875761D01*
X173033285Y-83828142D01*
X173080904Y-83732904D01*
X173080904Y-83637666D01*
X173033285Y-83542428D01*
X172985666Y-83494809D01*
X172890428Y-83447190D01*
X172699952Y-83399571D01*
X172604714Y-83351952D01*
X172557095Y-83304333D01*
X172509476Y-83209095D01*
X172509476Y-83113857D01*
X172557095Y-83018619D01*
X172604714Y-82971000D01*
X172699952Y-82923380D01*
X172938047Y-82923380D01*
X173080904Y-82971000D01*
X173414238Y-82923380D02*
X173652333Y-83923380D01*
X173842809Y-83209095D01*
X174033285Y-83923380D01*
X174271380Y-82923380D01*
X175176142Y-83923380D02*
X174604714Y-83923380D01*
X174890428Y-83923380D02*
X174890428Y-82923380D01*
X174795190Y-83066238D01*
X174699952Y-83161476D01*
X174604714Y-83209095D01*
X175652333Y-83923380D02*
X175842809Y-83923380D01*
X175938047Y-83875761D01*
X175985666Y-83828142D01*
X176080904Y-83685285D01*
X176128523Y-83494809D01*
X176128523Y-83113857D01*
X176080904Y-83018619D01*
X176033285Y-82971000D01*
X175938047Y-82923380D01*
X175747571Y-82923380D01*
X175652333Y-82971000D01*
X175604714Y-83018619D01*
X175557095Y-83113857D01*
X175557095Y-83351952D01*
X175604714Y-83447190D01*
X175652333Y-83494809D01*
X175747571Y-83542428D01*
X175938047Y-83542428D01*
X176033285Y-83494809D01*
X176080904Y-83447190D01*
X176128523Y-83351952D01*
X176192476Y-66730761D02*
X176335333Y-66778380D01*
X176573428Y-66778380D01*
X176668666Y-66730761D01*
X176716285Y-66683142D01*
X176763904Y-66587904D01*
X176763904Y-66492666D01*
X176716285Y-66397428D01*
X176668666Y-66349809D01*
X176573428Y-66302190D01*
X176382952Y-66254571D01*
X176287714Y-66206952D01*
X176240095Y-66159333D01*
X176192476Y-66064095D01*
X176192476Y-65968857D01*
X176240095Y-65873619D01*
X176287714Y-65826000D01*
X176382952Y-65778380D01*
X176621047Y-65778380D01*
X176763904Y-65826000D01*
X177097238Y-65778380D02*
X177335333Y-66778380D01*
X177525809Y-66064095D01*
X177716285Y-66778380D01*
X177954380Y-65778380D01*
X178859142Y-66778380D02*
X178287714Y-66778380D01*
X178573428Y-66778380D02*
X178573428Y-65778380D01*
X178478190Y-65921238D01*
X178382952Y-66016476D01*
X178287714Y-66064095D01*
X179430571Y-66206952D02*
X179335333Y-66159333D01*
X179287714Y-66111714D01*
X179240095Y-66016476D01*
X179240095Y-65968857D01*
X179287714Y-65873619D01*
X179335333Y-65826000D01*
X179430571Y-65778380D01*
X179621047Y-65778380D01*
X179716285Y-65826000D01*
X179763904Y-65873619D01*
X179811523Y-65968857D01*
X179811523Y-66016476D01*
X179763904Y-66111714D01*
X179716285Y-66159333D01*
X179621047Y-66206952D01*
X179430571Y-66206952D01*
X179335333Y-66254571D01*
X179287714Y-66302190D01*
X179240095Y-66397428D01*
X179240095Y-66587904D01*
X179287714Y-66683142D01*
X179335333Y-66730761D01*
X179430571Y-66778380D01*
X179621047Y-66778380D01*
X179716285Y-66730761D01*
X179763904Y-66683142D01*
X179811523Y-66587904D01*
X179811523Y-66397428D01*
X179763904Y-66302190D01*
X179716285Y-66254571D01*
X179621047Y-66206952D01*
X156126476Y-101782761D02*
X156269333Y-101830380D01*
X156507428Y-101830380D01*
X156602666Y-101782761D01*
X156650285Y-101735142D01*
X156697904Y-101639904D01*
X156697904Y-101544666D01*
X156650285Y-101449428D01*
X156602666Y-101401809D01*
X156507428Y-101354190D01*
X156316952Y-101306571D01*
X156221714Y-101258952D01*
X156174095Y-101211333D01*
X156126476Y-101116095D01*
X156126476Y-101020857D01*
X156174095Y-100925619D01*
X156221714Y-100878000D01*
X156316952Y-100830380D01*
X156555047Y-100830380D01*
X156697904Y-100878000D01*
X157031238Y-100830380D02*
X157269333Y-101830380D01*
X157459809Y-101116095D01*
X157650285Y-101830380D01*
X157888380Y-100830380D01*
X158793142Y-101830380D02*
X158221714Y-101830380D01*
X158507428Y-101830380D02*
X158507428Y-100830380D01*
X158412190Y-100973238D01*
X158316952Y-101068476D01*
X158221714Y-101116095D01*
X159126476Y-100830380D02*
X159793142Y-100830380D01*
X159364571Y-101830380D01*
X155618476Y-84129761D02*
X155761333Y-84177380D01*
X155999428Y-84177380D01*
X156094666Y-84129761D01*
X156142285Y-84082142D01*
X156189904Y-83986904D01*
X156189904Y-83891666D01*
X156142285Y-83796428D01*
X156094666Y-83748809D01*
X155999428Y-83701190D01*
X155808952Y-83653571D01*
X155713714Y-83605952D01*
X155666095Y-83558333D01*
X155618476Y-83463095D01*
X155618476Y-83367857D01*
X155666095Y-83272619D01*
X155713714Y-83225000D01*
X155808952Y-83177380D01*
X156047047Y-83177380D01*
X156189904Y-83225000D01*
X156523238Y-83177380D02*
X156761333Y-84177380D01*
X156951809Y-83463095D01*
X157142285Y-84177380D01*
X157380380Y-83177380D01*
X158285142Y-84177380D02*
X157713714Y-84177380D01*
X157999428Y-84177380D02*
X157999428Y-83177380D01*
X157904190Y-83320238D01*
X157808952Y-83415476D01*
X157713714Y-83463095D01*
X159142285Y-83177380D02*
X158951809Y-83177380D01*
X158856571Y-83225000D01*
X158808952Y-83272619D01*
X158713714Y-83415476D01*
X158666095Y-83605952D01*
X158666095Y-83986904D01*
X158713714Y-84082142D01*
X158761333Y-84129761D01*
X158856571Y-84177380D01*
X159047047Y-84177380D01*
X159142285Y-84129761D01*
X159189904Y-84082142D01*
X159237523Y-83986904D01*
X159237523Y-83748809D01*
X159189904Y-83653571D01*
X159142285Y-83605952D01*
X159047047Y-83558333D01*
X158856571Y-83558333D01*
X158761333Y-83605952D01*
X158713714Y-83653571D01*
X158666095Y-83748809D01*
X155491476Y-66857761D02*
X155634333Y-66905380D01*
X155872428Y-66905380D01*
X155967666Y-66857761D01*
X156015285Y-66810142D01*
X156062904Y-66714904D01*
X156062904Y-66619666D01*
X156015285Y-66524428D01*
X155967666Y-66476809D01*
X155872428Y-66429190D01*
X155681952Y-66381571D01*
X155586714Y-66333952D01*
X155539095Y-66286333D01*
X155491476Y-66191095D01*
X155491476Y-66095857D01*
X155539095Y-66000619D01*
X155586714Y-65953000D01*
X155681952Y-65905380D01*
X155920047Y-65905380D01*
X156062904Y-65953000D01*
X156396238Y-65905380D02*
X156634333Y-66905380D01*
X156824809Y-66191095D01*
X157015285Y-66905380D01*
X157253380Y-65905380D01*
X158158142Y-66905380D02*
X157586714Y-66905380D01*
X157872428Y-66905380D02*
X157872428Y-65905380D01*
X157777190Y-66048238D01*
X157681952Y-66143476D01*
X157586714Y-66191095D01*
X159062904Y-65905380D02*
X158586714Y-65905380D01*
X158539095Y-66381571D01*
X158586714Y-66333952D01*
X158681952Y-66286333D01*
X158920047Y-66286333D01*
X159015285Y-66333952D01*
X159062904Y-66381571D01*
X159110523Y-66476809D01*
X159110523Y-66714904D01*
X159062904Y-66810142D01*
X159015285Y-66857761D01*
X158920047Y-66905380D01*
X158681952Y-66905380D01*
X158586714Y-66857761D01*
X158539095Y-66810142D01*
X139235476Y-101782761D02*
X139378333Y-101830380D01*
X139616428Y-101830380D01*
X139711666Y-101782761D01*
X139759285Y-101735142D01*
X139806904Y-101639904D01*
X139806904Y-101544666D01*
X139759285Y-101449428D01*
X139711666Y-101401809D01*
X139616428Y-101354190D01*
X139425952Y-101306571D01*
X139330714Y-101258952D01*
X139283095Y-101211333D01*
X139235476Y-101116095D01*
X139235476Y-101020857D01*
X139283095Y-100925619D01*
X139330714Y-100878000D01*
X139425952Y-100830380D01*
X139664047Y-100830380D01*
X139806904Y-100878000D01*
X140140238Y-100830380D02*
X140378333Y-101830380D01*
X140568809Y-101116095D01*
X140759285Y-101830380D01*
X140997380Y-100830380D01*
X141902142Y-101830380D02*
X141330714Y-101830380D01*
X141616428Y-101830380D02*
X141616428Y-100830380D01*
X141521190Y-100973238D01*
X141425952Y-101068476D01*
X141330714Y-101116095D01*
X142759285Y-101163714D02*
X142759285Y-101830380D01*
X142521190Y-100782761D02*
X142283095Y-101497047D01*
X142902142Y-101497047D01*
X139489476Y-84129761D02*
X139632333Y-84177380D01*
X139870428Y-84177380D01*
X139965666Y-84129761D01*
X140013285Y-84082142D01*
X140060904Y-83986904D01*
X140060904Y-83891666D01*
X140013285Y-83796428D01*
X139965666Y-83748809D01*
X139870428Y-83701190D01*
X139679952Y-83653571D01*
X139584714Y-83605952D01*
X139537095Y-83558333D01*
X139489476Y-83463095D01*
X139489476Y-83367857D01*
X139537095Y-83272619D01*
X139584714Y-83225000D01*
X139679952Y-83177380D01*
X139918047Y-83177380D01*
X140060904Y-83225000D01*
X140394238Y-83177380D02*
X140632333Y-84177380D01*
X140822809Y-83463095D01*
X141013285Y-84177380D01*
X141251380Y-83177380D01*
X142156142Y-84177380D02*
X141584714Y-84177380D01*
X141870428Y-84177380D02*
X141870428Y-83177380D01*
X141775190Y-83320238D01*
X141679952Y-83415476D01*
X141584714Y-83463095D01*
X142489476Y-83177380D02*
X143108523Y-83177380D01*
X142775190Y-83558333D01*
X142918047Y-83558333D01*
X143013285Y-83605952D01*
X143060904Y-83653571D01*
X143108523Y-83748809D01*
X143108523Y-83986904D01*
X143060904Y-84082142D01*
X143013285Y-84129761D01*
X142918047Y-84177380D01*
X142632333Y-84177380D01*
X142537095Y-84129761D01*
X142489476Y-84082142D01*
X139489476Y-66857761D02*
X139632333Y-66905380D01*
X139870428Y-66905380D01*
X139965666Y-66857761D01*
X140013285Y-66810142D01*
X140060904Y-66714904D01*
X140060904Y-66619666D01*
X140013285Y-66524428D01*
X139965666Y-66476809D01*
X139870428Y-66429190D01*
X139679952Y-66381571D01*
X139584714Y-66333952D01*
X139537095Y-66286333D01*
X139489476Y-66191095D01*
X139489476Y-66095857D01*
X139537095Y-66000619D01*
X139584714Y-65953000D01*
X139679952Y-65905380D01*
X139918047Y-65905380D01*
X140060904Y-65953000D01*
X140394238Y-65905380D02*
X140632333Y-66905380D01*
X140822809Y-66191095D01*
X141013285Y-66905380D01*
X141251380Y-65905380D01*
X142156142Y-66905380D02*
X141584714Y-66905380D01*
X141870428Y-66905380D02*
X141870428Y-65905380D01*
X141775190Y-66048238D01*
X141679952Y-66143476D01*
X141584714Y-66191095D01*
X142537095Y-66000619D02*
X142584714Y-65953000D01*
X142679952Y-65905380D01*
X142918047Y-65905380D01*
X143013285Y-65953000D01*
X143060904Y-66000619D01*
X143108523Y-66095857D01*
X143108523Y-66191095D01*
X143060904Y-66333952D01*
X142489476Y-66905380D01*
X143108523Y-66905380D01*
X122852476Y-101782761D02*
X122995333Y-101830380D01*
X123233428Y-101830380D01*
X123328666Y-101782761D01*
X123376285Y-101735142D01*
X123423904Y-101639904D01*
X123423904Y-101544666D01*
X123376285Y-101449428D01*
X123328666Y-101401809D01*
X123233428Y-101354190D01*
X123042952Y-101306571D01*
X122947714Y-101258952D01*
X122900095Y-101211333D01*
X122852476Y-101116095D01*
X122852476Y-101020857D01*
X122900095Y-100925619D01*
X122947714Y-100878000D01*
X123042952Y-100830380D01*
X123281047Y-100830380D01*
X123423904Y-100878000D01*
X123757238Y-100830380D02*
X123995333Y-101830380D01*
X124185809Y-101116095D01*
X124376285Y-101830380D01*
X124614380Y-100830380D01*
X125519142Y-101830380D02*
X124947714Y-101830380D01*
X125233428Y-101830380D02*
X125233428Y-100830380D01*
X125138190Y-100973238D01*
X125042952Y-101068476D01*
X124947714Y-101116095D01*
X126471523Y-101830380D02*
X125900095Y-101830380D01*
X126185809Y-101830380D02*
X126185809Y-100830380D01*
X126090571Y-100973238D01*
X125995333Y-101068476D01*
X125900095Y-101116095D01*
X123106476Y-84129761D02*
X123249333Y-84177380D01*
X123487428Y-84177380D01*
X123582666Y-84129761D01*
X123630285Y-84082142D01*
X123677904Y-83986904D01*
X123677904Y-83891666D01*
X123630285Y-83796428D01*
X123582666Y-83748809D01*
X123487428Y-83701190D01*
X123296952Y-83653571D01*
X123201714Y-83605952D01*
X123154095Y-83558333D01*
X123106476Y-83463095D01*
X123106476Y-83367857D01*
X123154095Y-83272619D01*
X123201714Y-83225000D01*
X123296952Y-83177380D01*
X123535047Y-83177380D01*
X123677904Y-83225000D01*
X124011238Y-83177380D02*
X124249333Y-84177380D01*
X124439809Y-83463095D01*
X124630285Y-84177380D01*
X124868380Y-83177380D01*
X125773142Y-84177380D02*
X125201714Y-84177380D01*
X125487428Y-84177380D02*
X125487428Y-83177380D01*
X125392190Y-83320238D01*
X125296952Y-83415476D01*
X125201714Y-83463095D01*
X126392190Y-83177380D02*
X126487428Y-83177380D01*
X126582666Y-83225000D01*
X126630285Y-83272619D01*
X126677904Y-83367857D01*
X126725523Y-83558333D01*
X126725523Y-83796428D01*
X126677904Y-83986904D01*
X126630285Y-84082142D01*
X126582666Y-84129761D01*
X126487428Y-84177380D01*
X126392190Y-84177380D01*
X126296952Y-84129761D01*
X126249333Y-84082142D01*
X126201714Y-83986904D01*
X126154095Y-83796428D01*
X126154095Y-83558333D01*
X126201714Y-83367857D01*
X126249333Y-83272619D01*
X126296952Y-83225000D01*
X126392190Y-83177380D01*
X123455666Y-66857761D02*
X123598523Y-66905380D01*
X123836619Y-66905380D01*
X123931857Y-66857761D01*
X123979476Y-66810142D01*
X124027095Y-66714904D01*
X124027095Y-66619666D01*
X123979476Y-66524428D01*
X123931857Y-66476809D01*
X123836619Y-66429190D01*
X123646142Y-66381571D01*
X123550904Y-66333952D01*
X123503285Y-66286333D01*
X123455666Y-66191095D01*
X123455666Y-66095857D01*
X123503285Y-66000619D01*
X123550904Y-65953000D01*
X123646142Y-65905380D01*
X123884238Y-65905380D01*
X124027095Y-65953000D01*
X124360428Y-65905380D02*
X124598523Y-66905380D01*
X124789000Y-66191095D01*
X124979476Y-66905380D01*
X125217571Y-65905380D01*
X125646142Y-66905380D02*
X125836619Y-66905380D01*
X125931857Y-66857761D01*
X125979476Y-66810142D01*
X126074714Y-66667285D01*
X126122333Y-66476809D01*
X126122333Y-66095857D01*
X126074714Y-66000619D01*
X126027095Y-65953000D01*
X125931857Y-65905380D01*
X125741380Y-65905380D01*
X125646142Y-65953000D01*
X125598523Y-66000619D01*
X125550904Y-66095857D01*
X125550904Y-66333952D01*
X125598523Y-66429190D01*
X125646142Y-66476809D01*
X125741380Y-66524428D01*
X125931857Y-66524428D01*
X126027095Y-66476809D01*
X126074714Y-66429190D01*
X126122333Y-66333952D01*
X106818666Y-101782761D02*
X106961523Y-101830380D01*
X107199619Y-101830380D01*
X107294857Y-101782761D01*
X107342476Y-101735142D01*
X107390095Y-101639904D01*
X107390095Y-101544666D01*
X107342476Y-101449428D01*
X107294857Y-101401809D01*
X107199619Y-101354190D01*
X107009142Y-101306571D01*
X106913904Y-101258952D01*
X106866285Y-101211333D01*
X106818666Y-101116095D01*
X106818666Y-101020857D01*
X106866285Y-100925619D01*
X106913904Y-100878000D01*
X107009142Y-100830380D01*
X107247238Y-100830380D01*
X107390095Y-100878000D01*
X107723428Y-100830380D02*
X107961523Y-101830380D01*
X108152000Y-101116095D01*
X108342476Y-101830380D01*
X108580571Y-100830380D01*
X109104380Y-101258952D02*
X109009142Y-101211333D01*
X108961523Y-101163714D01*
X108913904Y-101068476D01*
X108913904Y-101020857D01*
X108961523Y-100925619D01*
X109009142Y-100878000D01*
X109104380Y-100830380D01*
X109294857Y-100830380D01*
X109390095Y-100878000D01*
X109437714Y-100925619D01*
X109485333Y-101020857D01*
X109485333Y-101068476D01*
X109437714Y-101163714D01*
X109390095Y-101211333D01*
X109294857Y-101258952D01*
X109104380Y-101258952D01*
X109009142Y-101306571D01*
X108961523Y-101354190D01*
X108913904Y-101449428D01*
X108913904Y-101639904D01*
X108961523Y-101735142D01*
X109009142Y-101782761D01*
X109104380Y-101830380D01*
X109294857Y-101830380D01*
X109390095Y-101782761D01*
X109437714Y-101735142D01*
X109485333Y-101639904D01*
X109485333Y-101449428D01*
X109437714Y-101354190D01*
X109390095Y-101306571D01*
X109294857Y-101258952D01*
X106945666Y-84129761D02*
X107088523Y-84177380D01*
X107326619Y-84177380D01*
X107421857Y-84129761D01*
X107469476Y-84082142D01*
X107517095Y-83986904D01*
X107517095Y-83891666D01*
X107469476Y-83796428D01*
X107421857Y-83748809D01*
X107326619Y-83701190D01*
X107136142Y-83653571D01*
X107040904Y-83605952D01*
X106993285Y-83558333D01*
X106945666Y-83463095D01*
X106945666Y-83367857D01*
X106993285Y-83272619D01*
X107040904Y-83225000D01*
X107136142Y-83177380D01*
X107374238Y-83177380D01*
X107517095Y-83225000D01*
X107850428Y-83177380D02*
X108088523Y-84177380D01*
X108279000Y-83463095D01*
X108469476Y-84177380D01*
X108707571Y-83177380D01*
X108993285Y-83177380D02*
X109659952Y-83177380D01*
X109231380Y-84177380D01*
X106818666Y-66857761D02*
X106961523Y-66905380D01*
X107199619Y-66905380D01*
X107294857Y-66857761D01*
X107342476Y-66810142D01*
X107390095Y-66714904D01*
X107390095Y-66619666D01*
X107342476Y-66524428D01*
X107294857Y-66476809D01*
X107199619Y-66429190D01*
X107009142Y-66381571D01*
X106913904Y-66333952D01*
X106866285Y-66286333D01*
X106818666Y-66191095D01*
X106818666Y-66095857D01*
X106866285Y-66000619D01*
X106913904Y-65953000D01*
X107009142Y-65905380D01*
X107247238Y-65905380D01*
X107390095Y-65953000D01*
X107723428Y-65905380D02*
X107961523Y-66905380D01*
X108152000Y-66191095D01*
X108342476Y-66905380D01*
X108580571Y-65905380D01*
X109390095Y-65905380D02*
X109199619Y-65905380D01*
X109104380Y-65953000D01*
X109056761Y-66000619D01*
X108961523Y-66143476D01*
X108913904Y-66333952D01*
X108913904Y-66714904D01*
X108961523Y-66810142D01*
X109009142Y-66857761D01*
X109104380Y-66905380D01*
X109294857Y-66905380D01*
X109390095Y-66857761D01*
X109437714Y-66810142D01*
X109485333Y-66714904D01*
X109485333Y-66476809D01*
X109437714Y-66381571D01*
X109390095Y-66333952D01*
X109294857Y-66286333D01*
X109104380Y-66286333D01*
X109009142Y-66333952D01*
X108961523Y-66381571D01*
X108913904Y-66476809D01*
X90562666Y-101782761D02*
X90705523Y-101830380D01*
X90943619Y-101830380D01*
X91038857Y-101782761D01*
X91086476Y-101735142D01*
X91134095Y-101639904D01*
X91134095Y-101544666D01*
X91086476Y-101449428D01*
X91038857Y-101401809D01*
X90943619Y-101354190D01*
X90753142Y-101306571D01*
X90657904Y-101258952D01*
X90610285Y-101211333D01*
X90562666Y-101116095D01*
X90562666Y-101020857D01*
X90610285Y-100925619D01*
X90657904Y-100878000D01*
X90753142Y-100830380D01*
X90991238Y-100830380D01*
X91134095Y-100878000D01*
X91467428Y-100830380D02*
X91705523Y-101830380D01*
X91896000Y-101116095D01*
X92086476Y-101830380D01*
X92324571Y-100830380D01*
X93181714Y-100830380D02*
X92705523Y-100830380D01*
X92657904Y-101306571D01*
X92705523Y-101258952D01*
X92800761Y-101211333D01*
X93038857Y-101211333D01*
X93134095Y-101258952D01*
X93181714Y-101306571D01*
X93229333Y-101401809D01*
X93229333Y-101639904D01*
X93181714Y-101735142D01*
X93134095Y-101782761D01*
X93038857Y-101830380D01*
X92800761Y-101830380D01*
X92705523Y-101782761D01*
X92657904Y-101735142D01*
X90562666Y-84129761D02*
X90705523Y-84177380D01*
X90943619Y-84177380D01*
X91038857Y-84129761D01*
X91086476Y-84082142D01*
X91134095Y-83986904D01*
X91134095Y-83891666D01*
X91086476Y-83796428D01*
X91038857Y-83748809D01*
X90943619Y-83701190D01*
X90753142Y-83653571D01*
X90657904Y-83605952D01*
X90610285Y-83558333D01*
X90562666Y-83463095D01*
X90562666Y-83367857D01*
X90610285Y-83272619D01*
X90657904Y-83225000D01*
X90753142Y-83177380D01*
X90991238Y-83177380D01*
X91134095Y-83225000D01*
X91467428Y-83177380D02*
X91705523Y-84177380D01*
X91896000Y-83463095D01*
X92086476Y-84177380D01*
X92324571Y-83177380D01*
X93134095Y-83510714D02*
X93134095Y-84177380D01*
X92896000Y-83129761D02*
X92657904Y-83844047D01*
X93276952Y-83844047D01*
X90435666Y-66857761D02*
X90578523Y-66905380D01*
X90816619Y-66905380D01*
X90911857Y-66857761D01*
X90959476Y-66810142D01*
X91007095Y-66714904D01*
X91007095Y-66619666D01*
X90959476Y-66524428D01*
X90911857Y-66476809D01*
X90816619Y-66429190D01*
X90626142Y-66381571D01*
X90530904Y-66333952D01*
X90483285Y-66286333D01*
X90435666Y-66191095D01*
X90435666Y-66095857D01*
X90483285Y-66000619D01*
X90530904Y-65953000D01*
X90626142Y-65905380D01*
X90864238Y-65905380D01*
X91007095Y-65953000D01*
X91340428Y-65905380D02*
X91578523Y-66905380D01*
X91769000Y-66191095D01*
X91959476Y-66905380D01*
X92197571Y-65905380D01*
X92483285Y-65905380D02*
X93102333Y-65905380D01*
X92769000Y-66286333D01*
X92911857Y-66286333D01*
X93007095Y-66333952D01*
X93054714Y-66381571D01*
X93102333Y-66476809D01*
X93102333Y-66714904D01*
X93054714Y-66810142D01*
X93007095Y-66857761D01*
X92911857Y-66905380D01*
X92626142Y-66905380D01*
X92530904Y-66857761D01*
X92483285Y-66810142D01*
X72655666Y-93527761D02*
X72798523Y-93575380D01*
X73036619Y-93575380D01*
X73131857Y-93527761D01*
X73179476Y-93480142D01*
X73227095Y-93384904D01*
X73227095Y-93289666D01*
X73179476Y-93194428D01*
X73131857Y-93146809D01*
X73036619Y-93099190D01*
X72846142Y-93051571D01*
X72750904Y-93003952D01*
X72703285Y-92956333D01*
X72655666Y-92861095D01*
X72655666Y-92765857D01*
X72703285Y-92670619D01*
X72750904Y-92623000D01*
X72846142Y-92575380D01*
X73084238Y-92575380D01*
X73227095Y-92623000D01*
X73560428Y-92575380D02*
X73798523Y-93575380D01*
X73989000Y-92861095D01*
X74179476Y-93575380D01*
X74417571Y-92575380D01*
X74750904Y-92670619D02*
X74798523Y-92623000D01*
X74893761Y-92575380D01*
X75131857Y-92575380D01*
X75227095Y-92623000D01*
X75274714Y-92670619D01*
X75322333Y-92765857D01*
X75322333Y-92861095D01*
X75274714Y-93003952D01*
X74703285Y-93575380D01*
X75322333Y-93575380D01*
X72655666Y-79684761D02*
X72798523Y-79732380D01*
X73036619Y-79732380D01*
X73131857Y-79684761D01*
X73179476Y-79637142D01*
X73227095Y-79541904D01*
X73227095Y-79446666D01*
X73179476Y-79351428D01*
X73131857Y-79303809D01*
X73036619Y-79256190D01*
X72846142Y-79208571D01*
X72750904Y-79160952D01*
X72703285Y-79113333D01*
X72655666Y-79018095D01*
X72655666Y-78922857D01*
X72703285Y-78827619D01*
X72750904Y-78780000D01*
X72846142Y-78732380D01*
X73084238Y-78732380D01*
X73227095Y-78780000D01*
X73560428Y-78732380D02*
X73798523Y-79732380D01*
X73989000Y-79018095D01*
X74179476Y-79732380D01*
X74417571Y-78732380D01*
X75322333Y-79732380D02*
X74750904Y-79732380D01*
X75036619Y-79732380D02*
X75036619Y-78732380D01*
X74941380Y-78875238D01*
X74846142Y-78970476D01*
X74750904Y-79018095D01*
X225662380Y-71858095D02*
X224662380Y-71858095D01*
X224662380Y-71620000D01*
X224710000Y-71477142D01*
X224805238Y-71381904D01*
X224900476Y-71334285D01*
X225090952Y-71286666D01*
X225233809Y-71286666D01*
X225424285Y-71334285D01*
X225519523Y-71381904D01*
X225614761Y-71477142D01*
X225662380Y-71620000D01*
X225662380Y-71858095D01*
X225662380Y-70334285D02*
X225662380Y-70905714D01*
X225662380Y-70620000D02*
X224662380Y-70620000D01*
X224805238Y-70715238D01*
X224900476Y-70810476D01*
X224948095Y-70905714D01*
M02*
