G04 #@! TF.GenerationSoftware,KiCad,Pcbnew,(5.1.4)-1*
G04 #@! TF.CreationDate,2019-08-18T12:41:48-04:00*
G04 #@! TF.ProjectId,A-10C-UFC,412d3130-432d-4554-9643-2e6b69636164,1.2*
G04 #@! TF.SameCoordinates,Original*
G04 #@! TF.FileFunction,Other,User*
%FSLAX46Y46*%
G04 Gerber Fmt 4.6, Leading zero omitted, Abs format (unit mm)*
G04 Created by KiCad (PCBNEW (5.1.4)-1) date 2019-08-18 12:41:48*
%MOMM*%
%LPD*%
G04 APERTURE LIST*
%ADD10C,0.050000*%
G04 APERTURE END LIST*
D10*
X274247000Y-113262000D02*
X300697000Y-113262000D01*
X300697000Y-113262000D02*
X300697000Y-116862000D01*
X300697000Y-116862000D02*
X274247000Y-116862000D01*
X274247000Y-116862000D02*
X274247000Y-113262000D01*
X252403000Y-65306800D02*
X268703000Y-65306800D01*
X268703000Y-65306800D02*
X268703000Y-68906800D01*
X268703000Y-68906800D02*
X252403000Y-68906800D01*
X252403000Y-68906800D02*
X252403000Y-65306800D01*
X228116000Y-66641000D02*
X231116000Y-66641000D01*
X231116000Y-66641000D02*
X231116000Y-76361000D01*
X231116000Y-76361000D02*
X228116000Y-76361000D01*
X228116000Y-76361000D02*
X228116000Y-66641000D01*
X252403000Y-113262000D02*
X273753000Y-113262000D01*
X273753000Y-113262000D02*
X273753000Y-116862000D01*
X273753000Y-116862000D02*
X252403000Y-116862000D01*
X252403000Y-116862000D02*
X252403000Y-113262000D01*
X245783000Y-78591000D02*
X206683000Y-78591000D01*
X245783000Y-82141000D02*
X245783000Y-78591000D01*
X206683000Y-82141000D02*
X245783000Y-82141000D01*
X206683000Y-78591000D02*
X206683000Y-82141000D01*
X206683000Y-93831000D02*
X206683000Y-97381000D01*
X206683000Y-97381000D02*
X245783000Y-97381000D01*
X245783000Y-97381000D02*
X245783000Y-93831000D01*
X245783000Y-93831000D02*
X206683000Y-93831000D01*
X270183000Y-65306800D02*
X291533000Y-65306800D01*
X291533000Y-65306800D02*
X291533000Y-68906800D01*
X291533000Y-68906800D02*
X270183000Y-68906800D01*
X270183000Y-68906800D02*
X270183000Y-65306800D01*
X240636000Y-69906000D02*
X240636000Y-63156000D01*
X240636000Y-63156000D02*
X249036000Y-63156000D01*
X249036000Y-63156000D02*
X249036000Y-69906000D01*
X249036000Y-69906000D02*
X240636000Y-69906000D01*
X240146000Y-69906000D02*
X231746000Y-69906000D01*
X240146000Y-63156000D02*
X240146000Y-69906000D01*
X231746000Y-63156000D02*
X240146000Y-63156000D01*
X231746000Y-69906000D02*
X231746000Y-63156000D01*
M02*
