G04 #@! TF.GenerationSoftware,KiCad,Pcbnew,(5.0.2)-1*
G04 #@! TF.CreationDate,2019-08-02T19:21:12-04:00*
G04 #@! TF.ProjectId,A-10C-UFC,412d3130-432d-4554-9643-2e6b69636164,1.2*
G04 #@! TF.SameCoordinates,Original*
G04 #@! TF.FileFunction,Copper,L1,Top*
G04 #@! TF.FilePolarity,Positive*
%FSLAX46Y46*%
G04 Gerber Fmt 4.6, Leading zero omitted, Abs format (unit mm)*
G04 Created by KiCad (PCBNEW (5.0.2)-1) date 8/2/2019 7:21:12 PM*
%MOMM*%
%LPD*%
G01*
G04 APERTURE LIST*
G04 #@! TA.AperFunction,ComponentPad*
%ADD10C,2.000000*%
G04 #@! TD*
G04 #@! TA.AperFunction,ComponentPad*
%ADD11R,1.800000X1.800000*%
G04 #@! TD*
G04 #@! TA.AperFunction,ComponentPad*
%ADD12C,1.800000*%
G04 #@! TD*
G04 #@! TA.AperFunction,ComponentPad*
%ADD13R,1.700000X1.700000*%
G04 #@! TD*
G04 #@! TA.AperFunction,ComponentPad*
%ADD14O,1.700000X1.700000*%
G04 #@! TD*
G04 #@! TA.AperFunction,ComponentPad*
%ADD15C,1.600000*%
G04 #@! TD*
G04 #@! TA.AperFunction,ComponentPad*
%ADD16O,1.600000X1.600000*%
G04 #@! TD*
G04 #@! TA.AperFunction,Conductor*
%ADD17C,0.300000*%
G04 #@! TD*
G04 APERTURE END LIST*
D10*
G04 #@! TO.P,SW24,1*
G04 #@! TO.N,/Row6*
X219479000Y-85471000D03*
G04 #@! TO.P,SW24,2*
G04 #@! TO.N,/Col4*
X219479000Y-89971000D03*
G04 #@! TO.P,SW24,1*
G04 #@! TO.N,/Row6*
X212979000Y-85471000D03*
G04 #@! TO.P,SW24,2*
G04 #@! TO.N,/Col4*
X212979000Y-89971000D03*
G04 #@! TD*
G04 #@! TO.P,SW22,2*
G04 #@! TO.N,/Col4*
X196342000Y-107624000D03*
G04 #@! TO.P,SW22,1*
G04 #@! TO.N,/Row4*
X196342000Y-103124000D03*
G04 #@! TO.P,SW22,2*
G04 #@! TO.N,/Col4*
X202842000Y-107624000D03*
G04 #@! TO.P,SW22,1*
G04 #@! TO.N,/Row4*
X202842000Y-103124000D03*
G04 #@! TD*
G04 #@! TO.P,SW12,1*
G04 #@! TO.N,/Row6*
X144549000Y-68453000D03*
G04 #@! TO.P,SW12,2*
G04 #@! TO.N,/Col2*
X144549000Y-72953000D03*
G04 #@! TO.P,SW12,1*
G04 #@! TO.N,/Row6*
X138049000Y-68453000D03*
G04 #@! TO.P,SW12,2*
G04 #@! TO.N,/Col2*
X138049000Y-72953000D03*
G04 #@! TD*
G04 #@! TO.P,SW25,1*
G04 #@! TO.N,/Row1*
X219352000Y-103124000D03*
G04 #@! TO.P,SW25,2*
G04 #@! TO.N,/Col5*
X219352000Y-107624000D03*
G04 #@! TO.P,SW25,1*
G04 #@! TO.N,/Row1*
X212852000Y-103124000D03*
G04 #@! TO.P,SW25,2*
G04 #@! TO.N,/Col5*
X212852000Y-107624000D03*
G04 #@! TD*
G04 #@! TO.P,SW31,2*
G04 #@! TO.N,/Col6*
X275336000Y-108259000D03*
G04 #@! TO.P,SW31,1*
G04 #@! TO.N,/Row1*
X275336000Y-103759000D03*
G04 #@! TO.P,SW31,2*
G04 #@! TO.N,/Col6*
X281836000Y-108259000D03*
G04 #@! TO.P,SW31,1*
G04 #@! TO.N,/Row1*
X281836000Y-103759000D03*
G04 #@! TD*
G04 #@! TO.P,SW23,1*
G04 #@! TO.N,/Row5*
X215415000Y-68961000D03*
G04 #@! TO.P,SW23,2*
G04 #@! TO.N,/Col4*
X215415000Y-73461000D03*
G04 #@! TO.P,SW23,1*
G04 #@! TO.N,/Row5*
X208915000Y-68961000D03*
G04 #@! TO.P,SW23,2*
G04 #@! TO.N,/Col4*
X208915000Y-73461000D03*
G04 #@! TD*
G04 #@! TO.P,SW32,2*
G04 #@! TO.N,/Col6*
X281686000Y-76382000D03*
G04 #@! TO.P,SW32,1*
G04 #@! TO.N,/Row2*
X281686000Y-71882000D03*
G04 #@! TO.P,SW32,2*
G04 #@! TO.N,/Col6*
X288186000Y-76382000D03*
G04 #@! TO.P,SW32,1*
G04 #@! TO.N,/Row2*
X288186000Y-71882000D03*
G04 #@! TD*
G04 #@! TO.P,SW14,1*
G04 #@! TO.N,/Row2*
X144295000Y-103378000D03*
G04 #@! TO.P,SW14,2*
G04 #@! TO.N,/Col3*
X144295000Y-107878000D03*
G04 #@! TO.P,SW14,1*
G04 #@! TO.N,/Row2*
X137795000Y-103378000D03*
G04 #@! TO.P,SW14,2*
G04 #@! TO.N,/Col3*
X137795000Y-107878000D03*
G04 #@! TD*
G04 #@! TO.P,SW16,1*
G04 #@! TO.N,/Row4*
X160678000Y-85725000D03*
G04 #@! TO.P,SW16,2*
G04 #@! TO.N,/Col3*
X160678000Y-90225000D03*
G04 #@! TO.P,SW16,1*
G04 #@! TO.N,/Row4*
X154178000Y-85725000D03*
G04 #@! TO.P,SW16,2*
G04 #@! TO.N,/Col3*
X154178000Y-90225000D03*
G04 #@! TD*
G04 #@! TO.P,SW2,1*
G04 #@! TO.N,/Row2*
X77239000Y-95123000D03*
G04 #@! TO.P,SW2,2*
G04 #@! TO.N,/Col1*
X77239000Y-99623000D03*
G04 #@! TO.P,SW2,1*
G04 #@! TO.N,/Row2*
X70739000Y-95123000D03*
G04 #@! TO.P,SW2,2*
G04 #@! TO.N,/Col1*
X70739000Y-99623000D03*
G04 #@! TD*
G04 #@! TO.P,SW35,1*
G04 #@! TO.N,/Row5*
X307998000Y-95123000D03*
G04 #@! TO.P,SW35,2*
G04 #@! TO.N,/Col6*
X307998000Y-99623000D03*
G04 #@! TO.P,SW35,1*
G04 #@! TO.N,/Row5*
X301498000Y-95123000D03*
G04 #@! TO.P,SW35,2*
G04 #@! TO.N,/Col6*
X301498000Y-99623000D03*
G04 #@! TD*
G04 #@! TO.P,SW17,2*
G04 #@! TO.N,/Col3*
X154686000Y-107878000D03*
G04 #@! TO.P,SW17,1*
G04 #@! TO.N,/Row5*
X154686000Y-103378000D03*
G04 #@! TO.P,SW17,2*
G04 #@! TO.N,/Col3*
X161186000Y-107878000D03*
G04 #@! TO.P,SW17,1*
G04 #@! TO.N,/Row5*
X161186000Y-103378000D03*
G04 #@! TD*
G04 #@! TO.P,SW15,1*
G04 #@! TO.N,/Row3*
X160551000Y-68453000D03*
G04 #@! TO.P,SW15,2*
G04 #@! TO.N,/Col3*
X160551000Y-72953000D03*
G04 #@! TO.P,SW15,1*
G04 #@! TO.N,/Row3*
X154051000Y-68453000D03*
G04 #@! TO.P,SW15,2*
G04 #@! TO.N,/Col3*
X154051000Y-72953000D03*
G04 #@! TD*
G04 #@! TO.P,SW8,2*
G04 #@! TO.N,/Col2*
X104902000Y-107878000D03*
G04 #@! TO.P,SW8,1*
G04 #@! TO.N,/Row2*
X104902000Y-103378000D03*
G04 #@! TO.P,SW8,2*
G04 #@! TO.N,/Col2*
X111402000Y-107878000D03*
G04 #@! TO.P,SW8,1*
G04 #@! TO.N,/Row2*
X111402000Y-103378000D03*
G04 #@! TD*
G04 #@! TO.P,SW29,2*
G04 #@! TO.N,/Col5*
X256286000Y-90225000D03*
G04 #@! TO.P,SW29,1*
G04 #@! TO.N,/Row5*
X256286000Y-85725000D03*
G04 #@! TO.P,SW29,2*
G04 #@! TO.N,/Col5*
X262786000Y-90225000D03*
G04 #@! TO.P,SW29,1*
G04 #@! TO.N,/Row5*
X262786000Y-85725000D03*
G04 #@! TD*
G04 #@! TO.P,SW11,1*
G04 #@! TO.N,/Row5*
X127912000Y-103378000D03*
G04 #@! TO.P,SW11,2*
G04 #@! TO.N,/Col2*
X127912000Y-107878000D03*
G04 #@! TO.P,SW11,1*
G04 #@! TO.N,/Row5*
X121412000Y-103378000D03*
G04 #@! TO.P,SW11,2*
G04 #@! TO.N,/Col2*
X121412000Y-107878000D03*
G04 #@! TD*
G04 #@! TO.P,SW3,1*
G04 #@! TO.N,/Row3*
X95019000Y-68453000D03*
G04 #@! TO.P,SW3,2*
G04 #@! TO.N,/Col1*
X95019000Y-72953000D03*
G04 #@! TO.P,SW3,1*
G04 #@! TO.N,/Row3*
X88519000Y-68453000D03*
G04 #@! TO.P,SW3,2*
G04 #@! TO.N,/Col1*
X88519000Y-72953000D03*
G04 #@! TD*
G04 #@! TO.P,SW6,2*
G04 #@! TO.N,/Col1*
X104902000Y-72953000D03*
G04 #@! TO.P,SW6,1*
G04 #@! TO.N,/Row6*
X104902000Y-68453000D03*
G04 #@! TO.P,SW6,2*
G04 #@! TO.N,/Col1*
X111402000Y-72953000D03*
G04 #@! TO.P,SW6,1*
G04 #@! TO.N,/Row6*
X111402000Y-68453000D03*
G04 #@! TD*
G04 #@! TO.P,SW18,2*
G04 #@! TO.N,/Col3*
X174752000Y-72826000D03*
G04 #@! TO.P,SW18,1*
G04 #@! TO.N,/Row6*
X174752000Y-68326000D03*
G04 #@! TO.P,SW18,2*
G04 #@! TO.N,/Col3*
X181252000Y-72826000D03*
G04 #@! TO.P,SW18,1*
G04 #@! TO.N,/Row6*
X181252000Y-68326000D03*
G04 #@! TD*
D11*
G04 #@! TO.P,D1,1*
G04 #@! TO.N,Net-(D1-Pad1)*
X222250000Y-69850000D03*
D12*
G04 #@! TO.P,D1,2*
G04 #@! TO.N,/MastCaut*
X222250000Y-72390000D03*
G04 #@! TD*
D10*
G04 #@! TO.P,SW19,2*
G04 #@! TO.N,/Col4*
X171069000Y-89971000D03*
G04 #@! TO.P,SW19,1*
G04 #@! TO.N,/Row1*
X171069000Y-85471000D03*
G04 #@! TO.P,SW19,2*
G04 #@! TO.N,/Col4*
X177569000Y-89971000D03*
G04 #@! TO.P,SW19,1*
G04 #@! TO.N,/Row1*
X177569000Y-85471000D03*
G04 #@! TD*
G04 #@! TO.P,SW33,2*
G04 #@! TO.N,/Col6*
X281686000Y-90225000D03*
G04 #@! TO.P,SW33,1*
G04 #@! TO.N,/Row3*
X281686000Y-85725000D03*
G04 #@! TO.P,SW33,2*
G04 #@! TO.N,/Col6*
X288186000Y-90225000D03*
G04 #@! TO.P,SW33,1*
G04 #@! TO.N,/Row3*
X288186000Y-85725000D03*
G04 #@! TD*
G04 #@! TO.P,SW20,2*
G04 #@! TO.N,/Col4*
X170942000Y-107878000D03*
G04 #@! TO.P,SW20,1*
G04 #@! TO.N,/Row2*
X170942000Y-103378000D03*
G04 #@! TO.P,SW20,2*
G04 #@! TO.N,/Col4*
X177442000Y-107878000D03*
G04 #@! TO.P,SW20,1*
G04 #@! TO.N,/Row2*
X177442000Y-103378000D03*
G04 #@! TD*
G04 #@! TO.P,SW7,2*
G04 #@! TO.N,/Col2*
X105029000Y-90225000D03*
G04 #@! TO.P,SW7,1*
G04 #@! TO.N,/Row1*
X105029000Y-85725000D03*
G04 #@! TO.P,SW7,2*
G04 #@! TO.N,/Col2*
X111529000Y-90225000D03*
G04 #@! TO.P,SW7,1*
G04 #@! TO.N,/Row1*
X111529000Y-85725000D03*
G04 #@! TD*
G04 #@! TO.P,SW30,2*
G04 #@! TO.N,/Col5*
X262636000Y-108259000D03*
G04 #@! TO.P,SW30,1*
G04 #@! TO.N,/Row6*
X262636000Y-103759000D03*
G04 #@! TO.P,SW30,2*
G04 #@! TO.N,/Col5*
X269136000Y-108259000D03*
G04 #@! TO.P,SW30,1*
G04 #@! TO.N,/Row6*
X269136000Y-103759000D03*
G04 #@! TD*
G04 #@! TO.P,SW13,1*
G04 #@! TO.N,/Row1*
X144549000Y-85725000D03*
G04 #@! TO.P,SW13,2*
G04 #@! TO.N,/Col3*
X144549000Y-90225000D03*
G04 #@! TO.P,SW13,1*
G04 #@! TO.N,/Row1*
X138049000Y-85725000D03*
G04 #@! TO.P,SW13,2*
G04 #@! TO.N,/Col3*
X138049000Y-90225000D03*
G04 #@! TD*
G04 #@! TO.P,SW10,2*
G04 #@! TO.N,/Col2*
X121666000Y-90225000D03*
G04 #@! TO.P,SW10,1*
G04 #@! TO.N,/Row4*
X121666000Y-85725000D03*
G04 #@! TO.P,SW10,2*
G04 #@! TO.N,/Col2*
X128166000Y-90225000D03*
G04 #@! TO.P,SW10,1*
G04 #@! TO.N,/Row4*
X128166000Y-85725000D03*
G04 #@! TD*
D13*
G04 #@! TO.P,J2,1*
G04 #@! TO.N,/Col3*
X283464000Y-114300000D03*
D14*
G04 #@! TO.P,J2,2*
G04 #@! TO.N,/Col4*
X286004000Y-114300000D03*
G04 #@! TO.P,J2,3*
G04 #@! TO.N,/Col5*
X288544000Y-114300000D03*
G04 #@! TO.P,J2,4*
G04 #@! TO.N,/Col6*
X291084000Y-114300000D03*
G04 #@! TO.P,J2,5*
G04 #@! TO.N,/MastCaut*
X293624000Y-114300000D03*
G04 #@! TO.P,J2,6*
G04 #@! TO.N,Net-(J2-Pad6)*
X296164000Y-114300000D03*
G04 #@! TO.P,J2,7*
G04 #@! TO.N,GND*
X298704000Y-114300000D03*
G04 #@! TO.P,J2,8*
G04 #@! TO.N,Net-(J2-Pad8)*
X301244000Y-114300000D03*
G04 #@! TO.P,J2,9*
G04 #@! TO.N,Net-(J2-Pad9)*
X303784000Y-114300000D03*
G04 #@! TO.P,J2,10*
G04 #@! TO.N,Net-(J2-Pad10)*
X306324000Y-114300000D03*
G04 #@! TD*
D10*
G04 #@! TO.P,SW27,1*
G04 #@! TO.N,/Row3*
X235989000Y-103124000D03*
G04 #@! TO.P,SW27,2*
G04 #@! TO.N,/Col5*
X235989000Y-107624000D03*
G04 #@! TO.P,SW27,1*
G04 #@! TO.N,/Row3*
X229489000Y-103124000D03*
G04 #@! TO.P,SW27,2*
G04 #@! TO.N,/Col5*
X229489000Y-107624000D03*
G04 #@! TD*
G04 #@! TO.P,SW9,2*
G04 #@! TO.N,/Col2*
X121539000Y-72953000D03*
G04 #@! TO.P,SW9,1*
G04 #@! TO.N,/Row3*
X121539000Y-68453000D03*
G04 #@! TO.P,SW9,2*
G04 #@! TO.N,/Col2*
X128039000Y-72953000D03*
G04 #@! TO.P,SW9,1*
G04 #@! TO.N,/Row3*
X128039000Y-68453000D03*
G04 #@! TD*
G04 #@! TO.P,SW34,1*
G04 #@! TO.N,/Row4*
X307998000Y-81280000D03*
G04 #@! TO.P,SW34,2*
G04 #@! TO.N,/Col6*
X307998000Y-85780000D03*
G04 #@! TO.P,SW34,1*
G04 #@! TO.N,/Row4*
X301498000Y-81280000D03*
G04 #@! TO.P,SW34,2*
G04 #@! TO.N,/Col6*
X301498000Y-85780000D03*
G04 #@! TD*
D13*
G04 #@! TO.P,J3,1*
G04 #@! TO.N,Net-(J3-Pad1)*
X261620000Y-66344800D03*
D14*
G04 #@! TO.P,J3,2*
G04 #@! TO.N,Net-(J3-Pad2)*
X264160000Y-66344800D03*
G04 #@! TO.P,J3,3*
G04 #@! TO.N,Net-(J3-Pad3)*
X266700000Y-66344800D03*
G04 #@! TO.P,J3,4*
G04 #@! TO.N,Net-(J3-Pad4)*
X269240000Y-66344800D03*
G04 #@! TO.P,J3,5*
G04 #@! TO.N,/Row2*
X271780000Y-66344800D03*
G04 #@! TO.P,J3,6*
G04 #@! TO.N,/Row1*
X274320000Y-66344800D03*
G04 #@! TD*
D15*
G04 #@! TO.P,R1,1*
G04 #@! TO.N,GND*
X229489000Y-75057000D03*
D16*
G04 #@! TO.P,R1,2*
G04 #@! TO.N,Net-(D1-Pad1)*
X229489000Y-67437000D03*
G04 #@! TD*
D10*
G04 #@! TO.P,SW5,2*
G04 #@! TO.N,/Col1*
X88646000Y-107878000D03*
G04 #@! TO.P,SW5,1*
G04 #@! TO.N,/Row5*
X88646000Y-103378000D03*
G04 #@! TO.P,SW5,2*
G04 #@! TO.N,/Col1*
X95146000Y-107878000D03*
G04 #@! TO.P,SW5,1*
G04 #@! TO.N,/Row5*
X95146000Y-103378000D03*
G04 #@! TD*
G04 #@! TO.P,SW28,2*
G04 #@! TO.N,/Col5*
X256286000Y-76382000D03*
G04 #@! TO.P,SW28,1*
G04 #@! TO.N,/Row4*
X256286000Y-71882000D03*
G04 #@! TO.P,SW28,2*
G04 #@! TO.N,/Col5*
X262786000Y-76382000D03*
G04 #@! TO.P,SW28,1*
G04 #@! TO.N,/Row4*
X262786000Y-71882000D03*
G04 #@! TD*
G04 #@! TO.P,SW21,2*
G04 #@! TO.N,/Col4*
X196342000Y-89971000D03*
G04 #@! TO.P,SW21,1*
G04 #@! TO.N,/Row3*
X196342000Y-85471000D03*
G04 #@! TO.P,SW21,2*
G04 #@! TO.N,/Col4*
X202842000Y-89971000D03*
G04 #@! TO.P,SW21,1*
G04 #@! TO.N,/Row3*
X202842000Y-85471000D03*
G04 #@! TD*
D13*
G04 #@! TO.P,J1,1*
G04 #@! TO.N,Net-(J1-Pad1)*
X261620000Y-114300000D03*
D14*
G04 #@! TO.P,J1,2*
G04 #@! TO.N,Net-(J1-Pad2)*
X264160000Y-114300000D03*
G04 #@! TO.P,J1,3*
G04 #@! TO.N,/Row3*
X266700000Y-114300000D03*
G04 #@! TO.P,J1,4*
G04 #@! TO.N,/Row4*
X269240000Y-114300000D03*
G04 #@! TO.P,J1,5*
G04 #@! TO.N,/Row5*
X271780000Y-114300000D03*
G04 #@! TO.P,J1,6*
G04 #@! TO.N,/Row6*
X274320000Y-114300000D03*
G04 #@! TO.P,J1,7*
G04 #@! TO.N,/Col1*
X276860000Y-114300000D03*
G04 #@! TO.P,J1,8*
G04 #@! TO.N,/Col2*
X279400000Y-114300000D03*
G04 #@! TD*
D10*
G04 #@! TO.P,SW1,1*
G04 #@! TO.N,/Row1*
X77239000Y-81280000D03*
G04 #@! TO.P,SW1,2*
G04 #@! TO.N,/Col1*
X77239000Y-85780000D03*
G04 #@! TO.P,SW1,1*
G04 #@! TO.N,/Row1*
X70739000Y-81280000D03*
G04 #@! TO.P,SW1,2*
G04 #@! TO.N,/Col1*
X70739000Y-85780000D03*
G04 #@! TD*
G04 #@! TO.P,SW4,1*
G04 #@! TO.N,/Row4*
X95146000Y-85725000D03*
G04 #@! TO.P,SW4,2*
G04 #@! TO.N,/Col1*
X95146000Y-90225000D03*
G04 #@! TO.P,SW4,1*
G04 #@! TO.N,/Row4*
X88646000Y-85725000D03*
G04 #@! TO.P,SW4,2*
G04 #@! TO.N,/Col1*
X88646000Y-90225000D03*
G04 #@! TD*
G04 #@! TO.P,SW26,1*
G04 #@! TO.N,/Row2*
X235989000Y-85471000D03*
G04 #@! TO.P,SW26,2*
G04 #@! TO.N,/Col5*
X235989000Y-89971000D03*
G04 #@! TO.P,SW26,1*
G04 #@! TO.N,/Row2*
X229489000Y-85471000D03*
G04 #@! TO.P,SW26,2*
G04 #@! TO.N,/Col5*
X229489000Y-89971000D03*
G04 #@! TD*
D14*
G04 #@! TO.P,J4,15*
G04 #@! TO.N,/MastCaut*
X251460000Y-79603600D03*
G04 #@! TO.P,J4,14*
G04 #@! TO.N,/Col6*
X248920000Y-79603600D03*
G04 #@! TO.P,J4,13*
G04 #@! TO.N,/Col5*
X246380000Y-79603600D03*
G04 #@! TO.P,J4,12*
G04 #@! TO.N,/Col4*
X243840000Y-79603600D03*
G04 #@! TO.P,J4,11*
G04 #@! TO.N,/Col3*
X241300000Y-79603600D03*
G04 #@! TO.P,J4,10*
G04 #@! TO.N,/Col2*
X238760000Y-79603600D03*
G04 #@! TO.P,J4,9*
G04 #@! TO.N,/Col1*
X236220000Y-79603600D03*
G04 #@! TO.P,J4,8*
G04 #@! TO.N,/Row6*
X233680000Y-79603600D03*
G04 #@! TO.P,J4,7*
G04 #@! TO.N,/Row5*
X231140000Y-79603600D03*
G04 #@! TO.P,J4,6*
G04 #@! TO.N,/Row4*
X228600000Y-79603600D03*
G04 #@! TO.P,J4,5*
G04 #@! TO.N,/Row3*
X226060000Y-79603600D03*
G04 #@! TO.P,J4,4*
G04 #@! TO.N,GND*
X223520000Y-79603600D03*
G04 #@! TO.P,J4,3*
G04 #@! TO.N,Net-(J4-Pad3)*
X220980000Y-79603600D03*
G04 #@! TO.P,J4,2*
G04 #@! TO.N,Net-(J4-Pad2)*
X218440000Y-79603600D03*
D13*
G04 #@! TO.P,J4,1*
G04 #@! TO.N,Net-(J4-Pad1)*
X215900000Y-79603600D03*
G04 #@! TD*
G04 #@! TO.P,J5,1*
G04 #@! TO.N,Net-(J5-Pad1)*
X215900000Y-94869000D03*
D14*
G04 #@! TO.P,J5,2*
G04 #@! TO.N,GND*
X218440000Y-94869000D03*
G04 #@! TO.P,J5,3*
G04 #@! TO.N,Net-(J5-Pad3)*
X220980000Y-94869000D03*
G04 #@! TO.P,J5,4*
G04 #@! TO.N,Net-(J5-Pad4)*
X223520000Y-94869000D03*
G04 #@! TO.P,J5,5*
G04 #@! TO.N,Net-(J5-Pad5)*
X226060000Y-94869000D03*
G04 #@! TO.P,J5,6*
G04 #@! TO.N,Net-(J5-Pad6)*
X228600000Y-94869000D03*
G04 #@! TO.P,J5,7*
G04 #@! TO.N,Net-(J5-Pad7)*
X231140000Y-94869000D03*
G04 #@! TO.P,J5,8*
G04 #@! TO.N,Net-(J5-Pad8)*
X233680000Y-94869000D03*
G04 #@! TO.P,J5,9*
G04 #@! TO.N,Net-(J5-Pad9)*
X236220000Y-94869000D03*
G04 #@! TO.P,J5,10*
G04 #@! TO.N,Net-(J5-Pad10)*
X238760000Y-94869000D03*
G04 #@! TO.P,J5,11*
G04 #@! TO.N,/Row2*
X241300000Y-94869000D03*
G04 #@! TO.P,J5,12*
G04 #@! TO.N,/Row1*
X243840000Y-94869000D03*
G04 #@! TO.P,J5,13*
G04 #@! TO.N,Net-(J5-Pad13)*
X246380000Y-94869000D03*
G04 #@! TO.P,J5,14*
G04 #@! TO.N,Net-(J5-Pad14)*
X248920000Y-94869000D03*
G04 #@! TO.P,J5,15*
G04 #@! TO.N,Net-(J5-Pad15)*
X251460000Y-94869000D03*
G04 #@! TD*
D17*
G04 #@! TO.N,/MastCaut*
X251460000Y-79603600D02*
X250259700Y-79603600D01*
X250259700Y-79603600D02*
X250259700Y-79228500D01*
X250259700Y-79228500D02*
X243421200Y-72390000D01*
X243421200Y-72390000D02*
X222250000Y-72390000D01*
X251460000Y-79603600D02*
X261144300Y-79603600D01*
X261144300Y-79603600D02*
X293624000Y-112083300D01*
X293624000Y-112083300D02*
X293624000Y-114300000D01*
G04 #@! TO.N,/Row1*
X77239000Y-81280000D02*
X70739000Y-81280000D01*
X105029000Y-85725000D02*
X100584000Y-81280000D01*
X100584000Y-81280000D02*
X77239000Y-81280000D01*
X275336000Y-103759000D02*
X275336000Y-103969300D01*
X275336000Y-103969300D02*
X269645100Y-109660200D01*
X269645100Y-109660200D02*
X259458400Y-109660200D01*
X259458400Y-109660200D02*
X245040300Y-95242100D01*
X245040300Y-95242100D02*
X245040300Y-94869000D01*
X281836000Y-103759000D02*
X275336000Y-103759000D01*
X243840000Y-94869000D02*
X245040300Y-94869000D01*
X243840000Y-94869000D02*
X242639700Y-94869000D01*
X242639700Y-94869000D02*
X242639700Y-95244200D01*
X242639700Y-95244200D02*
X241814600Y-96069300D01*
X241814600Y-96069300D02*
X226406700Y-96069300D01*
X226406700Y-96069300D02*
X219352000Y-103124000D01*
X219352000Y-103124000D02*
X212852000Y-103124000D01*
X138049000Y-85725000D02*
X136642800Y-87131200D01*
X136642800Y-87131200D02*
X112935200Y-87131200D01*
X112935200Y-87131200D02*
X111529000Y-85725000D01*
X144549000Y-85725000D02*
X138049000Y-85725000D01*
X111529000Y-85725000D02*
X105029000Y-85725000D01*
X177569000Y-85471000D02*
X171069000Y-85471000D01*
G04 #@! TO.N,/Row2*
X77239000Y-95123000D02*
X70739000Y-95123000D01*
X104902000Y-103378000D02*
X96647000Y-95123000D01*
X96647000Y-95123000D02*
X77239000Y-95123000D01*
X229489000Y-85471000D02*
X222801900Y-92158100D01*
X222801900Y-92158100D02*
X215621300Y-92158100D01*
X215621300Y-92158100D02*
X206196100Y-101583300D01*
X206196100Y-101583300D02*
X206196100Y-101690500D01*
X206196100Y-101690500D02*
X203374200Y-104512400D01*
X203374200Y-104512400D02*
X178576400Y-104512400D01*
X178576400Y-104512400D02*
X177442000Y-103378000D01*
X235989000Y-85471000D02*
X229489000Y-85471000D01*
X111402000Y-103378000D02*
X104902000Y-103378000D01*
X137795000Y-103378000D02*
X136388800Y-104784200D01*
X136388800Y-104784200D02*
X112808200Y-104784200D01*
X112808200Y-104784200D02*
X111402000Y-103378000D01*
X281686000Y-71882000D02*
X288186000Y-71882000D01*
X272980300Y-66344800D02*
X272980300Y-66717900D01*
X272980300Y-66717900D02*
X278144400Y-71882000D01*
X278144400Y-71882000D02*
X281686000Y-71882000D01*
X271780000Y-66344800D02*
X272980300Y-66344800D01*
X137795000Y-103378000D02*
X144295000Y-103378000D01*
X177442000Y-103378000D02*
X170942000Y-103378000D01*
G04 #@! TO.N,/Row3*
X267900300Y-114300000D02*
X267900300Y-114675100D01*
X267900300Y-114675100D02*
X269273000Y-116047800D01*
X269273000Y-116047800D02*
X293580200Y-116047800D01*
X293580200Y-116047800D02*
X294828100Y-114799900D01*
X294828100Y-114799900D02*
X294828100Y-92367100D01*
X294828100Y-92367100D02*
X288186000Y-85725000D01*
X266700000Y-114300000D02*
X267900300Y-114300000D01*
X95019000Y-68453000D02*
X88519000Y-68453000D01*
X121539000Y-68453000D02*
X120184500Y-67098500D01*
X120184500Y-67098500D02*
X96373500Y-67098500D01*
X96373500Y-67098500D02*
X95019000Y-68453000D01*
X128039000Y-68453000D02*
X121539000Y-68453000D01*
X154051000Y-68453000D02*
X152695900Y-67097900D01*
X152695900Y-67097900D02*
X129394100Y-67097900D01*
X129394100Y-67097900D02*
X128039000Y-68453000D01*
X154051000Y-68453000D02*
X160551000Y-68453000D01*
X229489000Y-103124000D02*
X235989000Y-103124000D01*
X288186000Y-85725000D02*
X281686000Y-85725000D01*
X202842000Y-85471000D02*
X196342000Y-85471000D01*
G04 #@! TO.N,/Row4*
X228600000Y-79603600D02*
X228600000Y-82778400D01*
X228600000Y-82778400D02*
X220057100Y-91321300D01*
X220057100Y-91321300D02*
X214644700Y-91321300D01*
X214644700Y-91321300D02*
X202842000Y-103124000D01*
X196342000Y-103124000D02*
X195024300Y-101806300D01*
X195024300Y-101806300D02*
X176759300Y-101806300D01*
X176759300Y-101806300D02*
X160678000Y-85725000D01*
X202842000Y-103124000D02*
X196342000Y-103124000D01*
X154178000Y-85725000D02*
X152824800Y-84371800D01*
X152824800Y-84371800D02*
X129519200Y-84371800D01*
X129519200Y-84371800D02*
X128166000Y-85725000D01*
X160678000Y-85725000D02*
X154178000Y-85725000D01*
X262786000Y-71882000D02*
X269040800Y-78136800D01*
X269040800Y-78136800D02*
X298354800Y-78136800D01*
X298354800Y-78136800D02*
X301498000Y-81280000D01*
X301498000Y-81280000D02*
X307998000Y-81280000D01*
X88646000Y-85725000D02*
X95146000Y-85725000D01*
X121666000Y-85725000D02*
X128166000Y-85725000D01*
G04 #@! TO.N,/Row5*
X161186000Y-103378000D02*
X154686000Y-103378000D01*
X237916000Y-85479600D02*
X230046700Y-93348900D01*
X230046700Y-93348900D02*
X215170900Y-93348900D01*
X215170900Y-93348900D02*
X208346000Y-100173800D01*
X208346000Y-100173800D02*
X208346000Y-100264700D01*
X208346000Y-100264700D02*
X203597900Y-105012800D01*
X203597900Y-105012800D02*
X162820800Y-105012800D01*
X162820800Y-105012800D02*
X161186000Y-103378000D01*
X256286000Y-85725000D02*
X238161400Y-85725000D01*
X238161400Y-85725000D02*
X237916000Y-85479600D01*
X232340300Y-79603600D02*
X232340300Y-79978700D01*
X232340300Y-79978700D02*
X234885700Y-82524100D01*
X234885700Y-82524100D02*
X234960500Y-82524100D01*
X234960500Y-82524100D02*
X237916000Y-85479600D01*
X231140000Y-79603600D02*
X232340300Y-79603600D01*
X256286000Y-85725000D02*
X262786000Y-85725000D01*
X208915000Y-68961000D02*
X215415000Y-68961000D01*
X301498000Y-95123000D02*
X307998000Y-95123000D01*
X121412000Y-103378000D02*
X127912000Y-103378000D01*
X154686000Y-103378000D02*
X153290300Y-101982300D01*
X153290300Y-101982300D02*
X129307700Y-101982300D01*
X129307700Y-101982300D02*
X127912000Y-103378000D01*
X95146000Y-103378000D02*
X88646000Y-103378000D01*
G04 #@! TO.N,/Row6*
X219479000Y-85471000D02*
X212979000Y-85471000D01*
X269136000Y-103759000D02*
X262636000Y-103759000D01*
X111402000Y-68453000D02*
X104902000Y-68453000D01*
X138049000Y-68453000D02*
X136698600Y-69803400D01*
X136698600Y-69803400D02*
X112752400Y-69803400D01*
X112752400Y-69803400D02*
X111402000Y-68453000D01*
X138049000Y-68453000D02*
X144549000Y-68453000D01*
X181252000Y-68326000D02*
X174752000Y-68326000D01*
G04 #@! TO.N,/Col1*
X95019000Y-72953000D02*
X88519000Y-72953000D01*
X104902000Y-72953000D02*
X95019000Y-72953000D01*
X236220000Y-79603600D02*
X235019700Y-79603600D01*
X111402000Y-72953000D02*
X116425100Y-77976100D01*
X116425100Y-77976100D02*
X233765200Y-77976100D01*
X233765200Y-77976100D02*
X235019700Y-79230600D01*
X235019700Y-79230600D02*
X235019700Y-79603600D01*
X104902000Y-72953000D02*
X111402000Y-72953000D01*
X70739000Y-99623000D02*
X77239000Y-99623000D01*
X70739000Y-85780000D02*
X77239000Y-85780000D01*
X88646000Y-90225000D02*
X95146000Y-90225000D01*
X95146000Y-107878000D02*
X88646000Y-107878000D01*
G04 #@! TO.N,/Col2*
X144549000Y-72953000D02*
X148998700Y-77402700D01*
X148998700Y-77402700D02*
X235731800Y-77402700D01*
X235731800Y-77402700D02*
X237559700Y-79230600D01*
X237559700Y-79230600D02*
X237559700Y-79603600D01*
X144549000Y-72953000D02*
X138049000Y-72953000D01*
X238760000Y-79603600D02*
X237559700Y-79603600D01*
X121412000Y-107878000D02*
X127912000Y-107878000D01*
X111402000Y-107878000D02*
X121412000Y-107878000D01*
X104902000Y-107878000D02*
X111402000Y-107878000D01*
X111529000Y-90225000D02*
X105029000Y-90225000D01*
X121666000Y-90225000D02*
X111529000Y-90225000D01*
X128166000Y-90225000D02*
X121666000Y-90225000D01*
X121539000Y-72953000D02*
X128039000Y-72953000D01*
G04 #@! TO.N,/Col3*
X241300000Y-79603600D02*
X243909900Y-82213500D01*
X243909900Y-82213500D02*
X262243800Y-82213500D01*
X262243800Y-82213500D02*
X283464000Y-103433700D01*
X283464000Y-103433700D02*
X283464000Y-114300000D01*
X181252000Y-72826000D02*
X185328300Y-76902300D01*
X185328300Y-76902300D02*
X237773500Y-76902300D01*
X237773500Y-76902300D02*
X240099700Y-79228500D01*
X240099700Y-79228500D02*
X240099700Y-79603600D01*
X241300000Y-79603600D02*
X240099700Y-79603600D01*
X144295000Y-107878000D02*
X154686000Y-107878000D01*
X154686000Y-107878000D02*
X161186000Y-107878000D01*
X154178000Y-90225000D02*
X160678000Y-90225000D01*
X144549000Y-90225000D02*
X154178000Y-90225000D01*
X154051000Y-72953000D02*
X160551000Y-72953000D01*
X174752000Y-72826000D02*
X160678000Y-72826000D01*
X160678000Y-72826000D02*
X160551000Y-72953000D01*
X181252000Y-72826000D02*
X174752000Y-72826000D01*
G04 #@! TO.N,/Col4*
X245040300Y-79603600D02*
X245040300Y-79976700D01*
X245040300Y-79976700D02*
X246749300Y-81685700D01*
X246749300Y-81685700D02*
X262492600Y-81685700D01*
X262492600Y-81685700D02*
X286004000Y-105197100D01*
X286004000Y-105197100D02*
X286004000Y-114300000D01*
X243840000Y-79603600D02*
X245040300Y-79603600D01*
X243840000Y-79603600D02*
X242639700Y-79603600D01*
X242639700Y-79603600D02*
X242639700Y-79228500D01*
X242639700Y-79228500D02*
X239813100Y-76401900D01*
X239813100Y-76401900D02*
X218355900Y-76401900D01*
X218355900Y-76401900D02*
X215415000Y-73461000D01*
X212979000Y-89971000D02*
X219479000Y-89971000D01*
X196342000Y-107624000D02*
X202842000Y-107624000D01*
X215415000Y-73461000D02*
X208915000Y-73461000D01*
X170942000Y-107878000D02*
X177442000Y-107878000D01*
X177569000Y-89971000D02*
X171069000Y-89971000D01*
G04 #@! TO.N,/Col5*
X219352000Y-107624000D02*
X212852000Y-107624000D01*
X229489000Y-107624000D02*
X219352000Y-107624000D01*
X261218800Y-90225000D02*
X256286000Y-90225000D01*
X262786000Y-90225000D02*
X261218800Y-90225000D01*
X261218800Y-90225000D02*
X261218800Y-106841800D01*
X261218800Y-106841800D02*
X262636000Y-108259000D01*
X256286000Y-90225000D02*
X236243000Y-90225000D01*
X236243000Y-90225000D02*
X235989000Y-89971000D01*
X269136000Y-108259000D02*
X262636000Y-108259000D01*
X262786000Y-76382000D02*
X256286000Y-76382000D01*
G04 #@! TO.N,/Col6*
X281836000Y-108259000D02*
X281836000Y-114883100D01*
X281836000Y-114883100D02*
X282500300Y-115547400D01*
X282500300Y-115547400D02*
X289009300Y-115547400D01*
X289009300Y-115547400D02*
X289883700Y-114673000D01*
X289883700Y-114673000D02*
X289883700Y-114300000D01*
X291084000Y-114300000D02*
X289883700Y-114300000D01*
X281836000Y-108259000D02*
X275336000Y-108259000D01*
X301498000Y-85780000D02*
X307998000Y-85780000D01*
X288186000Y-76382000D02*
X281686000Y-76382000D01*
X288186000Y-90225000D02*
X281686000Y-90225000D01*
G04 #@! TD*
M02*
