G04 #@! TF.GenerationSoftware,KiCad,Pcbnew,(5.0.2)-1*
G04 #@! TF.CreationDate,2019-08-02T19:21:12-04:00*
G04 #@! TF.ProjectId,A-10C-UFC,412d3130-432d-4554-9643-2e6b69636164,1.2*
G04 #@! TF.SameCoordinates,Original*
G04 #@! TF.FileFunction,Other,User*
%FSLAX46Y46*%
G04 Gerber Fmt 4.6, Leading zero omitted, Abs format (unit mm)*
G04 Created by KiCad (PCBNEW (5.0.2)-1) date 8/2/2019 7:21:12 PM*
%MOMM*%
%LPD*%
G01*
G04 APERTURE LIST*
%ADD10C,0.050000*%
G04 APERTURE END LIST*
D10*
G04 #@! TO.C,SW24*
X220979000Y-84221000D02*
X220979000Y-91221000D01*
X220729000Y-91471000D02*
X211729000Y-91471000D01*
X211479000Y-91221000D02*
X211479000Y-84221000D01*
X211729000Y-83971000D02*
X220729000Y-83971000D01*
X211479000Y-91471000D02*
X211729000Y-91471000D01*
X211479000Y-91221000D02*
X211479000Y-91471000D01*
X211479000Y-83971000D02*
X211729000Y-83971000D01*
X211479000Y-84221000D02*
X211479000Y-83971000D01*
X220979000Y-83971000D02*
X220979000Y-84221000D01*
X220729000Y-83971000D02*
X220979000Y-83971000D01*
X220979000Y-91471000D02*
X220979000Y-91221000D01*
X220729000Y-91471000D02*
X220979000Y-91471000D01*
G04 #@! TO.C,SW22*
X204092000Y-109124000D02*
X204342000Y-109124000D01*
X204342000Y-109124000D02*
X204342000Y-108874000D01*
X204092000Y-101624000D02*
X204342000Y-101624000D01*
X204342000Y-101624000D02*
X204342000Y-101874000D01*
X194842000Y-101874000D02*
X194842000Y-101624000D01*
X194842000Y-101624000D02*
X195092000Y-101624000D01*
X194842000Y-108874000D02*
X194842000Y-109124000D01*
X194842000Y-109124000D02*
X195092000Y-109124000D01*
X195092000Y-101624000D02*
X204092000Y-101624000D01*
X194842000Y-108874000D02*
X194842000Y-101874000D01*
X204092000Y-109124000D02*
X195092000Y-109124000D01*
X204342000Y-101874000D02*
X204342000Y-108874000D01*
G04 #@! TO.C,SW12*
X146049000Y-67203000D02*
X146049000Y-74203000D01*
X145799000Y-74453000D02*
X136799000Y-74453000D01*
X136549000Y-74203000D02*
X136549000Y-67203000D01*
X136799000Y-66953000D02*
X145799000Y-66953000D01*
X136549000Y-74453000D02*
X136799000Y-74453000D01*
X136549000Y-74203000D02*
X136549000Y-74453000D01*
X136549000Y-66953000D02*
X136799000Y-66953000D01*
X136549000Y-67203000D02*
X136549000Y-66953000D01*
X146049000Y-66953000D02*
X146049000Y-67203000D01*
X145799000Y-66953000D02*
X146049000Y-66953000D01*
X146049000Y-74453000D02*
X146049000Y-74203000D01*
X145799000Y-74453000D02*
X146049000Y-74453000D01*
G04 #@! TO.C,SW25*
X220852000Y-101874000D02*
X220852000Y-108874000D01*
X220602000Y-109124000D02*
X211602000Y-109124000D01*
X211352000Y-108874000D02*
X211352000Y-101874000D01*
X211602000Y-101624000D02*
X220602000Y-101624000D01*
X211352000Y-109124000D02*
X211602000Y-109124000D01*
X211352000Y-108874000D02*
X211352000Y-109124000D01*
X211352000Y-101624000D02*
X211602000Y-101624000D01*
X211352000Y-101874000D02*
X211352000Y-101624000D01*
X220852000Y-101624000D02*
X220852000Y-101874000D01*
X220602000Y-101624000D02*
X220852000Y-101624000D01*
X220852000Y-109124000D02*
X220852000Y-108874000D01*
X220602000Y-109124000D02*
X220852000Y-109124000D01*
G04 #@! TO.C,SW31*
X283086000Y-109759000D02*
X283336000Y-109759000D01*
X283336000Y-109759000D02*
X283336000Y-109509000D01*
X283086000Y-102259000D02*
X283336000Y-102259000D01*
X283336000Y-102259000D02*
X283336000Y-102509000D01*
X273836000Y-102509000D02*
X273836000Y-102259000D01*
X273836000Y-102259000D02*
X274086000Y-102259000D01*
X273836000Y-109509000D02*
X273836000Y-109759000D01*
X273836000Y-109759000D02*
X274086000Y-109759000D01*
X274086000Y-102259000D02*
X283086000Y-102259000D01*
X273836000Y-109509000D02*
X273836000Y-102509000D01*
X283086000Y-109759000D02*
X274086000Y-109759000D01*
X283336000Y-102509000D02*
X283336000Y-109509000D01*
G04 #@! TO.C,SW23*
X216915000Y-67711000D02*
X216915000Y-74711000D01*
X216665000Y-74961000D02*
X207665000Y-74961000D01*
X207415000Y-74711000D02*
X207415000Y-67711000D01*
X207665000Y-67461000D02*
X216665000Y-67461000D01*
X207415000Y-74961000D02*
X207665000Y-74961000D01*
X207415000Y-74711000D02*
X207415000Y-74961000D01*
X207415000Y-67461000D02*
X207665000Y-67461000D01*
X207415000Y-67711000D02*
X207415000Y-67461000D01*
X216915000Y-67461000D02*
X216915000Y-67711000D01*
X216665000Y-67461000D02*
X216915000Y-67461000D01*
X216915000Y-74961000D02*
X216915000Y-74711000D01*
X216665000Y-74961000D02*
X216915000Y-74961000D01*
G04 #@! TO.C,SW32*
X289436000Y-77882000D02*
X289686000Y-77882000D01*
X289686000Y-77882000D02*
X289686000Y-77632000D01*
X289436000Y-70382000D02*
X289686000Y-70382000D01*
X289686000Y-70382000D02*
X289686000Y-70632000D01*
X280186000Y-70632000D02*
X280186000Y-70382000D01*
X280186000Y-70382000D02*
X280436000Y-70382000D01*
X280186000Y-77632000D02*
X280186000Y-77882000D01*
X280186000Y-77882000D02*
X280436000Y-77882000D01*
X280436000Y-70382000D02*
X289436000Y-70382000D01*
X280186000Y-77632000D02*
X280186000Y-70632000D01*
X289436000Y-77882000D02*
X280436000Y-77882000D01*
X289686000Y-70632000D02*
X289686000Y-77632000D01*
G04 #@! TO.C,SW14*
X145795000Y-102128000D02*
X145795000Y-109128000D01*
X145545000Y-109378000D02*
X136545000Y-109378000D01*
X136295000Y-109128000D02*
X136295000Y-102128000D01*
X136545000Y-101878000D02*
X145545000Y-101878000D01*
X136295000Y-109378000D02*
X136545000Y-109378000D01*
X136295000Y-109128000D02*
X136295000Y-109378000D01*
X136295000Y-101878000D02*
X136545000Y-101878000D01*
X136295000Y-102128000D02*
X136295000Y-101878000D01*
X145795000Y-101878000D02*
X145795000Y-102128000D01*
X145545000Y-101878000D02*
X145795000Y-101878000D01*
X145795000Y-109378000D02*
X145795000Y-109128000D01*
X145545000Y-109378000D02*
X145795000Y-109378000D01*
G04 #@! TO.C,SW16*
X162178000Y-84475000D02*
X162178000Y-91475000D01*
X161928000Y-91725000D02*
X152928000Y-91725000D01*
X152678000Y-91475000D02*
X152678000Y-84475000D01*
X152928000Y-84225000D02*
X161928000Y-84225000D01*
X152678000Y-91725000D02*
X152928000Y-91725000D01*
X152678000Y-91475000D02*
X152678000Y-91725000D01*
X152678000Y-84225000D02*
X152928000Y-84225000D01*
X152678000Y-84475000D02*
X152678000Y-84225000D01*
X162178000Y-84225000D02*
X162178000Y-84475000D01*
X161928000Y-84225000D02*
X162178000Y-84225000D01*
X162178000Y-91725000D02*
X162178000Y-91475000D01*
X161928000Y-91725000D02*
X162178000Y-91725000D01*
G04 #@! TO.C,SW2*
X78739000Y-93873000D02*
X78739000Y-100873000D01*
X78489000Y-101123000D02*
X69489000Y-101123000D01*
X69239000Y-100873000D02*
X69239000Y-93873000D01*
X69489000Y-93623000D02*
X78489000Y-93623000D01*
X69239000Y-101123000D02*
X69489000Y-101123000D01*
X69239000Y-100873000D02*
X69239000Y-101123000D01*
X69239000Y-93623000D02*
X69489000Y-93623000D01*
X69239000Y-93873000D02*
X69239000Y-93623000D01*
X78739000Y-93623000D02*
X78739000Y-93873000D01*
X78489000Y-93623000D02*
X78739000Y-93623000D01*
X78739000Y-101123000D02*
X78739000Y-100873000D01*
X78489000Y-101123000D02*
X78739000Y-101123000D01*
G04 #@! TO.C,SW35*
X309498000Y-93873000D02*
X309498000Y-100873000D01*
X309248000Y-101123000D02*
X300248000Y-101123000D01*
X299998000Y-100873000D02*
X299998000Y-93873000D01*
X300248000Y-93623000D02*
X309248000Y-93623000D01*
X299998000Y-101123000D02*
X300248000Y-101123000D01*
X299998000Y-100873000D02*
X299998000Y-101123000D01*
X299998000Y-93623000D02*
X300248000Y-93623000D01*
X299998000Y-93873000D02*
X299998000Y-93623000D01*
X309498000Y-93623000D02*
X309498000Y-93873000D01*
X309248000Y-93623000D02*
X309498000Y-93623000D01*
X309498000Y-101123000D02*
X309498000Y-100873000D01*
X309248000Y-101123000D02*
X309498000Y-101123000D01*
G04 #@! TO.C,SW17*
X162436000Y-109378000D02*
X162686000Y-109378000D01*
X162686000Y-109378000D02*
X162686000Y-109128000D01*
X162436000Y-101878000D02*
X162686000Y-101878000D01*
X162686000Y-101878000D02*
X162686000Y-102128000D01*
X153186000Y-102128000D02*
X153186000Y-101878000D01*
X153186000Y-101878000D02*
X153436000Y-101878000D01*
X153186000Y-109128000D02*
X153186000Y-109378000D01*
X153186000Y-109378000D02*
X153436000Y-109378000D01*
X153436000Y-101878000D02*
X162436000Y-101878000D01*
X153186000Y-109128000D02*
X153186000Y-102128000D01*
X162436000Y-109378000D02*
X153436000Y-109378000D01*
X162686000Y-102128000D02*
X162686000Y-109128000D01*
G04 #@! TO.C,SW15*
X162051000Y-67203000D02*
X162051000Y-74203000D01*
X161801000Y-74453000D02*
X152801000Y-74453000D01*
X152551000Y-74203000D02*
X152551000Y-67203000D01*
X152801000Y-66953000D02*
X161801000Y-66953000D01*
X152551000Y-74453000D02*
X152801000Y-74453000D01*
X152551000Y-74203000D02*
X152551000Y-74453000D01*
X152551000Y-66953000D02*
X152801000Y-66953000D01*
X152551000Y-67203000D02*
X152551000Y-66953000D01*
X162051000Y-66953000D02*
X162051000Y-67203000D01*
X161801000Y-66953000D02*
X162051000Y-66953000D01*
X162051000Y-74453000D02*
X162051000Y-74203000D01*
X161801000Y-74453000D02*
X162051000Y-74453000D01*
G04 #@! TO.C,SW8*
X112652000Y-109378000D02*
X112902000Y-109378000D01*
X112902000Y-109378000D02*
X112902000Y-109128000D01*
X112652000Y-101878000D02*
X112902000Y-101878000D01*
X112902000Y-101878000D02*
X112902000Y-102128000D01*
X103402000Y-102128000D02*
X103402000Y-101878000D01*
X103402000Y-101878000D02*
X103652000Y-101878000D01*
X103402000Y-109128000D02*
X103402000Y-109378000D01*
X103402000Y-109378000D02*
X103652000Y-109378000D01*
X103652000Y-101878000D02*
X112652000Y-101878000D01*
X103402000Y-109128000D02*
X103402000Y-102128000D01*
X112652000Y-109378000D02*
X103652000Y-109378000D01*
X112902000Y-102128000D02*
X112902000Y-109128000D01*
G04 #@! TO.C,SW29*
X264036000Y-91725000D02*
X264286000Y-91725000D01*
X264286000Y-91725000D02*
X264286000Y-91475000D01*
X264036000Y-84225000D02*
X264286000Y-84225000D01*
X264286000Y-84225000D02*
X264286000Y-84475000D01*
X254786000Y-84475000D02*
X254786000Y-84225000D01*
X254786000Y-84225000D02*
X255036000Y-84225000D01*
X254786000Y-91475000D02*
X254786000Y-91725000D01*
X254786000Y-91725000D02*
X255036000Y-91725000D01*
X255036000Y-84225000D02*
X264036000Y-84225000D01*
X254786000Y-91475000D02*
X254786000Y-84475000D01*
X264036000Y-91725000D02*
X255036000Y-91725000D01*
X264286000Y-84475000D02*
X264286000Y-91475000D01*
G04 #@! TO.C,SW11*
X129412000Y-102128000D02*
X129412000Y-109128000D01*
X129162000Y-109378000D02*
X120162000Y-109378000D01*
X119912000Y-109128000D02*
X119912000Y-102128000D01*
X120162000Y-101878000D02*
X129162000Y-101878000D01*
X119912000Y-109378000D02*
X120162000Y-109378000D01*
X119912000Y-109128000D02*
X119912000Y-109378000D01*
X119912000Y-101878000D02*
X120162000Y-101878000D01*
X119912000Y-102128000D02*
X119912000Y-101878000D01*
X129412000Y-101878000D02*
X129412000Y-102128000D01*
X129162000Y-101878000D02*
X129412000Y-101878000D01*
X129412000Y-109378000D02*
X129412000Y-109128000D01*
X129162000Y-109378000D02*
X129412000Y-109378000D01*
G04 #@! TO.C,SW3*
X96519000Y-67203000D02*
X96519000Y-74203000D01*
X96269000Y-74453000D02*
X87269000Y-74453000D01*
X87019000Y-74203000D02*
X87019000Y-67203000D01*
X87269000Y-66953000D02*
X96269000Y-66953000D01*
X87019000Y-74453000D02*
X87269000Y-74453000D01*
X87019000Y-74203000D02*
X87019000Y-74453000D01*
X87019000Y-66953000D02*
X87269000Y-66953000D01*
X87019000Y-67203000D02*
X87019000Y-66953000D01*
X96519000Y-66953000D02*
X96519000Y-67203000D01*
X96269000Y-66953000D02*
X96519000Y-66953000D01*
X96519000Y-74453000D02*
X96519000Y-74203000D01*
X96269000Y-74453000D02*
X96519000Y-74453000D01*
G04 #@! TO.C,SW6*
X112652000Y-74453000D02*
X112902000Y-74453000D01*
X112902000Y-74453000D02*
X112902000Y-74203000D01*
X112652000Y-66953000D02*
X112902000Y-66953000D01*
X112902000Y-66953000D02*
X112902000Y-67203000D01*
X103402000Y-67203000D02*
X103402000Y-66953000D01*
X103402000Y-66953000D02*
X103652000Y-66953000D01*
X103402000Y-74203000D02*
X103402000Y-74453000D01*
X103402000Y-74453000D02*
X103652000Y-74453000D01*
X103652000Y-66953000D02*
X112652000Y-66953000D01*
X103402000Y-74203000D02*
X103402000Y-67203000D01*
X112652000Y-74453000D02*
X103652000Y-74453000D01*
X112902000Y-67203000D02*
X112902000Y-74203000D01*
G04 #@! TO.C,SW18*
X182502000Y-74326000D02*
X182752000Y-74326000D01*
X182752000Y-74326000D02*
X182752000Y-74076000D01*
X182502000Y-66826000D02*
X182752000Y-66826000D01*
X182752000Y-66826000D02*
X182752000Y-67076000D01*
X173252000Y-67076000D02*
X173252000Y-66826000D01*
X173252000Y-66826000D02*
X173502000Y-66826000D01*
X173252000Y-74076000D02*
X173252000Y-74326000D01*
X173252000Y-74326000D02*
X173502000Y-74326000D01*
X173502000Y-66826000D02*
X182502000Y-66826000D01*
X173252000Y-74076000D02*
X173252000Y-67076000D01*
X182502000Y-74326000D02*
X173502000Y-74326000D01*
X182752000Y-67076000D02*
X182752000Y-74076000D01*
G04 #@! TO.C,D1*
X224500000Y-68700000D02*
X220000000Y-68700000D01*
X220000000Y-68700000D02*
X220000000Y-73550000D01*
X220000000Y-73550000D02*
X224500000Y-73550000D01*
X224500000Y-73550000D02*
X224500000Y-68700000D01*
G04 #@! TO.C,SW19*
X178819000Y-91471000D02*
X179069000Y-91471000D01*
X179069000Y-91471000D02*
X179069000Y-91221000D01*
X178819000Y-83971000D02*
X179069000Y-83971000D01*
X179069000Y-83971000D02*
X179069000Y-84221000D01*
X169569000Y-84221000D02*
X169569000Y-83971000D01*
X169569000Y-83971000D02*
X169819000Y-83971000D01*
X169569000Y-91221000D02*
X169569000Y-91471000D01*
X169569000Y-91471000D02*
X169819000Y-91471000D01*
X169819000Y-83971000D02*
X178819000Y-83971000D01*
X169569000Y-91221000D02*
X169569000Y-84221000D01*
X178819000Y-91471000D02*
X169819000Y-91471000D01*
X179069000Y-84221000D02*
X179069000Y-91221000D01*
G04 #@! TO.C,SW33*
X289436000Y-91725000D02*
X289686000Y-91725000D01*
X289686000Y-91725000D02*
X289686000Y-91475000D01*
X289436000Y-84225000D02*
X289686000Y-84225000D01*
X289686000Y-84225000D02*
X289686000Y-84475000D01*
X280186000Y-84475000D02*
X280186000Y-84225000D01*
X280186000Y-84225000D02*
X280436000Y-84225000D01*
X280186000Y-91475000D02*
X280186000Y-91725000D01*
X280186000Y-91725000D02*
X280436000Y-91725000D01*
X280436000Y-84225000D02*
X289436000Y-84225000D01*
X280186000Y-91475000D02*
X280186000Y-84475000D01*
X289436000Y-91725000D02*
X280436000Y-91725000D01*
X289686000Y-84475000D02*
X289686000Y-91475000D01*
G04 #@! TO.C,SW20*
X178692000Y-109378000D02*
X178942000Y-109378000D01*
X178942000Y-109378000D02*
X178942000Y-109128000D01*
X178692000Y-101878000D02*
X178942000Y-101878000D01*
X178942000Y-101878000D02*
X178942000Y-102128000D01*
X169442000Y-102128000D02*
X169442000Y-101878000D01*
X169442000Y-101878000D02*
X169692000Y-101878000D01*
X169442000Y-109128000D02*
X169442000Y-109378000D01*
X169442000Y-109378000D02*
X169692000Y-109378000D01*
X169692000Y-101878000D02*
X178692000Y-101878000D01*
X169442000Y-109128000D02*
X169442000Y-102128000D01*
X178692000Y-109378000D02*
X169692000Y-109378000D01*
X178942000Y-102128000D02*
X178942000Y-109128000D01*
G04 #@! TO.C,SW7*
X112779000Y-91725000D02*
X113029000Y-91725000D01*
X113029000Y-91725000D02*
X113029000Y-91475000D01*
X112779000Y-84225000D02*
X113029000Y-84225000D01*
X113029000Y-84225000D02*
X113029000Y-84475000D01*
X103529000Y-84475000D02*
X103529000Y-84225000D01*
X103529000Y-84225000D02*
X103779000Y-84225000D01*
X103529000Y-91475000D02*
X103529000Y-91725000D01*
X103529000Y-91725000D02*
X103779000Y-91725000D01*
X103779000Y-84225000D02*
X112779000Y-84225000D01*
X103529000Y-91475000D02*
X103529000Y-84475000D01*
X112779000Y-91725000D02*
X103779000Y-91725000D01*
X113029000Y-84475000D02*
X113029000Y-91475000D01*
G04 #@! TO.C,SW30*
X270386000Y-109759000D02*
X270636000Y-109759000D01*
X270636000Y-109759000D02*
X270636000Y-109509000D01*
X270386000Y-102259000D02*
X270636000Y-102259000D01*
X270636000Y-102259000D02*
X270636000Y-102509000D01*
X261136000Y-102509000D02*
X261136000Y-102259000D01*
X261136000Y-102259000D02*
X261386000Y-102259000D01*
X261136000Y-109509000D02*
X261136000Y-109759000D01*
X261136000Y-109759000D02*
X261386000Y-109759000D01*
X261386000Y-102259000D02*
X270386000Y-102259000D01*
X261136000Y-109509000D02*
X261136000Y-102509000D01*
X270386000Y-109759000D02*
X261386000Y-109759000D01*
X270636000Y-102509000D02*
X270636000Y-109509000D01*
G04 #@! TO.C,SW13*
X146049000Y-84475000D02*
X146049000Y-91475000D01*
X145799000Y-91725000D02*
X136799000Y-91725000D01*
X136549000Y-91475000D02*
X136549000Y-84475000D01*
X136799000Y-84225000D02*
X145799000Y-84225000D01*
X136549000Y-91725000D02*
X136799000Y-91725000D01*
X136549000Y-91475000D02*
X136549000Y-91725000D01*
X136549000Y-84225000D02*
X136799000Y-84225000D01*
X136549000Y-84475000D02*
X136549000Y-84225000D01*
X146049000Y-84225000D02*
X146049000Y-84475000D01*
X145799000Y-84225000D02*
X146049000Y-84225000D01*
X146049000Y-91725000D02*
X146049000Y-91475000D01*
X145799000Y-91725000D02*
X146049000Y-91725000D01*
G04 #@! TO.C,SW10*
X129416000Y-91725000D02*
X129666000Y-91725000D01*
X129666000Y-91725000D02*
X129666000Y-91475000D01*
X129416000Y-84225000D02*
X129666000Y-84225000D01*
X129666000Y-84225000D02*
X129666000Y-84475000D01*
X120166000Y-84475000D02*
X120166000Y-84225000D01*
X120166000Y-84225000D02*
X120416000Y-84225000D01*
X120166000Y-91475000D02*
X120166000Y-91725000D01*
X120166000Y-91725000D02*
X120416000Y-91725000D01*
X120416000Y-84225000D02*
X129416000Y-84225000D01*
X120166000Y-91475000D02*
X120166000Y-84475000D01*
X129416000Y-91725000D02*
X120416000Y-91725000D01*
X129666000Y-84475000D02*
X129666000Y-91475000D01*
G04 #@! TO.C,SW27*
X237489000Y-101874000D02*
X237489000Y-108874000D01*
X237239000Y-109124000D02*
X228239000Y-109124000D01*
X227989000Y-108874000D02*
X227989000Y-101874000D01*
X228239000Y-101624000D02*
X237239000Y-101624000D01*
X227989000Y-109124000D02*
X228239000Y-109124000D01*
X227989000Y-108874000D02*
X227989000Y-109124000D01*
X227989000Y-101624000D02*
X228239000Y-101624000D01*
X227989000Y-101874000D02*
X227989000Y-101624000D01*
X237489000Y-101624000D02*
X237489000Y-101874000D01*
X237239000Y-101624000D02*
X237489000Y-101624000D01*
X237489000Y-109124000D02*
X237489000Y-108874000D01*
X237239000Y-109124000D02*
X237489000Y-109124000D01*
G04 #@! TO.C,SW9*
X129289000Y-74453000D02*
X129539000Y-74453000D01*
X129539000Y-74453000D02*
X129539000Y-74203000D01*
X129289000Y-66953000D02*
X129539000Y-66953000D01*
X129539000Y-66953000D02*
X129539000Y-67203000D01*
X120039000Y-67203000D02*
X120039000Y-66953000D01*
X120039000Y-66953000D02*
X120289000Y-66953000D01*
X120039000Y-74203000D02*
X120039000Y-74453000D01*
X120039000Y-74453000D02*
X120289000Y-74453000D01*
X120289000Y-66953000D02*
X129289000Y-66953000D01*
X120039000Y-74203000D02*
X120039000Y-67203000D01*
X129289000Y-74453000D02*
X120289000Y-74453000D01*
X129539000Y-67203000D02*
X129539000Y-74203000D01*
G04 #@! TO.C,SW34*
X309498000Y-80030000D02*
X309498000Y-87030000D01*
X309248000Y-87280000D02*
X300248000Y-87280000D01*
X299998000Y-87030000D02*
X299998000Y-80030000D01*
X300248000Y-79780000D02*
X309248000Y-79780000D01*
X299998000Y-87280000D02*
X300248000Y-87280000D01*
X299998000Y-87030000D02*
X299998000Y-87280000D01*
X299998000Y-79780000D02*
X300248000Y-79780000D01*
X299998000Y-80030000D02*
X299998000Y-79780000D01*
X309498000Y-79780000D02*
X309498000Y-80030000D01*
X309248000Y-79780000D02*
X309498000Y-79780000D01*
X309498000Y-87280000D02*
X309498000Y-87030000D01*
X309248000Y-87280000D02*
X309498000Y-87280000D01*
G04 #@! TO.C,R1*
X227989000Y-76107000D02*
X230989000Y-76107000D01*
X230989000Y-76107000D02*
X230989000Y-66387000D01*
X230989000Y-66387000D02*
X227989000Y-66387000D01*
X227989000Y-66387000D02*
X227989000Y-76107000D01*
G04 #@! TO.C,SW5*
X96396000Y-109378000D02*
X96646000Y-109378000D01*
X96646000Y-109378000D02*
X96646000Y-109128000D01*
X96396000Y-101878000D02*
X96646000Y-101878000D01*
X96646000Y-101878000D02*
X96646000Y-102128000D01*
X87146000Y-102128000D02*
X87146000Y-101878000D01*
X87146000Y-101878000D02*
X87396000Y-101878000D01*
X87146000Y-109128000D02*
X87146000Y-109378000D01*
X87146000Y-109378000D02*
X87396000Y-109378000D01*
X87396000Y-101878000D02*
X96396000Y-101878000D01*
X87146000Y-109128000D02*
X87146000Y-102128000D01*
X96396000Y-109378000D02*
X87396000Y-109378000D01*
X96646000Y-102128000D02*
X96646000Y-109128000D01*
G04 #@! TO.C,SW28*
X264036000Y-77882000D02*
X264286000Y-77882000D01*
X264286000Y-77882000D02*
X264286000Y-77632000D01*
X264036000Y-70382000D02*
X264286000Y-70382000D01*
X264286000Y-70382000D02*
X264286000Y-70632000D01*
X254786000Y-70632000D02*
X254786000Y-70382000D01*
X254786000Y-70382000D02*
X255036000Y-70382000D01*
X254786000Y-77632000D02*
X254786000Y-77882000D01*
X254786000Y-77882000D02*
X255036000Y-77882000D01*
X255036000Y-70382000D02*
X264036000Y-70382000D01*
X254786000Y-77632000D02*
X254786000Y-70632000D01*
X264036000Y-77882000D02*
X255036000Y-77882000D01*
X264286000Y-70632000D02*
X264286000Y-77632000D01*
G04 #@! TO.C,SW21*
X204092000Y-91471000D02*
X204342000Y-91471000D01*
X204342000Y-91471000D02*
X204342000Y-91221000D01*
X204092000Y-83971000D02*
X204342000Y-83971000D01*
X204342000Y-83971000D02*
X204342000Y-84221000D01*
X194842000Y-84221000D02*
X194842000Y-83971000D01*
X194842000Y-83971000D02*
X195092000Y-83971000D01*
X194842000Y-91221000D02*
X194842000Y-91471000D01*
X194842000Y-91471000D02*
X195092000Y-91471000D01*
X195092000Y-83971000D02*
X204092000Y-83971000D01*
X194842000Y-91221000D02*
X194842000Y-84221000D01*
X204092000Y-91471000D02*
X195092000Y-91471000D01*
X204342000Y-84221000D02*
X204342000Y-91221000D01*
G04 #@! TO.C,SW1*
X78739000Y-80030000D02*
X78739000Y-87030000D01*
X78489000Y-87280000D02*
X69489000Y-87280000D01*
X69239000Y-87030000D02*
X69239000Y-80030000D01*
X69489000Y-79780000D02*
X78489000Y-79780000D01*
X69239000Y-87280000D02*
X69489000Y-87280000D01*
X69239000Y-87030000D02*
X69239000Y-87280000D01*
X69239000Y-79780000D02*
X69489000Y-79780000D01*
X69239000Y-80030000D02*
X69239000Y-79780000D01*
X78739000Y-79780000D02*
X78739000Y-80030000D01*
X78489000Y-79780000D02*
X78739000Y-79780000D01*
X78739000Y-87280000D02*
X78739000Y-87030000D01*
X78489000Y-87280000D02*
X78739000Y-87280000D01*
G04 #@! TO.C,SW4*
X96646000Y-84475000D02*
X96646000Y-91475000D01*
X96396000Y-91725000D02*
X87396000Y-91725000D01*
X87146000Y-91475000D02*
X87146000Y-84475000D01*
X87396000Y-84225000D02*
X96396000Y-84225000D01*
X87146000Y-91725000D02*
X87396000Y-91725000D01*
X87146000Y-91475000D02*
X87146000Y-91725000D01*
X87146000Y-84225000D02*
X87396000Y-84225000D01*
X87146000Y-84475000D02*
X87146000Y-84225000D01*
X96646000Y-84225000D02*
X96646000Y-84475000D01*
X96396000Y-84225000D02*
X96646000Y-84225000D01*
X96646000Y-91725000D02*
X96646000Y-91475000D01*
X96396000Y-91725000D02*
X96646000Y-91725000D01*
G04 #@! TO.C,SW26*
X237489000Y-84221000D02*
X237489000Y-91221000D01*
X237239000Y-91471000D02*
X228239000Y-91471000D01*
X227989000Y-91221000D02*
X227989000Y-84221000D01*
X228239000Y-83971000D02*
X237239000Y-83971000D01*
X227989000Y-91471000D02*
X228239000Y-91471000D01*
X227989000Y-91221000D02*
X227989000Y-91471000D01*
X227989000Y-83971000D02*
X228239000Y-83971000D01*
X227989000Y-84221000D02*
X227989000Y-83971000D01*
X237489000Y-83971000D02*
X237489000Y-84221000D01*
X237239000Y-83971000D02*
X237489000Y-83971000D01*
X237489000Y-91471000D02*
X237489000Y-91221000D01*
X237239000Y-91471000D02*
X237489000Y-91471000D01*
G04 #@! TD*
M02*
