G04 #@! TF.GenerationSoftware,KiCad,Pcbnew,(5.1.4)-1*
G04 #@! TF.CreationDate,2019-08-18T12:41:48-04:00*
G04 #@! TF.ProjectId,A-10C-UFC,412d3130-432d-4554-9643-2e6b69636164,1.2*
G04 #@! TF.SameCoordinates,Original*
G04 #@! TF.FileFunction,Copper,L1,Top*
G04 #@! TF.FilePolarity,Positive*
%FSLAX46Y46*%
G04 Gerber Fmt 4.6, Leading zero omitted, Abs format (unit mm)*
G04 Created by KiCad (PCBNEW (5.1.4)-1) date 2019-08-18 12:41:48*
%MOMM*%
%LPD*%
G04 APERTURE LIST*
%ADD10C,2.000000*%
%ADD11R,1.800000X1.800000*%
%ADD12C,1.800000*%
%ADD13R,1.700000X1.700000*%
%ADD14O,1.700000X1.700000*%
%ADD15C,1.600000*%
%ADD16O,1.600000X1.600000*%
%ADD17C,0.100000*%
%ADD18C,1.700000*%
%ADD19O,1.700000X2.000000*%
%ADD20C,0.800000*%
%ADD21C,0.300000*%
G04 APERTURE END LIST*
D10*
X307998000Y-95123000D03*
X307998000Y-99623000D03*
X301498000Y-95123000D03*
X301498000Y-99623000D03*
X307998000Y-81280000D03*
X307998000Y-85780000D03*
X301498000Y-81280000D03*
X301498000Y-85780000D03*
X288186000Y-85725000D03*
X288186000Y-90225000D03*
X281686000Y-85725000D03*
X281686000Y-90225000D03*
X288186000Y-71882000D03*
X288186000Y-76382000D03*
X281686000Y-71882000D03*
X281686000Y-76382000D03*
X281836000Y-103759000D03*
X281836000Y-108259000D03*
X275336000Y-103759000D03*
X275336000Y-108259000D03*
X269136000Y-103759000D03*
X269136000Y-108259000D03*
X262636000Y-103759000D03*
X262636000Y-108259000D03*
X262786000Y-85725000D03*
X262786000Y-90225000D03*
X256286000Y-85725000D03*
X256286000Y-90225000D03*
X262786000Y-71882000D03*
X262786000Y-76382000D03*
X256286000Y-71882000D03*
X256286000Y-76382000D03*
X235989000Y-103124000D03*
X235989000Y-107624000D03*
X229489000Y-103124000D03*
X229489000Y-107624000D03*
X235989000Y-85471000D03*
X235989000Y-89971000D03*
X229489000Y-85471000D03*
X229489000Y-89971000D03*
X219352000Y-103124000D03*
X219352000Y-107624000D03*
X212852000Y-103124000D03*
X212852000Y-107624000D03*
X219479000Y-85471000D03*
X219479000Y-89971000D03*
X212979000Y-85471000D03*
X212979000Y-89971000D03*
X215415000Y-68961000D03*
X215415000Y-73461000D03*
X208915000Y-68961000D03*
X208915000Y-73461000D03*
X202842000Y-103124000D03*
X202842000Y-107624000D03*
X196342000Y-103124000D03*
X196342000Y-107624000D03*
X202842000Y-85471000D03*
X202842000Y-89971000D03*
X196342000Y-85471000D03*
X196342000Y-89971000D03*
X177442000Y-103378000D03*
X177442000Y-107878000D03*
X170942000Y-103378000D03*
X170942000Y-107878000D03*
X177569000Y-85471000D03*
X177569000Y-89971000D03*
X171069000Y-85471000D03*
X171069000Y-89971000D03*
X181252000Y-68326000D03*
X181252000Y-72826000D03*
X174752000Y-68326000D03*
X174752000Y-72826000D03*
X161186000Y-103378000D03*
X161186000Y-107878000D03*
X154686000Y-103378000D03*
X154686000Y-107878000D03*
X160678000Y-85725000D03*
X160678000Y-90225000D03*
X154178000Y-85725000D03*
X154178000Y-90225000D03*
X160551000Y-68453000D03*
X160551000Y-72953000D03*
X154051000Y-68453000D03*
X154051000Y-72953000D03*
X144295000Y-103378000D03*
X144295000Y-107878000D03*
X137795000Y-103378000D03*
X137795000Y-107878000D03*
X144549000Y-85725000D03*
X144549000Y-90225000D03*
X138049000Y-85725000D03*
X138049000Y-90225000D03*
X144549000Y-68453000D03*
X144549000Y-72953000D03*
X138049000Y-68453000D03*
X138049000Y-72953000D03*
X127912000Y-103378000D03*
X127912000Y-107878000D03*
X121412000Y-103378000D03*
X121412000Y-107878000D03*
X128166000Y-85725000D03*
X128166000Y-90225000D03*
X121666000Y-85725000D03*
X121666000Y-90225000D03*
X128039000Y-68453000D03*
X128039000Y-72953000D03*
X121539000Y-68453000D03*
X121539000Y-72953000D03*
X111402000Y-103378000D03*
X111402000Y-107878000D03*
X104902000Y-103378000D03*
X104902000Y-107878000D03*
X111529000Y-85725000D03*
X111529000Y-90225000D03*
X105029000Y-85725000D03*
X105029000Y-90225000D03*
X111402000Y-68453000D03*
X111402000Y-72953000D03*
X104902000Y-68453000D03*
X104902000Y-72953000D03*
X95146000Y-103378000D03*
X95146000Y-107878000D03*
X88646000Y-103378000D03*
X88646000Y-107878000D03*
X95146000Y-85725000D03*
X95146000Y-90225000D03*
X88646000Y-85725000D03*
X88646000Y-90225000D03*
X95019000Y-68453000D03*
X95019000Y-72953000D03*
X88519000Y-68453000D03*
X88519000Y-72953000D03*
X77239000Y-95123000D03*
X77239000Y-99623000D03*
X70739000Y-95123000D03*
X70739000Y-99623000D03*
X77239000Y-81280000D03*
X77239000Y-85780000D03*
X70739000Y-81280000D03*
X70739000Y-85780000D03*
D11*
X222250000Y-69850000D03*
D12*
X222250000Y-72390000D03*
D13*
X276047000Y-115062000D03*
D14*
X278587000Y-115062000D03*
X281127000Y-115062000D03*
X283667000Y-115062000D03*
X286207000Y-115062000D03*
X288747000Y-115062000D03*
X291287000Y-115062000D03*
X293827000Y-115062000D03*
X296367000Y-115062000D03*
X298907000Y-115062000D03*
D13*
X254203000Y-67106800D03*
D14*
X256743000Y-67106800D03*
X259283000Y-67106800D03*
X261823000Y-67106800D03*
X264363000Y-67106800D03*
X266903000Y-67106800D03*
D15*
X229616000Y-67691000D03*
D16*
X229616000Y-75311000D03*
D13*
X254203000Y-115062000D03*
D14*
X256743000Y-115062000D03*
X259283000Y-115062000D03*
X261823000Y-115062000D03*
X264363000Y-115062000D03*
X266903000Y-115062000D03*
X269443000Y-115062000D03*
X271983000Y-115062000D03*
X244043000Y-80391000D03*
X241503000Y-80391000D03*
X238963000Y-80391000D03*
X236423000Y-80391000D03*
X233883000Y-80391000D03*
X231343000Y-80391000D03*
X228803000Y-80391000D03*
X226263000Y-80391000D03*
X223723000Y-80391000D03*
X221183000Y-80391000D03*
X218643000Y-80391000D03*
X216103000Y-80391000D03*
X213563000Y-80391000D03*
X211023000Y-80391000D03*
D13*
X208483000Y-80391000D03*
X208483000Y-95631000D03*
D14*
X211023000Y-95631000D03*
X213563000Y-95631000D03*
X216103000Y-95631000D03*
X218643000Y-95631000D03*
X221183000Y-95631000D03*
X223723000Y-95631000D03*
X226263000Y-95631000D03*
X228803000Y-95631000D03*
X231343000Y-95631000D03*
X233883000Y-95631000D03*
X236423000Y-95631000D03*
X238963000Y-95631000D03*
X241503000Y-95631000D03*
X244043000Y-95631000D03*
D13*
X271983000Y-67106800D03*
D14*
X274523000Y-67106800D03*
X277063000Y-67106800D03*
X279603000Y-67106800D03*
X282143000Y-67106800D03*
X284683000Y-67106800D03*
X287223000Y-67106800D03*
X289763000Y-67106800D03*
D17*
G36*
X244210504Y-66057204D02*
G01*
X244234773Y-66060804D01*
X244258571Y-66066765D01*
X244281671Y-66075030D01*
X244303849Y-66085520D01*
X244324893Y-66098133D01*
X244344598Y-66112747D01*
X244362777Y-66129223D01*
X244379253Y-66147402D01*
X244393867Y-66167107D01*
X244406480Y-66188151D01*
X244416970Y-66210329D01*
X244425235Y-66233429D01*
X244431196Y-66257227D01*
X244434796Y-66281496D01*
X244436000Y-66306000D01*
X244436000Y-67806000D01*
X244434796Y-67830504D01*
X244431196Y-67854773D01*
X244425235Y-67878571D01*
X244416970Y-67901671D01*
X244406480Y-67923849D01*
X244393867Y-67944893D01*
X244379253Y-67964598D01*
X244362777Y-67982777D01*
X244344598Y-67999253D01*
X244324893Y-68013867D01*
X244303849Y-68026480D01*
X244281671Y-68036970D01*
X244258571Y-68045235D01*
X244234773Y-68051196D01*
X244210504Y-68054796D01*
X244186000Y-68056000D01*
X242986000Y-68056000D01*
X242961496Y-68054796D01*
X242937227Y-68051196D01*
X242913429Y-68045235D01*
X242890329Y-68036970D01*
X242868151Y-68026480D01*
X242847107Y-68013867D01*
X242827402Y-67999253D01*
X242809223Y-67982777D01*
X242792747Y-67964598D01*
X242778133Y-67944893D01*
X242765520Y-67923849D01*
X242755030Y-67901671D01*
X242746765Y-67878571D01*
X242740804Y-67854773D01*
X242737204Y-67830504D01*
X242736000Y-67806000D01*
X242736000Y-66306000D01*
X242737204Y-66281496D01*
X242740804Y-66257227D01*
X242746765Y-66233429D01*
X242755030Y-66210329D01*
X242765520Y-66188151D01*
X242778133Y-66167107D01*
X242792747Y-66147402D01*
X242809223Y-66129223D01*
X242827402Y-66112747D01*
X242847107Y-66098133D01*
X242868151Y-66085520D01*
X242890329Y-66075030D01*
X242913429Y-66066765D01*
X242937227Y-66060804D01*
X242961496Y-66057204D01*
X242986000Y-66056000D01*
X244186000Y-66056000D01*
X244210504Y-66057204D01*
X244210504Y-66057204D01*
G37*
D18*
X243586000Y-67056000D03*
D19*
X246086000Y-67056000D03*
X237196000Y-67056000D03*
D17*
G36*
X235320504Y-66057204D02*
G01*
X235344773Y-66060804D01*
X235368571Y-66066765D01*
X235391671Y-66075030D01*
X235413849Y-66085520D01*
X235434893Y-66098133D01*
X235454598Y-66112747D01*
X235472777Y-66129223D01*
X235489253Y-66147402D01*
X235503867Y-66167107D01*
X235516480Y-66188151D01*
X235526970Y-66210329D01*
X235535235Y-66233429D01*
X235541196Y-66257227D01*
X235544796Y-66281496D01*
X235546000Y-66306000D01*
X235546000Y-67806000D01*
X235544796Y-67830504D01*
X235541196Y-67854773D01*
X235535235Y-67878571D01*
X235526970Y-67901671D01*
X235516480Y-67923849D01*
X235503867Y-67944893D01*
X235489253Y-67964598D01*
X235472777Y-67982777D01*
X235454598Y-67999253D01*
X235434893Y-68013867D01*
X235413849Y-68026480D01*
X235391671Y-68036970D01*
X235368571Y-68045235D01*
X235344773Y-68051196D01*
X235320504Y-68054796D01*
X235296000Y-68056000D01*
X234096000Y-68056000D01*
X234071496Y-68054796D01*
X234047227Y-68051196D01*
X234023429Y-68045235D01*
X234000329Y-68036970D01*
X233978151Y-68026480D01*
X233957107Y-68013867D01*
X233937402Y-67999253D01*
X233919223Y-67982777D01*
X233902747Y-67964598D01*
X233888133Y-67944893D01*
X233875520Y-67923849D01*
X233865030Y-67901671D01*
X233856765Y-67878571D01*
X233850804Y-67854773D01*
X233847204Y-67830504D01*
X233846000Y-67806000D01*
X233846000Y-66306000D01*
X233847204Y-66281496D01*
X233850804Y-66257227D01*
X233856765Y-66233429D01*
X233865030Y-66210329D01*
X233875520Y-66188151D01*
X233888133Y-66167107D01*
X233902747Y-66147402D01*
X233919223Y-66129223D01*
X233937402Y-66112747D01*
X233957107Y-66098133D01*
X233978151Y-66085520D01*
X234000329Y-66075030D01*
X234023429Y-66066765D01*
X234047227Y-66060804D01*
X234071496Y-66057204D01*
X234096000Y-66056000D01*
X235296000Y-66056000D01*
X235320504Y-66057204D01*
X235320504Y-66057204D01*
G37*
D18*
X234696000Y-67056000D03*
D20*
X177892800Y-80083700D03*
X245595900Y-83422800D03*
X244694500Y-82744700D03*
X245654200Y-81679800D03*
D21*
X229616000Y-75311000D02*
X223331800Y-75311000D01*
X223331800Y-75311000D02*
X220999700Y-72978900D01*
X220999700Y-72978900D02*
X220999700Y-71803500D01*
X220999700Y-71803500D02*
X221702900Y-71100300D01*
X221702900Y-71100300D02*
X222250000Y-71100300D01*
X222250000Y-69850000D02*
X222250000Y-71100300D01*
X244043000Y-80391000D02*
X242842700Y-80391000D01*
X242842700Y-80391000D02*
X242842700Y-80015900D01*
X242842700Y-80015900D02*
X235472000Y-72645200D01*
X235472000Y-72645200D02*
X222505100Y-72645200D01*
X222505100Y-72645200D02*
X222505100Y-72645100D01*
X222505100Y-72645100D02*
X222250000Y-72390000D01*
X138049000Y-85725000D02*
X136697100Y-84373100D01*
X136697100Y-84373100D02*
X112880900Y-84373100D01*
X112880900Y-84373100D02*
X111529000Y-85725000D01*
X144549000Y-85725000D02*
X138049000Y-85725000D01*
X77239000Y-81280000D02*
X70739000Y-81280000D01*
X105029000Y-85725000D02*
X100584000Y-81280000D01*
X100584000Y-81280000D02*
X77239000Y-81280000D01*
X177569000Y-85471000D02*
X171069000Y-85471000D01*
X171069000Y-85471000D02*
X169970900Y-84372900D01*
X169970900Y-84372900D02*
X145901100Y-84372900D01*
X145901100Y-84372900D02*
X144549000Y-85725000D01*
X281836000Y-103759000D02*
X275336000Y-103759000D01*
X237623300Y-95631000D02*
X237623300Y-96006200D01*
X237623300Y-96006200D02*
X238448400Y-96831300D01*
X238448400Y-96831300D02*
X268408300Y-96831300D01*
X268408300Y-96831300D02*
X275336000Y-103759000D01*
X236423000Y-95631000D02*
X237623300Y-95631000D01*
X212852000Y-103124000D02*
X219352000Y-103124000D01*
X105029000Y-85725000D02*
X111529000Y-85725000D01*
X281686000Y-71882000D02*
X288186000Y-71882000D01*
X265563300Y-67106800D02*
X265563300Y-67479900D01*
X265563300Y-67479900D02*
X269965400Y-71882000D01*
X269965400Y-71882000D02*
X281686000Y-71882000D01*
X229489000Y-85471000D02*
X235989000Y-85471000D01*
X264363000Y-67106800D02*
X265563300Y-67106800D01*
X170942000Y-103378000D02*
X177442000Y-103378000D01*
X137795000Y-103378000D02*
X144295000Y-103378000D01*
X104902000Y-103378000D02*
X111402000Y-103378000D01*
X70739000Y-95123000D02*
X77239000Y-95123000D01*
X281686000Y-85725000D02*
X288186000Y-85725000D01*
X227594200Y-88157200D02*
X279253800Y-88157200D01*
X279253800Y-88157200D02*
X281686000Y-85725000D01*
X227594200Y-88157200D02*
X225208900Y-88157200D01*
X225208900Y-88157200D02*
X218643000Y-81591300D01*
X227594200Y-88157200D02*
X227594200Y-101229200D01*
X227594200Y-101229200D02*
X229489000Y-103124000D01*
X229489000Y-103124000D02*
X235989000Y-103124000D01*
X218643000Y-80391000D02*
X218643000Y-81591300D01*
X218643000Y-80391000D02*
X217442700Y-80391000D01*
X217442700Y-80391000D02*
X217442700Y-80766200D01*
X217442700Y-80766200D02*
X216617600Y-81591300D01*
X216617600Y-81591300D02*
X206721700Y-81591300D01*
X206721700Y-81591300D02*
X202842000Y-85471000D01*
X196342000Y-85471000D02*
X190954700Y-80083700D01*
X190954700Y-80083700D02*
X177892800Y-80083700D01*
X202842000Y-85471000D02*
X196342000Y-85471000D01*
X121539000Y-68453000D02*
X120184800Y-67098800D01*
X120184800Y-67098800D02*
X96373200Y-67098800D01*
X96373200Y-67098800D02*
X95019000Y-68453000D01*
X128039000Y-68453000D02*
X121539000Y-68453000D01*
X154051000Y-68453000D02*
X160551000Y-68453000D01*
X88519000Y-68453000D02*
X95019000Y-68453000D01*
X265935600Y-81280000D02*
X265935600Y-75031600D01*
X265935600Y-75031600D02*
X262786000Y-71882000D01*
X222383300Y-80391000D02*
X222383300Y-80764100D01*
X222383300Y-80764100D02*
X228694600Y-87075400D01*
X228694600Y-87075400D02*
X263392100Y-87075400D01*
X263392100Y-87075400D02*
X265935600Y-84531900D01*
X265935600Y-84531900D02*
X265935600Y-81280000D01*
X265935600Y-81280000D02*
X301498000Y-81280000D01*
X301498000Y-81280000D02*
X307998000Y-81280000D01*
X221183000Y-80391000D02*
X222383300Y-80391000D01*
X196342000Y-103124000D02*
X194486700Y-101268700D01*
X194486700Y-101268700D02*
X176221700Y-101268700D01*
X176221700Y-101268700D02*
X160678000Y-85725000D01*
X196342000Y-103124000D02*
X202842000Y-103124000D01*
X154178000Y-85725000D02*
X160678000Y-85725000D01*
X128166000Y-85725000D02*
X129572200Y-87131200D01*
X129572200Y-87131200D02*
X152771800Y-87131200D01*
X152771800Y-87131200D02*
X154178000Y-85725000D01*
X88646000Y-85725000D02*
X95146000Y-85725000D01*
X224923300Y-80391000D02*
X224923300Y-80766100D01*
X224923300Y-80766100D02*
X228168200Y-84011000D01*
X228168200Y-84011000D02*
X245123100Y-84011000D01*
X245123100Y-84011000D02*
X245285200Y-84173100D01*
X245285200Y-84173100D02*
X246068300Y-84173100D01*
X246068300Y-84173100D02*
X246689600Y-83551800D01*
X246689600Y-83551800D02*
X246689600Y-81339200D01*
X246689600Y-81339200D02*
X235452200Y-70101800D01*
X235452200Y-70101800D02*
X224893000Y-70101800D01*
X224893000Y-70101800D02*
X223376800Y-68585600D01*
X223376800Y-68585600D02*
X215790400Y-68585600D01*
X215790400Y-68585600D02*
X215415000Y-68961000D01*
X246689600Y-83551800D02*
X254112800Y-83551800D01*
X254112800Y-83551800D02*
X256286000Y-85725000D01*
X223723000Y-80391000D02*
X224923300Y-80391000D01*
X264363000Y-115062000D02*
X265563300Y-115062000D01*
X265563300Y-115062000D02*
X265563300Y-115437100D01*
X265563300Y-115437100D02*
X266396600Y-116270400D01*
X266396600Y-116270400D02*
X281630000Y-116270400D01*
X281630000Y-116270400D02*
X282327400Y-115573000D01*
X282327400Y-115573000D02*
X282327400Y-114293600D01*
X282327400Y-114293600D02*
X301498000Y-95123000D01*
X301498000Y-95123000D02*
X307998000Y-95123000D01*
X256286000Y-85725000D02*
X262786000Y-85725000D01*
X208915000Y-68961000D02*
X215415000Y-68961000D01*
X154686000Y-103378000D02*
X161186000Y-103378000D01*
X127912000Y-103378000D02*
X129318200Y-104784200D01*
X129318200Y-104784200D02*
X153279800Y-104784200D01*
X153279800Y-104784200D02*
X154686000Y-103378000D01*
X121412000Y-103378000D02*
X127912000Y-103378000D01*
X88646000Y-103378000D02*
X95146000Y-103378000D01*
X227463300Y-80391000D02*
X227463300Y-80766100D01*
X227463300Y-80766100D02*
X230192200Y-83495000D01*
X230192200Y-83495000D02*
X245523700Y-83495000D01*
X245523700Y-83495000D02*
X245595900Y-83422800D01*
X226263000Y-80391000D02*
X227463300Y-80391000D01*
X174752000Y-68326000D02*
X181252000Y-68326000D01*
X174752000Y-68326000D02*
X173461300Y-67035300D01*
X173461300Y-67035300D02*
X145966700Y-67035300D01*
X145966700Y-67035300D02*
X144549000Y-68453000D01*
X144549000Y-68453000D02*
X138049000Y-68453000D01*
X262636000Y-103759000D02*
X269136000Y-103759000D01*
X212979000Y-85471000D02*
X219479000Y-85471000D01*
X104902000Y-68453000D02*
X111402000Y-68453000D01*
X228803000Y-80391000D02*
X231156700Y-82744700D01*
X231156700Y-82744700D02*
X244694500Y-82744700D01*
X111402000Y-72953000D02*
X117551500Y-79102500D01*
X117551500Y-79102500D02*
X227514500Y-79102500D01*
X227514500Y-79102500D02*
X228803000Y-80391000D01*
X104902000Y-72953000D02*
X111402000Y-72953000D01*
X70739000Y-99623000D02*
X77239000Y-99623000D01*
X95019000Y-72953000D02*
X104902000Y-72953000D01*
X88646000Y-107878000D02*
X95146000Y-107878000D01*
X88646000Y-90225000D02*
X95146000Y-90225000D01*
X88519000Y-72953000D02*
X95019000Y-72953000D01*
X70739000Y-85780000D02*
X77239000Y-85780000D01*
X144549000Y-72953000D02*
X149818500Y-78222500D01*
X149818500Y-78222500D02*
X228349300Y-78222500D01*
X228349300Y-78222500D02*
X230142700Y-80015900D01*
X230142700Y-80015900D02*
X230142700Y-80391000D01*
X231343000Y-80391000D02*
X230142700Y-80391000D01*
X245654200Y-81679800D02*
X232631800Y-81679800D01*
X232631800Y-81679800D02*
X231343000Y-80391000D01*
X138049000Y-72953000D02*
X144549000Y-72953000D01*
X116407000Y-102873000D02*
X121412000Y-107878000D01*
X116407000Y-90225000D02*
X116407000Y-102873000D01*
X111402000Y-107878000D02*
X116407000Y-102873000D01*
X116407000Y-90225000D02*
X111529000Y-90225000D01*
X121666000Y-90225000D02*
X116407000Y-90225000D01*
X128166000Y-90225000D02*
X121666000Y-90225000D01*
X104902000Y-107878000D02*
X111402000Y-107878000D01*
X121412000Y-107878000D02*
X127912000Y-107878000D01*
X121539000Y-72953000D02*
X128039000Y-72953000D01*
X105029000Y-90225000D02*
X111529000Y-90225000D01*
X161186000Y-107878000D02*
X167169700Y-113861700D01*
X167169700Y-113861700D02*
X273646400Y-113861700D01*
X273646400Y-113861700D02*
X274846700Y-115062000D01*
X181252000Y-72826000D02*
X185647900Y-77221900D01*
X185647900Y-77221900D02*
X229888700Y-77221900D01*
X229888700Y-77221900D02*
X232682700Y-80015900D01*
X232682700Y-80015900D02*
X232682700Y-80391000D01*
X233883000Y-80391000D02*
X232682700Y-80391000D01*
X174752000Y-72826000D02*
X181252000Y-72826000D01*
X160551000Y-72953000D02*
X174625000Y-72953000D01*
X174625000Y-72953000D02*
X174752000Y-72826000D01*
X154686000Y-107878000D02*
X161186000Y-107878000D01*
X144295000Y-107878000D02*
X154686000Y-107878000D01*
X144549000Y-90225000D02*
X154178000Y-90225000D01*
X276047000Y-115062000D02*
X274846700Y-115062000D01*
X278587000Y-115062000D02*
X277386700Y-115062000D01*
X204234600Y-106231400D02*
X202842000Y-107624000D01*
X204234600Y-89971000D02*
X204234600Y-106231400D01*
X277386700Y-115062000D02*
X277386700Y-114161800D01*
X277386700Y-114161800D02*
X276186800Y-112961900D01*
X276186800Y-112961900D02*
X210965100Y-112961900D01*
X210965100Y-112961900D02*
X204234600Y-106231400D01*
X204234600Y-89971000D02*
X212979000Y-89971000D01*
X202842000Y-89971000D02*
X204234600Y-89971000D01*
X196342000Y-107624000D02*
X196088000Y-107878000D01*
X196088000Y-107878000D02*
X177442000Y-107878000D01*
X212979000Y-89971000D02*
X219479000Y-89971000D01*
X208915000Y-73461000D02*
X215415000Y-73461000D01*
X196342000Y-107624000D02*
X202842000Y-107624000D01*
X196342000Y-89971000D02*
X202842000Y-89971000D01*
X256286000Y-90225000D02*
X262786000Y-90225000D01*
X235989000Y-89971000D02*
X256032000Y-89971000D01*
X256032000Y-89971000D02*
X256286000Y-90225000D01*
X219352000Y-107624000D02*
X212852000Y-107624000D01*
X229489000Y-107624000D02*
X219352000Y-107624000D01*
X235205200Y-89971000D02*
X235989000Y-89971000D01*
X279926700Y-115062000D02*
X279926700Y-114689000D01*
X279926700Y-114689000D02*
X276896100Y-111658400D01*
X276896100Y-111658400D02*
X272535400Y-111658400D01*
X272535400Y-111658400D02*
X269136000Y-108259000D01*
X237367400Y-106245600D02*
X235989000Y-107624000D01*
X235205200Y-89971000D02*
X235205200Y-99060900D01*
X235205200Y-99060900D02*
X237367400Y-101223100D01*
X237367400Y-101223100D02*
X237367400Y-106245600D01*
X262636000Y-108259000D02*
X239380800Y-108259000D01*
X239380800Y-108259000D02*
X237367400Y-106245600D01*
X269136000Y-108259000D02*
X262636000Y-108259000D01*
X229489000Y-89971000D02*
X235205200Y-89971000D01*
X235989000Y-107624000D02*
X229489000Y-107624000D01*
X281127000Y-115062000D02*
X279926700Y-115062000D01*
X301498000Y-85780000D02*
X307998000Y-85780000D01*
X288186000Y-90225000D02*
X297053000Y-90225000D01*
X297053000Y-90225000D02*
X301498000Y-85780000D01*
X281836000Y-108259000D02*
X275336000Y-108259000D01*
X283192200Y-90225000D02*
X283192200Y-106902800D01*
X283192200Y-106902800D02*
X281836000Y-108259000D01*
X283192200Y-90225000D02*
X281686000Y-90225000D01*
X288186000Y-90225000D02*
X283192200Y-90225000D01*
X301498000Y-99623000D02*
X307998000Y-99623000D01*
X281686000Y-76382000D02*
X288186000Y-76382000D01*
X284683000Y-67106800D02*
X283482700Y-67106800D01*
X283482700Y-67106800D02*
X283482700Y-66731700D01*
X283482700Y-66731700D02*
X282425700Y-65674700D01*
X282425700Y-65674700D02*
X244967300Y-65674700D01*
X244967300Y-65674700D02*
X243586000Y-67056000D01*
X234696000Y-67056000D02*
X236084600Y-68444600D01*
X236084600Y-68444600D02*
X257117900Y-68444600D01*
X257117900Y-68444600D02*
X258082700Y-67479800D01*
X258082700Y-67479800D02*
X258082700Y-67106800D01*
X259283000Y-67106800D02*
X258082700Y-67106800D01*
M02*
