M48
;DRILL file {KiCad (5.0.2)-1} date 8/2/2019 7:21:14 PM
;FORMAT={-:-/ absolute / inch / decimal}
FMAT,2
INCH,TZ
T1C0.0315
T2C0.0354
T3C0.0394
T4C0.0433
%
G90
G05
T1
X9.035Y-2.655
X9.035Y-2.955
T2
X8.75Y-2.75
X8.75Y-2.85
T3
X8.5Y-3.735
X8.6Y-3.735
X8.7Y-3.735
X8.8Y-3.735
X8.9Y-3.735
X9.Y-3.735
X9.1Y-3.735
X9.2Y-3.735
X9.3Y-3.735
X9.4Y-3.735
X9.5Y-3.735
X9.6Y-3.735
X9.7Y-3.735
X9.8Y-3.735
X9.9Y-3.735
X10.3Y-2.612
X10.4Y-2.612
X10.5Y-2.612
X10.6Y-2.612
X10.7Y-2.612
X10.8Y-2.612
X11.16Y-4.5
X11.26Y-4.5
X11.36Y-4.5
X11.46Y-4.5
X11.56Y-4.5
X11.66Y-4.5
X11.76Y-4.5
X11.86Y-4.5
X11.96Y-4.5
X12.06Y-4.5
X8.5Y-3.134
X8.6Y-3.134
X8.7Y-3.134
X8.8Y-3.134
X8.9Y-3.134
X9.Y-3.134
X9.1Y-3.134
X9.2Y-3.134
X9.3Y-3.134
X9.4Y-3.134
X9.5Y-3.134
X9.6Y-3.134
X9.7Y-3.134
X9.8Y-3.134
X9.9Y-3.134
X10.3Y-4.5
X10.4Y-4.5
X10.5Y-4.5
X10.6Y-4.5
X10.7Y-4.5
X10.8Y-4.5
X10.9Y-4.5
X11.Y-4.5
T4
X3.49Y-3.375
X3.49Y-3.5522
X3.7459Y-3.375
X3.7459Y-3.5522
X6.735Y-3.365
X6.735Y-3.5422
X6.9909Y-3.365
X6.9909Y-3.5422
X6.07Y-3.375
X6.07Y-3.5522
X6.3259Y-3.375
X6.3259Y-3.5522
X10.84Y-4.085
X10.84Y-4.2622
X11.0959Y-4.085
X11.0959Y-4.2622
X4.13Y-2.695
X4.13Y-2.8722
X4.3859Y-2.695
X4.3859Y-2.8722
X10.34Y-4.085
X10.34Y-4.2622
X10.5959Y-4.085
X10.5959Y-4.2622
X11.09Y-3.375
X11.09Y-3.5522
X11.3459Y-3.375
X11.3459Y-3.5522
X3.49Y-4.07
X3.49Y-4.2472
X3.7459Y-4.07
X3.7459Y-4.2472
X4.785Y-2.695
X4.785Y-2.8722
X5.0409Y-2.695
X5.0409Y-2.8722
X6.88Y-2.69
X6.88Y-2.8672
X7.1359Y-2.69
X7.1359Y-2.8672
X8.225Y-2.715
X8.225Y-2.8922
X8.4809Y-2.715
X8.4809Y-2.8922
X4.79Y-3.375
X4.79Y-3.5522
X5.0459Y-3.375
X5.0459Y-3.5522
X4.135Y-3.375
X4.135Y-3.5522
X4.3909Y-3.375
X4.3909Y-3.5522
X10.09Y-3.375
X10.09Y-3.5522
X10.3459Y-3.375
X10.3459Y-3.5522
X11.09Y-2.83
X11.09Y-3.0072
X11.3459Y-2.83
X11.3459Y-3.0072
X8.38Y-4.06
X8.38Y-4.2372
X8.6359Y-4.06
X8.6359Y-4.2372
X4.78Y-4.07
X4.78Y-4.2472
X5.0359Y-4.07
X5.0359Y-4.2472
X7.73Y-3.365
X7.73Y-3.5422
X7.9859Y-3.365
X7.9859Y-3.5422
X9.035Y-3.365
X9.035Y-3.5422
X9.2909Y-3.365
X9.2909Y-3.5422
X6.065Y-2.695
X6.065Y-2.8722
X6.3209Y-2.695
X6.3209Y-2.8722
X8.385Y-3.365
X8.385Y-3.5422
X8.6409Y-3.365
X8.6409Y-3.5422
X9.035Y-4.06
X9.035Y-4.2372
X9.2909Y-4.06
X9.2909Y-4.2372
X2.785Y-3.2
X2.785Y-3.3772
X3.0409Y-3.2
X3.0409Y-3.3772
X5.435Y-2.695
X5.435Y-2.8722
X5.6909Y-2.695
X5.6909Y-2.8722
X4.13Y-4.07
X4.13Y-4.2472
X4.3859Y-4.07
X4.3859Y-4.2472
X7.73Y-4.06
X7.73Y-4.2372
X7.9859Y-4.06
X7.9859Y-4.2372
X10.09Y-2.83
X10.09Y-3.0072
X10.3459Y-2.83
X10.3459Y-3.0072
X11.87Y-3.2
X11.87Y-3.3772
X12.1259Y-3.2
X12.1259Y-3.3772
X6.09Y-4.07
X6.09Y-4.2472
X6.3459Y-4.07
X6.3459Y-4.2472
X2.785Y-3.745
X2.785Y-3.9222
X3.0409Y-3.745
X3.0409Y-3.9222
X3.485Y-2.695
X3.485Y-2.8722
X3.7409Y-2.695
X3.7409Y-2.8722
X6.73Y-4.07
X6.73Y-4.2472
X6.9859Y-4.07
X6.9859Y-4.2472
X11.87Y-3.745
X11.87Y-3.9222
X12.1259Y-3.745
X12.1259Y-3.9222
X5.425Y-4.07
X5.425Y-4.2472
X5.6809Y-4.07
X5.6809Y-4.2472
X5.435Y-3.375
X5.435Y-3.5522
X5.6909Y-3.375
X5.6909Y-3.5522
T0
M30
