G04 #@! TF.GenerationSoftware,KiCad,Pcbnew,(5.1.4)-1*
G04 #@! TF.CreationDate,2019-08-18T12:41:48-04:00*
G04 #@! TF.ProjectId,A-10C-UFC,412d3130-432d-4554-9643-2e6b69636164,1.2*
G04 #@! TF.SameCoordinates,Original*
G04 #@! TF.FileFunction,Drawing*
%FSLAX46Y46*%
G04 Gerber Fmt 4.6, Leading zero omitted, Abs format (unit mm)*
G04 Created by KiCad (PCBNEW (5.1.4)-1) date 2019-08-18 12:41:48*
%MOMM*%
%LPD*%
G04 APERTURE LIST*
%ADD10C,0.200000*%
G04 APERTURE END LIST*
D10*
X106650940Y-80668000D02*
X106650940Y-78105000D01*
X145256270Y-95766000D02*
X146196040Y-95766000D01*
X145256270Y-98329000D02*
X145256270Y-95766000D01*
X94237863Y-80771528D02*
G75*
G02X93440483Y-80800006I-454304J1542948D01*
G01*
X169456040Y-76932000D02*
X185935040Y-76932000D01*
X169456040Y-76932000D02*
G75*
G02X167956040Y-75432000I0J1500000D01*
G01*
X167955540Y-83432000D02*
X167955540Y-92932000D01*
X167955540Y-83432000D02*
G75*
G02X169455540Y-81932000I1500000J0D01*
G01*
X178955540Y-81932000D02*
X169455540Y-81932000D01*
X178955540Y-81932000D02*
G75*
G02X180455540Y-83432000I0J-1500000D01*
G01*
X299923540Y-79556000D02*
G75*
G02X300923540Y-78556000I1000000J0D01*
G01*
X308423540Y-78556000D02*
X300923540Y-78556000D01*
X308423540Y-78556000D02*
G75*
G02X309423540Y-79556000I0J-1000000D01*
G01*
X309423540Y-101556000D02*
X309423540Y-79556000D01*
X296696270Y-80839000D02*
X297579080Y-80839000D01*
X251254275Y-82600333D02*
G75*
G02X252877502Y-82116213I877635J20693D01*
G01*
X251254270Y-83454670D02*
X251254270Y-82600330D01*
X296696270Y-97359500D02*
X297693000Y-97359500D01*
X297636040Y-97359500D02*
X296696270Y-97359500D01*
X297636040Y-96077999D02*
G75*
G02X297636040Y-97359501I0J-640751D01*
G01*
X296696270Y-96078000D02*
X297636040Y-96078000D01*
X124634530Y-115098630D02*
X125631250Y-115440370D01*
X124634531Y-115098641D02*
G75*
G02X124378229Y-114301258I166968J493551D01*
G01*
X136455540Y-111932000D02*
G75*
G02X134955540Y-110432000I0J1500000D01*
G01*
X134955540Y-83534000D02*
X134955540Y-93034000D01*
X134955540Y-83534000D02*
G75*
G02X136455540Y-82034000I1500000J0D01*
G01*
X145955540Y-82034000D02*
X136455540Y-82034000D01*
X145955540Y-82034000D02*
G75*
G02X147455540Y-83534000I0J-1500000D01*
G01*
X144102297Y-78400994D02*
G75*
G02X144500988Y-78657295I-142857J-660466D01*
G01*
X140343270Y-79255330D02*
X140343270Y-80109670D01*
X158371270Y-116245000D02*
X159795160Y-116245000D01*
X158371270Y-113682000D02*
X158371270Y-116245000D01*
X156692000Y-113682000D02*
X157688720Y-116245000D01*
X69122540Y-79556000D02*
X69122540Y-101556000D01*
X69122540Y-79556000D02*
G75*
G02X70122540Y-78556000I1000000J0D01*
G01*
X77622540Y-78556000D02*
X70122540Y-78556000D01*
X77622540Y-78556000D02*
G75*
G02X78622540Y-79556000I0J-1000000D01*
G01*
X88656530Y-79347630D02*
X89653250Y-79689370D01*
X104749270Y-95878000D02*
X104749270Y-98441000D01*
X178955540Y-99432000D02*
G75*
G02X180455540Y-100932000I0J-1500000D01*
G01*
X180455540Y-110432000D02*
X180455540Y-100932000D01*
X180455540Y-110432000D02*
G75*
G02X178955540Y-111932000I-1500000J0D01*
G01*
X169455540Y-111932000D02*
X178955540Y-111932000D01*
X169455540Y-111932000D02*
G75*
G02X167955540Y-110432000I0J1500000D01*
G01*
X134955540Y-66137000D02*
G75*
G02X136455540Y-64637000I1500000J0D01*
G01*
X145955540Y-64637000D02*
X136455540Y-64637000D01*
X145955540Y-64637000D02*
G75*
G02X147455540Y-66137000I0J-1500000D01*
G01*
X147455540Y-75637000D02*
X147455540Y-66137000D01*
X204455540Y-82034000D02*
X194955540Y-82034000D01*
X204455540Y-82034000D02*
G75*
G02X205955540Y-83534000I0J-1500000D01*
G01*
X205955540Y-93034000D02*
X205955540Y-83534000D01*
X205955540Y-93034000D02*
G75*
G02X204455540Y-94534000I-1500000J0D01*
G01*
X194955540Y-94534000D02*
X204455540Y-94534000D01*
X205955540Y-110432000D02*
G75*
G02X204455540Y-111932000I-1500000J0D01*
G01*
X194955540Y-111932000D02*
X204455540Y-111932000D01*
X194955540Y-111932000D02*
G75*
G02X193455540Y-110432000I0J1500000D01*
G01*
X193455540Y-83534000D02*
X193455540Y-93034000D01*
X193455540Y-83534000D02*
G75*
G02X194955540Y-82034000I1500000J0D01*
G01*
X109362270Y-95878000D02*
X110359000Y-97729060D01*
X109362270Y-98441000D02*
X109362270Y-95878000D01*
X175381080Y-98329000D02*
X174498270Y-98329000D01*
X176206937Y-97474669D02*
G75*
G02X175381083Y-98328999I-824427J-29381D01*
G01*
X176206940Y-96620330D02*
X176206940Y-97474670D01*
X194955540Y-94534000D02*
G75*
G02X193455540Y-93034000I0J1500000D01*
G01*
X163636540Y-71107000D02*
G75*
G03X163636540Y-71107000I-6250000J0D01*
G01*
X167955540Y-100932000D02*
X167955540Y-110432000D01*
X167955540Y-100932000D02*
G75*
G02X169455540Y-99432000I1500000J0D01*
G01*
X178955540Y-99432000D02*
X169455540Y-99432000D01*
X87221270Y-96824330D02*
X87221270Y-97678670D01*
X141796610Y-115269500D02*
X141796610Y-116551000D01*
X140942270Y-113988000D02*
X141796610Y-115269500D01*
X139263000Y-113988000D02*
X140259720Y-116551000D01*
X227955540Y-111932000D02*
G75*
G02X226455540Y-110432000I0J1500000D01*
G01*
X226455540Y-83534000D02*
X226455540Y-93034000D01*
X226455540Y-83534000D02*
G75*
G02X227955540Y-82034000I1500000J0D01*
G01*
X237455540Y-82034000D02*
X227955540Y-82034000D01*
X237455540Y-82034000D02*
G75*
G02X238955540Y-83534000I0J-1500000D01*
G01*
X220955540Y-82034000D02*
G75*
G02X222455540Y-83534000I0J-1500000D01*
G01*
X222455540Y-93034000D02*
X222455540Y-83534000D01*
X222455540Y-93034000D02*
G75*
G02X220955540Y-94534000I-1500000J0D01*
G01*
X211455540Y-94534000D02*
X220955540Y-94534000D01*
X211455540Y-94534000D02*
G75*
G02X209955540Y-93034000I0J1500000D01*
G01*
X120451270Y-98410000D02*
X120451270Y-95847000D01*
X126616040Y-79406500D02*
X125676270Y-79406500D01*
X93127232Y-78550262D02*
G75*
G02X93525920Y-78265485I618128J-443908D01*
G01*
X95504270Y-114050000D02*
X97212940Y-116613000D01*
X320602540Y-125496000D02*
X60252540Y-125496000D01*
X276618270Y-88424500D02*
X278099120Y-88424500D01*
X277419910Y-73860920D02*
X277419910Y-72380080D01*
X276679480Y-73120500D02*
X278160330Y-73120500D01*
X297693000Y-97359500D02*
X298262550Y-98641000D01*
X130955540Y-110432000D02*
G75*
G02X129455540Y-111932000I-1500000J0D01*
G01*
X119955540Y-111932000D02*
X129455540Y-111932000D01*
X119955540Y-111932000D02*
G75*
G02X118455540Y-110432000I0J1500000D01*
G01*
X118455540Y-83534000D02*
X118455540Y-93034000D01*
X283187540Y-101406000D02*
G75*
G02X284187540Y-102406000I0J-1000000D01*
G01*
X284187540Y-109906000D02*
X284187540Y-102406000D01*
X284187540Y-109906000D02*
G75*
G02X283187540Y-110906000I-1000000J0D01*
G01*
X280149540Y-70116000D02*
X280149540Y-92116000D01*
X268250270Y-99992000D02*
X268250270Y-97429000D01*
X267567270Y-97429000D02*
X267567270Y-99992000D01*
X177744610Y-95767000D02*
X177744610Y-98330000D01*
X151455540Y-100932000D02*
X151455540Y-110432000D01*
X151455540Y-100932000D02*
G75*
G02X152955540Y-99432000I1500000J0D01*
G01*
X162455540Y-99432000D02*
X152955540Y-99432000D01*
X162455540Y-99432000D02*
G75*
G02X163955540Y-100932000I0J-1500000D01*
G01*
X163955540Y-110432000D02*
X163955540Y-100932000D01*
X78622540Y-101556000D02*
X78622540Y-79556000D01*
X78622540Y-101556000D02*
G75*
G02X77622540Y-102556000I-1000000J0D01*
G01*
X70122540Y-102556000D02*
X77622540Y-102556000D01*
X70122540Y-102556000D02*
G75*
G02X69122540Y-101556000I0J1000000D01*
G01*
X316252540Y-119996000D02*
G75*
G03X316252540Y-119996000I-1500000J0D01*
G01*
X316252540Y-59996000D02*
G75*
G03X316252540Y-59996000I-1500000J0D01*
G01*
X67252540Y-119996000D02*
G75*
G03X67252540Y-119996000I-1500000J0D01*
G01*
X67252540Y-59996000D02*
G75*
G03X67252540Y-59996000I-1500000J0D01*
G01*
X188579540Y-88868000D02*
G75*
G03X188579540Y-88868000I-1500000J0D01*
G01*
X136200916Y-95794472D02*
G75*
G02X136998296Y-95765995I454304J-1542948D01*
G01*
X136998297Y-95765994D02*
G75*
G02X137396988Y-96022295I-142857J-660466D01*
G01*
X146409610Y-113988000D02*
X146409610Y-116551000D01*
X147263940Y-113988000D02*
X146409610Y-113988000D01*
X145555270Y-113988000D02*
X147263940Y-113988000D01*
X89043850Y-97678670D02*
X89043850Y-96824330D01*
X140343270Y-79255330D02*
G75*
G02X142165850Y-79255330I911290J0D01*
G01*
X142165850Y-80109670D02*
X142165850Y-79255330D01*
X289649540Y-92116000D02*
G75*
G02X288649540Y-93116000I-1000000J0D01*
G01*
X281149540Y-93116000D02*
X288649540Y-93116000D01*
X281149540Y-93116000D02*
G75*
G02X280149540Y-92116000I0J1000000D01*
G01*
X254755540Y-70116000D02*
X254755540Y-92116000D01*
X110864610Y-80668000D02*
X111718940Y-78105000D01*
X298404937Y-82547669D02*
G75*
G02X297579083Y-83401999I-824427J-29381D01*
G01*
X298404940Y-81693330D02*
X298404940Y-82547670D01*
X297579087Y-80839001D02*
G75*
G02X298404940Y-81693332I-33167J-858389D01*
G01*
X88798916Y-78265472D02*
G75*
G02X89596296Y-78236995I454304J-1542948D01*
G01*
X296696270Y-87200500D02*
X298120160Y-87200500D01*
X296696270Y-83402000D02*
X296696270Y-80839000D01*
X297579080Y-83402000D02*
X296696270Y-83402000D01*
X90040530Y-97080630D02*
X91037250Y-97422370D01*
X118455540Y-66137000D02*
G75*
G02X119955540Y-64637000I1500000J0D01*
G01*
X129455540Y-64637000D02*
X119955540Y-64637000D01*
X129455540Y-64637000D02*
G75*
G02X130955540Y-66137000I0J-1500000D01*
G01*
X130955540Y-75637000D02*
X130955540Y-66137000D01*
X101955540Y-100932000D02*
G75*
G02X103455540Y-99432000I1500000J0D01*
G01*
X112955540Y-99432000D02*
X103455540Y-99432000D01*
X112955540Y-99432000D02*
G75*
G02X114455540Y-100932000I0J-1500000D01*
G01*
X114455540Y-110432000D02*
X114455540Y-100932000D01*
X143162530Y-79511630D02*
X144159250Y-79853370D01*
X143162532Y-79511642D02*
G75*
G02X142906229Y-78714258I166968J493552D01*
G01*
X138122270Y-80964000D02*
X138122270Y-78401000D01*
X128364940Y-116551000D02*
X128364940Y-113988000D01*
X209955540Y-100932000D02*
G75*
G02X211455540Y-99432000I1500000J0D01*
G01*
X220955540Y-99432000D02*
X211455540Y-99432000D01*
X220955540Y-99432000D02*
G75*
G02X222455540Y-100932000I0J-1500000D01*
G01*
X222455540Y-110432000D02*
X222455540Y-100932000D01*
X222455540Y-110432000D02*
G75*
G02X220955540Y-111932000I-1500000J0D01*
G01*
X252192040Y-77947500D02*
X251252270Y-77947500D01*
X252192040Y-76666000D02*
G75*
G02X252192040Y-77947500I0J-640750D01*
G01*
X251252270Y-76666000D02*
X252192040Y-76666000D01*
X87816940Y-114050000D02*
X86108270Y-114050000D01*
X90721270Y-116613000D02*
X92145160Y-116613000D01*
X86108270Y-114050000D02*
X86108270Y-116613000D01*
X155695270Y-116245000D02*
X156692000Y-113682000D01*
X155980050Y-115533060D02*
X157403940Y-115533060D01*
X155012720Y-113682000D02*
X155012720Y-116245000D01*
X107334270Y-80668000D02*
X108331000Y-78105000D01*
X163955540Y-110432000D02*
G75*
G02X162455540Y-111932000I-1500000J0D01*
G01*
X152955540Y-111932000D02*
X162455540Y-111932000D01*
X152955540Y-111932000D02*
G75*
G02X151455540Y-110432000I0J1500000D01*
G01*
X134955540Y-100932000D02*
X134955540Y-110432000D01*
X134955540Y-100932000D02*
G75*
G02X136455540Y-99432000I1500000J0D01*
G01*
X92828270Y-116613000D02*
X93825000Y-114050000D01*
X60252540Y-54376000D02*
X320602540Y-54376000D01*
X173217040Y-95766000D02*
G75*
G02X173217040Y-97047500I0J-640750D01*
G01*
X172277270Y-95766000D02*
X173217040Y-95766000D01*
X172277270Y-98329000D02*
X172277270Y-95766000D01*
X79711270Y-88385000D02*
X79711270Y-90948000D01*
X81419940Y-88385000D02*
X79711270Y-88385000D01*
X79711270Y-89666500D02*
X81135160Y-89666500D01*
X136058532Y-96876642D02*
G75*
G02X135802229Y-96079258I166968J493552D01*
G01*
X135802232Y-96079262D02*
G75*
G02X136200920Y-95794485I618128J-443908D01*
G01*
X193455540Y-100932000D02*
X193455540Y-110432000D01*
X193455540Y-100932000D02*
G75*
G02X194955540Y-99432000I1500000J0D01*
G01*
X204455540Y-99432000D02*
X194955540Y-99432000D01*
X204455540Y-99432000D02*
G75*
G02X205955540Y-100932000I0J-1500000D01*
G01*
X205955540Y-110432000D02*
X205955540Y-100932000D01*
X80122482Y-80789008D02*
G75*
G02X79723791Y-80532706I142858J660468D01*
G01*
X80919863Y-80760529D02*
G75*
G02X80122483Y-80789006I-454303J1542949D01*
G01*
X81318547Y-80475739D02*
G75*
G02X80919859Y-80760516I-618127J443909D01*
G01*
X130955540Y-93034000D02*
G75*
G02X129455540Y-94534000I-1500000J0D01*
G01*
X119955540Y-94534000D02*
X129455540Y-94534000D01*
X119955540Y-94534000D02*
G75*
G02X118455540Y-93034000I0J1500000D01*
G01*
X118455540Y-66137000D02*
X118455540Y-75637000D01*
X106457940Y-95878000D02*
X104749270Y-95878000D01*
X160478270Y-113682000D02*
X160478270Y-116245000D01*
X162186940Y-113682000D02*
X160478270Y-113682000D01*
X160478270Y-114963500D02*
X161902160Y-114963500D01*
X296696270Y-93561000D02*
X296696270Y-90998000D01*
X296696270Y-88482000D02*
X298404940Y-88482000D01*
X296696270Y-85919000D02*
X296696270Y-88482000D01*
X298404940Y-85919000D02*
X296696270Y-85919000D01*
X125676270Y-80688000D02*
X125676270Y-78125000D01*
X124281110Y-80688000D02*
X124993050Y-78125000D01*
X273034270Y-99992000D02*
X274742940Y-99992000D01*
X273034270Y-97429000D02*
X273034270Y-99992000D01*
X274742940Y-97429000D02*
X273034270Y-97429000D01*
X180455540Y-92932000D02*
X180455540Y-83432000D01*
X180455540Y-92932000D02*
G75*
G02X178955540Y-94432000I-1500000J0D01*
G01*
X169455540Y-94432000D02*
X178955540Y-94432000D01*
X169455540Y-94432000D02*
G75*
G02X167955540Y-92932000I0J1500000D01*
G01*
X226455540Y-100932000D02*
X226455540Y-110432000D01*
X226455540Y-100932000D02*
G75*
G02X227955540Y-99432000I1500000J0D01*
G01*
X145955540Y-99432000D02*
X136455540Y-99432000D01*
X145955540Y-99432000D02*
G75*
G02X147455540Y-100932000I0J-1500000D01*
G01*
X147455540Y-110432000D02*
X147455540Y-100932000D01*
X147455540Y-110432000D02*
G75*
G02X145955540Y-111932000I-1500000J0D01*
G01*
X136455540Y-111932000D02*
X145955540Y-111932000D01*
X81419940Y-93465000D02*
X79711270Y-93465000D01*
X79711270Y-94746500D02*
X81135160Y-94746500D01*
X79711270Y-90948000D02*
X81419940Y-90948000D01*
X270642270Y-97429000D02*
X272350940Y-97429000D01*
X269958940Y-99992000D02*
X269958940Y-97429000D01*
X268250270Y-97429000D02*
X269958940Y-99992000D01*
X90894863Y-98504529D02*
G75*
G02X90097483Y-98533006I-454303J1542949D01*
G01*
X90040532Y-97080642D02*
G75*
G02X89784229Y-96283258I166968J493552D01*
G01*
X89510863Y-80771529D02*
G75*
G02X88713483Y-80800006I-454303J1542949D01*
G01*
X122145270Y-78125000D02*
X122857220Y-80688000D01*
X111693400Y-115026110D02*
X112917940Y-113887000D01*
X108081040Y-97159500D02*
X107141270Y-97159500D01*
X108081040Y-95878000D02*
G75*
G02X108081040Y-97159500I0J-640750D01*
G01*
X89440040Y-115331500D02*
X88500270Y-115331500D01*
X124893270Y-97128500D02*
X126317160Y-97128500D01*
X123669000Y-97128500D02*
X124238550Y-98410000D01*
X60252540Y-125496000D02*
X60252540Y-54376000D01*
X89440040Y-114049999D02*
G75*
G02X89440040Y-115331501I0J-640751D01*
G01*
X123569160Y-78125000D02*
X124281110Y-80688000D01*
X122857220Y-80688000D02*
X123569160Y-78125000D01*
X91532610Y-80800000D02*
X91532610Y-79518500D01*
X144415547Y-80650739D02*
G75*
G02X144016859Y-80935516I-618127J443909D01*
G01*
X144159249Y-79853358D02*
G75*
G02X144415550Y-80650743I-166969J-493552D01*
G01*
X138080270Y-95766000D02*
X139788940Y-95766000D01*
X136115482Y-98329008D02*
G75*
G02X135716791Y-98072706I142858J660468D01*
G01*
X94323297Y-78236994D02*
G75*
G02X94721988Y-78493295I-142857J-660466D01*
G01*
X93383529Y-79347630D02*
X94380250Y-79689370D01*
X127285270Y-95847000D02*
X128139610Y-98410000D01*
X124893270Y-98410000D02*
X126601940Y-98410000D01*
X111355720Y-95878000D02*
X111355720Y-98441000D01*
X110359000Y-97729060D02*
X111355720Y-95878000D01*
X140472270Y-98329000D02*
X142180940Y-98329000D01*
X140472270Y-95766000D02*
X140472270Y-98329000D01*
X93383532Y-79347642D02*
G75*
G02X93127229Y-78550258I166968J493552D01*
G01*
X138934610Y-95766000D02*
X138934610Y-98329000D01*
X139788940Y-95766000D02*
X138934610Y-95766000D01*
X103636270Y-113887000D02*
X104633000Y-115738060D01*
X103636270Y-116450000D02*
X103636270Y-113887000D01*
X203351040Y-66646000D02*
X203351040Y-76146000D01*
X203351040Y-66646000D02*
G75*
G02X204851040Y-65146000I1500000J0D01*
G01*
X226952040Y-65146000D02*
X204851040Y-65146000D01*
X226952040Y-65146000D02*
G75*
G02X228452040Y-66646000I0J-1500000D01*
G01*
X228452040Y-76146000D02*
X228452040Y-66646000D01*
X228452040Y-76146000D02*
G75*
G02X226952040Y-77646000I-1500000J0D01*
G01*
X204851040Y-77646000D02*
X226952040Y-77646000D01*
X147455540Y-75637000D02*
G75*
G02X145955540Y-77137000I-1500000J0D01*
G01*
X136455540Y-77137000D02*
X145955540Y-77137000D01*
X136455540Y-77137000D02*
G75*
G02X134955540Y-75637000I0J1500000D01*
G01*
X118455540Y-100932000D02*
X118455540Y-110432000D01*
X85455540Y-66137000D02*
X85455540Y-75637000D01*
X85455540Y-66137000D02*
G75*
G02X86955540Y-64637000I1500000J0D01*
G01*
X96455540Y-64637000D02*
X86955540Y-64637000D01*
X96455540Y-64637000D02*
G75*
G02X97955540Y-66137000I0J-1500000D01*
G01*
X126656269Y-113988000D02*
X128364940Y-116551000D01*
X126656269Y-116551000D02*
X126656269Y-113988000D01*
X118455540Y-100932000D02*
G75*
G02X119955540Y-99432000I1500000J0D01*
G01*
X129455540Y-99432000D02*
X119955540Y-99432000D01*
X129455540Y-99432000D02*
G75*
G02X130955540Y-100932000I0J-1500000D01*
G01*
X130955540Y-110432000D02*
X130955540Y-100932000D01*
X94454270Y-95970000D02*
X96162940Y-95970000D01*
X91293547Y-98219739D02*
G75*
G02X90894859Y-98504516I-618127J443909D01*
G01*
X105629720Y-113887000D02*
X105629720Y-116450000D01*
X104633000Y-115738060D02*
X105629720Y-113887000D01*
X90980297Y-95969994D02*
G75*
G02X91378988Y-96226295I-142857J-660466D01*
G01*
X90182916Y-95998472D02*
G75*
G02X90980296Y-95969995I454304J-1542948D01*
G01*
X79809232Y-78539262D02*
G75*
G02X80207920Y-78254485I618128J-443908D01*
G01*
X80207916Y-78254472D02*
G75*
G02X81005296Y-78225995I454304J-1542948D01*
G01*
X81005297Y-78225994D02*
G75*
G02X81403988Y-78482295I-142857J-660466D01*
G01*
X125887547Y-116237739D02*
G75*
G02X125488859Y-116522516I-618127J443909D01*
G01*
X125631249Y-115440358D02*
G75*
G02X125887550Y-116237743I-166969J-493552D01*
G01*
X136912863Y-98300529D02*
G75*
G02X136115483Y-98329006I-454303J1542949D01*
G01*
X137311547Y-98015739D02*
G75*
G02X136912859Y-98300516I-618127J443909D01*
G01*
X111209270Y-115481760D02*
X111693400Y-115026110D01*
X111209270Y-116450000D02*
X111209270Y-115481760D01*
X104942270Y-80668000D02*
X104942270Y-78105000D01*
X92062270Y-97251500D02*
X93486160Y-97251500D01*
X171593940Y-97531620D02*
X171593940Y-95766000D01*
X171593940Y-97531620D02*
G75*
G02X169885280Y-97531620I-854330J0D01*
G01*
X169885270Y-95766000D02*
X169885270Y-97531620D01*
X92062270Y-95970000D02*
X92062270Y-98533000D01*
X144572940Y-95766000D02*
X142864270Y-95766000D01*
X142864270Y-97047500D02*
X144288160Y-97047500D01*
X108988270Y-115168500D02*
X109985000Y-115168500D01*
X109928040Y-115168500D02*
X108988270Y-115168500D01*
X107141270Y-95878000D02*
X108081040Y-95878000D01*
X107141270Y-98441000D02*
X107141270Y-95878000D01*
X96162940Y-95970000D02*
X95308610Y-95970000D01*
X80651040Y-99825500D02*
X79711270Y-99825500D01*
X80651040Y-98544000D02*
G75*
G02X80651040Y-99825500I0J-640750D01*
G01*
X79711270Y-98544000D02*
X80651040Y-98544000D01*
X139062040Y-78401000D02*
G75*
G02X139062040Y-79682500I0J-640750D01*
G01*
X138122270Y-78401000D02*
X139062040Y-78401000D01*
X251252270Y-79229000D02*
X251252270Y-76666000D01*
X80708000Y-99825500D02*
X81277550Y-101107000D01*
X79711270Y-99825500D02*
X80708000Y-99825500D01*
X85455540Y-100932000D02*
G75*
G02X86955540Y-99432000I1500000J0D01*
G01*
X96455540Y-99432000D02*
X86955540Y-99432000D01*
X96455540Y-99432000D02*
G75*
G02X97955540Y-100932000I0J-1500000D01*
G01*
X97955540Y-110432000D02*
X97955540Y-100932000D01*
X147455540Y-93034000D02*
X147455540Y-83534000D01*
X147455540Y-93034000D02*
G75*
G02X145955540Y-94534000I-1500000J0D01*
G01*
X136455540Y-94534000D02*
X145955540Y-94534000D01*
X136455540Y-94534000D02*
G75*
G02X134955540Y-93034000I0J1500000D01*
G01*
X134955540Y-66137000D02*
X134955540Y-75637000D01*
X320602540Y-54376000D02*
X320602540Y-125496000D01*
X143334270Y-116551000D02*
X143334270Y-113988000D01*
X141796610Y-115269500D02*
X142650940Y-113988000D01*
X141796610Y-116551000D02*
X141796610Y-115269500D01*
X104749270Y-97159500D02*
X106173160Y-97159500D01*
X111209270Y-113887000D02*
X111209270Y-116450000D01*
X109985000Y-115168500D02*
X110554550Y-116450000D01*
X126616040Y-78125000D02*
G75*
G02X126616040Y-79406500I0J-640750D01*
G01*
X125676270Y-78125000D02*
X126616040Y-78125000D01*
X123612040Y-95847000D02*
G75*
G02X123612040Y-97128500I0J-640750D01*
G01*
X122672270Y-95847000D02*
X123612040Y-95847000D01*
X88400232Y-78550262D02*
G75*
G02X88798920Y-78265485I618128J-443908D01*
G01*
X136159160Y-113988000D02*
X136871110Y-116551000D01*
X135447220Y-116551000D02*
X136159160Y-113988000D01*
X134735270Y-113988000D02*
X135447220Y-116551000D01*
X237455540Y-99432000D02*
X227955540Y-99432000D01*
X237455540Y-99432000D02*
G75*
G02X238955540Y-100932000I0J-1500000D01*
G01*
X238955540Y-110432000D02*
X238955540Y-100932000D01*
X238955540Y-110432000D02*
G75*
G02X237455540Y-111932000I-1500000J0D01*
G01*
X227955540Y-111932000D02*
X237455540Y-111932000D01*
X90097482Y-98533008D02*
G75*
G02X89698791Y-98276706I142858J660468D01*
G01*
X89784232Y-96283262D02*
G75*
G02X90182920Y-95998485I618128J-443908D01*
G01*
X101955540Y-83534000D02*
G75*
G02X103455540Y-82034000I1500000J0D01*
G01*
X112955540Y-82034000D02*
X103455540Y-82034000D01*
X112955540Y-82034000D02*
G75*
G02X114455540Y-83534000I0J-1500000D01*
G01*
X114455540Y-93034000D02*
X114455540Y-83534000D01*
X114455540Y-110432000D02*
G75*
G02X112955540Y-111932000I-1500000J0D01*
G01*
X103455540Y-111932000D02*
X112955540Y-111932000D01*
X103455540Y-111932000D02*
G75*
G02X101955540Y-110432000I0J1500000D01*
G01*
X101955540Y-83534000D02*
X101955540Y-93034000D01*
X97955540Y-93034000D02*
X97955540Y-83534000D01*
X97955540Y-93034000D02*
G75*
G02X96455540Y-94534000I-1500000J0D01*
G01*
X86955540Y-94534000D02*
X96455540Y-94534000D01*
X86955540Y-94534000D02*
G75*
G02X85455540Y-93034000I0J1500000D01*
G01*
X97955540Y-110432000D02*
G75*
G02X96455540Y-111932000I-1500000J0D01*
G01*
X86955540Y-111932000D02*
X96455540Y-111932000D01*
X86955540Y-111932000D02*
G75*
G02X85455540Y-110432000I0J1500000D01*
G01*
X261187540Y-110906000D02*
X283187540Y-110906000D01*
X112917940Y-116450000D02*
X111693400Y-115026110D01*
X111693400Y-115026110D02*
X112917940Y-116450000D01*
X261187540Y-110906000D02*
G75*
G02X260187540Y-109906000I0J1000000D01*
G01*
X260187540Y-102406000D02*
X260187540Y-109906000D01*
X260187540Y-102406000D02*
G75*
G02X261187540Y-101406000I1000000J0D01*
G01*
X283187540Y-101406000D02*
X261187540Y-101406000D01*
X296696270Y-98641000D02*
X296696270Y-96078000D01*
X297636040Y-92279500D02*
X296696270Y-92279500D01*
X297636040Y-90998000D02*
G75*
G02X297636040Y-92279500I0J-640750D01*
G01*
X296696270Y-90998000D02*
X297636040Y-90998000D01*
X88656532Y-79347642D02*
G75*
G02X88400229Y-78550258I166968J493552D01*
G01*
X146196040Y-97047500D02*
X145256270Y-97047500D01*
X146196040Y-95766000D02*
G75*
G02X146196040Y-97047500I0J-640750D01*
G01*
X73150270Y-104434500D02*
X74631120Y-104434500D01*
X73952910Y-77075920D02*
X73952910Y-75595080D01*
X73212480Y-76335500D02*
X74693330Y-76335500D01*
X95504270Y-116613000D02*
X95504270Y-114050000D01*
X104942270Y-78105000D02*
X106650940Y-80668000D01*
X114455540Y-75637000D02*
G75*
G02X112955540Y-77137000I-1500000J0D01*
G01*
X103455540Y-77137000D02*
X112955540Y-77137000D01*
X103455540Y-77137000D02*
G75*
G02X101955540Y-75637000I0J1500000D01*
G01*
X85455540Y-100932000D02*
X85455540Y-110432000D01*
X93113049Y-115901060D02*
X94536940Y-115901060D01*
X91037249Y-97422358D02*
G75*
G02X91293550Y-98219743I-166969J-493552D01*
G01*
X124691482Y-116551008D02*
G75*
G02X124292791Y-116294706I142858J660468D01*
G01*
X125488863Y-116522529D02*
G75*
G02X124691483Y-116551006I-454303J1542949D01*
G01*
X109928040Y-113886999D02*
G75*
G02X109928040Y-115168501I0J-640751D01*
G01*
X108988270Y-113887000D02*
X109928040Y-113887000D01*
X142180940Y-95766000D02*
X140472270Y-95766000D01*
X140472270Y-97047500D02*
X141896160Y-97047500D01*
X204851040Y-77646000D02*
G75*
G02X203351040Y-76146000I0J1500000D01*
G01*
X167956040Y-65932000D02*
X167956040Y-75432000D01*
X167956040Y-65932000D02*
G75*
G02X169456040Y-64432000I1500000J0D01*
G01*
X185935040Y-64432000D02*
X169456040Y-64432000D01*
X185935040Y-64432000D02*
G75*
G02X187435040Y-65932000I0J-1500000D01*
G01*
X187435040Y-75432000D02*
X187435040Y-65932000D01*
X187435040Y-75432000D02*
G75*
G02X185935040Y-76932000I-1500000J0D01*
G01*
X114455540Y-93034000D02*
G75*
G02X112955540Y-94534000I-1500000J0D01*
G01*
X103455540Y-94534000D02*
X112955540Y-94534000D01*
X103455540Y-94534000D02*
G75*
G02X101955540Y-93034000I0J1500000D01*
G01*
X101955540Y-66137000D02*
X101955540Y-75637000D01*
X93525916Y-78265472D02*
G75*
G02X94323296Y-78236995I454304J-1542948D01*
G01*
X264255540Y-92116000D02*
G75*
G02X263255540Y-93116000I-1000000J0D01*
G01*
X255755540Y-93116000D02*
X263255540Y-93116000D01*
X255755540Y-93116000D02*
G75*
G02X254755540Y-92116000I0J1000000D01*
G01*
X299923540Y-79556000D02*
X299923540Y-101556000D01*
X118455540Y-83534000D02*
G75*
G02X119955540Y-82034000I1500000J0D01*
G01*
X129455540Y-82034000D02*
X119955540Y-82034000D01*
X129455540Y-82034000D02*
G75*
G02X130955540Y-83534000I0J-1500000D01*
G01*
X130955540Y-93034000D02*
X130955540Y-83534000D01*
X91532610Y-79518500D02*
X92386940Y-78237000D01*
X106312270Y-116450000D02*
X107309000Y-113887000D01*
X106597050Y-115738060D02*
X108020940Y-115738060D01*
X80565610Y-83306000D02*
X80565610Y-85869000D01*
X81419940Y-83306000D02*
X80565610Y-83306000D01*
X79711270Y-83306000D02*
X81419940Y-83306000D01*
X97212940Y-116613000D02*
X97212940Y-114050000D01*
X137055249Y-97218358D02*
G75*
G02X137311550Y-98015743I-166969J-493552D01*
G01*
X136058530Y-96876630D02*
X137055250Y-97218370D01*
X144274040Y-115269500D02*
X143334270Y-115269500D01*
X144274040Y-113988000D02*
G75*
G02X144274040Y-115269500I0J-640750D01*
G01*
X143334270Y-113988000D02*
X144274040Y-113988000D01*
X88500270Y-116613000D02*
X88500270Y-114050000D01*
X107619050Y-79956060D02*
X109042940Y-79956060D01*
X122672270Y-98410000D02*
X122672270Y-95847000D01*
X121391040Y-97128500D02*
X120451270Y-97128500D01*
X124893270Y-95847000D02*
X124893270Y-98410000D01*
X126601940Y-95847000D02*
X124893270Y-95847000D01*
X142864270Y-98329000D02*
X144572940Y-98329000D01*
X142864270Y-95766000D02*
X142864270Y-98329000D01*
X90678270Y-78237000D02*
X91532610Y-79518500D01*
X125574297Y-113987994D02*
G75*
G02X125972988Y-114244295I-142857J-660466D01*
G01*
X123638720Y-113988000D02*
X123638720Y-116551000D01*
X122672270Y-97128500D02*
X123669000Y-97128500D01*
X123612040Y-97128500D02*
X122672270Y-97128500D01*
X273034270Y-98710500D02*
X274458160Y-98710500D01*
X271496610Y-97429000D02*
X271496610Y-99992000D01*
X272350940Y-97429000D02*
X271496610Y-97429000D01*
X88713482Y-80800008D02*
G75*
G02X88314791Y-80543706I142858J660468D01*
G01*
X94380249Y-79689358D02*
G75*
G02X94636550Y-80486743I-166969J-493552D01*
G01*
X85455540Y-83534000D02*
X85455540Y-93034000D01*
X85455540Y-83534000D02*
G75*
G02X86955540Y-82034000I1500000J0D01*
G01*
X96455540Y-82034000D02*
X86955540Y-82034000D01*
X96455540Y-82034000D02*
G75*
G02X97955540Y-83534000I0J-1500000D01*
G01*
X89596297Y-78236994D02*
G75*
G02X89994988Y-78493295I-142857J-660466D01*
G01*
X121645270Y-116551000D02*
X121645270Y-113988000D01*
X128139610Y-98410000D02*
X128993940Y-95847000D01*
X254755540Y-70116000D02*
G75*
G02X255755540Y-69116000I1000000J0D01*
G01*
X263255540Y-69116000D02*
X255755540Y-69116000D01*
X263255540Y-69116000D02*
G75*
G02X264255540Y-70116000I0J-1000000D01*
G01*
X264255540Y-92116000D02*
X264255540Y-70116000D01*
X178598940Y-95767000D02*
X177744610Y-95767000D01*
X176890270Y-95767000D02*
X178598940Y-95767000D01*
X174498270Y-98329000D02*
X174498270Y-95766000D01*
X122642000Y-115839060D02*
X123638720Y-113988000D01*
X121645270Y-113988000D02*
X122642000Y-115839060D01*
X89909547Y-80486739D02*
G75*
G02X89510859Y-80771516I-618127J443909D01*
G01*
X138266270Y-116551000D02*
X139263000Y-113988000D01*
X138551050Y-115839060D02*
X139974940Y-115839060D01*
X136871110Y-116551000D02*
X137583050Y-113988000D01*
X309423540Y-101556000D02*
G75*
G02X308423540Y-102556000I-1000000J0D01*
G01*
X300923540Y-102556000D02*
X308423540Y-102556000D01*
X300923540Y-102556000D02*
G75*
G02X299923540Y-101556000I0J1000000D01*
G01*
X163636540Y-88107000D02*
G75*
G03X163636540Y-88107000I-6250000J0D01*
G01*
X154016000Y-115533060D02*
X155012720Y-113682000D01*
X153019270Y-113682000D02*
X154016000Y-115533060D01*
X153019270Y-116245000D02*
X153019270Y-113682000D01*
X92062270Y-98533000D02*
X93770940Y-98533000D01*
X146253000Y-97047500D02*
X146822550Y-98329000D01*
X145256270Y-97047500D02*
X146253000Y-97047500D01*
X93770940Y-95970000D02*
X92062270Y-95970000D01*
X253076851Y-83454670D02*
G75*
G02X251254269Y-83454670I-911291J0D01*
G01*
X253076850Y-83027500D02*
X253076850Y-83454670D01*
X252450340Y-83027500D02*
X253076850Y-83027500D01*
X108988270Y-116450000D02*
X108988270Y-113887000D01*
X107309000Y-113887000D02*
X108305720Y-116450000D01*
X89653249Y-79689358D02*
G75*
G02X89909550Y-80486743I-166969J-493552D01*
G01*
X101955540Y-66137000D02*
G75*
G02X103455540Y-64637000I1500000J0D01*
G01*
X112955540Y-64637000D02*
X103455540Y-64637000D01*
X112955540Y-64637000D02*
G75*
G02X114455540Y-66137000I0J-1500000D01*
G01*
X114455540Y-75637000D02*
X114455540Y-66137000D01*
X91532610Y-79518500D02*
X91532610Y-80800000D01*
X124378232Y-114301262D02*
G75*
G02X124776920Y-114016485I618128J-443908D01*
G01*
X124776916Y-114016472D02*
G75*
G02X125574296Y-113987995I454304J-1542948D01*
G01*
X86108270Y-115331500D02*
X87532160Y-115331500D01*
X97955540Y-75637000D02*
X97955540Y-66137000D01*
X97955540Y-75637000D02*
G75*
G02X96455540Y-77137000I-1500000J0D01*
G01*
X86955540Y-77137000D02*
X96455540Y-77137000D01*
X86955540Y-77137000D02*
G75*
G02X85455540Y-75637000I0J1500000D01*
G01*
X142165850Y-80109670D02*
G75*
G02X140343270Y-80109670I-911290J0D01*
G01*
X139062040Y-79682500D02*
X138122270Y-79682500D01*
X93825000Y-114050000D02*
X94821720Y-116613000D01*
X95308610Y-95970000D02*
X95308610Y-98533000D01*
X142906232Y-78714262D02*
G75*
G02X143304920Y-78429485I618128J-443908D01*
G01*
X143304916Y-78429472D02*
G75*
G02X144102296Y-78400995I454304J-1542948D01*
G01*
X143219482Y-80964008D02*
G75*
G02X142820791Y-80707706I142858J660468D01*
G01*
X144016863Y-80935529D02*
G75*
G02X143219483Y-80964006I-454303J1542949D01*
G01*
X238955540Y-93034000D02*
X238955540Y-83534000D01*
X238955540Y-93034000D02*
G75*
G02X237455540Y-94534000I-1500000J0D01*
G01*
X227955540Y-94534000D02*
X237455540Y-94534000D01*
X227955540Y-94534000D02*
G75*
G02X226455540Y-93034000I0J1500000D01*
G01*
X209955540Y-100932000D02*
X209955540Y-110432000D01*
X110010270Y-78105000D02*
X110864610Y-80668000D01*
X211455540Y-111932000D02*
X220955540Y-111932000D01*
X211455540Y-111932000D02*
G75*
G02X209955540Y-110432000I0J1500000D01*
G01*
X209955540Y-83534000D02*
X209955540Y-93034000D01*
X209955540Y-83534000D02*
G75*
G02X211455540Y-82034000I1500000J0D01*
G01*
X220955540Y-82034000D02*
X211455540Y-82034000D01*
X121391040Y-95847000D02*
G75*
G02X121391040Y-97128500I0J-640750D01*
G01*
X120451270Y-95847000D02*
X121391040Y-95847000D01*
X130955540Y-75637000D02*
G75*
G02X129455540Y-77137000I-1500000J0D01*
G01*
X119955540Y-77137000D02*
X129455540Y-77137000D01*
X119955540Y-77137000D02*
G75*
G02X118455540Y-75637000I0J1500000D01*
G01*
X101955540Y-100932000D02*
X101955540Y-110432000D01*
X89043851Y-97678670D02*
G75*
G02X87221269Y-97678670I-911291J0D01*
G01*
X88500270Y-114050000D02*
X89440040Y-114050000D01*
X81062249Y-79678358D02*
G75*
G02X81318550Y-80475743I-166969J-493552D01*
G01*
X80065530Y-79336630D02*
X81062250Y-79678370D01*
X80065532Y-79336642D02*
G75*
G02X79809229Y-78539258I166968J493552D01*
G01*
X277134940Y-99992000D02*
X277134940Y-97429000D01*
X275426270Y-97429000D02*
X277134940Y-99992000D01*
X275426270Y-99992000D02*
X275426270Y-97429000D01*
X175381087Y-95766001D02*
G75*
G02X176206940Y-96620332I-33167J-858389D01*
G01*
X174498270Y-95766000D02*
X175381080Y-95766000D01*
X173217040Y-97047500D02*
X172277270Y-97047500D01*
X94636547Y-80486739D02*
G75*
G02X94237859Y-80771516I-618127J443909D01*
G01*
X90721270Y-114050000D02*
X90721270Y-116613000D01*
X79711270Y-101107000D02*
X79711270Y-98544000D01*
X79711270Y-96028000D02*
X81419940Y-96028000D01*
X79711270Y-93465000D02*
X79711270Y-96028000D01*
X280149540Y-70116000D02*
G75*
G02X281149540Y-69116000I1000000J0D01*
G01*
X288649540Y-69116000D02*
X281149540Y-69116000D01*
X288649540Y-69116000D02*
G75*
G02X289649540Y-70116000I0J-1000000D01*
G01*
X289649540Y-92116000D02*
X289649540Y-70116000D01*
X93440482Y-80800008D02*
G75*
G02X93041791Y-80543706I142858J660468D01*
G01*
X87221270Y-96824330D02*
G75*
G02X89043850Y-96824330I911290J0D01*
G01*
X108331000Y-78105000D02*
X109327720Y-80668000D01*
M02*
