G04 #@! TF.GenerationSoftware,KiCad,Pcbnew,(5.0.2)-1*
G04 #@! TF.CreationDate,2019-08-02T19:21:12-04:00*
G04 #@! TF.ProjectId,A-10C-UFC,412d3130-432d-4554-9643-2e6b69636164,1.2*
G04 #@! TF.SameCoordinates,Original*
G04 #@! TF.FileFunction,Drawing*
%FSLAX46Y46*%
G04 Gerber Fmt 4.6, Leading zero omitted, Abs format (unit mm)*
G04 Created by KiCad (PCBNEW (5.0.2)-1) date 8/2/2019 7:21:12 PM*
%MOMM*%
%LPD*%
G01*
G04 APERTURE LIST*
%ADD10C,0.200000*%
G04 APERTURE END LIST*
D10*
X96401000Y-99412000D02*
G75*
G02X97901000Y-100912000I0J-1500000D01*
G01*
X97901000Y-110412000D02*
X97901000Y-100912000D01*
X97901000Y-110412000D02*
G75*
G02X96401000Y-111912000I-1500000J0D01*
G01*
X86901000Y-111912000D02*
X96401000Y-111912000D01*
X86901000Y-111912000D02*
G75*
G02X85401000Y-110412000I0J1500000D01*
G01*
X261133000Y-110886000D02*
X283133000Y-110886000D01*
X261133000Y-110886000D02*
G75*
G02X260133000Y-109886000I0J1000000D01*
G01*
X260133000Y-102386000D02*
X260133000Y-109886000D01*
X260133000Y-102386000D02*
G75*
G02X261133000Y-101386000I1000000J0D01*
G01*
X283133000Y-101386000D02*
X261133000Y-101386000D01*
X283133000Y-101386000D02*
G75*
G02X284133000Y-102386000I0J-1000000D01*
G01*
X284133000Y-109886000D02*
X284133000Y-102386000D01*
X284133000Y-109886000D02*
G75*
G02X283133000Y-110886000I-1000000J0D01*
G01*
X280095000Y-70096000D02*
X280095000Y-92096000D01*
X280095000Y-70096000D02*
G75*
G02X281095000Y-69096000I1000000J0D01*
G01*
X288595000Y-69096000D02*
X281095000Y-69096000D01*
X288595000Y-69096000D02*
G75*
G02X289595000Y-70096000I0J-1000000D01*
G01*
X289595000Y-92096000D02*
X289595000Y-70096000D01*
X289595000Y-92096000D02*
G75*
G02X288595000Y-93096000I-1000000J0D01*
G01*
X281095000Y-93096000D02*
X288595000Y-93096000D01*
X281095000Y-93096000D02*
G75*
G02X280095000Y-92096000I0J1000000D01*
G01*
X254701000Y-70096000D02*
X254701000Y-92096000D01*
X254701000Y-70096000D02*
G75*
G02X255701000Y-69096000I1000000J0D01*
G01*
X263201000Y-69096000D02*
X255701000Y-69096000D01*
X263201000Y-69096000D02*
G75*
G02X264201000Y-70096000I0J-1000000D01*
G01*
X264201000Y-92096000D02*
X264201000Y-70096000D01*
X264201000Y-92096000D02*
G75*
G02X263201000Y-93096000I-1000000J0D01*
G01*
X255701000Y-93096000D02*
X263201000Y-93096000D01*
X255701000Y-93096000D02*
G75*
G02X254701000Y-92096000I0J1000000D01*
G01*
X299869000Y-79536000D02*
X299869000Y-101536000D01*
X299869000Y-79536000D02*
G75*
G02X300869000Y-78536000I1000000J0D01*
G01*
X308369000Y-78536000D02*
X300869000Y-78536000D01*
X308369000Y-78536000D02*
G75*
G02X309369000Y-79536000I0J-1000000D01*
G01*
X309369000Y-101536000D02*
X309369000Y-79536000D01*
X309369000Y-101536000D02*
G75*
G02X308369000Y-102536000I-1000000J0D01*
G01*
X300869000Y-102536000D02*
X308369000Y-102536000D01*
X300869000Y-102536000D02*
G75*
G02X299869000Y-101536000I0J1000000D01*
G01*
X163582000Y-88087000D02*
G75*
G03X163582000Y-88087000I-6250000J0D01*
G01*
X85401000Y-83514000D02*
X85401000Y-93014000D01*
X85401000Y-83514000D02*
G75*
G02X86901000Y-82014000I1500000J0D01*
G01*
X96401000Y-82014000D02*
X86901000Y-82014000D01*
X96401000Y-82014000D02*
G75*
G02X97901000Y-83514000I0J-1500000D01*
G01*
X97901000Y-93014000D02*
X97901000Y-83514000D01*
X97901000Y-93014000D02*
G75*
G02X96401000Y-94514000I-1500000J0D01*
G01*
X86901000Y-94514000D02*
X96401000Y-94514000D01*
X86901000Y-94514000D02*
G75*
G02X85401000Y-93014000I0J1500000D01*
G01*
X85401000Y-66117000D02*
X85401000Y-75617000D01*
X85401000Y-66117000D02*
G75*
G02X86901000Y-64617000I1500000J0D01*
G01*
X96401000Y-64617000D02*
X86901000Y-64617000D01*
X96401000Y-64617000D02*
G75*
G02X97901000Y-66117000I0J-1500000D01*
G01*
X97901000Y-75617000D02*
X97901000Y-66117000D01*
X97901000Y-75617000D02*
G75*
G02X96401000Y-77117000I-1500000J0D01*
G01*
X86901000Y-77117000D02*
X96401000Y-77117000D01*
X86901000Y-77117000D02*
G75*
G02X85401000Y-75617000I0J1500000D01*
G01*
X69068000Y-79536000D02*
X69068000Y-101536000D01*
X69068000Y-79536000D02*
G75*
G02X70068000Y-78536000I1000000J0D01*
G01*
X77568000Y-78536000D02*
X70068000Y-78536000D01*
X77568000Y-78536000D02*
G75*
G02X78568000Y-79536000I0J-1000000D01*
G01*
X78568000Y-101536000D02*
X78568000Y-79536000D01*
X78568000Y-101536000D02*
G75*
G02X77568000Y-102536000I-1000000J0D01*
G01*
X70068000Y-102536000D02*
X77568000Y-102536000D01*
X70068000Y-102536000D02*
G75*
G02X69068000Y-101536000I0J1000000D01*
G01*
X276563730Y-88404500D02*
X278044580Y-88404500D01*
X277365370Y-73840920D02*
X277365370Y-72360080D01*
X276624940Y-73100500D02*
X278105790Y-73100500D01*
X297638460Y-97339500D02*
X298208010Y-98621000D01*
X296641730Y-97339500D02*
X297638460Y-97339500D01*
X297581500Y-97339500D02*
X296641730Y-97339500D01*
X297581500Y-96057999D02*
G75*
G02X297581500Y-97339501I0J-640751D01*
G01*
X296641730Y-96058000D02*
X297581500Y-96058000D01*
X296641730Y-98621000D02*
X296641730Y-96058000D01*
X297581500Y-92259500D02*
X296641730Y-92259500D01*
X297581500Y-90978000D02*
G75*
G02X297581500Y-92259500I0J-640750D01*
G01*
X296641730Y-90978000D02*
X297581500Y-90978000D01*
X296641730Y-93541000D02*
X296641730Y-90978000D01*
X296641730Y-88462000D02*
X298350400Y-88462000D01*
X296641730Y-85899000D02*
X296641730Y-88462000D01*
X298350400Y-85899000D02*
X296641730Y-85899000D01*
X296641730Y-87180500D02*
X298065620Y-87180500D01*
X296641730Y-83382000D02*
X296641730Y-80819000D01*
X297524540Y-83382000D02*
X296641730Y-83382000D01*
X298350397Y-82527669D02*
G75*
G02X297524543Y-83381999I-824427J-29381D01*
G01*
X298350400Y-81673330D02*
X298350400Y-82527670D01*
X297524547Y-80819001D02*
G75*
G02X298350400Y-81673332I-33167J-858389D01*
G01*
X296641730Y-80819000D02*
X297524540Y-80819000D01*
X251199735Y-82580333D02*
G75*
G02X252822962Y-82096213I877635J20693D01*
G01*
X251199730Y-83434670D02*
X251199730Y-82580330D01*
X253022311Y-83434670D02*
G75*
G02X251199729Y-83434670I-911291J0D01*
G01*
X253022310Y-83007500D02*
X253022310Y-83434670D01*
X252395800Y-83007500D02*
X253022310Y-83007500D01*
X252137500Y-77927500D02*
X251197730Y-77927500D01*
X252137500Y-76646000D02*
G75*
G02X252137500Y-77927500I0J-640750D01*
G01*
X251197730Y-76646000D02*
X252137500Y-76646000D01*
X251197730Y-79209000D02*
X251197730Y-76646000D01*
X80653460Y-99805500D02*
X81223010Y-101087000D01*
X79656730Y-99805500D02*
X80653460Y-99805500D01*
X80596500Y-99805500D02*
X79656730Y-99805500D01*
X80596500Y-98524000D02*
G75*
G02X80596500Y-99805500I0J-640750D01*
G01*
X79656730Y-98524000D02*
X80596500Y-98524000D01*
X79656730Y-101087000D02*
X79656730Y-98524000D01*
X79656730Y-96008000D02*
X81365400Y-96008000D01*
X79656730Y-93445000D02*
X79656730Y-96008000D01*
X81365400Y-93445000D02*
X79656730Y-93445000D01*
X79656730Y-94726500D02*
X81080620Y-94726500D01*
X79656730Y-90928000D02*
X81365400Y-90928000D01*
X79656730Y-88365000D02*
X79656730Y-90928000D01*
X81365400Y-88365000D02*
X79656730Y-88365000D01*
X79656730Y-89646500D02*
X81080620Y-89646500D01*
X80511070Y-83286000D02*
X80511070Y-85849000D01*
X81365400Y-83286000D02*
X80511070Y-83286000D01*
X79656730Y-83286000D02*
X81365400Y-83286000D01*
X80067942Y-80769008D02*
G75*
G02X79669251Y-80512706I142858J660468D01*
G01*
X80865323Y-80740529D02*
G75*
G02X80067943Y-80769006I-454303J1542949D01*
G01*
X81264007Y-80455739D02*
G75*
G02X80865319Y-80740516I-618127J443909D01*
G01*
X81007709Y-79658358D02*
G75*
G02X81264010Y-80455743I-166969J-493552D01*
G01*
X80010990Y-79316630D02*
X81007710Y-79658370D01*
X80010992Y-79316642D02*
G75*
G02X79754689Y-78519258I166968J493552D01*
G01*
X79754692Y-78519262D02*
G75*
G02X80153380Y-78234485I618128J-443908D01*
G01*
X80153376Y-78234472D02*
G75*
G02X80950756Y-78205995I454304J-1542948D01*
G01*
X80950757Y-78205994D02*
G75*
G02X81349448Y-78462295I-142857J-660466D01*
G01*
X73095730Y-104414500D02*
X74576580Y-104414500D01*
X73898370Y-77055920D02*
X73898370Y-75575080D01*
X73157940Y-76315500D02*
X74638790Y-76315500D01*
X277080400Y-99972000D02*
X277080400Y-97409000D01*
X275371730Y-97409000D02*
X277080400Y-99972000D01*
X275371730Y-99972000D02*
X275371730Y-97409000D01*
X272979730Y-99972000D02*
X274688400Y-99972000D01*
X272979730Y-97409000D02*
X272979730Y-99972000D01*
X274688400Y-97409000D02*
X272979730Y-97409000D01*
X272979730Y-98690500D02*
X274403620Y-98690500D01*
X271442070Y-97409000D02*
X271442070Y-99972000D01*
X272296400Y-97409000D02*
X271442070Y-97409000D01*
X270587730Y-97409000D02*
X272296400Y-97409000D01*
X269904400Y-99972000D02*
X269904400Y-97409000D01*
X268195730Y-97409000D02*
X269904400Y-99972000D01*
X268195730Y-99972000D02*
X268195730Y-97409000D01*
X267512730Y-97409000D02*
X267512730Y-99972000D01*
X177690070Y-95747000D02*
X177690070Y-98310000D01*
X178544400Y-95747000D02*
X177690070Y-95747000D01*
X176835730Y-95747000D02*
X178544400Y-95747000D01*
X174443730Y-98309000D02*
X174443730Y-95746000D01*
X175326540Y-98309000D02*
X174443730Y-98309000D01*
X176152397Y-97454669D02*
G75*
G02X175326543Y-98308999I-824427J-29381D01*
G01*
X176152400Y-96600330D02*
X176152400Y-97454670D01*
X175326547Y-95746001D02*
G75*
G02X176152400Y-96600332I-33167J-858389D01*
G01*
X174443730Y-95746000D02*
X175326540Y-95746000D01*
X173162500Y-97027500D02*
X172222730Y-97027500D01*
X173162500Y-95746000D02*
G75*
G02X173162500Y-97027500I0J-640750D01*
G01*
X172222730Y-95746000D02*
X173162500Y-95746000D01*
X172222730Y-98309000D02*
X172222730Y-95746000D01*
X171539400Y-97511620D02*
X171539400Y-95746000D01*
X171539400Y-97511620D02*
G75*
G02X169830740Y-97511620I-854330J0D01*
G01*
X169830730Y-95746000D02*
X169830730Y-97511620D01*
X160423730Y-113662000D02*
X160423730Y-116225000D01*
X162132400Y-113662000D02*
X160423730Y-113662000D01*
X160423730Y-114943500D02*
X161847620Y-114943500D01*
X158316730Y-116225000D02*
X159740620Y-116225000D01*
X158316730Y-113662000D02*
X158316730Y-116225000D01*
X156637460Y-113662000D02*
X157634180Y-116225000D01*
X155640730Y-116225000D02*
X156637460Y-113662000D01*
X155925510Y-115513060D02*
X157349400Y-115513060D01*
X154958180Y-113662000D02*
X154958180Y-116225000D01*
X153961460Y-115513060D02*
X154958180Y-113662000D01*
X152964730Y-113662000D02*
X153961460Y-115513060D01*
X152964730Y-116225000D02*
X152964730Y-113662000D01*
X146355070Y-113968000D02*
X146355070Y-116531000D01*
X147209400Y-113968000D02*
X146355070Y-113968000D01*
X145500730Y-113968000D02*
X147209400Y-113968000D01*
X144219500Y-115249500D02*
X143279730Y-115249500D01*
X144219500Y-113968000D02*
G75*
G02X144219500Y-115249500I0J-640750D01*
G01*
X143279730Y-113968000D02*
X144219500Y-113968000D01*
X143279730Y-116531000D02*
X143279730Y-113968000D01*
X141742070Y-115249500D02*
X142596400Y-113968000D01*
X141742070Y-116531000D02*
X141742070Y-115249500D01*
X141742070Y-115249500D02*
X141742070Y-116531000D01*
X140887730Y-113968000D02*
X141742070Y-115249500D01*
X139208460Y-113968000D02*
X140205180Y-116531000D01*
X138211730Y-116531000D02*
X139208460Y-113968000D01*
X138496510Y-115819060D02*
X139920400Y-115819060D01*
X136816570Y-116531000D02*
X137528510Y-113968000D01*
X136104620Y-113968000D02*
X136816570Y-116531000D01*
X135392680Y-116531000D02*
X136104620Y-113968000D01*
X134680730Y-113968000D02*
X135392680Y-116531000D01*
X146198460Y-97027500D02*
X146768010Y-98309000D01*
X145201730Y-97027500D02*
X146198460Y-97027500D01*
X146141500Y-97027500D02*
X145201730Y-97027500D01*
X146141500Y-95746000D02*
G75*
G02X146141500Y-97027500I0J-640750D01*
G01*
X145201730Y-95746000D02*
X146141500Y-95746000D01*
X145201730Y-98309000D02*
X145201730Y-95746000D01*
X142809730Y-98309000D02*
X144518400Y-98309000D01*
X142809730Y-95746000D02*
X142809730Y-98309000D01*
X144518400Y-95746000D02*
X142809730Y-95746000D01*
X142809730Y-97027500D02*
X144233620Y-97027500D01*
X140417730Y-98309000D02*
X142126400Y-98309000D01*
X140417730Y-95746000D02*
X140417730Y-98309000D01*
X142126400Y-95746000D02*
X140417730Y-95746000D01*
X140417730Y-97027500D02*
X141841620Y-97027500D01*
X138880070Y-95746000D02*
X138880070Y-98309000D01*
X139734400Y-95746000D02*
X138880070Y-95746000D01*
X138025730Y-95746000D02*
X139734400Y-95746000D01*
X136060942Y-98309008D02*
G75*
G02X135662251Y-98052706I142858J660468D01*
G01*
X136858323Y-98280529D02*
G75*
G02X136060943Y-98309006I-454303J1542949D01*
G01*
X137257007Y-97995739D02*
G75*
G02X136858319Y-98280516I-618127J443909D01*
G01*
X137000709Y-97198358D02*
G75*
G02X137257010Y-97995743I-166969J-493552D01*
G01*
X136003990Y-96856630D02*
X137000710Y-97198370D01*
X136003992Y-96856642D02*
G75*
G02X135747689Y-96059258I166968J493552D01*
G01*
X135747692Y-96059262D02*
G75*
G02X136146380Y-95774485I618128J-443908D01*
G01*
X136146376Y-95774472D02*
G75*
G02X136943756Y-95745995I454304J-1542948D01*
G01*
X136943757Y-95745994D02*
G75*
G02X137342448Y-96002295I-142857J-660466D01*
G01*
X143164942Y-80944008D02*
G75*
G02X142766251Y-80687706I142858J660468D01*
G01*
X143962323Y-80915529D02*
G75*
G02X143164943Y-80944006I-454303J1542949D01*
G01*
X144361007Y-80630739D02*
G75*
G02X143962319Y-80915516I-618127J443909D01*
G01*
X144104709Y-79833358D02*
G75*
G02X144361010Y-80630743I-166969J-493552D01*
G01*
X143107990Y-79491630D02*
X144104710Y-79833370D01*
X143107992Y-79491642D02*
G75*
G02X142851689Y-78694258I166968J493552D01*
G01*
X142851692Y-78694262D02*
G75*
G02X143250380Y-78409485I618128J-443908D01*
G01*
X143250376Y-78409472D02*
G75*
G02X144047756Y-78380995I454304J-1542948D01*
G01*
X144047757Y-78380994D02*
G75*
G02X144446448Y-78637295I-142857J-660466D01*
G01*
X140288730Y-79235330D02*
X140288730Y-80089670D01*
X140288730Y-79235330D02*
G75*
G02X142111310Y-79235330I911290J0D01*
G01*
X142111310Y-80089670D02*
X142111310Y-79235330D01*
X142111310Y-80089670D02*
G75*
G02X140288730Y-80089670I-911290J0D01*
G01*
X139007500Y-79662500D02*
X138067730Y-79662500D01*
X139007500Y-78381000D02*
G75*
G02X139007500Y-79662500I0J-640750D01*
G01*
X138067730Y-78381000D02*
X139007500Y-78381000D01*
X138067730Y-80944000D02*
X138067730Y-78381000D01*
X128310400Y-116531000D02*
X128310400Y-113968000D01*
X126601729Y-113968000D02*
X128310400Y-116531000D01*
X126601729Y-116531000D02*
X126601729Y-113968000D01*
X124636942Y-116531008D02*
G75*
G02X124238251Y-116274706I142858J660468D01*
G01*
X125434323Y-116502529D02*
G75*
G02X124636943Y-116531006I-454303J1542949D01*
G01*
X125833007Y-116217739D02*
G75*
G02X125434319Y-116502516I-618127J443909D01*
G01*
X125576709Y-115420358D02*
G75*
G02X125833010Y-116217743I-166969J-493552D01*
G01*
X124579990Y-115078630D02*
X125576710Y-115420370D01*
X124579991Y-115078641D02*
G75*
G02X124323689Y-114281258I166968J493551D01*
G01*
X124323692Y-114281262D02*
G75*
G02X124722380Y-113996485I618128J-443908D01*
G01*
X124722376Y-113996472D02*
G75*
G02X125519756Y-113967995I454304J-1542948D01*
G01*
X125519757Y-113967994D02*
G75*
G02X125918448Y-114224295I-142857J-660466D01*
G01*
X123584180Y-113968000D02*
X123584180Y-116531000D01*
X122587460Y-115819060D02*
X123584180Y-113968000D01*
X121590730Y-113968000D02*
X122587460Y-115819060D01*
X121590730Y-116531000D02*
X121590730Y-113968000D01*
X128085070Y-98390000D02*
X128939400Y-95827000D01*
X127230730Y-95827000D02*
X128085070Y-98390000D01*
X124838730Y-98390000D02*
X126547400Y-98390000D01*
X124838730Y-95827000D02*
X124838730Y-98390000D01*
X126547400Y-95827000D02*
X124838730Y-95827000D01*
X124838730Y-97108500D02*
X126262620Y-97108500D01*
X123614460Y-97108500D02*
X124184010Y-98390000D01*
X122617730Y-97108500D02*
X123614460Y-97108500D01*
X123557500Y-97108500D02*
X122617730Y-97108500D01*
X123557500Y-95827000D02*
G75*
G02X123557500Y-97108500I0J-640750D01*
G01*
X122617730Y-95827000D02*
X123557500Y-95827000D01*
X122617730Y-98390000D02*
X122617730Y-95827000D01*
X121336500Y-97108500D02*
X120396730Y-97108500D01*
X121336500Y-95827000D02*
G75*
G02X121336500Y-97108500I0J-640750D01*
G01*
X120396730Y-95827000D02*
X121336500Y-95827000D01*
X120396730Y-98390000D02*
X120396730Y-95827000D01*
X126561500Y-79386500D02*
X125621730Y-79386500D01*
X126561500Y-78105000D02*
G75*
G02X126561500Y-79386500I0J-640750D01*
G01*
X125621730Y-78105000D02*
X126561500Y-78105000D01*
X125621730Y-80668000D02*
X125621730Y-78105000D01*
X124226570Y-80668000D02*
X124938510Y-78105000D01*
X123514620Y-78105000D02*
X124226570Y-80668000D01*
X122802680Y-80668000D02*
X123514620Y-78105000D01*
X122090730Y-78105000D02*
X122802680Y-80668000D01*
X111638860Y-115006110D02*
X112863400Y-113867000D01*
X112863400Y-116430000D02*
X111638860Y-115006110D01*
X111638860Y-115006110D02*
X112863400Y-116430000D01*
X111154730Y-115461760D02*
X111638860Y-115006110D01*
X111154730Y-116430000D02*
X111154730Y-115461760D01*
X111154730Y-113867000D02*
X111154730Y-116430000D01*
X109930460Y-115148500D02*
X110500010Y-116430000D01*
X108933730Y-115148500D02*
X109930460Y-115148500D01*
X109873500Y-115148500D02*
X108933730Y-115148500D01*
X109873500Y-113866999D02*
G75*
G02X109873500Y-115148501I0J-640751D01*
G01*
X108933730Y-113867000D02*
X109873500Y-113867000D01*
X108933730Y-116430000D02*
X108933730Y-113867000D01*
X107254460Y-113867000D02*
X108251180Y-116430000D01*
X106257730Y-116430000D02*
X107254460Y-113867000D01*
X106542510Y-115718060D02*
X107966400Y-115718060D01*
X105575180Y-113867000D02*
X105575180Y-116430000D01*
X104578460Y-115718060D02*
X105575180Y-113867000D01*
X103581730Y-113867000D02*
X104578460Y-115718060D01*
X103581730Y-116430000D02*
X103581730Y-113867000D01*
X111301180Y-95858000D02*
X111301180Y-98421000D01*
X110304460Y-97709060D02*
X111301180Y-95858000D01*
X109307730Y-95858000D02*
X110304460Y-97709060D01*
X109307730Y-98421000D02*
X109307730Y-95858000D01*
X108026500Y-97139500D02*
X107086730Y-97139500D01*
X108026500Y-95858000D02*
G75*
G02X108026500Y-97139500I0J-640750D01*
G01*
X107086730Y-95858000D02*
X108026500Y-95858000D01*
X107086730Y-98421000D02*
X107086730Y-95858000D01*
X104694730Y-95858000D02*
X104694730Y-98421000D01*
X106403400Y-95858000D02*
X104694730Y-95858000D01*
X104694730Y-97139500D02*
X106118620Y-97139500D01*
X110810070Y-80648000D02*
X111664400Y-78085000D01*
X109955730Y-78085000D02*
X110810070Y-80648000D01*
X108276460Y-78085000D02*
X109273180Y-80648000D01*
X107279730Y-80648000D02*
X108276460Y-78085000D01*
X107564510Y-79936060D02*
X108988400Y-79936060D01*
X106596400Y-80648000D02*
X106596400Y-78085000D01*
X104887730Y-78085000D02*
X106596400Y-80648000D01*
X104887730Y-80648000D02*
X104887730Y-78085000D01*
X93385942Y-80780008D02*
G75*
G02X92987251Y-80523706I142858J660468D01*
G01*
X94183323Y-80751528D02*
G75*
G02X93385943Y-80780006I-454304J1542948D01*
G01*
X94582007Y-80466739D02*
G75*
G02X94183319Y-80751516I-618127J443909D01*
G01*
X94325709Y-79669358D02*
G75*
G02X94582010Y-80466743I-166969J-493552D01*
G01*
X93328989Y-79327630D02*
X94325710Y-79669370D01*
X93328992Y-79327642D02*
G75*
G02X93072689Y-78530258I166968J493552D01*
G01*
X93072692Y-78530262D02*
G75*
G02X93471380Y-78245485I618128J-443908D01*
G01*
X93471376Y-78245472D02*
G75*
G02X94268756Y-78216995I454304J-1542948D01*
G01*
X94268757Y-78216994D02*
G75*
G02X94667448Y-78473295I-142857J-660466D01*
G01*
X91478070Y-79498500D02*
X92332400Y-78217000D01*
X91478070Y-80780000D02*
X91478070Y-79498500D01*
X91478070Y-79498500D02*
X91478070Y-80780000D01*
X90623730Y-78217000D02*
X91478070Y-79498500D01*
X88658942Y-80780008D02*
G75*
G02X88260251Y-80523706I142858J660468D01*
G01*
X89456323Y-80751529D02*
G75*
G02X88658943Y-80780006I-454303J1542949D01*
G01*
X89855007Y-80466739D02*
G75*
G02X89456319Y-80751516I-618127J443909D01*
G01*
X89598709Y-79669358D02*
G75*
G02X89855010Y-80466743I-166969J-493552D01*
G01*
X88601990Y-79327630D02*
X89598710Y-79669370D01*
X88601992Y-79327642D02*
G75*
G02X88345689Y-78530258I166968J493552D01*
G01*
X88345692Y-78530262D02*
G75*
G02X88744380Y-78245485I618128J-443908D01*
G01*
X88744376Y-78245472D02*
G75*
G02X89541756Y-78216995I454304J-1542948D01*
G01*
X89541757Y-78216994D02*
G75*
G02X89940448Y-78473295I-142857J-660466D01*
G01*
X95254070Y-95950000D02*
X95254070Y-98513000D01*
X96108400Y-95950000D02*
X95254070Y-95950000D01*
X94399730Y-95950000D02*
X96108400Y-95950000D01*
X92007730Y-98513000D02*
X93716400Y-98513000D01*
X92007730Y-95950000D02*
X92007730Y-98513000D01*
X93716400Y-95950000D02*
X92007730Y-95950000D01*
X92007730Y-97231500D02*
X93431620Y-97231500D01*
X90042942Y-98513008D02*
G75*
G02X89644251Y-98256706I142858J660468D01*
G01*
X90840323Y-98484529D02*
G75*
G02X90042943Y-98513006I-454303J1542949D01*
G01*
X91239007Y-98199739D02*
G75*
G02X90840319Y-98484516I-618127J443909D01*
G01*
X90982709Y-97402358D02*
G75*
G02X91239010Y-98199743I-166969J-493552D01*
G01*
X89985990Y-97060630D02*
X90982710Y-97402370D01*
X89985992Y-97060642D02*
G75*
G02X89729689Y-96263258I166968J493552D01*
G01*
X89729692Y-96263262D02*
G75*
G02X90128380Y-95978485I618128J-443908D01*
G01*
X90128376Y-95978472D02*
G75*
G02X90925756Y-95949995I454304J-1542948D01*
G01*
X90925757Y-95949994D02*
G75*
G02X91324448Y-96206295I-142857J-660466D01*
G01*
X87166730Y-96804330D02*
X87166730Y-97658670D01*
X87166730Y-96804330D02*
G75*
G02X88989310Y-96804330I911290J0D01*
G01*
X88989310Y-97658670D02*
X88989310Y-96804330D01*
X88989311Y-97658670D02*
G75*
G02X87166729Y-97658670I-911291J0D01*
G01*
X97158400Y-116593000D02*
X97158400Y-114030000D01*
X95449730Y-114030000D02*
X97158400Y-116593000D01*
X95449730Y-116593000D02*
X95449730Y-114030000D01*
X93770460Y-114030000D02*
X94767180Y-116593000D01*
X92773730Y-116593000D02*
X93770460Y-114030000D01*
X93058509Y-115881060D02*
X94482400Y-115881060D01*
X90666730Y-116593000D02*
X92090620Y-116593000D01*
X90666730Y-114030000D02*
X90666730Y-116593000D01*
X89385500Y-115311500D02*
X88445730Y-115311500D01*
X89385500Y-114029999D02*
G75*
G02X89385500Y-115311501I0J-640751D01*
G01*
X88445730Y-114030000D02*
X89385500Y-114030000D01*
X88445730Y-116593000D02*
X88445730Y-114030000D01*
X86053730Y-114030000D02*
X86053730Y-116593000D01*
X87762400Y-114030000D02*
X86053730Y-114030000D01*
X86053730Y-115311500D02*
X87477620Y-115311500D01*
X60198000Y-56896000D02*
X320548000Y-56896000D01*
X60198000Y-125476000D02*
X60198000Y-56896000D01*
X320548000Y-125476000D02*
X60198000Y-125476000D01*
X317053000Y-120800000D02*
G75*
G03X317053000Y-120800000I-1500000J0D01*
G01*
X317053000Y-60533000D02*
G75*
G03X317053000Y-60533000I-1500000J0D01*
G01*
X67595000Y-120800000D02*
G75*
G03X67595000Y-120800000I-1500000J0D01*
G01*
X67335000Y-60533000D02*
G75*
G03X67335000Y-60533000I-1500000J0D01*
G01*
X188525000Y-88848000D02*
G75*
G03X188525000Y-88848000I-1500000J0D01*
G01*
X203296500Y-66626000D02*
X203296500Y-76126000D01*
X203296500Y-66626000D02*
G75*
G02X204796500Y-65126000I1500000J0D01*
G01*
X226897500Y-65126000D02*
X204796500Y-65126000D01*
X226897500Y-65126000D02*
G75*
G02X228397500Y-66626000I0J-1500000D01*
G01*
X228397500Y-76126000D02*
X228397500Y-66626000D01*
X228397500Y-76126000D02*
G75*
G02X226897500Y-77626000I-1500000J0D01*
G01*
X204796500Y-77626000D02*
X226897500Y-77626000D01*
X204796500Y-77626000D02*
G75*
G02X203296500Y-76126000I0J1500000D01*
G01*
X167901500Y-65912000D02*
X167901500Y-75412000D01*
X167901500Y-65912000D02*
G75*
G02X169401500Y-64412000I1500000J0D01*
G01*
X185880500Y-64412000D02*
X169401500Y-64412000D01*
X185880500Y-64412000D02*
G75*
G02X187380500Y-65912000I0J-1500000D01*
G01*
X187380500Y-75412000D02*
X187380500Y-65912000D01*
X187380500Y-75412000D02*
G75*
G02X185880500Y-76912000I-1500000J0D01*
G01*
X169401500Y-76912000D02*
X185880500Y-76912000D01*
X169401500Y-76912000D02*
G75*
G02X167901500Y-75412000I0J1500000D01*
G01*
X167901000Y-83412000D02*
X167901000Y-92912000D01*
X167901000Y-83412000D02*
G75*
G02X169401000Y-81912000I1500000J0D01*
G01*
X178901000Y-81912000D02*
X169401000Y-81912000D01*
X178901000Y-81912000D02*
G75*
G02X180401000Y-83412000I0J-1500000D01*
G01*
X180401000Y-92912000D02*
X180401000Y-83412000D01*
X180401000Y-92912000D02*
G75*
G02X178901000Y-94412000I-1500000J0D01*
G01*
X169401000Y-94412000D02*
X178901000Y-94412000D01*
X169401000Y-94412000D02*
G75*
G02X167901000Y-92912000I0J1500000D01*
G01*
X226401000Y-100912000D02*
X226401000Y-110412000D01*
X226401000Y-100912000D02*
G75*
G02X227901000Y-99412000I1500000J0D01*
G01*
X237401000Y-99412000D02*
X227901000Y-99412000D01*
X237401000Y-99412000D02*
G75*
G02X238901000Y-100912000I0J-1500000D01*
G01*
X238901000Y-110412000D02*
X238901000Y-100912000D01*
X238901000Y-110412000D02*
G75*
G02X237401000Y-111912000I-1500000J0D01*
G01*
X227901000Y-111912000D02*
X237401000Y-111912000D01*
X227901000Y-111912000D02*
G75*
G02X226401000Y-110412000I0J1500000D01*
G01*
X226401000Y-83514000D02*
X226401000Y-93014000D01*
X226401000Y-83514000D02*
G75*
G02X227901000Y-82014000I1500000J0D01*
G01*
X237401000Y-82014000D02*
X227901000Y-82014000D01*
X237401000Y-82014000D02*
G75*
G02X238901000Y-83514000I0J-1500000D01*
G01*
X238901000Y-93014000D02*
X238901000Y-83514000D01*
X238901000Y-93014000D02*
G75*
G02X237401000Y-94514000I-1500000J0D01*
G01*
X227901000Y-94514000D02*
X237401000Y-94514000D01*
X227901000Y-94514000D02*
G75*
G02X226401000Y-93014000I0J1500000D01*
G01*
X209901000Y-100912000D02*
X209901000Y-110412000D01*
X209901000Y-100912000D02*
G75*
G02X211401000Y-99412000I1500000J0D01*
G01*
X220901000Y-99412000D02*
X211401000Y-99412000D01*
X220901000Y-99412000D02*
G75*
G02X222401000Y-100912000I0J-1500000D01*
G01*
X222401000Y-110412000D02*
X222401000Y-100912000D01*
X222401000Y-110412000D02*
G75*
G02X220901000Y-111912000I-1500000J0D01*
G01*
X211401000Y-111912000D02*
X220901000Y-111912000D01*
X211401000Y-111912000D02*
G75*
G02X209901000Y-110412000I0J1500000D01*
G01*
X209901000Y-83514000D02*
X209901000Y-93014000D01*
X209901000Y-83514000D02*
G75*
G02X211401000Y-82014000I1500000J0D01*
G01*
X220901000Y-82014000D02*
X211401000Y-82014000D01*
X220901000Y-82014000D02*
G75*
G02X222401000Y-83514000I0J-1500000D01*
G01*
X222401000Y-93014000D02*
X222401000Y-83514000D01*
X222401000Y-93014000D02*
G75*
G02X220901000Y-94514000I-1500000J0D01*
G01*
X211401000Y-94514000D02*
X220901000Y-94514000D01*
X211401000Y-94514000D02*
G75*
G02X209901000Y-93014000I0J1500000D01*
G01*
X193401000Y-100912000D02*
X193401000Y-110412000D01*
X193401000Y-100912000D02*
G75*
G02X194901000Y-99412000I1500000J0D01*
G01*
X204401000Y-99412000D02*
X194901000Y-99412000D01*
X204401000Y-99412000D02*
G75*
G02X205901000Y-100912000I0J-1500000D01*
G01*
X205901000Y-110412000D02*
X205901000Y-100912000D01*
X205901000Y-110412000D02*
G75*
G02X204401000Y-111912000I-1500000J0D01*
G01*
X194901000Y-111912000D02*
X204401000Y-111912000D01*
X194901000Y-111912000D02*
G75*
G02X193401000Y-110412000I0J1500000D01*
G01*
X193401000Y-83514000D02*
X193401000Y-93014000D01*
X193401000Y-83514000D02*
G75*
G02X194901000Y-82014000I1500000J0D01*
G01*
X204401000Y-82014000D02*
X194901000Y-82014000D01*
X204401000Y-82014000D02*
G75*
G02X205901000Y-83514000I0J-1500000D01*
G01*
X205901000Y-93014000D02*
X205901000Y-83514000D01*
X205901000Y-93014000D02*
G75*
G02X204401000Y-94514000I-1500000J0D01*
G01*
X194901000Y-94514000D02*
X204401000Y-94514000D01*
X194901000Y-94514000D02*
G75*
G02X193401000Y-93014000I0J1500000D01*
G01*
X163582000Y-71087000D02*
G75*
G03X163582000Y-71087000I-6250000J0D01*
G01*
X167901000Y-100912000D02*
X167901000Y-110412000D01*
X167901000Y-100912000D02*
G75*
G02X169401000Y-99412000I1500000J0D01*
G01*
X178901000Y-99412000D02*
X169401000Y-99412000D01*
X178901000Y-99412000D02*
G75*
G02X180401000Y-100912000I0J-1500000D01*
G01*
X180401000Y-110412000D02*
X180401000Y-100912000D01*
X180401000Y-110412000D02*
G75*
G02X178901000Y-111912000I-1500000J0D01*
G01*
X169401000Y-111912000D02*
X178901000Y-111912000D01*
X169401000Y-111912000D02*
G75*
G02X167901000Y-110412000I0J1500000D01*
G01*
X151401000Y-100912000D02*
X151401000Y-110412000D01*
X151401000Y-100912000D02*
G75*
G02X152901000Y-99412000I1500000J0D01*
G01*
X162401000Y-99412000D02*
X152901000Y-99412000D01*
X162401000Y-99412000D02*
G75*
G02X163901000Y-100912000I0J-1500000D01*
G01*
X163901000Y-110412000D02*
X163901000Y-100912000D01*
X163901000Y-110412000D02*
G75*
G02X162401000Y-111912000I-1500000J0D01*
G01*
X152901000Y-111912000D02*
X162401000Y-111912000D01*
X152901000Y-111912000D02*
G75*
G02X151401000Y-110412000I0J1500000D01*
G01*
X134901000Y-100912000D02*
X134901000Y-110412000D01*
X134901000Y-100912000D02*
G75*
G02X136401000Y-99412000I1500000J0D01*
G01*
X145901000Y-99412000D02*
X136401000Y-99412000D01*
X145901000Y-99412000D02*
G75*
G02X147401000Y-100912000I0J-1500000D01*
G01*
X147401000Y-110412000D02*
X147401000Y-100912000D01*
X147401000Y-110412000D02*
G75*
G02X145901000Y-111912000I-1500000J0D01*
G01*
X136401000Y-111912000D02*
X145901000Y-111912000D01*
X136401000Y-111912000D02*
G75*
G02X134901000Y-110412000I0J1500000D01*
G01*
X134901000Y-83514000D02*
X134901000Y-93014000D01*
X134901000Y-83514000D02*
G75*
G02X136401000Y-82014000I1500000J0D01*
G01*
X145901000Y-82014000D02*
X136401000Y-82014000D01*
X145901000Y-82014000D02*
G75*
G02X147401000Y-83514000I0J-1500000D01*
G01*
X147401000Y-93014000D02*
X147401000Y-83514000D01*
X147401000Y-93014000D02*
G75*
G02X145901000Y-94514000I-1500000J0D01*
G01*
X136401000Y-94514000D02*
X145901000Y-94514000D01*
X136401000Y-94514000D02*
G75*
G02X134901000Y-93014000I0J1500000D01*
G01*
X134901000Y-66117000D02*
X134901000Y-75617000D01*
X134901000Y-66117000D02*
G75*
G02X136401000Y-64617000I1500000J0D01*
G01*
X145901000Y-64617000D02*
X136401000Y-64617000D01*
X145901000Y-64617000D02*
G75*
G02X147401000Y-66117000I0J-1500000D01*
G01*
X147401000Y-75617000D02*
X147401000Y-66117000D01*
X147401000Y-75617000D02*
G75*
G02X145901000Y-77117000I-1500000J0D01*
G01*
X136401000Y-77117000D02*
X145901000Y-77117000D01*
X136401000Y-77117000D02*
G75*
G02X134901000Y-75617000I0J1500000D01*
G01*
X118401000Y-100912000D02*
X118401000Y-110412000D01*
X118401000Y-100912000D02*
G75*
G02X119901000Y-99412000I1500000J0D01*
G01*
X129401000Y-99412000D02*
X119901000Y-99412000D01*
X129401000Y-99412000D02*
G75*
G02X130901000Y-100912000I0J-1500000D01*
G01*
X130901000Y-110412000D02*
X130901000Y-100912000D01*
X130901000Y-110412000D02*
G75*
G02X129401000Y-111912000I-1500000J0D01*
G01*
X119901000Y-111912000D02*
X129401000Y-111912000D01*
X119901000Y-111912000D02*
G75*
G02X118401000Y-110412000I0J1500000D01*
G01*
X118401000Y-83514000D02*
X118401000Y-93014000D01*
X118401000Y-83514000D02*
G75*
G02X119901000Y-82014000I1500000J0D01*
G01*
X129401000Y-82014000D02*
X119901000Y-82014000D01*
X129401000Y-82014000D02*
G75*
G02X130901000Y-83514000I0J-1500000D01*
G01*
X130901000Y-93014000D02*
X130901000Y-83514000D01*
X130901000Y-93014000D02*
G75*
G02X129401000Y-94514000I-1500000J0D01*
G01*
X119901000Y-94514000D02*
X129401000Y-94514000D01*
X119901000Y-94514000D02*
G75*
G02X118401000Y-93014000I0J1500000D01*
G01*
X118401000Y-66117000D02*
X118401000Y-75617000D01*
X118401000Y-66117000D02*
G75*
G02X119901000Y-64617000I1500000J0D01*
G01*
X129401000Y-64617000D02*
X119901000Y-64617000D01*
X129401000Y-64617000D02*
G75*
G02X130901000Y-66117000I0J-1500000D01*
G01*
X130901000Y-75617000D02*
X130901000Y-66117000D01*
X130901000Y-75617000D02*
G75*
G02X129401000Y-77117000I-1500000J0D01*
G01*
X119901000Y-77117000D02*
X129401000Y-77117000D01*
X119901000Y-77117000D02*
G75*
G02X118401000Y-75617000I0J1500000D01*
G01*
X101901000Y-100912000D02*
X101901000Y-110412000D01*
X101901000Y-100912000D02*
G75*
G02X103401000Y-99412000I1500000J0D01*
G01*
X112901000Y-99412000D02*
X103401000Y-99412000D01*
X112901000Y-99412000D02*
G75*
G02X114401000Y-100912000I0J-1500000D01*
G01*
X114401000Y-110412000D02*
X114401000Y-100912000D01*
X114401000Y-110412000D02*
G75*
G02X112901000Y-111912000I-1500000J0D01*
G01*
X103401000Y-111912000D02*
X112901000Y-111912000D01*
X103401000Y-111912000D02*
G75*
G02X101901000Y-110412000I0J1500000D01*
G01*
X101901000Y-83514000D02*
X101901000Y-93014000D01*
X101901000Y-83514000D02*
G75*
G02X103401000Y-82014000I1500000J0D01*
G01*
X112901000Y-82014000D02*
X103401000Y-82014000D01*
X112901000Y-82014000D02*
G75*
G02X114401000Y-83514000I0J-1500000D01*
G01*
X114401000Y-93014000D02*
X114401000Y-83514000D01*
X114401000Y-93014000D02*
G75*
G02X112901000Y-94514000I-1500000J0D01*
G01*
X103401000Y-94514000D02*
X112901000Y-94514000D01*
X103401000Y-94514000D02*
G75*
G02X101901000Y-93014000I0J1500000D01*
G01*
X101901000Y-66117000D02*
X101901000Y-75617000D01*
X101901000Y-66117000D02*
G75*
G02X103401000Y-64617000I1500000J0D01*
G01*
X112901000Y-64617000D02*
X103401000Y-64617000D01*
X112901000Y-64617000D02*
G75*
G02X114401000Y-66117000I0J-1500000D01*
G01*
X114401000Y-75617000D02*
X114401000Y-66117000D01*
X114401000Y-75617000D02*
G75*
G02X112901000Y-77117000I-1500000J0D01*
G01*
X103401000Y-77117000D02*
X112901000Y-77117000D01*
X103401000Y-77117000D02*
G75*
G02X101901000Y-75617000I0J1500000D01*
G01*
X85401000Y-100912000D02*
X85401000Y-110412000D01*
X85401000Y-100912000D02*
G75*
G02X86901000Y-99412000I1500000J0D01*
G01*
X96401000Y-99412000D02*
X86901000Y-99412000D01*
X320548000Y-56896000D02*
X320548000Y-125476000D01*
M02*
