M48
; DRILL file {KiCad (5.1.4)-1} date 08/18/19 12:41:52
; FORMAT={-:-/ absolute / inch / decimal}
; #@! TF.CreationDate,2019-08-18T12:41:52-04:00
; #@! TF.GenerationSoftware,Kicad,Pcbnew,(5.1.4)-1
; #@! TF.FileFunction,Plated,1,2,PTH
FMAT,2
INCH
T1C0.0157
T2C0.0315
T3C0.0354
T4C0.0394
T5C0.0433
%
G90
G05
T1
X7.0037Y-3.1529
X9.6336Y-3.2577
X9.6691Y-3.2844
X9.6714Y-3.2157
T2
X9.04Y-2.665
X9.04Y-2.965
T3
X8.75Y-2.75
X8.75Y-2.85
T4
X10.008Y-2.642
X10.108Y-2.642
X10.208Y-2.642
X10.308Y-2.642
X10.408Y-2.642
X10.508Y-2.642
X10.868Y-4.53
X10.968Y-4.53
X11.068Y-4.53
X11.168Y-4.53
X11.268Y-4.53
X11.368Y-4.53
X11.468Y-4.53
X11.568Y-4.53
X11.668Y-4.53
X11.768Y-4.53
X8.208Y-3.165
X8.308Y-3.165
X8.408Y-3.165
X8.508Y-3.165
X8.608Y-3.165
X8.708Y-3.165
X8.808Y-3.165
X8.908Y-3.165
X9.008Y-3.165
X9.108Y-3.165
X9.208Y-3.165
X9.308Y-3.165
X9.408Y-3.165
X9.508Y-3.165
X9.608Y-3.165
X9.24Y-2.64
X9.3384Y-2.64
X10.708Y-2.642
X10.808Y-2.642
X10.908Y-2.642
X11.008Y-2.642
X11.108Y-2.642
X11.208Y-2.642
X11.308Y-2.642
X11.408Y-2.642
X10.008Y-4.53
X10.108Y-4.53
X10.208Y-4.53
X10.308Y-4.53
X10.408Y-4.53
X10.508Y-4.53
X10.608Y-4.53
X10.708Y-4.53
X9.59Y-2.64
X9.6884Y-2.64
X8.208Y-3.765
X8.308Y-3.765
X8.408Y-3.765
X8.508Y-3.765
X8.608Y-3.765
X8.708Y-3.765
X8.808Y-3.765
X8.908Y-3.765
X9.008Y-3.765
X9.108Y-3.765
X9.208Y-3.765
X9.308Y-3.765
X9.408Y-3.765
X9.508Y-3.765
X9.608Y-3.765
T5
X6.735Y-3.365
X6.735Y-3.5422
X6.9909Y-3.365
X6.9909Y-3.5422
X11.09Y-3.375
X11.09Y-3.5522
X11.3459Y-3.375
X11.3459Y-3.5522
X8.38Y-4.06
X8.38Y-4.2372
X8.6359Y-4.06
X8.6359Y-4.2372
X11.87Y-3.2
X11.87Y-3.3772
X12.1259Y-3.2
X12.1259Y-3.3772
X4.785Y-2.695
X4.785Y-2.8722
X5.0409Y-2.695
X5.0409Y-2.8722
X4.78Y-4.07
X4.78Y-4.2472
X5.0359Y-4.07
X5.0359Y-4.2472
X2.785Y-3.2
X2.785Y-3.3772
X3.0409Y-3.2
X3.0409Y-3.3772
X7.73Y-4.06
X7.73Y-4.2372
X7.9859Y-4.06
X7.9859Y-4.2372
X10.09Y-2.83
X10.09Y-3.0072
X10.3459Y-2.83
X10.3459Y-3.0072
X10.84Y-4.085
X10.84Y-4.2622
X11.0959Y-4.085
X11.0959Y-4.2622
X3.49Y-4.07
X3.49Y-4.2472
X3.7459Y-4.07
X3.7459Y-4.2472
X5.425Y-4.07
X5.425Y-4.2472
X5.6809Y-4.07
X5.6809Y-4.2472
X4.13Y-2.695
X4.13Y-2.8722
X4.3859Y-2.695
X4.3859Y-2.8722
X6.07Y-3.375
X6.07Y-3.5522
X6.3259Y-3.375
X6.3259Y-3.5522
X5.435Y-2.695
X5.435Y-2.8722
X5.6909Y-2.695
X5.6909Y-2.8722
X4.79Y-3.375
X4.79Y-3.5522
X5.0459Y-3.375
X5.0459Y-3.5522
X7.73Y-3.365
X7.73Y-3.5422
X7.9859Y-3.365
X7.9859Y-3.5422
X3.49Y-3.375
X3.49Y-3.5522
X3.7459Y-3.375
X3.7459Y-3.5522
X11.09Y-2.83
X11.09Y-3.0072
X11.3459Y-2.83
X11.3459Y-3.0072
X5.435Y-3.375
X5.435Y-3.5522
X5.6909Y-3.375
X5.6909Y-3.5522
X11.87Y-3.745
X11.87Y-3.9222
X12.1259Y-3.745
X12.1259Y-3.9222
X9.035Y-4.06
X9.035Y-4.2372
X9.2909Y-4.06
X9.2909Y-4.2372
X4.135Y-3.375
X4.135Y-3.5522
X4.3909Y-3.375
X4.3909Y-3.5522
X8.225Y-2.715
X8.225Y-2.8922
X8.4809Y-2.715
X8.4809Y-2.8922
X6.065Y-2.695
X6.065Y-2.8722
X6.3209Y-2.695
X6.3209Y-2.8722
X9.035Y-3.365
X9.035Y-3.5422
X9.2909Y-3.365
X9.2909Y-3.5422
X4.13Y-4.07
X4.13Y-4.2472
X4.3859Y-4.07
X4.3859Y-4.2472
X6.09Y-4.07
X6.09Y-4.2472
X6.3459Y-4.07
X6.3459Y-4.2472
X6.73Y-4.07
X6.73Y-4.2472
X6.9859Y-4.07
X6.9859Y-4.2472
X10.34Y-4.085
X10.34Y-4.2622
X10.5959Y-4.085
X10.5959Y-4.2622
X8.385Y-3.365
X8.385Y-3.5422
X8.6409Y-3.365
X8.6409Y-3.5422
X2.785Y-3.745
X2.785Y-3.9222
X3.0409Y-3.745
X3.0409Y-3.9222
X10.09Y-3.375
X10.09Y-3.5522
X10.3459Y-3.375
X10.3459Y-3.5522
X3.485Y-2.695
X3.485Y-2.8722
X3.7409Y-2.695
X3.7409Y-2.8722
X6.88Y-2.69
X6.88Y-2.8672
X7.1359Y-2.69
X7.1359Y-2.8672
T0
M30
