  0
SECTION
  2
HEADER
  9
$MEASUREMENT
  70
  1
  9
$INSUNITS
  70
  4
  0
ENDSEC
  0
SECTION
  2
TABLES
  0
TABLE
  2
LTYPE
 70
     1
  0
LTYPE
  2
CONTINUOUS
 70
    64
  3
Ausgezogene Linie
 72
    65
 73
     0
 40
0.0
  0
ENDTAB
  0
TABLE
  2
LAYER
 70
     3
  0
LAYER
  2
Contour
 70
    64
 62
     7
  6
CONTINUOUS
  0
LAYER
  2
Engraving
 70
    64
 62
     7
  6
CONTINUOUS
  0
LAYER
  2
Reference_points
 70
    64
 62
     1
  6
CONTINUOUS
  0
ENDTAB
  0
TABLE
  2
STYLE
 70
     1
  0
STYLE
  2
TXT
 70
    64
 40
0.0
 41
1.0
 50
0.0
 71
     0
 42
3.500000
  3
TXT
  0
ENDTAB
  0
ENDSEC
  0
SECTION
  2
BLOCKS
  0
ENDSEC
  0
SECTION
  2
ENTITIES
  0
LINE
  8
Contour
 62
   7
 39
0.100
  6
CONTINUOUS
 10
260.35000
 20
71.12000
 30
 0
 11
260.35000
 21
0.00000
  0
LINE
  8
Contour
 62
   7
 39
0.100
  6
CONTINUOUS
 10
260.35000
 20
0.00000
 30
 0
 11
0.00000
 21
0.00000
  0
LINE
  8
Contour
 62
   7
 39
0.100
  6
CONTINUOUS
 10
0.00000
 20
0.00000
 30
 0
 11
0.00000
 21
71.12000
  0
LINE
  8
Contour
 62
   7
 39
0.100
  6
CONTINUOUS
 10
0.00000
 20
71.12000
 30
 0
 11
260.35000
 21
71.12000
  0
LINE
  8
Engraving
 62
   255
 39
0.400
  6
CONTINUOUS
 10
25.85573
 20
10.16450
 30
 0
 11
27.27962
 21
10.16450
  0
LINE
  8
Engraving
 62
   255
 39
0.400
  6
CONTINUOUS
 10
27.56440
 20
11.44600
 30
 0
 11
25.85573
 21
11.44600
  0
LINE
  8
Engraving
 62
   255
 39
0.400
  6
CONTINUOUS
 10
25.85573
 20
11.44600
 30
 0
 11
25.85573
 21
8.88300
  0
LINE
  8
Engraving
 62
   255
 39
0.400
  6
CONTINUOUS
 10
28.24773
 20
8.88300
 30
 0
 11
28.24773
 21
11.44600
  0
LINE
  8
Engraving
 62
   255
 39
0.400
  6
CONTINUOUS
 10
28.24773
 20
11.44600
 30
 0
 11
29.18750
 21
11.44600
  0
ARC
  8
Engraving
 62
   255
 39
0.400
  6
CONTINUOUS
 10
29.18750
 20
10.80525
 30
 0
 40
0.64075
 50
-90.00000
 51
90.00000
  0
LINE
  8
Engraving
 62
   255
 39
0.400
  6
CONTINUOUS
 10
29.18750
 20
10.16450
 30
 0
 11
28.24773
 21
10.16450
  0
LINE
  8
Engraving
 62
   255
 39
0.400
  6
CONTINUOUS
 10
30.46873
 20
11.44600
 30
 0
 11
30.46873
 21
8.88300
  0
LINE
  8
Engraving
 62
   255
 39
0.400
  6
CONTINUOUS
 10
30.46873
 20
8.88300
 30
 0
 11
31.89262
 21
8.88300
  0
LINE
  8
Engraving
 62
   255
 39
0.400
  6
CONTINUOUS
 10
32.86051
 20
9.59494
 30
 0
 11
34.28440
 21
9.59494
  0
LINE
  8
Engraving
 62
   255
 39
0.400
  6
CONTINUOUS
 10
32.57573
 20
8.88300
 30
 0
 11
33.57246
 21
11.44600
  0
LINE
  8
Engraving
 62
   255
 39
0.400
  6
CONTINUOUS
 10
33.57246
 20
11.44600
 30
 0
 11
34.56918
 21
8.88300
  0
LINE
  8
Engraving
 62
   255
 39
0.400
  6
CONTINUOUS
 10
35.25173
 20
8.88300
 30
 0
 11
35.25173
 21
11.44600
  0
LINE
  8
Engraving
 62
   255
 39
0.400
  6
CONTINUOUS
 10
35.25173
 20
11.44600
 30
 0
 11
36.96040
 21
8.88300
  0
LINE
  8
Engraving
 62
   255
 39
0.400
  6
CONTINUOUS
 10
36.96040
 20
8.88300
 30
 0
 11
36.96040
 21
11.44600
  0
ARC
  8
Engraving
 62
   255
 39
0.400
  6
CONTINUOUS
 10
27.88002
 20
27.81733
 30
 0
 40
0.91129
 50
180.00000
 51
360.00000
  0
LINE
  8
Engraving
 62
   255
 39
0.400
  6
CONTINUOUS
 10
28.79131
 20
27.81733
 30
 0
 11
28.79131
 21
28.67167
  0
ARC
  8
Engraving
 62
   255
 39
0.400
  6
CONTINUOUS
 10
27.88002
 20
28.67167
 30
 0
 40
0.91129
 50
0.00000
 51
180.00000
  0
LINE
  8
Engraving
 62
   255
 39
0.400
  6
CONTINUOUS
 10
26.96873
 20
28.67167
 30
 0
 11
26.96873
 21
27.81733
  0
ARC
  8
Engraving
 62
   255
 39
0.400
  6
CONTINUOUS
 10
30.58490
 20
28.86554
 30
 0
 40
0.67574
 50
36.73449
 51
77.79505
  0
ARC
  8
Engraving
 62
   255
 39
0.400
  6
CONTINUOUS
 10
30.38468
 20
27.95458
 30
 0
 40
1.60844
 50
77.68434
 51
106.40648
  0
ARC
  8
Engraving
 62
   255
 39
0.400
  6
CONTINUOUS
 10
30.14982
 20
28.76883
 30
 0
 40
0.76101
 50
106.75938
 51
144.31597
  0
ARC
  8
Engraving
 62
   255
 39
0.400
  6
CONTINUOUS
 10
29.95496
 20
28.90891
 30
 0
 40
0.52103
 50
144.32844
 51
251.30934
  0
LINE
  8
Engraving
 62
   255
 39
0.400
  6
CONTINUOUS
 10
29.78799
 20
28.41537
 30
 0
 11
30.78471
 21
28.07363
  0
ARC
  8
Engraving
 62
   255
 39
0.400
  6
CONTINUOUS
 10
30.61774
 20
27.58009
 30
 0
 40
0.52103
 50
-35.67156
 51
71.30934
  0
ARC
  8
Engraving
 62
   255
 39
0.400
  6
CONTINUOUS
 10
30.42288
 20
27.72017
 30
 0
 40
0.76101
 50
286.75938
 51
324.31597
  0
ARC
  8
Engraving
 62
   255
 39
0.400
  6
CONTINUOUS
 10
30.18802
 20
28.53442
 30
 0
 40
1.60844
 50
257.68434
 51
286.40648
  0
ARC
  8
Engraving
 62
   255
 39
0.400
  6
CONTINUOUS
 10
29.98780
 20
27.62346
 30
 0
 40
0.67574
 50
216.73449
 51
257.79505
  0
LINE
  8
Engraving
 62
   255
 39
0.400
  6
CONTINUOUS
 10
31.80973
 20
28.24450
 30
 0
 11
33.23362
 21
28.24450
  0
LINE
  8
Engraving
 62
   255
 39
0.400
  6
CONTINUOUS
 10
33.51840
 20
29.52600
 30
 0
 11
31.80973
 21
29.52600
  0
LINE
  8
Engraving
 62
   255
 39
0.400
  6
CONTINUOUS
 10
31.80973
 20
29.52600
 30
 0
 11
31.80973
 21
26.96300
  0
LINE
  8
Engraving
 62
   255
 39
0.400
  6
CONTINUOUS
 10
31.80973
 20
26.96300
 30
 0
 11
33.51840
 21
26.96300
  0
LINE
  8
Engraving
 62
   255
 39
0.400
  6
CONTINUOUS
 10
34.20173
 20
29.52600
 30
 0
 11
35.91040
 21
29.52600
  0
LINE
  8
Engraving
 62
   255
 39
0.400
  6
CONTINUOUS
 10
35.91040
 20
29.52600
 30
 0
 11
35.05607
 21
29.52600
  0
LINE
  8
Engraving
 62
   255
 39
0.400
  6
CONTINUOUS
 10
35.05607
 20
29.52600
 30
 0
 11
35.05607
 21
26.96300
  0
ARC
  8
Engraving
 62
   255
 39
0.400
  6
CONTINUOUS
 10
29.20090
 20
46.59854
 30
 0
 40
0.67574
 50
36.73449
 51
77.79505
  0
ARC
  8
Engraving
 62
   255
 39
0.400
  6
CONTINUOUS
 10
29.00068
 20
45.68758
 30
 0
 40
1.60844
 50
77.68434
 51
106.40648
  0
ARC
  8
Engraving
 62
   255
 39
0.400
  6
CONTINUOUS
 10
28.76582
 20
46.50183
 30
 0
 40
0.76101
 50
106.75938
 51
144.31597
  0
ARC
  8
Engraving
 62
   255
 39
0.400
  6
CONTINUOUS
 10
28.57096
 20
46.64191
 30
 0
 40
0.52103
 50
144.32844
 51
251.30934
  0
LINE
  8
Engraving
 62
   255
 39
0.400
  6
CONTINUOUS
 10
28.40399
 20
46.14837
 30
 0
 11
29.40071
 21
45.80663
  0
ARC
  8
Engraving
 62
   255
 39
0.400
  6
CONTINUOUS
 10
29.23374
 20
45.31309
 30
 0
 40
0.52103
 50
-35.67156
 51
71.30934
  0
ARC
  8
Engraving
 62
   255
 39
0.400
  6
CONTINUOUS
 10
29.03888
 20
45.45317
 30
 0
 40
0.76101
 50
286.75938
 51
324.31597
  0
ARC
  8
Engraving
 62
   255
 39
0.400
  6
CONTINUOUS
 10
28.80402
 20
46.26742
 30
 0
 40
1.60844
 50
257.68434
 51
286.40648
  0
ARC
  8
Engraving
 62
   255
 39
0.400
  6
CONTINUOUS
 10
28.60380
 20
45.35646
 30
 0
 40
0.67574
 50
216.73449
 51
257.79505
  0
LINE
  8
Engraving
 62
   255
 39
0.400
  6
CONTINUOUS
 10
30.42573
 20
47.25900
 30
 0
 11
31.28007
 21
45.97750
  0
LINE
  8
Engraving
 62
   255
 39
0.400
  6
CONTINUOUS
 10
31.28007
 20
45.97750
 30
 0
 11
31.28007
 21
44.69600
  0
LINE
  8
Engraving
 62
   255
 39
0.400
  6
CONTINUOUS
 10
31.28007
 20
44.69600
 30
 0
 11
31.28007
 21
45.97750
  0
LINE
  8
Engraving
 62
   255
 39
0.400
  6
CONTINUOUS
 10
31.28007
 20
45.97750
 30
 0
 11
32.13440
 21
47.25900
  0
ARC
  8
Engraving
 62
   255
 39
0.400
  6
CONTINUOUS
 10
33.92790
 20
46.59854
 30
 0
 40
0.67574
 50
36.73449
 51
77.79505
  0
ARC
  8
Engraving
 62
   255
 39
0.400
  6
CONTINUOUS
 10
33.72768
 20
45.68758
 30
 0
 40
1.60844
 50
77.68434
 51
106.40648
  0
ARC
  8
Engraving
 62
   255
 39
0.400
  6
CONTINUOUS
 10
33.49282
 20
46.50183
 30
 0
 40
0.76101
 50
106.75938
 51
144.31597
  0
ARC
  8
Engraving
 62
   255
 39
0.400
  6
CONTINUOUS
 10
33.29796
 20
46.64191
 30
 0
 40
0.52103
 50
144.32844
 51
251.30934
  0
LINE
  8
Engraving
 62
   255
 39
0.400
  6
CONTINUOUS
 10
33.13099
 20
46.14837
 30
 0
 11
34.12771
 21
45.80663
  0
ARC
  8
Engraving
 62
   255
 39
0.400
  6
CONTINUOUS
 10
33.96074
 20
45.31309
 30
 0
 40
0.52103
 50
-35.67156
 51
71.30934
  0
ARC
  8
Engraving
 62
   255
 39
0.400
  6
CONTINUOUS
 10
33.76588
 20
45.45317
 30
 0
 40
0.76101
 50
286.75938
 51
324.31597
  0
ARC
  8
Engraving
 62
   255
 39
0.400
  6
CONTINUOUS
 10
33.53102
 20
46.26742
 30
 0
 40
1.60844
 50
257.68434
 51
286.40648
  0
ARC
  8
Engraving
 62
   255
 39
0.400
  6
CONTINUOUS
 10
33.33080
 20
45.35646
 30
 0
 40
0.67574
 50
216.73449
 51
257.79505
  0
LINE
  8
Engraving
 62
   255
 39
0.400
  6
CONTINUOUS
 10
44.68973
 20
44.82800
 30
 0
 11
44.68973
 21
47.39100
  0
LINE
  8
Engraving
 62
   255
 39
0.400
  6
CONTINUOUS
 10
44.68973
 20
47.39100
 30
 0
 11
46.39840
 21
44.82800
  0
LINE
  8
Engraving
 62
   255
 39
0.400
  6
CONTINUOUS
 10
46.39840
 20
44.82800
 30
 0
 11
46.39840
 21
47.39100
  0
LINE
  8
Engraving
 62
   255
 39
0.400
  6
CONTINUOUS
 10
47.36651
 20
45.53994
 30
 0
 11
48.79040
 21
45.53994
  0
LINE
  8
Engraving
 62
   255
 39
0.400
  6
CONTINUOUS
 10
47.08173
 20
44.82800
 30
 0
 11
48.07846
 21
47.39100
  0
LINE
  8
Engraving
 62
   255
 39
0.400
  6
CONTINUOUS
 10
48.07846
 20
47.39100
 30
 0
 11
49.07518
 21
44.82800
  0
LINE
  8
Engraving
 62
   255
 39
0.400
  6
CONTINUOUS
 10
49.75773
 20
47.39100
 30
 0
 11
50.61207
 21
44.82800
  0
LINE
  8
Engraving
 62
   255
 39
0.400
  6
CONTINUOUS
 10
50.61207
 20
44.82800
 30
 0
 11
51.46640
 21
47.39100
  0
LINE
  8
Engraving
 62
   255
 39
0.400
  6
CONTINUOUS
 10
44.49673
 20
28.33650
 30
 0
 11
45.92062
 21
28.33650
  0
LINE
  8
Engraving
 62
   255
 39
0.400
  6
CONTINUOUS
 10
46.20540
 20
29.61800
 30
 0
 11
44.49673
 21
29.61800
  0
LINE
  8
Engraving
 62
   255
 39
0.400
  6
CONTINUOUS
 10
44.49673
 20
29.61800
 30
 0
 11
44.49673
 21
27.05500
  0
LINE
  8
Engraving
 62
   255
 39
0.400
  6
CONTINUOUS
 10
46.88873
 20
27.05500
 30
 0
 11
46.88873
 21
29.61800
  0
LINE
  8
Engraving
 62
   255
 39
0.400
  6
CONTINUOUS
 10
46.88873
 20
29.61800
 30
 0
 11
47.82850
 21
29.61800
  0
ARC
  8
Engraving
 62
   255
 39
0.400
  6
CONTINUOUS
 10
47.82850
 20
28.97725
 30
 0
 40
0.64075
 50
-90.00000
 51
90.00000
  0
LINE
  8
Engraving
 62
   255
 39
0.400
  6
CONTINUOUS
 10
47.82850
 20
28.33650
 30
 0
 11
46.88873
 21
28.33650
  0
LINE
  8
Engraving
 62
   255
 39
0.400
  6
CONTINUOUS
 10
49.10973
 20
27.05500
 30
 0
 11
49.10973
 21
29.61800
  0
LINE
  8
Engraving
 62
   255
 39
0.400
  6
CONTINUOUS
 10
49.10973
 20
29.61800
 30
 0
 11
50.10646
 21
27.76694
  0
LINE
  8
Engraving
 62
   255
 39
0.400
  6
CONTINUOUS
 10
50.10646
 20
27.76694
 30
 0
 11
51.10318
 21
29.61800
  0
LINE
  8
Engraving
 62
   255
 39
0.400
  6
CONTINUOUS
 10
51.10318
 20
29.61800
 30
 0
 11
51.10318
 21
27.05500
  0
LINE
  8
Engraving
 62
   255
 39
0.400
  6
CONTINUOUS
 10
43.38373
 20
9.04600
 30
 0
 11
43.38373
 21
11.60900
  0
LINE
  8
Engraving
 62
   255
 39
0.400
  6
CONTINUOUS
 10
43.38373
 20
11.60900
 30
 0
 11
44.38046
 21
9.75794
  0
LINE
  8
Engraving
 62
   255
 39
0.400
  6
CONTINUOUS
 10
44.38046
 20
9.75794
 30
 0
 11
45.37718
 21
11.60900
  0
LINE
  8
Engraving
 62
   255
 39
0.400
  6
CONTINUOUS
 10
45.37718
 20
11.60900
 30
 0
 11
45.37718
 21
9.04600
  0
LINE
  8
Engraving
 62
   255
 39
0.400
  6
CONTINUOUS
 10
46.34451
 20
9.75794
 30
 0
 11
47.76840
 21
9.75794
  0
LINE
  8
Engraving
 62
   255
 39
0.400
  6
CONTINUOUS
 10
46.05973
 20
9.04600
 30
 0
 11
47.05646
 21
11.60900
  0
LINE
  8
Engraving
 62
   255
 39
0.400
  6
CONTINUOUS
 10
47.05646
 20
11.60900
 30
 0
 11
48.05318
 21
9.04600
  0
LINE
  8
Engraving
 62
   255
 39
0.400
  6
CONTINUOUS
 10
48.73573
 20
9.04600
 30
 0
 11
48.73573
 21
11.60900
  0
LINE
  8
Engraving
 62
   255
 39
0.400
  6
CONTINUOUS
 10
48.73573
 20
11.60900
 30
 0
 11
49.67550
 21
11.60900
  0
ARC
  8
Engraving
 62
   255
 39
0.400
  6
CONTINUOUS
 10
49.67550
 20
10.96825
 30
 0
 40
0.64075
 50
-90.00000
 51
90.00000
  0
LINE
  8
Engraving
 62
   255
 39
0.400
  6
CONTINUOUS
 10
49.67550
 20
10.32750
 30
 0
 11
48.73573
 21
10.32750
  0
LINE
  8
Engraving
 62
   255
 39
0.400
  6
CONTINUOUS
 10
48.73573
 20
10.32750
 30
 0
 11
49.73246
 21
10.32750
  0
LINE
  8
Engraving
 62
   255
 39
0.400
  6
CONTINUOUS
 10
49.73246
 20
10.32750
 30
 0
 11
50.30201
 21
9.04600
  0
LINE
  8
Engraving
 62
   255
 39
0.400
  6
CONTINUOUS
 10
50.95673
 20
11.60900
 30
 0
 11
50.95673
 21
9.04600
  0
LINE
  8
Engraving
 62
   255
 39
0.400
  6
CONTINUOUS
 10
50.95673
 20
9.04600
 30
 0
 11
50.95673
 21
10.01424
  0
LINE
  8
Engraving
 62
   255
 39
0.400
  6
CONTINUOUS
 10
50.95673
 20
10.01424
 30
 0
 11
51.44086
 21
10.46989
  0
LINE
  8
Engraving
 62
   255
 39
0.400
  6
CONTINUOUS
 10
51.44086
 20
10.46989
 30
 0
 11
52.66540
 21
9.04600
  0
LINE
  8
Engraving
 62
   255
 39
0.400
  6
CONTINUOUS
 10
52.66540
 20
9.04600
 30
 0
 11
51.44086
 21
10.46989
  0
LINE
  8
Engraving
 62
   255
 39
0.400
  6
CONTINUOUS
 10
51.44086
 20
10.46989
 30
 0
 11
52.66540
 21
11.60900
  0
LINE
  8
Engraving
 62
   255
 39
0.400
  6
CONTINUOUS
 10
61.89273
 20
47.37100
 30
 0
 11
62.60468
 21
44.80800
  0
LINE
  8
Engraving
 62
   255
 39
0.400
  6
CONTINUOUS
 10
62.60468
 20
44.80800
 30
 0
 11
63.31662
 21
47.37100
  0
LINE
  8
Engraving
 62
   255
 39
0.400
  6
CONTINUOUS
 10
63.31662
 20
47.37100
 30
 0
 11
64.02857
 21
44.80800
  0
LINE
  8
Engraving
 62
   255
 39
0.400
  6
CONTINUOUS
 10
64.02857
 20
44.80800
 30
 0
 11
64.74051
 21
47.37100
  0
LINE
  8
Engraving
 62
   255
 39
0.400
  6
CONTINUOUS
 10
65.42373
 20
44.80800
 30
 0
 11
65.42373
 21
47.37100
  0
LINE
  8
Engraving
 62
   255
 39
0.400
  6
CONTINUOUS
 10
65.42373
 20
47.37100
 30
 0
 11
66.36350
 21
47.37100
  0
ARC
  8
Engraving
 62
   255
 39
0.400
  6
CONTINUOUS
 10
66.36350
 20
46.73025
 30
 0
 40
0.64075
 50
-90.00000
 51
90.00000
  0
LINE
  8
Engraving
 62
   255
 39
0.400
  6
CONTINUOUS
 10
66.36350
 20
46.08950
 30
 0
 11
65.42373
 21
46.08950
  0
LINE
  8
Engraving
 62
   255
 39
0.400
  6
CONTINUOUS
 10
60.19873
 20
27.08600
 30
 0
 11
60.19873
 21
29.64900
  0
LINE
  8
Engraving
 62
   255
 39
0.400
  6
CONTINUOUS
 10
60.19873
 20
29.64900
 30
 0
 11
61.13850
 21
29.64900
  0
ARC
  8
Engraving
 62
   255
 39
0.400
  6
CONTINUOUS
 10
61.13850
 20
29.00825
 30
 0
 40
0.64075
 50
-90.00000
 51
90.00000
  0
LINE
  8
Engraving
 62
   255
 39
0.400
  6
CONTINUOUS
 10
61.13850
 20
28.36750
 30
 0
 11
60.19873
 21
28.36750
  0
LINE
  8
Engraving
 62
   255
 39
0.400
  6
CONTINUOUS
 10
62.41973
 20
27.08600
 30
 0
 11
62.41973
 21
29.64900
  0
LINE
  8
Engraving
 62
   255
 39
0.400
  6
CONTINUOUS
 10
62.41973
 20
29.64900
 30
 0
 11
63.35950
 21
29.64900
  0
ARC
  8
Engraving
 62
   255
 39
0.400
  6
CONTINUOUS
 10
63.35950
 20
29.00825
 30
 0
 40
0.64075
 50
-90.00000
 51
90.00000
  0
LINE
  8
Engraving
 62
   255
 39
0.400
  6
CONTINUOUS
 10
63.35950
 20
28.36750
 30
 0
 11
62.41973
 21
28.36750
  0
LINE
  8
Engraving
 62
   255
 39
0.400
  6
CONTINUOUS
 10
62.41973
 20
28.36750
 30
 0
 11
63.41646
 21
28.36750
  0
LINE
  8
Engraving
 62
   255
 39
0.400
  6
CONTINUOUS
 10
63.41646
 20
28.36750
 30
 0
 11
63.98601
 21
27.08600
  0
LINE
  8
Engraving
 62
   255
 39
0.400
  6
CONTINUOUS
 10
64.64073
 20
28.36750
 30
 0
 11
66.06462
 21
28.36750
  0
LINE
  8
Engraving
 62
   255
 39
0.400
  6
CONTINUOUS
 10
66.34940
 20
29.64900
 30
 0
 11
64.64073
 21
29.64900
  0
LINE
  8
Engraving
 62
   255
 39
0.400
  6
CONTINUOUS
 10
64.64073
 20
29.64900
 30
 0
 11
64.64073
 21
27.08600
  0
LINE
  8
Engraving
 62
   255
 39
0.400
  6
CONTINUOUS
 10
64.64073
 20
27.08600
 30
 0
 11
66.34940
 21
27.08600
  0
LINE
  8
Engraving
 62
   255
 39
0.400
  6
CONTINUOUS
 10
67.03273
 20
29.64900
 30
 0
 11
67.88707
 21
27.08600
  0
LINE
  8
Engraving
 62
   255
 39
0.400
  6
CONTINUOUS
 10
67.88707
 20
27.08600
 30
 0
 11
68.74140
 21
29.64900
  0
LINE
  8
Engraving
 62
   255
 39
0.400
  6
CONTINUOUS
 10
61.39273
 20
8.94500
 30
 0
 11
61.39273
 21
11.50800
  0
LINE
  8
Engraving
 62
   255
 39
0.400
  6
CONTINUOUS
 10
61.39273
 20
11.50800
 30
 0
 11
62.38946
 21
9.65694
  0
LINE
  8
Engraving
 62
   255
 39
0.400
  6
CONTINUOUS
 10
62.38946
 20
9.65694
 30
 0
 11
63.38618
 21
11.50800
  0
LINE
  8
Engraving
 62
   255
 39
0.400
  6
CONTINUOUS
 10
63.38618
 20
11.50800
 30
 0
 11
63.38618
 21
8.94500
  0
ARC
  8
Engraving
 62
   255
 39
0.400
  6
CONTINUOUS
 10
65.17890
 20
10.84754
 30
 0
 40
0.67574
 50
36.73449
 51
77.79505
  0
ARC
  8
Engraving
 62
   255
 39
0.400
  6
CONTINUOUS
 10
64.97868
 20
9.93658
 30
 0
 40
1.60844
 50
77.68434
 51
106.40648
  0
ARC
  8
Engraving
 62
   255
 39
0.400
  6
CONTINUOUS
 10
64.74382
 20
10.75083
 30
 0
 40
0.76101
 50
106.75938
 51
144.31597
  0
ARC
  8
Engraving
 62
   255
 39
0.400
  6
CONTINUOUS
 10
64.54896
 20
10.89091
 30
 0
 40
0.52103
 50
144.32844
 51
251.30934
  0
LINE
  8
Engraving
 62
   255
 39
0.400
  6
CONTINUOUS
 10
64.38199
 20
10.39737
 30
 0
 11
65.37871
 21
10.05563
  0
ARC
  8
Engraving
 62
   255
 39
0.400
  6
CONTINUOUS
 10
65.21174
 20
9.56209
 30
 0
 40
0.52103
 50
-35.67156
 51
71.30934
  0
ARC
  8
Engraving
 62
   255
 39
0.400
  6
CONTINUOUS
 10
65.01688
 20
9.70217
 30
 0
 40
0.76101
 50
286.75938
 51
324.31597
  0
ARC
  8
Engraving
 62
   255
 39
0.400
  6
CONTINUOUS
 10
64.78202
 20
10.51642
 30
 0
 40
1.60844
 50
257.68434
 51
286.40648
  0
ARC
  8
Engraving
 62
   255
 39
0.400
  6
CONTINUOUS
 10
64.58180
 20
9.60546
 30
 0
 40
0.67574
 50
216.73449
 51
257.79505
  0
LINE
  8
Engraving
 62
   255
 39
0.400
  6
CONTINUOUS
 10
66.40373
 20
8.94500
 30
 0
 11
66.40373
 21
11.50800
  0
LINE
  8
Engraving
 62
   255
 39
0.400
  6
CONTINUOUS
 10
66.40373
 20
11.50800
 30
 0
 11
68.11240
 21
8.94500
  0
LINE
  8
Engraving
 62
   255
 39
0.400
  6
CONTINUOUS
 10
68.11240
 20
8.94500
 30
 0
 11
68.11240
 21
11.50800
  0
LINE
  8
Engraving
 62
   255
 39
0.400
  6
CONTINUOUS
 10
77.86973
 20
44.53200
 30
 0
 11
77.86973
 21
47.09500
  0
LINE
  8
Engraving
 62
   255
 39
0.400
  6
CONTINUOUS
 10
77.86973
 20
47.09500
 30
 0
 11
78.80950
 21
47.09500
  0
ARC
  8
Engraving
 62
   255
 39
0.400
  6
CONTINUOUS
 10
78.80950
 20
46.45425
 30
 0
 40
0.64075
 50
-90.00000
 51
90.00000
  0
LINE
  8
Engraving
 62
   255
 39
0.400
  6
CONTINUOUS
 10
78.80950
 20
45.81350
 30
 0
 11
77.86973
 21
45.81350
  0
ARC
  8
Engraving
 62
   255
 39
0.400
  6
CONTINUOUS
 10
81.00202
 20
45.38633
 30
 0
 40
0.91129
 50
180.00000
 51
360.00000
  0
LINE
  8
Engraving
 62
   255
 39
0.400
  6
CONTINUOUS
 10
81.91331
 20
45.38633
 30
 0
 11
81.91331
 21
46.24067
  0
ARC
  8
Engraving
 62
   255
 39
0.400
  6
CONTINUOUS
 10
81.00202
 20
46.24067
 30
 0
 40
0.91129
 50
0.00000
 51
180.00000
  0
LINE
  8
Engraving
 62
   255
 39
0.400
  6
CONTINUOUS
 10
80.09073
 20
46.24067
 30
 0
 11
80.09073
 21
45.38633
  0
ARC
  8
Engraving
 62
   255
 39
0.400
  6
CONTINUOUS
 10
83.70690
 20
46.43454
 30
 0
 40
0.67574
 50
36.73449
 51
77.79505
  0
ARC
  8
Engraving
 62
   255
 39
0.400
  6
CONTINUOUS
 10
83.50668
 20
45.52358
 30
 0
 40
1.60844
 50
77.68434
 51
106.40648
  0
ARC
  8
Engraving
 62
   255
 39
0.400
  6
CONTINUOUS
 10
83.27182
 20
46.33783
 30
 0
 40
0.76101
 50
106.75938
 51
144.31597
  0
ARC
  8
Engraving
 62
   255
 39
0.400
  6
CONTINUOUS
 10
83.07696
 20
46.47791
 30
 0
 40
0.52103
 50
144.32844
 51
251.30934
  0
LINE
  8
Engraving
 62
   255
 39
0.400
  6
CONTINUOUS
 10
82.90999
 20
45.98437
 30
 0
 11
83.90671
 21
45.64263
  0
ARC
  8
Engraving
 62
   255
 39
0.400
  6
CONTINUOUS
 10
83.73974
 20
45.14909
 30
 0
 40
0.52103
 50
-35.67156
 51
71.30934
  0
ARC
  8
Engraving
 62
   255
 39
0.400
  6
CONTINUOUS
 10
83.54488
 20
45.28917
 30
 0
 40
0.76101
 50
286.75938
 51
324.31597
  0
ARC
  8
Engraving
 62
   255
 39
0.400
  6
CONTINUOUS
 10
83.31002
 20
46.10342
 30
 0
 40
1.60844
 50
257.68434
 51
286.40648
  0
ARC
  8
Engraving
 62
   255
 39
0.400
  6
CONTINUOUS
 10
83.10980
 20
45.19246
 30
 0
 40
0.67574
 50
216.73449
 51
257.79505
  0
ARC
  8
Engraving
 62
   255
 39
0.400
  6
CONTINUOUS
 10
76.60290
 20
29.06954
 30
 0
 40
0.67574
 50
36.73449
 51
77.79505
  0
ARC
  8
Engraving
 62
   255
 39
0.400
  6
CONTINUOUS
 10
76.40268
 20
28.15858
 30
 0
 40
1.60844
 50
77.68434
 51
106.40648
  0
ARC
  8
Engraving
 62
   255
 39
0.400
  6
CONTINUOUS
 10
76.16782
 20
28.97283
 30
 0
 40
0.76101
 50
106.75938
 51
144.31597
  0
ARC
  8
Engraving
 62
   255
 39
0.400
  6
CONTINUOUS
 10
75.97296
 20
29.11291
 30
 0
 40
0.52103
 50
144.32844
 51
251.30934
  0
LINE
  8
Engraving
 62
   255
 39
0.400
  6
CONTINUOUS
 10
75.80599
 20
28.61937
 30
 0
 11
76.80271
 21
28.27763
  0
ARC
  8
Engraving
 62
   255
 39
0.400
  6
CONTINUOUS
 10
76.63574
 20
27.78409
 30
 0
 40
0.52103
 50
-35.67156
 51
71.30934
  0
ARC
  8
Engraving
 62
   255
 39
0.400
  6
CONTINUOUS
 10
76.44088
 20
27.92417
 30
 0
 40
0.76101
 50
286.75938
 51
324.31597
  0
ARC
  8
Engraving
 62
   255
 39
0.400
  6
CONTINUOUS
 10
76.20602
 20
28.73842
 30
 0
 40
1.60844
 50
257.68434
 51
286.40648
  0
ARC
  8
Engraving
 62
   255
 39
0.400
  6
CONTINUOUS
 10
76.00580
 20
27.82746
 30
 0
 40
0.67574
 50
216.73449
 51
257.79505
  0
LINE
  8
Engraving
 62
   255
 39
0.400
  6
CONTINUOUS
 10
77.82773
 20
29.73000
 30
 0
 11
79.53640
 21
29.73000
  0
LINE
  8
Engraving
 62
   255
 39
0.400
  6
CONTINUOUS
 10
79.53640
 20
29.73000
 30
 0
 11
78.68207
 21
29.73000
  0
LINE
  8
Engraving
 62
   255
 39
0.400
  6
CONTINUOUS
 10
78.68207
 20
29.73000
 30
 0
 11
78.68207
 21
27.16700
  0
LINE
  8
Engraving
 62
   255
 39
0.400
  6
CONTINUOUS
 10
80.21973
 20
28.44850
 30
 0
 11
81.64362
 21
28.44850
  0
LINE
  8
Engraving
 62
   255
 39
0.400
  6
CONTINUOUS
 10
81.92840
 20
29.73000
 30
 0
 11
80.21973
 21
29.73000
  0
LINE
  8
Engraving
 62
   255
 39
0.400
  6
CONTINUOUS
 10
80.21973
 20
29.73000
 30
 0
 11
80.21973
 21
27.16700
  0
LINE
  8
Engraving
 62
   255
 39
0.400
  6
CONTINUOUS
 10
80.21973
 20
27.16700
 30
 0
 11
81.92840
 21
27.16700
  0
LINE
  8
Engraving
 62
   255
 39
0.400
  6
CONTINUOUS
 10
82.61173
 20
28.44850
 30
 0
 11
84.03562
 21
28.44850
  0
LINE
  8
Engraving
 62
   255
 39
0.400
  6
CONTINUOUS
 10
84.32040
 20
29.73000
 30
 0
 11
82.61173
 21
29.73000
  0
LINE
  8
Engraving
 62
   255
 39
0.400
  6
CONTINUOUS
 10
82.61173
 20
29.73000
 30
 0
 11
82.61173
 21
27.16700
  0
LINE
  8
Engraving
 62
   255
 39
0.400
  6
CONTINUOUS
 10
82.61173
 20
27.16700
 30
 0
 11
84.32040
 21
27.16700
  0
LINE
  8
Engraving
 62
   255
 39
0.400
  6
CONTINUOUS
 10
85.00373
 20
27.16700
 30
 0
 11
85.00373
 21
29.73000
  0
LINE
  8
Engraving
 62
   255
 39
0.400
  6
CONTINUOUS
 10
85.00373
 20
29.73000
 30
 0
 11
85.94350
 21
29.73000
  0
ARC
  8
Engraving
 62
   255
 39
0.400
  6
CONTINUOUS
 10
85.94350
 20
29.08925
 30
 0
 40
0.64075
 50
-90.00000
 51
90.00000
  0
LINE
  8
Engraving
 62
   255
 39
0.400
  6
CONTINUOUS
 10
85.94350
 20
28.44850
 30
 0
 11
85.00373
 21
28.44850
  0
LINE
  8
Engraving
 62
   255
 39
0.400
  6
CONTINUOUS
 10
85.00373
 20
28.44850
 30
 0
 11
86.00046
 21
28.44850
  0
LINE
  8
Engraving
 62
   255
 39
0.400
  6
CONTINUOUS
 10
86.00046
 20
28.44850
 30
 0
 11
86.57001
 21
27.16700
  0
LINE
  8
Engraving
 62
   255
 39
0.400
  6
CONTINUOUS
 10
74.48273
 20
11.50800
 30
 0
 11
75.19468
 21
8.94500
  0
LINE
  8
Engraving
 62
   255
 39
0.400
  6
CONTINUOUS
 10
75.19468
 20
8.94500
 30
 0
 11
75.90662
 21
11.50800
  0
LINE
  8
Engraving
 62
   255
 39
0.400
  6
CONTINUOUS
 10
75.90662
 20
11.50800
 30
 0
 11
76.61857
 21
8.94500
  0
LINE
  8
Engraving
 62
   255
 39
0.400
  6
CONTINUOUS
 10
76.61857
 20
8.94500
 30
 0
 11
77.33051
 21
11.50800
  0
LINE
  8
Engraving
 62
   255
 39
0.400
  6
CONTINUOUS
 10
78.29851
 20
9.65694
 30
 0
 11
79.72240
 21
9.65694
  0
LINE
  8
Engraving
 62
   255
 39
0.400
  6
CONTINUOUS
 10
78.01373
 20
8.94500
 30
 0
 11
79.01046
 21
11.50800
  0
LINE
  8
Engraving
 62
   255
 39
0.400
  6
CONTINUOUS
 10
79.01046
 20
11.50800
 30
 0
 11
80.00718
 21
8.94500
  0
LINE
  8
Engraving
 62
   255
 39
0.400
  6
CONTINUOUS
 10
80.68973
 20
11.50800
 30
 0
 11
81.54407
 21
10.22650
  0
LINE
  8
Engraving
 62
   255
 39
0.400
  6
CONTINUOUS
 10
81.54407
 20
10.22650
 30
 0
 11
81.54407
 21
8.94500
  0
LINE
  8
Engraving
 62
   255
 39
0.400
  6
CONTINUOUS
 10
81.54407
 20
8.94500
 30
 0
 11
81.54407
 21
10.22650
  0
LINE
  8
Engraving
 62
   255
 39
0.400
  6
CONTINUOUS
 10
81.54407
 20
10.22650
 30
 0
 11
82.39840
 21
11.50800
  0
LINE
  8
Engraving
 62
   255
 39
0.400
  6
CONTINUOUS
 10
83.08173
 20
8.94500
 30
 0
 11
83.08173
 21
11.50800
  0
LINE
  8
Engraving
 62
   255
 39
0.400
  6
CONTINUOUS
 10
83.08173
 20
11.50800
 30
 0
 11
84.02150
 21
11.50800
  0
ARC
  8
Engraving
 62
   255
 39
0.400
  6
CONTINUOUS
 10
84.02150
 20
10.86725
 30
 0
 40
0.64075
 50
-90.00000
 51
90.00000
  0
LINE
  8
Engraving
 62
   255
 39
0.400
  6
CONTINUOUS
 10
84.02150
 20
10.22650
 30
 0
 11
83.08173
 21
10.22650
  0
LINE
  8
Engraving
 62
   255
 39
0.400
  6
CONTINUOUS
 10
85.30273
 20
11.50800
 30
 0
 11
87.01140
 21
11.50800
  0
LINE
  8
Engraving
 62
   255
 39
0.400
  6
CONTINUOUS
 10
87.01140
 20
11.50800
 30
 0
 11
86.15707
 21
11.50800
  0
LINE
  8
Engraving
 62
   255
 39
0.400
  6
CONTINUOUS
 10
86.15707
 20
11.50800
 30
 0
 11
86.15707
 21
8.94500
  0
LINE
  8
Engraving
 62
   255
 39
0.400
  6
CONTINUOUS
 10
92.76673
 20
9.25100
 30
 0
 11
92.76673
 21
11.81400
  0
LINE
  8
Engraving
 62
   255
 39
0.400
  6
CONTINUOUS
 10
92.76673
 20
11.81400
 30
 0
 11
93.76346
 21
9.96294
  0
LINE
  8
Engraving
 62
   255
 39
0.400
  6
CONTINUOUS
 10
93.76346
 20
9.96294
 30
 0
 11
94.76018
 21
11.81400
  0
LINE
  8
Engraving
 62
   255
 39
0.400
  6
CONTINUOUS
 10
94.76018
 20
11.81400
 30
 0
 11
94.76018
 21
9.25100
  0
LINE
  8
Engraving
 62
   255
 39
0.400
  6
CONTINUOUS
 10
95.72751
 20
9.96294
 30
 0
 11
97.15140
 21
9.96294
  0
LINE
  8
Engraving
 62
   255
 39
0.400
  6
CONTINUOUS
 10
95.44273
 20
9.25100
 30
 0
 11
96.43946
 21
11.81400
  0
LINE
  8
Engraving
 62
   255
 39
0.400
  6
CONTINUOUS
 10
96.43946
 20
11.81400
 30
 0
 11
97.43618
 21
9.25100
  0
LINE
  8
Engraving
 62
   255
 39
0.400
  6
CONTINUOUS
 10
98.11873
 20
11.81400
 30
 0
 11
98.11873
 21
9.25100
  0
LINE
  8
Engraving
 62
   255
 39
0.400
  6
CONTINUOUS
 10
98.11873
 20
9.25100
 30
 0
 11
99.54262
 21
9.25100
  0
LINE
  8
Engraving
 62
   255
 39
0.400
  6
CONTINUOUS
 10
100.22573
 20
10.53250
 30
 0
 11
101.64962
 21
10.53250
  0
LINE
  8
Engraving
 62
   255
 39
0.400
  6
CONTINUOUS
 10
101.93440
 20
11.81400
 30
 0
 11
100.22573
 21
11.81400
  0
LINE
  8
Engraving
 62
   255
 39
0.400
  6
CONTINUOUS
 10
100.22573
 20
11.81400
 30
 0
 11
100.22573
 21
9.25100
  0
LINE
  8
Engraving
 62
   255
 39
0.400
  6
CONTINUOUS
 10
109.63273
 20
29.73000
 30
 0
 11
109.63273
 21
27.96438
  0
ARC
  8
Engraving
 62
   255
 39
0.400
  6
CONTINUOUS
 10
110.48707
 20
27.96438
 30
 0
 40
0.85433
 50
180.00000
 51
360.00000
  0
LINE
  8
Engraving
 62
   255
 39
0.400
  6
CONTINUOUS
 10
111.34140
 20
27.96438
 30
 0
 11
111.34140
 21
29.73000
  0
LINE
  8
Engraving
 62
   255
 39
0.400
  6
CONTINUOUS
 10
112.02473
 20
27.16700
 30
 0
 11
112.02473
 21
29.73000
  0
LINE
  8
Engraving
 62
   255
 39
0.400
  6
CONTINUOUS
 10
112.02473
 20
29.73000
 30
 0
 11
112.96450
 21
29.73000
  0
ARC
  8
Engraving
 62
   255
 39
0.400
  6
CONTINUOUS
 10
112.96450
 20
29.08925
 30
 0
 40
0.64075
 50
-90.00000
 51
90.00000
  0
LINE
  8
Engraving
 62
   255
 39
0.400
  6
CONTINUOUS
 10
112.96450
 20
28.44850
 30
 0
 11
112.02473
 21
28.44850
  0
LINE
  8
Engraving
 62
   255
 39
0.400
  6
CONTINUOUS
 10
114.24573
 20
29.73000
 30
 0
 11
115.12854
 21
29.73000
  0
ARC
  8
Engraving
 62
   255
 39
0.400
  6
CONTINUOUS
 10
115.09538
 20
28.87161
 30
 0
 40
0.85903
 50
0.27068
 51
87.78728
  0
LINE
  8
Engraving
 62
   255
 39
0.400
  6
CONTINUOUS
 10
115.95440
 20
28.87567
 30
 0
 11
115.95440
 21
28.02133
  0
ARC
  8
Engraving
 62
   255
 39
0.400
  6
CONTINUOUS
 10
115.12997
 20
27.99195
 30
 0
 40
0.82495
 50
-90.09907
 51
2.04111
  0
LINE
  8
Engraving
 62
   255
 39
0.400
  6
CONTINUOUS
 10
115.12854
 20
27.16700
 30
 0
 11
114.24573
 21
27.16700
  0
LINE
  8
Engraving
 62
   255
 39
0.400
  6
CONTINUOUS
 10
114.24573
 20
27.16700
 30
 0
 11
114.24573
 21
29.73000
  0
LINE
  8
Engraving
 62
   255
 39
0.400
  6
CONTINUOUS
 10
116.63773
 20
29.72900
 30
 0
 11
118.34640
 21
29.72900
  0
LINE
  8
Engraving
 62
   255
 39
0.400
  6
CONTINUOUS
 10
118.34640
 20
29.72900
 30
 0
 11
117.49207
 21
29.72900
  0
LINE
  8
Engraving
 62
   255
 39
0.400
  6
CONTINUOUS
 10
117.49207
 20
29.72900
 30
 0
 11
117.49207
 21
27.16600
  0
LINE
  8
Engraving
 62
   255
 39
0.400
  6
CONTINUOUS
 10
207.31473
 20
28.06700
 30
 0
 11
207.31473
 21
25.50400
  0
LINE
  8
Engraving
 62
   255
 39
0.400
  6
CONTINUOUS
 10
207.99773
 20
25.50400
 30
 0
 11
207.99773
 21
28.06700
  0
LINE
  8
Engraving
 62
   255
 39
0.400
  6
CONTINUOUS
 10
207.99773
 20
28.06700
 30
 0
 11
209.70640
 21
25.50400
  0
LINE
  8
Engraving
 62
   255
 39
0.400
  6
CONTINUOUS
 10
209.70640
 20
25.50400
 30
 0
 11
209.70640
 21
28.06700
  0
LINE
  8
Engraving
 62
   255
 39
0.400
  6
CONTINUOUS
 10
210.38973
 20
28.06700
 30
 0
 11
212.09840
 21
28.06700
  0
LINE
  8
Engraving
 62
   255
 39
0.400
  6
CONTINUOUS
 10
212.09840
 20
28.06700
 30
 0
 11
211.24407
 21
28.06700
  0
LINE
  8
Engraving
 62
   255
 39
0.400
  6
CONTINUOUS
 10
211.24407
 20
28.06700
 30
 0
 11
211.24407
 21
25.50400
  0
LINE
  8
Engraving
 62
   255
 39
0.400
  6
CONTINUOUS
 10
212.78173
 20
26.78550
 30
 0
 11
214.20562
 21
26.78550
  0
LINE
  8
Engraving
 62
   255
 39
0.400
  6
CONTINUOUS
 10
214.49040
 20
28.06700
 30
 0
 11
212.78173
 21
28.06700
  0
LINE
  8
Engraving
 62
   255
 39
0.400
  6
CONTINUOUS
 10
212.78173
 20
28.06700
 30
 0
 11
212.78173
 21
25.50400
  0
LINE
  8
Engraving
 62
   255
 39
0.400
  6
CONTINUOUS
 10
212.78173
 20
25.50400
 30
 0
 11
214.49040
 21
25.50400
  0
LINE
  8
Engraving
 62
   255
 39
0.400
  6
CONTINUOUS
 10
215.17373
 20
25.50400
 30
 0
 11
215.17373
 21
28.06700
  0
LINE
  8
Engraving
 62
   255
 39
0.400
  6
CONTINUOUS
 10
215.17373
 20
28.06700
 30
 0
 11
216.88240
 21
25.50400
  0
LINE
  8
Engraving
 62
   255
 39
0.400
  6
CONTINUOUS
 10
216.88240
 20
25.50400
 30
 0
 11
216.88240
 21
28.06700
  0
LINE
  8
Engraving
 62
   255
 39
0.400
  6
CONTINUOUS
 10
12.95994
 20
49.16050
 30
 0
 11
14.44079
 21
49.16050
  0
LINE
  8
Engraving
 62
   255
 39
0.400
  6
CONTINUOUS
 10
13.70037
 20
48.42008
 30
 0
 11
13.70037
 21
49.90092
  0
LINE
  8
Engraving
 62
   255
 39
0.400
  6
CONTINUOUS
 10
12.89773
 20
21.06150
 30
 0
 11
14.37858
 21
21.06150
  0
ARC
  8
Engraving
 62
   255
 39
0.400
  6
CONTINUOUS
 10
20.60990
 20
46.60954
 30
 0
 40
0.67574
 50
36.73449
 51
77.79505
  0
ARC
  8
Engraving
 62
   255
 39
0.400
  6
CONTINUOUS
 10
20.40968
 20
45.69858
 30
 0
 40
1.60844
 50
77.68434
 51
106.40648
  0
ARC
  8
Engraving
 62
   255
 39
0.400
  6
CONTINUOUS
 10
20.17482
 20
46.51283
 30
 0
 40
0.76101
 50
106.75938
 51
144.31597
  0
ARC
  8
Engraving
 62
   255
 39
0.400
  6
CONTINUOUS
 10
19.97996
 20
46.65291
 30
 0
 40
0.52103
 50
144.32844
 51
251.30934
  0
LINE
  8
Engraving
 62
   255
 39
0.400
  6
CONTINUOUS
 10
19.81299
 20
46.15937
 30
 0
 11
20.80971
 21
45.81763
  0
ARC
  8
Engraving
 62
   255
 39
0.400
  6
CONTINUOUS
 10
20.64274
 20
45.32409
 30
 0
 40
0.52103
 50
-35.67156
 51
71.30934
  0
ARC
  8
Engraving
 62
   255
 39
0.400
  6
CONTINUOUS
 10
20.44788
 20
45.46417
 30
 0
 40
0.76101
 50
286.75938
 51
324.31597
  0
ARC
  8
Engraving
 62
   255
 39
0.400
  6
CONTINUOUS
 10
20.21302
 20
46.27842
 30
 0
 40
1.60844
 50
257.68434
 51
286.40648
  0
ARC
  8
Engraving
 62
   255
 39
0.400
  6
CONTINUOUS
 10
20.01280
 20
45.36746
 30
 0
 40
0.67574
 50
216.73449
 51
257.79505
  0
LINE
  8
Engraving
 62
   255
 39
0.400
  6
CONTINUOUS
 10
19.45873
 20
42.19000
 30
 0
 11
21.16740
 21
42.19000
  0
LINE
  8
Engraving
 62
   255
 39
0.400
  6
CONTINUOUS
 10
21.16740
 20
42.19000
 30
 0
 11
20.31307
 21
42.19000
  0
LINE
  8
Engraving
 62
   255
 39
0.400
  6
CONTINUOUS
 10
20.31307
 20
42.19000
 30
 0
 11
20.31307
 21
39.62700
  0
LINE
  8
Engraving
 62
   255
 39
0.400
  6
CONTINUOUS
 10
19.45873
 20
35.82950
 30
 0
 11
20.88262
 21
35.82950
  0
LINE
  8
Engraving
 62
   255
 39
0.400
  6
CONTINUOUS
 10
21.16740
 20
37.11100
 30
 0
 11
19.45873
 21
37.11100
  0
LINE
  8
Engraving
 62
   255
 39
0.400
  6
CONTINUOUS
 10
19.45873
 20
37.11100
 30
 0
 11
19.45873
 21
34.54800
  0
LINE
  8
Engraving
 62
   255
 39
0.400
  6
CONTINUOUS
 10
19.45873
 20
34.54800
 30
 0
 11
21.16740
 21
34.54800
  0
LINE
  8
Engraving
 62
   255
 39
0.400
  6
CONTINUOUS
 10
19.45873
 20
30.74950
 30
 0
 11
20.88262
 21
30.74950
  0
LINE
  8
Engraving
 62
   255
 39
0.400
  6
CONTINUOUS
 10
21.16740
 20
32.03100
 30
 0
 11
19.45873
 21
32.03100
  0
LINE
  8
Engraving
 62
   255
 39
0.400
  6
CONTINUOUS
 10
19.45873
 20
32.03100
 30
 0
 11
19.45873
 21
29.46800
  0
LINE
  8
Engraving
 62
   255
 39
0.400
  6
CONTINUOUS
 10
19.45873
 20
29.46800
 30
 0
 11
21.16740
 21
29.46800
  0
LINE
  8
Engraving
 62
   255
 39
0.400
  6
CONTINUOUS
 10
19.45873
 20
24.38900
 30
 0
 11
19.45873
 21
26.95200
  0
LINE
  8
Engraving
 62
   255
 39
0.400
  6
CONTINUOUS
 10
19.45873
 20
26.95200
 30
 0
 11
20.39850
 21
26.95200
  0
ARC
  8
Engraving
 62
   255
 39
0.400
  6
CONTINUOUS
 10
20.39850
 20
26.31125
 30
 0
 40
0.64075
 50
-90.00000
 51
90.00000
  0
LINE
  8
Engraving
 62
   255
 39
0.400
  6
CONTINUOUS
 10
20.39850
 20
25.67050
 30
 0
 11
19.45873
 21
25.67050
  0
LINE
  8
Engraving
 62
   255
 39
0.400
  6
CONTINUOUS
 10
19.45873
 20
25.67050
 30
 0
 11
20.45546
 21
25.67050
  0
LINE
  8
Engraving
 62
   255
 39
0.400
  6
CONTINUOUS
 10
20.45546
 20
25.67050
 30
 0
 11
21.02501
 21
24.38900
  0
LINE
  8
Engraving
 62
   255
 39
0.400
  6
CONTINUOUS
 10
190.99973
 20
46.26700
 30
 0
 11
190.99973
 21
48.83000
  0
LINE
  8
Engraving
 62
   255
 39
0.400
  6
CONTINUOUS
 10
190.99973
 20
48.83000
 30
 0
 11
191.93950
 21
48.83000
  0
ARC
  8
Engraving
 62
   255
 39
0.400
  6
CONTINUOUS
 10
191.93950
 20
48.18925
 30
 0
 40
0.64075
 50
-90.00000
 51
90.00000
  0
LINE
  8
Engraving
 62
   255
 39
0.400
  6
CONTINUOUS
 10
191.93950
 20
47.54850
 30
 0
 11
190.99973
 21
47.54850
  0
LINE
  8
Engraving
 62
   255
 39
0.400
  6
CONTINUOUS
 10
192.19780
 20
42.46850
 30
 0
 11
192.82431
 21
42.46850
  0
LINE
  8
Engraving
 62
   255
 39
0.400
  6
CONTINUOUS
 10
192.82431
 20
42.46850
 30
 0
 11
192.82431
 21
42.04133
  0
ARC
  8
Engraving
 62
   255
 39
0.400
  6
CONTINUOUS
 10
191.91302
 20
42.04133
 30
 0
 40
0.91129
 50
-180.00000
 51
0.00000
  0
LINE
  8
Engraving
 62
   255
 39
0.400
  6
CONTINUOUS
 10
191.00173
 20
42.04133
 30
 0
 11
191.00173
 21
42.89567
  0
ARC
  8
Engraving
 62
   255
 39
0.400
  6
CONTINUOUS
 10
191.87937
 20
42.91636
 30
 0
 40
0.87788
 50
31.86328
 51
181.35068
  0
LINE
  8
Engraving
 62
   255
 39
0.400
  6
CONTINUOUS
 10
236.44373
 20
44.65700
 30
 0
 11
237.32654
 21
44.65700
  0
ARC
  8
Engraving
 62
   255
 39
0.400
  6
CONTINUOUS
 10
237.29338
 20
43.79861
 30
 0
 40
0.85903
 50
0.27068
 51
87.78728
  0
LINE
  8
Engraving
 62
   255
 39
0.400
  6
CONTINUOUS
 10
238.15240
 20
43.80267
 30
 0
 11
238.15240
 21
42.94833
  0
ARC
  8
Engraving
 62
   255
 39
0.400
  6
CONTINUOUS
 10
237.32797
 20
42.91895
 30
 0
 40
0.82495
 50
-90.09907
 51
2.04111
  0
LINE
  8
Engraving
 62
   255
 39
0.400
  6
CONTINUOUS
 10
237.32654
 20
42.09400
 30
 0
 11
236.44373
 21
42.09400
  0
LINE
  8
Engraving
 62
   255
 39
0.400
  6
CONTINUOUS
 10
236.44373
 20
42.09400
 30
 0
 11
236.44373
 21
44.65700
  0
LINE
  8
Engraving
 62
   255
 39
0.400
  6
CONTINUOUS
 10
236.44373
 20
38.29550
 30
 0
 11
237.86762
 21
38.29550
  0
LINE
  8
Engraving
 62
   255
 39
0.400
  6
CONTINUOUS
 10
238.15240
 20
39.57700
 30
 0
 11
236.44373
 21
39.57700
  0
LINE
  8
Engraving
 62
   255
 39
0.400
  6
CONTINUOUS
 10
236.44373
 20
39.57700
 30
 0
 11
236.44373
 21
37.01400
  0
LINE
  8
Engraving
 62
   255
 39
0.400
  6
CONTINUOUS
 10
236.44373
 20
37.01400
 30
 0
 11
238.15240
 21
37.01400
  0
LINE
  8
Engraving
 62
   255
 39
0.400
  6
CONTINUOUS
 10
236.44373
 20
31.93500
 30
 0
 11
236.44373
 21
34.49800
  0
LINE
  8
Engraving
 62
   255
 39
0.400
  6
CONTINUOUS
 10
236.44373
 20
34.49800
 30
 0
 11
237.38350
 21
34.49800
  0
ARC
  8
Engraving
 62
   255
 39
0.400
  6
CONTINUOUS
 10
237.38350
 20
33.85725
 30
 0
 40
0.64075
 50
-90.00000
 51
90.00000
  0
LINE
  8
Engraving
 62
   255
 39
0.400
  6
CONTINUOUS
 10
237.38350
 20
33.21650
 30
 0
 11
236.44373
 21
33.21650
  0
LINE
  8
Engraving
 62
   255
 39
0.400
  6
CONTINUOUS
 10
236.44373
 20
26.85500
 30
 0
 11
236.44373
 21
29.41800
  0
LINE
  8
Engraving
 62
   255
 39
0.400
  6
CONTINUOUS
 10
236.44373
 20
29.41800
 30
 0
 11
237.38350
 21
29.41800
  0
ARC
  8
Engraving
 62
   255
 39
0.400
  6
CONTINUOUS
 10
237.38350
 20
28.77725
 30
 0
 40
0.64075
 50
-90.00000
 51
90.00000
  0
LINE
  8
Engraving
 62
   255
 39
0.400
  6
CONTINUOUS
 10
237.38350
 20
28.13650
 30
 0
 11
236.44373
 21
28.13650
  0
LINE
  8
Engraving
 62
   255
 39
0.400
  6
CONTINUOUS
 10
236.44373
 20
28.13650
 30
 0
 11
237.44046
 21
28.13650
  0
LINE
  8
Engraving
 62
   255
 39
0.400
  6
CONTINUOUS
 10
237.44046
 20
28.13650
 30
 0
 11
238.01001
 21
26.85500
  0
LINE
  8
Engraving
 62
   255
 39
0.400
  6
CONTINUOUS
 10
216.42694
 20
52.37550
 30
 0
 11
217.90779
 21
52.37550
  0
LINE
  8
Engraving
 62
   255
 39
0.400
  6
CONTINUOUS
 10
217.16737
 20
51.63508
 30
 0
 11
217.16737
 21
53.11592
  0
LINE
  8
Engraving
 62
   255
 39
0.400
  6
CONTINUOUS
 10
216.36573
 20
37.07150
 30
 0
 11
217.84658
 21
37.07150
  0
ARC
  8
Contour
 62
   7
 39
0.100
  6
CONTINUOUS
 10
9.87000
 20
23.94000
 30
 0
 40
1.00000
 50
180.00000
 51
270.00000
  0
LINE
  8
Contour
 62
   7
 39
0.100
  6
CONTINUOUS
 10
9.87000
 20
22.94000
 30
 0
 11
17.37000
 21
22.94000
  0
ARC
  8
Contour
 62
   7
 39
0.100
  6
CONTINUOUS
 10
17.37000
 20
23.94000
 30
 0
 40
1.00000
 50
270.00000
 51
360.00000
  0
LINE
  8
Contour
 62
   7
 39
0.100
  6
CONTINUOUS
 10
18.37000
 20
23.94000
 30
 0
 11
18.37000
 21
45.94000
  0
ARC
  8
Contour
 62
   7
 39
0.100
  6
CONTINUOUS
 10
17.37000
 20
45.94000
 30
 0
 40
1.00000
 50
0.00000
 51
90.00000
  0
LINE
  8
Contour
 62
   7
 39
0.100
  6
CONTINUOUS
 10
17.37000
 20
46.94000
 30
 0
 11
9.87000
 21
46.94000
  0
ARC
  8
Contour
 62
   7
 39
0.100
  6
CONTINUOUS
 10
9.87000
 20
45.94000
 30
 0
 40
1.00000
 50
90.00000
 51
180.00000
  0
LINE
  8
Contour
 62
   7
 39
0.100
  6
CONTINUOUS
 10
8.87000
 20
45.94000
 30
 0
 11
8.87000
 21
23.94000
  0
ARC
  8
Contour
 62
   7
 39
0.100
  6
CONTINUOUS
 10
26.70300
 20
49.85900
 30
 0
 40
1.50000
 50
180.00000
 51
270.00000
  0
LINE
  8
Contour
 62
   7
 39
0.100
  6
CONTINUOUS
 10
26.70300
 20
48.35900
 30
 0
 11
36.20300
 21
48.35900
  0
ARC
  8
Contour
 62
   7
 39
0.100
  6
CONTINUOUS
 10
36.20300
 20
49.85900
 30
 0
 40
1.50000
 50
270.00000
 51
360.00000
  0
LINE
  8
Contour
 62
   7
 39
0.100
  6
CONTINUOUS
 10
37.70300
 20
49.85900
 30
 0
 11
37.70300
 21
59.35900
  0
ARC
  8
Contour
 62
   7
 39
0.100
  6
CONTINUOUS
 10
36.20300
 20
59.35900
 30
 0
 40
1.50000
 50
0.00000
 51
90.00000
  0
LINE
  8
Contour
 62
   7
 39
0.100
  6
CONTINUOUS
 10
36.20300
 20
60.85900
 30
 0
 11
26.70300
 21
60.85900
  0
ARC
  8
Contour
 62
   7
 39
0.100
  6
CONTINUOUS
 10
26.70300
 20
59.35900
 30
 0
 40
1.50000
 50
90.00000
 51
180.00000
  0
LINE
  8
Contour
 62
   7
 39
0.100
  6
CONTINUOUS
 10
25.20300
 20
59.35900
 30
 0
 11
25.20300
 21
49.85900
  0
ARC
  8
Contour
 62
   7
 39
0.100
  6
CONTINUOUS
 10
26.70300
 20
32.46200
 30
 0
 40
1.50000
 50
180.00000
 51
270.00000
  0
LINE
  8
Contour
 62
   7
 39
0.100
  6
CONTINUOUS
 10
26.70300
 20
30.96200
 30
 0
 11
36.20300
 21
30.96200
  0
ARC
  8
Contour
 62
   7
 39
0.100
  6
CONTINUOUS
 10
36.20300
 20
32.46200
 30
 0
 40
1.50000
 50
270.00000
 51
360.00000
  0
LINE
  8
Contour
 62
   7
 39
0.100
  6
CONTINUOUS
 10
37.70300
 20
32.46200
 30
 0
 11
37.70300
 21
41.96200
  0
ARC
  8
Contour
 62
   7
 39
0.100
  6
CONTINUOUS
 10
36.20300
 20
41.96200
 30
 0
 40
1.50000
 50
0.00000
 51
90.00000
  0
LINE
  8
Contour
 62
   7
 39
0.100
  6
CONTINUOUS
 10
36.20300
 20
43.46200
 30
 0
 11
26.70300
 21
43.46200
  0
ARC
  8
Contour
 62
   7
 39
0.100
  6
CONTINUOUS
 10
26.70300
 20
41.96200
 30
 0
 40
1.50000
 50
90.00000
 51
180.00000
  0
LINE
  8
Contour
 62
   7
 39
0.100
  6
CONTINUOUS
 10
25.20300
 20
41.96200
 30
 0
 11
25.20300
 21
32.46200
  0
CIRCLE
  8
Contour
 62
   7
 39
0.100
  6
CONTINUOUS
 10
97.13400
 20
37.38900
 30
 0
 40
6.25000
  0
ARC
  8
Contour
 62
   7
 39
0.100
  6
CONTINUOUS
 10
240.67100
 20
23.94000
 30
 0
 40
1.00000
 50
180.00000
 51
270.00000
  0
LINE
  8
Contour
 62
   7
 39
0.100
  6
CONTINUOUS
 10
240.67100
 20
22.94000
 30
 0
 11
248.17100
 21
22.94000
  0
ARC
  8
Contour
 62
   7
 39
0.100
  6
CONTINUOUS
 10
248.17100
 20
23.94000
 30
 0
 40
1.00000
 50
270.00000
 51
360.00000
  0
LINE
  8
Contour
 62
   7
 39
0.100
  6
CONTINUOUS
 10
249.17100
 20
23.94000
 30
 0
 11
249.17100
 21
45.94000
  0
ARC
  8
Contour
 62
   7
 39
0.100
  6
CONTINUOUS
 10
248.17100
 20
45.94000
 30
 0
 40
1.00000
 50
0.00000
 51
90.00000
  0
LINE
  8
Contour
 62
   7
 39
0.100
  6
CONTINUOUS
 10
248.17100
 20
46.94000
 30
 0
 11
240.67100
 21
46.94000
  0
ARC
  8
Contour
 62
   7
 39
0.100
  6
CONTINUOUS
 10
240.67100
 20
45.94000
 30
 0
 40
1.00000
 50
90.00000
 51
180.00000
  0
LINE
  8
Contour
 62
   7
 39
0.100
  6
CONTINUOUS
 10
239.67100
 20
45.94000
 30
 0
 11
239.67100
 21
23.94000
  0
ARC
  8
Contour
 62
   7
 39
0.100
  6
CONTINUOUS
 10
195.50300
 20
33.38000
 30
 0
 40
1.00000
 50
180.00000
 51
270.00000
  0
LINE
  8
Contour
 62
   7
 39
0.100
  6
CONTINUOUS
 10
195.50300
 20
32.38000
 30
 0
 11
203.00300
 21
32.38000
  0
ARC
  8
Contour
 62
   7
 39
0.100
  6
CONTINUOUS
 10
203.00300
 20
33.38000
 30
 0
 40
1.00000
 50
270.00000
 51
360.00000
  0
LINE
  8
Contour
 62
   7
 39
0.100
  6
CONTINUOUS
 10
204.00300
 20
33.38000
 30
 0
 11
204.00300
 21
55.38000
  0
ARC
  8
Contour
 62
   7
 39
0.100
  6
CONTINUOUS
 10
203.00300
 20
55.38000
 30
 0
 40
1.00000
 50
0.00000
 51
90.00000
  0
LINE
  8
Contour
 62
   7
 39
0.100
  6
CONTINUOUS
 10
203.00300
 20
56.38000
 30
 0
 11
195.50300
 21
56.38000
  0
ARC
  8
Contour
 62
   7
 39
0.100
  6
CONTINUOUS
 10
195.50300
 20
55.38000
 30
 0
 40
1.00000
 50
90.00000
 51
180.00000
  0
LINE
  8
Contour
 62
   7
 39
0.100
  6
CONTINUOUS
 10
194.50300
 20
55.38000
 30
 0
 11
194.50300
 21
33.38000
  0
ARC
  8
Contour
 62
   7
 39
0.100
  6
CONTINUOUS
 10
220.89700
 20
33.38000
 30
 0
 40
1.00000
 50
180.00000
 51
270.00000
  0
LINE
  8
Contour
 62
   7
 39
0.100
  6
CONTINUOUS
 10
220.89700
 20
32.38000
 30
 0
 11
228.39700
 21
32.38000
  0
ARC
  8
Contour
 62
   7
 39
0.100
  6
CONTINUOUS
 10
228.39700
 20
33.38000
 30
 0
 40
1.00000
 50
270.00000
 51
360.00000
  0
LINE
  8
Contour
 62
   7
 39
0.100
  6
CONTINUOUS
 10
229.39700
 20
33.38000
 30
 0
 11
229.39700
 21
55.38000
  0
ARC
  8
Contour
 62
   7
 39
0.100
  6
CONTINUOUS
 10
228.39700
 20
55.38000
 30
 0
 40
1.00000
 50
0.00000
 51
90.00000
  0
LINE
  8
Contour
 62
   7
 39
0.100
  6
CONTINUOUS
 10
228.39700
 20
56.38000
 30
 0
 11
220.89700
 21
56.38000
  0
ARC
  8
Contour
 62
   7
 39
0.100
  6
CONTINUOUS
 10
220.89700
 20
55.38000
 30
 0
 40
1.00000
 50
90.00000
 51
180.00000
  0
LINE
  8
Contour
 62
   7
 39
0.100
  6
CONTINUOUS
 10
219.89700
 20
55.38000
 30
 0
 11
219.89700
 21
33.38000
  0
ARC
  8
Contour
 62
   7
 39
0.100
  6
CONTINUOUS
 10
222.93500
 20
15.59000
 30
 0
 40
1.00000
 50
270.00000
 51
360.00000
  0
LINE
  8
Contour
 62
   7
 39
0.100
  6
CONTINUOUS
 10
223.93500
 20
15.59000
 30
 0
 11
223.93500
 21
23.09000
  0
ARC
  8
Contour
 62
   7
 39
0.100
  6
CONTINUOUS
 10
222.93500
 20
23.09000
 30
 0
 40
1.00000
 50
0.00000
 51
90.00000
  0
LINE
  8
Contour
 62
   7
 39
0.100
  6
CONTINUOUS
 10
222.93500
 20
24.09000
 30
 0
 11
200.93500
 21
24.09000
  0
ARC
  8
Contour
 62
   7
 39
0.100
  6
CONTINUOUS
 10
200.93500
 20
23.09000
 30
 0
 40
1.00000
 50
90.00000
 51
180.00000
  0
LINE
  8
Contour
 62
   7
 39
0.100
  6
CONTINUOUS
 10
199.93500
 20
23.09000
 30
 0
 11
199.93500
 21
15.59000
  0
ARC
  8
Contour
 62
   7
 39
0.100
  6
CONTINUOUS
 10
200.93500
 20
15.59000
 30
 0
 40
1.00000
 50
180.00000
 51
270.00000
  0
LINE
  8
Contour
 62
   7
 39
0.100
  6
CONTINUOUS
 10
200.93500
 20
14.59000
 30
 0
 11
222.93500
 21
14.59000
  0
ARC
  8
Contour
 62
   7
 39
0.100
  6
CONTINUOUS
 10
26.70300
 20
15.06400
 30
 0
 40
1.50000
 50
180.00000
 51
270.00000
  0
LINE
  8
Contour
 62
   7
 39
0.100
  6
CONTINUOUS
 10
26.70300
 20
13.56400
 30
 0
 11
36.20300
 21
13.56400
  0
ARC
  8
Contour
 62
   7
 39
0.100
  6
CONTINUOUS
 10
36.20300
 20
15.06400
 30
 0
 40
1.50000
 50
270.00000
 51
360.00000
  0
LINE
  8
Contour
 62
   7
 39
0.100
  6
CONTINUOUS
 10
37.70300
 20
15.06400
 30
 0
 11
37.70300
 21
24.56400
  0
ARC
  8
Contour
 62
   7
 39
0.100
  6
CONTINUOUS
 10
36.20300
 20
24.56400
 30
 0
 40
1.50000
 50
0.00000
 51
90.00000
  0
LINE
  8
Contour
 62
   7
 39
0.100
  6
CONTINUOUS
 10
36.20300
 20
26.06400
 30
 0
 11
26.70300
 21
26.06400
  0
ARC
  8
Contour
 62
   7
 39
0.100
  6
CONTINUOUS
 10
26.70300
 20
24.56400
 30
 0
 40
1.50000
 50
90.00000
 51
180.00000
  0
LINE
  8
Contour
 62
   7
 39
0.100
  6
CONTINUOUS
 10
25.20300
 20
24.56400
 30
 0
 11
25.20300
 21
15.06400
  0
ARC
  8
Contour
 62
   7
 39
0.100
  6
CONTINUOUS
 10
43.20300
 20
49.85900
 30
 0
 40
1.50000
 50
180.00000
 51
270.00000
  0
LINE
  8
Contour
 62
   7
 39
0.100
  6
CONTINUOUS
 10
43.20300
 20
48.35900
 30
 0
 11
52.70300
 21
48.35900
  0
ARC
  8
Contour
 62
   7
 39
0.100
  6
CONTINUOUS
 10
52.70300
 20
49.85900
 30
 0
 40
1.50000
 50
270.00000
 51
360.00000
  0
LINE
  8
Contour
 62
   7
 39
0.100
  6
CONTINUOUS
 10
54.20300
 20
49.85900
 30
 0
 11
54.20300
 21
59.35900
  0
ARC
  8
Contour
 62
   7
 39
0.100
  6
CONTINUOUS
 10
52.70300
 20
59.35900
 30
 0
 40
1.50000
 50
0.00000
 51
90.00000
  0
LINE
  8
Contour
 62
   7
 39
0.100
  6
CONTINUOUS
 10
52.70300
 20
60.85900
 30
 0
 11
43.20300
 21
60.85900
  0
ARC
  8
Contour
 62
   7
 39
0.100
  6
CONTINUOUS
 10
43.20300
 20
59.35900
 30
 0
 40
1.50000
 50
90.00000
 51
180.00000
  0
LINE
  8
Contour
 62
   7
 39
0.100
  6
CONTINUOUS
 10
41.70300
 20
59.35900
 30
 0
 11
41.70300
 21
49.85900
  0
ARC
  8
Contour
 62
   7
 39
0.100
  6
CONTINUOUS
 10
43.20300
 20
32.46200
 30
 0
 40
1.50000
 50
180.00000
 51
270.00000
  0
LINE
  8
Contour
 62
   7
 39
0.100
  6
CONTINUOUS
 10
43.20300
 20
30.96200
 30
 0
 11
52.70300
 21
30.96200
  0
ARC
  8
Contour
 62
   7
 39
0.100
  6
CONTINUOUS
 10
52.70300
 20
32.46200
 30
 0
 40
1.50000
 50
270.00000
 51
360.00000
  0
LINE
  8
Contour
 62
   7
 39
0.100
  6
CONTINUOUS
 10
54.20300
 20
32.46200
 30
 0
 11
54.20300
 21
41.96200
  0
ARC
  8
Contour
 62
   7
 39
0.100
  6
CONTINUOUS
 10
52.70300
 20
41.96200
 30
 0
 40
1.50000
 50
0.00000
 51
90.00000
  0
LINE
  8
Contour
 62
   7
 39
0.100
  6
CONTINUOUS
 10
52.70300
 20
43.46200
 30
 0
 11
43.20300
 21
43.46200
  0
ARC
  8
Contour
 62
   7
 39
0.100
  6
CONTINUOUS
 10
43.20300
 20
41.96200
 30
 0
 40
1.50000
 50
90.00000
 51
180.00000
  0
LINE
  8
Contour
 62
   7
 39
0.100
  6
CONTINUOUS
 10
41.70300
 20
41.96200
 30
 0
 11
41.70300
 21
32.46200
  0
ARC
  8
Contour
 62
   7
 39
0.100
  6
CONTINUOUS
 10
43.20300
 20
15.06400
 30
 0
 40
1.50000
 50
180.00000
 51
270.00000
  0
LINE
  8
Contour
 62
   7
 39
0.100
  6
CONTINUOUS
 10
43.20300
 20
13.56400
 30
 0
 11
52.70300
 21
13.56400
  0
ARC
  8
Contour
 62
   7
 39
0.100
  6
CONTINUOUS
 10
52.70300
 20
15.06400
 30
 0
 40
1.50000
 50
270.00000
 51
360.00000
  0
LINE
  8
Contour
 62
   7
 39
0.100
  6
CONTINUOUS
 10
54.20300
 20
15.06400
 30
 0
 11
54.20300
 21
24.56400
  0
ARC
  8
Contour
 62
   7
 39
0.100
  6
CONTINUOUS
 10
52.70300
 20
24.56400
 30
 0
 40
1.50000
 50
0.00000
 51
90.00000
  0
LINE
  8
Contour
 62
   7
 39
0.100
  6
CONTINUOUS
 10
52.70300
 20
26.06400
 30
 0
 11
43.20300
 21
26.06400
  0
ARC
  8
Contour
 62
   7
 39
0.100
  6
CONTINUOUS
 10
43.20300
 20
24.56400
 30
 0
 40
1.50000
 50
90.00000
 51
180.00000
  0
LINE
  8
Contour
 62
   7
 39
0.100
  6
CONTINUOUS
 10
41.70300
 20
24.56400
 30
 0
 11
41.70300
 21
15.06400
  0
ARC
  8
Contour
 62
   7
 39
0.100
  6
CONTINUOUS
 10
59.70300
 20
49.85900
 30
 0
 40
1.50000
 50
180.00000
 51
270.00000
  0
LINE
  8
Contour
 62
   7
 39
0.100
  6
CONTINUOUS
 10
59.70300
 20
48.35900
 30
 0
 11
69.20300
 21
48.35900
  0
ARC
  8
Contour
 62
   7
 39
0.100
  6
CONTINUOUS
 10
69.20300
 20
49.85900
 30
 0
 40
1.50000
 50
270.00000
 51
360.00000
  0
LINE
  8
Contour
 62
   7
 39
0.100
  6
CONTINUOUS
 10
70.70300
 20
49.85900
 30
 0
 11
70.70300
 21
59.35900
  0
ARC
  8
Contour
 62
   7
 39
0.100
  6
CONTINUOUS
 10
69.20300
 20
59.35900
 30
 0
 40
1.50000
 50
0.00000
 51
90.00000
  0
LINE
  8
Contour
 62
   7
 39
0.100
  6
CONTINUOUS
 10
69.20300
 20
60.85900
 30
 0
 11
59.70300
 21
60.85900
  0
ARC
  8
Contour
 62
   7
 39
0.100
  6
CONTINUOUS
 10
59.70300
 20
59.35900
 30
 0
 40
1.50000
 50
90.00000
 51
180.00000
  0
LINE
  8
Contour
 62
   7
 39
0.100
  6
CONTINUOUS
 10
58.20300
 20
59.35900
 30
 0
 11
58.20300
 21
49.85900
  0
ARC
  8
Contour
 62
   7
 39
0.100
  6
CONTINUOUS
 10
59.70300
 20
32.46200
 30
 0
 40
1.50000
 50
180.00000
 51
270.00000
  0
LINE
  8
Contour
 62
   7
 39
0.100
  6
CONTINUOUS
 10
59.70300
 20
30.96200
 30
 0
 11
69.20300
 21
30.96200
  0
ARC
  8
Contour
 62
   7
 39
0.100
  6
CONTINUOUS
 10
69.20300
 20
32.46200
 30
 0
 40
1.50000
 50
270.00000
 51
360.00000
  0
LINE
  8
Contour
 62
   7
 39
0.100
  6
CONTINUOUS
 10
70.70300
 20
32.46200
 30
 0
 11
70.70300
 21
41.96200
  0
ARC
  8
Contour
 62
   7
 39
0.100
  6
CONTINUOUS
 10
69.20300
 20
41.96200
 30
 0
 40
1.50000
 50
0.00000
 51
90.00000
  0
LINE
  8
Contour
 62
   7
 39
0.100
  6
CONTINUOUS
 10
69.20300
 20
43.46200
 30
 0
 11
59.70300
 21
43.46200
  0
ARC
  8
Contour
 62
   7
 39
0.100
  6
CONTINUOUS
 10
59.70300
 20
41.96200
 30
 0
 40
1.50000
 50
90.00000
 51
180.00000
  0
LINE
  8
Contour
 62
   7
 39
0.100
  6
CONTINUOUS
 10
58.20300
 20
41.96200
 30
 0
 11
58.20300
 21
32.46200
  0
ARC
  8
Contour
 62
   7
 39
0.100
  6
CONTINUOUS
 10
59.70300
 20
15.06400
 30
 0
 40
1.50000
 50
180.00000
 51
270.00000
  0
LINE
  8
Contour
 62
   7
 39
0.100
  6
CONTINUOUS
 10
59.70300
 20
13.56400
 30
 0
 11
69.20300
 21
13.56400
  0
ARC
  8
Contour
 62
   7
 39
0.100
  6
CONTINUOUS
 10
69.20300
 20
15.06400
 30
 0
 40
1.50000
 50
270.00000
 51
360.00000
  0
LINE
  8
Contour
 62
   7
 39
0.100
  6
CONTINUOUS
 10
70.70300
 20
15.06400
 30
 0
 11
70.70300
 21
24.56400
  0
ARC
  8
Contour
 62
   7
 39
0.100
  6
CONTINUOUS
 10
69.20300
 20
24.56400
 30
 0
 40
1.50000
 50
0.00000
 51
90.00000
  0
LINE
  8
Contour
 62
   7
 39
0.100
  6
CONTINUOUS
 10
69.20300
 20
26.06400
 30
 0
 11
59.70300
 21
26.06400
  0
ARC
  8
Contour
 62
   7
 39
0.100
  6
CONTINUOUS
 10
59.70300
 20
24.56400
 30
 0
 40
1.50000
 50
90.00000
 51
180.00000
  0
LINE
  8
Contour
 62
   7
 39
0.100
  6
CONTINUOUS
 10
58.20300
 20
24.56400
 30
 0
 11
58.20300
 21
15.06400
  0
ARC
  8
Contour
 62
   7
 39
0.100
  6
CONTINUOUS
 10
76.20300
 20
49.85900
 30
 0
 40
1.50000
 50
180.00000
 51
270.00000
  0
LINE
  8
Contour
 62
   7
 39
0.100
  6
CONTINUOUS
 10
76.20300
 20
48.35900
 30
 0
 11
85.70300
 21
48.35900
  0
ARC
  8
Contour
 62
   7
 39
0.100
  6
CONTINUOUS
 10
85.70300
 20
49.85900
 30
 0
 40
1.50000
 50
270.00000
 51
360.00000
  0
LINE
  8
Contour
 62
   7
 39
0.100
  6
CONTINUOUS
 10
87.20300
 20
49.85900
 30
 0
 11
87.20300
 21
59.35900
  0
ARC
  8
Contour
 62
   7
 39
0.100
  6
CONTINUOUS
 10
85.70300
 20
59.35900
 30
 0
 40
1.50000
 50
0.00000
 51
90.00000
  0
LINE
  8
Contour
 62
   7
 39
0.100
  6
CONTINUOUS
 10
85.70300
 20
60.85900
 30
 0
 11
76.20300
 21
60.85900
  0
ARC
  8
Contour
 62
   7
 39
0.100
  6
CONTINUOUS
 10
76.20300
 20
59.35900
 30
 0
 40
1.50000
 50
90.00000
 51
180.00000
  0
LINE
  8
Contour
 62
   7
 39
0.100
  6
CONTINUOUS
 10
74.70300
 20
59.35900
 30
 0
 11
74.70300
 21
49.85900
  0
ARC
  8
Contour
 62
   7
 39
0.100
  6
CONTINUOUS
 10
76.20300
 20
32.46200
 30
 0
 40
1.50000
 50
180.00000
 51
270.00000
  0
LINE
  8
Contour
 62
   7
 39
0.100
  6
CONTINUOUS
 10
76.20300
 20
30.96200
 30
 0
 11
85.70300
 21
30.96200
  0
ARC
  8
Contour
 62
   7
 39
0.100
  6
CONTINUOUS
 10
85.70300
 20
32.46200
 30
 0
 40
1.50000
 50
270.00000
 51
360.00000
  0
LINE
  8
Contour
 62
   7
 39
0.100
  6
CONTINUOUS
 10
87.20300
 20
32.46200
 30
 0
 11
87.20300
 21
41.96200
  0
ARC
  8
Contour
 62
   7
 39
0.100
  6
CONTINUOUS
 10
85.70300
 20
41.96200
 30
 0
 40
1.50000
 50
0.00000
 51
90.00000
  0
LINE
  8
Contour
 62
   7
 39
0.100
  6
CONTINUOUS
 10
85.70300
 20
43.46200
 30
 0
 11
76.20300
 21
43.46200
  0
ARC
  8
Contour
 62
   7
 39
0.100
  6
CONTINUOUS
 10
76.20300
 20
41.96200
 30
 0
 40
1.50000
 50
90.00000
 51
180.00000
  0
LINE
  8
Contour
 62
   7
 39
0.100
  6
CONTINUOUS
 10
74.70300
 20
41.96200
 30
 0
 11
74.70300
 21
32.46200
  0
ARC
  8
Contour
 62
   7
 39
0.100
  6
CONTINUOUS
 10
76.20300
 20
15.06400
 30
 0
 40
1.50000
 50
180.00000
 51
270.00000
  0
LINE
  8
Contour
 62
   7
 39
0.100
  6
CONTINUOUS
 10
76.20300
 20
13.56400
 30
 0
 11
85.70300
 21
13.56400
  0
ARC
  8
Contour
 62
   7
 39
0.100
  6
CONTINUOUS
 10
85.70300
 20
15.06400
 30
 0
 40
1.50000
 50
270.00000
 51
360.00000
  0
LINE
  8
Contour
 62
   7
 39
0.100
  6
CONTINUOUS
 10
87.20300
 20
15.06400
 30
 0
 11
87.20300
 21
24.56400
  0
ARC
  8
Contour
 62
   7
 39
0.100
  6
CONTINUOUS
 10
85.70300
 20
24.56400
 30
 0
 40
1.50000
 50
0.00000
 51
90.00000
  0
LINE
  8
Contour
 62
   7
 39
0.100
  6
CONTINUOUS
 10
85.70300
 20
26.06400
 30
 0
 11
76.20300
 21
26.06400
  0
ARC
  8
Contour
 62
   7
 39
0.100
  6
CONTINUOUS
 10
76.20300
 20
24.56400
 30
 0
 40
1.50000
 50
90.00000
 51
180.00000
  0
LINE
  8
Contour
 62
   7
 39
0.100
  6
CONTINUOUS
 10
74.70300
 20
24.56400
 30
 0
 11
74.70300
 21
15.06400
  0
ARC
  8
Contour
 62
   7
 39
0.100
  6
CONTINUOUS
 10
92.70300
 20
15.06400
 30
 0
 40
1.50000
 50
180.00000
 51
270.00000
  0
LINE
  8
Contour
 62
   7
 39
0.100
  6
CONTINUOUS
 10
92.70300
 20
13.56400
 30
 0
 11
102.20300
 21
13.56400
  0
ARC
  8
Contour
 62
   7
 39
0.100
  6
CONTINUOUS
 10
102.20300
 20
15.06400
 30
 0
 40
1.50000
 50
270.00000
 51
360.00000
  0
LINE
  8
Contour
 62
   7
 39
0.100
  6
CONTINUOUS
 10
103.70300
 20
15.06400
 30
 0
 11
103.70300
 21
24.56400
  0
ARC
  8
Contour
 62
   7
 39
0.100
  6
CONTINUOUS
 10
102.20300
 20
24.56400
 30
 0
 40
1.50000
 50
0.00000
 51
90.00000
  0
LINE
  8
Contour
 62
   7
 39
0.100
  6
CONTINUOUS
 10
102.20300
 20
26.06400
 30
 0
 11
92.70300
 21
26.06400
  0
ARC
  8
Contour
 62
   7
 39
0.100
  6
CONTINUOUS
 10
92.70300
 20
24.56400
 30
 0
 40
1.50000
 50
90.00000
 51
180.00000
  0
LINE
  8
Contour
 62
   7
 39
0.100
  6
CONTINUOUS
 10
91.20300
 20
24.56400
 30
 0
 11
91.20300
 21
15.06400
  0
ARC
  8
Contour
 62
   7
 39
0.100
  6
CONTINUOUS
 10
109.20300
 20
15.06400
 30
 0
 40
1.50000
 50
180.00000
 51
270.00000
  0
LINE
  8
Contour
 62
   7
 39
0.100
  6
CONTINUOUS
 10
109.20300
 20
13.56400
 30
 0
 11
118.70300
 21
13.56400
  0
ARC
  8
Contour
 62
   7
 39
0.100
  6
CONTINUOUS
 10
118.70300
 20
15.06400
 30
 0
 40
1.50000
 50
270.00000
 51
360.00000
  0
LINE
  8
Contour
 62
   7
 39
0.100
  6
CONTINUOUS
 10
120.20300
 20
15.06400
 30
 0
 11
120.20300
 21
24.56400
  0
ARC
  8
Contour
 62
   7
 39
0.100
  6
CONTINUOUS
 10
118.70300
 20
24.56400
 30
 0
 40
1.50000
 50
0.00000
 51
90.00000
  0
LINE
  8
Contour
 62
   7
 39
0.100
  6
CONTINUOUS
 10
118.70300
 20
26.06400
 30
 0
 11
109.20300
 21
26.06400
  0
ARC
  8
Contour
 62
   7
 39
0.100
  6
CONTINUOUS
 10
109.20300
 20
24.56400
 30
 0
 40
1.50000
 50
90.00000
 51
180.00000
  0
LINE
  8
Contour
 62
   7
 39
0.100
  6
CONTINUOUS
 10
107.70300
 20
24.56400
 30
 0
 11
107.70300
 21
15.06400
  0
CIRCLE
  8
Contour
 62
   7
 39
0.100
  6
CONTINUOUS
 10
97.13400
 20
54.38900
 30
 0
 40
6.25000
  0
ARC
  8
Contour
 62
   7
 39
0.100
  6
CONTINUOUS
 10
134.70300
 20
32.46200
 30
 0
 40
1.50000
 50
180.00000
 51
270.00000
  0
LINE
  8
Contour
 62
   7
 39
0.100
  6
CONTINUOUS
 10
134.70300
 20
30.96200
 30
 0
 11
144.20300
 21
30.96200
  0
ARC
  8
Contour
 62
   7
 39
0.100
  6
CONTINUOUS
 10
144.20300
 20
32.46200
 30
 0
 40
1.50000
 50
270.00000
 51
360.00000
  0
LINE
  8
Contour
 62
   7
 39
0.100
  6
CONTINUOUS
 10
145.70300
 20
32.46200
 30
 0
 11
145.70300
 21
41.96200
  0
ARC
  8
Contour
 62
   7
 39
0.100
  6
CONTINUOUS
 10
144.20300
 20
41.96200
 30
 0
 40
1.50000
 50
0.00000
 51
90.00000
  0
LINE
  8
Contour
 62
   7
 39
0.100
  6
CONTINUOUS
 10
144.20300
 20
43.46200
 30
 0
 11
134.70300
 21
43.46200
  0
ARC
  8
Contour
 62
   7
 39
0.100
  6
CONTINUOUS
 10
134.70300
 20
41.96200
 30
 0
 40
1.50000
 50
90.00000
 51
180.00000
  0
LINE
  8
Contour
 62
   7
 39
0.100
  6
CONTINUOUS
 10
133.20300
 20
41.96200
 30
 0
 11
133.20300
 21
32.46200
  0
ARC
  8
Contour
 62
   7
 39
0.100
  6
CONTINUOUS
 10
134.70300
 20
15.06400
 30
 0
 40
1.50000
 50
180.00000
 51
270.00000
  0
LINE
  8
Contour
 62
   7
 39
0.100
  6
CONTINUOUS
 10
134.70300
 20
13.56400
 30
 0
 11
144.20300
 21
13.56400
  0
ARC
  8
Contour
 62
   7
 39
0.100
  6
CONTINUOUS
 10
144.20300
 20
15.06400
 30
 0
 40
1.50000
 50
270.00000
 51
360.00000
  0
LINE
  8
Contour
 62
   7
 39
0.100
  6
CONTINUOUS
 10
145.70300
 20
15.06400
 30
 0
 11
145.70300
 21
24.56400
  0
ARC
  8
Contour
 62
   7
 39
0.100
  6
CONTINUOUS
 10
144.20300
 20
24.56400
 30
 0
 40
1.50000
 50
0.00000
 51
90.00000
  0
LINE
  8
Contour
 62
   7
 39
0.100
  6
CONTINUOUS
 10
144.20300
 20
26.06400
 30
 0
 11
134.70300
 21
26.06400
  0
ARC
  8
Contour
 62
   7
 39
0.100
  6
CONTINUOUS
 10
134.70300
 20
24.56400
 30
 0
 40
1.50000
 50
90.00000
 51
180.00000
  0
LINE
  8
Contour
 62
   7
 39
0.100
  6
CONTINUOUS
 10
133.20300
 20
24.56400
 30
 0
 11
133.20300
 21
15.06400
  0
ARC
  8
Contour
 62
   7
 39
0.100
  6
CONTINUOUS
 10
151.20300
 20
32.46200
 30
 0
 40
1.50000
 50
180.00000
 51
270.00000
  0
LINE
  8
Contour
 62
   7
 39
0.100
  6
CONTINUOUS
 10
151.20300
 20
30.96200
 30
 0
 11
160.70300
 21
30.96200
  0
ARC
  8
Contour
 62
   7
 39
0.100
  6
CONTINUOUS
 10
160.70300
 20
32.46200
 30
 0
 40
1.50000
 50
270.00000
 51
360.00000
  0
LINE
  8
Contour
 62
   7
 39
0.100
  6
CONTINUOUS
 10
162.20300
 20
32.46200
 30
 0
 11
162.20300
 21
41.96200
  0
ARC
  8
Contour
 62
   7
 39
0.100
  6
CONTINUOUS
 10
160.70300
 20
41.96200
 30
 0
 40
1.50000
 50
0.00000
 51
90.00000
  0
LINE
  8
Contour
 62
   7
 39
0.100
  6
CONTINUOUS
 10
160.70300
 20
43.46200
 30
 0
 11
151.20300
 21
43.46200
  0
ARC
  8
Contour
 62
   7
 39
0.100
  6
CONTINUOUS
 10
151.20300
 20
41.96200
 30
 0
 40
1.50000
 50
90.00000
 51
180.00000
  0
LINE
  8
Contour
 62
   7
 39
0.100
  6
CONTINUOUS
 10
149.70300
 20
41.96200
 30
 0
 11
149.70300
 21
32.46200
  0
ARC
  8
Contour
 62
   7
 39
0.100
  6
CONTINUOUS
 10
151.20300
 20
15.06400
 30
 0
 40
1.50000
 50
180.00000
 51
270.00000
  0
LINE
  8
Contour
 62
   7
 39
0.100
  6
CONTINUOUS
 10
151.20300
 20
13.56400
 30
 0
 11
160.70300
 21
13.56400
  0
ARC
  8
Contour
 62
   7
 39
0.100
  6
CONTINUOUS
 10
160.70300
 20
15.06400
 30
 0
 40
1.50000
 50
270.00000
 51
360.00000
  0
LINE
  8
Contour
 62
   7
 39
0.100
  6
CONTINUOUS
 10
162.20300
 20
15.06400
 30
 0
 11
162.20300
 21
24.56400
  0
ARC
  8
Contour
 62
   7
 39
0.100
  6
CONTINUOUS
 10
160.70300
 20
24.56400
 30
 0
 40
1.50000
 50
0.00000
 51
90.00000
  0
LINE
  8
Contour
 62
   7
 39
0.100
  6
CONTINUOUS
 10
160.70300
 20
26.06400
 30
 0
 11
151.20300
 21
26.06400
  0
ARC
  8
Contour
 62
   7
 39
0.100
  6
CONTINUOUS
 10
151.20300
 20
24.56400
 30
 0
 40
1.50000
 50
90.00000
 51
180.00000
  0
LINE
  8
Contour
 62
   7
 39
0.100
  6
CONTINUOUS
 10
149.70300
 20
24.56400
 30
 0
 11
149.70300
 21
15.06400
  0
ARC
  8
Contour
 62
   7
 39
0.100
  6
CONTINUOUS
 10
167.70300
 20
32.46200
 30
 0
 40
1.50000
 50
180.00000
 51
270.00000
  0
LINE
  8
Contour
 62
   7
 39
0.100
  6
CONTINUOUS
 10
167.70300
 20
30.96200
 30
 0
 11
177.20300
 21
30.96200
  0
ARC
  8
Contour
 62
   7
 39
0.100
  6
CONTINUOUS
 10
177.20300
 20
32.46200
 30
 0
 40
1.50000
 50
270.00000
 51
360.00000
  0
LINE
  8
Contour
 62
   7
 39
0.100
  6
CONTINUOUS
 10
178.70300
 20
32.46200
 30
 0
 11
178.70300
 21
41.96200
  0
ARC
  8
Contour
 62
   7
 39
0.100
  6
CONTINUOUS
 10
177.20300
 20
41.96200
 30
 0
 40
1.50000
 50
0.00000
 51
90.00000
  0
LINE
  8
Contour
 62
   7
 39
0.100
  6
CONTINUOUS
 10
177.20300
 20
43.46200
 30
 0
 11
167.70300
 21
43.46200
  0
ARC
  8
Contour
 62
   7
 39
0.100
  6
CONTINUOUS
 10
167.70300
 20
41.96200
 30
 0
 40
1.50000
 50
90.00000
 51
180.00000
  0
LINE
  8
Contour
 62
   7
 39
0.100
  6
CONTINUOUS
 10
166.20300
 20
41.96200
 30
 0
 11
166.20300
 21
32.46200
  0
ARC
  8
Contour
 62
   7
 39
0.100
  6
CONTINUOUS
 10
167.70300
 20
15.06400
 30
 0
 40
1.50000
 50
180.00000
 51
270.00000
  0
LINE
  8
Contour
 62
   7
 39
0.100
  6
CONTINUOUS
 10
167.70300
 20
13.56400
 30
 0
 11
177.20300
 21
13.56400
  0
ARC
  8
Contour
 62
   7
 39
0.100
  6
CONTINUOUS
 10
177.20300
 20
15.06400
 30
 0
 40
1.50000
 50
270.00000
 51
360.00000
  0
LINE
  8
Contour
 62
   7
 39
0.100
  6
CONTINUOUS
 10
178.70300
 20
15.06400
 30
 0
 11
178.70300
 21
24.56400
  0
ARC
  8
Contour
 62
   7
 39
0.100
  6
CONTINUOUS
 10
177.20300
 20
24.56400
 30
 0
 40
1.50000
 50
0.00000
 51
90.00000
  0
LINE
  8
Contour
 62
   7
 39
0.100
  6
CONTINUOUS
 10
177.20300
 20
26.06400
 30
 0
 11
167.70300
 21
26.06400
  0
ARC
  8
Contour
 62
   7
 39
0.100
  6
CONTINUOUS
 10
167.70300
 20
24.56400
 30
 0
 40
1.50000
 50
90.00000
 51
180.00000
  0
LINE
  8
Contour
 62
   7
 39
0.100
  6
CONTINUOUS
 10
166.20300
 20
24.56400
 30
 0
 11
166.20300
 21
15.06400
  0
ARC
  8
Contour
 62
   7
 39
0.100
  6
CONTINUOUS
 10
109.20300
 20
32.56400
 30
 0
 40
1.50000
 50
180.00000
 51
270.00000
  0
LINE
  8
Contour
 62
   7
 39
0.100
  6
CONTINUOUS
 10
109.20300
 20
31.06400
 30
 0
 11
118.70300
 21
31.06400
  0
ARC
  8
Contour
 62
   7
 39
0.100
  6
CONTINUOUS
 10
118.70300
 20
32.56400
 30
 0
 40
1.50000
 50
270.00000
 51
360.00000
  0
LINE
  8
Contour
 62
   7
 39
0.100
  6
CONTINUOUS
 10
120.20300
 20
32.56400
 30
 0
 11
120.20300
 21
42.06400
  0
ARC
  8
Contour
 62
   7
 39
0.100
  6
CONTINUOUS
 10
118.70300
 20
42.06400
 30
 0
 40
1.50000
 50
0.00000
 51
90.00000
  0
LINE
  8
Contour
 62
   7
 39
0.100
  6
CONTINUOUS
 10
118.70300
 20
43.56400
 30
 0
 11
109.20300
 21
43.56400
  0
ARC
  8
Contour
 62
   7
 39
0.100
  6
CONTINUOUS
 10
109.20300
 20
42.06400
 30
 0
 40
1.50000
 50
90.00000
 51
180.00000
  0
LINE
  8
Contour
 62
   7
 39
0.100
  6
CONTINUOUS
 10
107.70300
 20
42.06400
 30
 0
 11
107.70300
 21
32.56400
  0
ARC
  8
Contour
 62
   7
 39
0.100
  6
CONTINUOUS
 10
109.20350
 20
50.06400
 30
 0
 40
1.50000
 50
180.00000
 51
270.00000
  0
LINE
  8
Contour
 62
   7
 39
0.100
  6
CONTINUOUS
 10
109.20350
 20
48.56400
 30
 0
 11
125.68250
 21
48.56400
  0
ARC
  8
Contour
 62
   7
 39
0.100
  6
CONTINUOUS
 10
125.68250
 20
50.06400
 30
 0
 40
1.50000
 50
270.00000
 51
360.00000
  0
LINE
  8
Contour
 62
   7
 39
0.100
  6
CONTINUOUS
 10
127.18250
 20
50.06400
 30
 0
 11
127.18250
 21
59.56400
  0
ARC
  8
Contour
 62
   7
 39
0.100
  6
CONTINUOUS
 10
125.68250
 20
59.56400
 30
 0
 40
1.50000
 50
0.00000
 51
90.00000
  0
LINE
  8
Contour
 62
   7
 39
0.100
  6
CONTINUOUS
 10
125.68250
 20
61.06400
 30
 0
 11
109.20350
 21
61.06400
  0
ARC
  8
Contour
 62
   7
 39
0.100
  6
CONTINUOUS
 10
109.20350
 20
59.56400
 30
 0
 40
1.50000
 50
90.00000
 51
180.00000
  0
LINE
  8
Contour
 62
   7
 39
0.100
  6
CONTINUOUS
 10
107.70350
 20
59.56400
 30
 0
 11
107.70350
 21
50.06400
  0
ARC
  8
Contour
 62
   7
 39
0.100
  6
CONTINUOUS
 10
144.59850
 20
49.35000
 30
 0
 40
1.50000
 50
180.00000
 51
270.00000
  0
LINE
  8
Contour
 62
   7
 39
0.100
  6
CONTINUOUS
 10
144.59850
 20
47.85000
 30
 0
 11
166.69950
 21
47.85000
  0
ARC
  8
Contour
 62
   7
 39
0.100
  6
CONTINUOUS
 10
166.69950
 20
49.35000
 30
 0
 40
1.50000
 50
270.00000
 51
360.00000
  0
LINE
  8
Contour
 62
   7
 39
0.100
  6
CONTINUOUS
 10
168.19950
 20
49.35000
 30
 0
 11
168.19950
 21
58.85000
  0
ARC
  8
Contour
 62
   7
 39
0.100
  6
CONTINUOUS
 10
166.69950
 20
58.85000
 30
 0
 40
1.50000
 50
0.00000
 51
90.00000
  0
LINE
  8
Contour
 62
   7
 39
0.100
  6
CONTINUOUS
 10
166.69950
 20
60.35000
 30
 0
 11
144.59850
 21
60.35000
  0
ARC
  8
Contour
 62
   7
 39
0.100
  6
CONTINUOUS
 10
144.59850
 20
58.85000
 30
 0
 40
1.50000
 50
90.00000
 51
180.00000
  0
LINE
  8
Contour
 62
   7
 39
0.100
  6
CONTINUOUS
 10
143.09850
 20
58.85000
 30
 0
 11
143.09850
 21
49.35000
  0
CIRCLE
  8
Contour
 62
   7
 39
0.100
  6
CONTINUOUS
 10
126.82700
 20
36.62800
 30
 0
 40
1.50000
  0
CIRCLE
  8
Contour
 62
   7
 39
0.100
  6
CONTINUOUS
 10
5.50000
 20
65.50000
 30
 0
 40
1.50000
  0
CIRCLE
  8
Contour
 62
   7
 39
0.100
  6
CONTINUOUS
 10
5.50000
 20
5.50000
 30
 0
 40
1.50000
  0
CIRCLE
  8
Contour
 62
   7
 39
0.100
  6
CONTINUOUS
 10
254.50000
 20
65.50000
 30
 0
 40
1.50000
  0
CIRCLE
  8
Contour
 62
   7
 39
0.100
  6
CONTINUOUS
 10
254.50000
 20
5.50000
 30
 0
 40
1.50000
  0
ENDSEC
  0
EOF
