G04 #@! TF.GenerationSoftware,KiCad,Pcbnew,(5.1.4)-1*
G04 #@! TF.CreationDate,2019-10-21T18:56:29-04:00*
G04 #@! TF.ProjectId,A-10C-CautionLED,412d3130-432d-4436-9175-74696f6e4c45,1*
G04 #@! TF.SameCoordinates,Original*
G04 #@! TF.FileFunction,Copper,L1,Top*
G04 #@! TF.FilePolarity,Positive*
%FSLAX46Y46*%
G04 Gerber Fmt 4.6, Leading zero omitted, Abs format (unit mm)*
G04 Created by KiCad (PCBNEW (5.1.4)-1) date 2019-10-21 18:56:29*
%MOMM*%
%LPD*%
G04 APERTURE LIST*
%ADD10C,1.800000*%
%ADD11R,1.800000X1.800000*%
%ADD12O,1.700000X1.700000*%
%ADD13R,1.700000X1.700000*%
%ADD14O,1.600000X1.600000*%
%ADD15C,1.600000*%
%ADD16C,0.800000*%
%ADD17C,0.250000*%
G04 APERTURE END LIST*
D10*
X60960000Y-36830000D03*
D11*
X58420000Y-36830000D03*
D10*
X60960000Y-48260000D03*
D11*
X58420000Y-48260000D03*
D10*
X60960000Y-59690000D03*
D11*
X58420000Y-59690000D03*
D10*
X60960000Y-71120000D03*
D11*
X58420000Y-71120000D03*
X58420000Y-82550000D03*
D10*
X60960000Y-82550000D03*
D11*
X58420000Y-93980000D03*
D10*
X60960000Y-93980000D03*
D11*
X58420000Y-105410000D03*
D10*
X60960000Y-105410000D03*
X60960000Y-116840000D03*
D11*
X58420000Y-116840000D03*
D10*
X60960000Y-128270000D03*
D11*
X58420000Y-128270000D03*
D10*
X60960000Y-139700000D03*
D11*
X58420000Y-139700000D03*
D10*
X60960000Y-151130000D03*
D11*
X58420000Y-151130000D03*
X58420000Y-162560000D03*
D10*
X60960000Y-162560000D03*
D11*
X83820000Y-36830000D03*
D10*
X86360000Y-36830000D03*
D11*
X83820000Y-48260000D03*
D10*
X86360000Y-48260000D03*
D11*
X83820000Y-59690000D03*
D10*
X86360000Y-59690000D03*
D11*
X83820000Y-71120000D03*
D10*
X86360000Y-71120000D03*
X86360000Y-82550000D03*
D11*
X83820000Y-82550000D03*
D10*
X86360000Y-93980000D03*
D11*
X83820000Y-93980000D03*
D10*
X86360000Y-105410000D03*
D11*
X83820000Y-105410000D03*
X83820000Y-116840000D03*
D10*
X86360000Y-116840000D03*
D11*
X83820000Y-128270000D03*
D10*
X86360000Y-128270000D03*
D11*
X83820000Y-139700000D03*
D10*
X86360000Y-139700000D03*
D11*
X83820000Y-151130000D03*
D10*
X86360000Y-151130000D03*
D11*
X83820000Y-162560000D03*
D10*
X86360000Y-162560000D03*
X113030000Y-36830000D03*
D11*
X110490000Y-36830000D03*
D10*
X113030000Y-48260000D03*
D11*
X110490000Y-48260000D03*
D10*
X113030000Y-59690000D03*
D11*
X110490000Y-59690000D03*
D10*
X113030000Y-71120000D03*
D11*
X110490000Y-71120000D03*
X110490000Y-82550000D03*
D10*
X113030000Y-82550000D03*
D11*
X110490000Y-93980000D03*
D10*
X113030000Y-93980000D03*
D11*
X110490000Y-105410000D03*
D10*
X113030000Y-105410000D03*
X113030000Y-116840000D03*
D11*
X110490000Y-116840000D03*
X110490000Y-128270000D03*
D10*
X113030000Y-128270000D03*
X113030000Y-139700000D03*
D11*
X110490000Y-139700000D03*
X110490000Y-151130000D03*
D10*
X113030000Y-151130000D03*
X113030000Y-162560000D03*
D11*
X110490000Y-162560000D03*
X135890000Y-36830000D03*
D10*
X138430000Y-36830000D03*
D11*
X135890000Y-48260000D03*
D10*
X138430000Y-48260000D03*
D11*
X135890000Y-59690000D03*
D10*
X138430000Y-59690000D03*
D11*
X135890000Y-71120000D03*
D10*
X138430000Y-71120000D03*
X138430000Y-82550000D03*
D11*
X135890000Y-82550000D03*
D10*
X138430000Y-93980000D03*
D11*
X135890000Y-93980000D03*
D10*
X138430000Y-105410000D03*
D11*
X135890000Y-105410000D03*
D10*
X138430000Y-116840000D03*
D11*
X135890000Y-116840000D03*
D10*
X138430000Y-128270000D03*
D11*
X135890000Y-128270000D03*
X135890000Y-139700000D03*
D10*
X138430000Y-139700000D03*
D11*
X135890000Y-151130000D03*
D10*
X138430000Y-151130000D03*
X138430000Y-162560000D03*
D11*
X135890000Y-162560000D03*
D12*
X52070000Y-59690000D03*
X52070000Y-62230000D03*
X52070000Y-64770000D03*
X52070000Y-67310000D03*
X52070000Y-69850000D03*
X52070000Y-72390000D03*
X52070000Y-74930000D03*
X52070000Y-77470000D03*
X52070000Y-80010000D03*
X52070000Y-82550000D03*
X52070000Y-85090000D03*
X52070000Y-87630000D03*
X52070000Y-90170000D03*
X52070000Y-92710000D03*
X52070000Y-95250000D03*
X52070000Y-97790000D03*
X52070000Y-100330000D03*
X52070000Y-102870000D03*
X52070000Y-105410000D03*
X52070000Y-107950000D03*
X52070000Y-110490000D03*
X52070000Y-113030000D03*
X52070000Y-115570000D03*
D13*
X52070000Y-118110000D03*
X67310000Y-118110000D03*
D12*
X67310000Y-115570000D03*
X67310000Y-113030000D03*
X67310000Y-110490000D03*
X67310000Y-107950000D03*
X67310000Y-105410000D03*
X67310000Y-102870000D03*
X67310000Y-100330000D03*
X67310000Y-97790000D03*
X67310000Y-95250000D03*
X67310000Y-92710000D03*
X67310000Y-90170000D03*
X67310000Y-87630000D03*
X67310000Y-85090000D03*
X67310000Y-82550000D03*
X67310000Y-80010000D03*
X67310000Y-77470000D03*
X67310000Y-74930000D03*
X67310000Y-72390000D03*
X67310000Y-69850000D03*
X67310000Y-67310000D03*
X67310000Y-64770000D03*
X67310000Y-62230000D03*
X67310000Y-59690000D03*
X120650000Y-33020000D03*
X118110000Y-33020000D03*
X115570000Y-33020000D03*
X113030000Y-33020000D03*
X110490000Y-33020000D03*
X107950000Y-33020000D03*
X105410000Y-33020000D03*
X102870000Y-33020000D03*
X100330000Y-33020000D03*
X97790000Y-33020000D03*
X95250000Y-33020000D03*
X92710000Y-33020000D03*
X90170000Y-33020000D03*
X87630000Y-33020000D03*
X85090000Y-33020000D03*
X82550000Y-33020000D03*
X80010000Y-33020000D03*
X77470000Y-33020000D03*
X74930000Y-33020000D03*
X72390000Y-33020000D03*
X69850000Y-33020000D03*
X67310000Y-33020000D03*
X64770000Y-33020000D03*
D13*
X62230000Y-33020000D03*
X128270000Y-154940000D03*
D12*
X125730000Y-154940000D03*
X123190000Y-154940000D03*
X120650000Y-154940000D03*
X118110000Y-154940000D03*
X115570000Y-154940000D03*
X113030000Y-154940000D03*
X110490000Y-154940000D03*
X107950000Y-154940000D03*
X105410000Y-154940000D03*
X102870000Y-154940000D03*
X100330000Y-154940000D03*
X97790000Y-154940000D03*
X95250000Y-154940000D03*
X92710000Y-154940000D03*
X90170000Y-154940000D03*
X87630000Y-154940000D03*
X85090000Y-154940000D03*
X82550000Y-154940000D03*
X80010000Y-154940000D03*
X77470000Y-154940000D03*
X74930000Y-154940000D03*
X72390000Y-154940000D03*
X69850000Y-154940000D03*
D14*
X63500000Y-40640000D03*
D15*
X55880000Y-40640000D03*
D14*
X63500000Y-52070000D03*
D15*
X55880000Y-52070000D03*
X55880000Y-63500000D03*
D14*
X63500000Y-63500000D03*
D15*
X55880000Y-74930000D03*
D14*
X63500000Y-74930000D03*
D15*
X55880000Y-86360000D03*
D14*
X63500000Y-86360000D03*
D15*
X55880000Y-97790000D03*
D14*
X63500000Y-97790000D03*
D15*
X55880000Y-109220000D03*
D14*
X63500000Y-109220000D03*
D15*
X55880000Y-120650000D03*
D14*
X63500000Y-120650000D03*
D15*
X55880000Y-132080000D03*
D14*
X63500000Y-132080000D03*
X63500000Y-143510000D03*
D15*
X55880000Y-143510000D03*
X55880000Y-154940000D03*
D14*
X63500000Y-154940000D03*
X63500000Y-158750000D03*
D15*
X55880000Y-158750000D03*
X81280000Y-40640000D03*
D14*
X88900000Y-40640000D03*
D15*
X81280000Y-52070000D03*
D14*
X88900000Y-52070000D03*
X88900000Y-63500000D03*
D15*
X81280000Y-63500000D03*
X81280000Y-74930000D03*
D14*
X88900000Y-74930000D03*
X88900000Y-86360000D03*
D15*
X81280000Y-86360000D03*
D14*
X88900000Y-97790000D03*
D15*
X81280000Y-97790000D03*
D14*
X88900000Y-109220000D03*
D15*
X81280000Y-109220000D03*
D14*
X88900000Y-120650000D03*
D15*
X81280000Y-120650000D03*
D14*
X88900000Y-132080000D03*
D15*
X81280000Y-132080000D03*
D14*
X88900000Y-143510000D03*
D15*
X81280000Y-143510000D03*
X81280000Y-147320000D03*
D14*
X88900000Y-147320000D03*
D15*
X81280000Y-158750000D03*
D14*
X88900000Y-158750000D03*
D15*
X107950000Y-40640000D03*
D14*
X115570000Y-40640000D03*
D15*
X107950000Y-52070000D03*
D14*
X115570000Y-52070000D03*
X115570000Y-63500000D03*
D15*
X107950000Y-63500000D03*
X107950000Y-74930000D03*
D14*
X115570000Y-74930000D03*
X115570000Y-86360000D03*
D15*
X107950000Y-86360000D03*
D14*
X115570000Y-97790000D03*
D15*
X107950000Y-97790000D03*
D14*
X115570000Y-109220000D03*
D15*
X107950000Y-109220000D03*
D14*
X115570000Y-120650000D03*
D15*
X107950000Y-120650000D03*
X107950000Y-132080000D03*
D14*
X115570000Y-132080000D03*
D15*
X107950000Y-143510000D03*
D14*
X115570000Y-143510000D03*
D15*
X107950000Y-147320000D03*
D14*
X115570000Y-147320000D03*
X115570000Y-158750000D03*
D15*
X107950000Y-158750000D03*
D14*
X140970000Y-40640000D03*
D15*
X133350000Y-40640000D03*
D14*
X140970000Y-52070000D03*
D15*
X133350000Y-52070000D03*
D14*
X140970000Y-63500000D03*
D15*
X133350000Y-63500000D03*
D14*
X140970000Y-74930000D03*
D15*
X133350000Y-74930000D03*
X133350000Y-86360000D03*
D14*
X140970000Y-86360000D03*
D15*
X133350000Y-97790000D03*
D14*
X140970000Y-97790000D03*
D15*
X133350000Y-109220000D03*
D14*
X140970000Y-109220000D03*
D15*
X133350000Y-120650000D03*
D14*
X140970000Y-120650000D03*
X140970000Y-132080000D03*
D15*
X133350000Y-132080000D03*
D14*
X140970000Y-143510000D03*
D15*
X133350000Y-143510000D03*
D14*
X140970000Y-154940000D03*
D15*
X133350000Y-154940000D03*
X133350000Y-166370000D03*
D14*
X140970000Y-166370000D03*
D16*
X109251400Y-134634800D03*
X76050200Y-98209700D03*
X73862200Y-98216200D03*
X71771200Y-100307300D03*
X94758000Y-51242200D03*
X98132300Y-40402700D03*
D17*
X63500000Y-40640000D02*
X62374700Y-40640000D01*
X58420000Y-36830000D02*
X59645300Y-36830000D01*
X62374700Y-40640000D02*
X59645300Y-37910600D01*
X59645300Y-37910600D02*
X59645300Y-36830000D01*
X52070000Y-69850000D02*
X52070000Y-68674700D01*
X52070000Y-68674700D02*
X52376200Y-68674700D01*
X52376200Y-68674700D02*
X54263600Y-66787300D01*
X54263600Y-66787300D02*
X54263600Y-56079900D01*
X54263600Y-56079900D02*
X60960000Y-49383500D01*
X60960000Y-49383500D02*
X60960000Y-48260000D01*
X52070000Y-80010000D02*
X52070000Y-78834700D01*
X52070000Y-78834700D02*
X52437400Y-78834700D01*
X52437400Y-78834700D02*
X53245300Y-78026800D01*
X53245300Y-78026800D02*
X53245300Y-69225000D01*
X53245300Y-69225000D02*
X60960000Y-61510300D01*
X60960000Y-61510300D02*
X60960000Y-59690000D01*
X58420000Y-59690000D02*
X59645300Y-59690000D01*
X63500000Y-63500000D02*
X63500000Y-60480700D01*
X63500000Y-60480700D02*
X61484000Y-58464700D01*
X61484000Y-58464700D02*
X60411000Y-58464700D01*
X60411000Y-58464700D02*
X59645300Y-59230400D01*
X59645300Y-59230400D02*
X59645300Y-59690000D01*
X52070000Y-90170000D02*
X52070000Y-88994700D01*
X52070000Y-88994700D02*
X52437400Y-88994700D01*
X52437400Y-88994700D02*
X53245300Y-88186800D01*
X53245300Y-88186800D02*
X53245300Y-80204700D01*
X53245300Y-80204700D02*
X60960000Y-72490000D01*
X60960000Y-72490000D02*
X60960000Y-71120000D01*
X63500000Y-86360000D02*
X62374700Y-86360000D01*
X58420000Y-82550000D02*
X59645300Y-82550000D01*
X62374700Y-86360000D02*
X59645300Y-83630600D01*
X59645300Y-83630600D02*
X59645300Y-82550000D01*
X52070000Y-110490000D02*
X52070000Y-109314700D01*
X52070000Y-109314700D02*
X52437300Y-109314700D01*
X52437300Y-109314700D02*
X57005400Y-104746600D01*
X57005400Y-104746600D02*
X57005400Y-97934600D01*
X57005400Y-97934600D02*
X60960000Y-93980000D01*
X67310000Y-59690000D02*
X67310000Y-60865300D01*
X67310000Y-60865300D02*
X66942700Y-60865300D01*
X66942700Y-60865300D02*
X64638500Y-63169500D01*
X64638500Y-63169500D02*
X64638500Y-92491100D01*
X64638500Y-92491100D02*
X60960000Y-96169600D01*
X60960000Y-96169600D02*
X60960000Y-105410000D01*
X67310000Y-71025300D02*
X66942700Y-71025300D01*
X66942700Y-71025300D02*
X65088900Y-72879100D01*
X65088900Y-72879100D02*
X65088900Y-92966500D01*
X65088900Y-92966500D02*
X62374600Y-95680800D01*
X62374600Y-95680800D02*
X62374600Y-115425400D01*
X62374600Y-115425400D02*
X60960000Y-116840000D01*
X67310000Y-69850000D02*
X67310000Y-71025300D01*
X67310000Y-81185300D02*
X66942700Y-81185300D01*
X66942700Y-81185300D02*
X65684300Y-82443700D01*
X65684300Y-82443700D02*
X65684300Y-93008000D01*
X65684300Y-93008000D02*
X64783700Y-93908600D01*
X64783700Y-93908600D02*
X64783700Y-124446300D01*
X64783700Y-124446300D02*
X60960000Y-128270000D01*
X67310000Y-80010000D02*
X67310000Y-81185300D01*
X67310000Y-91345300D02*
X66942600Y-91345300D01*
X66942600Y-91345300D02*
X66134700Y-92153200D01*
X66134700Y-92153200D02*
X66134700Y-93194500D01*
X66134700Y-93194500D02*
X65234100Y-94095100D01*
X65234100Y-94095100D02*
X65234100Y-135425900D01*
X65234100Y-135425900D02*
X60960000Y-139700000D01*
X67310000Y-90170000D02*
X67310000Y-91345300D01*
X67310000Y-100330000D02*
X67310000Y-101505300D01*
X60960000Y-151130000D02*
X65684400Y-146405600D01*
X65684400Y-146405600D02*
X65684400Y-102829600D01*
X65684400Y-102829600D02*
X67008700Y-101505300D01*
X67008700Y-101505300D02*
X67310000Y-101505300D01*
X67310000Y-110490000D02*
X67310000Y-111665300D01*
X60960000Y-162560000D02*
X60960000Y-154748600D01*
X60960000Y-154748600D02*
X66134700Y-149573900D01*
X66134700Y-149573900D02*
X66134700Y-112539300D01*
X66134700Y-112539300D02*
X67008700Y-111665300D01*
X67008700Y-111665300D02*
X67310000Y-111665300D01*
X88900000Y-40640000D02*
X87774700Y-40640000D01*
X83820000Y-36830000D02*
X85045300Y-36830000D01*
X87774700Y-40640000D02*
X85045300Y-37910600D01*
X85045300Y-37910600D02*
X85045300Y-36830000D01*
X86360000Y-105410000D02*
X79584100Y-98634100D01*
X79584100Y-98634100D02*
X79584100Y-75312100D01*
X79584100Y-75312100D02*
X67677300Y-63405300D01*
X67677300Y-63405300D02*
X67310000Y-63405300D01*
X67310000Y-62230000D02*
X67310000Y-63405300D01*
X67310000Y-72390000D02*
X67310000Y-73565300D01*
X67310000Y-73565300D02*
X67677300Y-73565300D01*
X67677300Y-73565300D02*
X77287900Y-83175900D01*
X77287900Y-83175900D02*
X77287900Y-107767900D01*
X77287900Y-107767900D02*
X86360000Y-116840000D01*
X86360000Y-128270000D02*
X86360000Y-122558900D01*
X86360000Y-122558900D02*
X75037800Y-111236700D01*
X75037800Y-111236700D02*
X75037800Y-91085800D01*
X75037800Y-91085800D02*
X67677300Y-83725300D01*
X67677300Y-83725300D02*
X67310000Y-83725300D01*
X67310000Y-82550000D02*
X67310000Y-83725300D01*
X67310000Y-92710000D02*
X67310000Y-93885300D01*
X67310000Y-93885300D02*
X66933400Y-93885300D01*
X66933400Y-93885300D02*
X66134700Y-94684000D01*
X66134700Y-94684000D02*
X66134700Y-98279000D01*
X66134700Y-98279000D02*
X66915700Y-99060000D01*
X66915700Y-99060000D02*
X67762500Y-99060000D01*
X67762500Y-99060000D02*
X70860600Y-102158100D01*
X70860600Y-102158100D02*
X70860600Y-124200600D01*
X70860600Y-124200600D02*
X86360000Y-139700000D01*
X86360000Y-151130000D02*
X86360000Y-145734700D01*
X86360000Y-145734700D02*
X70410200Y-129784900D01*
X70410200Y-129784900D02*
X70410200Y-106833900D01*
X70410200Y-106833900D02*
X67621600Y-104045300D01*
X67621600Y-104045300D02*
X67310000Y-104045300D01*
X67310000Y-102870000D02*
X67310000Y-104045300D01*
X67310000Y-113030000D02*
X67310000Y-114205300D01*
X67310000Y-114205300D02*
X67677300Y-114205300D01*
X67677300Y-114205300D02*
X68935700Y-115463700D01*
X68935700Y-115463700D02*
X68935700Y-139425400D01*
X68935700Y-139425400D02*
X83820000Y-154309700D01*
X83820000Y-154309700D02*
X83820000Y-160020000D01*
X83820000Y-160020000D02*
X86360000Y-162560000D01*
X115570000Y-40640000D02*
X114444700Y-40640000D01*
X110490000Y-36830000D02*
X111715300Y-36830000D01*
X114444700Y-40640000D02*
X111715300Y-37910600D01*
X111715300Y-37910600D02*
X111715300Y-36830000D01*
X115570000Y-52070000D02*
X114444700Y-52070000D01*
X110490000Y-48260000D02*
X111715300Y-48260000D01*
X114444700Y-52070000D02*
X111715300Y-49340600D01*
X111715300Y-49340600D02*
X111715300Y-48260000D01*
X115570000Y-63500000D02*
X114444700Y-63500000D01*
X110490000Y-59690000D02*
X111715300Y-59690000D01*
X114444700Y-63500000D02*
X111715300Y-60770600D01*
X111715300Y-60770600D02*
X111715300Y-59690000D01*
X113030000Y-105410000D02*
X111804700Y-106635300D01*
X111804700Y-106635300D02*
X82773100Y-106635300D01*
X82773100Y-106635300D02*
X78908900Y-102771100D01*
X78908900Y-102771100D02*
X78908900Y-77232600D01*
X78908900Y-77232600D02*
X67621600Y-65945300D01*
X67621600Y-65945300D02*
X67310000Y-65945300D01*
X67310000Y-64770000D02*
X67310000Y-65945300D01*
X67310000Y-74930000D02*
X67310000Y-76105300D01*
X67310000Y-76105300D02*
X67677300Y-76105300D01*
X67677300Y-76105300D02*
X76775600Y-85203600D01*
X76775600Y-85203600D02*
X76775600Y-112066500D01*
X76775600Y-112066500D02*
X82833500Y-118124400D01*
X82833500Y-118124400D02*
X111745600Y-118124400D01*
X111745600Y-118124400D02*
X113030000Y-116840000D01*
X113030000Y-128270000D02*
X111755700Y-126995700D01*
X111755700Y-126995700D02*
X89637500Y-126995700D01*
X89637500Y-126995700D02*
X87137800Y-129495400D01*
X87137800Y-129495400D02*
X85803900Y-129495400D01*
X85803900Y-129495400D02*
X85101600Y-128793100D01*
X85101600Y-128793100D02*
X85101600Y-122409700D01*
X85101600Y-122409700D02*
X74587500Y-111895600D01*
X74587500Y-111895600D02*
X74587500Y-93175500D01*
X74587500Y-93175500D02*
X67677300Y-86265300D01*
X67677300Y-86265300D02*
X67310000Y-86265300D01*
X67310000Y-85090000D02*
X67310000Y-86265300D01*
X67310000Y-95250000D02*
X68485300Y-95250000D01*
X68485300Y-95250000D02*
X73125400Y-99890100D01*
X73125400Y-99890100D02*
X73125400Y-119849900D01*
X73125400Y-119849900D02*
X83674900Y-130399400D01*
X83674900Y-130399400D02*
X107866900Y-130399400D01*
X107866900Y-130399400D02*
X113030000Y-135562500D01*
X113030000Y-135562500D02*
X113030000Y-139700000D01*
X113030000Y-151130000D02*
X109251400Y-147351400D01*
X109251400Y-147351400D02*
X109251400Y-134634800D01*
X67310000Y-115570000D02*
X67310000Y-116745300D01*
X67310000Y-116745300D02*
X68118100Y-116745300D01*
X68118100Y-116745300D02*
X68485300Y-117112500D01*
X68485300Y-117112500D02*
X68485300Y-146595100D01*
X68485300Y-146595100D02*
X76200000Y-154309800D01*
X76200000Y-154309800D02*
X76200000Y-157223800D01*
X76200000Y-157223800D02*
X82761600Y-163785400D01*
X82761600Y-163785400D02*
X111804600Y-163785400D01*
X111804600Y-163785400D02*
X113030000Y-162560000D01*
X140970000Y-40640000D02*
X139844700Y-40640000D01*
X135890000Y-36830000D02*
X137115300Y-36830000D01*
X139844700Y-40640000D02*
X137115300Y-37910600D01*
X137115300Y-37910600D02*
X137115300Y-36830000D01*
X140970000Y-52070000D02*
X139844700Y-52070000D01*
X135890000Y-48260000D02*
X137115300Y-48260000D01*
X139844700Y-52070000D02*
X137115300Y-49340600D01*
X137115300Y-49340600D02*
X137115300Y-48260000D01*
X140970000Y-63500000D02*
X139844700Y-63500000D01*
X135890000Y-59690000D02*
X137115300Y-59690000D01*
X139844700Y-63500000D02*
X137115300Y-60770600D01*
X137115300Y-60770600D02*
X137115300Y-59690000D01*
X138430000Y-105410000D02*
X136721700Y-107118300D01*
X136721700Y-107118300D02*
X82617100Y-107118300D01*
X82617100Y-107118300D02*
X77963400Y-102464600D01*
X77963400Y-102464600D02*
X77963400Y-78771400D01*
X77963400Y-78771400D02*
X67677300Y-68485300D01*
X67677300Y-68485300D02*
X67310000Y-68485300D01*
X67310000Y-67310000D02*
X67310000Y-68485300D01*
X67310000Y-77470000D02*
X67310000Y-78645300D01*
X67310000Y-78645300D02*
X67677300Y-78645300D01*
X67677300Y-78645300D02*
X76050200Y-87018200D01*
X76050200Y-87018200D02*
X76050200Y-98209700D01*
X67310000Y-88805300D02*
X67677300Y-88805300D01*
X67677300Y-88805300D02*
X73862200Y-94990200D01*
X73862200Y-94990200D02*
X73862200Y-98216200D01*
X67310000Y-87630000D02*
X67310000Y-88805300D01*
X68485300Y-97790000D02*
X71002600Y-100307300D01*
X71002600Y-100307300D02*
X71771200Y-100307300D01*
X67310000Y-97790000D02*
X68485300Y-97790000D01*
X120650000Y-33020000D02*
X120650000Y-34195300D01*
X133350000Y-97790000D02*
X134481800Y-96658200D01*
X134481800Y-96658200D02*
X134481800Y-78607500D01*
X134481800Y-78607500D02*
X120650000Y-64775700D01*
X120650000Y-64775700D02*
X120650000Y-34195300D01*
X107950000Y-97790000D02*
X107950000Y-91439900D01*
X107950000Y-91439900D02*
X118110000Y-81279900D01*
X118110000Y-81279900D02*
X118110000Y-33020000D01*
X115570000Y-33020000D02*
X115570000Y-34195300D01*
X81280000Y-97790000D02*
X87155200Y-97790000D01*
X87155200Y-97790000D02*
X97327000Y-87618200D01*
X97327000Y-87618200D02*
X108336000Y-87618200D01*
X108336000Y-87618200D02*
X111715400Y-84238800D01*
X111715400Y-84238800D02*
X111715400Y-76053200D01*
X111715400Y-76053200D02*
X116745300Y-71023300D01*
X116745300Y-71023300D02*
X116745300Y-35370600D01*
X116745300Y-35370600D02*
X115570000Y-34195300D01*
X111665300Y-33020000D02*
X111665300Y-32652600D01*
X111665300Y-32652600D02*
X112473200Y-31844700D01*
X112473200Y-31844700D02*
X118630800Y-31844700D01*
X118630800Y-31844700D02*
X119323600Y-32537500D01*
X119323600Y-32537500D02*
X119323600Y-72333600D01*
X119323600Y-72333600D02*
X133350000Y-86360000D01*
X110490000Y-33020000D02*
X111665300Y-33020000D01*
X107950000Y-33020000D02*
X107950000Y-34195300D01*
X107950000Y-86360000D02*
X109081700Y-85228300D01*
X109081700Y-85228300D02*
X109081700Y-35327000D01*
X109081700Y-35327000D02*
X107950000Y-34195300D01*
X105410000Y-33020000D02*
X104234700Y-33020000D01*
X81280000Y-86360000D02*
X81280000Y-79818600D01*
X81280000Y-79818600D02*
X96520000Y-64578600D01*
X96520000Y-64578600D02*
X96520000Y-32568100D01*
X96520000Y-32568100D02*
X97288700Y-31799400D01*
X97288700Y-31799400D02*
X98274700Y-31799400D01*
X98274700Y-31799400D02*
X98975800Y-32500500D01*
X98975800Y-32500500D02*
X98975800Y-33337900D01*
X98975800Y-33337900D02*
X99833200Y-34195300D01*
X99833200Y-34195300D02*
X103426800Y-34195300D01*
X103426800Y-34195300D02*
X104234700Y-33387400D01*
X104234700Y-33387400D02*
X104234700Y-33020000D01*
X100330000Y-33020000D02*
X101505300Y-33020000D01*
X133350000Y-74930000D02*
X122036500Y-63616500D01*
X122036500Y-63616500D02*
X122036500Y-32717000D01*
X122036500Y-32717000D02*
X120690100Y-31370600D01*
X120690100Y-31370600D02*
X102787400Y-31370600D01*
X102787400Y-31370600D02*
X101505300Y-32652700D01*
X101505300Y-32652700D02*
X101505300Y-33020000D01*
X97790000Y-33020000D02*
X97790000Y-34195300D01*
X97790000Y-34195300D02*
X97407000Y-34578300D01*
X97407000Y-34578300D02*
X97407000Y-64387000D01*
X97407000Y-64387000D02*
X107950000Y-74930000D01*
X81280000Y-74930000D02*
X81280000Y-68125100D01*
X81280000Y-68125100D02*
X95483300Y-53921800D01*
X95483300Y-53921800D02*
X95483300Y-34428600D01*
X95483300Y-34428600D02*
X95250000Y-34195300D01*
X95250000Y-33020000D02*
X95250000Y-34195300D01*
X133350000Y-63500000D02*
X122645800Y-52795800D01*
X122645800Y-52795800D02*
X122645800Y-32689400D01*
X122645800Y-32689400D02*
X120876500Y-30920100D01*
X120876500Y-30920100D02*
X93077900Y-30920100D01*
X93077900Y-30920100D02*
X91345300Y-32652700D01*
X91345300Y-32652700D02*
X91345300Y-33020000D01*
X90170000Y-33020000D02*
X91345300Y-33020000D01*
X87630000Y-33020000D02*
X87630000Y-34195300D01*
X94758000Y-51242200D02*
X94758000Y-41323300D01*
X94758000Y-41323300D02*
X87630000Y-34195300D01*
X85090000Y-33020000D02*
X85090000Y-34195300D01*
X81280000Y-63500000D02*
X82594600Y-62185400D01*
X82594600Y-62185400D02*
X82594600Y-35735800D01*
X82594600Y-35735800D02*
X84135100Y-34195300D01*
X84135100Y-34195300D02*
X85090000Y-34195300D01*
X55880000Y-63500000D02*
X55880000Y-58098500D01*
X55880000Y-58098500D02*
X73660000Y-40318500D01*
X73660000Y-40318500D02*
X73660000Y-32624200D01*
X73660000Y-32624200D02*
X74439500Y-31844700D01*
X74439500Y-31844700D02*
X80566800Y-31844700D01*
X80566800Y-31844700D02*
X81374700Y-32652600D01*
X81374700Y-32652600D02*
X81374700Y-33020000D01*
X82550000Y-33020000D02*
X81374700Y-33020000D01*
X133350000Y-52070000D02*
X133350000Y-42756700D01*
X133350000Y-42756700D02*
X121055500Y-30462200D01*
X121055500Y-30462200D02*
X85926100Y-30462200D01*
X85926100Y-30462200D02*
X83820000Y-32568300D01*
X83820000Y-32568300D02*
X83820000Y-33412300D01*
X83820000Y-33412300D02*
X82989300Y-34243000D01*
X82989300Y-34243000D02*
X81233000Y-34243000D01*
X81233000Y-34243000D02*
X80010000Y-33020000D01*
X107950000Y-52070000D02*
X107950000Y-50220400D01*
X107950000Y-50220400D02*
X98132300Y-40402700D01*
X81280000Y-52070000D02*
X74930000Y-45720000D01*
X74930000Y-45720000D02*
X74930000Y-33020000D01*
X72390000Y-33020000D02*
X72390000Y-34195300D01*
X55880000Y-52070000D02*
X56897500Y-52070000D01*
X56897500Y-52070000D02*
X59645400Y-49322100D01*
X59645400Y-49322100D02*
X59645400Y-46939900D01*
X59645400Y-46939900D02*
X72390000Y-34195300D01*
X69850000Y-33020000D02*
X71025300Y-33020000D01*
X133350000Y-40640000D02*
X122652100Y-29942100D01*
X122652100Y-29942100D02*
X73735900Y-29942100D01*
X73735900Y-29942100D02*
X71025300Y-32652700D01*
X71025300Y-32652700D02*
X71025300Y-33020000D01*
X123190000Y-154940000D02*
X122014700Y-154940000D01*
X107950000Y-109220000D02*
X119380000Y-120650000D01*
X119380000Y-120650000D02*
X119380000Y-155402000D01*
X119380000Y-155402000D02*
X120093300Y-156115300D01*
X120093300Y-156115300D02*
X121206800Y-156115300D01*
X121206800Y-156115300D02*
X122014700Y-155307400D01*
X122014700Y-155307400D02*
X122014700Y-154940000D01*
X133350000Y-109220000D02*
X120650000Y-121920000D01*
X120650000Y-121920000D02*
X120650000Y-154940000D01*
X113030000Y-154940000D02*
X113030000Y-153764700D01*
X107950000Y-120650000D02*
X114257300Y-126957300D01*
X114257300Y-126957300D02*
X114257300Y-152537400D01*
X114257300Y-152537400D02*
X113030000Y-153764700D01*
X110490000Y-154940000D02*
X111665300Y-154940000D01*
X133350000Y-120650000D02*
X124460000Y-129540000D01*
X124460000Y-129540000D02*
X124460000Y-155378000D01*
X124460000Y-155378000D02*
X123260900Y-156577100D01*
X123260900Y-156577100D02*
X112935100Y-156577100D01*
X112935100Y-156577100D02*
X111665300Y-155307300D01*
X111665300Y-155307300D02*
X111665300Y-154940000D01*
X107950000Y-132080000D02*
X102870000Y-137160000D01*
X102870000Y-137160000D02*
X102870000Y-154940000D01*
X100330000Y-154940000D02*
X99154700Y-154940000D01*
X133350000Y-132080000D02*
X134500300Y-133230300D01*
X134500300Y-133230300D02*
X134500300Y-150872300D01*
X134500300Y-150872300D02*
X127894600Y-157478000D01*
X127894600Y-157478000D02*
X91043300Y-157478000D01*
X91043300Y-157478000D02*
X88989900Y-155424600D01*
X88989900Y-155424600D02*
X88989900Y-154439700D01*
X88989900Y-154439700D02*
X89664900Y-153764700D01*
X89664900Y-153764700D02*
X98346800Y-153764700D01*
X98346800Y-153764700D02*
X99154700Y-154572600D01*
X99154700Y-154572600D02*
X99154700Y-154940000D01*
X92710000Y-154940000D02*
X93885300Y-154940000D01*
X107950000Y-143510000D02*
X104140000Y-147320000D01*
X104140000Y-147320000D02*
X104140000Y-155346100D01*
X104140000Y-155346100D02*
X103370800Y-156115300D01*
X103370800Y-156115300D02*
X94693200Y-156115300D01*
X94693200Y-156115300D02*
X93885300Y-155307400D01*
X93885300Y-155307400D02*
X93885300Y-154940000D01*
X90170000Y-154940000D02*
X91345300Y-154940000D01*
X133350000Y-143510000D02*
X127094600Y-149765400D01*
X127094600Y-149765400D02*
X127094600Y-155239800D01*
X127094600Y-155239800D02*
X125306800Y-157027600D01*
X125306800Y-157027600D02*
X93065600Y-157027600D01*
X93065600Y-157027600D02*
X91345300Y-155307300D01*
X91345300Y-155307300D02*
X91345300Y-154940000D01*
X85090000Y-153764700D02*
X84151700Y-153764700D01*
X84151700Y-153764700D02*
X81280000Y-150893000D01*
X81280000Y-150893000D02*
X81280000Y-147320000D01*
X85090000Y-154940000D02*
X85090000Y-153764700D01*
M02*
