G04 #@! TF.GenerationSoftware,KiCad,Pcbnew,(5.1.4)-1*
G04 #@! TF.CreationDate,2019-10-21T18:56:29-04:00*
G04 #@! TF.ProjectId,A-10C-CautionLED,412d3130-432d-4436-9175-74696f6e4c45,1*
G04 #@! TF.SameCoordinates,Original*
G04 #@! TF.FileFunction,Soldermask,Bot*
G04 #@! TF.FilePolarity,Negative*
%FSLAX46Y46*%
G04 Gerber Fmt 4.6, Leading zero omitted, Abs format (unit mm)*
G04 Created by KiCad (PCBNEW (5.1.4)-1) date 2019-10-21 18:56:29*
%MOMM*%
%LPD*%
G04 APERTURE LIST*
%ADD10C,1.800000*%
%ADD11R,1.800000X1.800000*%
%ADD12O,1.700000X1.700000*%
%ADD13R,1.700000X1.700000*%
%ADD14O,1.600000X1.600000*%
%ADD15C,1.600000*%
G04 APERTURE END LIST*
D10*
X60960000Y-36830000D03*
D11*
X58420000Y-36830000D03*
D10*
X60960000Y-48260000D03*
D11*
X58420000Y-48260000D03*
D10*
X60960000Y-59690000D03*
D11*
X58420000Y-59690000D03*
D10*
X60960000Y-71120000D03*
D11*
X58420000Y-71120000D03*
X58420000Y-82550000D03*
D10*
X60960000Y-82550000D03*
D11*
X58420000Y-93980000D03*
D10*
X60960000Y-93980000D03*
D11*
X58420000Y-105410000D03*
D10*
X60960000Y-105410000D03*
X60960000Y-116840000D03*
D11*
X58420000Y-116840000D03*
D10*
X60960000Y-128270000D03*
D11*
X58420000Y-128270000D03*
D10*
X60960000Y-139700000D03*
D11*
X58420000Y-139700000D03*
D10*
X60960000Y-151130000D03*
D11*
X58420000Y-151130000D03*
X58420000Y-162560000D03*
D10*
X60960000Y-162560000D03*
D11*
X83820000Y-36830000D03*
D10*
X86360000Y-36830000D03*
D11*
X83820000Y-48260000D03*
D10*
X86360000Y-48260000D03*
D11*
X83820000Y-59690000D03*
D10*
X86360000Y-59690000D03*
D11*
X83820000Y-71120000D03*
D10*
X86360000Y-71120000D03*
X86360000Y-82550000D03*
D11*
X83820000Y-82550000D03*
D10*
X86360000Y-93980000D03*
D11*
X83820000Y-93980000D03*
D10*
X86360000Y-105410000D03*
D11*
X83820000Y-105410000D03*
X83820000Y-116840000D03*
D10*
X86360000Y-116840000D03*
D11*
X83820000Y-128270000D03*
D10*
X86360000Y-128270000D03*
D11*
X83820000Y-139700000D03*
D10*
X86360000Y-139700000D03*
D11*
X83820000Y-151130000D03*
D10*
X86360000Y-151130000D03*
D11*
X83820000Y-162560000D03*
D10*
X86360000Y-162560000D03*
X113030000Y-36830000D03*
D11*
X110490000Y-36830000D03*
D10*
X113030000Y-48260000D03*
D11*
X110490000Y-48260000D03*
D10*
X113030000Y-59690000D03*
D11*
X110490000Y-59690000D03*
D10*
X113030000Y-71120000D03*
D11*
X110490000Y-71120000D03*
X110490000Y-82550000D03*
D10*
X113030000Y-82550000D03*
D11*
X110490000Y-93980000D03*
D10*
X113030000Y-93980000D03*
D11*
X110490000Y-105410000D03*
D10*
X113030000Y-105410000D03*
X113030000Y-116840000D03*
D11*
X110490000Y-116840000D03*
X110490000Y-128270000D03*
D10*
X113030000Y-128270000D03*
X113030000Y-139700000D03*
D11*
X110490000Y-139700000D03*
X110490000Y-151130000D03*
D10*
X113030000Y-151130000D03*
X113030000Y-162560000D03*
D11*
X110490000Y-162560000D03*
X135890000Y-36830000D03*
D10*
X138430000Y-36830000D03*
D11*
X135890000Y-48260000D03*
D10*
X138430000Y-48260000D03*
D11*
X135890000Y-59690000D03*
D10*
X138430000Y-59690000D03*
D11*
X135890000Y-71120000D03*
D10*
X138430000Y-71120000D03*
X138430000Y-82550000D03*
D11*
X135890000Y-82550000D03*
D10*
X138430000Y-93980000D03*
D11*
X135890000Y-93980000D03*
D10*
X138430000Y-105410000D03*
D11*
X135890000Y-105410000D03*
D10*
X138430000Y-116840000D03*
D11*
X135890000Y-116840000D03*
D10*
X138430000Y-128270000D03*
D11*
X135890000Y-128270000D03*
X135890000Y-139700000D03*
D10*
X138430000Y-139700000D03*
D11*
X135890000Y-151130000D03*
D10*
X138430000Y-151130000D03*
X138430000Y-162560000D03*
D11*
X135890000Y-162560000D03*
D12*
X52070000Y-59690000D03*
X52070000Y-62230000D03*
X52070000Y-64770000D03*
X52070000Y-67310000D03*
X52070000Y-69850000D03*
X52070000Y-72390000D03*
X52070000Y-74930000D03*
X52070000Y-77470000D03*
X52070000Y-80010000D03*
X52070000Y-82550000D03*
X52070000Y-85090000D03*
X52070000Y-87630000D03*
X52070000Y-90170000D03*
X52070000Y-92710000D03*
X52070000Y-95250000D03*
X52070000Y-97790000D03*
X52070000Y-100330000D03*
X52070000Y-102870000D03*
X52070000Y-105410000D03*
X52070000Y-107950000D03*
X52070000Y-110490000D03*
X52070000Y-113030000D03*
X52070000Y-115570000D03*
D13*
X52070000Y-118110000D03*
X67310000Y-118110000D03*
D12*
X67310000Y-115570000D03*
X67310000Y-113030000D03*
X67310000Y-110490000D03*
X67310000Y-107950000D03*
X67310000Y-105410000D03*
X67310000Y-102870000D03*
X67310000Y-100330000D03*
X67310000Y-97790000D03*
X67310000Y-95250000D03*
X67310000Y-92710000D03*
X67310000Y-90170000D03*
X67310000Y-87630000D03*
X67310000Y-85090000D03*
X67310000Y-82550000D03*
X67310000Y-80010000D03*
X67310000Y-77470000D03*
X67310000Y-74930000D03*
X67310000Y-72390000D03*
X67310000Y-69850000D03*
X67310000Y-67310000D03*
X67310000Y-64770000D03*
X67310000Y-62230000D03*
X67310000Y-59690000D03*
X120650000Y-33020000D03*
X118110000Y-33020000D03*
X115570000Y-33020000D03*
X113030000Y-33020000D03*
X110490000Y-33020000D03*
X107950000Y-33020000D03*
X105410000Y-33020000D03*
X102870000Y-33020000D03*
X100330000Y-33020000D03*
X97790000Y-33020000D03*
X95250000Y-33020000D03*
X92710000Y-33020000D03*
X90170000Y-33020000D03*
X87630000Y-33020000D03*
X85090000Y-33020000D03*
X82550000Y-33020000D03*
X80010000Y-33020000D03*
X77470000Y-33020000D03*
X74930000Y-33020000D03*
X72390000Y-33020000D03*
X69850000Y-33020000D03*
X67310000Y-33020000D03*
X64770000Y-33020000D03*
D13*
X62230000Y-33020000D03*
X128270000Y-154940000D03*
D12*
X125730000Y-154940000D03*
X123190000Y-154940000D03*
X120650000Y-154940000D03*
X118110000Y-154940000D03*
X115570000Y-154940000D03*
X113030000Y-154940000D03*
X110490000Y-154940000D03*
X107950000Y-154940000D03*
X105410000Y-154940000D03*
X102870000Y-154940000D03*
X100330000Y-154940000D03*
X97790000Y-154940000D03*
X95250000Y-154940000D03*
X92710000Y-154940000D03*
X90170000Y-154940000D03*
X87630000Y-154940000D03*
X85090000Y-154940000D03*
X82550000Y-154940000D03*
X80010000Y-154940000D03*
X77470000Y-154940000D03*
X74930000Y-154940000D03*
X72390000Y-154940000D03*
X69850000Y-154940000D03*
D14*
X63500000Y-40640000D03*
D15*
X55880000Y-40640000D03*
D14*
X63500000Y-52070000D03*
D15*
X55880000Y-52070000D03*
X55880000Y-63500000D03*
D14*
X63500000Y-63500000D03*
D15*
X55880000Y-74930000D03*
D14*
X63500000Y-74930000D03*
D15*
X55880000Y-86360000D03*
D14*
X63500000Y-86360000D03*
D15*
X55880000Y-97790000D03*
D14*
X63500000Y-97790000D03*
D15*
X55880000Y-109220000D03*
D14*
X63500000Y-109220000D03*
D15*
X55880000Y-120650000D03*
D14*
X63500000Y-120650000D03*
D15*
X55880000Y-132080000D03*
D14*
X63500000Y-132080000D03*
X63500000Y-143510000D03*
D15*
X55880000Y-143510000D03*
X55880000Y-154940000D03*
D14*
X63500000Y-154940000D03*
X63500000Y-158750000D03*
D15*
X55880000Y-158750000D03*
X81280000Y-40640000D03*
D14*
X88900000Y-40640000D03*
D15*
X81280000Y-52070000D03*
D14*
X88900000Y-52070000D03*
X88900000Y-63500000D03*
D15*
X81280000Y-63500000D03*
X81280000Y-74930000D03*
D14*
X88900000Y-74930000D03*
X88900000Y-86360000D03*
D15*
X81280000Y-86360000D03*
D14*
X88900000Y-97790000D03*
D15*
X81280000Y-97790000D03*
D14*
X88900000Y-109220000D03*
D15*
X81280000Y-109220000D03*
D14*
X88900000Y-120650000D03*
D15*
X81280000Y-120650000D03*
D14*
X88900000Y-132080000D03*
D15*
X81280000Y-132080000D03*
D14*
X88900000Y-143510000D03*
D15*
X81280000Y-143510000D03*
X81280000Y-147320000D03*
D14*
X88900000Y-147320000D03*
D15*
X81280000Y-158750000D03*
D14*
X88900000Y-158750000D03*
D15*
X107950000Y-40640000D03*
D14*
X115570000Y-40640000D03*
D15*
X107950000Y-52070000D03*
D14*
X115570000Y-52070000D03*
X115570000Y-63500000D03*
D15*
X107950000Y-63500000D03*
X107950000Y-74930000D03*
D14*
X115570000Y-74930000D03*
X115570000Y-86360000D03*
D15*
X107950000Y-86360000D03*
D14*
X115570000Y-97790000D03*
D15*
X107950000Y-97790000D03*
D14*
X115570000Y-109220000D03*
D15*
X107950000Y-109220000D03*
D14*
X115570000Y-120650000D03*
D15*
X107950000Y-120650000D03*
X107950000Y-132080000D03*
D14*
X115570000Y-132080000D03*
D15*
X107950000Y-143510000D03*
D14*
X115570000Y-143510000D03*
D15*
X107950000Y-147320000D03*
D14*
X115570000Y-147320000D03*
X115570000Y-158750000D03*
D15*
X107950000Y-158750000D03*
D14*
X140970000Y-40640000D03*
D15*
X133350000Y-40640000D03*
D14*
X140970000Y-52070000D03*
D15*
X133350000Y-52070000D03*
D14*
X140970000Y-63500000D03*
D15*
X133350000Y-63500000D03*
D14*
X140970000Y-74930000D03*
D15*
X133350000Y-74930000D03*
X133350000Y-86360000D03*
D14*
X140970000Y-86360000D03*
D15*
X133350000Y-97790000D03*
D14*
X140970000Y-97790000D03*
D15*
X133350000Y-109220000D03*
D14*
X140970000Y-109220000D03*
D15*
X133350000Y-120650000D03*
D14*
X140970000Y-120650000D03*
X140970000Y-132080000D03*
D15*
X133350000Y-132080000D03*
D14*
X140970000Y-143510000D03*
D15*
X133350000Y-143510000D03*
D14*
X140970000Y-154940000D03*
D15*
X133350000Y-154940000D03*
X133350000Y-166370000D03*
D14*
X140970000Y-166370000D03*
M02*
