G04 #@! TF.GenerationSoftware,KiCad,Pcbnew,(5.1.4)-1*
G04 #@! TF.CreationDate,2019-10-21T18:56:29-04:00*
G04 #@! TF.ProjectId,A-10C-CautionLED,412d3130-432d-4436-9175-74696f6e4c45,1*
G04 #@! TF.SameCoordinates,Original*
G04 #@! TF.FileFunction,Copper,L2,Bot*
G04 #@! TF.FilePolarity,Positive*
%FSLAX46Y46*%
G04 Gerber Fmt 4.6, Leading zero omitted, Abs format (unit mm)*
G04 Created by KiCad (PCBNEW (5.1.4)-1) date 2019-10-21 18:56:29*
%MOMM*%
%LPD*%
G04 APERTURE LIST*
%ADD10C,1.800000*%
%ADD11R,1.800000X1.800000*%
%ADD12O,1.700000X1.700000*%
%ADD13R,1.700000X1.700000*%
%ADD14O,1.600000X1.600000*%
%ADD15C,1.600000*%
%ADD16C,0.800000*%
%ADD17C,0.250000*%
G04 APERTURE END LIST*
D10*
X60960000Y-36830000D03*
D11*
X58420000Y-36830000D03*
D10*
X60960000Y-48260000D03*
D11*
X58420000Y-48260000D03*
D10*
X60960000Y-59690000D03*
D11*
X58420000Y-59690000D03*
D10*
X60960000Y-71120000D03*
D11*
X58420000Y-71120000D03*
X58420000Y-82550000D03*
D10*
X60960000Y-82550000D03*
D11*
X58420000Y-93980000D03*
D10*
X60960000Y-93980000D03*
D11*
X58420000Y-105410000D03*
D10*
X60960000Y-105410000D03*
X60960000Y-116840000D03*
D11*
X58420000Y-116840000D03*
D10*
X60960000Y-128270000D03*
D11*
X58420000Y-128270000D03*
D10*
X60960000Y-139700000D03*
D11*
X58420000Y-139700000D03*
D10*
X60960000Y-151130000D03*
D11*
X58420000Y-151130000D03*
X58420000Y-162560000D03*
D10*
X60960000Y-162560000D03*
D11*
X83820000Y-36830000D03*
D10*
X86360000Y-36830000D03*
D11*
X83820000Y-48260000D03*
D10*
X86360000Y-48260000D03*
D11*
X83820000Y-59690000D03*
D10*
X86360000Y-59690000D03*
D11*
X83820000Y-71120000D03*
D10*
X86360000Y-71120000D03*
X86360000Y-82550000D03*
D11*
X83820000Y-82550000D03*
D10*
X86360000Y-93980000D03*
D11*
X83820000Y-93980000D03*
D10*
X86360000Y-105410000D03*
D11*
X83820000Y-105410000D03*
X83820000Y-116840000D03*
D10*
X86360000Y-116840000D03*
D11*
X83820000Y-128270000D03*
D10*
X86360000Y-128270000D03*
D11*
X83820000Y-139700000D03*
D10*
X86360000Y-139700000D03*
D11*
X83820000Y-151130000D03*
D10*
X86360000Y-151130000D03*
D11*
X83820000Y-162560000D03*
D10*
X86360000Y-162560000D03*
X113030000Y-36830000D03*
D11*
X110490000Y-36830000D03*
D10*
X113030000Y-48260000D03*
D11*
X110490000Y-48260000D03*
D10*
X113030000Y-59690000D03*
D11*
X110490000Y-59690000D03*
D10*
X113030000Y-71120000D03*
D11*
X110490000Y-71120000D03*
X110490000Y-82550000D03*
D10*
X113030000Y-82550000D03*
D11*
X110490000Y-93980000D03*
D10*
X113030000Y-93980000D03*
D11*
X110490000Y-105410000D03*
D10*
X113030000Y-105410000D03*
X113030000Y-116840000D03*
D11*
X110490000Y-116840000D03*
X110490000Y-128270000D03*
D10*
X113030000Y-128270000D03*
X113030000Y-139700000D03*
D11*
X110490000Y-139700000D03*
X110490000Y-151130000D03*
D10*
X113030000Y-151130000D03*
X113030000Y-162560000D03*
D11*
X110490000Y-162560000D03*
X135890000Y-36830000D03*
D10*
X138430000Y-36830000D03*
D11*
X135890000Y-48260000D03*
D10*
X138430000Y-48260000D03*
D11*
X135890000Y-59690000D03*
D10*
X138430000Y-59690000D03*
D11*
X135890000Y-71120000D03*
D10*
X138430000Y-71120000D03*
X138430000Y-82550000D03*
D11*
X135890000Y-82550000D03*
D10*
X138430000Y-93980000D03*
D11*
X135890000Y-93980000D03*
D10*
X138430000Y-105410000D03*
D11*
X135890000Y-105410000D03*
D10*
X138430000Y-116840000D03*
D11*
X135890000Y-116840000D03*
D10*
X138430000Y-128270000D03*
D11*
X135890000Y-128270000D03*
X135890000Y-139700000D03*
D10*
X138430000Y-139700000D03*
D11*
X135890000Y-151130000D03*
D10*
X138430000Y-151130000D03*
X138430000Y-162560000D03*
D11*
X135890000Y-162560000D03*
D12*
X52070000Y-59690000D03*
X52070000Y-62230000D03*
X52070000Y-64770000D03*
X52070000Y-67310000D03*
X52070000Y-69850000D03*
X52070000Y-72390000D03*
X52070000Y-74930000D03*
X52070000Y-77470000D03*
X52070000Y-80010000D03*
X52070000Y-82550000D03*
X52070000Y-85090000D03*
X52070000Y-87630000D03*
X52070000Y-90170000D03*
X52070000Y-92710000D03*
X52070000Y-95250000D03*
X52070000Y-97790000D03*
X52070000Y-100330000D03*
X52070000Y-102870000D03*
X52070000Y-105410000D03*
X52070000Y-107950000D03*
X52070000Y-110490000D03*
X52070000Y-113030000D03*
X52070000Y-115570000D03*
D13*
X52070000Y-118110000D03*
X67310000Y-118110000D03*
D12*
X67310000Y-115570000D03*
X67310000Y-113030000D03*
X67310000Y-110490000D03*
X67310000Y-107950000D03*
X67310000Y-105410000D03*
X67310000Y-102870000D03*
X67310000Y-100330000D03*
X67310000Y-97790000D03*
X67310000Y-95250000D03*
X67310000Y-92710000D03*
X67310000Y-90170000D03*
X67310000Y-87630000D03*
X67310000Y-85090000D03*
X67310000Y-82550000D03*
X67310000Y-80010000D03*
X67310000Y-77470000D03*
X67310000Y-74930000D03*
X67310000Y-72390000D03*
X67310000Y-69850000D03*
X67310000Y-67310000D03*
X67310000Y-64770000D03*
X67310000Y-62230000D03*
X67310000Y-59690000D03*
X120650000Y-33020000D03*
X118110000Y-33020000D03*
X115570000Y-33020000D03*
X113030000Y-33020000D03*
X110490000Y-33020000D03*
X107950000Y-33020000D03*
X105410000Y-33020000D03*
X102870000Y-33020000D03*
X100330000Y-33020000D03*
X97790000Y-33020000D03*
X95250000Y-33020000D03*
X92710000Y-33020000D03*
X90170000Y-33020000D03*
X87630000Y-33020000D03*
X85090000Y-33020000D03*
X82550000Y-33020000D03*
X80010000Y-33020000D03*
X77470000Y-33020000D03*
X74930000Y-33020000D03*
X72390000Y-33020000D03*
X69850000Y-33020000D03*
X67310000Y-33020000D03*
X64770000Y-33020000D03*
D13*
X62230000Y-33020000D03*
X128270000Y-154940000D03*
D12*
X125730000Y-154940000D03*
X123190000Y-154940000D03*
X120650000Y-154940000D03*
X118110000Y-154940000D03*
X115570000Y-154940000D03*
X113030000Y-154940000D03*
X110490000Y-154940000D03*
X107950000Y-154940000D03*
X105410000Y-154940000D03*
X102870000Y-154940000D03*
X100330000Y-154940000D03*
X97790000Y-154940000D03*
X95250000Y-154940000D03*
X92710000Y-154940000D03*
X90170000Y-154940000D03*
X87630000Y-154940000D03*
X85090000Y-154940000D03*
X82550000Y-154940000D03*
X80010000Y-154940000D03*
X77470000Y-154940000D03*
X74930000Y-154940000D03*
X72390000Y-154940000D03*
X69850000Y-154940000D03*
D14*
X63500000Y-40640000D03*
D15*
X55880000Y-40640000D03*
D14*
X63500000Y-52070000D03*
D15*
X55880000Y-52070000D03*
X55880000Y-63500000D03*
D14*
X63500000Y-63500000D03*
D15*
X55880000Y-74930000D03*
D14*
X63500000Y-74930000D03*
D15*
X55880000Y-86360000D03*
D14*
X63500000Y-86360000D03*
D15*
X55880000Y-97790000D03*
D14*
X63500000Y-97790000D03*
D15*
X55880000Y-109220000D03*
D14*
X63500000Y-109220000D03*
D15*
X55880000Y-120650000D03*
D14*
X63500000Y-120650000D03*
D15*
X55880000Y-132080000D03*
D14*
X63500000Y-132080000D03*
X63500000Y-143510000D03*
D15*
X55880000Y-143510000D03*
X55880000Y-154940000D03*
D14*
X63500000Y-154940000D03*
X63500000Y-158750000D03*
D15*
X55880000Y-158750000D03*
X81280000Y-40640000D03*
D14*
X88900000Y-40640000D03*
D15*
X81280000Y-52070000D03*
D14*
X88900000Y-52070000D03*
X88900000Y-63500000D03*
D15*
X81280000Y-63500000D03*
X81280000Y-74930000D03*
D14*
X88900000Y-74930000D03*
X88900000Y-86360000D03*
D15*
X81280000Y-86360000D03*
D14*
X88900000Y-97790000D03*
D15*
X81280000Y-97790000D03*
D14*
X88900000Y-109220000D03*
D15*
X81280000Y-109220000D03*
D14*
X88900000Y-120650000D03*
D15*
X81280000Y-120650000D03*
D14*
X88900000Y-132080000D03*
D15*
X81280000Y-132080000D03*
D14*
X88900000Y-143510000D03*
D15*
X81280000Y-143510000D03*
X81280000Y-147320000D03*
D14*
X88900000Y-147320000D03*
D15*
X81280000Y-158750000D03*
D14*
X88900000Y-158750000D03*
D15*
X107950000Y-40640000D03*
D14*
X115570000Y-40640000D03*
D15*
X107950000Y-52070000D03*
D14*
X115570000Y-52070000D03*
X115570000Y-63500000D03*
D15*
X107950000Y-63500000D03*
X107950000Y-74930000D03*
D14*
X115570000Y-74930000D03*
X115570000Y-86360000D03*
D15*
X107950000Y-86360000D03*
D14*
X115570000Y-97790000D03*
D15*
X107950000Y-97790000D03*
D14*
X115570000Y-109220000D03*
D15*
X107950000Y-109220000D03*
D14*
X115570000Y-120650000D03*
D15*
X107950000Y-120650000D03*
X107950000Y-132080000D03*
D14*
X115570000Y-132080000D03*
D15*
X107950000Y-143510000D03*
D14*
X115570000Y-143510000D03*
D15*
X107950000Y-147320000D03*
D14*
X115570000Y-147320000D03*
X115570000Y-158750000D03*
D15*
X107950000Y-158750000D03*
D14*
X140970000Y-40640000D03*
D15*
X133350000Y-40640000D03*
D14*
X140970000Y-52070000D03*
D15*
X133350000Y-52070000D03*
D14*
X140970000Y-63500000D03*
D15*
X133350000Y-63500000D03*
D14*
X140970000Y-74930000D03*
D15*
X133350000Y-74930000D03*
X133350000Y-86360000D03*
D14*
X140970000Y-86360000D03*
D15*
X133350000Y-97790000D03*
D14*
X140970000Y-97790000D03*
D15*
X133350000Y-109220000D03*
D14*
X140970000Y-109220000D03*
D15*
X133350000Y-120650000D03*
D14*
X140970000Y-120650000D03*
X140970000Y-132080000D03*
D15*
X133350000Y-132080000D03*
D14*
X140970000Y-143510000D03*
D15*
X133350000Y-143510000D03*
D14*
X140970000Y-154940000D03*
D15*
X133350000Y-154940000D03*
X133350000Y-166370000D03*
D14*
X140970000Y-166370000D03*
D16*
X109251400Y-134634800D03*
X76050200Y-98209700D03*
X73862200Y-98216200D03*
X71771200Y-100307300D03*
X94758000Y-51242200D03*
X98132300Y-40402700D03*
D17*
X52070000Y-59690000D02*
X52070000Y-47694000D01*
X52070000Y-47694000D02*
X60960000Y-38804000D01*
X60960000Y-38804000D02*
X60960000Y-36830000D01*
X63500000Y-52070000D02*
X62374700Y-52070000D01*
X58420000Y-48260000D02*
X59645300Y-48260000D01*
X62374700Y-52070000D02*
X59645300Y-49340600D01*
X59645300Y-49340600D02*
X59645300Y-48260000D01*
X63500000Y-74930000D02*
X62374700Y-74930000D01*
X58420000Y-71120000D02*
X59645300Y-71120000D01*
X62374700Y-74930000D02*
X59645300Y-72200600D01*
X59645300Y-72200600D02*
X59645300Y-71120000D01*
X52070000Y-100330000D02*
X52070000Y-99154700D01*
X52070000Y-99154700D02*
X51702700Y-99154700D01*
X51702700Y-99154700D02*
X50884400Y-98336400D01*
X50884400Y-98336400D02*
X50884400Y-92232900D01*
X50884400Y-92232900D02*
X51769600Y-91347700D01*
X51769600Y-91347700D02*
X52571200Y-91347700D01*
X52571200Y-91347700D02*
X60960000Y-82958900D01*
X60960000Y-82958900D02*
X60960000Y-82550000D01*
X63500000Y-97790000D02*
X62374700Y-97790000D01*
X58420000Y-93980000D02*
X59645300Y-93980000D01*
X62374700Y-97790000D02*
X59645300Y-95060600D01*
X59645300Y-95060600D02*
X59645300Y-93980000D01*
X63500000Y-109220000D02*
X62374700Y-109220000D01*
X58420000Y-105410000D02*
X59645300Y-105410000D01*
X62374700Y-109220000D02*
X59645300Y-106490600D01*
X59645300Y-106490600D02*
X59645300Y-105410000D01*
X63500000Y-120650000D02*
X62374700Y-120650000D01*
X58420000Y-116840000D02*
X59645300Y-116840000D01*
X62374700Y-120650000D02*
X59645300Y-117920600D01*
X59645300Y-117920600D02*
X59645300Y-116840000D01*
X63500000Y-132080000D02*
X62374700Y-132080000D01*
X58420000Y-128270000D02*
X59645300Y-128270000D01*
X62374700Y-132080000D02*
X59645300Y-129350600D01*
X59645300Y-129350600D02*
X59645300Y-128270000D01*
X63500000Y-143510000D02*
X62374700Y-143510000D01*
X58420000Y-139700000D02*
X59645300Y-139700000D01*
X62374700Y-143510000D02*
X59645300Y-140780600D01*
X59645300Y-140780600D02*
X59645300Y-139700000D01*
X63500000Y-154940000D02*
X62374700Y-154940000D01*
X58420000Y-151130000D02*
X59645300Y-151130000D01*
X62374700Y-154940000D02*
X59645300Y-152210600D01*
X59645300Y-152210600D02*
X59645300Y-151130000D01*
X63500000Y-158750000D02*
X62374700Y-158750000D01*
X58420000Y-162560000D02*
X59645300Y-162560000D01*
X62374700Y-158750000D02*
X59645300Y-161479400D01*
X59645300Y-161479400D02*
X59645300Y-162560000D01*
X52070000Y-62230000D02*
X53245300Y-62230000D01*
X53245300Y-62230000D02*
X53245300Y-61936200D01*
X53245300Y-61936200D02*
X60585900Y-54595600D01*
X60585900Y-54595600D02*
X63336800Y-54595600D01*
X63336800Y-54595600D02*
X74930500Y-43001900D01*
X74930500Y-43001900D02*
X80530600Y-43001900D01*
X80530600Y-43001900D02*
X86360000Y-37172500D01*
X86360000Y-37172500D02*
X86360000Y-36830000D01*
X88900000Y-52070000D02*
X87774700Y-52070000D01*
X83820000Y-48260000D02*
X85045300Y-48260000D01*
X87774700Y-52070000D02*
X85045300Y-49340600D01*
X85045300Y-49340600D02*
X85045300Y-48260000D01*
X52070000Y-72390000D02*
X53245300Y-72390000D01*
X53245300Y-72390000D02*
X53245300Y-72022700D01*
X53245300Y-72022700D02*
X78233400Y-47034600D01*
X78233400Y-47034600D02*
X85134600Y-47034600D01*
X85134600Y-47034600D02*
X86360000Y-48260000D01*
X88900000Y-63500000D02*
X87774700Y-63500000D01*
X83820000Y-59690000D02*
X85045300Y-59690000D01*
X87774700Y-63500000D02*
X85045300Y-60770600D01*
X85045300Y-60770600D02*
X85045300Y-59690000D01*
X52070000Y-82550000D02*
X53245300Y-82550000D01*
X53245300Y-82550000D02*
X58521500Y-77273800D01*
X58521500Y-77273800D02*
X63066000Y-77273800D01*
X63066000Y-77273800D02*
X66679800Y-73660000D01*
X66679800Y-73660000D02*
X67808300Y-73660000D01*
X67808300Y-73660000D02*
X81167700Y-60300600D01*
X81167700Y-60300600D02*
X81167700Y-60071000D01*
X81167700Y-60071000D02*
X82774100Y-58464600D01*
X82774100Y-58464600D02*
X85134600Y-58464600D01*
X85134600Y-58464600D02*
X86360000Y-59690000D01*
X88900000Y-74930000D02*
X87774700Y-74930000D01*
X83820000Y-71120000D02*
X85045300Y-71120000D01*
X87774700Y-74930000D02*
X85045300Y-72200600D01*
X85045300Y-72200600D02*
X85045300Y-71120000D01*
X53245300Y-92710000D02*
X64675300Y-81280000D01*
X64675300Y-81280000D02*
X71334500Y-81280000D01*
X71334500Y-81280000D02*
X82719900Y-69894600D01*
X82719900Y-69894600D02*
X85134600Y-69894600D01*
X85134600Y-69894600D02*
X86360000Y-71120000D01*
X52070000Y-92710000D02*
X53245300Y-92710000D01*
X53245300Y-102870000D02*
X57057800Y-99057500D01*
X57057800Y-99057500D02*
X63831600Y-99057500D01*
X63831600Y-99057500D02*
X64684100Y-98205000D01*
X64684100Y-98205000D02*
X64684100Y-93633300D01*
X64684100Y-93633300D02*
X66782800Y-91534600D01*
X66782800Y-91534600D02*
X68567000Y-91534600D01*
X68567000Y-91534600D02*
X78777000Y-81324600D01*
X78777000Y-81324600D02*
X85134600Y-81324600D01*
X85134600Y-81324600D02*
X86360000Y-82550000D01*
X52070000Y-102870000D02*
X53245300Y-102870000D01*
X88900000Y-86360000D02*
X87774700Y-86360000D01*
X83820000Y-82550000D02*
X85045300Y-82550000D01*
X87774700Y-86360000D02*
X85045300Y-83630600D01*
X85045300Y-83630600D02*
X85045300Y-82550000D01*
X52070000Y-111854700D02*
X52437400Y-111854700D01*
X52437400Y-111854700D02*
X53245300Y-111046800D01*
X53245300Y-111046800D02*
X53245300Y-109293000D01*
X53245300Y-109293000D02*
X54928300Y-107610000D01*
X54928300Y-107610000D02*
X54928300Y-106002300D01*
X54928300Y-106002300D02*
X59330600Y-101600000D01*
X59330600Y-101600000D02*
X68173300Y-101600000D01*
X68173300Y-101600000D02*
X77018700Y-92754600D01*
X77018700Y-92754600D02*
X85134600Y-92754600D01*
X85134600Y-92754600D02*
X86360000Y-93980000D01*
X52070000Y-113030000D02*
X52070000Y-111854700D01*
X88900000Y-97790000D02*
X87774700Y-97790000D01*
X83820000Y-93980000D02*
X85045300Y-93980000D01*
X87774700Y-97790000D02*
X85045300Y-95060600D01*
X85045300Y-95060600D02*
X85045300Y-93980000D01*
X88900000Y-109220000D02*
X87774700Y-109220000D01*
X83820000Y-105410000D02*
X85045300Y-105410000D01*
X87774700Y-109220000D02*
X85045300Y-106490600D01*
X85045300Y-106490600D02*
X85045300Y-105410000D01*
X88900000Y-120650000D02*
X87774700Y-120650000D01*
X83820000Y-116840000D02*
X85045300Y-116840000D01*
X87774700Y-120650000D02*
X85045300Y-117920600D01*
X85045300Y-117920600D02*
X85045300Y-116840000D01*
X88900000Y-132080000D02*
X87774700Y-132080000D01*
X83820000Y-128270000D02*
X85045300Y-128270000D01*
X87774700Y-132080000D02*
X85045300Y-129350600D01*
X85045300Y-129350600D02*
X85045300Y-128270000D01*
X88900000Y-143510000D02*
X87774700Y-143510000D01*
X83820000Y-139700000D02*
X85045300Y-139700000D01*
X87774700Y-143510000D02*
X85045300Y-140780600D01*
X85045300Y-140780600D02*
X85045300Y-139700000D01*
X88900000Y-147320000D02*
X87774700Y-147320000D01*
X83820000Y-151130000D02*
X85045300Y-151130000D01*
X87774700Y-147320000D02*
X85045300Y-150049400D01*
X85045300Y-150049400D02*
X85045300Y-151130000D01*
X88900000Y-158750000D02*
X87774700Y-158750000D01*
X83820000Y-162560000D02*
X85045300Y-162560000D01*
X87774700Y-158750000D02*
X85045300Y-161479400D01*
X85045300Y-161479400D02*
X85045300Y-162560000D01*
X52070000Y-63594700D02*
X52606800Y-63594700D01*
X52606800Y-63594700D02*
X55809700Y-60391800D01*
X55809700Y-60391800D02*
X55809700Y-60008700D01*
X55809700Y-60008700D02*
X58383900Y-57434500D01*
X58383900Y-57434500D02*
X62993000Y-57434500D01*
X62993000Y-57434500D02*
X75211400Y-45216100D01*
X75211400Y-45216100D02*
X104987800Y-45216100D01*
X104987800Y-45216100D02*
X113030000Y-37173900D01*
X113030000Y-37173900D02*
X113030000Y-36830000D01*
X52070000Y-64770000D02*
X52070000Y-63594700D01*
X113030000Y-48260000D02*
X111418600Y-49871400D01*
X111418600Y-49871400D02*
X92711000Y-49871400D01*
X92711000Y-49871400D02*
X88220500Y-54361900D01*
X88220500Y-54361900D02*
X79877200Y-54361900D01*
X79877200Y-54361900D02*
X70739100Y-63500000D01*
X70739100Y-63500000D02*
X65752800Y-63500000D01*
X65752800Y-63500000D02*
X63758000Y-65494800D01*
X63758000Y-65494800D02*
X61054700Y-65494800D01*
X61054700Y-65494800D02*
X52794800Y-73754700D01*
X52794800Y-73754700D02*
X52070000Y-73754700D01*
X52070000Y-74930000D02*
X52070000Y-73754700D01*
X52070000Y-85090000D02*
X53245300Y-85090000D01*
X53245300Y-85090000D02*
X53245300Y-84796200D01*
X53245300Y-84796200D02*
X57167300Y-80874200D01*
X57167300Y-80874200D02*
X60823700Y-80874200D01*
X60823700Y-80874200D02*
X65497900Y-76200000D01*
X65497900Y-76200000D02*
X68485400Y-76200000D01*
X68485400Y-76200000D02*
X79366100Y-65319300D01*
X79366100Y-65319300D02*
X107743200Y-65319300D01*
X107743200Y-65319300D02*
X113030000Y-60032500D01*
X113030000Y-60032500D02*
X113030000Y-59690000D01*
X52070000Y-95250000D02*
X53245300Y-95250000D01*
X53245300Y-95250000D02*
X53245300Y-94956200D01*
X53245300Y-94956200D02*
X64381500Y-83820000D01*
X64381500Y-83820000D02*
X69431400Y-83820000D01*
X69431400Y-83820000D02*
X76502100Y-76749300D01*
X76502100Y-76749300D02*
X92233400Y-76749300D01*
X92233400Y-76749300D02*
X99088100Y-69894600D01*
X99088100Y-69894600D02*
X111804600Y-69894600D01*
X111804600Y-69894600D02*
X113030000Y-71120000D01*
X115570000Y-74930000D02*
X114444700Y-74930000D01*
X110490000Y-71120000D02*
X111715300Y-71120000D01*
X114444700Y-74930000D02*
X111715300Y-72200600D01*
X111715300Y-72200600D02*
X111715300Y-71120000D01*
X115570000Y-86360000D02*
X114444700Y-86360000D01*
X110490000Y-82550000D02*
X111715300Y-82550000D01*
X114444700Y-86360000D02*
X111715300Y-83630600D01*
X111715300Y-83630600D02*
X111715300Y-82550000D01*
X52070000Y-105410000D02*
X53245300Y-105410000D01*
X53245300Y-105410000D02*
X58672600Y-99982700D01*
X58672600Y-99982700D02*
X63543400Y-99982700D01*
X63543400Y-99982700D02*
X65489000Y-98037100D01*
X65489000Y-98037100D02*
X65489000Y-95403800D01*
X65489000Y-95403800D02*
X66912800Y-93980000D01*
X66912800Y-93980000D02*
X69108100Y-93980000D01*
X69108100Y-93980000D02*
X74654000Y-88434100D01*
X74654000Y-88434100D02*
X100131000Y-88434100D01*
X100131000Y-88434100D02*
X107240500Y-81324600D01*
X107240500Y-81324600D02*
X111804600Y-81324600D01*
X111804600Y-81324600D02*
X113030000Y-82550000D01*
X115570000Y-97790000D02*
X114444700Y-97790000D01*
X110490000Y-93980000D02*
X111715300Y-93980000D01*
X114444700Y-97790000D02*
X111715300Y-95060600D01*
X111715300Y-95060600D02*
X111715300Y-93980000D01*
X52070000Y-114394700D02*
X52437300Y-114394700D01*
X52437300Y-114394700D02*
X54428800Y-112403200D01*
X54428800Y-112403200D02*
X54428800Y-108746400D01*
X54428800Y-108746400D02*
X56981500Y-106193700D01*
X56981500Y-106193700D02*
X56981500Y-104586000D01*
X56981500Y-104586000D02*
X57427500Y-104140000D01*
X57427500Y-104140000D02*
X67704100Y-104140000D01*
X67704100Y-104140000D02*
X69635400Y-102208700D01*
X69635400Y-102208700D02*
X69635400Y-101417000D01*
X69635400Y-101417000D02*
X73613400Y-97439000D01*
X73613400Y-97439000D02*
X78584200Y-97439000D01*
X78584200Y-97439000D02*
X80077800Y-98932600D01*
X80077800Y-98932600D02*
X101062500Y-98932600D01*
X101062500Y-98932600D02*
X107240500Y-92754600D01*
X107240500Y-92754600D02*
X111804600Y-92754600D01*
X111804600Y-92754600D02*
X113030000Y-93980000D01*
X52070000Y-115570000D02*
X52070000Y-114394700D01*
X115570000Y-109220000D02*
X114444700Y-109220000D01*
X110490000Y-105410000D02*
X111715300Y-105410000D01*
X114444700Y-109220000D02*
X111715300Y-106490600D01*
X111715300Y-106490600D02*
X111715300Y-105410000D01*
X115570000Y-120650000D02*
X114444700Y-120650000D01*
X110490000Y-116840000D02*
X111715300Y-116840000D01*
X114444700Y-120650000D02*
X111715300Y-117920600D01*
X111715300Y-117920600D02*
X111715300Y-116840000D01*
X115570000Y-132080000D02*
X114444700Y-132080000D01*
X110490000Y-128270000D02*
X111715300Y-128270000D01*
X114444700Y-132080000D02*
X111715300Y-129350600D01*
X111715300Y-129350600D02*
X111715300Y-128270000D01*
X115570000Y-143510000D02*
X114444700Y-143510000D01*
X110490000Y-139700000D02*
X111715300Y-139700000D01*
X114444700Y-143510000D02*
X111715300Y-140780600D01*
X111715300Y-140780600D02*
X111715300Y-139700000D01*
X115570000Y-147320000D02*
X114444700Y-147320000D01*
X110490000Y-151130000D02*
X111715300Y-151130000D01*
X114444700Y-147320000D02*
X111715300Y-150049400D01*
X111715300Y-150049400D02*
X111715300Y-151130000D01*
X68485300Y-105410000D02*
X68972500Y-105897200D01*
X68972500Y-105897200D02*
X80834800Y-105897200D01*
X80834800Y-105897200D02*
X98399600Y-123462000D01*
X98399600Y-123462000D02*
X98399600Y-124124300D01*
X98399600Y-124124300D02*
X108910100Y-134634800D01*
X108910100Y-134634800D02*
X109251400Y-134634800D01*
X67310000Y-105410000D02*
X68485300Y-105410000D01*
X115570000Y-158750000D02*
X114444700Y-158750000D01*
X110490000Y-162560000D02*
X111715300Y-162560000D01*
X114444700Y-158750000D02*
X111715300Y-161479400D01*
X111715300Y-161479400D02*
X111715300Y-162560000D01*
X52070000Y-67310000D02*
X55579300Y-67310000D01*
X55579300Y-67310000D02*
X77070700Y-45818600D01*
X77070700Y-45818600D02*
X124931300Y-45818600D01*
X124931300Y-45818600D02*
X132525700Y-38224200D01*
X132525700Y-38224200D02*
X137035800Y-38224200D01*
X137035800Y-38224200D02*
X138430000Y-36830000D01*
X138430000Y-48260000D02*
X136173100Y-50516900D01*
X136173100Y-50516900D02*
X92778700Y-50516900D01*
X92778700Y-50516900D02*
X85281400Y-58014200D01*
X85281400Y-58014200D02*
X79873000Y-58014200D01*
X79873000Y-58014200D02*
X71847200Y-66040000D01*
X71847200Y-66040000D02*
X61227900Y-66040000D01*
X61227900Y-66040000D02*
X57194600Y-70073300D01*
X57194600Y-70073300D02*
X57194600Y-75210400D01*
X57194600Y-75210400D02*
X54935000Y-77470000D01*
X54935000Y-77470000D02*
X52070000Y-77470000D01*
X52070000Y-86454700D02*
X52525200Y-86454700D01*
X52525200Y-86454700D02*
X57032900Y-81947000D01*
X57032900Y-81947000D02*
X57032900Y-81665100D01*
X57032900Y-81665100D02*
X57373400Y-81324600D01*
X57373400Y-81324600D02*
X62483100Y-81324600D01*
X62483100Y-81324600D02*
X64973100Y-78834600D01*
X64973100Y-78834600D02*
X71773400Y-78834600D01*
X71773400Y-78834600D02*
X84463100Y-66144900D01*
X84463100Y-66144900D02*
X127127400Y-66144900D01*
X127127400Y-66144900D02*
X132356900Y-60915400D01*
X132356900Y-60915400D02*
X137204600Y-60915400D01*
X137204600Y-60915400D02*
X138430000Y-59690000D01*
X52070000Y-87630000D02*
X52070000Y-86454700D01*
X140970000Y-74930000D02*
X139844700Y-74930000D01*
X135890000Y-71120000D02*
X137115300Y-71120000D01*
X139844700Y-74930000D02*
X137115300Y-72200600D01*
X137115300Y-72200600D02*
X137115300Y-71120000D01*
X52070000Y-97790000D02*
X53245300Y-97790000D01*
X53245300Y-97790000D02*
X53245300Y-96835100D01*
X53245300Y-96835100D02*
X61725600Y-88354800D01*
X61725600Y-88354800D02*
X63758000Y-88354800D01*
X63758000Y-88354800D02*
X65752800Y-86360000D01*
X65752800Y-86360000D02*
X68485400Y-86360000D01*
X68485400Y-86360000D02*
X77009200Y-77836200D01*
X77009200Y-77836200D02*
X126533800Y-77836200D01*
X126533800Y-77836200D02*
X134475400Y-69894600D01*
X134475400Y-69894600D02*
X137204600Y-69894600D01*
X137204600Y-69894600D02*
X138430000Y-71120000D01*
X52070000Y-106774700D02*
X52563300Y-106774700D01*
X52563300Y-106774700D02*
X58904900Y-100433100D01*
X58904900Y-100433100D02*
X63729900Y-100433100D01*
X63729900Y-100433100D02*
X66019000Y-98144000D01*
X66019000Y-98144000D02*
X66019000Y-97416900D01*
X66019000Y-97416900D02*
X66915900Y-96520000D01*
X66915900Y-96520000D02*
X69649200Y-96520000D01*
X69649200Y-96520000D02*
X74332700Y-91836500D01*
X74332700Y-91836500D02*
X123963700Y-91836500D01*
X123963700Y-91836500D02*
X134524100Y-81276100D01*
X134524100Y-81276100D02*
X137156100Y-81276100D01*
X137156100Y-81276100D02*
X138430000Y-82550000D01*
X52070000Y-107950000D02*
X52070000Y-106774700D01*
X140970000Y-86360000D02*
X139844700Y-86360000D01*
X135890000Y-82550000D02*
X137115300Y-82550000D01*
X139844700Y-86360000D02*
X137115300Y-83630600D01*
X137115300Y-83630600D02*
X137115300Y-82550000D01*
X52070000Y-116934700D02*
X51702700Y-116934700D01*
X51702700Y-116934700D02*
X50852100Y-116084100D01*
X50852100Y-116084100D02*
X50852100Y-110001300D01*
X50852100Y-110001300D02*
X51717600Y-109135800D01*
X51717600Y-109135800D02*
X52585900Y-109135800D01*
X52585900Y-109135800D02*
X54477900Y-107243800D01*
X54477900Y-107243800D02*
X54477900Y-105815800D01*
X54477900Y-105815800D02*
X59410300Y-100883400D01*
X59410300Y-100883400D02*
X64553200Y-100883400D01*
X64553200Y-100883400D02*
X66376600Y-99060000D01*
X66376600Y-99060000D02*
X68119500Y-99060000D01*
X68119500Y-99060000D02*
X74892700Y-92286800D01*
X74892700Y-92286800D02*
X136736800Y-92286800D01*
X136736800Y-92286800D02*
X138430000Y-93980000D01*
X52070000Y-118110000D02*
X52070000Y-116934700D01*
X140970000Y-97790000D02*
X139844700Y-97790000D01*
X135890000Y-93980000D02*
X137115300Y-93980000D01*
X139844700Y-97790000D02*
X137115300Y-95060600D01*
X137115300Y-95060600D02*
X137115300Y-93980000D01*
X140970000Y-109220000D02*
X139844700Y-109220000D01*
X135890000Y-105410000D02*
X137115300Y-105410000D01*
X139844700Y-109220000D02*
X137115300Y-106490600D01*
X137115300Y-106490600D02*
X137115300Y-105410000D01*
X76050200Y-98209700D02*
X80526200Y-102685700D01*
X80526200Y-102685700D02*
X124275700Y-102685700D01*
X124275700Y-102685700D02*
X138430000Y-116840000D01*
X140970000Y-120650000D02*
X139844700Y-120650000D01*
X135890000Y-116840000D02*
X137115300Y-116840000D01*
X139844700Y-120650000D02*
X137115300Y-117920600D01*
X137115300Y-117920600D02*
X137115300Y-116840000D01*
X73862200Y-98216200D02*
X79742500Y-104096500D01*
X79742500Y-104096500D02*
X114256500Y-104096500D01*
X114256500Y-104096500D02*
X138430000Y-128270000D01*
X140970000Y-132080000D02*
X139844700Y-132080000D01*
X135890000Y-128270000D02*
X137115300Y-128270000D01*
X139844700Y-132080000D02*
X137115300Y-129350600D01*
X137115300Y-129350600D02*
X137115300Y-128270000D01*
X140970000Y-143510000D02*
X139844700Y-143510000D01*
X135890000Y-139700000D02*
X137115300Y-139700000D01*
X139844700Y-143510000D02*
X137115300Y-140780600D01*
X137115300Y-140780600D02*
X137115300Y-139700000D01*
X138430000Y-139700000D02*
X123903700Y-125173700D01*
X123903700Y-125173700D02*
X100888100Y-125173700D01*
X100888100Y-125173700D02*
X80899400Y-105185000D01*
X80899400Y-105185000D02*
X76648900Y-105185000D01*
X76648900Y-105185000D02*
X71771200Y-100307300D01*
X140970000Y-154940000D02*
X139844700Y-154940000D01*
X135890000Y-151130000D02*
X137115300Y-151130000D01*
X139844700Y-154940000D02*
X137115300Y-152210600D01*
X137115300Y-152210600D02*
X137115300Y-151130000D01*
X138430000Y-151130000D02*
X122760700Y-135460700D01*
X122760700Y-135460700D02*
X109041600Y-135460700D01*
X109041600Y-135460700D02*
X97704900Y-124124000D01*
X97704900Y-124124000D02*
X97704900Y-123404200D01*
X97704900Y-123404200D02*
X81897500Y-107596800D01*
X81897500Y-107596800D02*
X68838500Y-107596800D01*
X68838500Y-107596800D02*
X68485300Y-107950000D01*
X67310000Y-107950000D02*
X68485300Y-107950000D01*
X138430000Y-162560000D02*
X138430000Y-158422900D01*
X138430000Y-158422900D02*
X133799100Y-153792000D01*
X133799100Y-153792000D02*
X131901100Y-153792000D01*
X131901100Y-153792000D02*
X129553800Y-156139300D01*
X129553800Y-156139300D02*
X125208800Y-156139300D01*
X125208800Y-156139300D02*
X124460000Y-155390500D01*
X124460000Y-155390500D02*
X124460000Y-153324000D01*
X124460000Y-153324000D02*
X116329400Y-145193400D01*
X116329400Y-145193400D02*
X107952700Y-145193400D01*
X107952700Y-145193400D02*
X80869300Y-118110000D01*
X80869300Y-118110000D02*
X67310000Y-118110000D01*
X140970000Y-166370000D02*
X139844700Y-166370000D01*
X135890000Y-162560000D02*
X137115300Y-162560000D01*
X139844700Y-166370000D02*
X137115300Y-163640600D01*
X137115300Y-163640600D02*
X137115300Y-162560000D01*
X113030000Y-33020000D02*
X111854700Y-33020000D01*
X55880000Y-97790000D02*
X55880000Y-98204300D01*
X55880000Y-98204300D02*
X52569500Y-101514800D01*
X52569500Y-101514800D02*
X51536000Y-101514800D01*
X51536000Y-101514800D02*
X49913800Y-99892600D01*
X49913800Y-99892600D02*
X49913800Y-42369000D01*
X49913800Y-42369000D02*
X61357200Y-30925600D01*
X61357200Y-30925600D02*
X110127600Y-30925600D01*
X110127600Y-30925600D02*
X111854700Y-32652700D01*
X111854700Y-32652700D02*
X111854700Y-33020000D01*
X102870000Y-33020000D02*
X101694700Y-33020000D01*
X55880000Y-86360000D02*
X53402500Y-88837500D01*
X53402500Y-88837500D02*
X51596200Y-88837500D01*
X51596200Y-88837500D02*
X50364200Y-87605500D01*
X50364200Y-87605500D02*
X50364200Y-42611200D01*
X50364200Y-42611200D02*
X61599400Y-31376000D01*
X61599400Y-31376000D02*
X100418000Y-31376000D01*
X100418000Y-31376000D02*
X101694700Y-32652700D01*
X101694700Y-32652700D02*
X101694700Y-33020000D01*
X92710000Y-33020000D02*
X91534700Y-33020000D01*
X55880000Y-74930000D02*
X54697100Y-76112900D01*
X54697100Y-76112900D02*
X51504100Y-76112900D01*
X51504100Y-76112900D02*
X50814600Y-75423400D01*
X50814600Y-75423400D02*
X50814600Y-61791800D01*
X50814600Y-61791800D02*
X51646400Y-60960000D01*
X51646400Y-60960000D02*
X52499400Y-60960000D01*
X52499400Y-60960000D02*
X54316200Y-59143200D01*
X54316200Y-59143200D02*
X54316200Y-47436800D01*
X54316200Y-47436800D02*
X63405400Y-38347600D01*
X63405400Y-38347600D02*
X63405400Y-32657500D01*
X63405400Y-32657500D02*
X64218200Y-31844700D01*
X64218200Y-31844700D02*
X90726800Y-31844700D01*
X90726800Y-31844700D02*
X91534700Y-32652600D01*
X91534700Y-32652600D02*
X91534700Y-33020000D01*
X107950000Y-63500000D02*
X95692200Y-51242200D01*
X95692200Y-51242200D02*
X94758000Y-51242200D01*
X77470000Y-33020000D02*
X78645300Y-33020000D01*
X98132300Y-40402700D02*
X91924900Y-34195300D01*
X91924900Y-34195300D02*
X79453200Y-34195300D01*
X79453200Y-34195300D02*
X78645300Y-33387400D01*
X78645300Y-33387400D02*
X78645300Y-33020000D01*
X68485300Y-33020000D02*
X68485300Y-33387300D01*
X68485300Y-33387300D02*
X69816600Y-34718600D01*
X69816600Y-34718600D02*
X87241200Y-34718600D01*
X87241200Y-34718600D02*
X93650600Y-41128000D01*
X93650600Y-41128000D02*
X107462000Y-41128000D01*
X107462000Y-41128000D02*
X107950000Y-40640000D01*
X67310000Y-33020000D02*
X68485300Y-33020000D01*
X64770000Y-33020000D02*
X65945300Y-33020000D01*
X81280000Y-40640000D02*
X73198000Y-40640000D01*
X73198000Y-40640000D02*
X65945300Y-33387300D01*
X65945300Y-33387300D02*
X65945300Y-33020000D01*
X62230000Y-33020000D02*
X62230000Y-34195300D01*
X55880000Y-40640000D02*
X56903200Y-40640000D01*
X56903200Y-40640000D02*
X59645400Y-37897800D01*
X59645400Y-37897800D02*
X59645400Y-36339200D01*
X59645400Y-36339200D02*
X61789300Y-34195300D01*
X61789300Y-34195300D02*
X62230000Y-34195300D01*
X55880000Y-109220000D02*
X57022100Y-110362100D01*
X57022100Y-110362100D02*
X64610700Y-110362100D01*
X64610700Y-110362100D02*
X65752800Y-109220000D01*
X65752800Y-109220000D02*
X73545000Y-109220000D01*
X73545000Y-109220000D02*
X74717800Y-108047200D01*
X74717800Y-108047200D02*
X81711000Y-108047200D01*
X81711000Y-108047200D02*
X95863400Y-122199600D01*
X95863400Y-122199600D02*
X95863400Y-122944800D01*
X95863400Y-122944800D02*
X109175300Y-136256700D01*
X109175300Y-136256700D02*
X112007300Y-136256700D01*
X112007300Y-136256700D02*
X128270000Y-152519400D01*
X128270000Y-152519400D02*
X128270000Y-154940000D01*
X81280000Y-109220000D02*
X109431300Y-137371300D01*
X109431300Y-137371300D02*
X112449500Y-137371300D01*
X112449500Y-137371300D02*
X125730000Y-150651800D01*
X125730000Y-150651800D02*
X125730000Y-154940000D01*
X118110000Y-154940000D02*
X118110000Y-153764700D01*
X55880000Y-120650000D02*
X65237700Y-130007700D01*
X65237700Y-130007700D02*
X84500400Y-130007700D01*
X84500400Y-130007700D02*
X100653700Y-146161000D01*
X100653700Y-146161000D02*
X116023200Y-146161000D01*
X116023200Y-146161000D02*
X118110000Y-148247800D01*
X118110000Y-148247800D02*
X118110000Y-153764700D01*
X116745300Y-154940000D02*
X116745300Y-155307400D01*
X116745300Y-155307400D02*
X117553200Y-156115300D01*
X117553200Y-156115300D02*
X118655000Y-156115300D01*
X118655000Y-156115300D02*
X119289400Y-155480900D01*
X119289400Y-155480900D02*
X119289400Y-148790300D01*
X119289400Y-148790300D02*
X116142900Y-145643800D01*
X116142900Y-145643800D02*
X106273800Y-145643800D01*
X106273800Y-145643800D02*
X81280000Y-120650000D01*
X115570000Y-154940000D02*
X116745300Y-154940000D01*
X55880000Y-132080000D02*
X58621200Y-134821200D01*
X58621200Y-134821200D02*
X84453900Y-134821200D01*
X84453900Y-134821200D02*
X104224200Y-154591500D01*
X104224200Y-154591500D02*
X104224200Y-155418500D01*
X104224200Y-155418500D02*
X104921000Y-156115300D01*
X104921000Y-156115300D02*
X105966800Y-156115300D01*
X105966800Y-156115300D02*
X106774700Y-155307400D01*
X106774700Y-155307400D02*
X106774700Y-154940000D01*
X107950000Y-154940000D02*
X106774700Y-154940000D01*
X81280000Y-132080000D02*
X82550000Y-132080000D01*
X82550000Y-132080000D02*
X105410000Y-154940000D01*
X97790000Y-154940000D02*
X96614700Y-154940000D01*
X55880000Y-143510000D02*
X65137100Y-152767100D01*
X65137100Y-152767100D02*
X92201300Y-152767100D01*
X92201300Y-152767100D02*
X93980000Y-154545800D01*
X93980000Y-154545800D02*
X93980000Y-155400300D01*
X93980000Y-155400300D02*
X94695000Y-156115300D01*
X94695000Y-156115300D02*
X95806800Y-156115300D01*
X95806800Y-156115300D02*
X96614700Y-155307400D01*
X96614700Y-155307400D02*
X96614700Y-154940000D01*
X81280000Y-143510000D02*
X86715300Y-143510000D01*
X86715300Y-143510000D02*
X95250000Y-152044700D01*
X95250000Y-152044700D02*
X95250000Y-154940000D01*
X86454700Y-154940000D02*
X86454700Y-154572600D01*
X86454700Y-154572600D02*
X85190600Y-153308500D01*
X85190600Y-153308500D02*
X68492700Y-153308500D01*
X68492700Y-153308500D02*
X65682400Y-156118800D01*
X65682400Y-156118800D02*
X57058800Y-156118800D01*
X57058800Y-156118800D02*
X55880000Y-154940000D01*
X87630000Y-154940000D02*
X86454700Y-154940000D01*
X82550000Y-154940000D02*
X83725300Y-154940000D01*
X107950000Y-147320000D02*
X109163700Y-148533700D01*
X109163700Y-148533700D02*
X109163700Y-155403200D01*
X109163700Y-155403200D02*
X107958600Y-156608300D01*
X107958600Y-156608300D02*
X85026300Y-156608300D01*
X85026300Y-156608300D02*
X83725300Y-155307300D01*
X83725300Y-155307300D02*
X83725300Y-154940000D01*
X80010000Y-154940000D02*
X81185300Y-154940000D01*
X133350000Y-154940000D02*
X131231300Y-157058700D01*
X131231300Y-157058700D02*
X82936700Y-157058700D01*
X82936700Y-157058700D02*
X81185300Y-155307300D01*
X81185300Y-155307300D02*
X81185300Y-154940000D01*
X55880000Y-158750000D02*
X57692400Y-156937600D01*
X57692400Y-156937600D02*
X66190200Y-156937600D01*
X66190200Y-156937600D02*
X69363100Y-153764700D01*
X69363100Y-153764700D02*
X76294700Y-153764700D01*
X76294700Y-153764700D02*
X77470000Y-154940000D01*
X74930000Y-154940000D02*
X76105300Y-154940000D01*
X81280000Y-158750000D02*
X79548000Y-158750000D01*
X79548000Y-158750000D02*
X76105300Y-155307300D01*
X76105300Y-155307300D02*
X76105300Y-154940000D01*
X73565300Y-154940000D02*
X73565300Y-155307300D01*
X73565300Y-155307300D02*
X78150400Y-159892400D01*
X78150400Y-159892400D02*
X84428100Y-159892400D01*
X84428100Y-159892400D02*
X86749400Y-157571100D01*
X86749400Y-157571100D02*
X106771100Y-157571100D01*
X106771100Y-157571100D02*
X107950000Y-158750000D01*
X72390000Y-154940000D02*
X73565300Y-154940000D01*
X69850000Y-154940000D02*
X71025300Y-154940000D01*
X133350000Y-166370000D02*
X82088000Y-166370000D01*
X82088000Y-166370000D02*
X71025300Y-155307300D01*
X71025300Y-155307300D02*
X71025300Y-154940000D01*
M02*
