G04 #@! TF.GenerationSoftware,KiCad,Pcbnew,(5.1.4)-1*
G04 #@! TF.CreationDate,2019-10-25T20:14:16-04:00*
G04 #@! TF.ProjectId,A-10C-CautionPanelNonMega,412d3130-432d-4436-9175-74696f6e5061,rev?*
G04 #@! TF.SameCoordinates,Original*
G04 #@! TF.FileFunction,Copper,L2,Bot*
G04 #@! TF.FilePolarity,Positive*
%FSLAX46Y46*%
G04 Gerber Fmt 4.6, Leading zero omitted, Abs format (unit mm)*
G04 Created by KiCad (PCBNEW (5.1.4)-1) date 2019-10-25 20:14:16*
%MOMM*%
%LPD*%
G04 APERTURE LIST*
%ADD10C,1.600000*%
%ADD11R,2.600000X2.600000*%
%ADD12C,2.600000*%
%ADD13R,1.905000X2.000000*%
%ADD14O,1.905000X2.000000*%
%ADD15O,1.700000X1.700000*%
%ADD16R,1.700000X1.700000*%
%ADD17O,1.050000X1.500000*%
%ADD18R,1.050000X1.500000*%
%ADD19R,1.600000X1.600000*%
%ADD20O,1.600000X1.600000*%
%ADD21C,0.800000*%
%ADD22C,0.530000*%
%ADD23C,0.250000*%
G04 APERTURE END LIST*
D10*
X81737200Y-59512200D03*
X79237200Y-59512200D03*
X75525000Y-59512200D03*
X73025000Y-59512200D03*
D11*
X61696600Y-55168800D03*
D12*
X55696600Y-55168800D03*
X58696600Y-50468800D03*
D13*
X80187800Y-53111400D03*
D14*
X77647800Y-53111400D03*
X75107800Y-53111400D03*
D15*
X175260000Y-118110000D03*
X175260000Y-115570000D03*
X175260000Y-113030000D03*
X175260000Y-110490000D03*
X175260000Y-107950000D03*
X175260000Y-105410000D03*
X175260000Y-102870000D03*
X175260000Y-100330000D03*
X175260000Y-97790000D03*
X175260000Y-95250000D03*
X175260000Y-92710000D03*
X175260000Y-90170000D03*
X175260000Y-87630000D03*
X175260000Y-85090000D03*
X175260000Y-82550000D03*
X175260000Y-80010000D03*
X175260000Y-77470000D03*
X175260000Y-74930000D03*
X175260000Y-72390000D03*
X175260000Y-69850000D03*
X175260000Y-67310000D03*
X175260000Y-64770000D03*
X175260000Y-62230000D03*
D16*
X175260000Y-59690000D03*
D15*
X148590000Y-64770000D03*
X146050000Y-64770000D03*
X143510000Y-64770000D03*
X140970000Y-64770000D03*
X138430000Y-64770000D03*
X135890000Y-64770000D03*
X133350000Y-64770000D03*
X130810000Y-64770000D03*
X128270000Y-64770000D03*
X125730000Y-64770000D03*
X123190000Y-64770000D03*
X120650000Y-64770000D03*
X118110000Y-64770000D03*
X115570000Y-64770000D03*
X113030000Y-64770000D03*
X110490000Y-64770000D03*
X107950000Y-64770000D03*
X105410000Y-64770000D03*
X102870000Y-64770000D03*
X100330000Y-64770000D03*
X97790000Y-64770000D03*
X95250000Y-64770000D03*
X92710000Y-64770000D03*
D16*
X90170000Y-64770000D03*
X90170000Y-49530000D03*
D15*
X92710000Y-49530000D03*
X95250000Y-49530000D03*
X97790000Y-49530000D03*
X100330000Y-49530000D03*
X102870000Y-49530000D03*
X105410000Y-49530000D03*
X107950000Y-49530000D03*
X110490000Y-49530000D03*
X113030000Y-49530000D03*
X115570000Y-49530000D03*
X118110000Y-49530000D03*
X120650000Y-49530000D03*
X123190000Y-49530000D03*
X125730000Y-49530000D03*
X128270000Y-49530000D03*
X130810000Y-49530000D03*
X133350000Y-49530000D03*
X135890000Y-49530000D03*
X138430000Y-49530000D03*
X140970000Y-49530000D03*
X143510000Y-49530000D03*
X146050000Y-49530000D03*
X148590000Y-49530000D03*
D16*
X53340000Y-125730000D03*
D15*
X53340000Y-123190000D03*
X53340000Y-120650000D03*
X53340000Y-118110000D03*
X53340000Y-115570000D03*
X53340000Y-113030000D03*
X53340000Y-110490000D03*
X53340000Y-107950000D03*
X53340000Y-105410000D03*
X53340000Y-102870000D03*
X53340000Y-100330000D03*
X53340000Y-97790000D03*
X53340000Y-95250000D03*
X53340000Y-92710000D03*
X53340000Y-90170000D03*
X53340000Y-87630000D03*
X53340000Y-85090000D03*
X53340000Y-82550000D03*
X53340000Y-80010000D03*
X53340000Y-77470000D03*
X53340000Y-74930000D03*
X53340000Y-72390000D03*
X53340000Y-69850000D03*
X53340000Y-67310000D03*
D17*
X96520000Y-57150000D03*
X95250000Y-57150000D03*
D18*
X97790000Y-57150000D03*
X113030000Y-57150000D03*
D17*
X110490000Y-57150000D03*
X111760000Y-57150000D03*
X142240000Y-57150000D03*
X140970000Y-57150000D03*
D18*
X143510000Y-57150000D03*
D16*
X77470000Y-66040000D03*
D15*
X77470000Y-68580000D03*
X77470000Y-71120000D03*
D17*
X127000000Y-57150000D03*
X125730000Y-57150000D03*
D18*
X128270000Y-57150000D03*
D19*
X151130000Y-53340000D03*
D20*
X171450000Y-60960000D03*
X153670000Y-53340000D03*
X168910000Y-60960000D03*
X156210000Y-53340000D03*
X166370000Y-60960000D03*
X158750000Y-53340000D03*
X163830000Y-60960000D03*
X161290000Y-53340000D03*
X161290000Y-60960000D03*
X163830000Y-53340000D03*
X158750000Y-60960000D03*
X166370000Y-53340000D03*
X156210000Y-60960000D03*
X168910000Y-53340000D03*
X153670000Y-60960000D03*
X171450000Y-53340000D03*
X151130000Y-60960000D03*
X161290000Y-69850000D03*
X168910000Y-90170000D03*
X161290000Y-72390000D03*
X168910000Y-87630000D03*
X161290000Y-74930000D03*
X168910000Y-85090000D03*
X161290000Y-77470000D03*
X168910000Y-82550000D03*
X161290000Y-80010000D03*
X168910000Y-80010000D03*
X161290000Y-82550000D03*
X168910000Y-77470000D03*
X161290000Y-85090000D03*
X168910000Y-74930000D03*
X161290000Y-87630000D03*
X168910000Y-72390000D03*
X161290000Y-90170000D03*
D19*
X168910000Y-69850000D03*
D20*
X161290000Y-93980000D03*
X168910000Y-114300000D03*
X161290000Y-96520000D03*
X168910000Y-111760000D03*
X161290000Y-99060000D03*
X168910000Y-109220000D03*
X161290000Y-101600000D03*
X168910000Y-106680000D03*
X161290000Y-104140000D03*
X168910000Y-104140000D03*
X161290000Y-106680000D03*
X168910000Y-101600000D03*
X161290000Y-109220000D03*
X168910000Y-99060000D03*
X161290000Y-111760000D03*
X168910000Y-96520000D03*
X161290000Y-114300000D03*
D19*
X168910000Y-93980000D03*
X153670000Y-93980000D03*
D20*
X146050000Y-114300000D03*
X153670000Y-96520000D03*
X146050000Y-111760000D03*
X153670000Y-99060000D03*
X146050000Y-109220000D03*
X153670000Y-101600000D03*
X146050000Y-106680000D03*
X153670000Y-104140000D03*
X146050000Y-104140000D03*
X153670000Y-106680000D03*
X146050000Y-101600000D03*
X153670000Y-109220000D03*
X146050000Y-99060000D03*
X153670000Y-111760000D03*
X146050000Y-96520000D03*
X153670000Y-114300000D03*
X146050000Y-93980000D03*
X171450000Y-119380000D03*
X151130000Y-127000000D03*
X168910000Y-119380000D03*
X153670000Y-127000000D03*
X166370000Y-119380000D03*
X156210000Y-127000000D03*
X163830000Y-119380000D03*
X158750000Y-127000000D03*
X161290000Y-119380000D03*
X161290000Y-127000000D03*
X158750000Y-119380000D03*
X163830000Y-127000000D03*
X156210000Y-119380000D03*
X166370000Y-127000000D03*
X153670000Y-119380000D03*
X168910000Y-127000000D03*
X151130000Y-119380000D03*
D19*
X171450000Y-127000000D03*
X153670000Y-69850000D03*
D20*
X146050000Y-90170000D03*
X153670000Y-72390000D03*
X146050000Y-87630000D03*
X153670000Y-74930000D03*
X146050000Y-85090000D03*
X153670000Y-77470000D03*
X146050000Y-82550000D03*
X153670000Y-80010000D03*
X146050000Y-80010000D03*
X153670000Y-82550000D03*
X146050000Y-77470000D03*
X153670000Y-85090000D03*
X146050000Y-74930000D03*
X153670000Y-87630000D03*
X146050000Y-72390000D03*
X153670000Y-90170000D03*
X146050000Y-69850000D03*
D16*
X62230000Y-113030000D03*
D15*
X62230000Y-110490000D03*
X62230000Y-107950000D03*
X62230000Y-105410000D03*
X62230000Y-102870000D03*
X62230000Y-100330000D03*
X62230000Y-97790000D03*
X62230000Y-95250000D03*
X62230000Y-92710000D03*
X62230000Y-90170000D03*
X62230000Y-87630000D03*
X62230000Y-85090000D03*
X62230000Y-82550000D03*
X62230000Y-80010000D03*
X62230000Y-77470000D03*
X77470000Y-77470000D03*
X77470000Y-80010000D03*
X77470000Y-82550000D03*
X77470000Y-85090000D03*
X77470000Y-87630000D03*
X77470000Y-90170000D03*
X77470000Y-92710000D03*
X77470000Y-95250000D03*
X77470000Y-97790000D03*
X77470000Y-100330000D03*
X77470000Y-102870000D03*
X77470000Y-105410000D03*
X77470000Y-107950000D03*
X77470000Y-110490000D03*
D16*
X77470000Y-113030000D03*
D19*
X92710000Y-69850000D03*
D20*
X85090000Y-85090000D03*
X92710000Y-72390000D03*
X85090000Y-82550000D03*
X92710000Y-74930000D03*
X85090000Y-80010000D03*
X92710000Y-77470000D03*
X85090000Y-77470000D03*
X92710000Y-80010000D03*
X85090000Y-74930000D03*
X92710000Y-82550000D03*
X85090000Y-72390000D03*
X92710000Y-85090000D03*
X85090000Y-69850000D03*
D19*
X100330000Y-92710000D03*
D20*
X107950000Y-69850000D03*
X100330000Y-90170000D03*
X107950000Y-72390000D03*
X100330000Y-87630000D03*
X107950000Y-74930000D03*
X100330000Y-85090000D03*
X107950000Y-77470000D03*
X100330000Y-82550000D03*
X107950000Y-80010000D03*
X100330000Y-80010000D03*
X107950000Y-82550000D03*
X100330000Y-77470000D03*
X107950000Y-85090000D03*
X100330000Y-74930000D03*
X107950000Y-87630000D03*
X100330000Y-72390000D03*
X107950000Y-90170000D03*
X100330000Y-69850000D03*
X107950000Y-92710000D03*
X107950000Y-119380000D03*
X100330000Y-96520000D03*
X107950000Y-116840000D03*
X100330000Y-99060000D03*
X107950000Y-114300000D03*
X100330000Y-101600000D03*
X107950000Y-111760000D03*
X100330000Y-104140000D03*
X107950000Y-109220000D03*
X100330000Y-106680000D03*
X107950000Y-106680000D03*
X100330000Y-109220000D03*
X107950000Y-104140000D03*
X100330000Y-111760000D03*
X107950000Y-101600000D03*
X100330000Y-114300000D03*
X107950000Y-99060000D03*
X100330000Y-116840000D03*
X107950000Y-96520000D03*
D19*
X100330000Y-119380000D03*
X115570000Y-92710000D03*
D20*
X123190000Y-69850000D03*
X115570000Y-90170000D03*
X123190000Y-72390000D03*
X115570000Y-87630000D03*
X123190000Y-74930000D03*
X115570000Y-85090000D03*
X123190000Y-77470000D03*
X115570000Y-82550000D03*
X123190000Y-80010000D03*
X115570000Y-80010000D03*
X123190000Y-82550000D03*
X115570000Y-77470000D03*
X123190000Y-85090000D03*
X115570000Y-74930000D03*
X123190000Y-87630000D03*
X115570000Y-72390000D03*
X123190000Y-90170000D03*
X115570000Y-69850000D03*
X123190000Y-92710000D03*
X138430000Y-119380000D03*
X130810000Y-96520000D03*
X138430000Y-116840000D03*
X130810000Y-99060000D03*
X138430000Y-114300000D03*
X130810000Y-101600000D03*
X138430000Y-111760000D03*
X130810000Y-104140000D03*
X138430000Y-109220000D03*
X130810000Y-106680000D03*
X138430000Y-106680000D03*
X130810000Y-109220000D03*
X138430000Y-104140000D03*
X130810000Y-111760000D03*
X138430000Y-101600000D03*
X130810000Y-114300000D03*
X138430000Y-99060000D03*
X130810000Y-116840000D03*
X138430000Y-96520000D03*
D19*
X130810000Y-119380000D03*
X115570000Y-119380000D03*
D20*
X123190000Y-96520000D03*
X115570000Y-116840000D03*
X123190000Y-99060000D03*
X115570000Y-114300000D03*
X123190000Y-101600000D03*
X115570000Y-111760000D03*
X123190000Y-104140000D03*
X115570000Y-109220000D03*
X123190000Y-106680000D03*
X115570000Y-106680000D03*
X123190000Y-109220000D03*
X115570000Y-104140000D03*
X123190000Y-111760000D03*
X115570000Y-101600000D03*
X123190000Y-114300000D03*
X115570000Y-99060000D03*
X123190000Y-116840000D03*
X115570000Y-96520000D03*
X123190000Y-119380000D03*
X138430000Y-92710000D03*
X130810000Y-69850000D03*
X138430000Y-90170000D03*
X130810000Y-72390000D03*
X138430000Y-87630000D03*
X130810000Y-74930000D03*
X138430000Y-85090000D03*
X130810000Y-77470000D03*
X138430000Y-82550000D03*
X130810000Y-80010000D03*
X138430000Y-80010000D03*
X130810000Y-82550000D03*
X138430000Y-77470000D03*
X130810000Y-85090000D03*
X138430000Y-74930000D03*
X130810000Y-87630000D03*
X138430000Y-72390000D03*
X130810000Y-90170000D03*
X138430000Y-69850000D03*
D19*
X130810000Y-92710000D03*
D21*
X78684000Y-115602000D03*
X77424200Y-115574500D03*
X82318100Y-121950600D03*
X81152900Y-122851200D03*
X136054900Y-126852900D03*
X139830900Y-125756600D03*
X137506100Y-125586100D03*
X138652600Y-125167000D03*
X139601100Y-124700800D03*
X101236400Y-71137900D03*
X103854800Y-68447700D03*
X142365100Y-69830400D03*
X149143600Y-60565200D03*
X157645200Y-81142500D03*
X127050300Y-96342100D03*
X150771300Y-74964500D03*
X134583400Y-62909500D03*
X147431400Y-67223100D03*
X151298400Y-74016700D03*
X102633300Y-102281000D03*
X102903600Y-100474700D03*
X118270800Y-95171900D03*
X85467100Y-104756700D03*
X81348300Y-105511200D03*
X82836500Y-107742800D03*
X151905500Y-89666200D03*
X124366400Y-105554600D03*
X87494500Y-106843400D03*
X128538000Y-62254800D03*
X106685300Y-66596800D03*
X101917200Y-65945300D03*
X101646600Y-63533500D03*
X101590200Y-61819400D03*
X157000000Y-100793800D03*
X125863100Y-94033200D03*
X142974100Y-82899800D03*
X118482300Y-72390000D03*
X144061700Y-92662800D03*
X136255700Y-87096400D03*
X132309500Y-84864900D03*
X119658900Y-80010000D03*
X117519200Y-91788500D03*
X133207200Y-127889400D03*
X149257300Y-120143800D03*
X128717500Y-128862200D03*
X140377000Y-83708100D03*
X104154700Y-72520000D03*
X101730300Y-79774700D03*
X98166000Y-69731500D03*
D22*
X130810000Y-120645300D02*
X130810000Y-120645400D01*
X130810000Y-120645400D02*
X131341700Y-120645400D01*
X131341700Y-120645400D02*
X137331100Y-126634800D01*
X137331100Y-126634800D02*
X144321700Y-126634800D01*
X144321700Y-126634800D02*
X148175900Y-122780600D01*
X100330000Y-92710000D02*
X99064700Y-92710000D01*
X99064700Y-92710000D02*
X92710000Y-86355300D01*
X100330000Y-92710000D02*
X100330000Y-93342600D01*
X92710000Y-85090000D02*
X92710000Y-86355300D01*
X100330000Y-69850000D02*
X100330000Y-71115300D01*
X92710000Y-85090000D02*
X92710000Y-83824700D01*
X92710000Y-83824700D02*
X93263600Y-83824700D01*
X93263600Y-83824700D02*
X97063200Y-80025100D01*
X97063200Y-80025100D02*
X97063200Y-73843900D01*
X97063200Y-73843900D02*
X99791800Y-71115300D01*
X99791800Y-71115300D02*
X100330000Y-71115300D01*
X151130000Y-125734700D02*
X148175900Y-122780600D01*
X148175900Y-122780600D02*
X148175900Y-120001500D01*
X148175900Y-120001500D02*
X152612100Y-115565300D01*
X152612100Y-115565300D02*
X153670000Y-115565300D01*
X130810000Y-119380000D02*
X130810000Y-120645300D01*
X151130000Y-127000000D02*
X151130000Y-125734700D01*
X153670000Y-114300000D02*
X153670000Y-115565300D01*
X171450000Y-53340000D02*
X170184700Y-53340000D01*
X168910000Y-90170000D02*
X168910000Y-88904700D01*
X168910000Y-88904700D02*
X168381000Y-88904700D01*
X168381000Y-88904700D02*
X162584300Y-83108000D01*
X162584300Y-83108000D02*
X162584300Y-82042000D01*
X162584300Y-82042000D02*
X161822300Y-81280000D01*
X161822300Y-81280000D02*
X160726100Y-81280000D01*
X160726100Y-81280000D02*
X160012400Y-80566300D01*
X160012400Y-80566300D02*
X160012400Y-64037800D01*
X160012400Y-64037800D02*
X162560000Y-61490200D01*
X162560000Y-61490200D02*
X162560000Y-60408100D01*
X162560000Y-60408100D02*
X165868100Y-57100000D01*
X165868100Y-57100000D02*
X166979500Y-57100000D01*
X166979500Y-57100000D02*
X170184700Y-53894800D01*
X170184700Y-53894800D02*
X170184700Y-53340000D01*
X73400700Y-57358500D02*
X57886300Y-57358500D01*
X57886300Y-57358500D02*
X55696600Y-55168800D01*
X77647800Y-53111400D02*
X73400700Y-57358500D01*
X73400700Y-57358500D02*
X73400700Y-57387900D01*
X73400700Y-57387900D02*
X75525000Y-59512200D01*
X79237200Y-59512200D02*
X75525000Y-59512200D01*
X156091300Y-113030000D02*
X156091300Y-93856600D01*
X156091300Y-93856600D02*
X153670000Y-91435300D01*
X167644700Y-114300000D02*
X166374700Y-113030000D01*
X166374700Y-113030000D02*
X156091300Y-113030000D01*
X156091300Y-113030000D02*
X154935300Y-114186000D01*
X154935300Y-114186000D02*
X154935300Y-114300000D01*
X100330000Y-93342600D02*
X100330000Y-93975300D01*
X115570000Y-96520000D02*
X115570000Y-95254700D01*
X115570000Y-92710000D02*
X115570000Y-95254700D01*
X153670000Y-90170000D02*
X153670000Y-91435300D01*
X100330000Y-96520000D02*
X100330000Y-95254700D01*
X100330000Y-95254700D02*
X100330000Y-93975300D01*
X153670000Y-114300000D02*
X154935300Y-114300000D01*
X168910000Y-114300000D02*
X167644700Y-114300000D01*
X100330000Y-96520000D02*
X100330000Y-97785300D01*
X100330000Y-119380000D02*
X100330000Y-118114700D01*
X100330000Y-118114700D02*
X100883600Y-118114700D01*
X100883600Y-118114700D02*
X101604600Y-117393700D01*
X101604600Y-117393700D02*
X101604600Y-98505100D01*
X101604600Y-98505100D02*
X100884800Y-97785300D01*
X100884800Y-97785300D02*
X100330000Y-97785300D01*
X130810000Y-92710000D02*
X130810000Y-96520000D01*
X107950000Y-93975300D02*
X109241900Y-95267200D01*
X109241900Y-95267200D02*
X109241900Y-97022300D01*
X109241900Y-97022300D02*
X108474200Y-97790000D01*
X108474200Y-97790000D02*
X107425200Y-97790000D01*
X107425200Y-97790000D02*
X106675400Y-98539800D01*
X106675400Y-98539800D02*
X106675400Y-117394900D01*
X106675400Y-117394900D02*
X107395200Y-118114700D01*
X107395200Y-118114700D02*
X107950000Y-118114700D01*
X107950000Y-119380000D02*
X107950000Y-118114700D01*
X107950000Y-92710000D02*
X107950000Y-93975300D01*
X85090000Y-82550000D02*
X85090000Y-81284700D01*
X85090000Y-81284700D02*
X84536400Y-81284700D01*
X84536400Y-81284700D02*
X83824700Y-80573000D01*
X83824700Y-80573000D02*
X83824700Y-69850000D01*
X85090000Y-69850000D02*
X83824700Y-69850000D01*
X83824700Y-69850000D02*
X73486900Y-59512200D01*
X73486900Y-59512200D02*
X73025000Y-59512200D01*
D23*
X168910000Y-60960000D02*
X168910000Y-62622800D01*
X168910000Y-62622800D02*
X174867200Y-68580000D01*
X174867200Y-68580000D02*
X175670800Y-68580000D01*
X175670800Y-68580000D02*
X176889700Y-69798900D01*
X176889700Y-69798900D02*
X176889700Y-75032300D01*
X176889700Y-75032300D02*
X175627300Y-76294700D01*
X175627300Y-76294700D02*
X175260000Y-76294700D01*
X175260000Y-77470000D02*
X175260000Y-76294700D01*
X175260000Y-74930000D02*
X175260000Y-73754700D01*
X166370000Y-60960000D02*
X166370000Y-62624200D01*
X166370000Y-62624200D02*
X174865800Y-71120000D01*
X174865800Y-71120000D02*
X175670600Y-71120000D01*
X175670600Y-71120000D02*
X176435300Y-71884700D01*
X176435300Y-71884700D02*
X176435300Y-72946800D01*
X176435300Y-72946800D02*
X175627400Y-73754700D01*
X175627400Y-73754700D02*
X175260000Y-73754700D01*
X175260000Y-72390000D02*
X174084700Y-72390000D01*
X163830000Y-60960000D02*
X163830000Y-62085300D01*
X163830000Y-62085300D02*
X174084700Y-72340000D01*
X174084700Y-72340000D02*
X174084700Y-72390000D01*
X175260000Y-82550000D02*
X174084700Y-82550000D01*
X161290000Y-72390000D02*
X162415300Y-72390000D01*
X162415300Y-72390000D02*
X162415300Y-72671300D01*
X162415300Y-72671300D02*
X168559400Y-78815400D01*
X168559400Y-78815400D02*
X170350100Y-78815400D01*
X170350100Y-78815400D02*
X174084700Y-82550000D01*
X175260000Y-85090000D02*
X174084700Y-85090000D01*
X161290000Y-74930000D02*
X162415300Y-74930000D01*
X162415300Y-74930000D02*
X162415300Y-75211300D01*
X162415300Y-75211300D02*
X168484000Y-81280000D01*
X168484000Y-81280000D02*
X170274700Y-81280000D01*
X170274700Y-81280000D02*
X174084700Y-85090000D01*
X161290000Y-77470000D02*
X162415300Y-77470000D01*
X175260000Y-87630000D02*
X174084700Y-87630000D01*
X174084700Y-87630000D02*
X170274700Y-83820000D01*
X170274700Y-83820000D02*
X168484000Y-83820000D01*
X168484000Y-83820000D02*
X162415300Y-77751300D01*
X162415300Y-77751300D02*
X162415300Y-77470000D01*
X175260000Y-90170000D02*
X174084700Y-90170000D01*
X161290000Y-80010000D02*
X162415300Y-80010000D01*
X162415300Y-80010000D02*
X162415300Y-80232100D01*
X162415300Y-80232100D02*
X168403800Y-86220600D01*
X168403800Y-86220600D02*
X170135300Y-86220600D01*
X170135300Y-86220600D02*
X174084700Y-90170000D01*
X174084700Y-95250000D02*
X170923000Y-92088300D01*
X170923000Y-92088300D02*
X169193900Y-92088300D01*
X169193900Y-92088300D02*
X162415300Y-85309700D01*
X162415300Y-85309700D02*
X162415300Y-85090000D01*
X175260000Y-95250000D02*
X174084700Y-95250000D01*
X161290000Y-85090000D02*
X162415300Y-85090000D01*
X175260000Y-97790000D02*
X174084700Y-97790000D01*
X161290000Y-87630000D02*
X162415300Y-87630000D01*
X162415300Y-87630000D02*
X167324000Y-92538700D01*
X167324000Y-92538700D02*
X169568000Y-92538700D01*
X169568000Y-92538700D02*
X174084700Y-97055400D01*
X174084700Y-97055400D02*
X174084700Y-97790000D01*
X53340000Y-87630000D02*
X53340000Y-88805300D01*
X78684000Y-115602000D02*
X77310100Y-114228100D01*
X77310100Y-114228100D02*
X76444400Y-114228100D01*
X76444400Y-114228100D02*
X75796500Y-113580200D01*
X75796500Y-113580200D02*
X75796500Y-109656000D01*
X75796500Y-109656000D02*
X62660500Y-96520000D01*
X62660500Y-96520000D02*
X61795800Y-96520000D01*
X61795800Y-96520000D02*
X54081100Y-88805300D01*
X54081100Y-88805300D02*
X53340000Y-88805300D01*
X53340000Y-91345300D02*
X54122900Y-91345300D01*
X54122900Y-91345300D02*
X61837600Y-99060000D01*
X61837600Y-99060000D02*
X62719500Y-99060000D01*
X62719500Y-99060000D02*
X74740700Y-111081200D01*
X74740700Y-111081200D02*
X74740700Y-113161300D01*
X74740700Y-113161300D02*
X77153900Y-115574500D01*
X77153900Y-115574500D02*
X77424200Y-115574500D01*
X53340000Y-90170000D02*
X53340000Y-91345300D01*
X53340000Y-93885300D02*
X53707400Y-93885300D01*
X53707400Y-93885300D02*
X54515300Y-94693200D01*
X54515300Y-94693200D02*
X54515300Y-96868400D01*
X54515300Y-96868400D02*
X61692300Y-104045400D01*
X61692300Y-104045400D02*
X64201700Y-104045400D01*
X64201700Y-104045400D02*
X82106900Y-121950600D01*
X82106900Y-121950600D02*
X82318100Y-121950600D01*
X53340000Y-92710000D02*
X53340000Y-93885300D01*
X53340000Y-98965300D02*
X54101400Y-98965300D01*
X54101400Y-98965300D02*
X61816100Y-106680000D01*
X61816100Y-106680000D02*
X64981700Y-106680000D01*
X64981700Y-106680000D02*
X81152900Y-122851200D01*
X53340000Y-97790000D02*
X53340000Y-98965300D01*
X144924700Y-101600000D02*
X144924700Y-101881300D01*
X144924700Y-101881300D02*
X138856000Y-107950000D01*
X138856000Y-107950000D02*
X138068300Y-107950000D01*
X138068300Y-107950000D02*
X131978900Y-114039400D01*
X131978900Y-114039400D02*
X131978900Y-114754800D01*
X131978900Y-114754800D02*
X131163700Y-115570000D01*
X131163700Y-115570000D02*
X130424100Y-115570000D01*
X130424100Y-115570000D02*
X129684600Y-116309500D01*
X129684600Y-116309500D02*
X129684600Y-120482600D01*
X129684600Y-120482600D02*
X136054900Y-126852900D01*
X146050000Y-101600000D02*
X144924700Y-101600000D01*
X146050000Y-105265300D02*
X146331300Y-105265300D01*
X146331300Y-105265300D02*
X147196700Y-106130700D01*
X147196700Y-106130700D02*
X147196700Y-118390800D01*
X147196700Y-118390800D02*
X139830900Y-125756600D01*
X146050000Y-104140000D02*
X146050000Y-105265300D01*
X146050000Y-106680000D02*
X146050000Y-107805300D01*
X146050000Y-107805300D02*
X145768700Y-107805300D01*
X145768700Y-107805300D02*
X139853500Y-113720500D01*
X139853500Y-113720500D02*
X139853500Y-120047100D01*
X139853500Y-120047100D02*
X137506100Y-122394500D01*
X137506100Y-122394500D02*
X137506100Y-125586100D01*
X146050000Y-110345300D02*
X145768700Y-110345300D01*
X145768700Y-110345300D02*
X144024100Y-112089900D01*
X144024100Y-112089900D02*
X144024100Y-117478400D01*
X144024100Y-117478400D02*
X138652700Y-122849800D01*
X138652700Y-122849800D02*
X138652700Y-125167000D01*
X138652700Y-125167000D02*
X138652600Y-125167000D01*
X146050000Y-109220000D02*
X146050000Y-110345300D01*
X146050000Y-112885300D02*
X145768600Y-112885300D01*
X145768600Y-112885300D02*
X144924700Y-113729200D01*
X144924700Y-113729200D02*
X144924700Y-119377200D01*
X144924700Y-119377200D02*
X139601100Y-124700800D01*
X146050000Y-111760000D02*
X146050000Y-112885300D01*
X144924700Y-72390000D02*
X142365100Y-69830400D01*
X103854800Y-68447700D02*
X101236400Y-71066100D01*
X101236400Y-71066100D02*
X101236400Y-71137900D01*
X146050000Y-72390000D02*
X144924700Y-72390000D01*
X157645200Y-81142500D02*
X157645200Y-69066800D01*
X157645200Y-69066800D02*
X149143600Y-60565200D01*
X146050000Y-80010000D02*
X144819000Y-80010000D01*
X144819000Y-80010000D02*
X141891800Y-82937200D01*
X141891800Y-82937200D02*
X141891800Y-83305600D01*
X141891800Y-83305600D02*
X138864000Y-86333400D01*
X138864000Y-86333400D02*
X135993000Y-86333400D01*
X135993000Y-86333400D02*
X133262400Y-89064000D01*
X133262400Y-89064000D02*
X133262400Y-89517800D01*
X133262400Y-89517800D02*
X131195600Y-91584600D01*
X131195600Y-91584600D02*
X129830800Y-91584600D01*
X129830800Y-91584600D02*
X128712400Y-92703000D01*
X128712400Y-92703000D02*
X128712400Y-94680000D01*
X128712400Y-94680000D02*
X127050300Y-96342100D01*
X146050000Y-81424700D02*
X146331300Y-81424700D01*
X146331300Y-81424700D02*
X150771300Y-76984700D01*
X150771300Y-76984700D02*
X150771300Y-74964500D01*
X146050000Y-82550000D02*
X146050000Y-81424700D01*
X147431400Y-67223100D02*
X146792100Y-67223100D01*
X146792100Y-67223100D02*
X144874600Y-65305600D01*
X144874600Y-65305600D02*
X144874600Y-64450000D01*
X144874600Y-64450000D02*
X143507800Y-63083200D01*
X143507800Y-63083200D02*
X134757000Y-63083200D01*
X134757000Y-63083200D02*
X134757000Y-63083100D01*
X134757000Y-63083100D02*
X134583400Y-62909500D01*
X146050000Y-85090000D02*
X146050000Y-83964700D01*
X146050000Y-83964700D02*
X146331300Y-83964700D01*
X146331300Y-83964700D02*
X151518800Y-78777200D01*
X151518800Y-78777200D02*
X151518800Y-74237100D01*
X151518800Y-74237100D02*
X151298400Y-74016700D01*
X95250000Y-57150000D02*
X95250000Y-49530000D01*
X110490000Y-57150000D02*
X110490000Y-61129100D01*
X110490000Y-61129100D02*
X107950000Y-63669100D01*
X105410000Y-64770000D02*
X106585300Y-64770000D01*
X107950000Y-63669100D02*
X107686200Y-63669100D01*
X107686200Y-63669100D02*
X106585300Y-64770000D01*
X107950000Y-64770000D02*
X107950000Y-63669100D01*
X102870000Y-64770000D02*
X105410000Y-64770000D01*
D22*
X77470000Y-113030000D02*
X78785300Y-113030000D01*
X78785300Y-113030000D02*
X86356300Y-105459000D01*
X86356300Y-105459000D02*
X86356300Y-64131300D01*
X86356300Y-64131300D02*
X81737200Y-59512200D01*
X80187800Y-53111400D02*
X80187800Y-57962800D01*
X80187800Y-57962800D02*
X81737200Y-59512200D01*
D23*
X77470000Y-66040000D02*
X77470000Y-67215300D01*
X77470000Y-82550000D02*
X77470000Y-81374700D01*
X77470000Y-81374700D02*
X77102700Y-81374700D01*
X77102700Y-81374700D02*
X76294700Y-80566700D01*
X76294700Y-80566700D02*
X76294700Y-68023200D01*
X76294700Y-68023200D02*
X77102600Y-67215300D01*
X77102600Y-67215300D02*
X77470000Y-67215300D01*
X142240000Y-57150000D02*
X142240000Y-56074700D01*
X127000000Y-57150000D02*
X127000000Y-56074700D01*
X127000000Y-56074700D02*
X142240000Y-56074700D01*
X111760000Y-57150000D02*
X111760000Y-56074700D01*
X96520000Y-58231500D02*
X96520000Y-57150000D01*
X62230000Y-101505300D02*
X62575300Y-101505300D01*
X62575300Y-101505300D02*
X63405300Y-102335300D01*
X63405300Y-102335300D02*
X63405300Y-102612100D01*
X63405300Y-102612100D02*
X77128600Y-116335400D01*
X77128600Y-116335400D02*
X79043700Y-116335400D01*
X79043700Y-116335400D02*
X89445200Y-105933900D01*
X89445200Y-105933900D02*
X89445200Y-69113900D01*
X89445200Y-69113900D02*
X91423000Y-67136100D01*
X91423000Y-67136100D02*
X91423000Y-63328500D01*
X91423000Y-63328500D02*
X96520000Y-58231500D01*
X111760000Y-56074700D02*
X102900900Y-56074700D01*
X102900900Y-56074700D02*
X100744100Y-58231500D01*
X100744100Y-58231500D02*
X96520000Y-58231500D01*
X62230000Y-100330000D02*
X62230000Y-101505300D01*
X120650000Y-64770000D02*
X120650000Y-63594700D01*
X125730000Y-57150000D02*
X124879700Y-57150000D01*
X124879700Y-57150000D02*
X124879700Y-59365000D01*
X124879700Y-59365000D02*
X120650000Y-63594700D01*
X115570000Y-88755300D02*
X115288700Y-88755300D01*
X115288700Y-88755300D02*
X113544000Y-90500000D01*
X113544000Y-90500000D02*
X113544000Y-111430000D01*
X113544000Y-111430000D02*
X115288700Y-113174700D01*
X115288700Y-113174700D02*
X115570000Y-113174700D01*
X115570000Y-87630000D02*
X115570000Y-88755300D01*
X115570000Y-114300000D02*
X115570000Y-113174700D01*
X115570000Y-111760000D02*
X115570000Y-110634700D01*
X115570000Y-85090000D02*
X115570000Y-86215300D01*
X115570000Y-86215300D02*
X115851300Y-86215300D01*
X115851300Y-86215300D02*
X116709300Y-87073300D01*
X116709300Y-87073300D02*
X116709300Y-90631200D01*
X116709300Y-90631200D02*
X115755900Y-91584600D01*
X115755900Y-91584600D02*
X114635200Y-91584600D01*
X114635200Y-91584600D02*
X113994300Y-92225500D01*
X113994300Y-92225500D02*
X113994300Y-109340300D01*
X113994300Y-109340300D02*
X115288700Y-110634700D01*
X115288700Y-110634700D02*
X115570000Y-110634700D01*
X118912800Y-79687500D02*
X118912800Y-80521300D01*
X118912800Y-80521300D02*
X118996900Y-80605400D01*
X118996900Y-80605400D02*
X118996900Y-99869100D01*
X118996900Y-99869100D02*
X115851300Y-103014700D01*
X115851300Y-103014700D02*
X115570000Y-103014700D01*
X129684700Y-77470000D02*
X128559400Y-78595300D01*
X128559400Y-78595300D02*
X120005000Y-78595300D01*
X120005000Y-78595300D02*
X118912800Y-79687500D01*
X118912800Y-79687500D02*
X116695300Y-77470000D01*
X130810000Y-77470000D02*
X129684700Y-77470000D01*
X115570000Y-77470000D02*
X116695300Y-77470000D01*
X115570000Y-104140000D02*
X115570000Y-103014700D01*
X115570000Y-76055300D02*
X115288600Y-76055300D01*
X115288600Y-76055300D02*
X114444700Y-76899200D01*
X114444700Y-76899200D02*
X114444700Y-78002300D01*
X114444700Y-78002300D02*
X115182400Y-78740000D01*
X115182400Y-78740000D02*
X115897500Y-78740000D01*
X115897500Y-78740000D02*
X118270800Y-81113300D01*
X118270800Y-81113300D02*
X118270800Y-95171900D01*
X115570000Y-101600000D02*
X118270800Y-98899200D01*
X118270800Y-98899200D02*
X118270800Y-95171900D01*
X102903600Y-100474700D02*
X102633300Y-100745000D01*
X102633300Y-100745000D02*
X102633300Y-102281000D01*
X102903600Y-100474700D02*
X102903600Y-88547000D01*
X102903600Y-88547000D02*
X100716600Y-86360000D01*
X100716600Y-86360000D02*
X100008500Y-86360000D01*
X100008500Y-86360000D02*
X98737200Y-85088700D01*
X98737200Y-85088700D02*
X98737200Y-76522800D01*
X98737200Y-76522800D02*
X100330000Y-74930000D01*
X115570000Y-74930000D02*
X115570000Y-76055300D01*
X115570000Y-74930000D02*
X116695300Y-74930000D01*
X130810000Y-74930000D02*
X129684700Y-74930000D01*
X129684700Y-74930000D02*
X128559400Y-76055300D01*
X128559400Y-76055300D02*
X117820600Y-76055300D01*
X117820600Y-76055300D02*
X116695300Y-74930000D01*
X123190000Y-101600000D02*
X124421100Y-100368900D01*
X124421100Y-100368900D02*
X124421100Y-96797900D01*
X124421100Y-96797900D02*
X126612000Y-94607000D01*
X126612000Y-94607000D02*
X126612000Y-90191200D01*
X126612000Y-90191200D02*
X130443200Y-86360000D01*
X130443200Y-86360000D02*
X131840200Y-86360000D01*
X131840200Y-86360000D02*
X133034800Y-85165400D01*
X133034800Y-85165400D02*
X133034800Y-81169200D01*
X133034800Y-81169200D02*
X138148700Y-76055300D01*
X138148700Y-76055300D02*
X138430000Y-76055300D01*
X138430000Y-74930000D02*
X138430000Y-76055300D01*
X138430000Y-78595300D02*
X138148600Y-78595300D01*
X138148600Y-78595300D02*
X137304700Y-79439200D01*
X137304700Y-79439200D02*
X137304700Y-82754700D01*
X137304700Y-82754700D02*
X131159400Y-88900000D01*
X131159400Y-88900000D02*
X130456600Y-88900000D01*
X130456600Y-88900000D02*
X128037000Y-91319600D01*
X128037000Y-91319600D02*
X128037000Y-94231800D01*
X128037000Y-94231800D02*
X125784000Y-96484800D01*
X125784000Y-96484800D02*
X125784000Y-100702000D01*
X125784000Y-100702000D02*
X123471300Y-103014700D01*
X123471300Y-103014700D02*
X123190000Y-103014700D01*
X123190000Y-104140000D02*
X123190000Y-103014700D01*
X138430000Y-77470000D02*
X138430000Y-78595300D01*
X62230000Y-87630000D02*
X63405300Y-87630000D01*
X85467100Y-104756700D02*
X79753300Y-99042900D01*
X79753300Y-99042900D02*
X74818200Y-99042900D01*
X74818200Y-99042900D02*
X63405300Y-87630000D01*
X123190000Y-86215300D02*
X122908700Y-86215300D01*
X122908700Y-86215300D02*
X121578500Y-87545500D01*
X121578500Y-87545500D02*
X121578500Y-110148500D01*
X121578500Y-110148500D02*
X123190000Y-111760000D01*
X81348300Y-105511200D02*
X79977100Y-104140000D01*
X79977100Y-104140000D02*
X76618100Y-104140000D01*
X76618100Y-104140000D02*
X63918100Y-91440000D01*
X63918100Y-91440000D02*
X61743400Y-91440000D01*
X61743400Y-91440000D02*
X60595300Y-90291900D01*
X60595300Y-90291900D02*
X60595300Y-82508100D01*
X60595300Y-82508100D02*
X61763800Y-81339600D01*
X61763800Y-81339600D02*
X62687200Y-81339600D01*
X62687200Y-81339600D02*
X63420000Y-82072400D01*
X63420000Y-82072400D02*
X63420000Y-83900000D01*
X63420000Y-83900000D02*
X62230000Y-85090000D01*
X123190000Y-85090000D02*
X123190000Y-86215300D01*
X107950000Y-113174700D02*
X108231300Y-113174700D01*
X108231300Y-113174700D02*
X110288500Y-111117500D01*
X110288500Y-111117500D02*
X110288500Y-90812500D01*
X110288500Y-90812500D02*
X108231300Y-88755300D01*
X108231300Y-88755300D02*
X107950000Y-88755300D01*
X62230000Y-83725300D02*
X61862600Y-83725300D01*
X61862600Y-83725300D02*
X61054700Y-84533200D01*
X61054700Y-84533200D02*
X61054700Y-88122600D01*
X61054700Y-88122600D02*
X61832100Y-88900000D01*
X61832100Y-88900000D02*
X62860200Y-88900000D01*
X62860200Y-88900000D02*
X75560200Y-101600000D01*
X75560200Y-101600000D02*
X78462900Y-101600000D01*
X78462900Y-101600000D02*
X82836500Y-105973600D01*
X82836500Y-105973600D02*
X82836500Y-107742800D01*
X107950000Y-87630000D02*
X107950000Y-88755300D01*
X107950000Y-114300000D02*
X107950000Y-113174700D01*
X62230000Y-82550000D02*
X62230000Y-83725300D01*
X92710000Y-72390000D02*
X92710000Y-69850000D01*
X83964700Y-85090000D02*
X82774100Y-86280600D01*
X82774100Y-86280600D02*
X72215900Y-86280600D01*
X72215900Y-86280600D02*
X63405300Y-77470000D01*
X62230000Y-77470000D02*
X63405300Y-77470000D01*
X85090000Y-85090000D02*
X83964700Y-85090000D01*
X77470000Y-68580000D02*
X77470000Y-69755300D01*
X77470000Y-85090000D02*
X77470000Y-83914700D01*
X77470000Y-83914700D02*
X77837300Y-83914700D01*
X77837300Y-83914700D02*
X78645300Y-83106700D01*
X78645300Y-83106700D02*
X78645300Y-70563200D01*
X78645300Y-70563200D02*
X77837400Y-69755300D01*
X77837400Y-69755300D02*
X77470000Y-69755300D01*
X100330000Y-90170000D02*
X100330000Y-89044700D01*
X100330000Y-89044700D02*
X100048700Y-89044700D01*
X100048700Y-89044700D02*
X98264800Y-87260800D01*
X98264800Y-87260800D02*
X98264800Y-75401800D01*
X98264800Y-75401800D02*
X99862000Y-73804600D01*
X99862000Y-73804600D02*
X100711000Y-73804600D01*
X100711000Y-73804600D02*
X106474900Y-68040700D01*
X106474900Y-68040700D02*
X108881700Y-68040700D01*
X108881700Y-68040700D02*
X111760000Y-65162400D01*
X111760000Y-65162400D02*
X111760000Y-64374800D01*
X111760000Y-64374800D02*
X122794800Y-53340000D01*
X122794800Y-53340000D02*
X151130000Y-53340000D01*
X100330000Y-81424700D02*
X100048700Y-81424700D01*
X100048700Y-81424700D02*
X99187600Y-80563600D01*
X99187600Y-80563600D02*
X99187600Y-77019200D01*
X99187600Y-77019200D02*
X100006800Y-76200000D01*
X100006800Y-76200000D02*
X100684400Y-76200000D01*
X100684400Y-76200000D02*
X103422100Y-73462300D01*
X103422100Y-73462300D02*
X103422100Y-72214300D01*
X103422100Y-72214300D02*
X107145300Y-68491100D01*
X107145300Y-68491100D02*
X110971300Y-68491100D01*
X110971300Y-68491100D02*
X114300000Y-65162400D01*
X114300000Y-65162400D02*
X114300000Y-64361500D01*
X114300000Y-64361500D02*
X124196200Y-54465300D01*
X124196200Y-54465300D02*
X152122800Y-54465300D01*
X152122800Y-54465300D02*
X152544700Y-54043400D01*
X152544700Y-54043400D02*
X152544700Y-53340000D01*
X153670000Y-53340000D02*
X152544700Y-53340000D01*
X100330000Y-82550000D02*
X100330000Y-81424700D01*
X155084700Y-53340000D02*
X155084700Y-53621300D01*
X155084700Y-53621300D02*
X153360700Y-55345300D01*
X153360700Y-55345300D02*
X125806100Y-55345300D01*
X125806100Y-55345300D02*
X116840000Y-64311400D01*
X116840000Y-64311400D02*
X116840000Y-65162300D01*
X116840000Y-65162300D02*
X115117500Y-66884800D01*
X115117500Y-66884800D02*
X113932100Y-66884800D01*
X113932100Y-66884800D02*
X109586200Y-71230700D01*
X109586200Y-71230700D02*
X107512700Y-71230700D01*
X107512700Y-71230700D02*
X106363200Y-72380200D01*
X106363200Y-72380200D02*
X106363200Y-73132800D01*
X106363200Y-73132800D02*
X100611300Y-78884700D01*
X100611300Y-78884700D02*
X100330000Y-78884700D01*
X156210000Y-53340000D02*
X155084700Y-53340000D01*
X100330000Y-80010000D02*
X100330000Y-78884700D01*
X101455300Y-72390000D02*
X106523200Y-67322100D01*
X106523200Y-67322100D02*
X107060200Y-67322100D01*
X107060200Y-67322100D02*
X109220000Y-65162300D01*
X109220000Y-65162300D02*
X109220000Y-64356500D01*
X109220000Y-64356500D02*
X121361800Y-52214700D01*
X121361800Y-52214700D02*
X156780800Y-52214700D01*
X156780800Y-52214700D02*
X157624700Y-53058600D01*
X157624700Y-53058600D02*
X157624700Y-53340000D01*
X158750000Y-53340000D02*
X157624700Y-53340000D01*
X100330000Y-72390000D02*
X101455300Y-72390000D01*
X160164700Y-53340000D02*
X160164700Y-53517000D01*
X160164700Y-53517000D02*
X155456300Y-58225400D01*
X155456300Y-58225400D02*
X128043900Y-58225400D01*
X128043900Y-58225400D02*
X121920000Y-64349300D01*
X121920000Y-64349300D02*
X121920000Y-65196200D01*
X121920000Y-65196200D02*
X119768100Y-67348100D01*
X119768100Y-67348100D02*
X114117200Y-67348100D01*
X114117200Y-67348100D02*
X109075300Y-72390000D01*
X161290000Y-53340000D02*
X160164700Y-53340000D01*
X107950000Y-72390000D02*
X109075300Y-72390000D01*
X107950000Y-78884700D02*
X108158800Y-78884700D01*
X108158800Y-78884700D02*
X110859500Y-76184000D01*
X110859500Y-76184000D02*
X110859500Y-72943700D01*
X110859500Y-72943700D02*
X115078600Y-68724600D01*
X115078600Y-68724600D02*
X119665400Y-68724600D01*
X119665400Y-68724600D02*
X121470700Y-66919300D01*
X121470700Y-66919300D02*
X125270800Y-66919300D01*
X125270800Y-66919300D02*
X127000000Y-65190100D01*
X127000000Y-65190100D02*
X127000000Y-64374400D01*
X127000000Y-64374400D02*
X128394300Y-62980100D01*
X128394300Y-62980100D02*
X128838500Y-62980100D01*
X128838500Y-62980100D02*
X132974600Y-58844000D01*
X132974600Y-58844000D02*
X157482000Y-58844000D01*
X157482000Y-58844000D02*
X162704700Y-53621300D01*
X162704700Y-53621300D02*
X162704700Y-53340000D01*
X163830000Y-53340000D02*
X162704700Y-53340000D01*
X107950000Y-80010000D02*
X107950000Y-78884700D01*
X165244700Y-53340000D02*
X165244700Y-53621300D01*
X165244700Y-53621300D02*
X159481800Y-59384200D01*
X159481800Y-59384200D02*
X134528200Y-59384200D01*
X134528200Y-59384200D02*
X129540000Y-64372400D01*
X129540000Y-64372400D02*
X129540000Y-65162300D01*
X129540000Y-65162300D02*
X127094300Y-67608000D01*
X127094300Y-67608000D02*
X121686100Y-67608000D01*
X121686100Y-67608000D02*
X119524000Y-69770100D01*
X119524000Y-69770100D02*
X118887400Y-69770100D01*
X118887400Y-69770100D02*
X117443300Y-71214200D01*
X117443300Y-71214200D02*
X115110200Y-71214200D01*
X115110200Y-71214200D02*
X111873300Y-74451100D01*
X111873300Y-74451100D02*
X111873300Y-77782700D01*
X111873300Y-77782700D02*
X108231300Y-81424700D01*
X108231300Y-81424700D02*
X107950000Y-81424700D01*
X166370000Y-53340000D02*
X165244700Y-53340000D01*
X107950000Y-82550000D02*
X107950000Y-81424700D01*
X168910000Y-53340000D02*
X167784700Y-53340000D01*
X107950000Y-90170000D02*
X106803300Y-89023300D01*
X106803300Y-89023300D02*
X106803300Y-87109700D01*
X106803300Y-87109700D02*
X107553000Y-86360000D01*
X107553000Y-86360000D02*
X108314200Y-86360000D01*
X108314200Y-86360000D02*
X113905000Y-80769200D01*
X113905000Y-80769200D02*
X113905000Y-74947000D01*
X113905000Y-74947000D02*
X115095500Y-73756500D01*
X115095500Y-73756500D02*
X115847100Y-73756500D01*
X115847100Y-73756500D02*
X119078800Y-70524800D01*
X119078800Y-70524800D02*
X119939700Y-70524800D01*
X119939700Y-70524800D02*
X121739900Y-68724600D01*
X121739900Y-68724600D02*
X126753900Y-68724600D01*
X126753900Y-68724600D02*
X129205200Y-66273300D01*
X129205200Y-66273300D02*
X130972800Y-66273300D01*
X130972800Y-66273300D02*
X132087300Y-65158800D01*
X132087300Y-65158800D02*
X132087300Y-64325200D01*
X132087300Y-64325200D02*
X136577900Y-59834600D01*
X136577900Y-59834600D02*
X161467000Y-59834600D01*
X161467000Y-59834600D02*
X167784700Y-53516900D01*
X167784700Y-53516900D02*
X167784700Y-53340000D01*
X107950000Y-116840000D02*
X109075300Y-116840000D01*
X109075300Y-116840000D02*
X122659400Y-130424100D01*
X122659400Y-130424100D02*
X167081400Y-130424100D01*
X167081400Y-130424100D02*
X170265000Y-127240500D01*
X170265000Y-127240500D02*
X170265000Y-110779500D01*
X170265000Y-110779500D02*
X174044400Y-107000100D01*
X174044400Y-107000100D02*
X174044400Y-99805000D01*
X174044400Y-99805000D02*
X174789400Y-99060000D01*
X174789400Y-99060000D02*
X175715300Y-99060000D01*
X175715300Y-99060000D02*
X176463700Y-98311600D01*
X176463700Y-98311600D02*
X176463700Y-94789100D01*
X176463700Y-94789100D02*
X175654600Y-93980000D01*
X175654600Y-93980000D02*
X174820200Y-93980000D01*
X174820200Y-93980000D02*
X168910000Y-88069800D01*
X168910000Y-88069800D02*
X168910000Y-87630000D01*
X151905500Y-89666200D02*
X151905500Y-89745200D01*
X151905500Y-89745200D02*
X146400700Y-95250000D01*
X146400700Y-95250000D02*
X136370500Y-95250000D01*
X136370500Y-95250000D02*
X131290500Y-100330000D01*
X131290500Y-100330000D02*
X129591000Y-100330000D01*
X129591000Y-100330000D02*
X124366400Y-105554600D01*
X168910000Y-82550000D02*
X170500000Y-82550000D01*
X170500000Y-82550000D02*
X174216900Y-86266900D01*
X174216900Y-86266900D02*
X175785900Y-86266900D01*
X175785900Y-86266900D02*
X177345400Y-84707400D01*
X177345400Y-84707400D02*
X177345400Y-57585300D01*
X177345400Y-57585300D02*
X168084300Y-48324200D01*
X168084300Y-48324200D02*
X94687400Y-48324200D01*
X94687400Y-48324200D02*
X93980000Y-49031600D01*
X93980000Y-49031600D02*
X93980000Y-50160200D01*
X93980000Y-50160200D02*
X87494500Y-56645700D01*
X87494500Y-56645700D02*
X87494500Y-106843400D01*
X107950000Y-99060000D02*
X109075300Y-99060000D01*
X109075300Y-99060000D02*
X109838200Y-98297100D01*
X109838200Y-98297100D02*
X109838200Y-93006300D01*
X109838200Y-93006300D02*
X108271900Y-91440000D01*
X108271900Y-91440000D02*
X107596900Y-91440000D01*
X107596900Y-91440000D02*
X106345500Y-90188600D01*
X106345500Y-90188600D02*
X106345500Y-74892300D01*
X106345500Y-74892300D02*
X107678900Y-73558900D01*
X107678900Y-73558900D02*
X108850100Y-73558900D01*
X108850100Y-73558900D02*
X114134800Y-68274200D01*
X114134800Y-68274200D02*
X119478900Y-68274200D01*
X119478900Y-68274200D02*
X121386700Y-66366400D01*
X121386700Y-66366400D02*
X123282300Y-66366400D01*
X123282300Y-66366400D02*
X124554600Y-65094100D01*
X124554600Y-65094100D02*
X124554600Y-64250600D01*
X124554600Y-64250600D02*
X126550400Y-62254800D01*
X126550400Y-62254800D02*
X128538000Y-62254800D01*
X100330000Y-99060000D02*
X91580300Y-90310300D01*
X91580300Y-90310300D02*
X91580300Y-82057400D01*
X91580300Y-82057400D02*
X92357700Y-81280000D01*
X92357700Y-81280000D02*
X93054300Y-81280000D01*
X93054300Y-81280000D02*
X96378100Y-77956200D01*
X96378100Y-77956200D02*
X96378100Y-73337300D01*
X96378100Y-73337300D02*
X99024400Y-70691000D01*
X99024400Y-70691000D02*
X99024400Y-69551000D01*
X99024400Y-69551000D02*
X101777400Y-66798000D01*
X101777400Y-66798000D02*
X106484100Y-66798000D01*
X106484100Y-66798000D02*
X106685300Y-66596800D01*
X100330000Y-105554700D02*
X100048700Y-105554700D01*
X100048700Y-105554700D02*
X91129900Y-96635900D01*
X91129900Y-96635900D02*
X91129900Y-79970400D01*
X91129900Y-79970400D02*
X92360300Y-78740000D01*
X92360300Y-78740000D02*
X93097400Y-78740000D01*
X93097400Y-78740000D02*
X95186400Y-76651000D01*
X95186400Y-76651000D02*
X95186400Y-71685400D01*
X95186400Y-71685400D02*
X97865600Y-69006200D01*
X97865600Y-69006200D02*
X98856300Y-69006200D01*
X98856300Y-69006200D02*
X101917200Y-65945300D01*
X100330000Y-106680000D02*
X100330000Y-105554700D01*
X100330000Y-108094700D02*
X100048700Y-108094700D01*
X100048700Y-108094700D02*
X90645100Y-98691100D01*
X90645100Y-98691100D02*
X90645100Y-77935200D01*
X90645100Y-77935200D02*
X92380300Y-76200000D01*
X92380300Y-76200000D02*
X93054900Y-76200000D01*
X93054900Y-76200000D02*
X94736100Y-74518800D01*
X94736100Y-74518800D02*
X94736100Y-71498800D01*
X94736100Y-71498800D02*
X100289600Y-65945300D01*
X100289600Y-65945300D02*
X100834700Y-65945300D01*
X100834700Y-65945300D02*
X101646600Y-65133400D01*
X101646600Y-65133400D02*
X101646600Y-63533500D01*
X100330000Y-109220000D02*
X100330000Y-108094700D01*
X100330000Y-115714700D02*
X100048700Y-115714700D01*
X100048700Y-115714700D02*
X90159500Y-105825500D01*
X90159500Y-105825500D02*
X90159500Y-75886400D01*
X90159500Y-75886400D02*
X92454700Y-73591200D01*
X92454700Y-73591200D02*
X93165100Y-73591200D01*
X93165100Y-73591200D02*
X94060700Y-72695600D01*
X94060700Y-72695600D02*
X94060700Y-71074700D01*
X94060700Y-71074700D02*
X99060000Y-66075400D01*
X99060000Y-66075400D02*
X99060000Y-64349600D01*
X99060000Y-64349600D02*
X101590200Y-61819400D01*
X100330000Y-116840000D02*
X100330000Y-115714700D01*
X167784700Y-111760000D02*
X167784700Y-111478700D01*
X167784700Y-111478700D02*
X161716000Y-105410000D01*
X161716000Y-105410000D02*
X160946800Y-105410000D01*
X160946800Y-105410000D02*
X157000000Y-101463200D01*
X157000000Y-101463200D02*
X157000000Y-100793800D01*
X123190000Y-91295300D02*
X123471300Y-91295300D01*
X123471300Y-91295300D02*
X125863100Y-93687100D01*
X125863100Y-93687100D02*
X125863100Y-94033200D01*
X123190000Y-90170000D02*
X123190000Y-91295300D01*
X168910000Y-111760000D02*
X167784700Y-111760000D01*
X124315300Y-82550000D02*
X124315300Y-82549900D01*
X124315300Y-82549900D02*
X126533800Y-82549900D01*
X126533800Y-82549900D02*
X130343700Y-78740000D01*
X130343700Y-78740000D02*
X131137500Y-78740000D01*
X131137500Y-78740000D02*
X134652700Y-75224800D01*
X134652700Y-75224800D02*
X134652700Y-74559000D01*
X134652700Y-74559000D02*
X138091700Y-71120000D01*
X138091700Y-71120000D02*
X139995900Y-71120000D01*
X139995900Y-71120000D02*
X142417600Y-68698300D01*
X142417600Y-68698300D02*
X146607100Y-68698300D01*
X146607100Y-68698300D02*
X146774400Y-68865600D01*
X146774400Y-68865600D02*
X151084200Y-68865600D01*
X151084200Y-68865600D02*
X151701900Y-68247900D01*
X151701900Y-68247900D02*
X154802100Y-68247900D01*
X154802100Y-68247900D02*
X155563500Y-69009300D01*
X155563500Y-69009300D02*
X155563500Y-90512500D01*
X155563500Y-90512500D02*
X158118800Y-93067800D01*
X158118800Y-93067800D02*
X158118800Y-94978300D01*
X158118800Y-94978300D02*
X160930500Y-97790000D01*
X160930500Y-97790000D02*
X161696400Y-97790000D01*
X161696400Y-97790000D02*
X162840700Y-98934300D01*
X162840700Y-98934300D02*
X162840700Y-99668200D01*
X162840700Y-99668200D02*
X168582500Y-105410000D01*
X168582500Y-105410000D02*
X169263800Y-105410000D01*
X169263800Y-105410000D02*
X170039900Y-106186100D01*
X170039900Y-106186100D02*
X170039900Y-107246100D01*
X170039900Y-107246100D02*
X169191300Y-108094700D01*
X169191300Y-108094700D02*
X168910000Y-108094700D01*
X123190000Y-82550000D02*
X124315300Y-82550000D01*
X168910000Y-109220000D02*
X168910000Y-108094700D01*
X168910000Y-106680000D02*
X167784700Y-106680000D01*
X142974100Y-82899800D02*
X142974100Y-83664600D01*
X142974100Y-83664600D02*
X145669500Y-86360000D01*
X145669500Y-86360000D02*
X149625200Y-86360000D01*
X149625200Y-86360000D02*
X152165200Y-88900000D01*
X152165200Y-88900000D02*
X153996100Y-88900000D01*
X153996100Y-88900000D02*
X154795400Y-89699300D01*
X154795400Y-89699300D02*
X154795400Y-90828200D01*
X154795400Y-90828200D02*
X157595500Y-93628300D01*
X157595500Y-93628300D02*
X157595500Y-99497100D01*
X157595500Y-99497100D02*
X160968400Y-102870000D01*
X160968400Y-102870000D02*
X163974700Y-102870000D01*
X163974700Y-102870000D02*
X167784700Y-106680000D01*
X124315300Y-72390000D02*
X128907900Y-67797400D01*
X128907900Y-67797400D02*
X146980000Y-67797400D01*
X146980000Y-67797400D02*
X147147600Y-67965000D01*
X147147600Y-67965000D02*
X149676100Y-67965000D01*
X149676100Y-67965000D02*
X150326400Y-67314700D01*
X150326400Y-67314700D02*
X155204600Y-67314700D01*
X155204600Y-67314700D02*
X156914400Y-69024500D01*
X156914400Y-69024500D02*
X156914400Y-87406300D01*
X156914400Y-87406300D02*
X163507500Y-93999400D01*
X163507500Y-93999400D02*
X163507500Y-95266000D01*
X163507500Y-95266000D02*
X168487500Y-100246000D01*
X168487500Y-100246000D02*
X169227100Y-100246000D01*
X169227100Y-100246000D02*
X170035300Y-101054200D01*
X170035300Y-101054200D02*
X170035300Y-102170800D01*
X170035300Y-102170800D02*
X169191400Y-103014700D01*
X169191400Y-103014700D02*
X168910000Y-103014700D01*
X168910000Y-104140000D02*
X168910000Y-103014700D01*
X123190000Y-72390000D02*
X124315300Y-72390000D01*
X118482300Y-72390000D02*
X119612300Y-73520000D01*
X119612300Y-73520000D02*
X133017400Y-73520000D01*
X133017400Y-73520000D02*
X138289500Y-68247900D01*
X138289500Y-68247900D02*
X146793600Y-68247900D01*
X146793600Y-68247900D02*
X146961000Y-68415300D01*
X146961000Y-68415300D02*
X150411800Y-68415300D01*
X150411800Y-68415300D02*
X151029500Y-67797600D01*
X151029500Y-67797600D02*
X154988700Y-67797600D01*
X154988700Y-67797600D02*
X156434200Y-69243100D01*
X156434200Y-69243100D02*
X156434200Y-90726500D01*
X156434200Y-90726500D02*
X161102300Y-95394600D01*
X161102300Y-95394600D02*
X161860600Y-95394600D01*
X161860600Y-95394600D02*
X167784700Y-101318700D01*
X167784700Y-101318700D02*
X167784700Y-101600000D01*
X168910000Y-101600000D02*
X167784700Y-101600000D01*
X132309500Y-84864900D02*
X131409200Y-83964600D01*
X131409200Y-83964600D02*
X122968000Y-83964600D01*
X122968000Y-83964600D02*
X119658900Y-80655500D01*
X119658900Y-80655500D02*
X119658900Y-80010000D01*
X136255700Y-87096400D02*
X138059300Y-88900000D01*
X138059300Y-88900000D02*
X140298900Y-88900000D01*
X140298900Y-88900000D02*
X144061700Y-92662800D01*
X115570000Y-82550000D02*
X115570000Y-83675300D01*
X115570000Y-83675300D02*
X115851300Y-83675300D01*
X115851300Y-83675300D02*
X117519200Y-85343200D01*
X117519200Y-85343200D02*
X117519200Y-91788500D01*
X153670000Y-95105300D02*
X153951400Y-95105300D01*
X153951400Y-95105300D02*
X154795300Y-95949200D01*
X154795300Y-95949200D02*
X154795300Y-99540800D01*
X154795300Y-99540800D02*
X154006100Y-100330000D01*
X154006100Y-100330000D02*
X151453100Y-100330000D01*
X151453100Y-100330000D02*
X148913100Y-102870000D01*
X148913100Y-102870000D02*
X145715700Y-102870000D01*
X145715700Y-102870000D02*
X144474300Y-104111400D01*
X144474300Y-104111400D02*
X144474300Y-104782400D01*
X144474300Y-104782400D02*
X138766700Y-110490000D01*
X138766700Y-110490000D02*
X138092400Y-110490000D01*
X138092400Y-110490000D02*
X131935300Y-116647100D01*
X131935300Y-116647100D02*
X131935300Y-116840000D01*
X153670000Y-93980000D02*
X153670000Y-95105300D01*
X130810000Y-116840000D02*
X131935300Y-116840000D01*
X153670000Y-96520000D02*
X152544700Y-96520000D01*
X130810000Y-109220000D02*
X130810000Y-108094700D01*
X130810000Y-108094700D02*
X130528700Y-108094700D01*
X130528700Y-108094700D02*
X129673900Y-107239900D01*
X129673900Y-107239900D02*
X129673900Y-106194400D01*
X129673900Y-106194400D02*
X130458300Y-105410000D01*
X130458300Y-105410000D02*
X131629700Y-105410000D01*
X131629700Y-105410000D02*
X134039200Y-103000500D01*
X134039200Y-103000500D02*
X140089400Y-103000500D01*
X140089400Y-103000500D02*
X145444600Y-97645300D01*
X145444600Y-97645300D02*
X151419400Y-97645300D01*
X151419400Y-97645300D02*
X152544700Y-96520000D01*
X130810000Y-106680000D02*
X131935300Y-106680000D01*
X131935300Y-106680000D02*
X133205300Y-105410000D01*
X133205300Y-105410000D02*
X139257300Y-105410000D01*
X139257300Y-105410000D02*
X144337300Y-100330000D01*
X144337300Y-100330000D02*
X149371600Y-100330000D01*
X149371600Y-100330000D02*
X150641600Y-99060000D01*
X150641600Y-99060000D02*
X153670000Y-99060000D01*
X123190000Y-117965300D02*
X123408600Y-117965300D01*
X123408600Y-117965300D02*
X133207200Y-127763900D01*
X133207200Y-127763900D02*
X133207200Y-127889400D01*
X123190000Y-116840000D02*
X123190000Y-117965300D01*
X123190000Y-109220000D02*
X128914900Y-114944900D01*
X128914900Y-114944900D02*
X128914900Y-120629100D01*
X128914900Y-120629100D02*
X135329600Y-127043800D01*
X135329600Y-127043800D02*
X135329600Y-127153400D01*
X135329600Y-127153400D02*
X136306100Y-128129900D01*
X136306100Y-128129900D02*
X154236100Y-128129900D01*
X154236100Y-128129900D02*
X155084700Y-127281300D01*
X155084700Y-127281300D02*
X155084700Y-127000000D01*
X156210000Y-127000000D02*
X155084700Y-127000000D01*
X158750000Y-127000000D02*
X157624700Y-127000000D01*
X149257300Y-120143800D02*
X154988200Y-125874700D01*
X154988200Y-125874700D02*
X156780800Y-125874700D01*
X156780800Y-125874700D02*
X157624700Y-126718600D01*
X157624700Y-126718600D02*
X157624700Y-127000000D01*
X123190000Y-100185300D02*
X122908700Y-100185300D01*
X122908700Y-100185300D02*
X122028900Y-101065100D01*
X122028900Y-101065100D02*
X122028900Y-109723500D01*
X122028900Y-109723500D02*
X122650800Y-110345400D01*
X122650800Y-110345400D02*
X123367100Y-110345400D01*
X123367100Y-110345400D02*
X128212300Y-115190600D01*
X128212300Y-115190600D02*
X128212300Y-120563400D01*
X128212300Y-120563400D02*
X134879300Y-127230400D01*
X134879300Y-127230400D02*
X134879300Y-127340000D01*
X134879300Y-127340000D02*
X136124900Y-128585600D01*
X136124900Y-128585600D02*
X158860400Y-128585600D01*
X158860400Y-128585600D02*
X160164700Y-127281300D01*
X160164700Y-127281300D02*
X160164700Y-127000000D01*
X161290000Y-127000000D02*
X160164700Y-127000000D01*
X123190000Y-99060000D02*
X123190000Y-100185300D01*
X115570000Y-100185300D02*
X115288600Y-100185300D01*
X115288600Y-100185300D02*
X114444700Y-101029200D01*
X114444700Y-101029200D02*
X114444700Y-104634900D01*
X114444700Y-104634900D02*
X115219800Y-105410000D01*
X115219800Y-105410000D02*
X115971900Y-105410000D01*
X115971900Y-105410000D02*
X121689300Y-111127400D01*
X121689300Y-111127400D02*
X121689300Y-111916900D01*
X121689300Y-111916900D02*
X122802400Y-113030000D01*
X122802400Y-113030000D02*
X123559000Y-113030000D01*
X123559000Y-113030000D02*
X127587200Y-117058200D01*
X127587200Y-117058200D02*
X127587200Y-120575200D01*
X127587200Y-120575200D02*
X134429000Y-127417000D01*
X134429000Y-127417000D02*
X134429000Y-127526600D01*
X134429000Y-127526600D02*
X135940500Y-129038100D01*
X135940500Y-129038100D02*
X160947900Y-129038100D01*
X160947900Y-129038100D02*
X162704700Y-127281300D01*
X162704700Y-127281300D02*
X162704700Y-127000000D01*
X163830000Y-127000000D02*
X162704700Y-127000000D01*
X115570000Y-99060000D02*
X115570000Y-100185300D01*
X115570000Y-107805300D02*
X115851400Y-107805300D01*
X115851400Y-107805300D02*
X116695300Y-108649200D01*
X116695300Y-108649200D02*
X116695300Y-109396900D01*
X116695300Y-109396900D02*
X122868400Y-115570000D01*
X122868400Y-115570000D02*
X123592000Y-115570000D01*
X123592000Y-115570000D02*
X124315400Y-116293400D01*
X124315400Y-116293400D02*
X124315400Y-117940300D01*
X124315400Y-117940300D02*
X133978700Y-127603600D01*
X133978700Y-127603600D02*
X133978700Y-127713200D01*
X133978700Y-127713200D02*
X135768700Y-129503200D01*
X135768700Y-129503200D02*
X163022800Y-129503200D01*
X163022800Y-129503200D02*
X165244700Y-127281300D01*
X165244700Y-127281300D02*
X165244700Y-127000000D01*
X166370000Y-127000000D02*
X165244700Y-127000000D01*
X115570000Y-106680000D02*
X115570000Y-107805300D01*
X168910000Y-127000000D02*
X167784700Y-127000000D01*
X115570000Y-109220000D02*
X121635400Y-115285400D01*
X121635400Y-115285400D02*
X121635400Y-119461900D01*
X121635400Y-119461900D02*
X132145600Y-129972100D01*
X132145600Y-129972100D02*
X165093900Y-129972100D01*
X165093900Y-129972100D02*
X167784700Y-127281300D01*
X167784700Y-127281300D02*
X167784700Y-127000000D01*
X116695300Y-116840000D02*
X128717500Y-128862200D01*
X115570000Y-116840000D02*
X116695300Y-116840000D01*
X153670000Y-69850000D02*
X152544700Y-69850000D01*
X130810000Y-90170000D02*
X131935300Y-90170000D01*
X131935300Y-90170000D02*
X131935300Y-89748000D01*
X131935300Y-89748000D02*
X137718700Y-83964600D01*
X137718700Y-83964600D02*
X138636300Y-83964600D01*
X138636300Y-83964600D02*
X143990500Y-78610400D01*
X143990500Y-78610400D02*
X143990500Y-77881700D01*
X143990500Y-77881700D02*
X145672200Y-76200000D01*
X145672200Y-76200000D02*
X146476000Y-76200000D01*
X146476000Y-76200000D02*
X152544700Y-70131300D01*
X152544700Y-70131300D02*
X152544700Y-69850000D01*
X152544700Y-72390000D02*
X151899400Y-72390000D01*
X151899400Y-72390000D02*
X150046000Y-74243400D01*
X150046000Y-74243400D02*
X150046000Y-75073800D01*
X150046000Y-75073800D02*
X146362700Y-78757100D01*
X146362700Y-78757100D02*
X145328000Y-78757100D01*
X145328000Y-78757100D02*
X140377000Y-83708100D01*
X153670000Y-72390000D02*
X152544700Y-72390000D01*
X153670000Y-74930000D02*
X153670000Y-73804700D01*
X130810000Y-80010000D02*
X131935300Y-80010000D01*
X131935300Y-80010000D02*
X131935300Y-79728700D01*
X131935300Y-79728700D02*
X138004000Y-73660000D01*
X138004000Y-73660000D02*
X147108700Y-73660000D01*
X147108700Y-73660000D02*
X152044100Y-68724600D01*
X152044100Y-68724600D02*
X154641900Y-68724600D01*
X154641900Y-68724600D02*
X154795300Y-68878000D01*
X154795300Y-68878000D02*
X154795300Y-72960800D01*
X154795300Y-72960800D02*
X153951400Y-73804700D01*
X153951400Y-73804700D02*
X153670000Y-73804700D01*
X106824700Y-69850000D02*
X104154700Y-72520000D01*
X107950000Y-69850000D02*
X106824700Y-69850000D01*
X107950000Y-95394700D02*
X104116000Y-91560700D01*
X104116000Y-91560700D02*
X104116000Y-82160400D01*
X104116000Y-82160400D02*
X101730300Y-79774700D01*
X107950000Y-96520000D02*
X107950000Y-95394700D01*
X98166000Y-69731500D02*
X95861900Y-72035600D01*
X95861900Y-72035600D02*
X95861900Y-76858100D01*
X95861900Y-76858100D02*
X92710000Y-80010000D01*
M02*
