M48
; DRILL file {KiCad (5.1.4)-1} date 10/25/2019 8:14:23 PM
; FORMAT={-:-/ absolute / inch / decimal}
; #@! TF.CreationDate,2019-10-25T20:14:23-04:00
; #@! TF.GenerationSoftware,Kicad,Pcbnew,(5.1.4)-1
; #@! TF.FileFunction,Plated,1,2,PTH
FMAT,2
INCH
T1C0.0157
T2C0.0295
T3C0.0315
T4C0.0394
T5C0.0433
T6C0.0630
%
G90
G05
T1
X3.0482Y-4.5502
X3.0978Y-4.5513
X3.195Y-4.8367
X3.2027Y-4.154
X3.2409Y-4.8012
X3.2613Y-4.2418
X3.3648Y-4.1243
X3.4447Y-4.2064
X3.8648Y-2.7453
X3.9857Y-2.8007
X3.9996Y-2.4338
X4.0018Y-2.5013
X4.0051Y-3.1407
X4.0125Y-2.5963
X4.0407Y-4.0268
X4.0513Y-3.9557
X4.0888Y-2.6948
X4.1006Y-2.8551
X4.2002Y-2.6219
X4.6267Y-3.6137
X4.6563Y-3.7469
X4.6647Y-2.85
X4.711Y-3.15
X4.8963Y-4.1557
X4.9552Y-3.7021
X5.002Y-3.793
X5.0606Y-2.451
X5.0676Y-5.0733
X5.209Y-3.3411
X5.2444Y-5.035
X5.2986Y-2.4768
X5.3565Y-4.9942
X5.3644Y-3.429
X5.4136Y-4.9443
X5.4588Y-4.9278
X5.4961Y-4.9095
X5.5052Y-4.951
X5.5267Y-3.2956
X5.6049Y-2.7492
X5.6289Y-3.2638
X5.6717Y-3.6481
X5.8044Y-2.6466
X5.8718Y-2.3845
X5.8763Y-4.7301
X5.9359Y-2.9514
X5.9566Y-2.914
X5.9805Y-3.5302
X6.1811Y-3.9683
X6.2065Y-3.1946
T2
X4.35Y-2.25
X4.4Y-2.25
X4.45Y-2.25
X4.95Y-2.25
X5.0Y-2.25
X5.05Y-2.25
X3.75Y-2.25
X3.8Y-2.25
X3.85Y-2.25
X5.55Y-2.25
X5.6Y-2.25
X5.65Y-2.25
T3
X5.15Y-3.8
X5.15Y-3.9
X5.15Y-4.0
X5.15Y-4.1
X5.15Y-4.2
X5.15Y-4.3
X5.15Y-4.4
X5.15Y-4.5
X5.15Y-4.6
X5.15Y-4.7
X5.45Y-3.8
X5.45Y-3.9
X5.45Y-4.0
X5.45Y-4.1
X5.45Y-4.2
X5.45Y-4.3
X5.45Y-4.4
X5.45Y-4.5
X5.45Y-4.6
X5.45Y-4.7
X3.1196Y-2.343
X3.218Y-2.343
X3.95Y-3.8
X3.95Y-3.9
X3.95Y-4.0
X3.95Y-4.1
X3.95Y-4.2
X3.95Y-4.3
X3.95Y-4.4
X3.95Y-4.5
X3.95Y-4.6
X3.95Y-4.7
X4.25Y-3.8
X4.25Y-3.9
X4.25Y-4.0
X4.25Y-4.1
X4.25Y-4.2
X4.25Y-4.3
X4.25Y-4.4
X4.25Y-4.5
X4.25Y-4.6
X4.25Y-4.7
X2.875Y-2.343
X2.9734Y-2.343
X4.55Y-3.8
X4.55Y-3.9
X4.55Y-4.0
X4.55Y-4.1
X4.55Y-4.2
X4.55Y-4.3
X4.55Y-4.4
X4.55Y-4.5
X4.55Y-4.6
X4.55Y-4.7
X4.85Y-3.8
X4.85Y-3.9
X4.85Y-4.0
X4.85Y-4.1
X4.85Y-4.2
X4.85Y-4.3
X4.85Y-4.4
X4.85Y-4.5
X4.85Y-4.6
X4.85Y-4.7
X5.95Y-4.7
X5.95Y-5.0
X6.05Y-4.7
X6.05Y-5.0
X6.15Y-4.7
X6.15Y-5.0
X6.25Y-4.7
X6.25Y-5.0
X6.35Y-4.7
X6.35Y-5.0
X6.45Y-4.7
X6.45Y-5.0
X6.55Y-4.7
X6.55Y-5.0
X6.65Y-4.7
X6.65Y-5.0
X6.75Y-4.7
X6.75Y-5.0
X5.15Y-2.75
X5.15Y-2.85
X5.15Y-2.95
X5.15Y-3.05
X5.15Y-3.15
X5.15Y-3.25
X5.15Y-3.35
X5.15Y-3.45
X5.15Y-3.55
X5.15Y-3.65
X5.45Y-2.75
X5.45Y-2.85
X5.45Y-2.95
X5.45Y-3.05
X5.45Y-3.15
X5.45Y-3.25
X5.45Y-3.35
X5.45Y-3.45
X5.45Y-3.55
X5.45Y-3.65
X5.95Y-2.1
X5.95Y-2.4
X6.05Y-2.1
X6.05Y-2.4
X6.15Y-2.1
X6.15Y-2.4
X6.25Y-2.1
X6.25Y-2.4
X6.35Y-2.1
X6.35Y-2.4
X6.45Y-2.1
X6.45Y-2.4
X6.55Y-2.1
X6.55Y-2.4
X6.65Y-2.1
X6.65Y-2.4
X6.75Y-2.1
X6.75Y-2.4
X6.35Y-3.7
X6.35Y-3.8
X6.35Y-3.9
X6.35Y-4.0
X6.35Y-4.1
X6.35Y-4.2
X6.35Y-4.3
X6.35Y-4.4
X6.35Y-4.5
X6.65Y-3.7
X6.65Y-3.8
X6.65Y-3.9
X6.65Y-4.0
X6.65Y-4.1
X6.65Y-4.2
X6.65Y-4.3
X6.65Y-4.4
X6.65Y-4.5
X3.95Y-2.75
X3.95Y-2.85
X3.95Y-2.95
X3.95Y-3.05
X3.95Y-3.15
X3.95Y-3.25
X3.95Y-3.35
X3.95Y-3.45
X3.95Y-3.55
X3.95Y-3.65
X4.25Y-2.75
X4.25Y-2.85
X4.25Y-2.95
X4.25Y-3.05
X4.25Y-3.15
X4.25Y-3.25
X4.25Y-3.35
X4.25Y-3.45
X4.25Y-3.55
X4.25Y-3.65
X5.75Y-3.7
X5.75Y-3.8
X5.75Y-3.9
X5.75Y-4.0
X5.75Y-4.1
X5.75Y-4.2
X5.75Y-4.3
X5.75Y-4.4
X5.75Y-4.5
X6.05Y-3.7
X6.05Y-3.8
X6.05Y-3.9
X6.05Y-4.0
X6.05Y-4.1
X6.05Y-4.2
X6.05Y-4.3
X6.05Y-4.4
X6.05Y-4.5
X4.55Y-2.75
X4.55Y-2.85
X4.55Y-2.95
X4.55Y-3.05
X4.55Y-3.15
X4.55Y-3.25
X4.55Y-3.35
X4.55Y-3.45
X4.55Y-3.55
X4.55Y-3.65
X4.85Y-2.75
X4.85Y-2.85
X4.85Y-2.95
X4.85Y-3.05
X4.85Y-3.15
X4.85Y-3.25
X4.85Y-3.35
X4.85Y-3.45
X4.85Y-3.55
X4.85Y-3.65
X5.75Y-2.75
X5.75Y-2.85
X5.75Y-2.95
X5.75Y-3.05
X5.75Y-3.15
X5.75Y-3.25
X5.75Y-3.35
X5.75Y-3.45
X5.75Y-3.55
X6.05Y-2.75
X6.05Y-2.85
X6.05Y-2.95
X6.05Y-3.05
X6.05Y-3.15
X6.05Y-3.25
X6.05Y-3.35
X6.05Y-3.45
X6.05Y-3.55
X3.35Y-2.75
X3.35Y-2.85
X3.35Y-2.95
X3.35Y-3.05
X3.35Y-3.15
X3.35Y-3.25
X3.35Y-3.35
X3.65Y-2.75
X3.65Y-2.85
X3.65Y-2.95
X3.65Y-3.05
X3.65Y-3.15
X3.65Y-3.25
X3.65Y-3.35
X6.35Y-2.75
X6.35Y-2.85
X6.35Y-2.95
X6.35Y-3.05
X6.35Y-3.15
X6.35Y-3.25
X6.35Y-3.35
X6.35Y-3.45
X6.35Y-3.55
X6.65Y-2.75
X6.65Y-2.85
X6.65Y-2.95
X6.65Y-3.05
X6.65Y-3.15
X6.65Y-3.25
X6.65Y-3.35
X6.65Y-3.45
X6.65Y-3.55
T4
X2.45Y-3.05
X2.45Y-3.15
X2.45Y-3.25
X2.45Y-3.35
X2.45Y-3.45
X2.45Y-3.55
X2.45Y-3.65
X2.45Y-3.75
X2.45Y-3.85
X2.45Y-3.95
X2.45Y-4.05
X2.45Y-4.15
X2.45Y-4.25
X2.45Y-4.35
X2.45Y-4.45
X3.55Y-2.55
X3.65Y-2.55
X3.75Y-2.55
X3.85Y-2.55
X3.95Y-2.55
X4.05Y-2.55
X4.15Y-2.55
X4.25Y-2.55
X4.35Y-2.55
X4.45Y-2.55
X4.55Y-2.55
X4.65Y-2.55
X4.75Y-2.55
X4.85Y-2.55
X4.95Y-2.55
X5.05Y-2.55
X5.15Y-2.55
X5.25Y-2.55
X5.35Y-2.55
X5.45Y-2.55
X5.55Y-2.55
X5.65Y-2.55
X5.75Y-2.55
X5.85Y-2.55
X3.55Y-1.95
X3.65Y-1.95
X3.75Y-1.95
X3.85Y-1.95
X3.95Y-1.95
X4.05Y-1.95
X4.15Y-1.95
X4.25Y-1.95
X4.35Y-1.95
X4.45Y-1.95
X4.55Y-1.95
X4.65Y-1.95
X4.75Y-1.95
X4.85Y-1.95
X4.95Y-1.95
X5.05Y-1.95
X5.15Y-1.95
X5.25Y-1.95
X5.35Y-1.95
X5.45Y-1.95
X5.55Y-1.95
X5.65Y-1.95
X5.75Y-1.95
X5.85Y-1.95
X3.05Y-3.05
X3.05Y-3.15
X3.05Y-3.25
X3.05Y-3.35
X3.05Y-3.45
X3.05Y-3.55
X3.05Y-3.65
X3.05Y-3.75
X3.05Y-3.85
X3.05Y-3.95
X3.05Y-4.05
X3.05Y-4.15
X3.05Y-4.25
X3.05Y-4.35
X3.05Y-4.45
X2.1Y-2.65
X2.1Y-2.75
X2.1Y-2.85
X2.1Y-2.95
X2.1Y-3.05
X2.1Y-3.15
X2.1Y-3.25
X2.1Y-3.35
X2.1Y-3.45
X2.1Y-3.55
X2.1Y-3.65
X2.1Y-3.75
X2.1Y-3.85
X2.1Y-3.95
X2.1Y-4.05
X2.1Y-4.15
X2.1Y-4.25
X2.1Y-4.35
X2.1Y-4.45
X2.1Y-4.55
X2.1Y-4.65
X2.1Y-4.75
X2.1Y-4.85
X2.1Y-4.95
X6.9Y-2.35
X6.9Y-2.45
X6.9Y-2.55
X6.9Y-2.65
X6.9Y-2.75
X6.9Y-2.85
X6.9Y-2.95
X6.9Y-3.05
X6.9Y-3.15
X6.9Y-3.25
X6.9Y-3.35
X6.9Y-3.45
X6.9Y-3.55
X6.9Y-3.65
X6.9Y-3.75
X6.9Y-3.85
X6.9Y-3.95
X6.9Y-4.05
X6.9Y-4.15
X6.9Y-4.25
X6.9Y-4.35
X6.9Y-4.45
X6.9Y-4.55
X6.9Y-4.65
X3.05Y-2.6
X3.05Y-2.7
X3.05Y-2.8
T5
X2.957Y-2.091
X3.057Y-2.091
X3.157Y-2.091
T6
X2.1928Y-2.172
X2.3109Y-1.987
X2.429Y-2.172
T0
M30
