G04 #@! TF.GenerationSoftware,KiCad,Pcbnew,(5.1.4)-1*
G04 #@! TF.CreationDate,2019-10-25T20:14:16-04:00*
G04 #@! TF.ProjectId,A-10C-CautionPanelNonMega,412d3130-432d-4436-9175-74696f6e5061,rev?*
G04 #@! TF.SameCoordinates,Original*
G04 #@! TF.FileFunction,Legend,Bot*
G04 #@! TF.FilePolarity,Positive*
%FSLAX46Y46*%
G04 Gerber Fmt 4.6, Leading zero omitted, Abs format (unit mm)*
G04 Created by KiCad (PCBNEW (5.1.4)-1) date 2019-10-25 20:14:16*
%MOMM*%
%LPD*%
G04 APERTURE LIST*
%ADD10C,0.120000*%
%ADD11C,0.150000*%
G04 APERTURE END LIST*
D10*
X66040000Y-114300000D02*
X64770000Y-113030000D01*
X66040000Y-114300000D02*
X66040000Y-111760000D01*
X64770000Y-113030000D02*
X66040000Y-111760000D01*
D11*
X74858571Y-71484761D02*
X74858571Y-70722857D01*
X74858571Y-66437142D02*
X74858571Y-65675238D01*
X74477619Y-66056190D02*
X75239523Y-66056190D01*
X87416666Y-95472857D02*
X87416666Y-95949047D01*
X87702380Y-95377619D02*
X86702380Y-95710952D01*
X87702380Y-96044285D01*
X87702380Y-96377619D02*
X87035714Y-96377619D01*
X87226190Y-96377619D02*
X87130952Y-96425238D01*
X87083333Y-96472857D01*
X87035714Y-96568095D01*
X87035714Y-96663333D01*
X87702380Y-97425238D02*
X86702380Y-97425238D01*
X87654761Y-97425238D02*
X87702380Y-97330000D01*
X87702380Y-97139523D01*
X87654761Y-97044285D01*
X87607142Y-96996666D01*
X87511904Y-96949047D01*
X87226190Y-96949047D01*
X87130952Y-96996666D01*
X87083333Y-97044285D01*
X87035714Y-97139523D01*
X87035714Y-97330000D01*
X87083333Y-97425238D01*
X87035714Y-98330000D02*
X87702380Y-98330000D01*
X87035714Y-97901428D02*
X87559523Y-97901428D01*
X87654761Y-97949047D01*
X87702380Y-98044285D01*
X87702380Y-98187142D01*
X87654761Y-98282380D01*
X87607142Y-98330000D01*
X87702380Y-98806190D02*
X87035714Y-98806190D01*
X86702380Y-98806190D02*
X86750000Y-98758571D01*
X86797619Y-98806190D01*
X86750000Y-98853809D01*
X86702380Y-98806190D01*
X86797619Y-98806190D01*
X87035714Y-99282380D02*
X87702380Y-99282380D01*
X87130952Y-99282380D02*
X87083333Y-99330000D01*
X87035714Y-99425238D01*
X87035714Y-99568095D01*
X87083333Y-99663333D01*
X87178571Y-99710952D01*
X87702380Y-99710952D01*
X87702380Y-100330000D02*
X87654761Y-100234761D01*
X87607142Y-100187142D01*
X87511904Y-100139523D01*
X87226190Y-100139523D01*
X87130952Y-100187142D01*
X87083333Y-100234761D01*
X87035714Y-100330000D01*
X87035714Y-100472857D01*
X87083333Y-100568095D01*
X87130952Y-100615714D01*
X87226190Y-100663333D01*
X87511904Y-100663333D01*
X87607142Y-100615714D01*
X87654761Y-100568095D01*
X87702380Y-100472857D01*
X87702380Y-100330000D01*
X87702380Y-101853809D02*
X86702380Y-101853809D01*
X87702380Y-102425238D01*
X86702380Y-102425238D01*
X87702380Y-103330000D02*
X87178571Y-103330000D01*
X87083333Y-103282380D01*
X87035714Y-103187142D01*
X87035714Y-102996666D01*
X87083333Y-102901428D01*
X87654761Y-103330000D02*
X87702380Y-103234761D01*
X87702380Y-102996666D01*
X87654761Y-102901428D01*
X87559523Y-102853809D01*
X87464285Y-102853809D01*
X87369047Y-102901428D01*
X87321428Y-102996666D01*
X87321428Y-103234761D01*
X87273809Y-103330000D01*
X87035714Y-103806190D02*
X87702380Y-103806190D01*
X87130952Y-103806190D02*
X87083333Y-103853809D01*
X87035714Y-103949047D01*
X87035714Y-104091904D01*
X87083333Y-104187142D01*
X87178571Y-104234761D01*
X87702380Y-104234761D01*
X87702380Y-104853809D02*
X87654761Y-104758571D01*
X87607142Y-104710952D01*
X87511904Y-104663333D01*
X87226190Y-104663333D01*
X87130952Y-104710952D01*
X87083333Y-104758571D01*
X87035714Y-104853809D01*
X87035714Y-104996666D01*
X87083333Y-105091904D01*
X87130952Y-105139523D01*
X87226190Y-105187142D01*
X87511904Y-105187142D01*
X87607142Y-105139523D01*
X87654761Y-105091904D01*
X87702380Y-104996666D01*
X87702380Y-104853809D01*
X89352380Y-89853809D02*
X88352380Y-89853809D01*
X88352380Y-90091904D01*
X88400000Y-90234761D01*
X88495238Y-90330000D01*
X88590476Y-90377619D01*
X88780952Y-90425238D01*
X88923809Y-90425238D01*
X89114285Y-90377619D01*
X89209523Y-90330000D01*
X89304761Y-90234761D01*
X89352380Y-90091904D01*
X89352380Y-89853809D01*
X89257142Y-91425238D02*
X89304761Y-91377619D01*
X89352380Y-91234761D01*
X89352380Y-91139523D01*
X89304761Y-90996666D01*
X89209523Y-90901428D01*
X89114285Y-90853809D01*
X88923809Y-90806190D01*
X88780952Y-90806190D01*
X88590476Y-90853809D01*
X88495238Y-90901428D01*
X88400000Y-90996666D01*
X88352380Y-91139523D01*
X88352380Y-91234761D01*
X88400000Y-91377619D01*
X88447619Y-91425238D01*
X89304761Y-91806190D02*
X89352380Y-91949047D01*
X89352380Y-92187142D01*
X89304761Y-92282380D01*
X89257142Y-92330000D01*
X89161904Y-92377619D01*
X89066666Y-92377619D01*
X88971428Y-92330000D01*
X88923809Y-92282380D01*
X88876190Y-92187142D01*
X88828571Y-91996666D01*
X88780952Y-91901428D01*
X88733333Y-91853809D01*
X88638095Y-91806190D01*
X88542857Y-91806190D01*
X88447619Y-91853809D01*
X88400000Y-91901428D01*
X88352380Y-91996666D01*
X88352380Y-92234761D01*
X88400000Y-92377619D01*
X88971428Y-93568095D02*
X88971428Y-94330000D01*
X89257142Y-96139523D02*
X89304761Y-96091904D01*
X89352380Y-95949047D01*
X89352380Y-95853809D01*
X89304761Y-95710952D01*
X89209523Y-95615714D01*
X89114285Y-95568095D01*
X88923809Y-95520476D01*
X88780952Y-95520476D01*
X88590476Y-95568095D01*
X88495238Y-95615714D01*
X88400000Y-95710952D01*
X88352380Y-95853809D01*
X88352380Y-95949047D01*
X88400000Y-96091904D01*
X88447619Y-96139523D01*
X89352380Y-96996666D02*
X88828571Y-96996666D01*
X88733333Y-96949047D01*
X88685714Y-96853809D01*
X88685714Y-96663333D01*
X88733333Y-96568095D01*
X89304761Y-96996666D02*
X89352380Y-96901428D01*
X89352380Y-96663333D01*
X89304761Y-96568095D01*
X89209523Y-96520476D01*
X89114285Y-96520476D01*
X89019047Y-96568095D01*
X88971428Y-96663333D01*
X88971428Y-96901428D01*
X88923809Y-96996666D01*
X88685714Y-97901428D02*
X89352380Y-97901428D01*
X88685714Y-97472857D02*
X89209523Y-97472857D01*
X89304761Y-97520476D01*
X89352380Y-97615714D01*
X89352380Y-97758571D01*
X89304761Y-97853809D01*
X89257142Y-97901428D01*
X88685714Y-98234761D02*
X88685714Y-98615714D01*
X88352380Y-98377619D02*
X89209523Y-98377619D01*
X89304761Y-98425238D01*
X89352380Y-98520476D01*
X89352380Y-98615714D01*
X89352380Y-98949047D02*
X88685714Y-98949047D01*
X88352380Y-98949047D02*
X88400000Y-98901428D01*
X88447619Y-98949047D01*
X88400000Y-98996666D01*
X88352380Y-98949047D01*
X88447619Y-98949047D01*
X89352380Y-99568095D02*
X89304761Y-99472857D01*
X89257142Y-99425238D01*
X89161904Y-99377619D01*
X88876190Y-99377619D01*
X88780952Y-99425238D01*
X88733333Y-99472857D01*
X88685714Y-99568095D01*
X88685714Y-99710952D01*
X88733333Y-99806190D01*
X88780952Y-99853809D01*
X88876190Y-99901428D01*
X89161904Y-99901428D01*
X89257142Y-99853809D01*
X89304761Y-99806190D01*
X89352380Y-99710952D01*
X89352380Y-99568095D01*
X88685714Y-100330000D02*
X89352380Y-100330000D01*
X88780952Y-100330000D02*
X88733333Y-100377619D01*
X88685714Y-100472857D01*
X88685714Y-100615714D01*
X88733333Y-100710952D01*
X88828571Y-100758571D01*
X89352380Y-100758571D01*
X89352380Y-101996666D02*
X88352380Y-101996666D01*
X88352380Y-102377619D01*
X88400000Y-102472857D01*
X88447619Y-102520476D01*
X88542857Y-102568095D01*
X88685714Y-102568095D01*
X88780952Y-102520476D01*
X88828571Y-102472857D01*
X88876190Y-102377619D01*
X88876190Y-101996666D01*
X89352380Y-103425238D02*
X88828571Y-103425238D01*
X88733333Y-103377619D01*
X88685714Y-103282380D01*
X88685714Y-103091904D01*
X88733333Y-102996666D01*
X89304761Y-103425238D02*
X89352380Y-103330000D01*
X89352380Y-103091904D01*
X89304761Y-102996666D01*
X89209523Y-102949047D01*
X89114285Y-102949047D01*
X89019047Y-102996666D01*
X88971428Y-103091904D01*
X88971428Y-103330000D01*
X88923809Y-103425238D01*
X88685714Y-103901428D02*
X89352380Y-103901428D01*
X88780952Y-103901428D02*
X88733333Y-103949047D01*
X88685714Y-104044285D01*
X88685714Y-104187142D01*
X88733333Y-104282380D01*
X88828571Y-104330000D01*
X89352380Y-104330000D01*
X89304761Y-105187142D02*
X89352380Y-105091904D01*
X89352380Y-104901428D01*
X89304761Y-104806190D01*
X89209523Y-104758571D01*
X88828571Y-104758571D01*
X88733333Y-104806190D01*
X88685714Y-104901428D01*
X88685714Y-105091904D01*
X88733333Y-105187142D01*
X88828571Y-105234761D01*
X88923809Y-105234761D01*
X89019047Y-104758571D01*
X89352380Y-105806190D02*
X89304761Y-105710952D01*
X89209523Y-105663333D01*
X88352380Y-105663333D01*
X89352380Y-106949047D02*
X88352380Y-106949047D01*
X88352380Y-107187142D01*
X88400000Y-107330000D01*
X88495238Y-107425238D01*
X88590476Y-107472857D01*
X88780952Y-107520476D01*
X88923809Y-107520476D01*
X89114285Y-107472857D01*
X89209523Y-107425238D01*
X89304761Y-107330000D01*
X89352380Y-107187142D01*
X89352380Y-106949047D01*
X89352380Y-107949047D02*
X88685714Y-107949047D01*
X88876190Y-107949047D02*
X88780952Y-107996666D01*
X88733333Y-108044285D01*
X88685714Y-108139523D01*
X88685714Y-108234761D01*
X89352380Y-108568095D02*
X88685714Y-108568095D01*
X88352380Y-108568095D02*
X88400000Y-108520476D01*
X88447619Y-108568095D01*
X88400000Y-108615714D01*
X88352380Y-108568095D01*
X88447619Y-108568095D01*
X88685714Y-108949047D02*
X89352380Y-109187142D01*
X88685714Y-109425238D01*
X89304761Y-110187142D02*
X89352380Y-110091904D01*
X89352380Y-109901428D01*
X89304761Y-109806190D01*
X89209523Y-109758571D01*
X88828571Y-109758571D01*
X88733333Y-109806190D01*
X88685714Y-109901428D01*
X88685714Y-110091904D01*
X88733333Y-110187142D01*
X88828571Y-110234761D01*
X88923809Y-110234761D01*
X89019047Y-109758571D01*
X89352380Y-110663333D02*
X88685714Y-110663333D01*
X88876190Y-110663333D02*
X88780952Y-110710952D01*
X88733333Y-110758571D01*
X88685714Y-110853809D01*
X88685714Y-110949047D01*
X91002380Y-93639523D02*
X90002380Y-93639523D01*
X90383333Y-93639523D02*
X90335714Y-93734761D01*
X90335714Y-93925238D01*
X90383333Y-94020476D01*
X90430952Y-94068095D01*
X90526190Y-94115714D01*
X90811904Y-94115714D01*
X90907142Y-94068095D01*
X90954761Y-94020476D01*
X91002380Y-93925238D01*
X91002380Y-93734761D01*
X90954761Y-93639523D01*
X90335714Y-94449047D02*
X91002380Y-94687142D01*
X90335714Y-94925238D02*
X91002380Y-94687142D01*
X91240476Y-94591904D01*
X91288095Y-94544285D01*
X91335714Y-94449047D01*
X91002380Y-96068095D02*
X90002380Y-96068095D01*
X90335714Y-96449047D02*
X90335714Y-96972857D01*
X91002380Y-96449047D01*
X91002380Y-96972857D01*
X90954761Y-97734761D02*
X91002380Y-97639523D01*
X91002380Y-97449047D01*
X90954761Y-97353809D01*
X90859523Y-97306190D01*
X90478571Y-97306190D01*
X90383333Y-97353809D01*
X90335714Y-97449047D01*
X90335714Y-97639523D01*
X90383333Y-97734761D01*
X90478571Y-97782380D01*
X90573809Y-97782380D01*
X90669047Y-97306190D01*
X91002380Y-98210952D02*
X90002380Y-98210952D01*
X90478571Y-98210952D02*
X90478571Y-98782380D01*
X91002380Y-98782380D02*
X90002380Y-98782380D01*
X91002380Y-99401428D02*
X90954761Y-99306190D01*
X90907142Y-99258571D01*
X90811904Y-99210952D01*
X90526190Y-99210952D01*
X90430952Y-99258571D01*
X90383333Y-99306190D01*
X90335714Y-99401428D01*
X90335714Y-99544285D01*
X90383333Y-99639523D01*
X90430952Y-99687142D01*
X90526190Y-99734761D01*
X90811904Y-99734761D01*
X90907142Y-99687142D01*
X90954761Y-99639523D01*
X91002380Y-99544285D01*
X91002380Y-99401428D01*
X90335714Y-100591904D02*
X91002380Y-100591904D01*
X90335714Y-100163333D02*
X90859523Y-100163333D01*
X90954761Y-100210952D01*
X91002380Y-100306190D01*
X91002380Y-100449047D01*
X90954761Y-100544285D01*
X90907142Y-100591904D01*
X90335714Y-100972857D02*
X90335714Y-101496666D01*
X91002380Y-100972857D01*
X91002380Y-101496666D01*
X90954761Y-102258571D02*
X91002380Y-102163333D01*
X91002380Y-101972857D01*
X90954761Y-101877619D01*
X90859523Y-101830000D01*
X90478571Y-101830000D01*
X90383333Y-101877619D01*
X90335714Y-101972857D01*
X90335714Y-102163333D01*
X90383333Y-102258571D01*
X90478571Y-102306190D01*
X90573809Y-102306190D01*
X90669047Y-101830000D01*
X90002380Y-103353809D02*
X91002380Y-103687142D01*
X90002380Y-104020476D01*
X91002380Y-105639523D02*
X91002380Y-105068095D01*
X91002380Y-105353809D02*
X90002380Y-105353809D01*
X90145238Y-105258571D01*
X90240476Y-105163333D01*
X90288095Y-105068095D01*
X90907142Y-106068095D02*
X90954761Y-106115714D01*
X91002380Y-106068095D01*
X90954761Y-106020476D01*
X90907142Y-106068095D01*
X91002380Y-106068095D01*
X90002380Y-106734761D02*
X90002380Y-106830000D01*
X90050000Y-106925238D01*
X90097619Y-106972857D01*
X90192857Y-107020476D01*
X90383333Y-107068095D01*
X90621428Y-107068095D01*
X90811904Y-107020476D01*
X90907142Y-106972857D01*
X90954761Y-106925238D01*
X91002380Y-106830000D01*
X91002380Y-106734761D01*
X90954761Y-106639523D01*
X90907142Y-106591904D01*
X90811904Y-106544285D01*
X90621428Y-106496666D01*
X90383333Y-106496666D01*
X90192857Y-106544285D01*
X90097619Y-106591904D01*
X90050000Y-106639523D01*
X90002380Y-106734761D01*
X73857619Y-68365714D02*
X74619523Y-68651428D01*
X73857619Y-68937142D01*
X72619523Y-68651428D02*
X71857619Y-68651428D01*
X70286190Y-68508571D02*
X70143333Y-68556190D01*
X70095714Y-68603809D01*
X70048095Y-68699047D01*
X70048095Y-68841904D01*
X70095714Y-68937142D01*
X70143333Y-68984761D01*
X70238571Y-69032380D01*
X70619523Y-69032380D01*
X70619523Y-68032380D01*
X70286190Y-68032380D01*
X70190952Y-68080000D01*
X70143333Y-68127619D01*
X70095714Y-68222857D01*
X70095714Y-68318095D01*
X70143333Y-68413333D01*
X70190952Y-68460952D01*
X70286190Y-68508571D01*
X70619523Y-68508571D01*
X69619523Y-69032380D02*
X69619523Y-68365714D01*
X69619523Y-68556190D02*
X69571904Y-68460952D01*
X69524285Y-68413333D01*
X69429047Y-68365714D01*
X69333809Y-68365714D01*
X69000476Y-69032380D02*
X69000476Y-68365714D01*
X69000476Y-68032380D02*
X69048095Y-68080000D01*
X69000476Y-68127619D01*
X68952857Y-68080000D01*
X69000476Y-68032380D01*
X69000476Y-68127619D01*
X68095714Y-68365714D02*
X68095714Y-69175238D01*
X68143333Y-69270476D01*
X68190952Y-69318095D01*
X68286190Y-69365714D01*
X68429047Y-69365714D01*
X68524285Y-69318095D01*
X68095714Y-68984761D02*
X68190952Y-69032380D01*
X68381428Y-69032380D01*
X68476666Y-68984761D01*
X68524285Y-68937142D01*
X68571904Y-68841904D01*
X68571904Y-68556190D01*
X68524285Y-68460952D01*
X68476666Y-68413333D01*
X68381428Y-68365714D01*
X68190952Y-68365714D01*
X68095714Y-68413333D01*
X67619523Y-69032380D02*
X67619523Y-68032380D01*
X67190952Y-69032380D02*
X67190952Y-68508571D01*
X67238571Y-68413333D01*
X67333809Y-68365714D01*
X67476666Y-68365714D01*
X67571904Y-68413333D01*
X67619523Y-68460952D01*
X66857619Y-68365714D02*
X66476666Y-68365714D01*
X66714761Y-68032380D02*
X66714761Y-68889523D01*
X66667142Y-68984761D01*
X66571904Y-69032380D01*
X66476666Y-69032380D01*
X66143333Y-68365714D02*
X66143333Y-69032380D01*
X66143333Y-68460952D02*
X66095714Y-68413333D01*
X66000476Y-68365714D01*
X65857619Y-68365714D01*
X65762380Y-68413333D01*
X65714761Y-68508571D01*
X65714761Y-69032380D01*
X64857619Y-68984761D02*
X64952857Y-69032380D01*
X65143333Y-69032380D01*
X65238571Y-68984761D01*
X65286190Y-68889523D01*
X65286190Y-68508571D01*
X65238571Y-68413333D01*
X65143333Y-68365714D01*
X64952857Y-68365714D01*
X64857619Y-68413333D01*
X64810000Y-68508571D01*
X64810000Y-68603809D01*
X65286190Y-68699047D01*
X64429047Y-68984761D02*
X64333809Y-69032380D01*
X64143333Y-69032380D01*
X64048095Y-68984761D01*
X64000476Y-68889523D01*
X64000476Y-68841904D01*
X64048095Y-68746666D01*
X64143333Y-68699047D01*
X64286190Y-68699047D01*
X64381428Y-68651428D01*
X64429047Y-68556190D01*
X64429047Y-68508571D01*
X64381428Y-68413333D01*
X64286190Y-68365714D01*
X64143333Y-68365714D01*
X64048095Y-68413333D01*
X63619523Y-68984761D02*
X63524285Y-69032380D01*
X63333809Y-69032380D01*
X63238571Y-68984761D01*
X63190952Y-68889523D01*
X63190952Y-68841904D01*
X63238571Y-68746666D01*
X63333809Y-68699047D01*
X63476666Y-68699047D01*
X63571904Y-68651428D01*
X63619523Y-68556190D01*
X63619523Y-68508571D01*
X63571904Y-68413333D01*
X63476666Y-68365714D01*
X63333809Y-68365714D01*
X63238571Y-68413333D01*
X62000476Y-69032380D02*
X62000476Y-68032380D01*
X61619523Y-68032380D01*
X61524285Y-68080000D01*
X61476666Y-68127619D01*
X61429047Y-68222857D01*
X61429047Y-68365714D01*
X61476666Y-68460952D01*
X61524285Y-68508571D01*
X61619523Y-68556190D01*
X62000476Y-68556190D01*
X60857619Y-69032380D02*
X60952857Y-68984761D01*
X61000476Y-68937142D01*
X61048095Y-68841904D01*
X61048095Y-68556190D01*
X61000476Y-68460952D01*
X60952857Y-68413333D01*
X60857619Y-68365714D01*
X60714761Y-68365714D01*
X60619523Y-68413333D01*
X60571904Y-68460952D01*
X60524285Y-68556190D01*
X60524285Y-68841904D01*
X60571904Y-68937142D01*
X60619523Y-68984761D01*
X60714761Y-69032380D01*
X60857619Y-69032380D01*
X60238571Y-68365714D02*
X59857619Y-68365714D01*
X60095714Y-68032380D02*
X60095714Y-68889523D01*
X60048095Y-68984761D01*
X59952857Y-69032380D01*
X59857619Y-69032380D01*
D10*
X82107200Y-58392200D02*
X78867200Y-58392200D01*
X82107200Y-60632200D02*
X78867200Y-60632200D01*
X82107200Y-58392200D02*
X82107200Y-58457200D01*
X82107200Y-60567200D02*
X82107200Y-60632200D01*
X78867200Y-58392200D02*
X78867200Y-58457200D01*
X78867200Y-60567200D02*
X78867200Y-60632200D01*
X75895000Y-58457200D02*
X75895000Y-58392200D01*
X75895000Y-60632200D02*
X75895000Y-60567200D01*
X72655000Y-58457200D02*
X72655000Y-58392200D01*
X72655000Y-60632200D02*
X72655000Y-60567200D01*
X72655000Y-58392200D02*
X75895000Y-58392200D01*
X72655000Y-60632200D02*
X75895000Y-60632200D01*
X56896600Y-50568800D02*
X47896600Y-50568800D01*
X47896600Y-50568800D02*
X47896600Y-59768800D01*
X47896600Y-59768800D02*
X62496600Y-59768800D01*
X62496600Y-59768800D02*
X62496600Y-56968800D01*
X62496600Y-53368800D02*
X62496600Y-50568800D01*
X62496600Y-50568800D02*
X60496600Y-50568800D01*
X60996600Y-60008800D02*
X62736600Y-60008800D01*
X62736600Y-60008800D02*
X62736600Y-58268800D01*
X82767800Y-49841400D02*
X72527800Y-49841400D01*
X82767800Y-54482400D02*
X72527800Y-54482400D01*
X82767800Y-49841400D02*
X82767800Y-54482400D01*
X72527800Y-49841400D02*
X72527800Y-54482400D01*
X82767800Y-51351400D02*
X72527800Y-51351400D01*
X79497800Y-49841400D02*
X79497800Y-51351400D01*
X75796800Y-49841400D02*
X75796800Y-51351400D01*
X98320000Y-59000000D02*
X94720000Y-59000000D01*
X98358478Y-58988478D02*
G75*
G03X96520000Y-54550000I-1838478J1838478D01*
G01*
X94681522Y-58988478D02*
G75*
G02X96520000Y-54550000I1838478J1838478D01*
G01*
X109921522Y-58988478D02*
G75*
G02X111760000Y-54550000I1838478J1838478D01*
G01*
X113598478Y-58988478D02*
G75*
G03X111760000Y-54550000I-1838478J1838478D01*
G01*
X113560000Y-59000000D02*
X109960000Y-59000000D01*
X144040000Y-59000000D02*
X140440000Y-59000000D01*
X144078478Y-58988478D02*
G75*
G03X142240000Y-54550000I-1838478J1838478D01*
G01*
X140401522Y-58988478D02*
G75*
G02X142240000Y-54550000I1838478J1838478D01*
G01*
X78800000Y-72450000D02*
X76140000Y-72450000D01*
X78800000Y-67310000D02*
X78800000Y-72450000D01*
X76140000Y-67310000D02*
X76140000Y-72450000D01*
X78800000Y-67310000D02*
X76140000Y-67310000D01*
X78800000Y-66040000D02*
X78800000Y-64710000D01*
X78800000Y-64710000D02*
X77470000Y-64710000D01*
X128800000Y-59000000D02*
X125200000Y-59000000D01*
X128838478Y-58988478D02*
G75*
G03X127000000Y-54550000I-1838478J1838478D01*
G01*
X125161522Y-58988478D02*
G75*
G02X127000000Y-54550000I1838478J1838478D01*
G01*
X149800000Y-58150000D02*
G75*
G03X149800000Y-56150000I0J1000000D01*
G01*
X149800000Y-56150000D02*
X149800000Y-54500000D01*
X149800000Y-54500000D02*
X172780000Y-54500000D01*
X172780000Y-54500000D02*
X172780000Y-59800000D01*
X172780000Y-59800000D02*
X149800000Y-59800000D01*
X149800000Y-59800000D02*
X149800000Y-58150000D01*
X162450000Y-68520000D02*
X164100000Y-68520000D01*
X162450000Y-91500000D02*
X162450000Y-68520000D01*
X167750000Y-91500000D02*
X162450000Y-91500000D01*
X167750000Y-68520000D02*
X167750000Y-91500000D01*
X166100000Y-68520000D02*
X167750000Y-68520000D01*
X164100000Y-68520000D02*
G75*
G03X166100000Y-68520000I1000000J0D01*
G01*
X162450000Y-92650000D02*
X164100000Y-92650000D01*
X162450000Y-115630000D02*
X162450000Y-92650000D01*
X167750000Y-115630000D02*
X162450000Y-115630000D01*
X167750000Y-92650000D02*
X167750000Y-115630000D01*
X166100000Y-92650000D02*
X167750000Y-92650000D01*
X164100000Y-92650000D02*
G75*
G03X166100000Y-92650000I1000000J0D01*
G01*
X148860000Y-92650000D02*
G75*
G03X150860000Y-92650000I1000000J0D01*
G01*
X150860000Y-92650000D02*
X152510000Y-92650000D01*
X152510000Y-92650000D02*
X152510000Y-115630000D01*
X152510000Y-115630000D02*
X147210000Y-115630000D01*
X147210000Y-115630000D02*
X147210000Y-92650000D01*
X147210000Y-92650000D02*
X148860000Y-92650000D01*
X172780000Y-120540000D02*
X172780000Y-122190000D01*
X149800000Y-120540000D02*
X172780000Y-120540000D01*
X149800000Y-125840000D02*
X149800000Y-120540000D01*
X172780000Y-125840000D02*
X149800000Y-125840000D01*
X172780000Y-124190000D02*
X172780000Y-125840000D01*
X172780000Y-122190000D02*
G75*
G03X172780000Y-124190000I0J-1000000D01*
G01*
X148860000Y-68520000D02*
G75*
G03X150860000Y-68520000I1000000J0D01*
G01*
X150860000Y-68520000D02*
X152510000Y-68520000D01*
X152510000Y-68520000D02*
X152510000Y-91500000D01*
X152510000Y-91500000D02*
X147210000Y-91500000D01*
X147210000Y-91500000D02*
X147210000Y-68520000D01*
X147210000Y-68520000D02*
X148860000Y-68520000D01*
X60900000Y-111760000D02*
X63560000Y-111760000D01*
X60900000Y-111760000D02*
X60900000Y-76140000D01*
X60900000Y-76140000D02*
X63560000Y-76140000D01*
X63560000Y-111760000D02*
X63560000Y-76140000D01*
X63560000Y-114360000D02*
X63560000Y-113030000D01*
X62230000Y-114360000D02*
X63560000Y-114360000D01*
X77470000Y-114360000D02*
X78800000Y-114360000D01*
X78800000Y-114360000D02*
X78800000Y-113030000D01*
X78800000Y-111760000D02*
X78800000Y-76140000D01*
X76140000Y-76140000D02*
X78800000Y-76140000D01*
X76140000Y-111760000D02*
X76140000Y-76140000D01*
X76140000Y-111760000D02*
X78800000Y-111760000D01*
X87900000Y-68520000D02*
G75*
G03X89900000Y-68520000I1000000J0D01*
G01*
X89900000Y-68520000D02*
X91550000Y-68520000D01*
X91550000Y-68520000D02*
X91550000Y-86420000D01*
X91550000Y-86420000D02*
X86250000Y-86420000D01*
X86250000Y-86420000D02*
X86250000Y-68520000D01*
X86250000Y-68520000D02*
X87900000Y-68520000D01*
X105140000Y-94040000D02*
G75*
G03X103140000Y-94040000I-1000000J0D01*
G01*
X103140000Y-94040000D02*
X101490000Y-94040000D01*
X101490000Y-94040000D02*
X101490000Y-68520000D01*
X101490000Y-68520000D02*
X106790000Y-68520000D01*
X106790000Y-68520000D02*
X106790000Y-94040000D01*
X106790000Y-94040000D02*
X105140000Y-94040000D01*
X106790000Y-120710000D02*
X105140000Y-120710000D01*
X106790000Y-95190000D02*
X106790000Y-120710000D01*
X101490000Y-95190000D02*
X106790000Y-95190000D01*
X101490000Y-120710000D02*
X101490000Y-95190000D01*
X103140000Y-120710000D02*
X101490000Y-120710000D01*
X105140000Y-120710000D02*
G75*
G03X103140000Y-120710000I-1000000J0D01*
G01*
X120380000Y-94040000D02*
G75*
G03X118380000Y-94040000I-1000000J0D01*
G01*
X118380000Y-94040000D02*
X116730000Y-94040000D01*
X116730000Y-94040000D02*
X116730000Y-68520000D01*
X116730000Y-68520000D02*
X122030000Y-68520000D01*
X122030000Y-68520000D02*
X122030000Y-94040000D01*
X122030000Y-94040000D02*
X120380000Y-94040000D01*
X137270000Y-120710000D02*
X135620000Y-120710000D01*
X137270000Y-95190000D02*
X137270000Y-120710000D01*
X131970000Y-95190000D02*
X137270000Y-95190000D01*
X131970000Y-120710000D02*
X131970000Y-95190000D01*
X133620000Y-120710000D02*
X131970000Y-120710000D01*
X135620000Y-120710000D02*
G75*
G03X133620000Y-120710000I-1000000J0D01*
G01*
X120380000Y-120710000D02*
G75*
G03X118380000Y-120710000I-1000000J0D01*
G01*
X118380000Y-120710000D02*
X116730000Y-120710000D01*
X116730000Y-120710000D02*
X116730000Y-95190000D01*
X116730000Y-95190000D02*
X122030000Y-95190000D01*
X122030000Y-95190000D02*
X122030000Y-120710000D01*
X122030000Y-120710000D02*
X120380000Y-120710000D01*
X137270000Y-94040000D02*
X135620000Y-94040000D01*
X137270000Y-68520000D02*
X137270000Y-94040000D01*
X131970000Y-68520000D02*
X137270000Y-68520000D01*
X131970000Y-94040000D02*
X131970000Y-68520000D01*
X133620000Y-94040000D02*
X131970000Y-94040000D01*
X135620000Y-94040000D02*
G75*
G03X133620000Y-94040000I-1000000J0D01*
G01*
D11*
X80653866Y-57619342D02*
X80701485Y-57666961D01*
X80844342Y-57714580D01*
X80939580Y-57714580D01*
X81082438Y-57666961D01*
X81177676Y-57571723D01*
X81225295Y-57476485D01*
X81272914Y-57286009D01*
X81272914Y-57143152D01*
X81225295Y-56952676D01*
X81177676Y-56857438D01*
X81082438Y-56762200D01*
X80939580Y-56714580D01*
X80844342Y-56714580D01*
X80701485Y-56762200D01*
X80653866Y-56809819D01*
X79701485Y-57714580D02*
X80272914Y-57714580D01*
X79987200Y-57714580D02*
X79987200Y-56714580D01*
X80082438Y-56857438D01*
X80177676Y-56952676D01*
X80272914Y-57000295D01*
X74441666Y-62119342D02*
X74489285Y-62166961D01*
X74632142Y-62214580D01*
X74727380Y-62214580D01*
X74870238Y-62166961D01*
X74965476Y-62071723D01*
X75013095Y-61976485D01*
X75060714Y-61786009D01*
X75060714Y-61643152D01*
X75013095Y-61452676D01*
X74965476Y-61357438D01*
X74870238Y-61262200D01*
X74727380Y-61214580D01*
X74632142Y-61214580D01*
X74489285Y-61262200D01*
X74441666Y-61309819D01*
X74060714Y-61309819D02*
X74013095Y-61262200D01*
X73917857Y-61214580D01*
X73679761Y-61214580D01*
X73584523Y-61262200D01*
X73536904Y-61309819D01*
X73489285Y-61405057D01*
X73489285Y-61500295D01*
X73536904Y-61643152D01*
X74108333Y-62214580D01*
X73489285Y-62214580D01*
X53579933Y-48871180D02*
X53579933Y-49585466D01*
X53627552Y-49728323D01*
X53722790Y-49823561D01*
X53865647Y-49871180D01*
X53960885Y-49871180D01*
X52579933Y-49871180D02*
X53151361Y-49871180D01*
X52865647Y-49871180D02*
X52865647Y-48871180D01*
X52960885Y-49014038D01*
X53056123Y-49109276D01*
X53151361Y-49156895D01*
X78409704Y-48293780D02*
X78409704Y-49103304D01*
X78362085Y-49198542D01*
X78314466Y-49246161D01*
X78219228Y-49293780D01*
X78028752Y-49293780D01*
X77933514Y-49246161D01*
X77885895Y-49198542D01*
X77838276Y-49103304D01*
X77838276Y-48293780D01*
X76838276Y-49293780D02*
X77409704Y-49293780D01*
X77123990Y-49293780D02*
X77123990Y-48293780D01*
X77219228Y-48436638D01*
X77314466Y-48531876D01*
X77409704Y-48579495D01*
X96615238Y-54137619D02*
X96710476Y-54090000D01*
X96805714Y-53994761D01*
X96948571Y-53851904D01*
X97043809Y-53804285D01*
X97139047Y-53804285D01*
X97091428Y-54042380D02*
X97186666Y-53994761D01*
X97281904Y-53899523D01*
X97329523Y-53709047D01*
X97329523Y-53375714D01*
X97281904Y-53185238D01*
X97186666Y-53090000D01*
X97091428Y-53042380D01*
X96900952Y-53042380D01*
X96805714Y-53090000D01*
X96710476Y-53185238D01*
X96662857Y-53375714D01*
X96662857Y-53709047D01*
X96710476Y-53899523D01*
X96805714Y-53994761D01*
X96900952Y-54042380D01*
X97091428Y-54042380D01*
X95710476Y-54042380D02*
X96281904Y-54042380D01*
X95996190Y-54042380D02*
X95996190Y-53042380D01*
X96091428Y-53185238D01*
X96186666Y-53280476D01*
X96281904Y-53328095D01*
X111855238Y-54137619D02*
X111950476Y-54090000D01*
X112045714Y-53994761D01*
X112188571Y-53851904D01*
X112283809Y-53804285D01*
X112379047Y-53804285D01*
X112331428Y-54042380D02*
X112426666Y-53994761D01*
X112521904Y-53899523D01*
X112569523Y-53709047D01*
X112569523Y-53375714D01*
X112521904Y-53185238D01*
X112426666Y-53090000D01*
X112331428Y-53042380D01*
X112140952Y-53042380D01*
X112045714Y-53090000D01*
X111950476Y-53185238D01*
X111902857Y-53375714D01*
X111902857Y-53709047D01*
X111950476Y-53899523D01*
X112045714Y-53994761D01*
X112140952Y-54042380D01*
X112331428Y-54042380D01*
X111569523Y-53042380D02*
X110950476Y-53042380D01*
X111283809Y-53423333D01*
X111140952Y-53423333D01*
X111045714Y-53470952D01*
X110998095Y-53518571D01*
X110950476Y-53613809D01*
X110950476Y-53851904D01*
X110998095Y-53947142D01*
X111045714Y-53994761D01*
X111140952Y-54042380D01*
X111426666Y-54042380D01*
X111521904Y-53994761D01*
X111569523Y-53947142D01*
X142335238Y-54137619D02*
X142430476Y-54090000D01*
X142525714Y-53994761D01*
X142668571Y-53851904D01*
X142763809Y-53804285D01*
X142859047Y-53804285D01*
X142811428Y-54042380D02*
X142906666Y-53994761D01*
X143001904Y-53899523D01*
X143049523Y-53709047D01*
X143049523Y-53375714D01*
X143001904Y-53185238D01*
X142906666Y-53090000D01*
X142811428Y-53042380D01*
X142620952Y-53042380D01*
X142525714Y-53090000D01*
X142430476Y-53185238D01*
X142382857Y-53375714D01*
X142382857Y-53709047D01*
X142430476Y-53899523D01*
X142525714Y-53994761D01*
X142620952Y-54042380D01*
X142811428Y-54042380D01*
X142001904Y-53137619D02*
X141954285Y-53090000D01*
X141859047Y-53042380D01*
X141620952Y-53042380D01*
X141525714Y-53090000D01*
X141478095Y-53137619D01*
X141430476Y-53232857D01*
X141430476Y-53328095D01*
X141478095Y-53470952D01*
X142049523Y-54042380D01*
X141430476Y-54042380D01*
X78279523Y-63162380D02*
X78279523Y-63876666D01*
X78327142Y-64019523D01*
X78422380Y-64114761D01*
X78565238Y-64162380D01*
X78660476Y-64162380D01*
X77279523Y-64162380D02*
X77850952Y-64162380D01*
X77565238Y-64162380D02*
X77565238Y-63162380D01*
X77660476Y-63305238D01*
X77755714Y-63400476D01*
X77850952Y-63448095D01*
X76946190Y-63162380D02*
X76327142Y-63162380D01*
X76660476Y-63543333D01*
X76517619Y-63543333D01*
X76422380Y-63590952D01*
X76374761Y-63638571D01*
X76327142Y-63733809D01*
X76327142Y-63971904D01*
X76374761Y-64067142D01*
X76422380Y-64114761D01*
X76517619Y-64162380D01*
X76803333Y-64162380D01*
X76898571Y-64114761D01*
X76946190Y-64067142D01*
X127095238Y-54137619D02*
X127190476Y-54090000D01*
X127285714Y-53994761D01*
X127428571Y-53851904D01*
X127523809Y-53804285D01*
X127619047Y-53804285D01*
X127571428Y-54042380D02*
X127666666Y-53994761D01*
X127761904Y-53899523D01*
X127809523Y-53709047D01*
X127809523Y-53375714D01*
X127761904Y-53185238D01*
X127666666Y-53090000D01*
X127571428Y-53042380D01*
X127380952Y-53042380D01*
X127285714Y-53090000D01*
X127190476Y-53185238D01*
X127142857Y-53375714D01*
X127142857Y-53709047D01*
X127190476Y-53899523D01*
X127285714Y-53994761D01*
X127380952Y-54042380D01*
X127571428Y-54042380D01*
X126285714Y-53375714D02*
X126285714Y-54042380D01*
X126523809Y-52994761D02*
X126761904Y-53709047D01*
X126142857Y-53709047D01*
X148252380Y-56388095D02*
X149061904Y-56388095D01*
X149157142Y-56435714D01*
X149204761Y-56483333D01*
X149252380Y-56578571D01*
X149252380Y-56769047D01*
X149204761Y-56864285D01*
X149157142Y-56911904D01*
X149061904Y-56959523D01*
X148252380Y-56959523D01*
X148347619Y-57388095D02*
X148300000Y-57435714D01*
X148252380Y-57530952D01*
X148252380Y-57769047D01*
X148300000Y-57864285D01*
X148347619Y-57911904D01*
X148442857Y-57959523D01*
X148538095Y-57959523D01*
X148680952Y-57911904D01*
X149252380Y-57340476D01*
X149252380Y-57959523D01*
X165861904Y-66972380D02*
X165861904Y-67781904D01*
X165814285Y-67877142D01*
X165766666Y-67924761D01*
X165671428Y-67972380D01*
X165480952Y-67972380D01*
X165385714Y-67924761D01*
X165338095Y-67877142D01*
X165290476Y-67781904D01*
X165290476Y-66972380D01*
X164909523Y-66972380D02*
X164290476Y-66972380D01*
X164623809Y-67353333D01*
X164480952Y-67353333D01*
X164385714Y-67400952D01*
X164338095Y-67448571D01*
X164290476Y-67543809D01*
X164290476Y-67781904D01*
X164338095Y-67877142D01*
X164385714Y-67924761D01*
X164480952Y-67972380D01*
X164766666Y-67972380D01*
X164861904Y-67924761D01*
X164909523Y-67877142D01*
X165861904Y-91102380D02*
X165861904Y-91911904D01*
X165814285Y-92007142D01*
X165766666Y-92054761D01*
X165671428Y-92102380D01*
X165480952Y-92102380D01*
X165385714Y-92054761D01*
X165338095Y-92007142D01*
X165290476Y-91911904D01*
X165290476Y-91102380D01*
X164385714Y-91435714D02*
X164385714Y-92102380D01*
X164623809Y-91054761D02*
X164861904Y-91769047D01*
X164242857Y-91769047D01*
X150621904Y-91102380D02*
X150621904Y-91911904D01*
X150574285Y-92007142D01*
X150526666Y-92054761D01*
X150431428Y-92102380D01*
X150240952Y-92102380D01*
X150145714Y-92054761D01*
X150098095Y-92007142D01*
X150050476Y-91911904D01*
X150050476Y-91102380D01*
X149098095Y-91102380D02*
X149574285Y-91102380D01*
X149621904Y-91578571D01*
X149574285Y-91530952D01*
X149479047Y-91483333D01*
X149240952Y-91483333D01*
X149145714Y-91530952D01*
X149098095Y-91578571D01*
X149050476Y-91673809D01*
X149050476Y-91911904D01*
X149098095Y-92007142D01*
X149145714Y-92054761D01*
X149240952Y-92102380D01*
X149479047Y-92102380D01*
X149574285Y-92054761D01*
X149621904Y-92007142D01*
X173232380Y-122428095D02*
X174041904Y-122428095D01*
X174137142Y-122475714D01*
X174184761Y-122523333D01*
X174232380Y-122618571D01*
X174232380Y-122809047D01*
X174184761Y-122904285D01*
X174137142Y-122951904D01*
X174041904Y-122999523D01*
X173232380Y-122999523D01*
X173232380Y-123904285D02*
X173232380Y-123713809D01*
X173280000Y-123618571D01*
X173327619Y-123570952D01*
X173470476Y-123475714D01*
X173660952Y-123428095D01*
X174041904Y-123428095D01*
X174137142Y-123475714D01*
X174184761Y-123523333D01*
X174232380Y-123618571D01*
X174232380Y-123809047D01*
X174184761Y-123904285D01*
X174137142Y-123951904D01*
X174041904Y-123999523D01*
X173803809Y-123999523D01*
X173708571Y-123951904D01*
X173660952Y-123904285D01*
X173613333Y-123809047D01*
X173613333Y-123618571D01*
X173660952Y-123523333D01*
X173708571Y-123475714D01*
X173803809Y-123428095D01*
X150621904Y-66972380D02*
X150621904Y-67781904D01*
X150574285Y-67877142D01*
X150526666Y-67924761D01*
X150431428Y-67972380D01*
X150240952Y-67972380D01*
X150145714Y-67924761D01*
X150098095Y-67877142D01*
X150050476Y-67781904D01*
X150050476Y-66972380D01*
X149669523Y-66972380D02*
X149002857Y-66972380D01*
X149431428Y-67972380D01*
X62563333Y-115252380D02*
X62563333Y-115966666D01*
X62610952Y-116109523D01*
X62706190Y-116204761D01*
X62849047Y-116252380D01*
X62944285Y-116252380D01*
X62134761Y-115347619D02*
X62087142Y-115300000D01*
X61991904Y-115252380D01*
X61753809Y-115252380D01*
X61658571Y-115300000D01*
X61610952Y-115347619D01*
X61563333Y-115442857D01*
X61563333Y-115538095D01*
X61610952Y-115680952D01*
X62182380Y-116252380D01*
X61563333Y-116252380D01*
X77803333Y-115252380D02*
X77803333Y-115966666D01*
X77850952Y-116109523D01*
X77946190Y-116204761D01*
X78089047Y-116252380D01*
X78184285Y-116252380D01*
X77422380Y-115252380D02*
X76803333Y-115252380D01*
X77136666Y-115633333D01*
X76993809Y-115633333D01*
X76898571Y-115680952D01*
X76850952Y-115728571D01*
X76803333Y-115823809D01*
X76803333Y-116061904D01*
X76850952Y-116157142D01*
X76898571Y-116204761D01*
X76993809Y-116252380D01*
X77279523Y-116252380D01*
X77374761Y-116204761D01*
X77422380Y-116157142D01*
X89661904Y-66972380D02*
X89661904Y-67781904D01*
X89614285Y-67877142D01*
X89566666Y-67924761D01*
X89471428Y-67972380D01*
X89280952Y-67972380D01*
X89185714Y-67924761D01*
X89138095Y-67877142D01*
X89090476Y-67781904D01*
X89090476Y-66972380D01*
X88471428Y-67400952D02*
X88566666Y-67353333D01*
X88614285Y-67305714D01*
X88661904Y-67210476D01*
X88661904Y-67162857D01*
X88614285Y-67067619D01*
X88566666Y-67020000D01*
X88471428Y-66972380D01*
X88280952Y-66972380D01*
X88185714Y-67020000D01*
X88138095Y-67067619D01*
X88090476Y-67162857D01*
X88090476Y-67210476D01*
X88138095Y-67305714D01*
X88185714Y-67353333D01*
X88280952Y-67400952D01*
X88471428Y-67400952D01*
X88566666Y-67448571D01*
X88614285Y-67496190D01*
X88661904Y-67591428D01*
X88661904Y-67781904D01*
X88614285Y-67877142D01*
X88566666Y-67924761D01*
X88471428Y-67972380D01*
X88280952Y-67972380D01*
X88185714Y-67924761D01*
X88138095Y-67877142D01*
X88090476Y-67781904D01*
X88090476Y-67591428D01*
X88138095Y-67496190D01*
X88185714Y-67448571D01*
X88280952Y-67400952D01*
X104901904Y-94492380D02*
X104901904Y-95301904D01*
X104854285Y-95397142D01*
X104806666Y-95444761D01*
X104711428Y-95492380D01*
X104520952Y-95492380D01*
X104425714Y-95444761D01*
X104378095Y-95397142D01*
X104330476Y-95301904D01*
X104330476Y-94492380D01*
X103806666Y-95492380D02*
X103616190Y-95492380D01*
X103520952Y-95444761D01*
X103473333Y-95397142D01*
X103378095Y-95254285D01*
X103330476Y-95063809D01*
X103330476Y-94682857D01*
X103378095Y-94587619D01*
X103425714Y-94540000D01*
X103520952Y-94492380D01*
X103711428Y-94492380D01*
X103806666Y-94540000D01*
X103854285Y-94587619D01*
X103901904Y-94682857D01*
X103901904Y-94920952D01*
X103854285Y-95016190D01*
X103806666Y-95063809D01*
X103711428Y-95111428D01*
X103520952Y-95111428D01*
X103425714Y-95063809D01*
X103378095Y-95016190D01*
X103330476Y-94920952D01*
X105378095Y-121162380D02*
X105378095Y-121971904D01*
X105330476Y-122067142D01*
X105282857Y-122114761D01*
X105187619Y-122162380D01*
X104997142Y-122162380D01*
X104901904Y-122114761D01*
X104854285Y-122067142D01*
X104806666Y-121971904D01*
X104806666Y-121162380D01*
X103806666Y-122162380D02*
X104378095Y-122162380D01*
X104092380Y-122162380D02*
X104092380Y-121162380D01*
X104187619Y-121305238D01*
X104282857Y-121400476D01*
X104378095Y-121448095D01*
X103187619Y-121162380D02*
X103092380Y-121162380D01*
X102997142Y-121210000D01*
X102949523Y-121257619D01*
X102901904Y-121352857D01*
X102854285Y-121543333D01*
X102854285Y-121781428D01*
X102901904Y-121971904D01*
X102949523Y-122067142D01*
X102997142Y-122114761D01*
X103092380Y-122162380D01*
X103187619Y-122162380D01*
X103282857Y-122114761D01*
X103330476Y-122067142D01*
X103378095Y-121971904D01*
X103425714Y-121781428D01*
X103425714Y-121543333D01*
X103378095Y-121352857D01*
X103330476Y-121257619D01*
X103282857Y-121210000D01*
X103187619Y-121162380D01*
X120618095Y-94492380D02*
X120618095Y-95301904D01*
X120570476Y-95397142D01*
X120522857Y-95444761D01*
X120427619Y-95492380D01*
X120237142Y-95492380D01*
X120141904Y-95444761D01*
X120094285Y-95397142D01*
X120046666Y-95301904D01*
X120046666Y-94492380D01*
X119046666Y-95492380D02*
X119618095Y-95492380D01*
X119332380Y-95492380D02*
X119332380Y-94492380D01*
X119427619Y-94635238D01*
X119522857Y-94730476D01*
X119618095Y-94778095D01*
X118094285Y-95492380D02*
X118665714Y-95492380D01*
X118380000Y-95492380D02*
X118380000Y-94492380D01*
X118475238Y-94635238D01*
X118570476Y-94730476D01*
X118665714Y-94778095D01*
X135858095Y-121162380D02*
X135858095Y-121971904D01*
X135810476Y-122067142D01*
X135762857Y-122114761D01*
X135667619Y-122162380D01*
X135477142Y-122162380D01*
X135381904Y-122114761D01*
X135334285Y-122067142D01*
X135286666Y-121971904D01*
X135286666Y-121162380D01*
X134286666Y-122162380D02*
X134858095Y-122162380D01*
X134572380Y-122162380D02*
X134572380Y-121162380D01*
X134667619Y-121305238D01*
X134762857Y-121400476D01*
X134858095Y-121448095D01*
X133905714Y-121257619D02*
X133858095Y-121210000D01*
X133762857Y-121162380D01*
X133524761Y-121162380D01*
X133429523Y-121210000D01*
X133381904Y-121257619D01*
X133334285Y-121352857D01*
X133334285Y-121448095D01*
X133381904Y-121590952D01*
X133953333Y-122162380D01*
X133334285Y-122162380D01*
X120618095Y-121162380D02*
X120618095Y-121971904D01*
X120570476Y-122067142D01*
X120522857Y-122114761D01*
X120427619Y-122162380D01*
X120237142Y-122162380D01*
X120141904Y-122114761D01*
X120094285Y-122067142D01*
X120046666Y-121971904D01*
X120046666Y-121162380D01*
X119046666Y-122162380D02*
X119618095Y-122162380D01*
X119332380Y-122162380D02*
X119332380Y-121162380D01*
X119427619Y-121305238D01*
X119522857Y-121400476D01*
X119618095Y-121448095D01*
X118713333Y-121162380D02*
X118094285Y-121162380D01*
X118427619Y-121543333D01*
X118284761Y-121543333D01*
X118189523Y-121590952D01*
X118141904Y-121638571D01*
X118094285Y-121733809D01*
X118094285Y-121971904D01*
X118141904Y-122067142D01*
X118189523Y-122114761D01*
X118284761Y-122162380D01*
X118570476Y-122162380D01*
X118665714Y-122114761D01*
X118713333Y-122067142D01*
X135858095Y-94492380D02*
X135858095Y-95301904D01*
X135810476Y-95397142D01*
X135762857Y-95444761D01*
X135667619Y-95492380D01*
X135477142Y-95492380D01*
X135381904Y-95444761D01*
X135334285Y-95397142D01*
X135286666Y-95301904D01*
X135286666Y-94492380D01*
X134286666Y-95492380D02*
X134858095Y-95492380D01*
X134572380Y-95492380D02*
X134572380Y-94492380D01*
X134667619Y-94635238D01*
X134762857Y-94730476D01*
X134858095Y-94778095D01*
X133429523Y-94825714D02*
X133429523Y-95492380D01*
X133667619Y-94444761D02*
X133905714Y-95159047D01*
X133286666Y-95159047D01*
M02*
