G04 #@! TF.GenerationSoftware,KiCad,Pcbnew,(5.1.4)-1*
G04 #@! TF.CreationDate,2019-10-25T20:14:16-04:00*
G04 #@! TF.ProjectId,A-10C-CautionPanelNonMega,412d3130-432d-4436-9175-74696f6e5061,rev?*
G04 #@! TF.SameCoordinates,Original*
G04 #@! TF.FileFunction,Copper,L1,Top*
G04 #@! TF.FilePolarity,Positive*
%FSLAX46Y46*%
G04 Gerber Fmt 4.6, Leading zero omitted, Abs format (unit mm)*
G04 Created by KiCad (PCBNEW (5.1.4)-1) date 2019-10-25 20:14:16*
%MOMM*%
%LPD*%
G04 APERTURE LIST*
%ADD10C,1.600000*%
%ADD11R,2.600000X2.600000*%
%ADD12C,2.600000*%
%ADD13R,1.905000X2.000000*%
%ADD14O,1.905000X2.000000*%
%ADD15O,1.700000X1.700000*%
%ADD16R,1.700000X1.700000*%
%ADD17O,1.050000X1.500000*%
%ADD18R,1.050000X1.500000*%
%ADD19R,1.600000X1.600000*%
%ADD20O,1.600000X1.600000*%
%ADD21C,0.800000*%
%ADD22C,0.530000*%
%ADD23C,0.250000*%
G04 APERTURE END LIST*
D10*
X81737200Y-59512200D03*
X79237200Y-59512200D03*
X75525000Y-59512200D03*
X73025000Y-59512200D03*
D11*
X61696600Y-55168800D03*
D12*
X55696600Y-55168800D03*
X58696600Y-50468800D03*
D13*
X80187800Y-53111400D03*
D14*
X77647800Y-53111400D03*
X75107800Y-53111400D03*
D15*
X175260000Y-118110000D03*
X175260000Y-115570000D03*
X175260000Y-113030000D03*
X175260000Y-110490000D03*
X175260000Y-107950000D03*
X175260000Y-105410000D03*
X175260000Y-102870000D03*
X175260000Y-100330000D03*
X175260000Y-97790000D03*
X175260000Y-95250000D03*
X175260000Y-92710000D03*
X175260000Y-90170000D03*
X175260000Y-87630000D03*
X175260000Y-85090000D03*
X175260000Y-82550000D03*
X175260000Y-80010000D03*
X175260000Y-77470000D03*
X175260000Y-74930000D03*
X175260000Y-72390000D03*
X175260000Y-69850000D03*
X175260000Y-67310000D03*
X175260000Y-64770000D03*
X175260000Y-62230000D03*
D16*
X175260000Y-59690000D03*
D15*
X148590000Y-64770000D03*
X146050000Y-64770000D03*
X143510000Y-64770000D03*
X140970000Y-64770000D03*
X138430000Y-64770000D03*
X135890000Y-64770000D03*
X133350000Y-64770000D03*
X130810000Y-64770000D03*
X128270000Y-64770000D03*
X125730000Y-64770000D03*
X123190000Y-64770000D03*
X120650000Y-64770000D03*
X118110000Y-64770000D03*
X115570000Y-64770000D03*
X113030000Y-64770000D03*
X110490000Y-64770000D03*
X107950000Y-64770000D03*
X105410000Y-64770000D03*
X102870000Y-64770000D03*
X100330000Y-64770000D03*
X97790000Y-64770000D03*
X95250000Y-64770000D03*
X92710000Y-64770000D03*
D16*
X90170000Y-64770000D03*
X90170000Y-49530000D03*
D15*
X92710000Y-49530000D03*
X95250000Y-49530000D03*
X97790000Y-49530000D03*
X100330000Y-49530000D03*
X102870000Y-49530000D03*
X105410000Y-49530000D03*
X107950000Y-49530000D03*
X110490000Y-49530000D03*
X113030000Y-49530000D03*
X115570000Y-49530000D03*
X118110000Y-49530000D03*
X120650000Y-49530000D03*
X123190000Y-49530000D03*
X125730000Y-49530000D03*
X128270000Y-49530000D03*
X130810000Y-49530000D03*
X133350000Y-49530000D03*
X135890000Y-49530000D03*
X138430000Y-49530000D03*
X140970000Y-49530000D03*
X143510000Y-49530000D03*
X146050000Y-49530000D03*
X148590000Y-49530000D03*
D16*
X53340000Y-125730000D03*
D15*
X53340000Y-123190000D03*
X53340000Y-120650000D03*
X53340000Y-118110000D03*
X53340000Y-115570000D03*
X53340000Y-113030000D03*
X53340000Y-110490000D03*
X53340000Y-107950000D03*
X53340000Y-105410000D03*
X53340000Y-102870000D03*
X53340000Y-100330000D03*
X53340000Y-97790000D03*
X53340000Y-95250000D03*
X53340000Y-92710000D03*
X53340000Y-90170000D03*
X53340000Y-87630000D03*
X53340000Y-85090000D03*
X53340000Y-82550000D03*
X53340000Y-80010000D03*
X53340000Y-77470000D03*
X53340000Y-74930000D03*
X53340000Y-72390000D03*
X53340000Y-69850000D03*
X53340000Y-67310000D03*
D17*
X96520000Y-57150000D03*
X95250000Y-57150000D03*
D18*
X97790000Y-57150000D03*
X113030000Y-57150000D03*
D17*
X110490000Y-57150000D03*
X111760000Y-57150000D03*
X142240000Y-57150000D03*
X140970000Y-57150000D03*
D18*
X143510000Y-57150000D03*
D16*
X77470000Y-66040000D03*
D15*
X77470000Y-68580000D03*
X77470000Y-71120000D03*
D17*
X127000000Y-57150000D03*
X125730000Y-57150000D03*
D18*
X128270000Y-57150000D03*
D19*
X151130000Y-53340000D03*
D20*
X171450000Y-60960000D03*
X153670000Y-53340000D03*
X168910000Y-60960000D03*
X156210000Y-53340000D03*
X166370000Y-60960000D03*
X158750000Y-53340000D03*
X163830000Y-60960000D03*
X161290000Y-53340000D03*
X161290000Y-60960000D03*
X163830000Y-53340000D03*
X158750000Y-60960000D03*
X166370000Y-53340000D03*
X156210000Y-60960000D03*
X168910000Y-53340000D03*
X153670000Y-60960000D03*
X171450000Y-53340000D03*
X151130000Y-60960000D03*
X161290000Y-69850000D03*
X168910000Y-90170000D03*
X161290000Y-72390000D03*
X168910000Y-87630000D03*
X161290000Y-74930000D03*
X168910000Y-85090000D03*
X161290000Y-77470000D03*
X168910000Y-82550000D03*
X161290000Y-80010000D03*
X168910000Y-80010000D03*
X161290000Y-82550000D03*
X168910000Y-77470000D03*
X161290000Y-85090000D03*
X168910000Y-74930000D03*
X161290000Y-87630000D03*
X168910000Y-72390000D03*
X161290000Y-90170000D03*
D19*
X168910000Y-69850000D03*
D20*
X161290000Y-93980000D03*
X168910000Y-114300000D03*
X161290000Y-96520000D03*
X168910000Y-111760000D03*
X161290000Y-99060000D03*
X168910000Y-109220000D03*
X161290000Y-101600000D03*
X168910000Y-106680000D03*
X161290000Y-104140000D03*
X168910000Y-104140000D03*
X161290000Y-106680000D03*
X168910000Y-101600000D03*
X161290000Y-109220000D03*
X168910000Y-99060000D03*
X161290000Y-111760000D03*
X168910000Y-96520000D03*
X161290000Y-114300000D03*
D19*
X168910000Y-93980000D03*
X153670000Y-93980000D03*
D20*
X146050000Y-114300000D03*
X153670000Y-96520000D03*
X146050000Y-111760000D03*
X153670000Y-99060000D03*
X146050000Y-109220000D03*
X153670000Y-101600000D03*
X146050000Y-106680000D03*
X153670000Y-104140000D03*
X146050000Y-104140000D03*
X153670000Y-106680000D03*
X146050000Y-101600000D03*
X153670000Y-109220000D03*
X146050000Y-99060000D03*
X153670000Y-111760000D03*
X146050000Y-96520000D03*
X153670000Y-114300000D03*
X146050000Y-93980000D03*
X171450000Y-119380000D03*
X151130000Y-127000000D03*
X168910000Y-119380000D03*
X153670000Y-127000000D03*
X166370000Y-119380000D03*
X156210000Y-127000000D03*
X163830000Y-119380000D03*
X158750000Y-127000000D03*
X161290000Y-119380000D03*
X161290000Y-127000000D03*
X158750000Y-119380000D03*
X163830000Y-127000000D03*
X156210000Y-119380000D03*
X166370000Y-127000000D03*
X153670000Y-119380000D03*
X168910000Y-127000000D03*
X151130000Y-119380000D03*
D19*
X171450000Y-127000000D03*
X153670000Y-69850000D03*
D20*
X146050000Y-90170000D03*
X153670000Y-72390000D03*
X146050000Y-87630000D03*
X153670000Y-74930000D03*
X146050000Y-85090000D03*
X153670000Y-77470000D03*
X146050000Y-82550000D03*
X153670000Y-80010000D03*
X146050000Y-80010000D03*
X153670000Y-82550000D03*
X146050000Y-77470000D03*
X153670000Y-85090000D03*
X146050000Y-74930000D03*
X153670000Y-87630000D03*
X146050000Y-72390000D03*
X153670000Y-90170000D03*
X146050000Y-69850000D03*
D16*
X62230000Y-113030000D03*
D15*
X62230000Y-110490000D03*
X62230000Y-107950000D03*
X62230000Y-105410000D03*
X62230000Y-102870000D03*
X62230000Y-100330000D03*
X62230000Y-97790000D03*
X62230000Y-95250000D03*
X62230000Y-92710000D03*
X62230000Y-90170000D03*
X62230000Y-87630000D03*
X62230000Y-85090000D03*
X62230000Y-82550000D03*
X62230000Y-80010000D03*
X62230000Y-77470000D03*
X77470000Y-77470000D03*
X77470000Y-80010000D03*
X77470000Y-82550000D03*
X77470000Y-85090000D03*
X77470000Y-87630000D03*
X77470000Y-90170000D03*
X77470000Y-92710000D03*
X77470000Y-95250000D03*
X77470000Y-97790000D03*
X77470000Y-100330000D03*
X77470000Y-102870000D03*
X77470000Y-105410000D03*
X77470000Y-107950000D03*
X77470000Y-110490000D03*
D16*
X77470000Y-113030000D03*
D19*
X92710000Y-69850000D03*
D20*
X85090000Y-85090000D03*
X92710000Y-72390000D03*
X85090000Y-82550000D03*
X92710000Y-74930000D03*
X85090000Y-80010000D03*
X92710000Y-77470000D03*
X85090000Y-77470000D03*
X92710000Y-80010000D03*
X85090000Y-74930000D03*
X92710000Y-82550000D03*
X85090000Y-72390000D03*
X92710000Y-85090000D03*
X85090000Y-69850000D03*
D19*
X100330000Y-92710000D03*
D20*
X107950000Y-69850000D03*
X100330000Y-90170000D03*
X107950000Y-72390000D03*
X100330000Y-87630000D03*
X107950000Y-74930000D03*
X100330000Y-85090000D03*
X107950000Y-77470000D03*
X100330000Y-82550000D03*
X107950000Y-80010000D03*
X100330000Y-80010000D03*
X107950000Y-82550000D03*
X100330000Y-77470000D03*
X107950000Y-85090000D03*
X100330000Y-74930000D03*
X107950000Y-87630000D03*
X100330000Y-72390000D03*
X107950000Y-90170000D03*
X100330000Y-69850000D03*
X107950000Y-92710000D03*
X107950000Y-119380000D03*
X100330000Y-96520000D03*
X107950000Y-116840000D03*
X100330000Y-99060000D03*
X107950000Y-114300000D03*
X100330000Y-101600000D03*
X107950000Y-111760000D03*
X100330000Y-104140000D03*
X107950000Y-109220000D03*
X100330000Y-106680000D03*
X107950000Y-106680000D03*
X100330000Y-109220000D03*
X107950000Y-104140000D03*
X100330000Y-111760000D03*
X107950000Y-101600000D03*
X100330000Y-114300000D03*
X107950000Y-99060000D03*
X100330000Y-116840000D03*
X107950000Y-96520000D03*
D19*
X100330000Y-119380000D03*
X115570000Y-92710000D03*
D20*
X123190000Y-69850000D03*
X115570000Y-90170000D03*
X123190000Y-72390000D03*
X115570000Y-87630000D03*
X123190000Y-74930000D03*
X115570000Y-85090000D03*
X123190000Y-77470000D03*
X115570000Y-82550000D03*
X123190000Y-80010000D03*
X115570000Y-80010000D03*
X123190000Y-82550000D03*
X115570000Y-77470000D03*
X123190000Y-85090000D03*
X115570000Y-74930000D03*
X123190000Y-87630000D03*
X115570000Y-72390000D03*
X123190000Y-90170000D03*
X115570000Y-69850000D03*
X123190000Y-92710000D03*
X138430000Y-119380000D03*
X130810000Y-96520000D03*
X138430000Y-116840000D03*
X130810000Y-99060000D03*
X138430000Y-114300000D03*
X130810000Y-101600000D03*
X138430000Y-111760000D03*
X130810000Y-104140000D03*
X138430000Y-109220000D03*
X130810000Y-106680000D03*
X138430000Y-106680000D03*
X130810000Y-109220000D03*
X138430000Y-104140000D03*
X130810000Y-111760000D03*
X138430000Y-101600000D03*
X130810000Y-114300000D03*
X138430000Y-99060000D03*
X130810000Y-116840000D03*
X138430000Y-96520000D03*
D19*
X130810000Y-119380000D03*
X115570000Y-119380000D03*
D20*
X123190000Y-96520000D03*
X115570000Y-116840000D03*
X123190000Y-99060000D03*
X115570000Y-114300000D03*
X123190000Y-101600000D03*
X115570000Y-111760000D03*
X123190000Y-104140000D03*
X115570000Y-109220000D03*
X123190000Y-106680000D03*
X115570000Y-106680000D03*
X123190000Y-109220000D03*
X115570000Y-104140000D03*
X123190000Y-111760000D03*
X115570000Y-101600000D03*
X123190000Y-114300000D03*
X115570000Y-99060000D03*
X123190000Y-116840000D03*
X115570000Y-96520000D03*
X123190000Y-119380000D03*
X138430000Y-92710000D03*
X130810000Y-69850000D03*
X138430000Y-90170000D03*
X130810000Y-72390000D03*
X138430000Y-87630000D03*
X130810000Y-74930000D03*
X138430000Y-85090000D03*
X130810000Y-77470000D03*
X138430000Y-82550000D03*
X130810000Y-80010000D03*
X138430000Y-80010000D03*
X130810000Y-82550000D03*
X138430000Y-77470000D03*
X130810000Y-85090000D03*
X138430000Y-74930000D03*
X130810000Y-87630000D03*
X138430000Y-72390000D03*
X130810000Y-90170000D03*
X138430000Y-69850000D03*
D19*
X130810000Y-92710000D03*
D21*
X78684000Y-115602000D03*
X77424200Y-115574500D03*
X82318100Y-121950600D03*
X81152900Y-122851200D03*
X136054900Y-126852900D03*
X139830900Y-125756600D03*
X137506100Y-125586100D03*
X138652600Y-125167000D03*
X139601100Y-124700800D03*
X101236400Y-71137900D03*
X103854800Y-68447700D03*
X142365100Y-69830400D03*
X149143600Y-60565200D03*
X157645200Y-81142500D03*
X127050300Y-96342100D03*
X150771300Y-74964500D03*
X134583400Y-62909500D03*
X147431400Y-67223100D03*
X151298400Y-74016700D03*
X102633300Y-102281000D03*
X102903600Y-100474700D03*
X118270800Y-95171900D03*
X85467100Y-104756700D03*
X81348300Y-105511200D03*
X82836500Y-107742800D03*
X151905500Y-89666200D03*
X124366400Y-105554600D03*
X87494500Y-106843400D03*
X128538000Y-62254800D03*
X106685300Y-66596800D03*
X101917200Y-65945300D03*
X101646600Y-63533500D03*
X101590200Y-61819400D03*
X157000000Y-100793800D03*
X125863100Y-94033200D03*
X142974100Y-82899800D03*
X118482300Y-72390000D03*
X144061700Y-92662800D03*
X136255700Y-87096400D03*
X132309500Y-84864900D03*
X119658900Y-80010000D03*
X117519200Y-91788500D03*
X133207200Y-127889400D03*
X149257300Y-120143800D03*
X128717500Y-128862200D03*
X140377000Y-83708100D03*
X104154700Y-72520000D03*
X101730300Y-79774700D03*
X98166000Y-69731500D03*
D22*
X81320700Y-68584600D02*
X95462900Y-68584600D01*
X95462900Y-68584600D02*
X97488500Y-70610200D01*
X97488500Y-70610200D02*
X98532900Y-70610200D01*
X98532900Y-70610200D02*
X99064700Y-70078400D01*
X99064700Y-70078400D02*
X99064700Y-69850000D01*
X81320700Y-68584600D02*
X78785300Y-71120000D01*
X81320700Y-68584600D02*
X81320700Y-61595700D01*
X81320700Y-61595700D02*
X79237200Y-59512200D01*
X100330000Y-69850000D02*
X99064700Y-69850000D01*
X100538400Y-69850000D02*
X100330000Y-69850000D01*
X77470000Y-71120000D02*
X78785300Y-71120000D01*
X100538400Y-69850000D02*
X101595300Y-69850000D01*
X116835300Y-69850000D02*
X121400600Y-69850000D01*
X121400600Y-69850000D02*
X121400600Y-69850100D01*
X121400600Y-69850100D02*
X122665800Y-71115300D01*
X122665800Y-71115300D02*
X123714200Y-71115300D01*
X123714200Y-71115300D02*
X124979500Y-69850000D01*
X124979500Y-69850000D02*
X129544700Y-69850000D01*
X115570000Y-69850000D02*
X114304700Y-69850000D01*
X101595300Y-69850000D02*
X102865300Y-71120000D01*
X102865300Y-71120000D02*
X113034700Y-71120000D01*
X113034700Y-71120000D02*
X114304700Y-69850000D01*
X116835300Y-119380000D02*
X118100600Y-118114700D01*
X118100600Y-118114700D02*
X128279400Y-118114700D01*
X128279400Y-118114700D02*
X129544700Y-119380000D01*
X99064700Y-119380000D02*
X87675300Y-119380000D01*
X87675300Y-119380000D02*
X78785300Y-110490000D01*
X115570000Y-96520000D02*
X116835300Y-96520000D01*
X129544700Y-96520000D02*
X125730100Y-100334600D01*
X125730100Y-100334600D02*
X120649900Y-100334600D01*
X120649900Y-100334600D02*
X116835300Y-96520000D01*
X115570000Y-96520000D02*
X114304700Y-96520000D01*
X114304700Y-96520000D02*
X113034700Y-97790000D01*
X113034700Y-97790000D02*
X102865300Y-97790000D01*
X102865300Y-97790000D02*
X101595300Y-96520000D01*
X100330000Y-119380000D02*
X99064700Y-119380000D01*
X76154700Y-110490000D02*
X73800700Y-110490000D01*
X73800700Y-110490000D02*
X68720700Y-105410000D01*
X68720700Y-105410000D02*
X63545300Y-105410000D01*
X130810000Y-96520000D02*
X129544700Y-96520000D01*
X154935300Y-90170000D02*
X156205300Y-88900000D01*
X156205300Y-88900000D02*
X166374700Y-88900000D01*
X166374700Y-88900000D02*
X167644700Y-90170000D01*
X62230000Y-105410000D02*
X63545300Y-105410000D01*
X153670000Y-90170000D02*
X154935300Y-90170000D01*
X168910000Y-90170000D02*
X167644700Y-90170000D01*
X77470000Y-110490000D02*
X78785300Y-110490000D01*
X76995000Y-110490000D02*
X77470000Y-110490000D01*
X76995000Y-110490000D02*
X76154700Y-110490000D01*
X100330000Y-96520000D02*
X101595300Y-96520000D01*
X115570000Y-69850000D02*
X116835300Y-69850000D01*
X115570000Y-119380000D02*
X114304700Y-119380000D01*
X100330000Y-119380000D02*
X101595300Y-119380000D01*
X101595300Y-119380000D02*
X102860600Y-118114700D01*
X102860600Y-118114700D02*
X113039400Y-118114700D01*
X113039400Y-118114700D02*
X114304700Y-119380000D01*
X115570000Y-119380000D02*
X116835300Y-119380000D01*
X130810000Y-119380000D02*
X129544700Y-119380000D01*
X130810000Y-69850000D02*
X129544700Y-69850000D01*
X75191100Y-55912900D02*
X75191100Y-57346100D01*
X75191100Y-57346100D02*
X73025000Y-59512200D01*
X75107800Y-54576700D02*
X75191100Y-54660000D01*
X75191100Y-54660000D02*
X75191100Y-55912900D01*
X97790000Y-55934700D02*
X97768200Y-55912900D01*
X97768200Y-55912900D02*
X75191100Y-55912900D01*
X128270000Y-57999600D02*
X127904300Y-58365300D01*
X127904300Y-58365300D02*
X113030000Y-58365300D01*
X143510000Y-58365300D02*
X128635700Y-58365300D01*
X128635700Y-58365300D02*
X128270000Y-57999600D01*
X97790000Y-57150000D02*
X98780300Y-57150000D01*
X113030000Y-57150000D02*
X113030000Y-58365300D01*
X113030000Y-58365300D02*
X99995600Y-58365300D01*
X99995600Y-58365300D02*
X98780300Y-57150000D01*
X97790000Y-57150000D02*
X97790000Y-55934700D01*
X143510000Y-57150000D02*
X143510000Y-58365300D01*
X128270000Y-57150000D02*
X128270000Y-57999600D01*
X137164700Y-119380000D02*
X133557700Y-119380000D01*
X133557700Y-119380000D02*
X132292300Y-120645400D01*
X132292300Y-120645400D02*
X125720700Y-120645400D01*
X125720700Y-120645400D02*
X124455300Y-119380000D01*
X121924700Y-92710000D02*
X120082300Y-90867600D01*
X120082300Y-90867600D02*
X116863800Y-90867600D01*
X116863800Y-90867600D02*
X116286900Y-91444500D01*
X116286900Y-91444500D02*
X110480800Y-91444500D01*
X110480800Y-91444500D02*
X109215300Y-92710000D01*
X137164700Y-92710000D02*
X135899300Y-91444600D01*
X135899300Y-91444600D02*
X125720700Y-91444600D01*
X125720700Y-91444600D02*
X124455300Y-92710000D01*
X106684700Y-92710000D02*
X105419400Y-91444700D01*
X105419400Y-91444700D02*
X95250000Y-91444700D01*
X95250000Y-91444700D02*
X86355300Y-82550000D01*
X121924700Y-119380000D02*
X120614100Y-120690600D01*
X120614100Y-120690600D02*
X110525900Y-120690600D01*
X110525900Y-120690600D02*
X109215300Y-119380000D01*
X123190000Y-92710000D02*
X121924700Y-92710000D01*
X107950000Y-92710000D02*
X109215300Y-92710000D01*
X107317400Y-92710000D02*
X107950000Y-92710000D01*
X107317400Y-92710000D02*
X106684700Y-92710000D01*
X75107800Y-53111400D02*
X75107800Y-54576700D01*
X85090000Y-82550000D02*
X86355300Y-82550000D01*
X123822700Y-92710000D02*
X123190000Y-92710000D01*
X123822700Y-92710000D02*
X124455300Y-92710000D01*
X123190000Y-119380000D02*
X121924700Y-119380000D01*
X107950000Y-119380000D02*
X109215300Y-119380000D01*
X123190000Y-119380000D02*
X124455300Y-119380000D01*
X138430000Y-119380000D02*
X137164700Y-119380000D01*
X138430000Y-92710000D02*
X137164700Y-92710000D01*
D23*
X175260000Y-69850000D02*
X175260000Y-68674700D01*
X161290000Y-60960000D02*
X162415300Y-60960000D01*
X162415300Y-60960000D02*
X162415300Y-61241300D01*
X162415300Y-61241300D02*
X167214000Y-66040000D01*
X167214000Y-66040000D02*
X175670600Y-66040000D01*
X175670600Y-66040000D02*
X176435300Y-66804700D01*
X176435300Y-66804700D02*
X176435300Y-67866800D01*
X176435300Y-67866800D02*
X175627400Y-68674700D01*
X175627400Y-68674700D02*
X175260000Y-68674700D01*
X174084700Y-67310000D02*
X173634400Y-66859700D01*
X173634400Y-66859700D02*
X165523200Y-66859700D01*
X165523200Y-66859700D02*
X159875300Y-61211800D01*
X159875300Y-61211800D02*
X159875300Y-60960000D01*
X175260000Y-67310000D02*
X174084700Y-67310000D01*
X158750000Y-60960000D02*
X159875300Y-60960000D01*
X157335300Y-60960000D02*
X157335300Y-60767200D01*
X157335300Y-60767200D02*
X158267800Y-59834700D01*
X158267800Y-59834700D02*
X169389900Y-59834700D01*
X169389900Y-59834700D02*
X170180000Y-60624800D01*
X170180000Y-60624800D02*
X170180000Y-61346700D01*
X170180000Y-61346700D02*
X173603300Y-64770000D01*
X173603300Y-64770000D02*
X175260000Y-64770000D01*
X156210000Y-60960000D02*
X157335300Y-60960000D01*
X154795300Y-60960000D02*
X154795300Y-60742500D01*
X154795300Y-60742500D02*
X156169500Y-59368300D01*
X156169500Y-59368300D02*
X171516800Y-59368300D01*
X171516800Y-59368300D02*
X174084700Y-61936200D01*
X174084700Y-61936200D02*
X174084700Y-62230000D01*
X175260000Y-62230000D02*
X174084700Y-62230000D01*
X153670000Y-60960000D02*
X154795300Y-60960000D01*
X152255300Y-60960000D02*
X152255300Y-60764000D01*
X152255300Y-60764000D02*
X154101400Y-58917900D01*
X154101400Y-58917900D02*
X173312600Y-58917900D01*
X173312600Y-58917900D02*
X174084700Y-59690000D01*
X175260000Y-59690000D02*
X174084700Y-59690000D01*
X151130000Y-60960000D02*
X152255300Y-60960000D01*
X175260000Y-80010000D02*
X174084700Y-80010000D01*
X161290000Y-69850000D02*
X162415300Y-69850000D01*
X162415300Y-69850000D02*
X162415300Y-70131300D01*
X162415300Y-70131300D02*
X168484000Y-76200000D01*
X168484000Y-76200000D02*
X170274700Y-76200000D01*
X170274700Y-76200000D02*
X174084700Y-80010000D01*
X175260000Y-92710000D02*
X175260000Y-91534700D01*
X161290000Y-82550000D02*
X162415300Y-82550000D01*
X162415300Y-82550000D02*
X163540600Y-83675300D01*
X163540600Y-83675300D02*
X169106700Y-83675300D01*
X169106700Y-83675300D02*
X174084700Y-88653300D01*
X174084700Y-88653300D02*
X174084700Y-90726800D01*
X174084700Y-90726800D02*
X174892600Y-91534700D01*
X174892600Y-91534700D02*
X175260000Y-91534700D01*
X175260000Y-118110000D02*
X174084700Y-118110000D01*
X161290000Y-111760000D02*
X162415300Y-111760000D01*
X162415300Y-111760000D02*
X167851100Y-117195800D01*
X167851100Y-117195800D02*
X173170500Y-117195800D01*
X173170500Y-117195800D02*
X174084700Y-118110000D01*
X161290000Y-109220000D02*
X162415300Y-109220000D01*
X162415300Y-109220000D02*
X162415300Y-109418100D01*
X162415300Y-109418100D02*
X168567200Y-115570000D01*
X168567200Y-115570000D02*
X175260000Y-115570000D01*
X161290000Y-106680000D02*
X162415300Y-106680000D01*
X162415300Y-106680000D02*
X162415300Y-106961300D01*
X162415300Y-106961300D02*
X168484000Y-113030000D01*
X168484000Y-113030000D02*
X175260000Y-113030000D01*
X161290000Y-104140000D02*
X162415300Y-104140000D01*
X162415300Y-104140000D02*
X162415300Y-104421300D01*
X162415300Y-104421300D02*
X168484000Y-110490000D01*
X168484000Y-110490000D02*
X175260000Y-110490000D01*
X161290000Y-101600000D02*
X162415300Y-101600000D01*
X162415300Y-101600000D02*
X162415300Y-101881300D01*
X162415300Y-101881300D02*
X168484000Y-107950000D01*
X168484000Y-107950000D02*
X175260000Y-107950000D01*
X161290000Y-99060000D02*
X162415300Y-99060000D01*
X162415300Y-99060000D02*
X162415300Y-99341300D01*
X162415300Y-99341300D02*
X168484000Y-105410000D01*
X168484000Y-105410000D02*
X175260000Y-105410000D01*
X161290000Y-96520000D02*
X162415300Y-96520000D01*
X162415300Y-96520000D02*
X162415300Y-96801300D01*
X162415300Y-96801300D02*
X168484000Y-102870000D01*
X168484000Y-102870000D02*
X175260000Y-102870000D01*
X161290000Y-93980000D02*
X162415300Y-93980000D01*
X162415300Y-93980000D02*
X162415300Y-94261300D01*
X162415300Y-94261300D02*
X168484000Y-100330000D01*
X168484000Y-100330000D02*
X175260000Y-100330000D01*
X152544700Y-119380000D02*
X152544700Y-119661400D01*
X152544700Y-119661400D02*
X151337000Y-120869100D01*
X151337000Y-120869100D02*
X141253500Y-120869100D01*
X141253500Y-120869100D02*
X141192500Y-120808100D01*
X141192500Y-120808100D02*
X132964500Y-120808100D01*
X132964500Y-120808100D02*
X132447500Y-121325100D01*
X132447500Y-121325100D02*
X84407100Y-121325100D01*
X84407100Y-121325100D02*
X78684000Y-115602000D01*
X153670000Y-119380000D02*
X152544700Y-119380000D01*
X155084700Y-119380000D02*
X155084700Y-119661500D01*
X155084700Y-119661500D02*
X153426800Y-121319400D01*
X153426800Y-121319400D02*
X141066900Y-121319400D01*
X141066900Y-121319400D02*
X141005900Y-121258400D01*
X141005900Y-121258400D02*
X133151100Y-121258400D01*
X133151100Y-121258400D02*
X132634100Y-121775400D01*
X132634100Y-121775400D02*
X83625100Y-121775400D01*
X83625100Y-121775400D02*
X77424200Y-115574500D01*
X156210000Y-119380000D02*
X155084700Y-119380000D01*
X157624700Y-119380000D02*
X157624700Y-119661300D01*
X157624700Y-119661300D02*
X155516300Y-121769700D01*
X155516300Y-121769700D02*
X140880300Y-121769700D01*
X140880300Y-121769700D02*
X140819300Y-121708700D01*
X140819300Y-121708700D02*
X133337700Y-121708700D01*
X133337700Y-121708700D02*
X132820700Y-122225700D01*
X132820700Y-122225700D02*
X82593200Y-122225700D01*
X82593200Y-122225700D02*
X82318100Y-121950600D01*
X158750000Y-119380000D02*
X157624700Y-119380000D01*
X160164700Y-119380000D02*
X160164700Y-119661300D01*
X160164700Y-119661300D02*
X157606000Y-122220000D01*
X157606000Y-122220000D02*
X140693700Y-122220000D01*
X140693700Y-122220000D02*
X140632700Y-122159000D01*
X140632700Y-122159000D02*
X133524300Y-122159000D01*
X133524300Y-122159000D02*
X133007300Y-122676000D01*
X133007300Y-122676000D02*
X82003500Y-122676000D01*
X82003500Y-122676000D02*
X66007500Y-106680000D01*
X66007500Y-106680000D02*
X61830200Y-106680000D01*
X61830200Y-106680000D02*
X56158300Y-101008100D01*
X56158300Y-101008100D02*
X56158300Y-98876200D01*
X56158300Y-98876200D02*
X53707400Y-96425300D01*
X53707400Y-96425300D02*
X53340000Y-96425300D01*
X161290000Y-119380000D02*
X160164700Y-119380000D01*
X53340000Y-95250000D02*
X53340000Y-96425300D01*
X162704700Y-119380000D02*
X162704700Y-119661300D01*
X162704700Y-119661300D02*
X159695700Y-122670300D01*
X159695700Y-122670300D02*
X140507100Y-122670300D01*
X140507100Y-122670300D02*
X140446100Y-122609300D01*
X140446100Y-122609300D02*
X133710900Y-122609300D01*
X133710900Y-122609300D02*
X133193900Y-123126300D01*
X133193900Y-123126300D02*
X81428000Y-123126300D01*
X81428000Y-123126300D02*
X81152900Y-122851200D01*
X163830000Y-119380000D02*
X162704700Y-119380000D01*
X165244700Y-119380000D02*
X165244700Y-119661400D01*
X165244700Y-119661400D02*
X161785500Y-123120600D01*
X161785500Y-123120600D02*
X140320500Y-123120600D01*
X140320500Y-123120600D02*
X140259500Y-123059600D01*
X140259500Y-123059600D02*
X133897500Y-123059600D01*
X133897500Y-123059600D02*
X133380500Y-123576600D01*
X133380500Y-123576600D02*
X80628200Y-123576600D01*
X80628200Y-123576600D02*
X66271600Y-109220000D01*
X66271600Y-109220000D02*
X61761700Y-109220000D01*
X61761700Y-109220000D02*
X54047000Y-101505300D01*
X54047000Y-101505300D02*
X53340000Y-101505300D01*
X53340000Y-100330000D02*
X53340000Y-101505300D01*
X166370000Y-119380000D02*
X165244700Y-119380000D01*
X167784700Y-119380000D02*
X167784700Y-119661300D01*
X167784700Y-119661300D02*
X163875100Y-123570900D01*
X163875100Y-123570900D02*
X140133900Y-123570900D01*
X140133900Y-123570900D02*
X140072900Y-123509900D01*
X140072900Y-123509900D02*
X134084100Y-123509900D01*
X134084100Y-123509900D02*
X133567100Y-124026900D01*
X133567100Y-124026900D02*
X80441600Y-124026900D01*
X80441600Y-124026900D02*
X68269300Y-111854600D01*
X68269300Y-111854600D02*
X61892500Y-111854600D01*
X61892500Y-111854600D02*
X54083200Y-104045300D01*
X54083200Y-104045300D02*
X53340000Y-104045300D01*
X53340000Y-102870000D02*
X53340000Y-104045300D01*
X168910000Y-119380000D02*
X167784700Y-119380000D01*
X170324700Y-119380000D02*
X170324700Y-119661300D01*
X170324700Y-119661300D02*
X165964800Y-124021200D01*
X165964800Y-124021200D02*
X139947300Y-124021200D01*
X139947300Y-124021200D02*
X139886300Y-123960200D01*
X139886300Y-123960200D02*
X134270700Y-123960200D01*
X134270700Y-123960200D02*
X133698800Y-124532100D01*
X133698800Y-124532100D02*
X71565600Y-124532100D01*
X71565600Y-124532100D02*
X54515300Y-107481800D01*
X54515300Y-107481800D02*
X54515300Y-107369600D01*
X54515300Y-107369600D02*
X53731000Y-106585300D01*
X53731000Y-106585300D02*
X53340000Y-106585300D01*
X53340000Y-105410000D02*
X53340000Y-106585300D01*
X171450000Y-119380000D02*
X170324700Y-119380000D01*
X53340000Y-125730000D02*
X54515300Y-125730000D01*
X146050000Y-93980000D02*
X147175300Y-93980000D01*
X147175300Y-93980000D02*
X148300700Y-92854600D01*
X148300700Y-92854600D02*
X154618800Y-92854600D01*
X154618800Y-92854600D02*
X159268300Y-97504100D01*
X159268300Y-97504100D02*
X159268300Y-108793900D01*
X159268300Y-108793900D02*
X160819800Y-110345400D01*
X160819800Y-110345400D02*
X161946400Y-110345400D01*
X161946400Y-110345400D02*
X168346400Y-116745400D01*
X168346400Y-116745400D02*
X175576000Y-116745400D01*
X175576000Y-116745400D02*
X176441400Y-117610800D01*
X176441400Y-117610800D02*
X176441400Y-124709200D01*
X176441400Y-124709200D02*
X171093500Y-130057100D01*
X171093500Y-130057100D02*
X58842400Y-130057100D01*
X58842400Y-130057100D02*
X54515300Y-125730000D01*
X147175300Y-96520000D02*
X148304200Y-95391100D01*
X148304200Y-95391100D02*
X154187600Y-95391100D01*
X154187600Y-95391100D02*
X158763400Y-99966900D01*
X158763400Y-99966900D02*
X158763400Y-110825200D01*
X158763400Y-110825200D02*
X160968200Y-113030000D01*
X160968200Y-113030000D02*
X162525200Y-113030000D01*
X162525200Y-113030000D02*
X167154900Y-117659700D01*
X167154900Y-117659700D02*
X172023000Y-117659700D01*
X172023000Y-117659700D02*
X173065300Y-118702000D01*
X173065300Y-118702000D02*
X173065300Y-127448400D01*
X173065300Y-127448400D02*
X170909700Y-129604000D01*
X170909700Y-129604000D02*
X60929300Y-129604000D01*
X60929300Y-129604000D02*
X54515300Y-123190000D01*
X53340000Y-123190000D02*
X54515300Y-123190000D01*
X146050000Y-96520000D02*
X147175300Y-96520000D01*
X54515300Y-120650000D02*
X61985600Y-128120300D01*
X61985600Y-128120300D02*
X129275200Y-128120300D01*
X129275200Y-128120300D02*
X129791700Y-128636800D01*
X129791700Y-128636800D02*
X153653400Y-128636800D01*
X153653400Y-128636800D02*
X154940000Y-127350200D01*
X154940000Y-127350200D02*
X154940000Y-126643100D01*
X154940000Y-126643100D02*
X156001800Y-125581300D01*
X156001800Y-125581300D02*
X166932700Y-125581300D01*
X166932700Y-125581300D02*
X172614900Y-119899100D01*
X172614900Y-119899100D02*
X172614900Y-118888500D01*
X172614900Y-118888500D02*
X171836500Y-118110100D01*
X171836500Y-118110100D02*
X163497400Y-118110100D01*
X163497400Y-118110100D02*
X155535200Y-110147900D01*
X155535200Y-110147900D02*
X155535200Y-101865000D01*
X155535200Y-101865000D02*
X154000200Y-100330000D01*
X154000200Y-100330000D02*
X153139800Y-100330000D01*
X153139800Y-100330000D02*
X151869800Y-99060000D01*
X151869800Y-99060000D02*
X146050000Y-99060000D01*
X53340000Y-120650000D02*
X54515300Y-120650000D01*
X54515300Y-118110000D02*
X63258200Y-126852900D01*
X63258200Y-126852900D02*
X136054900Y-126852900D01*
X53340000Y-118110000D02*
X54515300Y-118110000D01*
X54515300Y-115570000D02*
X65326900Y-126381600D01*
X65326900Y-126381600D02*
X135443800Y-126381600D01*
X135443800Y-126381600D02*
X135701800Y-126123600D01*
X135701800Y-126123600D02*
X136460900Y-126123600D01*
X136460900Y-126123600D02*
X136698200Y-126360900D01*
X136698200Y-126360900D02*
X139226600Y-126360900D01*
X139226600Y-126360900D02*
X139830900Y-125756600D01*
X53340000Y-115570000D02*
X54515300Y-115570000D01*
X53340000Y-113030000D02*
X54515300Y-113030000D01*
X137506100Y-125586100D02*
X135380700Y-125586100D01*
X135380700Y-125586100D02*
X135035600Y-125931200D01*
X135035600Y-125931200D02*
X67416500Y-125931200D01*
X67416500Y-125931200D02*
X54515300Y-113030000D01*
X54515300Y-110490000D02*
X69477500Y-125452200D01*
X69477500Y-125452200D02*
X134205300Y-125452200D01*
X134205300Y-125452200D02*
X134796700Y-124860800D01*
X134796700Y-124860800D02*
X138346400Y-124860800D01*
X138346400Y-124860800D02*
X138652600Y-125167000D01*
X53340000Y-110490000D02*
X54515300Y-110490000D01*
X139601100Y-124700800D02*
X139310800Y-124410500D01*
X139310800Y-124410500D02*
X134534100Y-124410500D01*
X134534100Y-124410500D02*
X133956300Y-124988300D01*
X133956300Y-124988300D02*
X70378300Y-124988300D01*
X70378300Y-124988300D02*
X53340000Y-107950000D01*
X53340000Y-83914700D02*
X52972600Y-83914700D01*
X52972600Y-83914700D02*
X52164700Y-83106800D01*
X52164700Y-83106800D02*
X52164700Y-82033900D01*
X52164700Y-82033900D02*
X52918600Y-81280000D01*
X52918600Y-81280000D02*
X53970200Y-81280000D01*
X53970200Y-81280000D02*
X59239200Y-76011000D01*
X59239200Y-76011000D02*
X62560500Y-76011000D01*
X62560500Y-76011000D02*
X78111900Y-60459600D01*
X78111900Y-60459600D02*
X78111900Y-58999500D01*
X78111900Y-58999500D02*
X78763600Y-58347800D01*
X78763600Y-58347800D02*
X79684100Y-58347800D01*
X79684100Y-58347800D02*
X80487200Y-59150900D01*
X80487200Y-59150900D02*
X80487200Y-59866600D01*
X80487200Y-59866600D02*
X88342900Y-67722300D01*
X88342900Y-67722300D02*
X106148200Y-67722300D01*
X106148200Y-67722300D02*
X106198300Y-67772400D01*
X106198300Y-67772400D02*
X142847100Y-67772400D01*
X142847100Y-67772400D02*
X144924700Y-69850000D01*
X53340000Y-85090000D02*
X53340000Y-83914700D01*
X146050000Y-69850000D02*
X144924700Y-69850000D01*
X54515300Y-82550000D02*
X55690600Y-81374700D01*
X55690600Y-81374700D02*
X64659900Y-81374700D01*
X64659900Y-81374700D02*
X69834600Y-76200000D01*
X69834600Y-76200000D02*
X86355300Y-76200000D01*
X86355300Y-76200000D02*
X88589600Y-73965700D01*
X88589600Y-73965700D02*
X91584600Y-73965700D01*
X91584600Y-73965700D02*
X91890300Y-73660000D01*
X91890300Y-73660000D02*
X93975300Y-73660000D01*
X93975300Y-73660000D02*
X96114500Y-71520800D01*
X96114500Y-71520800D02*
X98770300Y-71520800D01*
X98770300Y-71520800D02*
X99153200Y-71137900D01*
X99153200Y-71137900D02*
X101236400Y-71137900D01*
X103854800Y-68447700D02*
X104061100Y-68241400D01*
X104061100Y-68241400D02*
X140776100Y-68241400D01*
X140776100Y-68241400D02*
X142365100Y-69830400D01*
X53340000Y-82550000D02*
X54515300Y-82550000D01*
X53340000Y-80010000D02*
X51665200Y-81684800D01*
X51665200Y-81684800D02*
X51665200Y-85148200D01*
X51665200Y-85148200D02*
X52804300Y-86287300D01*
X52804300Y-86287300D02*
X64827300Y-86287300D01*
X64827300Y-86287300D02*
X67294600Y-83820000D01*
X67294600Y-83820000D02*
X79687700Y-83820000D01*
X79687700Y-83820000D02*
X84626600Y-78881100D01*
X84626600Y-78881100D02*
X87290600Y-78881100D01*
X87290600Y-78881100D02*
X89554700Y-81145200D01*
X89554700Y-81145200D02*
X120287100Y-81145200D01*
X120287100Y-81145200D02*
X122692300Y-78740000D01*
X122692300Y-78740000D02*
X141114700Y-78740000D01*
X141114700Y-78740000D02*
X144924700Y-74930000D01*
X146050000Y-74930000D02*
X144924700Y-74930000D01*
X149143600Y-60565200D02*
X94549200Y-60565200D01*
X94549200Y-60565200D02*
X90487300Y-56503300D01*
X90487300Y-56503300D02*
X76868800Y-56503300D01*
X76868800Y-56503300D02*
X74275000Y-59097100D01*
X74275000Y-59097100D02*
X74275000Y-59867300D01*
X74275000Y-59867300D02*
X68836900Y-65305400D01*
X68836900Y-65305400D02*
X53661500Y-65305400D01*
X53661500Y-65305400D02*
X52118700Y-66848200D01*
X52118700Y-66848200D02*
X52118700Y-76248700D01*
X52118700Y-76248700D02*
X53340000Y-77470000D01*
X146050000Y-77470000D02*
X148879500Y-77470000D01*
X148879500Y-77470000D02*
X152552000Y-81142500D01*
X152552000Y-81142500D02*
X157645200Y-81142500D01*
X53340000Y-74930000D02*
X53340000Y-76105300D01*
X127050300Y-96342100D02*
X125733000Y-97659400D01*
X125733000Y-97659400D02*
X118902200Y-97659400D01*
X118902200Y-97659400D02*
X116637500Y-95394700D01*
X116637500Y-95394700D02*
X82054900Y-95394700D01*
X82054900Y-95394700D02*
X78100200Y-91440000D01*
X78100200Y-91440000D02*
X67294600Y-91440000D01*
X67294600Y-91440000D02*
X64754600Y-88900000D01*
X64754600Y-88900000D02*
X52868800Y-88900000D01*
X52868800Y-88900000D02*
X51196600Y-87227800D01*
X51196600Y-87227800D02*
X51196600Y-80477000D01*
X51196600Y-80477000D02*
X52933600Y-78740000D01*
X52933600Y-78740000D02*
X53752400Y-78740000D01*
X53752400Y-78740000D02*
X54515300Y-77977100D01*
X54515300Y-77977100D02*
X54515300Y-76913200D01*
X54515300Y-76913200D02*
X53707400Y-76105300D01*
X53707400Y-76105300D02*
X53340000Y-76105300D01*
X53340000Y-72390000D02*
X65512600Y-72390000D01*
X65512600Y-72390000D02*
X77661500Y-60241100D01*
X77661500Y-60241100D02*
X77661500Y-58795000D01*
X77661500Y-58795000D02*
X78602100Y-57854400D01*
X78602100Y-57854400D02*
X81728400Y-57854400D01*
X81728400Y-57854400D02*
X84307400Y-60433400D01*
X84307400Y-60433400D02*
X84307400Y-61115700D01*
X84307400Y-61115700D02*
X90452600Y-67260900D01*
X90452600Y-67260900D02*
X106323700Y-67260900D01*
X106323700Y-67260900D02*
X106384900Y-67322100D01*
X106384900Y-67322100D02*
X145125900Y-67322100D01*
X145125900Y-67322100D02*
X150398100Y-72594300D01*
X150398100Y-72594300D02*
X150398100Y-74467000D01*
X150398100Y-74467000D02*
X150771300Y-74840200D01*
X150771300Y-74840200D02*
X150771300Y-74964500D01*
X53340000Y-69850000D02*
X67415700Y-69850000D01*
X67415700Y-69850000D02*
X77211100Y-60054600D01*
X77211100Y-60054600D02*
X77211100Y-58541200D01*
X77211100Y-58541200D02*
X78348300Y-57404000D01*
X78348300Y-57404000D02*
X82494400Y-57404000D01*
X82494400Y-57404000D02*
X87826300Y-62735900D01*
X87826300Y-62735900D02*
X127993400Y-62735900D01*
X127993400Y-62735900D02*
X128237600Y-62980100D01*
X128237600Y-62980100D02*
X134512800Y-62980100D01*
X134512800Y-62980100D02*
X134583400Y-62909500D01*
X151298400Y-74016700D02*
X151298400Y-71090100D01*
X151298400Y-71090100D02*
X147431400Y-67223100D01*
X147175300Y-87630000D02*
X148300600Y-86504700D01*
X148300600Y-86504700D02*
X154442800Y-86504700D01*
X154442800Y-86504700D02*
X159531200Y-81416300D01*
X159531200Y-81416300D02*
X170063900Y-81416300D01*
X170063900Y-81416300D02*
X172378100Y-83730500D01*
X172378100Y-83730500D02*
X175808700Y-83730500D01*
X175808700Y-83730500D02*
X176900400Y-82638800D01*
X176900400Y-82638800D02*
X176900400Y-77445800D01*
X176900400Y-77445800D02*
X175654600Y-76200000D01*
X175654600Y-76200000D02*
X174841100Y-76200000D01*
X174841100Y-76200000D02*
X174078400Y-75437300D01*
X174078400Y-75437300D02*
X174078400Y-72948700D01*
X174078400Y-72948700D02*
X168439700Y-67310000D01*
X168439700Y-67310000D02*
X165336600Y-67310000D01*
X165336600Y-67310000D02*
X160424800Y-62398200D01*
X160424800Y-62398200D02*
X150860100Y-62398200D01*
X150860100Y-62398200D02*
X149919200Y-61457300D01*
X149919200Y-61457300D02*
X135898700Y-61457300D01*
X135898700Y-61457300D02*
X135520600Y-61079200D01*
X135520600Y-61079200D02*
X87031500Y-61079200D01*
X87031500Y-61079200D02*
X82906000Y-56953700D01*
X82906000Y-56953700D02*
X78161700Y-56953700D01*
X78161700Y-56953700D02*
X76760800Y-58354600D01*
X76760800Y-58354600D02*
X76760800Y-59868000D01*
X76760800Y-59868000D02*
X69318800Y-67310000D01*
X69318800Y-67310000D02*
X53340000Y-67310000D01*
X146050000Y-87630000D02*
X147175300Y-87630000D01*
X95250000Y-49530000D02*
X97790000Y-49530000D01*
X92710000Y-49530000D02*
X95250000Y-49530000D01*
X92710000Y-49530000D02*
X90170000Y-49530000D01*
X100330000Y-49530000D02*
X97790000Y-49530000D01*
X102870000Y-49530000D02*
X100330000Y-49530000D01*
X105410000Y-49530000D02*
X102870000Y-49530000D01*
X107950000Y-49530000D02*
X105410000Y-49530000D01*
X110490000Y-49530000D02*
X107950000Y-49530000D01*
X113030000Y-49530000D02*
X110490000Y-49530000D01*
X115570000Y-49530000D02*
X113030000Y-49530000D01*
X118110000Y-49530000D02*
X115570000Y-49530000D01*
X97790000Y-64770000D02*
X95250000Y-64770000D01*
X100330000Y-64770000D02*
X97790000Y-64770000D01*
X92710000Y-64770000D02*
X90170000Y-64770000D01*
X95250000Y-64770000D02*
X92710000Y-64770000D01*
X113030000Y-64770000D02*
X115570000Y-64770000D01*
X110490000Y-64770000D02*
X113030000Y-64770000D01*
X115570000Y-64770000D02*
X118110000Y-64770000D01*
X107950000Y-64770000D02*
X110490000Y-64770000D01*
X100330000Y-64770000D02*
X102870000Y-64770000D01*
D22*
X61696600Y-55168800D02*
X63461900Y-55168800D01*
X80187800Y-53111400D02*
X78722000Y-51645600D01*
X78722000Y-51645600D02*
X66985100Y-51645600D01*
X66985100Y-51645600D02*
X63461900Y-55168800D01*
D23*
X127000000Y-56187300D02*
X126887400Y-56074700D01*
X126887400Y-56074700D02*
X111760000Y-56074700D01*
X127000000Y-57150000D02*
X127000000Y-56187300D01*
X111760000Y-57150000D02*
X111760000Y-56074700D01*
X123190000Y-49530000D02*
X120650000Y-49530000D01*
X125730000Y-49530000D02*
X123190000Y-49530000D01*
X128270000Y-49530000D02*
X125730000Y-49530000D01*
X130810000Y-49530000D02*
X128270000Y-49530000D01*
X133350000Y-49530000D02*
X130810000Y-49530000D01*
X135890000Y-49530000D02*
X133350000Y-49530000D01*
X138430000Y-49530000D02*
X135890000Y-49530000D01*
X140970000Y-49530000D02*
X138430000Y-49530000D01*
X143510000Y-49530000D02*
X140970000Y-49530000D01*
X146050000Y-49530000D02*
X143510000Y-49530000D01*
X148590000Y-49530000D02*
X146050000Y-49530000D01*
X140970000Y-57150000D02*
X140970000Y-49530000D01*
X143510000Y-64770000D02*
X146050000Y-64770000D01*
X140970000Y-64770000D02*
X143510000Y-64770000D01*
X123190000Y-64770000D02*
X125730000Y-64770000D01*
X120650000Y-64770000D02*
X123190000Y-64770000D01*
X146050000Y-64770000D02*
X148590000Y-64770000D01*
X138430000Y-64770000D02*
X140970000Y-64770000D01*
X135890000Y-64770000D02*
X138430000Y-64770000D01*
X133350000Y-64770000D02*
X135890000Y-64770000D01*
X130810000Y-64770000D02*
X133350000Y-64770000D01*
X128270000Y-64770000D02*
X130810000Y-64770000D01*
X125730000Y-64770000D02*
X128270000Y-64770000D01*
X100330000Y-114300000D02*
X101455300Y-114300000D01*
X115570000Y-114300000D02*
X114444700Y-114300000D01*
X114444700Y-114300000D02*
X113319400Y-115425300D01*
X113319400Y-115425300D02*
X102580600Y-115425300D01*
X102580600Y-115425300D02*
X101455300Y-114300000D01*
X116132700Y-114300000D02*
X115570000Y-114300000D01*
X115570000Y-87630000D02*
X116695300Y-87630000D01*
X130810000Y-87630000D02*
X126320000Y-87630000D01*
X126320000Y-87630000D02*
X125194700Y-88755300D01*
X125194700Y-88755300D02*
X117820600Y-88755300D01*
X117820600Y-88755300D02*
X116695300Y-87630000D01*
X115570000Y-87630000D02*
X114444700Y-87630000D01*
X114444700Y-87630000D02*
X113319400Y-88755300D01*
X113319400Y-88755300D02*
X102580600Y-88755300D01*
X102580600Y-88755300D02*
X101455300Y-87630000D01*
X100330000Y-87630000D02*
X101455300Y-87630000D01*
X63405300Y-102870000D02*
X67015600Y-102870000D01*
X67015600Y-102870000D02*
X73365600Y-109220000D01*
X73365600Y-109220000D02*
X82620200Y-109220000D01*
X82620200Y-109220000D02*
X87700200Y-114300000D01*
X87700200Y-114300000D02*
X99204700Y-114300000D01*
X116132700Y-114300000D02*
X116695300Y-114300000D01*
X130810000Y-114300000D02*
X129684700Y-114300000D01*
X129684700Y-114300000D02*
X128559400Y-115425300D01*
X128559400Y-115425300D02*
X117820600Y-115425300D01*
X117820600Y-115425300D02*
X116695300Y-114300000D01*
X62230000Y-102870000D02*
X63405300Y-102870000D01*
X100330000Y-114300000D02*
X99204700Y-114300000D01*
X115570000Y-111760000D02*
X116695300Y-111760000D01*
X116695300Y-111760000D02*
X117828500Y-112893200D01*
X117828500Y-112893200D02*
X123819000Y-112893200D01*
X123819000Y-112893200D02*
X124952200Y-111760000D01*
X124952200Y-111760000D02*
X130810000Y-111760000D01*
X115007400Y-111760000D02*
X115570000Y-111760000D01*
X101455300Y-111760000D02*
X102580600Y-112885300D01*
X102580600Y-112885300D02*
X113319400Y-112885300D01*
X113319400Y-112885300D02*
X114444700Y-111760000D01*
X62230000Y-97790000D02*
X64246100Y-97790000D01*
X64246100Y-97790000D02*
X73063000Y-106606900D01*
X73063000Y-106606900D02*
X84993300Y-106606900D01*
X84993300Y-106606900D02*
X90146400Y-111760000D01*
X90146400Y-111760000D02*
X99204700Y-111760000D01*
X100330000Y-111760000D02*
X99204700Y-111760000D01*
X100892700Y-111760000D02*
X100330000Y-111760000D01*
X114444700Y-85090000D02*
X113319400Y-86215300D01*
X113319400Y-86215300D02*
X102580600Y-86215300D01*
X102580600Y-86215300D02*
X101455300Y-85090000D01*
X129684700Y-85090000D02*
X128559400Y-86215300D01*
X128559400Y-86215300D02*
X121286900Y-86215300D01*
X121286900Y-86215300D02*
X120161600Y-85090000D01*
X120161600Y-85090000D02*
X115570000Y-85090000D01*
X100892700Y-111760000D02*
X101455300Y-111760000D01*
X130810000Y-85090000D02*
X129684700Y-85090000D01*
X115007400Y-85090000D02*
X115570000Y-85090000D01*
X115007400Y-85090000D02*
X114444700Y-85090000D01*
X100330000Y-85090000D02*
X101455300Y-85090000D01*
X115007400Y-111760000D02*
X114444700Y-111760000D01*
X101455300Y-104140000D02*
X101800100Y-104140000D01*
X101800100Y-104140000D02*
X102978100Y-102962000D01*
X102978100Y-102962000D02*
X109800400Y-102962000D01*
X109800400Y-102962000D02*
X110978400Y-104140000D01*
X110978400Y-104140000D02*
X115570000Y-104140000D01*
X99204700Y-104140000D02*
X99096100Y-104031400D01*
X99096100Y-104031400D02*
X85166700Y-104031400D01*
X85166700Y-104031400D02*
X85130400Y-104067700D01*
X85130400Y-104067700D02*
X72223000Y-104067700D01*
X72223000Y-104067700D02*
X63405300Y-95250000D01*
X100330000Y-104140000D02*
X101455300Y-104140000D01*
X115570000Y-104140000D02*
X120654700Y-104140000D01*
X120654700Y-104140000D02*
X121816000Y-102978700D01*
X121816000Y-102978700D02*
X125079200Y-102978700D01*
X125079200Y-102978700D02*
X126240500Y-104140000D01*
X126240500Y-104140000D02*
X130810000Y-104140000D01*
X100330000Y-104140000D02*
X99204700Y-104140000D01*
X62230000Y-95250000D02*
X63405300Y-95250000D01*
X100330000Y-77470000D02*
X101455300Y-77470000D01*
X101455300Y-77470000D02*
X102588500Y-76336800D01*
X102588500Y-76336800D02*
X108579000Y-76336800D01*
X108579000Y-76336800D02*
X109712200Y-77470000D01*
X109712200Y-77470000D02*
X115570000Y-77470000D01*
X118270800Y-95171900D02*
X118441500Y-95342600D01*
X118441500Y-95342600D02*
X131227700Y-95342600D01*
X131227700Y-95342600D02*
X131951000Y-96065900D01*
X131951000Y-96065900D02*
X131951000Y-97027300D01*
X131951000Y-97027300D02*
X131188300Y-97790000D01*
X131188300Y-97790000D02*
X130488200Y-97790000D01*
X130488200Y-97790000D02*
X129684700Y-98593500D01*
X129684700Y-98593500D02*
X129684700Y-99630800D01*
X129684700Y-99630800D02*
X130528600Y-100474700D01*
X130528600Y-100474700D02*
X130810000Y-100474700D01*
X100330000Y-101600000D02*
X101455300Y-101600000D01*
X102633300Y-102281000D02*
X102136300Y-102281000D01*
X102136300Y-102281000D02*
X101455300Y-101600000D01*
X115570000Y-101600000D02*
X114444700Y-101600000D01*
X102903600Y-100474700D02*
X113319400Y-100474700D01*
X113319400Y-100474700D02*
X114444700Y-101600000D01*
X130810000Y-101600000D02*
X130810000Y-100474700D01*
X63405300Y-92710000D02*
X72295300Y-101600000D01*
X72295300Y-101600000D02*
X100330000Y-101600000D01*
X62230000Y-92710000D02*
X63405300Y-92710000D01*
X107950000Y-101600000D02*
X106824700Y-101600000D01*
X106824700Y-101600000D02*
X106761800Y-101537100D01*
X106761800Y-101537100D02*
X102565700Y-101537100D01*
X102565700Y-101537100D02*
X101358600Y-100330000D01*
X101358600Y-100330000D02*
X85508100Y-100330000D01*
X85508100Y-100330000D02*
X79158100Y-93980000D01*
X79158100Y-93980000D02*
X67215300Y-93980000D01*
X67215300Y-93980000D02*
X63405300Y-90170000D01*
X108512700Y-101600000D02*
X107950000Y-101600000D01*
X62230000Y-90170000D02*
X63405300Y-90170000D01*
X107950000Y-74930000D02*
X109075300Y-74930000D01*
X123190000Y-74930000D02*
X122064700Y-74930000D01*
X122064700Y-74930000D02*
X120939400Y-76055300D01*
X120939400Y-76055300D02*
X110200600Y-76055300D01*
X110200600Y-76055300D02*
X109075300Y-74930000D01*
X123752700Y-74930000D02*
X123190000Y-74930000D01*
X123752700Y-74930000D02*
X124315300Y-74930000D01*
X108512700Y-101600000D02*
X109075300Y-101600000D01*
X138430000Y-74930000D02*
X137304700Y-74930000D01*
X137304700Y-74930000D02*
X136179400Y-73804700D01*
X136179400Y-73804700D02*
X125440600Y-73804700D01*
X125440600Y-73804700D02*
X124315300Y-74930000D01*
X137304700Y-101600000D02*
X136179400Y-102725300D01*
X136179400Y-102725300D02*
X125851600Y-102725300D01*
X125851600Y-102725300D02*
X124726300Y-101600000D01*
X124726300Y-101600000D02*
X124315300Y-101600000D01*
X122064700Y-101600000D02*
X120939400Y-102725300D01*
X120939400Y-102725300D02*
X110200600Y-102725300D01*
X110200600Y-102725300D02*
X109075300Y-101600000D01*
X123190000Y-101600000D02*
X122064700Y-101600000D01*
X123190000Y-101600000D02*
X124315300Y-101600000D01*
X138430000Y-101600000D02*
X137304700Y-101600000D01*
X123190000Y-77470000D02*
X124315300Y-77470000D01*
X138430000Y-77470000D02*
X137304700Y-77470000D01*
X137304700Y-77470000D02*
X136179400Y-76344700D01*
X136179400Y-76344700D02*
X125440600Y-76344700D01*
X125440600Y-76344700D02*
X124315300Y-77470000D01*
X138430000Y-104140000D02*
X137304700Y-104140000D01*
X123190000Y-104140000D02*
X124315300Y-104140000D01*
X124315300Y-104140000D02*
X125440600Y-105265300D01*
X125440600Y-105265300D02*
X136179400Y-105265300D01*
X136179400Y-105265300D02*
X137304700Y-104140000D01*
X122627400Y-104140000D02*
X123190000Y-104140000D01*
X122627400Y-104140000D02*
X122064700Y-104140000D01*
X107950000Y-104140000D02*
X109075300Y-104140000D01*
X122064700Y-104140000D02*
X120939400Y-105265300D01*
X120939400Y-105265300D02*
X110200600Y-105265300D01*
X110200600Y-105265300D02*
X109075300Y-104140000D01*
X107950000Y-104140000D02*
X106824700Y-104140000D01*
X106824700Y-104140000D02*
X105636400Y-105328300D01*
X105636400Y-105328300D02*
X86038700Y-105328300D01*
X86038700Y-105328300D02*
X85467100Y-104756700D01*
X109075300Y-77470000D02*
X110200600Y-78595300D01*
X110200600Y-78595300D02*
X120939400Y-78595300D01*
X120939400Y-78595300D02*
X122064700Y-77470000D01*
X107950000Y-77470000D02*
X109075300Y-77470000D01*
X123190000Y-77470000D02*
X122064700Y-77470000D01*
X137304700Y-85090000D02*
X136134900Y-83920200D01*
X136134900Y-83920200D02*
X125485100Y-83920200D01*
X125485100Y-83920200D02*
X124315300Y-85090000D01*
X123190000Y-85090000D02*
X124315300Y-85090000D01*
X138430000Y-85090000D02*
X137304700Y-85090000D01*
X107950000Y-111760000D02*
X109075300Y-111760000D01*
X123190000Y-111760000D02*
X122064700Y-111760000D01*
X122064700Y-111760000D02*
X120939400Y-110634700D01*
X120939400Y-110634700D02*
X110200600Y-110634700D01*
X110200600Y-110634700D02*
X109075300Y-111760000D01*
X123752700Y-111760000D02*
X123190000Y-111760000D01*
X107950000Y-85090000D02*
X109075300Y-85090000D01*
X123190000Y-85090000D02*
X122064700Y-85090000D01*
X122064700Y-85090000D02*
X120939400Y-83964700D01*
X120939400Y-83964700D02*
X110200600Y-83964700D01*
X110200600Y-83964700D02*
X109075300Y-85090000D01*
X123752700Y-111760000D02*
X124315300Y-111760000D01*
X107950000Y-111760000D02*
X106824700Y-111760000D01*
X106824700Y-111760000D02*
X105699400Y-110634700D01*
X105699400Y-110634700D02*
X89883300Y-110634700D01*
X89883300Y-110634700D02*
X84759800Y-105511200D01*
X84759800Y-105511200D02*
X81348300Y-105511200D01*
X124315300Y-111760000D02*
X125440600Y-110634700D01*
X125440600Y-110634700D02*
X136179400Y-110634700D01*
X136179400Y-110634700D02*
X137304700Y-111760000D01*
X138430000Y-111760000D02*
X137304700Y-111760000D01*
X124315300Y-87630000D02*
X124781600Y-87163700D01*
X124781600Y-87163700D02*
X129186600Y-87163700D01*
X129186600Y-87163700D02*
X129856600Y-86493700D01*
X129856600Y-86493700D02*
X134627300Y-86493700D01*
X134627300Y-86493700D02*
X135955300Y-87821700D01*
X135955300Y-87821700D02*
X137113000Y-87821700D01*
X137113000Y-87821700D02*
X137304700Y-87630000D01*
X107950000Y-114300000D02*
X102207000Y-114300000D01*
X102207000Y-114300000D02*
X101081600Y-113174600D01*
X101081600Y-113174600D02*
X88268300Y-113174600D01*
X88268300Y-113174600D02*
X82836500Y-107742800D01*
X107950000Y-114300000D02*
X113034700Y-114300000D01*
X113034700Y-114300000D02*
X114162900Y-113171800D01*
X114162900Y-113171800D02*
X116204000Y-113171800D01*
X116204000Y-113171800D02*
X117332200Y-114300000D01*
X117332200Y-114300000D02*
X123190000Y-114300000D01*
X123752700Y-114300000D02*
X123190000Y-114300000D01*
X123752700Y-114300000D02*
X124315300Y-114300000D01*
X123190000Y-87630000D02*
X124315300Y-87630000D01*
X138430000Y-87630000D02*
X137304700Y-87630000D01*
X107950000Y-87630000D02*
X113807800Y-87630000D01*
X113807800Y-87630000D02*
X114941000Y-86496800D01*
X114941000Y-86496800D02*
X120931500Y-86496800D01*
X120931500Y-86496800D02*
X122064700Y-87630000D01*
X123190000Y-87630000D02*
X122064700Y-87630000D01*
X138430000Y-114300000D02*
X137304700Y-114300000D01*
X137304700Y-114300000D02*
X136179400Y-113174700D01*
X136179400Y-113174700D02*
X125440600Y-113174700D01*
X125440600Y-113174700D02*
X124315300Y-114300000D01*
X62230000Y-80010000D02*
X63405300Y-80010000D01*
X92710000Y-72390000D02*
X91584700Y-72390000D01*
X91584700Y-72390000D02*
X90459400Y-73515300D01*
X90459400Y-73515300D02*
X69900000Y-73515300D01*
X69900000Y-73515300D02*
X63405300Y-80010000D01*
X109075300Y-109220000D02*
X110200600Y-108094700D01*
X110200600Y-108094700D02*
X119975100Y-108094700D01*
X119975100Y-108094700D02*
X122515200Y-105554600D01*
X122515200Y-105554600D02*
X124366400Y-105554600D01*
X107950000Y-109220000D02*
X109075300Y-109220000D01*
X151905500Y-89666200D02*
X152527100Y-89044600D01*
X152527100Y-89044600D02*
X154177700Y-89044600D01*
X154177700Y-89044600D02*
X157007000Y-86215300D01*
X157007000Y-86215300D02*
X166659400Y-86215300D01*
X166659400Y-86215300D02*
X167784700Y-85090000D01*
X168910000Y-85090000D02*
X167784700Y-85090000D01*
X106824700Y-106680000D02*
X105698300Y-107806400D01*
X105698300Y-107806400D02*
X88457500Y-107806400D01*
X88457500Y-107806400D02*
X87494500Y-106843400D01*
X107950000Y-106680000D02*
X106824700Y-106680000D01*
X128538000Y-62254800D02*
X128651600Y-62141200D01*
X128651600Y-62141200D02*
X135083500Y-62141200D01*
X135083500Y-62141200D02*
X135524600Y-62582300D01*
X135524600Y-62582300D02*
X149010900Y-62582300D01*
X149010900Y-62582300D02*
X151014600Y-64586000D01*
X151014600Y-64586000D02*
X159202900Y-64586000D01*
X159202900Y-64586000D02*
X165592300Y-70975400D01*
X165592300Y-70975400D02*
X169111600Y-70975400D01*
X169111600Y-70975400D02*
X171717900Y-73581700D01*
X171717900Y-73581700D02*
X171717900Y-75592100D01*
X171717900Y-75592100D02*
X174865800Y-78740000D01*
X174865800Y-78740000D02*
X175658000Y-78740000D01*
X175658000Y-78740000D02*
X176450100Y-79532100D01*
X176450100Y-79532100D02*
X176450100Y-80555300D01*
X176450100Y-80555300D02*
X175784100Y-81221300D01*
X175784100Y-81221300D02*
X174659100Y-81221300D01*
X174659100Y-81221300D02*
X173447800Y-80010000D01*
X173447800Y-80010000D02*
X168910000Y-80010000D01*
X168910000Y-77470000D02*
X167784700Y-77470000D01*
X106685300Y-66596800D02*
X106785900Y-66496200D01*
X106785900Y-66496200D02*
X148256100Y-66496200D01*
X148256100Y-66496200D02*
X152735300Y-70975400D01*
X152735300Y-70975400D02*
X161571400Y-70975400D01*
X161571400Y-70975400D02*
X167784700Y-77188700D01*
X167784700Y-77188700D02*
X167784700Y-77470000D01*
X168910000Y-74930000D02*
X168273100Y-74930000D01*
X168273100Y-74930000D02*
X161757800Y-68414700D01*
X161757800Y-68414700D02*
X153032100Y-68414700D01*
X153032100Y-68414700D02*
X150562700Y-65945300D01*
X150562700Y-65945300D02*
X107280800Y-65945300D01*
X107280800Y-65945300D02*
X107207000Y-65871500D01*
X107207000Y-65871500D02*
X106384900Y-65871500D01*
X106384900Y-65871500D02*
X106311100Y-65945300D01*
X106311100Y-65945300D02*
X101917200Y-65945300D01*
X101646600Y-63533500D02*
X134181600Y-63533500D01*
X134181600Y-63533500D02*
X134335900Y-63687800D01*
X134335900Y-63687800D02*
X135178200Y-63687800D01*
X135178200Y-63687800D02*
X135298800Y-63567200D01*
X135298800Y-63567200D02*
X149358800Y-63567200D01*
X149358800Y-63567200D02*
X153279500Y-67487900D01*
X153279500Y-67487900D02*
X161467900Y-67487900D01*
X161467900Y-67487900D02*
X166370000Y-72390000D01*
X166370000Y-72390000D02*
X168910000Y-72390000D01*
X168910000Y-69850000D02*
X165365800Y-69850000D01*
X165365800Y-69850000D02*
X159201200Y-63685400D01*
X159201200Y-63685400D02*
X151510400Y-63685400D01*
X151510400Y-63685400D02*
X149741100Y-61916100D01*
X149741100Y-61916100D02*
X135720600Y-61916100D01*
X135720600Y-61916100D02*
X135334000Y-61529500D01*
X135334000Y-61529500D02*
X101880100Y-61529500D01*
X101880100Y-61529500D02*
X101590200Y-61819400D01*
X157000000Y-100793800D02*
X153996200Y-97790000D01*
X153996200Y-97790000D02*
X142132200Y-97790000D01*
X142132200Y-97790000D02*
X138628000Y-94285800D01*
X138628000Y-94285800D02*
X126115700Y-94285800D01*
X126115700Y-94285800D02*
X125863100Y-94033200D01*
X123190000Y-80010000D02*
X124315300Y-80010000D01*
X124315300Y-80010000D02*
X125440600Y-81135300D01*
X125440600Y-81135300D02*
X139472600Y-81135300D01*
X139472600Y-81135300D02*
X141237100Y-82899800D01*
X141237100Y-82899800D02*
X142974100Y-82899800D01*
X116695300Y-72390000D02*
X118482300Y-72390000D01*
X115570000Y-72390000D02*
X116695300Y-72390000D01*
X115570000Y-80010000D02*
X119658900Y-80010000D01*
X144061700Y-92662800D02*
X144338100Y-92386400D01*
X144338100Y-92386400D02*
X162236400Y-92386400D01*
X162236400Y-92386400D02*
X168910000Y-99060000D01*
X132309500Y-84864900D02*
X134024200Y-84864900D01*
X134024200Y-84864900D02*
X136255700Y-87096400D01*
X167784700Y-96520000D02*
X163200700Y-91936000D01*
X163200700Y-91936000D02*
X143332500Y-91936000D01*
X143332500Y-91936000D02*
X141433100Y-93835400D01*
X141433100Y-93835400D02*
X129274800Y-93835400D01*
X129274800Y-93835400D02*
X128711000Y-93271600D01*
X128711000Y-93271600D02*
X124736100Y-93271600D01*
X124736100Y-93271600D02*
X124163800Y-93843900D01*
X124163800Y-93843900D02*
X119574600Y-93843900D01*
X119574600Y-93843900D02*
X117519200Y-91788500D01*
X168910000Y-96520000D02*
X167784700Y-96520000D01*
X167784700Y-93980000D02*
X165173600Y-91368900D01*
X165173600Y-91368900D02*
X137324900Y-91368900D01*
X137324900Y-91368900D02*
X134989700Y-89033700D01*
X134989700Y-89033700D02*
X126640900Y-89033700D01*
X126640900Y-89033700D02*
X124369800Y-91304800D01*
X124369800Y-91304800D02*
X121908100Y-91304800D01*
X121908100Y-91304800D02*
X120773300Y-90170000D01*
X120773300Y-90170000D02*
X115570000Y-90170000D01*
X168910000Y-93980000D02*
X167784700Y-93980000D01*
X131935300Y-99060000D02*
X133084700Y-97910600D01*
X133084700Y-97910600D02*
X141539100Y-97910600D01*
X141539100Y-97910600D02*
X144103200Y-100474700D01*
X144103200Y-100474700D02*
X151419400Y-100474700D01*
X151419400Y-100474700D02*
X152544700Y-101600000D01*
X153670000Y-101600000D02*
X152544700Y-101600000D01*
X130810000Y-99060000D02*
X131935300Y-99060000D01*
X153670000Y-104140000D02*
X152544700Y-104140000D01*
X138430000Y-99060000D02*
X139555300Y-99060000D01*
X139555300Y-99060000D02*
X143510000Y-103014700D01*
X143510000Y-103014700D02*
X151419400Y-103014700D01*
X151419400Y-103014700D02*
X152544700Y-104140000D01*
X153670000Y-106680000D02*
X152544700Y-106680000D01*
X138430000Y-106680000D02*
X139555300Y-106680000D01*
X139555300Y-106680000D02*
X140680600Y-105554700D01*
X140680600Y-105554700D02*
X151419400Y-105554700D01*
X151419400Y-105554700D02*
X152544700Y-106680000D01*
X153670000Y-109220000D02*
X152544700Y-109220000D01*
X138430000Y-109220000D02*
X139555300Y-109220000D01*
X139555300Y-109220000D02*
X140680600Y-108094700D01*
X140680600Y-108094700D02*
X151419400Y-108094700D01*
X151419400Y-108094700D02*
X152544700Y-109220000D01*
X152544700Y-111760000D02*
X147464700Y-116840000D01*
X147464700Y-116840000D02*
X139555300Y-116840000D01*
X138430000Y-116840000D02*
X139555300Y-116840000D01*
X153670000Y-111760000D02*
X152544700Y-111760000D01*
X133207200Y-127889400D02*
X133504300Y-128186500D01*
X133504300Y-128186500D02*
X151639600Y-128186500D01*
X151639600Y-128186500D02*
X152544700Y-127281400D01*
X152544700Y-127281400D02*
X152544700Y-127000000D01*
X153670000Y-127000000D02*
X152544700Y-127000000D01*
X123190000Y-106680000D02*
X124315300Y-106680000D01*
X124315300Y-106680000D02*
X125440600Y-107805300D01*
X125440600Y-107805300D02*
X135215100Y-107805300D01*
X135215100Y-107805300D02*
X137899800Y-110490000D01*
X137899800Y-110490000D02*
X138776700Y-110490000D01*
X138776700Y-110490000D02*
X139561200Y-111274500D01*
X139561200Y-111274500D02*
X139561200Y-114766300D01*
X139561200Y-114766300D02*
X138831400Y-115496100D01*
X138831400Y-115496100D02*
X138141600Y-115496100D01*
X138141600Y-115496100D02*
X137294300Y-116343400D01*
X137294300Y-116343400D02*
X137294300Y-117340600D01*
X137294300Y-117340600D02*
X138063700Y-118110000D01*
X138063700Y-118110000D02*
X147223500Y-118110000D01*
X147223500Y-118110000D02*
X149257300Y-120143800D01*
X128717500Y-128862200D02*
X128942400Y-129087100D01*
X128942400Y-129087100D02*
X168518900Y-129087100D01*
X168518900Y-129087100D02*
X170324700Y-127281300D01*
X170324700Y-127281300D02*
X170324700Y-127000000D01*
X171450000Y-127000000D02*
X170324700Y-127000000D01*
X130810000Y-82550000D02*
X136630100Y-82550000D01*
X136630100Y-82550000D02*
X137788200Y-83708100D01*
X137788200Y-83708100D02*
X140377000Y-83708100D01*
X130810000Y-72390000D02*
X133915000Y-72390000D01*
X133915000Y-72390000D02*
X135044000Y-71261000D01*
X135044000Y-71261000D02*
X146518700Y-71261000D01*
X146518700Y-71261000D02*
X150046000Y-74788300D01*
X150046000Y-74788300D02*
X150046000Y-75284800D01*
X150046000Y-75284800D02*
X152231200Y-77470000D01*
X152231200Y-77470000D02*
X152544700Y-77470000D01*
X153670000Y-77470000D02*
X152544700Y-77470000D01*
X139555300Y-72390000D02*
X140680600Y-73515300D01*
X140680600Y-73515300D02*
X146228900Y-73515300D01*
X146228900Y-73515300D02*
X152544700Y-79831100D01*
X152544700Y-79831100D02*
X152544700Y-80010000D01*
X153670000Y-80010000D02*
X152544700Y-80010000D01*
X138430000Y-72390000D02*
X139555300Y-72390000D01*
X152544700Y-82550000D02*
X151386700Y-81392000D01*
X151386700Y-81392000D02*
X140937300Y-81392000D01*
X140937300Y-81392000D02*
X139555300Y-80010000D01*
X153670000Y-82550000D02*
X152544700Y-82550000D01*
X138430000Y-80010000D02*
X139555300Y-80010000D01*
X152544700Y-85090000D02*
X151419400Y-83964700D01*
X151419400Y-83964700D02*
X141665100Y-83964700D01*
X141665100Y-83964700D02*
X140250400Y-82550000D01*
X140250400Y-82550000D02*
X139555300Y-82550000D01*
X153670000Y-85090000D02*
X152544700Y-85090000D01*
X138430000Y-82550000D02*
X139555300Y-82550000D01*
X139555300Y-90170000D02*
X140680600Y-89044700D01*
X140680600Y-89044700D02*
X151130000Y-89044700D01*
X151130000Y-89044700D02*
X152544700Y-87630000D01*
X138430000Y-90170000D02*
X139555300Y-90170000D01*
X153670000Y-87630000D02*
X152544700Y-87630000D01*
X93835300Y-74930000D02*
X94960600Y-73804700D01*
X94960600Y-73804700D02*
X102870000Y-73804700D01*
X102870000Y-73804700D02*
X104154700Y-72520000D01*
X92710000Y-74930000D02*
X93835300Y-74930000D01*
X123190000Y-96520000D02*
X118550200Y-96520000D01*
X118550200Y-96520000D02*
X116706600Y-94676400D01*
X116706600Y-94676400D02*
X93049700Y-94676400D01*
X93049700Y-94676400D02*
X83494000Y-85120700D01*
X83494000Y-85120700D02*
X83494000Y-81606000D01*
X83494000Y-81606000D02*
X85090000Y-80010000D01*
X92710000Y-77470000D02*
X93835300Y-77470000D01*
X101730300Y-79774700D02*
X100550900Y-78595300D01*
X100550900Y-78595300D02*
X94960600Y-78595300D01*
X94960600Y-78595300D02*
X93835300Y-77470000D01*
X85090000Y-77470000D02*
X86215300Y-77470000D01*
X138430000Y-69850000D02*
X134335200Y-69850000D01*
X134335200Y-69850000D02*
X133065200Y-71120000D01*
X133065200Y-71120000D02*
X126995300Y-71120000D01*
X126995300Y-71120000D02*
X124599900Y-73515400D01*
X124599900Y-73515400D02*
X104279900Y-73515400D01*
X104279900Y-73515400D02*
X101450600Y-76344700D01*
X101450600Y-76344700D02*
X87340600Y-76344700D01*
X87340600Y-76344700D02*
X86215300Y-77470000D01*
X123190000Y-69850000D02*
X122031800Y-68691800D01*
X122031800Y-68691800D02*
X106824600Y-68691800D01*
X106824600Y-68691800D02*
X106289700Y-69226700D01*
X106289700Y-69226700D02*
X101448300Y-69226700D01*
X101448300Y-69226700D02*
X100936800Y-68715200D01*
X100936800Y-68715200D02*
X99182300Y-68715200D01*
X99182300Y-68715200D02*
X98166000Y-69731500D01*
X138430000Y-96520000D02*
X137304700Y-96520000D01*
X137304700Y-96520000D02*
X135676900Y-94892200D01*
X135676900Y-94892200D02*
X119986000Y-94892200D01*
X119986000Y-94892200D02*
X119274500Y-94180700D01*
X119274500Y-94180700D02*
X95980900Y-94180700D01*
X95980900Y-94180700D02*
X85620200Y-83820000D01*
X85620200Y-83820000D02*
X84750600Y-83820000D01*
X84750600Y-83820000D02*
X83944400Y-83013800D01*
X83944400Y-83013800D02*
X83944400Y-82071000D01*
X83944400Y-82071000D02*
X84593900Y-81421500D01*
X84593900Y-81421500D02*
X87787200Y-81421500D01*
X87787200Y-81421500D02*
X88915700Y-82550000D01*
X88915700Y-82550000D02*
X92710000Y-82550000D01*
M02*
