  0
SECTION
  2
HEADER
  9
$ANGBASE
  50
0.0
  9
$ANGDIR
  70
1
  9
$MEASUREMENT
  70
0
  0
ENDSEC
  0
SECTION
  2
TABLES
  0
TABLE
  2
LTYPE
  70
4
  0
LTYPE
  5
40F
  2
CONTINUOUS
  70
0
  3
Solid line
  72
65
  73
0
  40
0.0
  0
LTYPE
  5
410
  2
DASHDOT
 70
0
  3
Dash Dot ____ _ ____ _
 72
65
 73
4
 40
2.0
 49
1.25
 49
-0.25
 49
0.25
 49
-0.25
  0
LTYPE
  5
411
  2
DASHED
 70
0
  3
Dashed __ __ __ __ __
 72
65
 73
2
 40
0.75
 49
0.5
 49
-0.25
  0
LTYPE
  5
43B
  2
DOTTED
 70
0
  3
Dotted .  .  .  .
 72
65
 73
2
 40
0.2
 49
0.0
 49
-0.2
  0
ENDTAB
  0
TABLE
  2
STYLE
  70
4
  0
STYLE
  2
KICAD
  70
0
  40
0
  41
1
  42
1
  50
0
  71
0
  3
isocp.shx
  0
STYLE
  2
KICADB
  70
0
  40
0
  41
1
  42
1
  50
0
  71
0
  3
isocp.shx
  0
STYLE
  2
KICADI
  70
0
  40
0
  41
1
  42
1
  50
15
  71
0
  3
isocp.shx
  0
STYLE
  2
KICADBI
  70
0
  40
0
  41
1
  42
1
  50
15
  71
0
  3
isocp.shx
  0
ENDTAB
  0
TABLE
  2
LAYER
  70
1
  0
LAYER
  2
BLACK
  70
0
  62
7
  6
CONTINUOUS
  0
ENDTAB
  0
ENDSEC
  0
SECTION
  2
ENTITIES
0
LINE
8
BLACK
6
CONTINUOUS
10
5.9001
20
-0.998031
11
5.90039
21
-0.99806
0
LINE
8
BLACK
6
CONTINUOUS
10
5.90039
20
-0.99806
11
5.90076
21
-0.998173
0
LINE
8
BLACK
6
CONTINUOUS
10
5.90076
20
-0.998173
11
5.9011
21
-0.998355
0
LINE
8
BLACK
6
CONTINUOUS
10
5.9011
20
-0.998355
11
5.9014
21
-0.998601
0
LINE
8
BLACK
6
CONTINUOUS
10
5.9014
20
-0.998601
11
5.90164
21
-0.998901
0
LINE
8
BLACK
6
CONTINUOUS
10
5.90164
20
-0.998901
11
5.90183
21
-0.999243
0
LINE
8
BLACK
6
CONTINUOUS
10
5.90183
20
-0.999243
11
5.90194
21
-0.999614
0
LINE
8
BLACK
6
CONTINUOUS
10
5.90194
20
-0.999614
11
5.90198
21
-1
0
LINE
8
BLACK
6
CONTINUOUS
10
5.90198
20
-1
11
5.90197
21
-1.0001
0
LINE
8
BLACK
6
CONTINUOUS
10
5.90197
20
-1.0001
11
5.90197
21
-6.8999
0
LINE
8
BLACK
6
CONTINUOUS
10
5.90197
20
-6.8999
11
5.90198
21
-6.9
0
LINE
8
BLACK
6
CONTINUOUS
10
5.90198
20
-6.9
11
5.90197
21
-6.9001
0
LINE
8
BLACK
6
CONTINUOUS
10
5.90197
20
-6.9001
11
5.90197
21
-6.9001
0
LINE
8
BLACK
6
CONTINUOUS
10
5.90197
20
-6.9001
11
5.90194
21
-6.90039
0
LINE
8
BLACK
6
CONTINUOUS
10
5.90194
20
-6.90039
11
5.90183
21
-6.90076
0
LINE
8
BLACK
6
CONTINUOUS
10
5.90183
20
-6.90076
11
5.90164
21
-6.9011
0
LINE
8
BLACK
6
CONTINUOUS
10
5.90164
20
-6.9011
11
5.9014
21
-6.9014
0
LINE
8
BLACK
6
CONTINUOUS
10
5.9014
20
-6.9014
11
5.9011
21
-6.90164
0
LINE
8
BLACK
6
CONTINUOUS
10
5.9011
20
-6.90164
11
5.90076
21
-6.90183
0
LINE
8
BLACK
6
CONTINUOUS
10
5.90076
20
-6.90183
11
5.90039
21
-6.90194
0
LINE
8
BLACK
6
CONTINUOUS
10
5.90039
20
-6.90194
11
5.9
21
-6.90198
0
LINE
8
BLACK
6
CONTINUOUS
10
5.9
20
-6.90198
11
5.8999
21
-6.90197
0
LINE
8
BLACK
6
CONTINUOUS
10
5.8999
20
-6.90197
11
1.7001
21
-6.90197
0
LINE
8
BLACK
6
CONTINUOUS
10
1.7001
20
-6.90197
11
1.7
21
-6.90198
0
LINE
8
BLACK
6
CONTINUOUS
10
1.7
20
-6.90198
11
1.69961
21
-6.90194
0
LINE
8
BLACK
6
CONTINUOUS
10
1.69961
20
-6.90194
11
1.69924
21
-6.90183
0
LINE
8
BLACK
6
CONTINUOUS
10
1.69924
20
-6.90183
11
1.6989
21
-6.90164
0
LINE
8
BLACK
6
CONTINUOUS
10
1.6989
20
-6.90164
11
1.6986
21
-6.9014
0
LINE
8
BLACK
6
CONTINUOUS
10
1.6986
20
-6.9014
11
1.69836
21
-6.9011
0
LINE
8
BLACK
6
CONTINUOUS
10
1.69836
20
-6.9011
11
1.69817
21
-6.90076
0
LINE
8
BLACK
6
CONTINUOUS
10
1.69817
20
-6.90076
11
1.69806
21
-6.90039
0
LINE
8
BLACK
6
CONTINUOUS
10
1.69806
20
-6.90039
11
1.69802
21
-6.9
0
LINE
8
BLACK
6
CONTINUOUS
10
1.69802
20
-6.9
11
1.69803
21
-6.8999
0
LINE
8
BLACK
6
CONTINUOUS
10
1.69803
20
-6.8999
11
1.69803
21
-1.0001
0
LINE
8
BLACK
6
CONTINUOUS
10
1.69803
20
-1.0001
11
1.69802
21
-1
0
LINE
8
BLACK
6
CONTINUOUS
10
1.69802
20
-1
11
1.69806
21
-0.999614
0
LINE
8
BLACK
6
CONTINUOUS
10
1.69806
20
-0.999614
11
1.69817
21
-0.999243
0
LINE
8
BLACK
6
CONTINUOUS
10
1.69817
20
-0.999243
11
1.69836
21
-0.998901
0
LINE
8
BLACK
6
CONTINUOUS
10
1.69836
20
-0.998901
11
1.6986
21
-0.998601
0
LINE
8
BLACK
6
CONTINUOUS
10
1.6986
20
-0.998601
11
1.6989
21
-0.998355
0
LINE
8
BLACK
6
CONTINUOUS
10
1.6989
20
-0.998355
11
1.69924
21
-0.998173
0
LINE
8
BLACK
6
CONTINUOUS
10
1.69924
20
-0.998173
11
1.69961
21
-0.99806
0
LINE
8
BLACK
6
CONTINUOUS
10
1.69961
20
-0.99806
11
1.6999
21
-0.998031
0
LINE
8
BLACK
6
CONTINUOUS
10
1.6999
20
-0.998031
11
1.7
21
-0.998022
0
LINE
8
BLACK
6
CONTINUOUS
10
1.7
20
-0.998022
11
1.7001
21
-0.998031
0
LINE
8
BLACK
6
CONTINUOUS
10
1.7001
20
-0.998031
11
5.8999
21
-0.998031
0
LINE
8
BLACK
6
CONTINUOUS
10
5.8999
20
-0.998031
11
5.9
21
-0.998022
0
LINE
8
BLACK
6
CONTINUOUS
10
5.9
20
-0.998022
11
5.9001
21
-0.998031
0
LINE
8
BLACK
6
CONTINUOUS
10
1.70197
20
-1.00197
11
1.70197
21
-6.89803
0
LINE
8
BLACK
6
CONTINUOUS
10
1.70197
20
-6.89803
11
5.89803
21
-6.89803
0
LINE
8
BLACK
6
CONTINUOUS
10
5.89803
20
-6.89803
11
5.89803
21
-1.00197
0
LINE
8
BLACK
6
CONTINUOUS
10
5.89803
20
-1.00197
11
1.70197
21
-1.00197
0
LINE
8
BLACK
6
CONTINUOUS
10
5.69952
20
-6.73469
11
5.70347
21
-6.72513
0
LINE
8
BLACK
6
CONTINUOUS
10
5.70347
20
-6.72513
11
5.70922
21
-6.71653
0
LINE
8
BLACK
6
CONTINUOUS
10
5.70922
20
-6.71653
11
5.71653
21
-6.70922
0
LINE
8
BLACK
6
CONTINUOUS
10
5.71653
20
-6.70922
11
5.72513
21
-6.70347
0
LINE
8
BLACK
6
CONTINUOUS
10
5.72513
20
-6.70347
11
5.73469
21
-6.69952
0
LINE
8
BLACK
6
CONTINUOUS
10
5.73469
20
-6.69952
11
5.74483
21
-6.6975
0
LINE
8
BLACK
6
CONTINUOUS
10
5.74483
20
-6.6975
11
5.75517
21
-6.6975
0
LINE
8
BLACK
6
CONTINUOUS
10
5.75517
20
-6.6975
11
5.76531
21
-6.69952
0
LINE
8
BLACK
6
CONTINUOUS
10
5.76531
20
-6.69952
11
5.77487
21
-6.70347
0
LINE
8
BLACK
6
CONTINUOUS
10
5.77487
20
-6.70347
11
5.78347
21
-6.70922
0
LINE
8
BLACK
6
CONTINUOUS
10
5.78347
20
-6.70922
11
5.79078
21
-6.71653
0
LINE
8
BLACK
6
CONTINUOUS
10
5.79078
20
-6.71653
11
5.79653
21
-6.72513
0
LINE
8
BLACK
6
CONTINUOUS
10
5.79653
20
-6.72513
11
5.80048
21
-6.73469
0
LINE
8
BLACK
6
CONTINUOUS
10
5.80048
20
-6.73469
11
5.8025
21
-6.74483
0
LINE
8
BLACK
6
CONTINUOUS
10
5.8025
20
-6.74483
11
5.8025
21
-6.75517
0
LINE
8
BLACK
6
CONTINUOUS
10
5.8025
20
-6.75517
11
5.80048
21
-6.76531
0
LINE
8
BLACK
6
CONTINUOUS
10
5.80048
20
-6.76531
11
5.79653
21
-6.77487
0
LINE
8
BLACK
6
CONTINUOUS
10
5.79653
20
-6.77487
11
5.79078
21
-6.78347
0
LINE
8
BLACK
6
CONTINUOUS
10
5.79078
20
-6.78347
11
5.78347
21
-6.79078
0
LINE
8
BLACK
6
CONTINUOUS
10
5.78347
20
-6.79078
11
5.77487
21
-6.79653
0
LINE
8
BLACK
6
CONTINUOUS
10
5.77487
20
-6.79653
11
5.76531
21
-6.80048
0
LINE
8
BLACK
6
CONTINUOUS
10
5.76531
20
-6.80048
11
5.75517
21
-6.8025
0
LINE
8
BLACK
6
CONTINUOUS
10
5.75517
20
-6.8025
11
5.74483
21
-6.8025
0
LINE
8
BLACK
6
CONTINUOUS
10
5.74483
20
-6.8025
11
5.73469
21
-6.80048
0
LINE
8
BLACK
6
CONTINUOUS
10
5.73469
20
-6.80048
11
5.72513
21
-6.79653
0
LINE
8
BLACK
6
CONTINUOUS
10
5.72513
20
-6.79653
11
5.71653
21
-6.79078
0
LINE
8
BLACK
6
CONTINUOUS
10
5.71653
20
-6.79078
11
5.70922
21
-6.78347
0
LINE
8
BLACK
6
CONTINUOUS
10
5.70922
20
-6.78347
11
5.70347
21
-6.77487
0
LINE
8
BLACK
6
CONTINUOUS
10
5.70347
20
-6.77487
11
5.69952
21
-6.76531
0
LINE
8
BLACK
6
CONTINUOUS
10
5.69952
20
-6.76531
11
5.6975
21
-6.75517
0
LINE
8
BLACK
6
CONTINUOUS
10
5.6975
20
-6.75517
11
5.6975
21
-6.74483
0
LINE
8
BLACK
6
CONTINUOUS
10
5.6975
20
-6.74483
11
5.69952
21
-6.73469
0
LINE
8
BLACK
6
CONTINUOUS
10
5.70404
20
-6.76394
11
5.70764
21
-6.77264
0
LINE
8
BLACK
6
CONTINUOUS
10
5.70764
20
-6.77264
11
5.71287
21
-6.78047
0
LINE
8
BLACK
6
CONTINUOUS
10
5.71287
20
-6.78047
11
5.71953
21
-6.78713
0
LINE
8
BLACK
6
CONTINUOUS
10
5.71953
20
-6.78713
11
5.72736
21
-6.79236
0
LINE
8
BLACK
6
CONTINUOUS
10
5.72736
20
-6.79236
11
5.73606
21
-6.79596
0
LINE
8
BLACK
6
CONTINUOUS
10
5.73606
20
-6.79596
11
5.74529
21
-6.7978
0
LINE
8
BLACK
6
CONTINUOUS
10
5.74529
20
-6.7978
11
5.75471
21
-6.7978
0
LINE
8
BLACK
6
CONTINUOUS
10
5.75471
20
-6.7978
11
5.76394
21
-6.79596
0
LINE
8
BLACK
6
CONTINUOUS
10
5.76394
20
-6.79596
11
5.77264
21
-6.79236
0
LINE
8
BLACK
6
CONTINUOUS
10
5.77264
20
-6.79236
11
5.78047
21
-6.78713
0
LINE
8
BLACK
6
CONTINUOUS
10
5.78047
20
-6.78713
11
5.78713
21
-6.78047
0
LINE
8
BLACK
6
CONTINUOUS
10
5.78713
20
-6.78047
11
5.79236
21
-6.77264
0
LINE
8
BLACK
6
CONTINUOUS
10
5.79236
20
-6.77264
11
5.79596
21
-6.76394
0
LINE
8
BLACK
6
CONTINUOUS
10
5.79596
20
-6.76394
11
5.7978
21
-6.75471
0
LINE
8
BLACK
6
CONTINUOUS
10
5.7978
20
-6.75471
11
5.7978
21
-6.74529
0
LINE
8
BLACK
6
CONTINUOUS
10
5.7978
20
-6.74529
11
5.79596
21
-6.73606
0
LINE
8
BLACK
6
CONTINUOUS
10
5.79596
20
-6.73606
11
5.79236
21
-6.72736
0
LINE
8
BLACK
6
CONTINUOUS
10
5.79236
20
-6.72736
11
5.78713
21
-6.71953
0
LINE
8
BLACK
6
CONTINUOUS
10
5.78713
20
-6.71953
11
5.78047
21
-6.71287
0
LINE
8
BLACK
6
CONTINUOUS
10
5.78047
20
-6.71287
11
5.77264
21
-6.70764
0
LINE
8
BLACK
6
CONTINUOUS
10
5.77264
20
-6.70764
11
5.76394
21
-6.70404
0
LINE
8
BLACK
6
CONTINUOUS
10
5.76394
20
-6.70404
11
5.75471
21
-6.7022
0
LINE
8
BLACK
6
CONTINUOUS
10
5.75471
20
-6.7022
11
5.74529
21
-6.7022
0
LINE
8
BLACK
6
CONTINUOUS
10
5.74529
20
-6.7022
11
5.73606
21
-6.70404
0
LINE
8
BLACK
6
CONTINUOUS
10
5.73606
20
-6.70404
11
5.72736
21
-6.70764
0
LINE
8
BLACK
6
CONTINUOUS
10
5.72736
20
-6.70764
11
5.71953
21
-6.71287
0
LINE
8
BLACK
6
CONTINUOUS
10
5.71953
20
-6.71287
11
5.71287
21
-6.71953
0
LINE
8
BLACK
6
CONTINUOUS
10
5.71287
20
-6.71953
11
5.70764
21
-6.72736
0
LINE
8
BLACK
6
CONTINUOUS
10
5.70764
20
-6.72736
11
5.70404
21
-6.73606
0
LINE
8
BLACK
6
CONTINUOUS
10
5.70404
20
-6.73606
11
5.7022
21
-6.74529
0
LINE
8
BLACK
6
CONTINUOUS
10
5.7022
20
-6.74529
11
5.7022
21
-6.75471
0
LINE
8
BLACK
6
CONTINUOUS
10
5.7022
20
-6.75471
11
5.70404
21
-6.76394
0
LINE
8
BLACK
6
CONTINUOUS
10
1.84952
20
-6.68469
11
1.85347
21
-6.67513
0
LINE
8
BLACK
6
CONTINUOUS
10
1.85347
20
-6.67513
11
1.85922
21
-6.66653
0
LINE
8
BLACK
6
CONTINUOUS
10
1.85922
20
-6.66653
11
1.86653
21
-6.65922
0
LINE
8
BLACK
6
CONTINUOUS
10
1.86653
20
-6.65922
11
1.87513
21
-6.65347
0
LINE
8
BLACK
6
CONTINUOUS
10
1.87513
20
-6.65347
11
1.88469
21
-6.64952
0
LINE
8
BLACK
6
CONTINUOUS
10
1.88469
20
-6.64952
11
1.89483
21
-6.6475
0
LINE
8
BLACK
6
CONTINUOUS
10
1.89483
20
-6.6475
11
1.90517
21
-6.6475
0
LINE
8
BLACK
6
CONTINUOUS
10
1.90517
20
-6.6475
11
1.91531
21
-6.64952
0
LINE
8
BLACK
6
CONTINUOUS
10
1.91531
20
-6.64952
11
1.92487
21
-6.65347
0
LINE
8
BLACK
6
CONTINUOUS
10
1.92487
20
-6.65347
11
1.93347
21
-6.65922
0
LINE
8
BLACK
6
CONTINUOUS
10
1.93347
20
-6.65922
11
1.94078
21
-6.66653
0
LINE
8
BLACK
6
CONTINUOUS
10
1.94078
20
-6.66653
11
1.94653
21
-6.67513
0
LINE
8
BLACK
6
CONTINUOUS
10
1.94653
20
-6.67513
11
1.95048
21
-6.68469
0
LINE
8
BLACK
6
CONTINUOUS
10
1.95048
20
-6.68469
11
1.9525
21
-6.69483
0
LINE
8
BLACK
6
CONTINUOUS
10
1.9525
20
-6.69483
11
1.9525
21
-6.70517
0
LINE
8
BLACK
6
CONTINUOUS
10
1.9525
20
-6.70517
11
1.95048
21
-6.71531
0
LINE
8
BLACK
6
CONTINUOUS
10
1.95048
20
-6.71531
11
1.94653
21
-6.72487
0
LINE
8
BLACK
6
CONTINUOUS
10
1.94653
20
-6.72487
11
1.94078
21
-6.73347
0
LINE
8
BLACK
6
CONTINUOUS
10
1.94078
20
-6.73347
11
1.93347
21
-6.74078
0
LINE
8
BLACK
6
CONTINUOUS
10
1.93347
20
-6.74078
11
1.92487
21
-6.74653
0
LINE
8
BLACK
6
CONTINUOUS
10
1.92487
20
-6.74653
11
1.91531
21
-6.75048
0
LINE
8
BLACK
6
CONTINUOUS
10
1.91531
20
-6.75048
11
1.90517
21
-6.7525
0
LINE
8
BLACK
6
CONTINUOUS
10
1.90517
20
-6.7525
11
1.89483
21
-6.7525
0
LINE
8
BLACK
6
CONTINUOUS
10
1.89483
20
-6.7525
11
1.88469
21
-6.75048
0
LINE
8
BLACK
6
CONTINUOUS
10
1.88469
20
-6.75048
11
1.87513
21
-6.74653
0
LINE
8
BLACK
6
CONTINUOUS
10
1.87513
20
-6.74653
11
1.86653
21
-6.74078
0
LINE
8
BLACK
6
CONTINUOUS
10
1.86653
20
-6.74078
11
1.85922
21
-6.73347
0
LINE
8
BLACK
6
CONTINUOUS
10
1.85922
20
-6.73347
11
1.85347
21
-6.72487
0
LINE
8
BLACK
6
CONTINUOUS
10
1.85347
20
-6.72487
11
1.84952
21
-6.71531
0
LINE
8
BLACK
6
CONTINUOUS
10
1.84952
20
-6.71531
11
1.8475
21
-6.70517
0
LINE
8
BLACK
6
CONTINUOUS
10
1.8475
20
-6.70517
11
1.8475
21
-6.69483
0
LINE
8
BLACK
6
CONTINUOUS
10
1.8475
20
-6.69483
11
1.84952
21
-6.68469
0
LINE
8
BLACK
6
CONTINUOUS
10
1.85404
20
-6.71394
11
1.85764
21
-6.72264
0
LINE
8
BLACK
6
CONTINUOUS
10
1.85764
20
-6.72264
11
1.86287
21
-6.73047
0
LINE
8
BLACK
6
CONTINUOUS
10
1.86287
20
-6.73047
11
1.86953
21
-6.73713
0
LINE
8
BLACK
6
CONTINUOUS
10
1.86953
20
-6.73713
11
1.87736
21
-6.74236
0
LINE
8
BLACK
6
CONTINUOUS
10
1.87736
20
-6.74236
11
1.88606
21
-6.74596
0
LINE
8
BLACK
6
CONTINUOUS
10
1.88606
20
-6.74596
11
1.89529
21
-6.7478
0
LINE
8
BLACK
6
CONTINUOUS
10
1.89529
20
-6.7478
11
1.90471
21
-6.7478
0
LINE
8
BLACK
6
CONTINUOUS
10
1.90471
20
-6.7478
11
1.91394
21
-6.74596
0
LINE
8
BLACK
6
CONTINUOUS
10
1.91394
20
-6.74596
11
1.92264
21
-6.74236
0
LINE
8
BLACK
6
CONTINUOUS
10
1.92264
20
-6.74236
11
1.93047
21
-6.73713
0
LINE
8
BLACK
6
CONTINUOUS
10
1.93047
20
-6.73713
11
1.93713
21
-6.73047
0
LINE
8
BLACK
6
CONTINUOUS
10
1.93713
20
-6.73047
11
1.94236
21
-6.72264
0
LINE
8
BLACK
6
CONTINUOUS
10
1.94236
20
-6.72264
11
1.94596
21
-6.71394
0
LINE
8
BLACK
6
CONTINUOUS
10
1.94596
20
-6.71394
11
1.9478
21
-6.70471
0
LINE
8
BLACK
6
CONTINUOUS
10
1.9478
20
-6.70471
11
1.9478
21
-6.69529
0
LINE
8
BLACK
6
CONTINUOUS
10
1.9478
20
-6.69529
11
1.94596
21
-6.68606
0
LINE
8
BLACK
6
CONTINUOUS
10
1.94596
20
-6.68606
11
1.94236
21
-6.67736
0
LINE
8
BLACK
6
CONTINUOUS
10
1.94236
20
-6.67736
11
1.93713
21
-6.66953
0
LINE
8
BLACK
6
CONTINUOUS
10
1.93713
20
-6.66953
11
1.93047
21
-6.66287
0
LINE
8
BLACK
6
CONTINUOUS
10
1.93047
20
-6.66287
11
1.92264
21
-6.65764
0
LINE
8
BLACK
6
CONTINUOUS
10
1.92264
20
-6.65764
11
1.91394
21
-6.65404
0
LINE
8
BLACK
6
CONTINUOUS
10
1.91394
20
-6.65404
11
1.90471
21
-6.6522
0
LINE
8
BLACK
6
CONTINUOUS
10
1.90471
20
-6.6522
11
1.89529
21
-6.6522
0
LINE
8
BLACK
6
CONTINUOUS
10
1.89529
20
-6.6522
11
1.88606
21
-6.65404
0
LINE
8
BLACK
6
CONTINUOUS
10
1.88606
20
-6.65404
11
1.87736
21
-6.65764
0
LINE
8
BLACK
6
CONTINUOUS
10
1.87736
20
-6.65764
11
1.86953
21
-6.66287
0
LINE
8
BLACK
6
CONTINUOUS
10
1.86953
20
-6.66287
11
1.86287
21
-6.66953
0
LINE
8
BLACK
6
CONTINUOUS
10
1.86287
20
-6.66953
11
1.85764
21
-6.67736
0
LINE
8
BLACK
6
CONTINUOUS
10
1.85764
20
-6.67736
11
1.85404
21
-6.68606
0
LINE
8
BLACK
6
CONTINUOUS
10
1.85404
20
-6.68606
11
1.8522
21
-6.69529
0
LINE
8
BLACK
6
CONTINUOUS
10
1.8522
20
-6.69529
11
1.8522
21
-6.70471
0
LINE
8
BLACK
6
CONTINUOUS
10
1.8522
20
-6.70471
11
1.85404
21
-6.71394
0
LINE
8
BLACK
6
CONTINUOUS
10
1.79952
20
-1.13469
11
1.80347
21
-1.12513
0
LINE
8
BLACK
6
CONTINUOUS
10
1.80347
20
-1.12513
11
1.80922
21
-1.11653
0
LINE
8
BLACK
6
CONTINUOUS
10
1.80922
20
-1.11653
11
1.81653
21
-1.10922
0
LINE
8
BLACK
6
CONTINUOUS
10
1.81653
20
-1.10922
11
1.82513
21
-1.10347
0
LINE
8
BLACK
6
CONTINUOUS
10
1.82513
20
-1.10347
11
1.83469
21
-1.09952
0
LINE
8
BLACK
6
CONTINUOUS
10
1.83469
20
-1.09952
11
1.84483
21
-1.0975
0
LINE
8
BLACK
6
CONTINUOUS
10
1.84483
20
-1.0975
11
1.85517
21
-1.0975
0
LINE
8
BLACK
6
CONTINUOUS
10
1.85517
20
-1.0975
11
1.86531
21
-1.09952
0
LINE
8
BLACK
6
CONTINUOUS
10
1.86531
20
-1.09952
11
1.87487
21
-1.10347
0
LINE
8
BLACK
6
CONTINUOUS
10
1.87487
20
-1.10347
11
1.88347
21
-1.10922
0
LINE
8
BLACK
6
CONTINUOUS
10
1.88347
20
-1.10922
11
1.89078
21
-1.11653
0
LINE
8
BLACK
6
CONTINUOUS
10
1.89078
20
-1.11653
11
1.89653
21
-1.12513
0
LINE
8
BLACK
6
CONTINUOUS
10
1.89653
20
-1.12513
11
1.90048
21
-1.13469
0
LINE
8
BLACK
6
CONTINUOUS
10
1.90048
20
-1.13469
11
1.9025
21
-1.14483
0
LINE
8
BLACK
6
CONTINUOUS
10
1.9025
20
-1.14483
11
1.9025
21
-1.15517
0
LINE
8
BLACK
6
CONTINUOUS
10
1.9025
20
-1.15517
11
1.90048
21
-1.16531
0
LINE
8
BLACK
6
CONTINUOUS
10
1.90048
20
-1.16531
11
1.89653
21
-1.17487
0
LINE
8
BLACK
6
CONTINUOUS
10
1.89653
20
-1.17487
11
1.89078
21
-1.18347
0
LINE
8
BLACK
6
CONTINUOUS
10
1.89078
20
-1.18347
11
1.88347
21
-1.19078
0
LINE
8
BLACK
6
CONTINUOUS
10
1.88347
20
-1.19078
11
1.87487
21
-1.19653
0
LINE
8
BLACK
6
CONTINUOUS
10
1.87487
20
-1.19653
11
1.86531
21
-1.20048
0
LINE
8
BLACK
6
CONTINUOUS
10
1.86531
20
-1.20048
11
1.85517
21
-1.2025
0
LINE
8
BLACK
6
CONTINUOUS
10
1.85517
20
-1.2025
11
1.84483
21
-1.2025
0
LINE
8
BLACK
6
CONTINUOUS
10
1.84483
20
-1.2025
11
1.83469
21
-1.20048
0
LINE
8
BLACK
6
CONTINUOUS
10
1.83469
20
-1.20048
11
1.82513
21
-1.19653
0
LINE
8
BLACK
6
CONTINUOUS
10
1.82513
20
-1.19653
11
1.81653
21
-1.19078
0
LINE
8
BLACK
6
CONTINUOUS
10
1.81653
20
-1.19078
11
1.80922
21
-1.18347
0
LINE
8
BLACK
6
CONTINUOUS
10
1.80922
20
-1.18347
11
1.80347
21
-1.17487
0
LINE
8
BLACK
6
CONTINUOUS
10
1.80347
20
-1.17487
11
1.79952
21
-1.16531
0
LINE
8
BLACK
6
CONTINUOUS
10
1.79952
20
-1.16531
11
1.7975
21
-1.15517
0
LINE
8
BLACK
6
CONTINUOUS
10
1.7975
20
-1.15517
11
1.7975
21
-1.14483
0
LINE
8
BLACK
6
CONTINUOUS
10
1.7975
20
-1.14483
11
1.79952
21
-1.13469
0
LINE
8
BLACK
6
CONTINUOUS
10
1.80404
20
-1.16394
11
1.80764
21
-1.17264
0
LINE
8
BLACK
6
CONTINUOUS
10
1.80764
20
-1.17264
11
1.81287
21
-1.18047
0
LINE
8
BLACK
6
CONTINUOUS
10
1.81287
20
-1.18047
11
1.81953
21
-1.18713
0
LINE
8
BLACK
6
CONTINUOUS
10
1.81953
20
-1.18713
11
1.82736
21
-1.19236
0
LINE
8
BLACK
6
CONTINUOUS
10
1.82736
20
-1.19236
11
1.83606
21
-1.19596
0
LINE
8
BLACK
6
CONTINUOUS
10
1.83606
20
-1.19596
11
1.84529
21
-1.1978
0
LINE
8
BLACK
6
CONTINUOUS
10
1.84529
20
-1.1978
11
1.85471
21
-1.1978
0
LINE
8
BLACK
6
CONTINUOUS
10
1.85471
20
-1.1978
11
1.86394
21
-1.19596
0
LINE
8
BLACK
6
CONTINUOUS
10
1.86394
20
-1.19596
11
1.87264
21
-1.19236
0
LINE
8
BLACK
6
CONTINUOUS
10
1.87264
20
-1.19236
11
1.88047
21
-1.18713
0
LINE
8
BLACK
6
CONTINUOUS
10
1.88047
20
-1.18713
11
1.88713
21
-1.18047
0
LINE
8
BLACK
6
CONTINUOUS
10
1.88713
20
-1.18047
11
1.89236
21
-1.17264
0
LINE
8
BLACK
6
CONTINUOUS
10
1.89236
20
-1.17264
11
1.89596
21
-1.16394
0
LINE
8
BLACK
6
CONTINUOUS
10
1.89596
20
-1.16394
11
1.8978
21
-1.15471
0
LINE
8
BLACK
6
CONTINUOUS
10
1.8978
20
-1.15471
11
1.8978
21
-1.14529
0
LINE
8
BLACK
6
CONTINUOUS
10
1.8978
20
-1.14529
11
1.89596
21
-1.13606
0
LINE
8
BLACK
6
CONTINUOUS
10
1.89596
20
-1.13606
11
1.89236
21
-1.12736
0
LINE
8
BLACK
6
CONTINUOUS
10
1.89236
20
-1.12736
11
1.88713
21
-1.11953
0
LINE
8
BLACK
6
CONTINUOUS
10
1.88713
20
-1.11953
11
1.88047
21
-1.11287
0
LINE
8
BLACK
6
CONTINUOUS
10
1.88047
20
-1.11287
11
1.87264
21
-1.10764
0
LINE
8
BLACK
6
CONTINUOUS
10
1.87264
20
-1.10764
11
1.86394
21
-1.10404
0
LINE
8
BLACK
6
CONTINUOUS
10
1.86394
20
-1.10404
11
1.85471
21
-1.1022
0
LINE
8
BLACK
6
CONTINUOUS
10
1.85471
20
-1.1022
11
1.84529
21
-1.1022
0
LINE
8
BLACK
6
CONTINUOUS
10
1.84529
20
-1.1022
11
1.83606
21
-1.10404
0
LINE
8
BLACK
6
CONTINUOUS
10
1.83606
20
-1.10404
11
1.82736
21
-1.10764
0
LINE
8
BLACK
6
CONTINUOUS
10
1.82736
20
-1.10764
11
1.81953
21
-1.11287
0
LINE
8
BLACK
6
CONTINUOUS
10
1.81953
20
-1.11287
11
1.81287
21
-1.11953
0
LINE
8
BLACK
6
CONTINUOUS
10
1.81287
20
-1.11953
11
1.80764
21
-1.12736
0
LINE
8
BLACK
6
CONTINUOUS
10
1.80764
20
-1.12736
11
1.80404
21
-1.13606
0
LINE
8
BLACK
6
CONTINUOUS
10
1.80404
20
-1.13606
11
1.8022
21
-1.14529
0
LINE
8
BLACK
6
CONTINUOUS
10
1.8022
20
-1.14529
11
1.8022
21
-1.15471
0
LINE
8
BLACK
6
CONTINUOUS
10
1.8022
20
-1.15471
11
1.80404
21
-1.16394
0
LINE
8
BLACK
6
CONTINUOUS
10
5.69952
20
-1.13469
11
5.70347
21
-1.12513
0
LINE
8
BLACK
6
CONTINUOUS
10
5.70347
20
-1.12513
11
5.70922
21
-1.11653
0
LINE
8
BLACK
6
CONTINUOUS
10
5.70922
20
-1.11653
11
5.71653
21
-1.10922
0
LINE
8
BLACK
6
CONTINUOUS
10
5.71653
20
-1.10922
11
5.72513
21
-1.10347
0
LINE
8
BLACK
6
CONTINUOUS
10
5.72513
20
-1.10347
11
5.73469
21
-1.09952
0
LINE
8
BLACK
6
CONTINUOUS
10
5.73469
20
-1.09952
11
5.74483
21
-1.0975
0
LINE
8
BLACK
6
CONTINUOUS
10
5.74483
20
-1.0975
11
5.75517
21
-1.0975
0
LINE
8
BLACK
6
CONTINUOUS
10
5.75517
20
-1.0975
11
5.76531
21
-1.09952
0
LINE
8
BLACK
6
CONTINUOUS
10
5.76531
20
-1.09952
11
5.77487
21
-1.10347
0
LINE
8
BLACK
6
CONTINUOUS
10
5.77487
20
-1.10347
11
5.78347
21
-1.10922
0
LINE
8
BLACK
6
CONTINUOUS
10
5.78347
20
-1.10922
11
5.79078
21
-1.11653
0
LINE
8
BLACK
6
CONTINUOUS
10
5.79078
20
-1.11653
11
5.79653
21
-1.12513
0
LINE
8
BLACK
6
CONTINUOUS
10
5.79653
20
-1.12513
11
5.80048
21
-1.13469
0
LINE
8
BLACK
6
CONTINUOUS
10
5.80048
20
-1.13469
11
5.8025
21
-1.14483
0
LINE
8
BLACK
6
CONTINUOUS
10
5.8025
20
-1.14483
11
5.8025
21
-1.15517
0
LINE
8
BLACK
6
CONTINUOUS
10
5.8025
20
-1.15517
11
5.80048
21
-1.16531
0
LINE
8
BLACK
6
CONTINUOUS
10
5.80048
20
-1.16531
11
5.79653
21
-1.17487
0
LINE
8
BLACK
6
CONTINUOUS
10
5.79653
20
-1.17487
11
5.79078
21
-1.18347
0
LINE
8
BLACK
6
CONTINUOUS
10
5.79078
20
-1.18347
11
5.78347
21
-1.19078
0
LINE
8
BLACK
6
CONTINUOUS
10
5.78347
20
-1.19078
11
5.77487
21
-1.19653
0
LINE
8
BLACK
6
CONTINUOUS
10
5.77487
20
-1.19653
11
5.76531
21
-1.20048
0
LINE
8
BLACK
6
CONTINUOUS
10
5.76531
20
-1.20048
11
5.75517
21
-1.2025
0
LINE
8
BLACK
6
CONTINUOUS
10
5.75517
20
-1.2025
11
5.74483
21
-1.2025
0
LINE
8
BLACK
6
CONTINUOUS
10
5.74483
20
-1.2025
11
5.73469
21
-1.20048
0
LINE
8
BLACK
6
CONTINUOUS
10
5.73469
20
-1.20048
11
5.72513
21
-1.19653
0
LINE
8
BLACK
6
CONTINUOUS
10
5.72513
20
-1.19653
11
5.71653
21
-1.19078
0
LINE
8
BLACK
6
CONTINUOUS
10
5.71653
20
-1.19078
11
5.70922
21
-1.18347
0
LINE
8
BLACK
6
CONTINUOUS
10
5.70922
20
-1.18347
11
5.70347
21
-1.17487
0
LINE
8
BLACK
6
CONTINUOUS
10
5.70347
20
-1.17487
11
5.69952
21
-1.16531
0
LINE
8
BLACK
6
CONTINUOUS
10
5.69952
20
-1.16531
11
5.6975
21
-1.15517
0
LINE
8
BLACK
6
CONTINUOUS
10
5.6975
20
-1.15517
11
5.6975
21
-1.14483
0
LINE
8
BLACK
6
CONTINUOUS
10
5.6975
20
-1.14483
11
5.69952
21
-1.13469
0
LINE
8
BLACK
6
CONTINUOUS
10
5.70404
20
-1.16394
11
5.70764
21
-1.17264
0
LINE
8
BLACK
6
CONTINUOUS
10
5.70764
20
-1.17264
11
5.71287
21
-1.18047
0
LINE
8
BLACK
6
CONTINUOUS
10
5.71287
20
-1.18047
11
5.71953
21
-1.18713
0
LINE
8
BLACK
6
CONTINUOUS
10
5.71953
20
-1.18713
11
5.72736
21
-1.19236
0
LINE
8
BLACK
6
CONTINUOUS
10
5.72736
20
-1.19236
11
5.73606
21
-1.19596
0
LINE
8
BLACK
6
CONTINUOUS
10
5.73606
20
-1.19596
11
5.74529
21
-1.1978
0
LINE
8
BLACK
6
CONTINUOUS
10
5.74529
20
-1.1978
11
5.75471
21
-1.1978
0
LINE
8
BLACK
6
CONTINUOUS
10
5.75471
20
-1.1978
11
5.76394
21
-1.19596
0
LINE
8
BLACK
6
CONTINUOUS
10
5.76394
20
-1.19596
11
5.77264
21
-1.19236
0
LINE
8
BLACK
6
CONTINUOUS
10
5.77264
20
-1.19236
11
5.78047
21
-1.18713
0
LINE
8
BLACK
6
CONTINUOUS
10
5.78047
20
-1.18713
11
5.78713
21
-1.18047
0
LINE
8
BLACK
6
CONTINUOUS
10
5.78713
20
-1.18047
11
5.79236
21
-1.17264
0
LINE
8
BLACK
6
CONTINUOUS
10
5.79236
20
-1.17264
11
5.79596
21
-1.16394
0
LINE
8
BLACK
6
CONTINUOUS
10
5.79596
20
-1.16394
11
5.7978
21
-1.15471
0
LINE
8
BLACK
6
CONTINUOUS
10
5.7978
20
-1.15471
11
5.7978
21
-1.14529
0
LINE
8
BLACK
6
CONTINUOUS
10
5.7978
20
-1.14529
11
5.79596
21
-1.13606
0
LINE
8
BLACK
6
CONTINUOUS
10
5.79596
20
-1.13606
11
5.79236
21
-1.12736
0
LINE
8
BLACK
6
CONTINUOUS
10
5.79236
20
-1.12736
11
5.78713
21
-1.11953
0
LINE
8
BLACK
6
CONTINUOUS
10
5.78713
20
-1.11953
11
5.78047
21
-1.11287
0
LINE
8
BLACK
6
CONTINUOUS
10
5.78047
20
-1.11287
11
5.77264
21
-1.10764
0
LINE
8
BLACK
6
CONTINUOUS
10
5.77264
20
-1.10764
11
5.76394
21
-1.10404
0
LINE
8
BLACK
6
CONTINUOUS
10
5.76394
20
-1.10404
11
5.75471
21
-1.1022
0
LINE
8
BLACK
6
CONTINUOUS
10
5.75471
20
-1.1022
11
5.74529
21
-1.1022
0
LINE
8
BLACK
6
CONTINUOUS
10
5.74529
20
-1.1022
11
5.73606
21
-1.10404
0
LINE
8
BLACK
6
CONTINUOUS
10
5.73606
20
-1.10404
11
5.72736
21
-1.10764
0
LINE
8
BLACK
6
CONTINUOUS
10
5.72736
20
-1.10764
11
5.71953
21
-1.11287
0
LINE
8
BLACK
6
CONTINUOUS
10
5.71953
20
-1.11287
11
5.71287
21
-1.11953
0
LINE
8
BLACK
6
CONTINUOUS
10
5.71287
20
-1.11953
11
5.70764
21
-1.12736
0
LINE
8
BLACK
6
CONTINUOUS
10
5.70764
20
-1.12736
11
5.70404
21
-1.13606
0
LINE
8
BLACK
6
CONTINUOUS
10
5.70404
20
-1.13606
11
5.7022
21
-1.14529
0
LINE
8
BLACK
6
CONTINUOUS
10
5.7022
20
-1.14529
11
5.7022
21
-1.15471
0
LINE
8
BLACK
6
CONTINUOUS
10
5.7022
20
-1.15471
11
5.70404
21
-1.16394
  0
ENDSEC
  0
EOF
