  0
SECTION
  2
HEADER
  9
$ACADVER
  1
AC1009
  9
$INSBASE
 10
0.0
 20
0.0
 30
0.0
  9
$EXTMIN
 10
0.0
 20
0.0
 30
0.0
  9
$EXTMAX
 10
0.0
 20
0.0
 30
0.0
  0
ENDSEC
  0
SECTION
  2
TABLES
  0
TABLE
  2
VPORT
 70
1
  0
VPORT
  2
*ACTIVE
 70
0
 10
0.0
 20
0.0
 11
1.0
 21
1.0
 12
-5.0
 22
1.0
 13
0.0
 23
0.0
 14
0.1
 24
0.1
 15
0.1
 25
0.1
 16
0.0
 26
0.0
 36
1.0
 17
0.0
 27
0.0
 37
0.0
 40
10.0
 41
1.0
 42
50.0
 43
0.0
 44
0.0
 50
0.0
 51
0.0
 71
0
 72
100
 73
1
 74
1
 75
0
 76
0
 77
0
 78
0
  0
ENDTAB
  0
TABLE
  2
LTYPE
 70
8
  0
LTYPE
  2
CONTINUOUS
 70
0
  3
Solid line
 72
65
 73
0
 40
0.0
  0
LTYPE
  2
DOT
 70
0
  3
. . . . . . .
 72
65
 73
2
 40
0.25
 49
0.0
 49
-0.25
  0
LTYPE
  2
DASHED
 70
0
  3
__ __ __ __ __
 72
65
 73
2
 40
0.8
 49
0.5
 49
-0.3
  0
LTYPE
  2
DASHDOT
 70
0
  3
__ . __ . __ .
 72
65
 73
4
 40
1.0
 49
0.5
 49
-0.25
 49
0.0
 49
-0.25
  0
LTYPE
  2
DIVIDE
 70
0
  3
____ . . ____ . . 
 72
65
 73
6
 40
1.25
 49
0.5
 49
-0.25
 49
0.0
 49
-0.25
 49
0.0
 49
-0.25
  0
LTYPE
  2
BORDER
 70
0
  3
__ __ . __ __ . 
 72
65
 73
6
 40
1.75
 49
0.5
 49
-0.25
 49
0.5
 49
-0.25
 49
0.0
 49
-0.25
  0
LTYPE
  2
HIDDEN
 70
0
  3
__ __ __ __ __
 72
65
 73
2
 40
0.4
 49
0.25
 49
-0.25
  0
LTYPE
  2
CENTER
 70
0
  3
____ _ ____ _ __
 72
65
 73
4
 40
2.0
 49
1.25
 49
-0.25
 49
0.25
 49
-0.25
  0
ENDTAB
  0
TABLE
  2
LAYER
 70
1
  0
LAYER
  2
PYDXF
 70
64
 62
7
  6
continuous
  0
ENDTAB
  0
TABLE
  2
STYLE
 70
1
  0
STYLE
  2
STANDARD
 70
0
 40
0
 41
1.0
 50
0.0
 71
0
 42
1
 3
ARIAL.TTF
 4

  0
ENDTAB
  0
TABLE
  2
VIEW
 70
1
  0
VIEW
  2
BF_TOPVIEW
 70
0
 40
120.0
 10
0.0
 20
0.0
 41
200.0
 11
0.0
 21
0.0
 31
1.0
 12
0.0
 22
0.0
 32
0.0
 42
50.0
 43
0.0
 44
0.0
 50
0.0
 71
0
  0
ENDTAB
  0
ENDSEC
  0
SECTION
  2
BLOCKS
  0
ENDSEC
  0
SECTION
  2
ENTITIES
  0
3DFACE
  8
0
 10
5.898029804229736
 20
-6.898029804229736
 30
-0.6207262277603149
 11
5.797800064086914
 21
-6.7452898025512695
 31
-0.6207262277603149
 12
5.797800064086914
 22
-6.7547101974487305
 32
-0.6207262277603149
 13
5.797800064086914
 23
-6.7547101974487305
 33
-0.6207262277603149
  0
3DFACE
  8
0
 10
5.898029804229736
 20
-6.898029804229736
 30
-0.6207262277603149
 11
5.797800064086914
 21
-6.7547101974487305
 31
-0.6207262277603149
 12
5.795959949493408
 22
-6.76393985748291
 32
-0.6207262277603149
 13
5.795959949493408
 23
-6.76393985748291
 33
-0.6207262277603149
  0
3DFACE
  8
0
 10
5.704040050506592
 20
-6.76393985748291
 30
-0.6207262277603149
 11
5.702199935913086
 21
-6.7547101974487305
 31
-0.6207262277603149
 12
1.9477999210357666
 22
-6.6952900886535645
 32
-0.6207262277603149
 13
1.9477999210357666
 23
-6.6952900886535645
 33
-0.6207262277603149
  0
3DFACE
  8
0
 10
5.707640171051025
 20
-6.772640228271484
 30
-0.6207262277603149
 11
5.704040050506592
 21
-6.76393985748291
 31
-0.6207262277603149
 12
1.9477999210357666
 22
-6.6952900886535645
 32
-0.6207262277603149
 13
1.9477999210357666
 23
-6.6952900886535645
 33
-0.6207262277603149
  0
3DFACE
  8
0
 10
5.898029804229736
 20
-6.898029804229736
 30
-0.6207262277603149
 11
5.795959949493408
 21
-6.76393985748291
 31
-0.6207262277603149
 12
5.792359828948975
 22
-6.772640228271484
 32
-0.6207262277603149
 13
5.792359828948975
 23
-6.772640228271484
 33
-0.6207262277603149
  0
3DFACE
  8
0
 10
5.898029804229736
 20
-6.898029804229736
 30
-0.6207262277603149
 11
5.792359828948975
 21
-6.772640228271484
 31
-0.6207262277603149
 12
5.787129878997803
 22
-6.78046989440918
 32
-0.6207262277603149
 13
5.787129878997803
 23
-6.78046989440918
 33
-0.6207262277603149
  0
3DFACE
  8
0
 10
5.712870121002197
 20
-6.78046989440918
 30
-0.6207262277603149
 11
5.707640171051025
 21
-6.772640228271484
 31
-0.6207262277603149
 12
1.9477999210357666
 22
-6.6952900886535645
 32
-0.6207262277603149
 13
1.9477999210357666
 23
-6.6952900886535645
 33
-0.6207262277603149
  0
3DFACE
  8
0
 10
5.71953010559082
 20
-6.7871294021606445
 30
-0.6207262277603149
 11
5.712870121002197
 21
-6.78046989440918
 31
-0.6207262277603149
 12
1.9477999210357666
 22
-6.6952900886535645
 32
-0.6207262277603149
 13
1.9477999210357666
 23
-6.6952900886535645
 33
-0.6207262277603149
  0
3DFACE
  8
0
 10
5.898029804229736
 20
-6.898029804229736
 30
-0.6207262277603149
 11
5.787129878997803
 21
-6.78046989440918
 31
-0.6207262277603149
 12
5.78046989440918
 22
-6.7871294021606445
 32
-0.6207262277603149
 13
5.78046989440918
 23
-6.7871294021606445
 33
-0.6207262277603149
  0
3DFACE
  8
0
 10
5.898029804229736
 20
-6.898029804229736
 30
-0.6207262277603149
 11
5.78046989440918
 21
-6.7871294021606445
 31
-0.6207262277603149
 12
5.772640228271484
 22
-6.792359828948975
 32
-0.6207262277603149
 13
5.772640228271484
 23
-6.792359828948975
 33
-0.6207262277603149
  0
3DFACE
  8
0
 10
5.727359771728516
 20
-6.792359828948975
 30
-0.6207262277603149
 11
5.71953010559082
 21
-6.7871294021606445
 31
-0.6207262277603149
 12
1.9477999210357666
 22
-6.6952900886535645
 32
-0.6207262277603149
 13
1.9477999210357666
 23
-6.6952900886535645
 33
-0.6207262277603149
  0
3DFACE
  8
0
 10
5.73606014251709
 20
-6.79595947265625
 30
-0.6207262277603149
 11
5.727359771728516
 21
-6.792359828948975
 31
-0.6207262277603149
 12
1.9477999210357666
 22
-6.6952900886535645
 32
-0.6207262277603149
 13
1.9477999210357666
 23
-6.6952900886535645
 33
-0.6207262277603149
  0
3DFACE
  8
0
 10
5.898029804229736
 20
-6.898029804229736
 30
-0.6207262277603149
 11
5.772640228271484
 21
-6.792359828948975
 31
-0.6207262277603149
 12
5.76393985748291
 22
-6.79595947265625
 32
-0.6207262277603149
 13
5.76393985748291
 23
-6.79595947265625
 33
-0.6207262277603149
  0
3DFACE
  8
0
 10
5.898029804229736
 20
-6.898029804229736
 30
-0.6207262277603149
 11
5.76393985748291
 21
-6.79595947265625
 31
-0.6207262277603149
 12
5.7547101974487305
 22
-6.797800064086914
 32
-0.6207262277603149
 13
5.7547101974487305
 23
-6.797800064086914
 33
-0.6207262277603149
  0
3DFACE
  8
0
 10
5.73606014251709
 20
-6.79595947265625
 30
-0.6207262277603149
 11
1.9477999210357666
 21
-6.6952900886535645
 31
-0.6207262277603149
 12
5.898029804229736
 22
-6.898029804229736
 32
-0.6207262277603149
 13
5.898029804229736
 23
-6.898029804229736
 33
-0.6207262277603149
  0
3DFACE
  8
0
 10
5.898029804229736
 20
-6.898029804229736
 30
-0.6207262277603149
 11
5.7547101974487305
 21
-6.797800064086914
 31
-0.6207262277603149
 12
5.7452898025512695
 22
-6.797800064086914
 32
-0.6207262277603149
 13
5.7452898025512695
 23
-6.797800064086914
 33
-0.6207262277603149
  0
3DFACE
  8
0
 10
5.898029804229736
 20
-6.898029804229736
 30
-0.6207262277603149
 11
5.7452898025512695
 21
-6.797800064086914
 31
-0.6207262277603149
 12
5.73606014251709
 22
-6.79595947265625
 32
-0.6207262277603149
 13
5.73606014251709
 23
-6.79595947265625
 33
-0.6207262277603149
  0
3DFACE
  8
0
 10
1.8959600925445557
 20
-1.1360599994659424
 30
-0.6207262277603149
 11
1.8977999687194824
 21
-1.1452900171279907
 31
-0.6207262277603149
 12
5.702199935913086
 22
-1.1452900171279907
 32
-0.6207262277603149
 13
5.702199935913086
 23
-1.1452900171279907
 33
-0.6207262277603149
  0
3DFACE
  8
0
 10
1.8959600925445557
 20
-1.1360599994659424
 30
-0.6207262277603149
 11
5.702199935913086
 21
-1.1452900171279907
 31
-0.6207262277603149
 12
5.704040050506592
 22
-1.1360599994659424
 32
-0.6207262277603149
 13
5.704040050506592
 23
-1.1360599994659424
 33
-0.6207262277603149
  0
3DFACE
  8
0
 10
1.892359972000122
 20
-1.1273599863052368
 30
-0.6207262277603149
 11
1.8959600925445557
 21
-1.1360599994659424
 31
-0.6207262277603149
 12
5.704040050506592
 22
-1.1360599994659424
 32
-0.6207262277603149
 13
5.704040050506592
 23
-1.1360599994659424
 33
-0.6207262277603149
  0
3DFACE
  8
0
 10
1.892359972000122
 20
-1.1273599863052368
 30
-0.6207262277603149
 11
5.704040050506592
 21
-1.1360599994659424
 31
-0.6207262277603149
 12
5.707640171051025
 22
-1.1273599863052368
 32
-0.6207262277603149
 13
5.707640171051025
 23
-1.1273599863052368
 33
-0.6207262277603149
  0
3DFACE
  8
0
 10
1.8871300220489502
 20
-1.1195299625396729
 30
-0.6207262277603149
 11
1.892359972000122
 21
-1.1273599863052368
 31
-0.6207262277603149
 12
5.707640171051025
 22
-1.1273599863052368
 32
-0.6207262277603149
 13
5.707640171051025
 23
-1.1273599863052368
 33
-0.6207262277603149
  0
3DFACE
  8
0
 10
1.8871300220489502
 20
-1.1195299625396729
 30
-0.6207262277603149
 11
5.707640171051025
 21
-1.1273599863052368
 31
-0.6207262277603149
 12
5.712870121002197
 22
-1.1195299625396729
 32
-0.6207262277603149
 13
5.712870121002197
 23
-1.1195299625396729
 33
-0.6207262277603149
  0
3DFACE
  8
0
 10
1.8804700374603271
 20
-1.1128699779510498
 30
-0.6207262277603149
 11
1.8871300220489502
 21
-1.1195299625396729
 31
-0.6207262277603149
 12
5.712870121002197
 22
-1.1195299625396729
 32
-0.6207262277603149
 13
5.712870121002197
 23
-1.1195299625396729
 33
-0.6207262277603149
  0
3DFACE
  8
0
 10
1.8804700374603271
 20
-1.1128699779510498
 30
-0.6207262277603149
 11
5.712870121002197
 21
-1.1195299625396729
 31
-0.6207262277603149
 12
5.71953010559082
 22
-1.1128699779510498
 32
-0.6207262277603149
 13
5.71953010559082
 23
-1.1128699779510498
 33
-0.6207262277603149
  0
3DFACE
  8
0
 10
1.8726400136947632
 20
-1.107640027999878
 30
-0.6207262277603149
 11
1.8804700374603271
 21
-1.1128699779510498
 31
-0.6207262277603149
 12
5.71953010559082
 22
-1.1128699779510498
 32
-0.6207262277603149
 13
5.71953010559082
 23
-1.1128699779510498
 33
-0.6207262277603149
  0
3DFACE
  8
0
 10
1.8726400136947632
 20
-1.107640027999878
 30
-0.6207262277603149
 11
5.71953010559082
 21
-1.1128699779510498
 31
-0.6207262277603149
 12
5.727359771728516
 22
-1.107640027999878
 32
-0.6207262277603149
 13
5.727359771728516
 23
-1.107640027999878
 33
-0.6207262277603149
  0
3DFACE
  8
0
 10
1.8639400005340576
 20
-1.1040400266647339
 30
-0.6207262277603149
 11
1.8726400136947632
 21
-1.107640027999878
 31
-0.6207262277603149
 12
5.727359771728516
 22
-1.107640027999878
 32
-0.6207262277603149
 13
5.727359771728516
 23
-1.107640027999878
 33
-0.6207262277603149
  0
3DFACE
  8
0
 10
1.8639400005340576
 20
-1.1040400266647339
 30
-0.6207262277603149
 11
5.727359771728516
 21
-1.107640027999878
 31
-0.6207262277603149
 12
5.73606014251709
 22
-1.1040400266647339
 32
-0.6207262277603149
 13
5.73606014251709
 23
-1.1040400266647339
 33
-0.6207262277603149
  0
3DFACE
  8
0
 10
1.8547099828720093
 20
-1.1022000312805176
 30
-0.6207262277603149
 11
1.8639400005340576
 21
-1.1040400266647339
 31
-0.6207262277603149
 12
5.73606014251709
 22
-1.1040400266647339
 32
-0.6207262277603149
 13
5.73606014251709
 23
-1.1040400266647339
 33
-0.6207262277603149
  0
3DFACE
  8
0
 10
1.8547099828720093
 20
-1.1022000312805176
 30
-0.6207262277603149
 11
5.73606014251709
 21
-1.1040400266647339
 31
-0.6207262277603149
 12
5.7452898025512695
 22
-1.1022000312805176
 32
-0.6207262277603149
 13
5.7452898025512695
 23
-1.1022000312805176
 33
-0.6207262277603149
  0
3DFACE
  8
0
 10
1.845289945602417
 20
-1.1022000312805176
 30
-0.6207262277603149
 11
1.8547099828720093
 21
-1.1022000312805176
 31
-0.6207262277603149
 12
5.7452898025512695
 22
-1.1022000312805176
 32
-0.6207262277603149
 13
5.7452898025512695
 23
-1.1022000312805176
 33
-0.6207262277603149
  0
3DFACE
  8
0
 10
1.845289945602417
 20
-1.1022000312805176
 30
-0.6207262277603149
 11
5.7452898025512695
 21
-1.1022000312805176
 31
-0.6207262277603149
 12
5.7547101974487305
 22
-1.1022000312805176
 32
-0.6207262277603149
 13
5.7547101974487305
 23
-1.1022000312805176
 33
-0.6207262277603149
  0
3DFACE
  8
0
 10
5.795959949493408
 20
-1.1360599994659424
 30
-0.6207262277603149
 11
5.797800064086914
 21
-1.1452900171279907
 31
-0.6207262277603149
 12
5.898029804229736
 22
-1.0019700527191162
 32
-0.6207262277603149
 13
5.898029804229736
 23
-1.0019700527191162
 33
-0.6207262277603149
  0
3DFACE
  8
0
 10
1.7019699811935425
 20
-1.0019700527191162
 30
-0.6207262277603149
 11
1.8021998405456543
 21
-1.154710054397583
 31
-0.6207262277603149
 12
1.8021998405456543
 22
-1.1452900171279907
 32
-0.6207262277603149
 13
1.8021998405456543
 23
-1.1452900171279907
 33
-0.6207262277603149
  0
3DFACE
  8
0
 10
1.7019699811935425
 20
-1.0019700527191162
 30
-0.6207262277603149
 11
1.8021998405456543
 21
-1.1452900171279907
 31
-0.6207262277603149
 12
1.8040399551391602
 22
-1.1360599994659424
 32
-0.6207262277603149
 13
1.8040399551391602
 23
-1.1360599994659424
 33
-0.6207262277603149
  0
3DFACE
  8
0
 10
5.792359828948975
 20
-1.1273599863052368
 30
-0.6207262277603149
 11
5.795959949493408
 21
-1.1360599994659424
 31
-0.6207262277603149
 12
5.898029804229736
 22
-1.0019700527191162
 32
-0.6207262277603149
 13
5.898029804229736
 23
-1.0019700527191162
 33
-0.6207262277603149
  0
3DFACE
  8
0
 10
5.787129878997803
 20
-1.1195299625396729
 30
-0.6207262277603149
 11
5.792359828948975
 21
-1.1273599863052368
 31
-0.6207262277603149
 12
5.898029804229736
 22
-1.0019700527191162
 32
-0.6207262277603149
 13
5.898029804229736
 23
-1.0019700527191162
 33
-0.6207262277603149
  0
3DFACE
  8
0
 10
1.7019699811935425
 20
-1.0019700527191162
 30
-0.6207262277603149
 11
1.8040399551391602
 21
-1.1360599994659424
 31
-0.6207262277603149
 12
1.8076399564743042
 22
-1.1273599863052368
 32
-0.6207262277603149
 13
1.8076399564743042
 23
-1.1273599863052368
 33
-0.6207262277603149
  0
3DFACE
  8
0
 10
1.7019699811935425
 20
-1.0019700527191162
 30
-0.6207262277603149
 11
1.8076399564743042
 21
-1.1273599863052368
 31
-0.6207262277603149
 12
1.8128700256347656
 22
-1.1195299625396729
 32
-0.6207262277603149
 13
1.8128700256347656
 23
-1.1195299625396729
 33
-0.6207262277603149
  0
3DFACE
  8
0
 10
5.78046989440918
 20
-1.1128699779510498
 30
-0.6207262277603149
 11
5.787129878997803
 21
-1.1195299625396729
 31
-0.6207262277603149
 12
5.898029804229736
 22
-1.0019700527191162
 32
-0.6207262277603149
 13
5.898029804229736
 23
-1.0019700527191162
 33
-0.6207262277603149
  0
3DFACE
  8
0
 10
5.772640228271484
 20
-1.107640027999878
 30
-0.6207262277603149
 11
5.78046989440918
 21
-1.1128699779510498
 31
-0.6207262277603149
 12
5.898029804229736
 22
-1.0019700527191162
 32
-0.6207262277603149
 13
5.898029804229736
 23
-1.0019700527191162
 33
-0.6207262277603149
  0
3DFACE
  8
0
 10
1.7019699811935425
 20
-1.0019700527191162
 30
-0.6207262277603149
 11
1.8128700256347656
 21
-1.1195299625396729
 31
-0.6207262277603149
 12
1.8195300102233887
 22
-1.1128699779510498
 32
-0.6207262277603149
 13
1.8195300102233887
 23
-1.1128699779510498
 33
-0.6207262277603149
  0
3DFACE
  8
0
 10
1.7019699811935425
 20
-1.0019700527191162
 30
-0.6207262277603149
 11
1.8195300102233887
 21
-1.1128699779510498
 31
-0.6207262277603149
 12
1.8273601531982422
 22
-1.107640027999878
 32
-0.6207262277603149
 13
1.8273601531982422
 23
-1.107640027999878
 33
-0.6207262277603149
  0
3DFACE
  8
0
 10
5.76393985748291
 20
-1.1040400266647339
 30
-0.6207262277603149
 11
5.772640228271484
 21
-1.107640027999878
 31
-0.6207262277603149
 12
5.898029804229736
 22
-1.0019700527191162
 32
-0.6207262277603149
 13
5.898029804229736
 23
-1.0019700527191162
 33
-0.6207262277603149
  0
3DFACE
  8
0
 10
5.7547101974487305
 20
-1.1022000312805176
 30
-0.6207262277603149
 11
5.76393985748291
 21
-1.1040400266647339
 31
-0.6207262277603149
 12
5.898029804229736
 22
-1.0019700527191162
 32
-0.6207262277603149
 13
5.898029804229736
 23
-1.0019700527191162
 33
-0.6207262277603149
  0
3DFACE
  8
0
 10
1.7019699811935425
 20
-1.0019700527191162
 30
-0.6207262277603149
 11
1.8273601531982422
 21
-1.107640027999878
 31
-0.6207262277603149
 12
1.8360600471496582
 22
-1.1040400266647339
 32
-0.6207262277603149
 13
1.8360600471496582
 23
-1.1040400266647339
 33
-0.6207262277603149
  0
3DFACE
  8
0
 10
1.845289945602417
 20
-1.1022000312805176
 30
-0.6207262277603149
 11
5.7547101974487305
 21
-1.1022000312805176
 31
-0.6207262277603149
 12
5.898029804229736
 22
-1.0019700527191162
 32
-0.6207262277603149
 13
5.898029804229736
 23
-1.0019700527191162
 33
-0.6207262277603149
  0
3DFACE
  8
0
 10
1.7019699811935425
 20
-1.0019700527191162
 30
-0.6207262277603149
 11
1.8360600471496582
 21
-1.1040400266647339
 31
-0.6207262277603149
 12
1.845289945602417
 22
-1.1022000312805176
 32
-0.6207262277603149
 13
1.845289945602417
 23
-1.1022000312805176
 33
-0.6207262277603149
  0
3DFACE
  8
0
 10
1.845289945602417
 20
-1.1022000312805176
 30
-0.6207262277603149
 11
5.898029804229736
 21
-1.0019700527191162
 31
-0.6207262277603149
 12
1.7019699811935425
 22
-1.0019700527191162
 32
-0.6207262277603149
 13
1.7019699811935425
 23
-1.0019700527191162
 33
-0.6207262277603149
  0
3DFACE
  8
0
 10
5.898029804229736
 20
-6.898029804229736
 30
-0.6207262277603149
 11
1.9477999210357666
 21
-6.6952900886535645
 31
-0.6207262277603149
 12
1.9477999210357666
 22
-6.704710006713867
 32
-0.6207262277603149
 13
1.9477999210357666
 23
-6.704710006713867
 33
-0.6207262277603149
  0
3DFACE
  8
0
 10
5.898029804229736
 20
-6.898029804229736
 30
-0.6207262277603149
 11
1.9477999210357666
 21
-6.704710006713867
 31
-0.6207262277603149
 12
1.9459600448608398
 22
-6.713940143585205
 32
-0.6207262277603149
 13
1.9459600448608398
 23
-6.713940143585205
 33
-0.6207262277603149
  0
3DFACE
  8
0
 10
1.8540400266647339
 20
-6.713940143585205
 30
-0.6207262277603149
 11
1.8522000312805176
 21
-6.704710006713867
 31
-0.6207262277603149
 12
1.7019699811935425
 22
-6.898029804229736
 32
-0.6207262277603149
 13
1.7019699811935425
 23
-6.898029804229736
 33
-0.6207262277603149
  0
3DFACE
  8
0
 10
1.857640027999878
 20
-6.722640037536621
 30
-0.6207262277603149
 11
1.8540400266647339
 21
-6.713940143585205
 31
-0.6207262277603149
 12
1.7019699811935425
 22
-6.898029804229736
 32
-0.6207262277603149
 13
1.7019699811935425
 23
-6.898029804229736
 33
-0.6207262277603149
  0
3DFACE
  8
0
 10
5.898029804229736
 20
-6.898029804229736
 30
-0.6207262277603149
 11
1.9459600448608398
 21
-6.713940143585205
 31
-0.6207262277603149
 12
1.9423600435256958
 22
-6.722640037536621
 32
-0.6207262277603149
 13
1.9423600435256958
 23
-6.722640037536621
 33
-0.6207262277603149
  0
3DFACE
  8
0
 10
5.898029804229736
 20
-6.898029804229736
 30
-0.6207262277603149
 11
1.9423600435256958
 21
-6.722640037536621
 31
-0.6207262277603149
 12
1.9371299743652344
 22
-6.730470657348633
 32
-0.6207262277603149
 13
1.9371299743652344
 23
-6.730470657348633
 33
-0.6207262277603149
  0
3DFACE
  8
0
 10
1.8628699779510498
 20
-6.730470657348633
 30
-0.6207262277603149
 11
1.857640027999878
 21
-6.722640037536621
 31
-0.6207262277603149
 12
1.7019699811935425
 22
-6.898029804229736
 32
-0.6207262277603149
 13
1.7019699811935425
 23
-6.898029804229736
 33
-0.6207262277603149
  0
3DFACE
  8
0
 10
1.8695299625396729
 20
-6.737130165100098
 30
-0.6207262277603149
 11
1.8628699779510498
 21
-6.730470657348633
 31
-0.6207262277603149
 12
1.7019699811935425
 22
-6.898029804229736
 32
-0.6207262277603149
 13
1.7019699811935425
 23
-6.898029804229736
 33
-0.6207262277603149
  0
3DFACE
  8
0
 10
5.898029804229736
 20
-6.898029804229736
 30
-0.6207262277603149
 11
1.9371299743652344
 21
-6.730470657348633
 31
-0.6207262277603149
 12
1.9304699897766113
 22
-6.737130165100098
 32
-0.6207262277603149
 13
1.9304699897766113
 23
-6.737130165100098
 33
-0.6207262277603149
  0
3DFACE
  8
0
 10
5.898029804229736
 20
-6.898029804229736
 30
-0.6207262277603149
 11
1.9304699897766113
 21
-6.737130165100098
 31
-0.6207262277603149
 12
1.9226399660110474
 22
-6.7423601150512695
 32
-0.6207262277603149
 13
1.9226399660110474
 23
-6.7423601150512695
 33
-0.6207262277603149
  0
3DFACE
  8
0
 10
1.8773599863052368
 20
-6.7423601150512695
 30
-0.6207262277603149
 11
1.8695299625396729
 21
-6.737130165100098
 31
-0.6207262277603149
 12
1.7019699811935425
 22
-6.898029804229736
 32
-0.6207262277603149
 13
1.7019699811935425
 23
-6.898029804229736
 33
-0.6207262277603149
  0
3DFACE
  8
0
 10
1.8860599994659424
 20
-6.745960235595703
 30
-0.6207262277603149
 11
1.8773599863052368
 21
-6.7423601150512695
 31
-0.6207262277603149
 12
1.7019699811935425
 22
-6.898029804229736
 32
-0.6207262277603149
 13
1.7019699811935425
 23
-6.898029804229736
 33
-0.6207262277603149
  0
3DFACE
  8
0
 10
1.7019699811935425
 20
-6.898029804229736
 30
-0.6207262277603149
 11
5.898029804229736
 21
-6.898029804229736
 31
-0.6207262277603149
 12
1.9226399660110474
 22
-6.7423601150512695
 32
-0.6207262277603149
 13
1.9226399660110474
 23
-6.7423601150512695
 33
-0.6207262277603149
  0
3DFACE
  8
0
 10
1.7019699811935425
 20
-6.898029804229736
 30
-0.6207262277603149
 11
1.9226399660110474
 21
-6.7423601150512695
 31
-0.6207262277603149
 12
1.9139399528503418
 22
-6.745960235595703
 32
-0.6207262277603149
 13
1.9139399528503418
 23
-6.745960235595703
 33
-0.6207262277603149
  0
3DFACE
  8
0
 10
1.8952900171279907
 20
-6.747799873352051
 30
-0.6207262277603149
 11
1.8860599994659424
 21
-6.745960235595703
 31
-0.6207262277603149
 12
1.7019699811935425
 22
-6.898029804229736
 32
-0.6207262277603149
 13
1.7019699811935425
 23
-6.898029804229736
 33
-0.6207262277603149
  0
3DFACE
  8
0
 10
1.7019699811935425
 20
-6.898029804229736
 30
-0.6207262277603149
 11
1.9139399528503418
 21
-6.745960235595703
 31
-0.6207262277603149
 12
1.904710054397583
 22
-6.747799873352051
 32
-0.6207262277603149
 13
1.904710054397583
 23
-6.747799873352051
 33
-0.6207262277603149
  0
3DFACE
  8
0
 10
1.904710054397583
 20
-6.747799873352051
 30
-0.6207262277603149
 11
1.8952900171279907
 21
-6.747799873352051
 31
-0.6207262277603149
 12
1.7019699811935425
 22
-6.898029804229736
 32
-0.6207262277603149
 13
1.7019699811935425
 23
-6.898029804229736
 33
-0.6207262277603149
  0
3DFACE
  8
0
 10
1.9486720561981201
 20
-1.264552354812622
 30
-0.6207262277603149
 11
2.811408758163452
 21
-1.264552354812622
 31
-0.6207262277603149
 12
2.8976824283599854
 22
-1.264552354812622
 32
-0.6207262277603149
 13
2.8976824283599854
 23
-1.264552354812622
 33
-0.6207262277603149
  0
3DFACE
  8
0
 10
3.7604188919067383
 20
-1.264552354812622
 30
-0.6207262277603149
 11
3.8466930389404297
 21
-1.264552354812622
 31
-0.6207262277603149
 12
4.709429740905762
 22
-1.264552354812622
 32
-0.6207262277603149
 13
4.709429740905762
 23
-1.264552354812622
 33
-0.6207262277603149
  0
3DFACE
  8
0
 10
1.9486720561981201
 20
-1.264552354812622
 30
-0.6207262277603149
 11
2.8976824283599854
 21
-1.264552354812622
 31
-0.6207262277603149
 12
3.7604188919067383
 22
-1.264552354812622
 32
-0.6207262277603149
 13
3.7604188919067383
 23
-1.264552354812622
 33
-0.6207262277603149
  0
3DFACE
  8
0
 10
4.709429740905762
 20
-1.264552354812622
 30
-0.6207262277603149
 11
4.795703411102295
 21
-1.264552354812622
 31
-0.6207262277603149
 12
5.658440113067627
 22
-1.264552354812622
 32
-0.6207262277603149
 13
5.658440113067627
 23
-1.264552354812622
 33
-0.6207262277603149
  0
3DFACE
  8
0
 10
1.9486720561981201
 20
-1.264552354812622
 30
-0.6207262277603149
 11
3.7604188919067383
 21
-1.264552354812622
 31
-0.6207262277603149
 12
4.709429740905762
 22
-1.264552354812622
 32
-0.6207262277603149
 13
4.709429740905762
 23
-1.264552354812622
 33
-0.6207262277603149
  0
3DFACE
  8
0
 10
4.709429740905762
 20
-1.264552354812622
 30
-0.6207262277603149
 11
5.658440113067627
 21
-1.264552354812622
 31
-0.6207262277603149
 12
5.71953010559082
 22
-1.1871299743652344
 32
-0.6207262277603149
 13
5.71953010559082
 23
-1.1871299743652344
 33
-0.6207262277603149
  0
3DFACE
  8
0
 10
4.709429740905762
 20
-1.264552354812622
 30
-0.6207262277603149
 11
5.71953010559082
 21
-1.1871299743652344
 31
-0.6207262277603149
 12
5.712870121002197
 22
-1.1804699897766113
 32
-0.6207262277603149
 13
5.712870121002197
 23
-1.1804699897766113
 33
-0.6207262277603149
  0
3DFACE
  8
0
 10
1.9486720561981201
 20
-1.264552354812622
 30
-0.6207262277603149
 11
4.709429740905762
 21
-1.264552354812622
 31
-0.6207262277603149
 12
5.712870121002197
 22
-1.1804699897766113
 32
-0.6207262277603149
 13
5.712870121002197
 23
-1.1804699897766113
 33
-0.6207262277603149
  0
3DFACE
  8
0
 10
1.9486720561981201
 20
-1.264552354812622
 30
-0.6207262277603149
 11
5.712870121002197
 21
-1.1804699897766113
 31
-0.6207262277603149
 12
5.707640171051025
 22
-1.1726399660110474
 32
-0.6207262277603149
 13
5.707640171051025
 23
-1.1726399660110474
 33
-0.6207262277603149
  0
3DFACE
  8
0
 10
1.8040399551391602
 20
-1.1639399528503418
 30
-0.6207262277603149
 11
1.8021998405456543
 21
-1.154710054397583
 31
-0.6207262277603149
 12
1.7019699811935425
 22
-1.0019700527191162
 32
-0.6207262277603149
 13
1.7019699811935425
 23
-1.0019700527191162
 33
-0.6207262277603149
  0
3DFACE
  8
0
 10
1.8076399564743042
 20
-1.1726399660110474
 30
-0.6207262277603149
 11
1.8040399551391602
 21
-1.1639399528503418
 31
-0.6207262277603149
 12
1.7019699811935425
 22
-1.0019700527191162
 32
-0.6207262277603149
 13
1.7019699811935425
 23
-1.0019700527191162
 33
-0.6207262277603149
  0
3DFACE
  8
0
 10
1.9486720561981201
 20
-1.264552354812622
 30
-0.6207262277603149
 11
5.707640171051025
 21
-1.1726399660110474
 31
-0.6207262277603149
 12
5.704040050506592
 22
-1.1639399528503418
 32
-0.6207262277603149
 13
5.704040050506592
 23
-1.1639399528503418
 33
-0.6207262277603149
  0
3DFACE
  8
0
 10
5.702199935913086
 20
-1.154710054397583
 30
-0.6207262277603149
 11
5.702199935913086
 21
-1.1452900171279907
 31
-0.6207262277603149
 12
1.8977999687194824
 22
-1.1452900171279907
 32
-0.6207262277603149
 13
1.8977999687194824
 23
-1.1452900171279907
 33
-0.6207262277603149
  0
3DFACE
  8
0
 10
1.9486720561981201
 20
-1.264552354812622
 30
-0.6207262277603149
 11
5.704040050506592
 21
-1.1639399528503418
 31
-0.6207262277603149
 12
5.702199935913086
 22
-1.154710054397583
 32
-0.6207262277603149
 13
5.702199935913086
 23
-1.154710054397583
 33
-0.6207262277603149
  0
3DFACE
  8
0
 10
1.8076399564743042
 20
-1.1726399660110474
 30
-0.6207262277603149
 11
1.7019699811935425
 21
-1.0019700527191162
 31
-0.6207262277603149
 12
1.9486720561981201
 22
-1.60953688621521
 32
-0.6207262277603149
 13
1.9486720561981201
 23
-1.60953688621521
 33
-0.6207262277603149
  0
3DFACE
  8
0
 10
1.8128700256347656
 20
-1.1804699897766113
 30
-0.6207262277603149
 11
1.8076399564743042
 21
-1.1726399660110474
 31
-0.6207262277603149
 12
1.9486720561981201
 22
-1.60953688621521
 32
-0.6207262277603149
 13
1.9486720561981201
 23
-1.60953688621521
 33
-0.6207262277603149
  0
3DFACE
  8
0
 10
1.9486720561981201
 20
-1.264552354812622
 30
-0.6207262277603149
 11
5.702199935913086
 21
-1.154710054397583
 31
-0.6207262277603149
 12
1.8977999687194824
 22
-1.1452900171279907
 32
-0.6207262277603149
 13
1.8977999687194824
 23
-1.1452900171279907
 33
-0.6207262277603149
  0
3DFACE
  8
0
 10
1.8195300102233887
 20
-1.1871299743652344
 30
-0.6207262277603149
 11
1.8128700256347656
 21
-1.1804699897766113
 31
-0.6207262277603149
 12
1.9486720561981201
 22
-1.60953688621521
 32
-0.6207262277603149
 13
1.9486720561981201
 23
-1.60953688621521
 33
-0.6207262277603149
  0
3DFACE
  8
0
 10
1.8273601531982422
 20
-1.1923600435256958
 30
-0.6207262277603149
 11
1.8195300102233887
 21
-1.1871299743652344
 31
-0.6207262277603149
 12
1.9486720561981201
 22
-1.60953688621521
 32
-0.6207262277603149
 13
1.9486720561981201
 23
-1.60953688621521
 33
-0.6207262277603149
  0
3DFACE
  8
0
 10
1.9486720561981201
 20
-1.60953688621521
 30
-0.6207262277603149
 11
1.9486720561981201
 21
-1.264552354812622
 31
-0.6207262277603149
 12
1.8977999687194824
 22
-1.1452900171279907
 32
-0.6207262277603149
 13
1.8977999687194824
 23
-1.1452900171279907
 33
-0.6207262277603149
  0
3DFACE
  8
0
 10
1.9486720561981201
 20
-1.60953688621521
 30
-0.6207262277603149
 11
1.8977999687194824
 21
-1.1452900171279907
 31
-0.6207262277603149
 12
1.8977999687194824
 22
-1.154710054397583
 32
-0.6207262277603149
 13
1.8977999687194824
 23
-1.154710054397583
 33
-0.6207262277603149
  0
3DFACE
  8
0
 10
1.8360600471496582
 20
-1.1959600448608398
 30
-0.6207262277603149
 11
1.8273601531982422
 21
-1.1923600435256958
 31
-0.6207262277603149
 12
1.9486720561981201
 22
-1.60953688621521
 32
-0.6207262277603149
 13
1.9486720561981201
 23
-1.60953688621521
 33
-0.6207262277603149
  0
3DFACE
  8
0
 10
1.845289945602417
 20
-1.1978000402450562
 30
-0.6207262277603149
 11
1.8360600471496582
 21
-1.1959600448608398
 31
-0.6207262277603149
 12
1.9486720561981201
 22
-1.60953688621521
 32
-0.6207262277603149
 13
1.9486720561981201
 23
-1.60953688621521
 33
-0.6207262277603149
  0
3DFACE
  8
0
 10
1.9486720561981201
 20
-1.60953688621521
 30
-0.6207262277603149
 11
1.8977999687194824
 21
-1.154710054397583
 31
-0.6207262277603149
 12
1.8959600925445557
 22
-1.1639399528503418
 32
-0.6207262277603149
 13
1.8959600925445557
 23
-1.1639399528503418
 33
-0.6207262277603149
  0
3DFACE
  8
0
 10
1.9486720561981201
 20
-1.60953688621521
 30
-0.6207262277603149
 11
1.8959600925445557
 21
-1.1639399528503418
 31
-0.6207262277603149
 12
1.892359972000122
 22
-1.1726399660110474
 32
-0.6207262277603149
 13
1.892359972000122
 23
-1.1726399660110474
 33
-0.6207262277603149
  0
3DFACE
  8
0
 10
1.8547099828720093
 20
-1.1978000402450562
 30
-0.6207262277603149
 11
1.845289945602417
 21
-1.1978000402450562
 31
-0.6207262277603149
 12
1.9486720561981201
 22
-1.60953688621521
 32
-0.6207262277603149
 13
1.9486720561981201
 23
-1.60953688621521
 33
-0.6207262277603149
  0
3DFACE
  8
0
 10
1.8639400005340576
 20
-1.1959600448608398
 30
-0.6207262277603149
 11
1.8547099828720093
 21
-1.1978000402450562
 31
-0.6207262277603149
 12
1.9486720561981201
 22
-1.60953688621521
 32
-0.6207262277603149
 13
1.9486720561981201
 23
-1.60953688621521
 33
-0.6207262277603149
  0
3DFACE
  8
0
 10
1.9486720561981201
 20
-1.60953688621521
 30
-0.6207262277603149
 11
1.892359972000122
 21
-1.1726399660110474
 31
-0.6207262277603149
 12
1.8871300220489502
 22
-1.1804699897766113
 32
-0.6207262277603149
 13
1.8871300220489502
 23
-1.1804699897766113
 33
-0.6207262277603149
  0
3DFACE
  8
0
 10
1.9486720561981201
 20
-1.60953688621521
 30
-0.6207262277603149
 11
1.8871300220489502
 21
-1.1804699897766113
 31
-0.6207262277603149
 12
1.8804700374603271
 22
-1.1871299743652344
 32
-0.6207262277603149
 13
1.8804700374603271
 23
-1.1871299743652344
 33
-0.6207262277603149
  0
3DFACE
  8
0
 10
1.8726400136947632
 20
-1.1923600435256958
 30
-0.6207262277603149
 11
1.8639400005340576
 21
-1.1959600448608398
 31
-0.6207262277603149
 12
1.9486720561981201
 22
-1.60953688621521
 32
-0.6207262277603149
 13
1.9486720561981201
 23
-1.60953688621521
 33
-0.6207262277603149
  0
3DFACE
  8
0
 10
1.9486720561981201
 20
-1.60953688621521
 30
-0.6207262277603149
 11
1.8804700374603271
 21
-1.1871299743652344
 31
-0.6207262277603149
 12
1.8726400136947632
 22
-1.1923600435256958
 32
-0.6207262277603149
 13
1.8726400136947632
 23
-1.1923600435256958
 33
-0.6207262277603149
  0
3DFACE
  8
0
 10
5.727359771728516
 20
-1.1923600435256958
 30
-0.6207262277603149
 11
5.71953010559082
 21
-1.1871299743652344
 31
-0.6207262277603149
 12
5.658440113067627
 22
-1.264552354812622
 32
-0.6207262277603149
 13
5.658440113067627
 23
-1.264552354812622
 33
-0.6207262277603149
  0
3DFACE
  8
0
 10
5.727359771728516
 20
-1.1923600435256958
 30
-0.6207262277603149
 11
5.658440113067627
 21
-1.264552354812622
 31
-0.6207262277603149
 12
5.658439636230469
 22
-1.60953688621521
 32
-0.6207262277603149
 13
5.658439636230469
 23
-1.60953688621521
 33
-0.6207262277603149
  0
3DFACE
  8
0
 10
5.73606014251709
 20
-1.1959600448608398
 30
-0.6207262277603149
 11
5.727359771728516
 21
-1.1923600435256958
 31
-0.6207262277603149
 12
5.658439636230469
 22
-1.60953688621521
 32
-0.6207262277603149
 13
5.658439636230469
 23
-1.60953688621521
 33
-0.6207262277603149
  0
3DFACE
  8
0
 10
4.795703411102295
 20
-1.60953688621521
 30
-0.6207262277603149
 11
4.795703411102295
 21
-1.264552354812622
 31
-0.6207262277603149
 12
4.709429740905762
 22
-1.264552354812622
 32
-0.6207262277603149
 13
4.709429740905762
 23
-1.264552354812622
 33
-0.6207262277603149
  0
3DFACE
  8
0
 10
5.7452898025512695
 20
-1.1978000402450562
 30
-0.6207262277603149
 11
5.73606014251709
 21
-1.1959600448608398
 31
-0.6207262277603149
 12
5.658439636230469
 22
-1.60953688621521
 32
-0.6207262277603149
 13
5.658439636230469
 23
-1.60953688621521
 33
-0.6207262277603149
  0
3DFACE
  8
0
 10
4.795703411102295
 20
-1.60953688621521
 30
-0.6207262277603149
 11
4.709429740905762
 21
-1.264552354812622
 31
-0.6207262277603149
 12
4.709429740905762
 22
-1.60953688621521
 32
-0.6207262277603149
 13
4.709429740905762
 23
-1.60953688621521
 33
-0.6207262277603149
  0
3DFACE
  8
0
 10
5.7547101974487305
 20
-1.1978000402450562
 30
-0.6207262277603149
 11
5.7452898025512695
 21
-1.1978000402450562
 31
-0.6207262277603149
 12
5.658439636230469
 22
-1.60953688621521
 32
-0.6207262277603149
 13
5.658439636230469
 23
-1.60953688621521
 33
-0.6207262277603149
  0
3DFACE
  8
0
 10
4.795703411102295
 20
-1.60953688621521
 30
-0.6207262277603149
 11
4.709429740905762
 21
-1.60953688621521
 31
-0.6207262277603149
 12
3.8466930389404297
 22
-1.60953688621521
 32
-0.6207262277603149
 13
3.8466930389404297
 23
-1.60953688621521
 33
-0.6207262277603149
  0
3DFACE
  8
0
 10
5.76393985748291
 20
-1.1959600448608398
 30
-0.6207262277603149
 11
5.7547101974487305
 21
-1.1978000402450562
 31
-0.6207262277603149
 12
5.658439636230469
 22
-1.60953688621521
 32
-0.6207262277603149
 13
5.658439636230469
 23
-1.60953688621521
 33
-0.6207262277603149
  0
3DFACE
  8
0
 10
5.658439636230469
 20
-1.60953688621521
 30
-0.6207262277603149
 11
4.795703411102295
 21
-1.60953688621521
 31
-0.6207262277603149
 12
3.8466930389404297
 22
-1.60953688621521
 32
-0.6207262277603149
 13
3.8466930389404297
 23
-1.60953688621521
 33
-0.6207262277603149
  0
3DFACE
  8
0
 10
5.772640228271484
 20
-1.1923600435256958
 30
-0.6207262277603149
 11
5.76393985748291
 21
-1.1959600448608398
 31
-0.6207262277603149
 12
5.658439636230469
 22
-1.60953688621521
 32
-0.6207262277603149
 13
5.658439636230469
 23
-1.60953688621521
 33
-0.6207262277603149
  0
3DFACE
  8
0
 10
5.78046989440918
 20
-1.1871299743652344
 30
-0.6207262277603149
 11
5.772640228271484
 21
-1.1923600435256958
 31
-0.6207262277603149
 12
5.658439636230469
 22
-1.60953688621521
 32
-0.6207262277603149
 13
5.658439636230469
 23
-1.60953688621521
 33
-0.6207262277603149
  0
3DFACE
  8
0
 10
3.8466930389404297
 20
-1.60953688621521
 30
-0.6207262277603149
 11
3.8466930389404297
 21
-1.264552354812622
 31
-0.6207262277603149
 12
3.7604188919067383
 22
-1.264552354812622
 32
-0.6207262277603149
 13
3.7604188919067383
 23
-1.264552354812622
 33
-0.6207262277603149
  0
3DFACE
  8
0
 10
5.787129878997803
 20
-1.1804699897766113
 30
-0.6207262277603149
 11
5.78046989440918
 21
-1.1871299743652344
 31
-0.6207262277603149
 12
5.658439636230469
 22
-1.60953688621521
 32
-0.6207262277603149
 13
5.658439636230469
 23
-1.60953688621521
 33
-0.6207262277603149
  0
3DFACE
  8
0
 10
3.8466930389404297
 20
-1.60953688621521
 30
-0.6207262277603149
 11
3.7604188919067383
 21
-1.264552354812622
 31
-0.6207262277603149
 12
3.7604188919067383
 22
-1.60953688621521
 32
-0.6207262277603149
 13
3.7604188919067383
 23
-1.60953688621521
 33
-0.6207262277603149
  0
3DFACE
  8
0
 10
5.792359828948975
 20
-1.1726399660110474
 30
-0.6207262277603149
 11
5.787129878997803
 21
-1.1804699897766113
 31
-0.6207262277603149
 12
5.658439636230469
 22
-1.60953688621521
 32
-0.6207262277603149
 13
5.658439636230469
 23
-1.60953688621521
 33
-0.6207262277603149
  0
3DFACE
  8
0
 10
3.8466930389404297
 20
-1.60953688621521
 30
-0.6207262277603149
 11
3.7604188919067383
 21
-1.60953688621521
 31
-0.6207262277603149
 12
2.8976824283599854
 22
-1.60953688621521
 32
-0.6207262277603149
 13
2.8976824283599854
 23
-1.60953688621521
 33
-0.6207262277603149
  0
3DFACE
  8
0
 10
5.795959949493408
 20
-1.1639399528503418
 30
-0.6207262277603149
 11
5.792359828948975
 21
-1.1726399660110474
 31
-0.6207262277603149
 12
5.658439636230469
 22
-1.60953688621521
 32
-0.6207262277603149
 13
5.658439636230469
 23
-1.60953688621521
 33
-0.6207262277603149
  0
3DFACE
  8
0
 10
5.658439636230469
 20
-1.60953688621521
 30
-0.6207262277603149
 11
3.8466930389404297
 21
-1.60953688621521
 31
-0.6207262277603149
 12
2.8976824283599854
 22
-1.60953688621521
 32
-0.6207262277603149
 13
2.8976824283599854
 23
-1.60953688621521
 33
-0.6207262277603149
  0
3DFACE
  8
0
 10
2.8976824283599854
 20
-1.60953688621521
 30
-0.6207262277603149
 11
2.8976824283599854
 21
-1.264552354812622
 31
-0.6207262277603149
 12
2.811408758163452
 22
-1.264552354812622
 32
-0.6207262277603149
 13
2.811408758163452
 23
-1.264552354812622
 33
-0.6207262277603149
  0
3DFACE
  8
0
 10
2.8976824283599854
 20
-1.60953688621521
 30
-0.6207262277603149
 11
2.811408758163452
 21
-1.264552354812622
 31
-0.6207262277603149
 12
2.811408758163452
 22
-1.60953688621521
 32
-0.6207262277603149
 13
2.811408758163452
 23
-1.60953688621521
 33
-0.6207262277603149
  0
3DFACE
  8
0
 10
5.658439636230469
 20
-1.60953688621521
 30
-0.6207262277603149
 11
2.8976824283599854
 21
-1.60953688621521
 31
-0.6207262277603149
 12
2.811408758163452
 22
-1.60953688621521
 32
-0.6207262277603149
 13
2.811408758163452
 23
-1.60953688621521
 33
-0.6207262277603149
  0
3DFACE
  8
0
 10
1.9486720561981201
 20
-1.60953688621521
 30
-0.6207262277603149
 11
1.7019699811935425
 21
-1.0019700527191162
 31
-0.6207262277603149
 12
1.9486720561981201
 22
-2.058706760406494
 32
-0.6207262277603149
 13
1.9486720561981201
 23
-2.058706760406494
 33
-0.6207262277603149
  0
3DFACE
  8
0
 10
5.658439636230469
 20
-1.60953688621521
 30
-0.6207262277603149
 11
2.811408758163452
 21
-1.60953688621521
 31
-0.6207262277603149
 12
1.9486720561981201
 22
-1.60953688621521
 32
-0.6207262277603149
 13
1.9486720561981201
 23
-1.60953688621521
 33
-0.6207262277603149
  0
3DFACE
  8
0
 10
1.9486720561981201
 20
-1.60953688621521
 30
-0.6207262277603149
 11
1.9486720561981201
 21
-2.058706760406494
 31
-0.6207262277603149
 12
1.9486720561981201
 22
-1.7137222290039062
 32
-0.6207262277603149
 13
1.9486720561981201
 23
-1.7137222290039062
 33
-0.6207262277603149
  0
3DFACE
  8
0
 10
2.811408758163452
 20
-1.7137222290039062
 30
-0.6207262277603149
 11
2.8976824283599854
 21
-1.7137222290039062
 31
-0.6207262277603149
 12
3.7604188919067383
 22
-1.7137222290039062
 32
-0.6207262277603149
 13
3.7604188919067383
 23
-1.7137222290039062
 33
-0.6207262277603149
  0
3DFACE
  8
0
 10
1.9486720561981201
 20
-1.60953688621521
 30
-0.6207262277603149
 11
1.9486720561981201
 21
-1.7137222290039062
 31
-0.6207262277603149
 12
2.811408758163452
 22
-1.7137222290039062
 32
-0.6207262277603149
 13
2.811408758163452
 23
-1.7137222290039062
 33
-0.6207262277603149
  0
3DFACE
  8
0
 10
5.658439636230469
 20
-1.60953688621521
 30
-0.6207262277603149
 11
1.9486720561981201
 21
-1.60953688621521
 31
-0.6207262277603149
 12
2.811408758163452
 22
-1.7137222290039062
 32
-0.6207262277603149
 13
2.811408758163452
 23
-1.7137222290039062
 33
-0.6207262277603149
  0
3DFACE
  8
0
 10
3.7604188919067383
 20
-1.7137222290039062
 30
-0.6207262277603149
 11
3.8466930389404297
 21
-1.7137222290039062
 31
-0.6207262277603149
 12
4.709429740905762
 22
-1.7137222290039062
 32
-0.6207262277603149
 13
4.709429740905762
 23
-1.7137222290039062
 33
-0.6207262277603149
  0
3DFACE
  8
0
 10
5.658439636230469
 20
-1.60953688621521
 30
-0.6207262277603149
 11
2.811408758163452
 21
-1.7137222290039062
 31
-0.6207262277603149
 12
3.7604188919067383
 22
-1.7137222290039062
 32
-0.6207262277603149
 13
3.7604188919067383
 23
-1.7137222290039062
 33
-0.6207262277603149
  0
3DFACE
  8
0
 10
5.658439636230469
 20
-1.60953688621521
 30
-0.6207262277603149
 11
3.7604188919067383
 21
-1.7137222290039062
 31
-0.6207262277603149
 12
4.709429740905762
 22
-1.7137222290039062
 32
-0.6207262277603149
 13
4.709429740905762
 23
-1.7137222290039062
 33
-0.6207262277603149
  0
3DFACE
  8
0
 10
4.709429740905762
 20
-1.7137222290039062
 30
-0.6207262277603149
 11
4.795703411102295
 21
-1.7137222290039062
 31
-0.6207262277603149
 12
5.658439636230469
 22
-1.7137222290039062
 32
-0.6207262277603149
 13
5.658439636230469
 23
-1.7137222290039062
 33
-0.6207262277603149
  0
3DFACE
  8
0
 10
5.658439636230469
 20
-1.60953688621521
 30
-0.6207262277603149
 11
4.709429740905762
 21
-1.7137222290039062
 31
-0.6207262277603149
 12
5.658439636230469
 22
-1.7137222290039062
 32
-0.6207262277603149
 13
5.658439636230469
 23
-1.7137222290039062
 33
-0.6207262277603149
  0
3DFACE
  8
0
 10
5.898029804229736
 20
-1.0019700527191162
 30
-0.6207262277603149
 11
5.797800064086914
 21
-1.1452900171279907
 31
-0.6207262277603149
 12
5.797800064086914
 22
-1.154710054397583
 32
-0.6207262277603149
 13
5.797800064086914
 23
-1.154710054397583
 33
-0.6207262277603149
  0
3DFACE
  8
0
 10
5.795959949493408
 20
-1.1639399528503418
 30
-0.6207262277603149
 11
5.658439636230469
 21
-1.60953688621521
 31
-0.6207262277603149
 12
5.658439636230469
 22
-1.7137222290039062
 32
-0.6207262277603149
 13
5.658439636230469
 23
-1.7137222290039062
 33
-0.6207262277603149
  0
3DFACE
  8
0
 10
5.898029804229736
 20
-1.0019700527191162
 30
-0.6207262277603149
 11
5.797800064086914
 21
-1.154710054397583
 31
-0.6207262277603149
 12
5.795959949493408
 22
-1.1639399528503418
 32
-0.6207262277603149
 13
5.795959949493408
 23
-1.1639399528503418
 33
-0.6207262277603149
  0
3DFACE
  8
0
 10
5.658439636230469
 20
-1.7137222290039062
 30
-0.6207262277603149
 11
5.898029804229736
 21
-1.0019700527191162
 31
-0.6207262277603149
 12
5.795959949493408
 22
-1.1639399528503418
 32
-0.6207262277603149
 13
5.795959949493408
 23
-1.1639399528503418
 33
-0.6207262277603149
  0
3DFACE
  8
0
 10
5.898029804229736
 20
-1.0019700527191162
 30
-0.6207262277603149
 11
5.658439636230469
 21
-1.7137222290039062
 31
-0.6207262277603149
 12
5.658439636230469
 22
-2.058706760406494
 32
-0.6207262277603149
 13
5.658439636230469
 23
-2.058706760406494
 33
-0.6207262277603149
  0
3DFACE
  8
0
 10
4.795703411102295
 20
-2.058706760406494
 30
-0.6207262277603149
 11
4.795703411102295
 21
-1.7137222290039062
 31
-0.6207262277603149
 12
4.709429740905762
 22
-1.7137222290039062
 32
-0.6207262277603149
 13
4.709429740905762
 23
-1.7137222290039062
 33
-0.6207262277603149
  0
3DFACE
  8
0
 10
5.658439636230469
 20
-2.1628918647766113
 30
-0.6207262277603149
 11
5.898029804229736
 21
-1.0019700527191162
 31
-0.6207262277603149
 12
5.658439636230469
 22
-2.058706760406494
 32
-0.6207262277603149
 13
5.658439636230469
 23
-2.058706760406494
 33
-0.6207262277603149
  0
3DFACE
  8
0
 10
4.795703411102295
 20
-2.058706760406494
 30
-0.6207262277603149
 11
4.709429740905762
 21
-1.7137222290039062
 31
-0.6207262277603149
 12
4.709429740905762
 22
-2.058706760406494
 32
-0.6207262277603149
 13
4.709429740905762
 23
-2.058706760406494
 33
-0.6207262277603149
  0
3DFACE
  8
0
 10
5.658439636230469
 20
-2.1628918647766113
 30
-0.6207262277603149
 11
5.658439636230469
 21
-2.058706760406494
 31
-0.6207262277603149
 12
4.795703411102295
 22
-2.058706760406494
 32
-0.6207262277603149
 13
4.795703411102295
 23
-2.058706760406494
 33
-0.6207262277603149
  0
3DFACE
  8
0
 10
3.8466930389404297
 20
-2.1628918647766113
 30
-0.6207262277603149
 11
4.709429740905762
 21
-2.1628918647766113
 31
-0.6207262277603149
 12
4.795703411102295
 22
-2.1628918647766113
 32
-0.6207262277603149
 13
4.795703411102295
 23
-2.1628918647766113
 33
-0.6207262277603149
  0
3DFACE
  8
0
 10
4.795703411102295
 20
-2.1628918647766113
 30
-0.6207262277603149
 11
5.658439636230469
 21
-2.1628918647766113
 31
-0.6207262277603149
 12
4.795703411102295
 22
-2.058706760406494
 32
-0.6207262277603149
 13
4.795703411102295
 23
-2.058706760406494
 33
-0.6207262277603149
  0
3DFACE
  8
0
 10
4.795703411102295
 20
-2.058706760406494
 30
-0.6207262277603149
 11
4.709429740905762
 21
-2.058706760406494
 31
-0.6207262277603149
 12
3.8466930389404297
 22
-2.058706760406494
 32
-0.6207262277603149
 13
3.8466930389404297
 23
-2.058706760406494
 33
-0.6207262277603149
  0
3DFACE
  8
0
 10
3.8466930389404297
 20
-2.1628918647766113
 30
-0.6207262277603149
 11
4.795703411102295
 21
-2.1628918647766113
 31
-0.6207262277603149
 12
4.795703411102295
 22
-2.058706760406494
 32
-0.6207262277603149
 13
4.795703411102295
 23
-2.058706760406494
 33
-0.6207262277603149
  0
3DFACE
  8
0
 10
2.811408758163452
 20
-2.1628918647766113
 30
-0.6207262277603149
 11
2.8976824283599854
 21
-2.1628918647766113
 31
-0.6207262277603149
 12
3.7604188919067383
 22
-2.1628918647766113
 32
-0.6207262277603149
 13
3.7604188919067383
 23
-2.1628918647766113
 33
-0.6207262277603149
  0
3DFACE
  8
0
 10
3.7604188919067383
 20
-2.1628918647766113
 30
-0.6207262277603149
 11
3.8466930389404297
 21
-2.1628918647766113
 31
-0.6207262277603149
 12
4.795703411102295
 22
-2.058706760406494
 32
-0.6207262277603149
 13
4.795703411102295
 23
-2.058706760406494
 33
-0.6207262277603149
  0
3DFACE
  8
0
 10
3.8466930389404297
 20
-2.058706760406494
 30
-0.6207262277603149
 11
3.8466930389404297
 21
-1.7137222290039062
 31
-0.6207262277603149
 12
3.7604188919067383
 22
-1.7137222290039062
 32
-0.6207262277603149
 13
3.7604188919067383
 23
-1.7137222290039062
 33
-0.6207262277603149
  0
3DFACE
  8
0
 10
3.7604188919067383
 20
-2.1628918647766113
 30
-0.6207262277603149
 11
4.795703411102295
 21
-2.058706760406494
 31
-0.6207262277603149
 12
3.8466930389404297
 22
-2.058706760406494
 32
-0.6207262277603149
 13
3.8466930389404297
 23
-2.058706760406494
 33
-0.6207262277603149
  0
3DFACE
  8
0
 10
1.9486720561981201
 20
-2.1628918647766113
 30
-0.6207262277603149
 11
2.811408758163452
 21
-2.1628918647766113
 31
-0.6207262277603149
 12
3.7604188919067383
 22
-2.1628918647766113
 32
-0.6207262277603149
 13
3.7604188919067383
 23
-2.1628918647766113
 33
-0.6207262277603149
  0
3DFACE
  8
0
 10
3.7604188919067383
 20
-2.1628918647766113
 30
-0.6207262277603149
 11
3.8466930389404297
 21
-2.058706760406494
 31
-0.6207262277603149
 12
3.7604188919067383
 22
-1.7137222290039062
 32
-0.6207262277603149
 13
3.7604188919067383
 23
-1.7137222290039062
 33
-0.6207262277603149
  0
3DFACE
  8
0
 10
3.7604188919067383
 20
-2.1628918647766113
 30
-0.6207262277603149
 11
3.7604188919067383
 21
-1.7137222290039062
 31
-0.6207262277603149
 12
3.7604188919067383
 22
-2.058706760406494
 32
-0.6207262277603149
 13
3.7604188919067383
 23
-2.058706760406494
 33
-0.6207262277603149
  0
3DFACE
  8
0
 10
1.7019699811935425
 20
-1.0019700527191162
 30
-0.6207262277603149
 11
1.9486720561981201
 21
-2.507876396179199
 31
-0.6207262277603149
 12
1.9486720561981201
 22
-2.1628918647766113
 32
-0.6207262277603149
 13
1.9486720561981201
 23
-2.1628918647766113
 33
-0.6207262277603149
  0
3DFACE
  8
0
 10
1.9486720561981201
 20
-2.1628918647766113
 30
-0.6207262277603149
 11
3.7604188919067383
 21
-2.1628918647766113
 31
-0.6207262277603149
 12
3.7604188919067383
 22
-2.058706760406494
 32
-0.6207262277603149
 13
3.7604188919067383
 23
-2.058706760406494
 33
-0.6207262277603149
  0
3DFACE
  8
0
 10
2.8976824283599854
 20
-2.058706760406494
 30
-0.6207262277603149
 11
2.8976824283599854
 21
-1.7137222290039062
 31
-0.6207262277603149
 12
2.811408758163452
 22
-1.7137222290039062
 32
-0.6207262277603149
 13
2.811408758163452
 23
-1.7137222290039062
 33
-0.6207262277603149
  0
3DFACE
  8
0
 10
1.9486720561981201
 20
-2.1628918647766113
 30
-0.6207262277603149
 11
3.7604188919067383
 21
-2.058706760406494
 31
-0.6207262277603149
 12
2.8976824283599854
 22
-2.058706760406494
 32
-0.6207262277603149
 13
2.8976824283599854
 23
-2.058706760406494
 33
-0.6207262277603149
  0
3DFACE
  8
0
 10
1.9486720561981201
 20
-2.058706760406494
 30
-0.6207262277603149
 11
1.7019699811935425
 21
-1.0019700527191162
 31
-0.6207262277603149
 12
1.9486720561981201
 22
-2.1628918647766113
 32
-0.6207262277603149
 13
1.9486720561981201
 23
-2.1628918647766113
 33
-0.6207262277603149
  0
3DFACE
  8
0
 10
2.8976824283599854
 20
-2.058706760406494
 30
-0.6207262277603149
 11
2.811408758163452
 21
-1.7137222290039062
 31
-0.6207262277603149
 12
2.811408758163452
 22
-2.058706760406494
 32
-0.6207262277603149
 13
2.811408758163452
 23
-2.058706760406494
 33
-0.6207262277603149
  0
3DFACE
  8
0
 10
2.811408758163452
 20
-2.058706760406494
 30
-0.6207262277603149
 11
1.9486720561981201
 21
-2.058706760406494
 31
-0.6207262277603149
 12
1.9486720561981201
 22
-2.1628918647766113
 32
-0.6207262277603149
 13
1.9486720561981201
 23
-2.1628918647766113
 33
-0.6207262277603149
  0
3DFACE
  8
0
 10
2.8976824283599854
 20
-2.058706760406494
 30
-0.6207262277603149
 11
2.811408758163452
 21
-2.058706760406494
 31
-0.6207262277603149
 12
1.9486720561981201
 22
-2.1628918647766113
 32
-0.6207262277603149
 13
1.9486720561981201
 23
-2.1628918647766113
 33
-0.6207262277603149
  0
3DFACE
  8
0
 10
5.898029804229736
 20
-1.0019700527191162
 30
-0.6207262277603149
 11
5.658439636230469
 21
-2.1628918647766113
 31
-0.6207262277603149
 12
5.658439636230469
 22
-2.507876396179199
 32
-0.6207262277603149
 13
5.658439636230469
 23
-2.507876396179199
 33
-0.6207262277603149
  0
3DFACE
  8
0
 10
4.795703411102295
 20
-2.507876396179199
 30
-0.6207262277603149
 11
4.795703411102295
 21
-2.1628918647766113
 31
-0.6207262277603149
 12
4.709429740905762
 22
-2.1628918647766113
 32
-0.6207262277603149
 13
4.709429740905762
 23
-2.1628918647766113
 33
-0.6207262277603149
  0
3DFACE
  8
0
 10
5.658439636230469
 20
-2.6120615005493164
 30
-0.6207262277603149
 11
5.898029804229736
 21
-1.0019700527191162
 31
-0.6207262277603149
 12
5.658439636230469
 22
-2.507876396179199
 32
-0.6207262277603149
 13
5.658439636230469
 23
-2.507876396179199
 33
-0.6207262277603149
  0
3DFACE
  8
0
 10
4.795703411102295
 20
-2.507876396179199
 30
-0.6207262277603149
 11
4.709429740905762
 21
-2.1628918647766113
 31
-0.6207262277603149
 12
4.709429740905762
 22
-2.507876396179199
 32
-0.6207262277603149
 13
4.709429740905762
 23
-2.507876396179199
 33
-0.6207262277603149
  0
3DFACE
  8
0
 10
5.658439636230469
 20
-2.6120615005493164
 30
-0.6207262277603149
 11
5.658439636230469
 21
-2.507876396179199
 31
-0.6207262277603149
 12
4.795703411102295
 22
-2.507876396179199
 32
-0.6207262277603149
 13
4.795703411102295
 23
-2.507876396179199
 33
-0.6207262277603149
  0
3DFACE
  8
0
 10
3.8466930389404297
 20
-2.6120617389678955
 30
-0.6207262277603149
 11
4.709429740905762
 21
-2.6120617389678955
 31
-0.6207262277603149
 12
4.795702934265137
 22
-2.6120615005493164
 32
-0.6207262277603149
 13
4.795702934265137
 23
-2.6120615005493164
 33
-0.6207262277603149
  0
3DFACE
  8
0
 10
4.795702934265137
 20
-2.6120615005493164
 30
-0.6207262277603149
 11
5.658439636230469
 21
-2.6120615005493164
 31
-0.6207262277603149
 12
4.795703411102295
 22
-2.507876396179199
 32
-0.6207262277603149
 13
4.795703411102295
 23
-2.507876396179199
 33
-0.6207262277603149
  0
3DFACE
  8
0
 10
4.795703411102295
 20
-2.507876396179199
 30
-0.6207262277603149
 11
4.709429740905762
 21
-2.507876396179199
 31
-0.6207262277603149
 12
3.8466930389404297
 22
-2.507876396179199
 32
-0.6207262277603149
 13
3.8466930389404297
 23
-2.507876396179199
 33
-0.6207262277603149
  0
3DFACE
  8
0
 10
3.8466930389404297
 20
-2.6120617389678955
 30
-0.6207262277603149
 11
4.795702934265137
 21
-2.6120615005493164
 31
-0.6207262277603149
 12
4.795703411102295
 22
-2.507876396179199
 32
-0.6207262277603149
 13
4.795703411102295
 23
-2.507876396179199
 33
-0.6207262277603149
  0
3DFACE
  8
0
 10
2.811408758163452
 20
-2.6120617389678955
 30
-0.6207262277603149
 11
2.8976824283599854
 21
-2.6120617389678955
 31
-0.6207262277603149
 12
3.7604188919067383
 22
-2.6120617389678955
 32
-0.6207262277603149
 13
3.7604188919067383
 23
-2.6120617389678955
 33
-0.6207262277603149
  0
3DFACE
  8
0
 10
3.7604188919067383
 20
-2.6120617389678955
 30
-0.6207262277603149
 11
3.8466930389404297
 21
-2.6120617389678955
 31
-0.6207262277603149
 12
4.795703411102295
 22
-2.507876396179199
 32
-0.6207262277603149
 13
4.795703411102295
 23
-2.507876396179199
 33
-0.6207262277603149
  0
3DFACE
  8
0
 10
3.8466930389404297
 20
-2.507876396179199
 30
-0.6207262277603149
 11
3.8466930389404297
 21
-2.1628918647766113
 31
-0.6207262277603149
 12
3.7604188919067383
 22
-2.1628918647766113
 32
-0.6207262277603149
 13
3.7604188919067383
 23
-2.1628918647766113
 33
-0.6207262277603149
  0
3DFACE
  8
0
 10
3.7604188919067383
 20
-2.6120617389678955
 30
-0.6207262277603149
 11
4.795703411102295
 21
-2.507876396179199
 31
-0.6207262277603149
 12
3.8466930389404297
 22
-2.507876396179199
 32
-0.6207262277603149
 13
3.8466930389404297
 23
-2.507876396179199
 33
-0.6207262277603149
  0
3DFACE
  8
0
 10
1.9486720561981201
 20
-2.6120617389678955
 30
-0.6207262277603149
 11
2.811408758163452
 21
-2.6120617389678955
 31
-0.6207262277603149
 12
3.7604188919067383
 22
-2.6120617389678955
 32
-0.6207262277603149
 13
3.7604188919067383
 23
-2.6120617389678955
 33
-0.6207262277603149
  0
3DFACE
  8
0
 10
3.7604188919067383
 20
-2.6120617389678955
 30
-0.6207262277603149
 11
3.8466930389404297
 21
-2.507876396179199
 31
-0.6207262277603149
 12
3.7604188919067383
 22
-2.1628918647766113
 32
-0.6207262277603149
 13
3.7604188919067383
 23
-2.1628918647766113
 33
-0.6207262277603149
  0
3DFACE
  8
0
 10
3.7604188919067383
 20
-2.6120617389678955
 30
-0.6207262277603149
 11
3.7604188919067383
 21
-2.1628918647766113
 31
-0.6207262277603149
 12
3.7604188919067383
 22
-2.507876396179199
 32
-0.6207262277603149
 13
3.7604188919067383
 23
-2.507876396179199
 33
-0.6207262277603149
  0
3DFACE
  8
0
 10
1.7019699811935425
 20
-1.0019700527191162
 30
-0.6207262277603149
 11
1.9486720561981201
 21
-2.9570462703704834
 31
-0.6207262277603149
 12
1.9486720561981201
 22
-2.6120617389678955
 32
-0.6207262277603149
 13
1.9486720561981201
 23
-2.6120617389678955
 33
-0.6207262277603149
  0
3DFACE
  8
0
 10
1.9486720561981201
 20
-2.6120617389678955
 30
-0.6207262277603149
 11
3.7604188919067383
 21
-2.6120617389678955
 31
-0.6207262277603149
 12
3.7604188919067383
 22
-2.507876396179199
 32
-0.6207262277603149
 13
3.7604188919067383
 23
-2.507876396179199
 33
-0.6207262277603149
  0
3DFACE
  8
0
 10
2.8976824283599854
 20
-2.507876396179199
 30
-0.6207262277603149
 11
2.8976824283599854
 21
-2.1628918647766113
 31
-0.6207262277603149
 12
2.811408758163452
 22
-2.1628918647766113
 32
-0.6207262277603149
 13
2.811408758163452
 23
-2.1628918647766113
 33
-0.6207262277603149
  0
3DFACE
  8
0
 10
1.9486720561981201
 20
-2.6120617389678955
 30
-0.6207262277603149
 11
3.7604188919067383
 21
-2.507876396179199
 31
-0.6207262277603149
 12
2.8976824283599854
 22
-2.507876396179199
 32
-0.6207262277603149
 13
2.8976824283599854
 23
-2.507876396179199
 33
-0.6207262277603149
  0
3DFACE
  8
0
 10
1.9486720561981201
 20
-2.507876396179199
 30
-0.6207262277603149
 11
1.7019699811935425
 21
-1.0019700527191162
 31
-0.6207262277603149
 12
1.9486720561981201
 22
-2.6120617389678955
 32
-0.6207262277603149
 13
1.9486720561981201
 23
-2.6120617389678955
 33
-0.6207262277603149
  0
3DFACE
  8
0
 10
2.8976824283599854
 20
-2.507876396179199
 30
-0.6207262277603149
 11
2.811408758163452
 21
-2.1628918647766113
 31
-0.6207262277603149
 12
2.811408758163452
 22
-2.507876396179199
 32
-0.6207262277603149
 13
2.811408758163452
 23
-2.507876396179199
 33
-0.6207262277603149
  0
3DFACE
  8
0
 10
2.811408758163452
 20
-2.507876396179199
 30
-0.6207262277603149
 11
1.9486720561981201
 21
-2.507876396179199
 31
-0.6207262277603149
 12
1.9486720561981201
 22
-2.6120617389678955
 32
-0.6207262277603149
 13
1.9486720561981201
 23
-2.6120617389678955
 33
-0.6207262277603149
  0
3DFACE
  8
0
 10
2.8976824283599854
 20
-2.507876396179199
 30
-0.6207262277603149
 11
2.811408758163452
 21
-2.507876396179199
 31
-0.6207262277603149
 12
1.9486720561981201
 22
-2.6120617389678955
 32
-0.6207262277603149
 13
1.9486720561981201
 23
-2.6120617389678955
 33
-0.6207262277603149
  0
3DFACE
  8
0
 10
5.898029804229736
 20
-1.0019700527191162
 30
-0.6207262277603149
 11
5.658439636230469
 21
-2.6120615005493164
 31
-0.6207262277603149
 12
5.658439636230469
 22
-2.9570462703704834
 32
-0.6207262277603149
 13
5.658439636230469
 23
-2.9570462703704834
 33
-0.6207262277603149
  0
3DFACE
  8
0
 10
4.795702934265137
 20
-2.9570462703704834
 30
-0.6207262277603149
 11
4.795702934265137
 21
-2.6120615005493164
 31
-0.6207262277603149
 12
4.709429740905762
 22
-2.6120617389678955
 32
-0.6207262277603149
 13
4.709429740905762
 23
-2.6120617389678955
 33
-0.6207262277603149
  0
3DFACE
  8
0
 10
5.658439636230469
 20
-3.0612316131591797
 30
-0.6207262277603149
 11
5.898029804229736
 21
-1.0019700527191162
 31
-0.6207262277603149
 12
5.658439636230469
 22
-2.9570462703704834
 32
-0.6207262277603149
 13
5.658439636230469
 23
-2.9570462703704834
 33
-0.6207262277603149
  0
3DFACE
  8
0
 10
4.795702934265137
 20
-2.9570462703704834
 30
-0.6207262277603149
 11
4.709429740905762
 21
-2.6120617389678955
 31
-0.6207262277603149
 12
4.709429740905762
 22
-2.9570462703704834
 32
-0.6207262277603149
 13
4.709429740905762
 23
-2.9570462703704834
 33
-0.6207262277603149
  0
3DFACE
  8
0
 10
5.658439636230469
 20
-3.0612316131591797
 30
-0.6207262277603149
 11
5.658439636230469
 21
-2.9570462703704834
 31
-0.6207262277603149
 12
4.795702934265137
 22
-2.9570462703704834
 32
-0.6207262277603149
 13
4.795702934265137
 23
-2.9570462703704834
 33
-0.6207262277603149
  0
3DFACE
  8
0
 10
3.8466930389404297
 20
-3.0612316131591797
 30
-0.6207262277603149
 11
4.709429740905762
 21
-3.0612316131591797
 31
-0.6207262277603149
 12
4.795702934265137
 22
-3.0612316131591797
 32
-0.6207262277603149
 13
4.795702934265137
 23
-3.0612316131591797
 33
-0.6207262277603149
  0
3DFACE
  8
0
 10
4.795702934265137
 20
-3.0612316131591797
 30
-0.6207262277603149
 11
5.658439636230469
 21
-3.0612316131591797
 31
-0.6207262277603149
 12
4.795702934265137
 22
-2.9570462703704834
 32
-0.6207262277603149
 13
4.795702934265137
 23
-2.9570462703704834
 33
-0.6207262277603149
  0
3DFACE
  8
0
 10
4.795702934265137
 20
-2.9570462703704834
 30
-0.6207262277603149
 11
4.709429740905762
 21
-2.9570462703704834
 31
-0.6207262277603149
 12
3.8466930389404297
 22
-2.9570462703704834
 32
-0.6207262277603149
 13
3.8466930389404297
 23
-2.9570462703704834
 33
-0.6207262277603149
  0
3DFACE
  8
0
 10
3.8466930389404297
 20
-3.0612316131591797
 30
-0.6207262277603149
 11
4.795702934265137
 21
-3.0612316131591797
 31
-0.6207262277603149
 12
4.795702934265137
 22
-2.9570462703704834
 32
-0.6207262277603149
 13
4.795702934265137
 23
-2.9570462703704834
 33
-0.6207262277603149
  0
3DFACE
  8
0
 10
2.811408758163452
 20
-3.0612316131591797
 30
-0.6207262277603149
 11
2.8976824283599854
 21
-3.0612316131591797
 31
-0.6207262277603149
 12
3.7604188919067383
 22
-3.0612316131591797
 32
-0.6207262277603149
 13
3.7604188919067383
 23
-3.0612316131591797
 33
-0.6207262277603149
  0
3DFACE
  8
0
 10
3.7604188919067383
 20
-3.0612316131591797
 30
-0.6207262277603149
 11
3.8466930389404297
 21
-3.0612316131591797
 31
-0.6207262277603149
 12
4.795702934265137
 22
-2.9570462703704834
 32
-0.6207262277603149
 13
4.795702934265137
 23
-2.9570462703704834
 33
-0.6207262277603149
  0
3DFACE
  8
0
 10
3.8466930389404297
 20
-2.9570462703704834
 30
-0.6207262277603149
 11
3.8466930389404297
 21
-2.6120617389678955
 31
-0.6207262277603149
 12
3.7604188919067383
 22
-2.6120617389678955
 32
-0.6207262277603149
 13
3.7604188919067383
 23
-2.6120617389678955
 33
-0.6207262277603149
  0
3DFACE
  8
0
 10
3.7604188919067383
 20
-3.0612316131591797
 30
-0.6207262277603149
 11
4.795702934265137
 21
-2.9570462703704834
 31
-0.6207262277603149
 12
3.8466930389404297
 22
-2.9570462703704834
 32
-0.6207262277603149
 13
3.8466930389404297
 23
-2.9570462703704834
 33
-0.6207262277603149
  0
3DFACE
  8
0
 10
1.9486720561981201
 20
-3.0612316131591797
 30
-0.6207262277603149
 11
2.811408758163452
 21
-3.0612316131591797
 31
-0.6207262277603149
 12
3.7604188919067383
 22
-3.0612316131591797
 32
-0.6207262277603149
 13
3.7604188919067383
 23
-3.0612316131591797
 33
-0.6207262277603149
  0
3DFACE
  8
0
 10
3.7604188919067383
 20
-3.0612316131591797
 30
-0.6207262277603149
 11
3.8466930389404297
 21
-2.9570462703704834
 31
-0.6207262277603149
 12
3.7604188919067383
 22
-2.6120617389678955
 32
-0.6207262277603149
 13
3.7604188919067383
 23
-2.6120617389678955
 33
-0.6207262277603149
  0
3DFACE
  8
0
 10
3.7604188919067383
 20
-3.0612316131591797
 30
-0.6207262277603149
 11
3.7604188919067383
 21
-2.6120617389678955
 31
-0.6207262277603149
 12
3.7604188919067383
 22
-2.9570462703704834
 32
-0.6207262277603149
 13
3.7604188919067383
 23
-2.9570462703704834
 33
-0.6207262277603149
  0
3DFACE
  8
0
 10
1.7019699811935425
 20
-1.0019700527191162
 30
-0.6207262277603149
 11
1.9486720561981201
 21
-3.4062161445617676
 31
-0.6207262277603149
 12
1.9486720561981201
 22
-3.0612316131591797
 32
-0.6207262277603149
 13
1.9486720561981201
 23
-3.0612316131591797
 33
-0.6207262277603149
  0
3DFACE
  8
0
 10
1.9486720561981201
 20
-3.0612316131591797
 30
-0.6207262277603149
 11
3.7604188919067383
 21
-3.0612316131591797
 31
-0.6207262277603149
 12
3.7604188919067383
 22
-2.9570462703704834
 32
-0.6207262277603149
 13
3.7604188919067383
 23
-2.9570462703704834
 33
-0.6207262277603149
  0
3DFACE
  8
0
 10
2.8976824283599854
 20
-2.9570462703704834
 30
-0.6207262277603149
 11
2.8976824283599854
 21
-2.6120617389678955
 31
-0.6207262277603149
 12
2.811408758163452
 22
-2.6120617389678955
 32
-0.6207262277603149
 13
2.811408758163452
 23
-2.6120617389678955
 33
-0.6207262277603149
  0
3DFACE
  8
0
 10
1.9486720561981201
 20
-3.0612316131591797
 30
-0.6207262277603149
 11
3.7604188919067383
 21
-2.9570462703704834
 31
-0.6207262277603149
 12
2.8976824283599854
 22
-2.9570462703704834
 32
-0.6207262277603149
 13
2.8976824283599854
 23
-2.9570462703704834
 33
-0.6207262277603149
  0
3DFACE
  8
0
 10
1.9486720561981201
 20
-2.9570462703704834
 30
-0.6207262277603149
 11
1.7019699811935425
 21
-1.0019700527191162
 31
-0.6207262277603149
 12
1.9486720561981201
 22
-3.0612316131591797
 32
-0.6207262277603149
 13
1.9486720561981201
 23
-3.0612316131591797
 33
-0.6207262277603149
  0
3DFACE
  8
0
 10
2.8976824283599854
 20
-2.9570462703704834
 30
-0.6207262277603149
 11
2.811408758163452
 21
-2.6120617389678955
 31
-0.6207262277603149
 12
2.811408758163452
 22
-2.9570462703704834
 32
-0.6207262277603149
 13
2.811408758163452
 23
-2.9570462703704834
 33
-0.6207262277603149
  0
3DFACE
  8
0
 10
2.811408758163452
 20
-2.9570462703704834
 30
-0.6207262277603149
 11
1.9486720561981201
 21
-2.9570462703704834
 31
-0.6207262277603149
 12
1.9486720561981201
 22
-3.0612316131591797
 32
-0.6207262277603149
 13
1.9486720561981201
 23
-3.0612316131591797
 33
-0.6207262277603149
  0
3DFACE
  8
0
 10
2.8976824283599854
 20
-2.9570462703704834
 30
-0.6207262277603149
 11
2.811408758163452
 21
-2.9570462703704834
 31
-0.6207262277603149
 12
1.9486720561981201
 22
-3.0612316131591797
 32
-0.6207262277603149
 13
1.9486720561981201
 23
-3.0612316131591797
 33
-0.6207262277603149
  0
3DFACE
  8
0
 10
5.898029804229736
 20
-1.0019700527191162
 30
-0.6207262277603149
 11
5.658439636230469
 21
-3.0612316131591797
 31
-0.6207262277603149
 12
5.658439636230469
 22
-3.4062161445617676
 32
-0.6207262277603149
 13
5.658439636230469
 23
-3.4062161445617676
 33
-0.6207262277603149
  0
3DFACE
  8
0
 10
4.795702934265137
 20
-3.4062161445617676
 30
-0.6207262277603149
 11
4.795702934265137
 21
-3.0612316131591797
 31
-0.6207262277603149
 12
4.709429740905762
 22
-3.0612316131591797
 32
-0.6207262277603149
 13
4.709429740905762
 23
-3.0612316131591797
 33
-0.6207262277603149
  0
3DFACE
  8
0
 10
5.658439636230469
 20
-3.5104012489318848
 30
-0.6207262277603149
 11
5.898029804229736
 21
-1.0019700527191162
 31
-0.6207262277603149
 12
5.658439636230469
 22
-3.4062161445617676
 32
-0.6207262277603149
 13
5.658439636230469
 23
-3.4062161445617676
 33
-0.6207262277603149
  0
3DFACE
  8
0
 10
4.795702934265137
 20
-3.4062161445617676
 30
-0.6207262277603149
 11
4.709429740905762
 21
-3.0612316131591797
 31
-0.6207262277603149
 12
4.709429740905762
 22
-3.4062161445617676
 32
-0.6207262277603149
 13
4.709429740905762
 23
-3.4062161445617676
 33
-0.6207262277603149
  0
3DFACE
  8
0
 10
5.658439636230469
 20
-3.5104012489318848
 30
-0.6207262277603149
 11
5.658439636230469
 21
-3.4062161445617676
 31
-0.6207262277603149
 12
4.795702934265137
 22
-3.4062161445617676
 32
-0.6207262277603149
 13
4.795702934265137
 23
-3.4062161445617676
 33
-0.6207262277603149
  0
3DFACE
  8
0
 10
4.709429740905762
 20
-3.5104012489318848
 30
-0.6207262277603149
 11
4.795702934265137
 21
-3.5104012489318848
 31
-0.6207262277603149
 12
5.658439636230469
 22
-3.5104012489318848
 32
-0.6207262277603149
 13
5.658439636230469
 23
-3.5104012489318848
 33
-0.6207262277603149
  0
3DFACE
  8
0
 10
5.658439636230469
 20
-3.5104012489318848
 30
-0.6207262277603149
 11
4.795702934265137
 21
-3.4062161445617676
 31
-0.6207262277603149
 12
4.709429740905762
 22
-3.4062161445617676
 32
-0.6207262277603149
 13
4.709429740905762
 23
-3.4062161445617676
 33
-0.6207262277603149
  0
3DFACE
  8
0
 10
3.8466930389404297
 20
-3.4062161445617676
 30
-0.6207262277603149
 11
3.8466930389404297
 21
-3.0612316131591797
 31
-0.6207262277603149
 12
3.7604188919067383
 22
-3.0612316131591797
 32
-0.6207262277603149
 13
3.7604188919067383
 23
-3.0612316131591797
 33
-0.6207262277603149
  0
3DFACE
  8
0
 10
5.658439636230469
 20
-3.5104012489318848
 30
-0.6207262277603149
 11
4.709429740905762
 21
-3.4062161445617676
 31
-0.6207262277603149
 12
3.8466930389404297
 22
-3.4062161445617676
 32
-0.6207262277603149
 13
3.8466930389404297
 23
-3.4062161445617676
 33
-0.6207262277603149
  0
3DFACE
  8
0
 10
3.7604188919067383
 20
-3.510401487350464
 30
-0.6207262277603149
 11
3.8466930389404297
 21
-3.510401487350464
 31
-0.6207262277603149
 12
4.709429740905762
 22
-3.5104012489318848
 32
-0.6207262277603149
 13
4.709429740905762
 23
-3.5104012489318848
 33
-0.6207262277603149
  0
3DFACE
  8
0
 10
4.709429740905762
 20
-3.5104012489318848
 30
-0.6207262277603149
 11
5.658439636230469
 21
-3.5104012489318848
 31
-0.6207262277603149
 12
3.8466930389404297
 22
-3.4062161445617676
 32
-0.6207262277603149
 13
3.8466930389404297
 23
-3.4062161445617676
 33
-0.6207262277603149
  0
3DFACE
  8
0
 10
3.8466930389404297
 20
-3.4062161445617676
 30
-0.6207262277603149
 11
3.7604188919067383
 21
-3.0612316131591797
 31
-0.6207262277603149
 12
3.7604188919067383
 22
-3.4062161445617676
 32
-0.6207262277603149
 13
3.7604188919067383
 23
-3.4062161445617676
 33
-0.6207262277603149
  0
3DFACE
  8
0
 10
2.8976824283599854
 20
-3.4062161445617676
 30
-0.6207262277603149
 11
2.8976824283599854
 21
-3.0612316131591797
 31
-0.6207262277603149
 12
2.811408758163452
 22
-3.0612316131591797
 32
-0.6207262277603149
 13
2.811408758163452
 23
-3.0612316131591797
 33
-0.6207262277603149
  0
3DFACE
  8
0
 10
4.709429740905762
 20
-3.5104012489318848
 30
-0.6207262277603149
 11
3.8466930389404297
 21
-3.4062161445617676
 31
-0.6207262277603149
 12
3.7604188919067383
 22
-3.4062161445617676
 32
-0.6207262277603149
 13
3.7604188919067383
 23
-3.4062161445617676
 33
-0.6207262277603149
  0
3DFACE
  8
0
 10
2.8976824283599854
 20
-3.4062161445617676
 30
-0.6207262277603149
 11
2.811408758163452
 21
-3.0612316131591797
 31
-0.6207262277603149
 12
2.811408758163452
 22
-3.4062161445617676
 32
-0.6207262277603149
 13
2.811408758163452
 23
-3.4062161445617676
 33
-0.6207262277603149
  0
3DFACE
  8
0
 10
4.709429740905762
 20
-3.5104012489318848
 30
-0.6207262277603149
 11
3.7604188919067383
 21
-3.4062161445617676
 31
-0.6207262277603149
 12
2.8976824283599854
 22
-3.4062161445617676
 32
-0.6207262277603149
 13
2.8976824283599854
 23
-3.4062161445617676
 33
-0.6207262277603149
  0
3DFACE
  8
0
 10
2.8976824283599854
 20
-3.510401487350464
 30
-0.6207262277603149
 11
3.7604188919067383
 21
-3.510401487350464
 31
-0.6207262277603149
 12
4.709429740905762
 22
-3.5104012489318848
 32
-0.6207262277603149
 13
4.709429740905762
 23
-3.5104012489318848
 33
-0.6207262277603149
  0
3DFACE
  8
0
 10
1.9486720561981201
 20
-3.510401487350464
 30
-0.6207262277603149
 11
2.811408758163452
 21
-3.510401487350464
 31
-0.6207262277603149
 12
2.8976824283599854
 22
-3.510401487350464
 32
-0.6207262277603149
 13
2.8976824283599854
 23
-3.510401487350464
 33
-0.6207262277603149
  0
3DFACE
  8
0
 10
2.8976824283599854
 20
-3.510401487350464
 30
-0.6207262277603149
 11
4.709429740905762
 21
-3.5104012489318848
 31
-0.6207262277603149
 12
2.8976824283599854
 22
-3.4062161445617676
 32
-0.6207262277603149
 13
2.8976824283599854
 23
-3.4062161445617676
 33
-0.6207262277603149
  0
3DFACE
  8
0
 10
2.8976824283599854
 20
-3.4062161445617676
 30
-0.6207262277603149
 11
2.811408758163452
 21
-3.4062161445617676
 31
-0.6207262277603149
 12
1.9486720561981201
 22
-3.4062161445617676
 32
-0.6207262277603149
 13
1.9486720561981201
 23
-3.4062161445617676
 33
-0.6207262277603149
  0
3DFACE
  8
0
 10
1.9486720561981201
 20
-3.510401487350464
 30
-0.6207262277603149
 11
2.8976824283599854
 21
-3.510401487350464
 31
-0.6207262277603149
 12
2.8976824283599854
 22
-3.4062161445617676
 32
-0.6207262277603149
 13
2.8976824283599854
 23
-3.4062161445617676
 33
-0.6207262277603149
  0
3DFACE
  8
0
 10
1.7019699811935425
 20
-1.0019700527191162
 30
-0.6207262277603149
 11
1.9486720561981201
 21
-3.8553857803344727
 31
-0.6207262277603149
 12
1.9486720561981201
 22
-3.510401487350464
 32
-0.6207262277603149
 13
1.9486720561981201
 23
-3.510401487350464
 33
-0.6207262277603149
  0
3DFACE
  8
0
 10
1.9486720561981201
 20
-3.510401487350464
 30
-0.6207262277603149
 11
2.8976824283599854
 21
-3.4062161445617676
 31
-0.6207262277603149
 12
1.9486720561981201
 22
-3.4062161445617676
 32
-0.6207262277603149
 13
1.9486720561981201
 23
-3.4062161445617676
 33
-0.6207262277603149
  0
3DFACE
  8
0
 10
1.9486720561981201
 20
-3.4062161445617676
 30
-0.6207262277603149
 11
1.7019699811935425
 21
-1.0019700527191162
 31
-0.6207262277603149
 12
1.9486720561981201
 22
-3.510401487350464
 32
-0.6207262277603149
 13
1.9486720561981201
 23
-3.510401487350464
 33
-0.6207262277603149
  0
3DFACE
  8
0
 10
5.898029804229736
 20
-1.0019700527191162
 30
-0.6207262277603149
 11
5.658439636230469
 21
-3.5104012489318848
 31
-0.6207262277603149
 12
5.658439636230469
 22
-3.8553857803344727
 32
-0.6207262277603149
 13
5.658439636230469
 23
-3.8553857803344727
 33
-0.6207262277603149
  0
3DFACE
  8
0
 10
4.795702934265137
 20
-3.8553857803344727
 30
-0.6207262277603149
 11
4.795702934265137
 21
-3.5104012489318848
 31
-0.6207262277603149
 12
4.709429740905762
 22
-3.5104012489318848
 32
-0.6207262277603149
 13
4.709429740905762
 23
-3.5104012489318848
 33
-0.6207262277603149
  0
3DFACE
  8
0
 10
5.898029804229736
 20
-6.898029804229736
 30
-0.6207262277603149
 11
5.898029804229736
 21
-1.0019700527191162
 31
-0.6207262277603149
 12
5.658439636230469
 22
-3.8553857803344727
 32
-0.6207262277603149
 13
5.658439636230469
 23
-3.8553857803344727
 33
-0.6207262277603149
  0
3DFACE
  8
0
 10
4.795702934265137
 20
-3.8553857803344727
 30
-0.6207262277603149
 11
4.709429740905762
 21
-3.5104012489318848
 31
-0.6207262277603149
 12
4.709429740905762
 22
-3.8553857803344727
 32
-0.6207262277603149
 13
4.709429740905762
 23
-3.8553857803344727
 33
-0.6207262277603149
  0
3DFACE
  8
0
 10
5.658439636230469
 20
-3.95957088470459
 30
-0.6207262277603149
 11
5.898029804229736
 21
-6.898029804229736
 31
-0.6207262277603149
 12
5.658439636230469
 22
-3.8553857803344727
 32
-0.6207262277603149
 13
5.658439636230469
 23
-3.8553857803344727
 33
-0.6207262277603149
  0
3DFACE
  8
0
 10
3.8466925621032715
 20
-3.95957088470459
 30
-0.6207262277603149
 11
4.709429740905762
 21
-3.95957088470459
 31
-0.6207262277603149
 12
4.795702934265137
 22
-3.95957088470459
 32
-0.6207262277603149
 13
4.795702934265137
 23
-3.95957088470459
 33
-0.6207262277603149
  0
3DFACE
  8
0
 10
4.795702934265137
 20
-3.95957088470459
 30
-0.6207262277603149
 11
5.658439636230469
 21
-3.95957088470459
 31
-0.6207262277603149
 12
5.658439636230469
 22
-3.8553857803344727
 32
-0.6207262277603149
 13
5.658439636230469
 23
-3.8553857803344727
 33
-0.6207262277603149
  0
3DFACE
  8
0
 10
4.795702934265137
 20
-3.8553857803344727
 30
-0.6207262277603149
 11
4.709429740905762
 21
-3.8553857803344727
 31
-0.6207262277603149
 12
3.8466930389404297
 22
-3.8553857803344727
 32
-0.6207262277603149
 13
3.8466930389404297
 23
-3.8553857803344727
 33
-0.6207262277603149
  0
3DFACE
  8
0
 10
4.795702934265137
 20
-3.95957088470459
 30
-0.6207262277603149
 11
5.658439636230469
 21
-3.8553857803344727
 31
-0.6207262277603149
 12
4.795702934265137
 22
-3.8553857803344727
 32
-0.6207262277603149
 13
4.795702934265137
 23
-3.8553857803344727
 33
-0.6207262277603149
  0
3DFACE
  8
0
 10
3.7604188919067383
 20
-3.959571123123169
 30
-0.6207262277603149
 11
3.7604193687438965
 21
-4.018328666687012
 31
-0.6207262277603149
 12
3.8466925621032715
 22
-3.95957088470459
 32
-0.6207262277603149
 13
3.8466925621032715
 23
-3.95957088470459
 33
-0.6207262277603149
  0
3DFACE
  8
0
 10
3.8466925621032715
 20
-3.95957088470459
 30
-0.6207262277603149
 11
4.795702934265137
 21
-3.95957088470459
 31
-0.6207262277603149
 12
4.795702934265137
 22
-3.8553857803344727
 32
-0.6207262277603149
 13
4.795702934265137
 23
-3.8553857803344727
 33
-0.6207262277603149
  0
3DFACE
  8
0
 10
3.8466930389404297
 20
-3.8553857803344727
 30
-0.6207262277603149
 11
3.8466930389404297
 21
-3.510401487350464
 31
-0.6207262277603149
 12
3.7604188919067383
 22
-3.510401487350464
 32
-0.6207262277603149
 13
3.7604188919067383
 23
-3.510401487350464
 33
-0.6207262277603149
  0
3DFACE
  8
0
 10
3.8466925621032715
 20
-3.95957088470459
 30
-0.6207262277603149
 11
4.795702934265137
 21
-3.8553857803344727
 31
-0.6207262277603149
 12
3.8466930389404297
 22
-3.8553857803344727
 32
-0.6207262277603149
 13
3.8466930389404297
 23
-3.8553857803344727
 33
-0.6207262277603149
  0
3DFACE
  8
0
 10
2.8976824283599854
 20
-3.959571123123169
 30
-0.6207262277603149
 11
3.7604188919067383
 21
-3.959571123123169
 31
-0.6207262277603149
 12
3.8466925621032715
 22
-3.95957088470459
 32
-0.6207262277603149
 13
3.8466925621032715
 23
-3.95957088470459
 33
-0.6207262277603149
  0
3DFACE
  8
0
 10
1.9486720561981201
 20
-3.959571123123169
 30
-0.6207262277603149
 11
2.811408758163452
 21
-3.959571123123169
 31
-0.6207262277603149
 12
2.8976824283599854
 22
-3.959571123123169
 32
-0.6207262277603149
 13
2.8976824283599854
 23
-3.959571123123169
 33
-0.6207262277603149
  0
3DFACE
  8
0
 10
2.8976824283599854
 20
-3.959571123123169
 30
-0.6207262277603149
 11
3.8466925621032715
 21
-3.95957088470459
 31
-0.6207262277603149
 12
3.8466930389404297
 22
-3.8553857803344727
 32
-0.6207262277603149
 13
3.8466930389404297
 23
-3.8553857803344727
 33
-0.6207262277603149
  0
3DFACE
  8
0
 10
3.8466930389404297
 20
-3.8553857803344727
 30
-0.6207262277603149
 11
3.7604188919067383
 21
-3.510401487350464
 31
-0.6207262277603149
 12
3.7604188919067383
 22
-3.8553857803344727
 32
-0.6207262277603149
 13
3.7604188919067383
 23
-3.8553857803344727
 33
-0.6207262277603149
  0
3DFACE
  8
0
 10
2.8976824283599854
 20
-3.8553857803344727
 30
-0.6207262277603149
 11
2.8976824283599854
 21
-3.510401487350464
 31
-0.6207262277603149
 12
2.811408758163452
 22
-3.510401487350464
 32
-0.6207262277603149
 13
2.811408758163452
 23
-3.510401487350464
 33
-0.6207262277603149
  0
3DFACE
  8
0
 10
2.8976824283599854
 20
-3.959571123123169
 30
-0.6207262277603149
 11
3.8466930389404297
 21
-3.8553857803344727
 31
-0.6207262277603149
 12
3.7604188919067383
 22
-3.8553857803344727
 32
-0.6207262277603149
 13
3.7604188919067383
 23
-3.8553857803344727
 33
-0.6207262277603149
  0
3DFACE
  8
0
 10
2.8976824283599854
 20
-3.8553857803344727
 30
-0.6207262277603149
 11
2.811408758163452
 21
-3.510401487350464
 31
-0.6207262277603149
 12
2.811408758163452
 22
-3.8553857803344727
 32
-0.6207262277603149
 13
2.811408758163452
 23
-3.8553857803344727
 33
-0.6207262277603149
  0
3DFACE
  8
0
 10
2.8976824283599854
 20
-3.959571123123169
 30
-0.6207262277603149
 11
3.7604188919067383
 21
-3.8553857803344727
 31
-0.6207262277603149
 12
2.8976824283599854
 22
-3.8553857803344727
 32
-0.6207262277603149
 13
2.8976824283599854
 23
-3.8553857803344727
 33
-0.6207262277603149
  0
3DFACE
  8
0
 10
1.7019699811935425
 20
-6.898029804229736
 30
-0.6207262277603149
 11
1.9486720561981201
 21
-4.304555892944336
 31
-0.6207262277603149
 12
1.9486720561981201
 22
-3.959571123123169
 32
-0.6207262277603149
 13
1.9486720561981201
 23
-3.959571123123169
 33
-0.6207262277603149
  0
3DFACE
  8
0
 10
1.9486720561981201
 20
-3.959571123123169
 30
-0.6207262277603149
 11
2.8976824283599854
 21
-3.959571123123169
 31
-0.6207262277603149
 12
2.8976824283599854
 22
-3.8553857803344727
 32
-0.6207262277603149
 13
2.8976824283599854
 23
-3.8553857803344727
 33
-0.6207262277603149
  0
3DFACE
  8
0
 10
2.8976824283599854
 20
-3.8553857803344727
 30
-0.6207262277603149
 11
2.811408758163452
 21
-3.8553857803344727
 31
-0.6207262277603149
 12
1.9486720561981201
 22
-3.8553857803344727
 32
-0.6207262277603149
 13
1.9486720561981201
 23
-3.8553857803344727
 33
-0.6207262277603149
  0
3DFACE
  8
0
 10
1.7019699811935425
 20
-1.0019700527191162
 30
-0.6207262277603149
 11
1.7019699811935425
 21
-6.898029804229736
 31
-0.6207262277603149
 12
1.9486720561981201
 22
-3.959571123123169
 32
-0.6207262277603149
 13
1.9486720561981201
 23
-3.959571123123169
 33
-0.6207262277603149
  0
3DFACE
  8
0
 10
1.9486720561981201
 20
-3.959571123123169
 30
-0.6207262277603149
 11
2.8976824283599854
 21
-3.8553857803344727
 31
-0.6207262277603149
 12
1.9486720561981201
 22
-3.8553857803344727
 32
-0.6207262277603149
 13
1.9486720561981201
 23
-3.8553857803344727
 33
-0.6207262277603149
  0
3DFACE
  8
0
 10
1.9486720561981201
 20
-3.8553857803344727
 30
-0.6207262277603149
 11
1.7019699811935425
 21
-1.0019700527191162
 31
-0.6207262277603149
 12
1.9486720561981201
 22
-3.959571123123169
 32
-0.6207262277603149
 13
1.9486720561981201
 23
-3.959571123123169
 33
-0.6207262277603149
  0
3DFACE
  8
0
 10
5.898029804229736
 20
-6.898029804229736
 30
-0.6207262277603149
 11
5.658439636230469
 21
-3.95957088470459
 31
-0.6207262277603149
 12
5.658439636230469
 22
-4.304555892944336
 32
-0.6207262277603149
 13
5.658439636230469
 23
-4.304555892944336
 33
-0.6207262277603149
  0
3DFACE
  8
0
 10
4.795702934265137
 20
-4.304555892944336
 30
-0.6207262277603149
 11
4.795702934265137
 21
-3.95957088470459
 31
-0.6207262277603149
 12
4.709429740905762
 22
-3.95957088470459
 32
-0.6207262277603149
 13
4.709429740905762
 23
-3.95957088470459
 33
-0.6207262277603149
  0
3DFACE
  8
0
 10
5.658439636230469
 20
-4.408740997314453
 30
-0.6207262277603149
 11
5.898029804229736
 21
-6.898029804229736
 31
-0.6207262277603149
 12
5.658439636230469
 22
-4.304555892944336
 32
-0.6207262277603149
 13
5.658439636230469
 23
-4.304555892944336
 33
-0.6207262277603149
  0
3DFACE
  8
0
 10
3.8466925621032715
 20
-4.408740997314453
 30
-0.6207262277603149
 11
4.709429740905762
 21
-4.408740997314453
 31
-0.6207262277603149
 12
4.795702934265137
 22
-4.408740997314453
 32
-0.6207262277603149
 13
4.795702934265137
 23
-4.408740997314453
 33
-0.6207262277603149
  0
3DFACE
  8
0
 10
4.795702934265137
 20
-4.408740997314453
 30
-0.6207262277603149
 11
5.658439636230469
 21
-4.408740997314453
 31
-0.6207262277603149
 12
5.658439636230469
 22
-4.304555892944336
 32
-0.6207262277603149
 13
5.658439636230469
 23
-4.304555892944336
 33
-0.6207262277603149
  0
3DFACE
  8
0
 10
4.795702934265137
 20
-4.304555892944336
 30
-0.6207262277603149
 11
4.709429740905762
 21
-3.95957088470459
 31
-0.6207262277603149
 12
4.709429740905762
 22
-4.304555892944336
 32
-0.6207262277603149
 13
4.709429740905762
 23
-4.304555892944336
 33
-0.6207262277603149
  0
3DFACE
  8
0
 10
4.795702934265137
 20
-4.408740997314453
 30
-0.6207262277603149
 11
5.658439636230469
 21
-4.304555892944336
 31
-0.6207262277603149
 12
4.795702934265137
 22
-4.304555892944336
 32
-0.6207262277603149
 13
4.795702934265137
 23
-4.304555892944336
 33
-0.6207262277603149
  0
3DFACE
  8
0
 10
2.8976824283599854
 20
-4.408740997314453
 30
-0.6207262277603149
 11
3.7604188919067383
 21
-4.408740997314453
 31
-0.6207262277603149
 12
3.8466925621032715
 22
-4.408740997314453
 32
-0.6207262277603149
 13
3.8466925621032715
 23
-4.408740997314453
 33
-0.6207262277603149
  0
3DFACE
  8
0
 10
3.8466925621032715
 20
-4.408740997314453
 30
-0.6207262277603149
 11
4.795702934265137
 21
-4.408740997314453
 31
-0.6207262277603149
 12
4.795702934265137
 22
-4.304555892944336
 32
-0.6207262277603149
 13
4.795702934265137
 23
-4.304555892944336
 33
-0.6207262277603149
  0
3DFACE
  8
0
 10
4.795702934265137
 20
-4.304555892944336
 30
-0.6207262277603149
 11
4.709429740905762
 21
-4.304555892944336
 31
-0.6207262277603149
 12
3.8466925621032715
 22
-4.304555892944336
 32
-0.6207262277603149
 13
3.8466925621032715
 23
-4.304555892944336
 33
-0.6207262277603149
  0
3DFACE
  8
0
 10
2.8976824283599854
 20
-4.408740997314453
 30
-0.6207262277603149
 11
3.8466925621032715
 21
-4.408740997314453
 31
-0.6207262277603149
 12
4.795702934265137
 22
-4.304555892944336
 32
-0.6207262277603149
 13
4.795702934265137
 23
-4.304555892944336
 33
-0.6207262277603149
  0
3DFACE
  8
0
 10
1.9486720561981201
 20
-4.408740997314453
 30
-0.6207262277603149
 11
2.811408758163452
 21
-4.408740997314453
 31
-0.6207262277603149
 12
2.8976824283599854
 22
-4.408740997314453
 32
-0.6207262277603149
 13
2.8976824283599854
 23
-4.408740997314453
 33
-0.6207262277603149
  0
3DFACE
  8
0
 10
2.8976824283599854
 20
-4.408740997314453
 30
-0.6207262277603149
 11
4.795702934265137
 21
-4.304555892944336
 31
-0.6207262277603149
 12
3.8466925621032715
 22
-4.304555892944336
 32
-0.6207262277603149
 13
3.8466925621032715
 23
-4.304555892944336
 33
-0.6207262277603149
  0
3DFACE
  8
0
 10
3.8466925621032715
 20
-4.304555892944336
 30
-0.6207262277603149
 11
3.8466925621032715
 21
-3.95957088470459
 31
-0.6207262277603149
 12
3.7604193687438965
 22
-4.018328666687012
 32
-0.6207262277603149
 13
3.7604193687438965
 23
-4.018328666687012
 33
-0.6207262277603149
  0
3DFACE
  8
0
 10
3.8466925621032715
 20
-4.304555892944336
 30
-0.6207262277603149
 11
3.7604193687438965
 21
-4.018328666687012
 31
-0.6207262277603149
 12
3.7604188919067383
 22
-4.304555892944336
 32
-0.6207262277603149
 13
3.7604188919067383
 23
-4.304555892944336
 33
-0.6207262277603149
  0
3DFACE
  8
0
 10
1.9486720561981201
 20
-4.408740997314453
 30
-0.6207262277603149
 11
2.8976824283599854
 21
-4.408740997314453
 31
-0.6207262277603149
 12
3.8466925621032715
 22
-4.304555892944336
 32
-0.6207262277603149
 13
3.8466925621032715
 23
-4.304555892944336
 33
-0.6207262277603149
  0
3DFACE
  8
0
 10
1.7019699811935425
 20
-6.898029804229736
 30
-0.6207262277603149
 11
1.9486720561981201
 21
-4.753725528717041
 31
-0.6207262277603149
 12
1.9486720561981201
 22
-4.408740997314453
 32
-0.6207262277603149
 13
1.9486720561981201
 23
-4.408740997314453
 33
-0.6207262277603149
  0
3DFACE
  8
0
 10
2.8976824283599854
 20
-3.959571123123169
 30
-0.6207262277603149
 11
2.811408758163452
 21
-3.959571123123169
 31
-0.6207262277603149
 12
2.811408758163452
 22
-4.304555892944336
 32
-0.6207262277603149
 13
2.811408758163452
 23
-4.304555892944336
 33
-0.6207262277603149
  0
3DFACE
  8
0
 10
3.8466925621032715
 20
-4.304555892944336
 30
-0.6207262277603149
 11
3.7604188919067383
 21
-4.304555892944336
 31
-0.6207262277603149
 12
2.8976824283599854
 22
-4.304555892944336
 32
-0.6207262277603149
 13
2.8976824283599854
 23
-4.304555892944336
 33
-0.6207262277603149
  0
3DFACE
  8
0
 10
2.8976824283599854
 20
-4.304555892944336
 30
-0.6207262277603149
 11
2.8976824283599854
 21
-3.959571123123169
 31
-0.6207262277603149
 12
2.811408758163452
 22
-4.304555892944336
 32
-0.6207262277603149
 13
2.811408758163452
 23
-4.304555892944336
 33
-0.6207262277603149
  0
3DFACE
  8
0
 10
1.9486720561981201
 20
-4.304555892944336
 30
-0.6207262277603149
 11
1.7019699811935425
 21
-6.898029804229736
 31
-0.6207262277603149
 12
1.9486720561981201
 22
-4.408740997314453
 32
-0.6207262277603149
 13
1.9486720561981201
 23
-4.408740997314453
 33
-0.6207262277603149
  0
3DFACE
  8
0
 10
1.9486720561981201
 20
-4.408740997314453
 30
-0.6207262277603149
 11
3.8466925621032715
 21
-4.304555892944336
 31
-0.6207262277603149
 12
2.8976824283599854
 22
-4.304555892944336
 32
-0.6207262277603149
 13
2.8976824283599854
 23
-4.304555892944336
 33
-0.6207262277603149
  0
3DFACE
  8
0
 10
2.811408758163452
 20
-4.304555892944336
 30
-0.6207262277603149
 11
1.9486720561981201
 21
-4.304555892944336
 31
-0.6207262277603149
 12
1.9486720561981201
 22
-4.408740997314453
 32
-0.6207262277603149
 13
1.9486720561981201
 23
-4.408740997314453
 33
-0.6207262277603149
  0
3DFACE
  8
0
 10
2.8976824283599854
 20
-4.304555892944336
 30
-0.6207262277603149
 11
2.811408758163452
 21
-4.304555892944336
 31
-0.6207262277603149
 12
1.9486720561981201
 22
-4.408740997314453
 32
-0.6207262277603149
 13
1.9486720561981201
 23
-4.408740997314453
 33
-0.6207262277603149
  0
3DFACE
  8
0
 10
5.898029804229736
 20
-6.898029804229736
 30
-0.6207262277603149
 11
5.658439636230469
 21
-4.408740997314453
 31
-0.6207262277603149
 12
5.658439636230469
 22
-4.753725528717041
 32
-0.6207262277603149
 13
5.658439636230469
 23
-4.753725528717041
 33
-0.6207262277603149
  0
3DFACE
  8
0
 10
4.795702934265137
 20
-4.753725528717041
 30
-0.6207262277603149
 11
4.795702934265137
 21
-4.408740997314453
 31
-0.6207262277603149
 12
4.709429740905762
 22
-4.408740997314453
 32
-0.6207262277603149
 13
4.709429740905762
 23
-4.408740997314453
 33
-0.6207262277603149
  0
3DFACE
  8
0
 10
5.658439636230469
 20
-4.857911109924316
 30
-0.6207262277603149
 11
5.898029804229736
 21
-6.898029804229736
 31
-0.6207262277603149
 12
5.658439636230469
 22
-4.753725528717041
 32
-0.6207262277603149
 13
5.658439636230469
 23
-4.753725528717041
 33
-0.6207262277603149
  0
3DFACE
  8
0
 10
3.8466925621032715
 20
-4.857911109924316
 30
-0.6207262277603149
 11
4.709429740905762
 21
-4.857911109924316
 31
-0.6207262277603149
 12
4.795702934265137
 22
-4.857911109924316
 32
-0.6207262277603149
 13
4.795702934265137
 23
-4.857911109924316
 33
-0.6207262277603149
  0
3DFACE
  8
0
 10
4.795702934265137
 20
-4.857911109924316
 30
-0.6207262277603149
 11
5.658439636230469
 21
-4.857911109924316
 31
-0.6207262277603149
 12
5.658439636230469
 22
-4.753725528717041
 32
-0.6207262277603149
 13
5.658439636230469
 23
-4.753725528717041
 33
-0.6207262277603149
  0
3DFACE
  8
0
 10
4.795702934265137
 20
-4.753725528717041
 30
-0.6207262277603149
 11
4.709429740905762
 21
-4.408740997314453
 31
-0.6207262277603149
 12
4.709429740905762
 22
-4.753725528717041
 32
-0.6207262277603149
 13
4.709429740905762
 23
-4.753725528717041
 33
-0.6207262277603149
  0
3DFACE
  8
0
 10
4.795702934265137
 20
-4.857911109924316
 30
-0.6207262277603149
 11
5.658439636230469
 21
-4.753725528717041
 31
-0.6207262277603149
 12
4.795702934265137
 22
-4.753725528717041
 32
-0.6207262277603149
 13
4.795702934265137
 23
-4.753725528717041
 33
-0.6207262277603149
  0
3DFACE
  8
0
 10
2.8976824283599854
 20
-4.857911109924316
 30
-0.6207262277603149
 11
3.7604188919067383
 21
-4.857911109924316
 31
-0.6207262277603149
 12
3.8466925621032715
 22
-4.857911109924316
 32
-0.6207262277603149
 13
3.8466925621032715
 23
-4.857911109924316
 33
-0.6207262277603149
  0
3DFACE
  8
0
 10
3.8466925621032715
 20
-4.857911109924316
 30
-0.6207262277603149
 11
4.795702934265137
 21
-4.857911109924316
 31
-0.6207262277603149
 12
4.795702934265137
 22
-4.753725528717041
 32
-0.6207262277603149
 13
4.795702934265137
 23
-4.753725528717041
 33
-0.6207262277603149
  0
3DFACE
  8
0
 10
4.795702934265137
 20
-4.753725528717041
 30
-0.6207262277603149
 11
4.709429740905762
 21
-4.753725528717041
 31
-0.6207262277603149
 12
3.8466925621032715
 22
-4.753725528717041
 32
-0.6207262277603149
 13
3.8466925621032715
 23
-4.753725528717041
 33
-0.6207262277603149
  0
3DFACE
  8
0
 10
2.8976824283599854
 20
-4.857911109924316
 30
-0.6207262277603149
 11
3.8466925621032715
 21
-4.857911109924316
 31
-0.6207262277603149
 12
4.795702934265137
 22
-4.753725528717041
 32
-0.6207262277603149
 13
4.795702934265137
 23
-4.753725528717041
 33
-0.6207262277603149
  0
3DFACE
  8
0
 10
1.9486720561981201
 20
-4.857911109924316
 30
-0.6207262277603149
 11
2.811408758163452
 21
-4.857911109924316
 31
-0.6207262277603149
 12
2.8976824283599854
 22
-4.857911109924316
 32
-0.6207262277603149
 13
2.8976824283599854
 23
-4.857911109924316
 33
-0.6207262277603149
  0
3DFACE
  8
0
 10
2.8976824283599854
 20
-4.857911109924316
 30
-0.6207262277603149
 11
4.795702934265137
 21
-4.753725528717041
 31
-0.6207262277603149
 12
3.8466925621032715
 22
-4.753725528717041
 32
-0.6207262277603149
 13
3.8466925621032715
 23
-4.753725528717041
 33
-0.6207262277603149
  0
3DFACE
  8
0
 10
3.8466925621032715
 20
-4.753725528717041
 30
-0.6207262277603149
 11
3.8466925621032715
 21
-4.408740997314453
 31
-0.6207262277603149
 12
3.7604188919067383
 22
-4.408740997314453
 32
-0.6207262277603149
 13
3.7604188919067383
 23
-4.408740997314453
 33
-0.6207262277603149
  0
3DFACE
  8
0
 10
3.8466925621032715
 20
-4.753725528717041
 30
-0.6207262277603149
 11
3.7604188919067383
 21
-4.408740997314453
 31
-0.6207262277603149
 12
3.7604188919067383
 22
-4.753725528717041
 32
-0.6207262277603149
 13
3.7604188919067383
 23
-4.753725528717041
 33
-0.6207262277603149
  0
3DFACE
  8
0
 10
1.9486720561981201
 20
-4.857911109924316
 30
-0.6207262277603149
 11
2.8976824283599854
 21
-4.857911109924316
 31
-0.6207262277603149
 12
3.8466925621032715
 22
-4.753725528717041
 32
-0.6207262277603149
 13
3.8466925621032715
 23
-4.753725528717041
 33
-0.6207262277603149
  0
3DFACE
  8
0
 10
1.7019699811935425
 20
-6.898029804229736
 30
-0.6207262277603149
 11
1.9486720561981201
 21
-5.202895164489746
 31
-0.6207262277603149
 12
1.9486720561981201
 22
-4.857911109924316
 32
-0.6207262277603149
 13
1.9486720561981201
 23
-4.857911109924316
 33
-0.6207262277603149
  0
3DFACE
  8
0
 10
2.8976824283599854
 20
-4.408740997314453
 30
-0.6207262277603149
 11
2.811408758163452
 21
-4.408740997314453
 31
-0.6207262277603149
 12
2.811408758163452
 22
-4.753725528717041
 32
-0.6207262277603149
 13
2.811408758163452
 23
-4.753725528717041
 33
-0.6207262277603149
  0
3DFACE
  8
0
 10
3.8466925621032715
 20
-4.753725528717041
 30
-0.6207262277603149
 11
3.7604188919067383
 21
-4.753725528717041
 31
-0.6207262277603149
 12
2.8976824283599854
 22
-4.753725528717041
 32
-0.6207262277603149
 13
2.8976824283599854
 23
-4.753725528717041
 33
-0.6207262277603149
  0
3DFACE
  8
0
 10
2.8976824283599854
 20
-4.753725528717041
 30
-0.6207262277603149
 11
2.8976824283599854
 21
-4.408740997314453
 31
-0.6207262277603149
 12
2.811408758163452
 22
-4.753725528717041
 32
-0.6207262277603149
 13
2.811408758163452
 23
-4.753725528717041
 33
-0.6207262277603149
  0
3DFACE
  8
0
 10
1.9486720561981201
 20
-4.753725528717041
 30
-0.6207262277603149
 11
1.7019699811935425
 21
-6.898029804229736
 31
-0.6207262277603149
 12
1.9486720561981201
 22
-4.857911109924316
 32
-0.6207262277603149
 13
1.9486720561981201
 23
-4.857911109924316
 33
-0.6207262277603149
  0
3DFACE
  8
0
 10
1.9486720561981201
 20
-4.857911109924316
 30
-0.6207262277603149
 11
3.8466925621032715
 21
-4.753725528717041
 31
-0.6207262277603149
 12
2.8976824283599854
 22
-4.753725528717041
 32
-0.6207262277603149
 13
2.8976824283599854
 23
-4.753725528717041
 33
-0.6207262277603149
  0
3DFACE
  8
0
 10
2.811408758163452
 20
-4.753725528717041
 30
-0.6207262277603149
 11
1.9486720561981201
 21
-4.753725528717041
 31
-0.6207262277603149
 12
1.9486720561981201
 22
-4.857911109924316
 32
-0.6207262277603149
 13
1.9486720561981201
 23
-4.857911109924316
 33
-0.6207262277603149
  0
3DFACE
  8
0
 10
2.8976824283599854
 20
-4.753725528717041
 30
-0.6207262277603149
 11
2.811408758163452
 21
-4.753725528717041
 31
-0.6207262277603149
 12
1.9486720561981201
 22
-4.857911109924316
 32
-0.6207262277603149
 13
1.9486720561981201
 23
-4.857911109924316
 33
-0.6207262277603149
  0
3DFACE
  8
0
 10
5.898029804229736
 20
-6.898029804229736
 30
-0.6207262277603149
 11
5.658439636230469
 21
-4.857911109924316
 31
-0.6207262277603149
 12
5.658439636230469
 22
-5.202895164489746
 32
-0.6207262277603149
 13
5.658439636230469
 23
-5.202895164489746
 33
-0.6207262277603149
  0
3DFACE
  8
0
 10
4.795702934265137
 20
-5.202895164489746
 30
-0.6207262277603149
 11
4.795702934265137
 21
-4.857911109924316
 31
-0.6207262277603149
 12
4.709429740905762
 22
-4.857911109924316
 32
-0.6207262277603149
 13
4.709429740905762
 23
-4.857911109924316
 33
-0.6207262277603149
  0
3DFACE
  8
0
 10
5.658439636230469
 20
-5.307080268859863
 30
-0.6207262277603149
 11
5.898029804229736
 21
-6.898029804229736
 31
-0.6207262277603149
 12
5.658439636230469
 22
-5.202895164489746
 32
-0.6207262277603149
 13
5.658439636230469
 23
-5.202895164489746
 33
-0.6207262277603149
  0
3DFACE
  8
0
 10
3.8466925621032715
 20
-5.307080268859863
 30
-0.6207262277603149
 11
4.709429740905762
 21
-5.307080268859863
 31
-0.6207262277603149
 12
4.795702934265137
 22
-5.307080268859863
 32
-0.6207262277603149
 13
4.795702934265137
 23
-5.307080268859863
 33
-0.6207262277603149
  0
3DFACE
  8
0
 10
4.795702934265137
 20
-5.307080268859863
 30
-0.6207262277603149
 11
5.658439636230469
 21
-5.307080268859863
 31
-0.6207262277603149
 12
5.658439636230469
 22
-5.202895164489746
 32
-0.6207262277603149
 13
5.658439636230469
 23
-5.202895164489746
 33
-0.6207262277603149
  0
3DFACE
  8
0
 10
4.795702934265137
 20
-5.202895164489746
 30
-0.6207262277603149
 11
4.709429740905762
 21
-4.857911109924316
 31
-0.6207262277603149
 12
4.709429740905762
 22
-5.202895164489746
 32
-0.6207262277603149
 13
4.709429740905762
 23
-5.202895164489746
 33
-0.6207262277603149
  0
3DFACE
  8
0
 10
4.795702934265137
 20
-5.307080268859863
 30
-0.6207262277603149
 11
5.658439636230469
 21
-5.202895164489746
 31
-0.6207262277603149
 12
4.795702934265137
 22
-5.202895164489746
 32
-0.6207262277603149
 13
4.795702934265137
 23
-5.202895164489746
 33
-0.6207262277603149
  0
3DFACE
  8
0
 10
2.8976821899414062
 20
-5.307080268859863
 30
-0.6207262277603149
 11
3.7604188919067383
 21
-5.307080268859863
 31
-0.6207262277603149
 12
3.8466925621032715
 22
-5.307080268859863
 32
-0.6207262277603149
 13
3.8466925621032715
 23
-5.307080268859863
 33
-0.6207262277603149
  0
3DFACE
  8
0
 10
3.8466925621032715
 20
-5.307080268859863
 30
-0.6207262277603149
 11
4.795702934265137
 21
-5.307080268859863
 31
-0.6207262277603149
 12
4.795702934265137
 22
-5.202895164489746
 32
-0.6207262277603149
 13
4.795702934265137
 23
-5.202895164489746
 33
-0.6207262277603149
  0
3DFACE
  8
0
 10
4.795702934265137
 20
-5.202895164489746
 30
-0.6207262277603149
 11
4.709429740905762
 21
-5.202895164489746
 31
-0.6207262277603149
 12
3.8466925621032715
 22
-5.202895164489746
 32
-0.6207262277603149
 13
3.8466925621032715
 23
-5.202895164489746
 33
-0.6207262277603149
  0
3DFACE
  8
0
 10
2.8976821899414062
 20
-5.307080268859863
 30
-0.6207262277603149
 11
3.8466925621032715
 21
-5.307080268859863
 31
-0.6207262277603149
 12
4.795702934265137
 22
-5.202895164489746
 32
-0.6207262277603149
 13
4.795702934265137
 23
-5.202895164489746
 33
-0.6207262277603149
  0
3DFACE
  8
0
 10
1.9486720561981201
 20
-5.307080268859863
 30
-0.6207262277603149
 11
2.811408758163452
 21
-5.307080268859863
 31
-0.6207262277603149
 12
2.8976821899414062
 22
-5.307080268859863
 32
-0.6207262277603149
 13
2.8976821899414062
 23
-5.307080268859863
 33
-0.6207262277603149
  0
3DFACE
  8
0
 10
2.8976821899414062
 20
-5.307080268859863
 30
-0.6207262277603149
 11
4.795702934265137
 21
-5.202895164489746
 31
-0.6207262277603149
 12
3.8466925621032715
 22
-5.202895164489746
 32
-0.6207262277603149
 13
3.8466925621032715
 23
-5.202895164489746
 33
-0.6207262277603149
  0
3DFACE
  8
0
 10
3.8466925621032715
 20
-5.202895164489746
 30
-0.6207262277603149
 11
3.8466925621032715
 21
-4.857911109924316
 31
-0.6207262277603149
 12
3.7604188919067383
 22
-4.857911109924316
 32
-0.6207262277603149
 13
3.7604188919067383
 23
-4.857911109924316
 33
-0.6207262277603149
  0
3DFACE
  8
0
 10
3.8466925621032715
 20
-5.202895164489746
 30
-0.6207262277603149
 11
3.7604188919067383
 21
-4.857911109924316
 31
-0.6207262277603149
 12
3.7604188919067383
 22
-5.202895164489746
 32
-0.6207262277603149
 13
3.7604188919067383
 23
-5.202895164489746
 33
-0.6207262277603149
  0
3DFACE
  8
0
 10
1.9486720561981201
 20
-5.307080268859863
 30
-0.6207262277603149
 11
2.8976821899414062
 21
-5.307080268859863
 31
-0.6207262277603149
 12
3.8466925621032715
 22
-5.202895164489746
 32
-0.6207262277603149
 13
3.8466925621032715
 23
-5.202895164489746
 33
-0.6207262277603149
  0
3DFACE
  8
0
 10
1.7019699811935425
 20
-6.898029804229736
 30
-0.6207262277603149
 11
1.9486720561981201
 21
-5.652065277099609
 31
-0.6207262277603149
 12
1.9486720561981201
 22
-5.307080268859863
 32
-0.6207262277603149
 13
1.9486720561981201
 23
-5.307080268859863
 33
-0.6207262277603149
  0
3DFACE
  8
0
 10
2.8976824283599854
 20
-4.857911109924316
 30
-0.6207262277603149
 11
2.811408758163452
 21
-4.857911109924316
 31
-0.6207262277603149
 12
2.811408758163452
 22
-5.202895164489746
 32
-0.6207262277603149
 13
2.811408758163452
 23
-5.202895164489746
 33
-0.6207262277603149
  0
3DFACE
  8
0
 10
3.8466925621032715
 20
-5.202895164489746
 30
-0.6207262277603149
 11
3.7604188919067383
 21
-5.202895164489746
 31
-0.6207262277603149
 12
2.8976824283599854
 22
-5.202895164489746
 32
-0.6207262277603149
 13
2.8976824283599854
 23
-5.202895164489746
 33
-0.6207262277603149
  0
3DFACE
  8
0
 10
2.8976824283599854
 20
-5.202895164489746
 30
-0.6207262277603149
 11
2.8976824283599854
 21
-4.857911109924316
 31
-0.6207262277603149
 12
2.811408758163452
 22
-5.202895164489746
 32
-0.6207262277603149
 13
2.811408758163452
 23
-5.202895164489746
 33
-0.6207262277603149
  0
3DFACE
  8
0
 10
1.9486720561981201
 20
-5.202895164489746
 30
-0.6207262277603149
 11
1.7019699811935425
 21
-6.898029804229736
 31
-0.6207262277603149
 12
1.9486720561981201
 22
-5.307080268859863
 32
-0.6207262277603149
 13
1.9486720561981201
 23
-5.307080268859863
 33
-0.6207262277603149
  0
3DFACE
  8
0
 10
1.9486720561981201
 20
-5.307080268859863
 30
-0.6207262277603149
 11
3.8466925621032715
 21
-5.202895164489746
 31
-0.6207262277603149
 12
2.8976824283599854
 22
-5.202895164489746
 32
-0.6207262277603149
 13
2.8976824283599854
 23
-5.202895164489746
 33
-0.6207262277603149
  0
3DFACE
  8
0
 10
2.811408758163452
 20
-5.202895164489746
 30
-0.6207262277603149
 11
1.9486720561981201
 21
-5.202895164489746
 31
-0.6207262277603149
 12
1.9486720561981201
 22
-5.307080268859863
 32
-0.6207262277603149
 13
1.9486720561981201
 23
-5.307080268859863
 33
-0.6207262277603149
  0
3DFACE
  8
0
 10
2.8976824283599854
 20
-5.202895164489746
 30
-0.6207262277603149
 11
2.811408758163452
 21
-5.202895164489746
 31
-0.6207262277603149
 12
1.9486720561981201
 22
-5.307080268859863
 32
-0.6207262277603149
 13
1.9486720561981201
 23
-5.307080268859863
 33
-0.6207262277603149
  0
3DFACE
  8
0
 10
5.898029804229736
 20
-6.898029804229736
 30
-0.6207262277603149
 11
5.658439636230469
 21
-5.307080268859863
 31
-0.6207262277603149
 12
5.658439636230469
 22
-5.652065277099609
 32
-0.6207262277603149
 13
5.658439636230469
 23
-5.652065277099609
 33
-0.6207262277603149
  0
3DFACE
  8
0
 10
4.795702934265137
 20
-5.652065277099609
 30
-0.6207262277603149
 11
4.795702934265137
 21
-5.307080268859863
 31
-0.6207262277603149
 12
4.709429740905762
 22
-5.307080268859863
 32
-0.6207262277603149
 13
4.709429740905762
 23
-5.307080268859863
 33
-0.6207262277603149
  0
3DFACE
  8
0
 10
5.658439636230469
 20
-5.756250381469727
 30
-0.6207262277603149
 11
5.898029804229736
 21
-6.898029804229736
 31
-0.6207262277603149
 12
5.658439636230469
 22
-5.652065277099609
 32
-0.6207262277603149
 13
5.658439636230469
 23
-5.652065277099609
 33
-0.6207262277603149
  0
3DFACE
  8
0
 10
3.8466925621032715
 20
-5.756250381469727
 30
-0.6207262277603149
 11
4.709429740905762
 21
-5.756250381469727
 31
-0.6207262277603149
 12
4.795702934265137
 22
-5.756250381469727
 32
-0.6207262277603149
 13
4.795702934265137
 23
-5.756250381469727
 33
-0.6207262277603149
  0
3DFACE
  8
0
 10
4.795702934265137
 20
-5.756250381469727
 30
-0.6207262277603149
 11
5.658439636230469
 21
-5.756250381469727
 31
-0.6207262277603149
 12
5.658439636230469
 22
-5.652065277099609
 32
-0.6207262277603149
 13
5.658439636230469
 23
-5.652065277099609
 33
-0.6207262277603149
  0
3DFACE
  8
0
 10
4.795702934265137
 20
-5.652065277099609
 30
-0.6207262277603149
 11
4.709429740905762
 21
-5.307080268859863
 31
-0.6207262277603149
 12
4.709429740905762
 22
-5.652065277099609
 32
-0.6207262277603149
 13
4.709429740905762
 23
-5.652065277099609
 33
-0.6207262277603149
  0
3DFACE
  8
0
 10
4.795702934265137
 20
-5.756250381469727
 30
-0.6207262277603149
 11
5.658439636230469
 21
-5.652065277099609
 31
-0.6207262277603149
 12
4.795702934265137
 22
-5.652065277099609
 32
-0.6207262277603149
 13
4.795702934265137
 23
-5.652065277099609
 33
-0.6207262277603149
  0
3DFACE
  8
0
 10
2.8976821899414062
 20
-5.756250381469727
 30
-0.6207262277603149
 11
3.7604188919067383
 21
-5.756250381469727
 31
-0.6207262277603149
 12
3.8466925621032715
 22
-5.756250381469727
 32
-0.6207262277603149
 13
3.8466925621032715
 23
-5.756250381469727
 33
-0.6207262277603149
  0
3DFACE
  8
0
 10
3.8466925621032715
 20
-5.756250381469727
 30
-0.6207262277603149
 11
4.795702934265137
 21
-5.756250381469727
 31
-0.6207262277603149
 12
4.795702934265137
 22
-5.652065277099609
 32
-0.6207262277603149
 13
4.795702934265137
 23
-5.652065277099609
 33
-0.6207262277603149
  0
3DFACE
  8
0
 10
4.795702934265137
 20
-5.652065277099609
 30
-0.6207262277603149
 11
4.709429740905762
 21
-5.652065277099609
 31
-0.6207262277603149
 12
3.8466925621032715
 22
-5.652065277099609
 32
-0.6207262277603149
 13
3.8466925621032715
 23
-5.652065277099609
 33
-0.6207262277603149
  0
3DFACE
  8
0
 10
2.8976821899414062
 20
-5.756250381469727
 30
-0.6207262277603149
 11
3.8466925621032715
 21
-5.756250381469727
 31
-0.6207262277603149
 12
4.795702934265137
 22
-5.652065277099609
 32
-0.6207262277603149
 13
4.795702934265137
 23
-5.652065277099609
 33
-0.6207262277603149
  0
3DFACE
  8
0
 10
1.9486720561981201
 20
-5.756250381469727
 30
-0.6207262277603149
 11
2.811408758163452
 21
-5.756250381469727
 31
-0.6207262277603149
 12
2.8976821899414062
 22
-5.756250381469727
 32
-0.6207262277603149
 13
2.8976821899414062
 23
-5.756250381469727
 33
-0.6207262277603149
  0
3DFACE
  8
0
 10
2.8976821899414062
 20
-5.756250381469727
 30
-0.6207262277603149
 11
4.795702934265137
 21
-5.652065277099609
 31
-0.6207262277603149
 12
3.8466925621032715
 22
-5.652065277099609
 32
-0.6207262277603149
 13
3.8466925621032715
 23
-5.652065277099609
 33
-0.6207262277603149
  0
3DFACE
  8
0
 10
3.8466925621032715
 20
-5.652065277099609
 30
-0.6207262277603149
 11
3.8466925621032715
 21
-5.307080268859863
 31
-0.6207262277603149
 12
3.7604188919067383
 22
-5.307080268859863
 32
-0.6207262277603149
 13
3.7604188919067383
 23
-5.307080268859863
 33
-0.6207262277603149
  0
3DFACE
  8
0
 10
3.8466925621032715
 20
-5.652065277099609
 30
-0.6207262277603149
 11
3.7604188919067383
 21
-5.307080268859863
 31
-0.6207262277603149
 12
3.7604188919067383
 22
-5.652065277099609
 32
-0.6207262277603149
 13
3.7604188919067383
 23
-5.652065277099609
 33
-0.6207262277603149
  0
3DFACE
  8
0
 10
1.9486720561981201
 20
-5.756250381469727
 30
-0.6207262277603149
 11
2.8976821899414062
 21
-5.756250381469727
 31
-0.6207262277603149
 12
3.8466925621032715
 22
-5.652065277099609
 32
-0.6207262277603149
 13
3.8466925621032715
 23
-5.652065277099609
 33
-0.6207262277603149
  0
3DFACE
  8
0
 10
1.7019699811935425
 20
-6.898029804229736
 30
-0.6207262277603149
 11
1.9486720561981201
 21
-6.1012349128723145
 31
-0.6207262277603149
 12
1.9486720561981201
 22
-5.756250381469727
 32
-0.6207262277603149
 13
1.9486720561981201
 23
-5.756250381469727
 33
-0.6207262277603149
  0
3DFACE
  8
0
 10
2.8976821899414062
 20
-5.307080268859863
 30
-0.6207262277603149
 11
2.811408758163452
 21
-5.307080268859863
 31
-0.6207262277603149
 12
2.811408758163452
 22
-5.652065277099609
 32
-0.6207262277603149
 13
2.811408758163452
 23
-5.652065277099609
 33
-0.6207262277603149
  0
3DFACE
  8
0
 10
3.8466925621032715
 20
-5.652065277099609
 30
-0.6207262277603149
 11
3.7604188919067383
 21
-5.652065277099609
 31
-0.6207262277603149
 12
2.8976821899414062
 22
-5.652065277099609
 32
-0.6207262277603149
 13
2.8976821899414062
 23
-5.652065277099609
 33
-0.6207262277603149
  0
3DFACE
  8
0
 10
2.8976821899414062
 20
-5.652065277099609
 30
-0.6207262277603149
 11
2.8976821899414062
 21
-5.307080268859863
 31
-0.6207262277603149
 12
2.811408758163452
 22
-5.652065277099609
 32
-0.6207262277603149
 13
2.811408758163452
 23
-5.652065277099609
 33
-0.6207262277603149
  0
3DFACE
  8
0
 10
1.9486720561981201
 20
-5.652065277099609
 30
-0.6207262277603149
 11
1.7019699811935425
 21
-6.898029804229736
 31
-0.6207262277603149
 12
1.9486720561981201
 22
-5.756250381469727
 32
-0.6207262277603149
 13
1.9486720561981201
 23
-5.756250381469727
 33
-0.6207262277603149
  0
3DFACE
  8
0
 10
1.9486720561981201
 20
-5.756250381469727
 30
-0.6207262277603149
 11
3.8466925621032715
 21
-5.652065277099609
 31
-0.6207262277603149
 12
2.8976821899414062
 22
-5.652065277099609
 32
-0.6207262277603149
 13
2.8976821899414062
 23
-5.652065277099609
 33
-0.6207262277603149
  0
3DFACE
  8
0
 10
2.811408758163452
 20
-5.652065277099609
 30
-0.6207262277603149
 11
1.9486720561981201
 21
-5.652065277099609
 31
-0.6207262277603149
 12
1.9486720561981201
 22
-5.756250381469727
 32
-0.6207262277603149
 13
1.9486720561981201
 23
-5.756250381469727
 33
-0.6207262277603149
  0
3DFACE
  8
0
 10
2.8976821899414062
 20
-5.652065277099609
 30
-0.6207262277603149
 11
2.811408758163452
 21
-5.652065277099609
 31
-0.6207262277603149
 12
1.9486720561981201
 22
-5.756250381469727
 32
-0.6207262277603149
 13
1.9486720561981201
 23
-5.756250381469727
 33
-0.6207262277603149
  0
3DFACE
  8
0
 10
5.898029804229736
 20
-6.898029804229736
 30
-0.6207262277603149
 11
5.658439636230469
 21
-5.756250381469727
 31
-0.6207262277603149
 12
5.658439636230469
 22
-6.101234436035156
 32
-0.6207262277603149
 13
5.658439636230469
 23
-6.101234436035156
 33
-0.6207262277603149
  0
3DFACE
  8
0
 10
4.795702934265137
 20
-6.101234436035156
 30
-0.6207262277603149
 11
4.795702934265137
 21
-5.756250381469727
 31
-0.6207262277603149
 12
4.709429740905762
 22
-5.756250381469727
 32
-0.6207262277603149
 13
4.709429740905762
 23
-5.756250381469727
 33
-0.6207262277603149
  0
3DFACE
  8
0
 10
5.658439636230469
 20
-6.205419540405273
 30
-0.6207262277603149
 11
5.898029804229736
 21
-6.898029804229736
 31
-0.6207262277603149
 12
5.658439636230469
 22
-6.101234436035156
 32
-0.6207262277603149
 13
5.658439636230469
 23
-6.101234436035156
 33
-0.6207262277603149
  0
3DFACE
  8
0
 10
3.8466925621032715
 20
-6.205419540405273
 30
-0.6207262277603149
 11
4.709429740905762
 21
-6.205419540405273
 31
-0.6207262277603149
 12
4.795702934265137
 22
-6.205419540405273
 32
-0.6207262277603149
 13
4.795702934265137
 23
-6.205419540405273
 33
-0.6207262277603149
  0
3DFACE
  8
0
 10
4.795702934265137
 20
-6.205419540405273
 30
-0.6207262277603149
 11
5.658439636230469
 21
-6.205419540405273
 31
-0.6207262277603149
 12
5.658439636230469
 22
-6.101234436035156
 32
-0.6207262277603149
 13
5.658439636230469
 23
-6.101234436035156
 33
-0.6207262277603149
  0
3DFACE
  8
0
 10
4.795702934265137
 20
-6.101234436035156
 30
-0.6207262277603149
 11
4.709429740905762
 21
-5.756250381469727
 31
-0.6207262277603149
 12
4.709429740905762
 22
-6.101234436035156
 32
-0.6207262277603149
 13
4.709429740905762
 23
-6.101234436035156
 33
-0.6207262277603149
  0
3DFACE
  8
0
 10
4.795702934265137
 20
-6.205419540405273
 30
-0.6207262277603149
 11
5.658439636230469
 21
-6.101234436035156
 31
-0.6207262277603149
 12
4.795702934265137
 22
-6.101234436035156
 32
-0.6207262277603149
 13
4.795702934265137
 23
-6.101234436035156
 33
-0.6207262277603149
  0
3DFACE
  8
0
 10
2.8976821899414062
 20
-6.205419540405273
 30
-0.6207262277603149
 11
3.7604188919067383
 21
-6.205419540405273
 31
-0.6207262277603149
 12
3.8466925621032715
 22
-6.205419540405273
 32
-0.6207262277603149
 13
3.8466925621032715
 23
-6.205419540405273
 33
-0.6207262277603149
  0
3DFACE
  8
0
 10
3.8466925621032715
 20
-6.205419540405273
 30
-0.6207262277603149
 11
4.795702934265137
 21
-6.205419540405273
 31
-0.6207262277603149
 12
4.795702934265137
 22
-6.101234436035156
 32
-0.6207262277603149
 13
4.795702934265137
 23
-6.101234436035156
 33
-0.6207262277603149
  0
3DFACE
  8
0
 10
4.795702934265137
 20
-6.101234436035156
 30
-0.6207262277603149
 11
4.709429740905762
 21
-6.101234436035156
 31
-0.6207262277603149
 12
3.8466925621032715
 22
-6.101234436035156
 32
-0.6207262277603149
 13
3.8466925621032715
 23
-6.101234436035156
 33
-0.6207262277603149
  0
3DFACE
  8
0
 10
2.8976821899414062
 20
-6.205419540405273
 30
-0.6207262277603149
 11
3.8466925621032715
 21
-6.205419540405273
 31
-0.6207262277603149
 12
4.795702934265137
 22
-6.101234436035156
 32
-0.6207262277603149
 13
4.795702934265137
 23
-6.101234436035156
 33
-0.6207262277603149
  0
3DFACE
  8
0
 10
2.811408758163452
 20
-6.205419540405273
 30
-0.6207262277603149
 11
2.8976821899414062
 21
-6.205419540405273
 31
-0.6207262277603149
 12
4.795702934265137
 22
-6.101234436035156
 32
-0.6207262277603149
 13
4.795702934265137
 23
-6.101234436035156
 33
-0.6207262277603149
  0
3DFACE
  8
0
 10
3.8466925621032715
 20
-6.101234436035156
 30
-0.6207262277603149
 11
3.8466925621032715
 21
-5.756250381469727
 31
-0.6207262277603149
 12
3.7604188919067383
 22
-5.756250381469727
 32
-0.6207262277603149
 13
3.7604188919067383
 23
-5.756250381469727
 33
-0.6207262277603149
  0
3DFACE
  8
0
 10
2.811408758163452
 20
-6.205419540405273
 30
-0.6207262277603149
 11
4.795702934265137
 21
-6.101234436035156
 31
-0.6207262277603149
 12
3.8466925621032715
 22
-6.101234436035156
 32
-0.6207262277603149
 13
3.8466925621032715
 23
-6.101234436035156
 33
-0.6207262277603149
  0
3DFACE
  8
0
 10
1.8695299625396729
 20
-6.662869930267334
 30
-0.6207262277603149
 11
1.9486720561981201
 21
-6.5504045486450195
 31
-0.6207262277603149
 12
1.9486720561981201
 22
-6.205420017242432
 32
-0.6207262277603149
 13
1.9486720561981201
 23
-6.205420017242432
 33
-0.6207262277603149
  0
3DFACE
  8
0
 10
1.9486720561981201
 20
-6.205420017242432
 30
-0.6207262277603149
 11
2.811408758163452
 21
-6.205419540405273
 31
-0.6207262277603149
 12
3.8466925621032715
 22
-6.101234436035156
 32
-0.6207262277603149
 13
3.8466925621032715
 23
-6.101234436035156
 33
-0.6207262277603149
  0
3DFACE
  8
0
 10
3.8466925621032715
 20
-6.101234436035156
 30
-0.6207262277603149
 11
3.7604188919067383
 21
-5.756250381469727
 31
-0.6207262277603149
 12
3.7604188919067383
 22
-6.101234436035156
 32
-0.6207262277603149
 13
3.7604188919067383
 23
-6.101234436035156
 33
-0.6207262277603149
  0
3DFACE
  8
0
 10
2.8976821899414062
 20
-6.101234436035156
 30
-0.6207262277603149
 11
2.8976821899414062
 21
-5.756250381469727
 31
-0.6207262277603149
 12
2.811408758163452
 22
-5.756250381469727
 32
-0.6207262277603149
 13
2.811408758163452
 23
-5.756250381469727
 33
-0.6207262277603149
  0
3DFACE
  8
0
 10
1.9486720561981201
 20
-6.205420017242432
 30
-0.6207262277603149
 11
3.8466925621032715
 21
-6.101234436035156
 31
-0.6207262277603149
 12
3.7604188919067383
 22
-6.101234436035156
 32
-0.6207262277603149
 13
3.7604188919067383
 23
-6.101234436035156
 33
-0.6207262277603149
  0
3DFACE
  8
0
 10
2.8976821899414062
 20
-6.101234436035156
 30
-0.6207262277603149
 11
2.811408758163452
 21
-5.756250381469727
 31
-0.6207262277603149
 12
2.811408758163452
 22
-6.101234436035156
 32
-0.6207262277603149
 13
2.811408758163452
 23
-6.101234436035156
 33
-0.6207262277603149
  0
3DFACE
  8
0
 10
1.9486720561981201
 20
-6.205420017242432
 30
-0.6207262277603149
 11
3.7604188919067383
 21
-6.101234436035156
 31
-0.6207262277603149
 12
2.8976821899414062
 22
-6.101234436035156
 32
-0.6207262277603149
 13
2.8976821899414062
 23
-6.101234436035156
 33
-0.6207262277603149
  0
3DFACE
  8
0
 10
1.8628699779510498
 20
-6.669529914855957
 30
-0.6207262277603149
 11
1.8695299625396729
 21
-6.662869930267334
 31
-0.6207262277603149
 12
1.9486720561981201
 22
-6.205420017242432
 32
-0.6207262277603149
 13
1.9486720561981201
 23
-6.205420017242432
 33
-0.6207262277603149
  0
3DFACE
  8
0
 10
1.857640027999878
 20
-6.6773600578308105
 30
-0.6207262277603149
 11
1.8628699779510498
 21
-6.669529914855957
 31
-0.6207262277603149
 12
1.9486720561981201
 22
-6.205420017242432
 32
-0.6207262277603149
 13
1.9486720561981201
 23
-6.205420017242432
 33
-0.6207262277603149
  0
3DFACE
  8
0
 10
1.9486720561981201
 20
-6.205420017242432
 30
-0.6207262277603149
 11
2.8976821899414062
 21
-6.101234436035156
 31
-0.6207262277603149
 12
2.811408758163452
 22
-6.101234436035156
 32
-0.6207262277603149
 13
2.811408758163452
 23
-6.101234436035156
 33
-0.6207262277603149
  0
3DFACE
  8
0
 10
1.7019699811935425
 20
-6.898029804229736
 30
-0.6207262277603149
 11
1.8522000312805176
 21
-6.704710006713867
 31
-0.6207262277603149
 12
1.8522000312805176
 22
-6.6952900886535645
 32
-0.6207262277603149
 13
1.8522000312805176
 23
-6.6952900886535645
 33
-0.6207262277603149
  0
3DFACE
  8
0
 10
1.8540400266647339
 20
-6.686059951782227
 30
-0.6207262277603149
 11
1.857640027999878
 21
-6.6773600578308105
 31
-0.6207262277603149
 12
1.9486720561981201
 22
-6.205420017242432
 32
-0.6207262277603149
 13
1.9486720561981201
 23
-6.205420017242432
 33
-0.6207262277603149
  0
3DFACE
  8
0
 10
1.7019699811935425
 20
-6.898029804229736
 30
-0.6207262277603149
 11
1.8522000312805176
 21
-6.6952900886535645
 31
-0.6207262277603149
 12
1.8540400266647339
 22
-6.686059951782227
 32
-0.6207262277603149
 13
1.8540400266647339
 23
-6.686059951782227
 33
-0.6207262277603149
  0
3DFACE
  8
0
 10
1.9486720561981201
 20
-6.205420017242432
 30
-0.6207262277603149
 11
2.811408758163452
 21
-6.101234436035156
 31
-0.6207262277603149
 12
1.9486720561981201
 22
-6.1012349128723145
 32
-0.6207262277603149
 13
1.9486720561981201
 23
-6.1012349128723145
 33
-0.6207262277603149
  0
3DFACE
  8
0
 10
1.7019699811935425
 20
-6.898029804229736
 30
-0.6207262277603149
 11
1.8540400266647339
 21
-6.686059951782227
 31
-0.6207262277603149
 12
1.9486720561981201
 22
-6.205420017242432
 32
-0.6207262277603149
 13
1.9486720561981201
 23
-6.205420017242432
 33
-0.6207262277603149
  0
3DFACE
  8
0
 10
1.9486720561981201
 20
-6.1012349128723145
 30
-0.6207262277603149
 11
1.7019699811935425
 21
-6.898029804229736
 31
-0.6207262277603149
 12
1.9486720561981201
 22
-6.205420017242432
 32
-0.6207262277603149
 13
1.9486720561981201
 23
-6.205420017242432
 33
-0.6207262277603149
  0
3DFACE
  8
0
 10
4.795702934265137
 20
-6.5504045486450195
 30
-0.6207262277603149
 11
4.795702934265137
 21
-6.205419540405273
 31
-0.6207262277603149
 12
4.709429740905762
 22
-6.205419540405273
 32
-0.6207262277603149
 13
4.709429740905762
 23
-6.205419540405273
 33
-0.6207262277603149
  0
3DFACE
  8
0
 10
4.795702934265137
 20
-6.5504045486450195
 30
-0.6207262277603149
 11
4.709429740905762
 21
-6.205419540405273
 31
-0.6207262277603149
 12
4.709429740905762
 22
-6.5504045486450195
 32
-0.6207262277603149
 13
4.709429740905762
 23
-6.5504045486450195
 33
-0.6207262277603149
  0
3DFACE
  8
0
 10
5.658439636230469
 20
-6.5504045486450195
 30
-0.6207262277603149
 11
4.795702934265137
 21
-6.5504045486450195
 31
-0.6207262277603149
 12
4.709429740905762
 22
-6.5504045486450195
 32
-0.6207262277603149
 13
4.709429740905762
 23
-6.5504045486450195
 33
-0.6207262277603149
  0
3DFACE
  8
0
 10
3.8466925621032715
 20
-6.5504045486450195
 30
-0.6207262277603149
 11
3.8466925621032715
 21
-6.205419540405273
 31
-0.6207262277603149
 12
3.7604188919067383
 22
-6.205419540405273
 32
-0.6207262277603149
 13
3.7604188919067383
 23
-6.205419540405273
 33
-0.6207262277603149
  0
3DFACE
  8
0
 10
5.658439636230469
 20
-6.5504045486450195
 30
-0.6207262277603149
 11
4.709429740905762
 21
-6.5504045486450195
 31
-0.6207262277603149
 12
3.8466925621032715
 22
-6.5504045486450195
 32
-0.6207262277603149
 13
3.8466925621032715
 23
-6.5504045486450195
 33
-0.6207262277603149
  0
3DFACE
  8
0
 10
3.8466925621032715
 20
-6.5504045486450195
 30
-0.6207262277603149
 11
3.7604188919067383
 21
-6.205419540405273
 31
-0.6207262277603149
 12
3.7604188919067383
 22
-6.5504045486450195
 32
-0.6207262277603149
 13
3.7604188919067383
 23
-6.5504045486450195
 33
-0.6207262277603149
  0
3DFACE
  8
0
 10
2.8976821899414062
 20
-6.5504045486450195
 30
-0.6207262277603149
 11
2.8976821899414062
 21
-6.205419540405273
 31
-0.6207262277603149
 12
2.811408758163452
 22
-6.205419540405273
 32
-0.6207262277603149
 13
2.811408758163452
 23
-6.205419540405273
 33
-0.6207262277603149
  0
3DFACE
  8
0
 10
5.658439636230469
 20
-6.5504045486450195
 30
-0.6207262277603149
 11
3.8466925621032715
 21
-6.5504045486450195
 31
-0.6207262277603149
 12
3.7604188919067383
 22
-6.5504045486450195
 32
-0.6207262277603149
 13
3.7604188919067383
 23
-6.5504045486450195
 33
-0.6207262277603149
  0
3DFACE
  8
0
 10
2.8976821899414062
 20
-6.5504045486450195
 30
-0.6207262277603149
 11
2.811408758163452
 21
-6.205419540405273
 31
-0.6207262277603149
 12
2.811408758163452
 22
-6.5504045486450195
 32
-0.6207262277603149
 13
2.811408758163452
 23
-6.5504045486450195
 33
-0.6207262277603149
  0
3DFACE
  8
0
 10
5.658439636230469
 20
-6.5504045486450195
 30
-0.6207262277603149
 11
3.7604188919067383
 21
-6.5504045486450195
 31
-0.6207262277603149
 12
2.8976821899414062
 22
-6.5504045486450195
 32
-0.6207262277603149
 13
2.8976821899414062
 23
-6.5504045486450195
 33
-0.6207262277603149
  0
3DFACE
  8
0
 10
2.8976821899414062
 20
-6.5504045486450195
 30
-0.6207262277603149
 11
2.811408758163452
 21
-6.5504045486450195
 31
-0.6207262277603149
 12
1.9486720561981201
 22
-6.5504045486450195
 32
-0.6207262277603149
 13
1.9486720561981201
 23
-6.5504045486450195
 33
-0.6207262277603149
  0
3DFACE
  8
0
 10
5.658439636230469
 20
-6.5504045486450195
 30
-0.6207262277603149
 11
2.8976821899414062
 21
-6.5504045486450195
 31
-0.6207262277603149
 12
1.9486720561981201
 22
-6.5504045486450195
 32
-0.6207262277603149
 13
1.9486720561981201
 23
-6.5504045486450195
 33
-0.6207262277603149
  0
3DFACE
  8
0
 10
1.9486720561981201
 20
-6.5504045486450195
 30
-0.6207262277603149
 11
1.8695299625396729
 21
-6.662869930267334
 31
-0.6207262277603149
 12
1.8773599863052368
 22
-6.657639980316162
 32
-0.6207262277603149
 13
1.8773599863052368
 23
-6.657639980316162
 33
-0.6207262277603149
  0
3DFACE
  8
0
 10
1.9486720561981201
 20
-6.5504045486450195
 30
-0.6207262277603149
 11
1.8773599863052368
 21
-6.657639980316162
 31
-0.6207262277603149
 12
1.8860599994659424
 22
-6.6540398597717285
 32
-0.6207262277603149
 13
1.8860599994659424
 23
-6.6540398597717285
 33
-0.6207262277603149
  0
3DFACE
  8
0
 10
1.9486720561981201
 20
-6.5504045486450195
 30
-0.6207262277603149
 11
1.8860599994659424
 21
-6.6540398597717285
 31
-0.6207262277603149
 12
1.8952900171279907
 22
-6.652200222015381
 32
-0.6207262277603149
 13
1.8952900171279907
 23
-6.652200222015381
 33
-0.6207262277603149
  0
3DFACE
  8
0
 10
1.9486720561981201
 20
-6.5504045486450195
 30
-0.6207262277603149
 11
1.8952900171279907
 21
-6.652200222015381
 31
-0.6207262277603149
 12
1.904710054397583
 22
-6.652200222015381
 32
-0.6207262277603149
 13
1.904710054397583
 23
-6.652200222015381
 33
-0.6207262277603149
  0
3DFACE
  8
0
 10
5.658439636230469
 20
-6.5504045486450195
 30
-0.6207262277603149
 11
1.9486720561981201
 21
-6.5504045486450195
 31
-0.6207262277603149
 12
1.904710054397583
 22
-6.652200222015381
 32
-0.6207262277603149
 13
1.904710054397583
 23
-6.652200222015381
 33
-0.6207262277603149
  0
3DFACE
  8
0
 10
5.658439636230469
 20
-6.5504045486450195
 30
-0.6207262277603149
 11
1.904710054397583
 21
-6.652200222015381
 31
-0.6207262277603149
 12
1.9139399528503418
 22
-6.6540398597717285
 32
-0.6207262277603149
 13
1.9139399528503418
 23
-6.6540398597717285
 33
-0.6207262277603149
  0
3DFACE
  8
0
 10
5.795959949493408
 20
-6.73606014251709
 30
-0.6207262277603149
 11
5.797800064086914
 21
-6.7452898025512695
 31
-0.6207262277603149
 12
5.898029804229736
 22
-6.898029804229736
 32
-0.6207262277603149
 13
5.898029804229736
 23
-6.898029804229736
 33
-0.6207262277603149
  0
3DFACE
  8
0
 10
5.792359828948975
 20
-6.727359771728516
 30
-0.6207262277603149
 11
5.795959949493408
 21
-6.73606014251709
 31
-0.6207262277603149
 12
5.898029804229736
 22
-6.898029804229736
 32
-0.6207262277603149
 13
5.898029804229736
 23
-6.898029804229736
 33
-0.6207262277603149
  0
3DFACE
  8
0
 10
5.658439636230469
 20
-6.5504045486450195
 30
-0.6207262277603149
 11
1.9139399528503418
 21
-6.6540398597717285
 31
-0.6207262277603149
 12
1.9226399660110474
 22
-6.657639980316162
 32
-0.6207262277603149
 13
1.9226399660110474
 23
-6.657639980316162
 33
-0.6207262277603149
  0
3DFACE
  8
0
 10
5.658439636230469
 20
-6.5504045486450195
 30
-0.6207262277603149
 11
1.9226399660110474
 21
-6.657639980316162
 31
-0.6207262277603149
 12
1.9304699897766113
 22
-6.662869930267334
 32
-0.6207262277603149
 13
1.9304699897766113
 23
-6.662869930267334
 33
-0.6207262277603149
  0
3DFACE
  8
0
 10
5.792359828948975
 20
-6.727359771728516
 30
-0.6207262277603149
 11
5.898029804229736
 21
-6.898029804229736
 31
-0.6207262277603149
 12
5.658439636230469
 22
-6.205419540405273
 32
-0.6207262277603149
 13
5.658439636230469
 23
-6.205419540405273
 33
-0.6207262277603149
  0
3DFACE
  8
0
 10
5.787129878997803
 20
-6.71953010559082
 30
-0.6207262277603149
 11
5.792359828948975
 21
-6.727359771728516
 31
-0.6207262277603149
 12
5.658439636230469
 22
-6.205419540405273
 32
-0.6207262277603149
 13
5.658439636230469
 23
-6.205419540405273
 33
-0.6207262277603149
  0
3DFACE
  8
0
 10
5.658439636230469
 20
-6.5504045486450195
 30
-0.6207262277603149
 11
1.9304699897766113
 21
-6.662869930267334
 31
-0.6207262277603149
 12
1.9371299743652344
 22
-6.669529914855957
 32
-0.6207262277603149
 13
1.9371299743652344
 23
-6.669529914855957
 33
-0.6207262277603149
  0
3DFACE
  8
0
 10
5.787129878997803
 20
-6.71953010559082
 30
-0.6207262277603149
 11
5.658439636230469
 21
-6.205419540405273
 31
-0.6207262277603149
 12
5.658439636230469
 22
-6.5504045486450195
 32
-0.6207262277603149
 13
5.658439636230469
 23
-6.5504045486450195
 33
-0.6207262277603149
  0
3DFACE
  8
0
 10
5.78046989440918
 20
-6.712870121002197
 30
-0.6207262277603149
 11
5.787129878997803
 21
-6.71953010559082
 31
-0.6207262277603149
 12
5.658439636230469
 22
-6.5504045486450195
 32
-0.6207262277603149
 13
5.658439636230469
 23
-6.5504045486450195
 33
-0.6207262277603149
  0
3DFACE
  8
0
 10
5.658439636230469
 20
-6.5504045486450195
 30
-0.6207262277603149
 11
1.9371299743652344
 21
-6.669529914855957
 31
-0.6207262277603149
 12
1.9423600435256958
 22
-6.6773600578308105
 32
-0.6207262277603149
 13
1.9423600435256958
 23
-6.6773600578308105
 33
-0.6207262277603149
  0
3DFACE
  8
0
 10
1.9459600448608398
 20
-6.686059951782227
 30
-0.6207262277603149
 11
1.9477999210357666
 21
-6.6952900886535645
 31
-0.6207262277603149
 12
5.702199935913086
 22
-6.7547101974487305
 32
-0.6207262277603149
 13
5.702199935913086
 23
-6.7547101974487305
 33
-0.6207262277603149
  0
3DFACE
  8
0
 10
5.658439636230469
 20
-6.5504045486450195
 30
-0.6207262277603149
 11
1.9423600435256958
 21
-6.6773600578308105
 31
-0.6207262277603149
 12
1.9459600448608398
 22
-6.686059951782227
 32
-0.6207262277603149
 13
1.9459600448608398
 23
-6.686059951782227
 33
-0.6207262277603149
  0
3DFACE
  8
0
 10
5.772640228271484
 20
-6.707640171051025
 30
-0.6207262277603149
 11
5.78046989440918
 21
-6.712870121002197
 31
-0.6207262277603149
 12
5.658439636230469
 22
-6.5504045486450195
 32
-0.6207262277603149
 13
5.658439636230469
 23
-6.5504045486450195
 33
-0.6207262277603149
  0
3DFACE
  8
0
 10
5.76393985748291
 20
-6.704040050506592
 30
-0.6207262277603149
 11
5.772640228271484
 21
-6.707640171051025
 31
-0.6207262277603149
 12
5.658439636230469
 22
-6.5504045486450195
 32
-0.6207262277603149
 13
5.658439636230469
 23
-6.5504045486450195
 33
-0.6207262277603149
  0
3DFACE
  8
0
 10
5.658439636230469
 20
-6.5504045486450195
 30
-0.6207262277603149
 11
1.9459600448608398
 21
-6.686059951782227
 31
-0.6207262277603149
 12
5.702199935913086
 22
-6.7547101974487305
 32
-0.6207262277603149
 13
5.702199935913086
 23
-6.7547101974487305
 33
-0.6207262277603149
  0
3DFACE
  8
0
 10
5.658439636230469
 20
-6.5504045486450195
 30
-0.6207262277603149
 11
5.702199935913086
 21
-6.7547101974487305
 31
-0.6207262277603149
 12
5.702199935913086
 22
-6.7452898025512695
 32
-0.6207262277603149
 13
5.702199935913086
 23
-6.7452898025512695
 33
-0.6207262277603149
  0
3DFACE
  8
0
 10
5.7547101974487305
 20
-6.702199935913086
 30
-0.6207262277603149
 11
5.76393985748291
 21
-6.704040050506592
 31
-0.6207262277603149
 12
5.658439636230469
 22
-6.5504045486450195
 32
-0.6207262277603149
 13
5.658439636230469
 23
-6.5504045486450195
 33
-0.6207262277603149
  0
3DFACE
  8
0
 10
5.7452898025512695
 20
-6.702199935913086
 30
-0.6207262277603149
 11
5.7547101974487305
 21
-6.702199935913086
 31
-0.6207262277603149
 12
5.658439636230469
 22
-6.5504045486450195
 32
-0.6207262277603149
 13
5.658439636230469
 23
-6.5504045486450195
 33
-0.6207262277603149
  0
3DFACE
  8
0
 10
5.658439636230469
 20
-6.5504045486450195
 30
-0.6207262277603149
 11
5.702199935913086
 21
-6.7452898025512695
 31
-0.6207262277603149
 12
5.704040050506592
 22
-6.73606014251709
 32
-0.6207262277603149
 13
5.704040050506592
 23
-6.73606014251709
 33
-0.6207262277603149
  0
3DFACE
  8
0
 10
5.658439636230469
 20
-6.5504045486450195
 30
-0.6207262277603149
 11
5.704040050506592
 21
-6.73606014251709
 31
-0.6207262277603149
 12
5.707640171051025
 22
-6.727359771728516
 32
-0.6207262277603149
 13
5.707640171051025
 23
-6.727359771728516
 33
-0.6207262277603149
  0
3DFACE
  8
0
 10
5.73606014251709
 20
-6.704040050506592
 30
-0.6207262277603149
 11
5.7452898025512695
 21
-6.702199935913086
 31
-0.6207262277603149
 12
5.658439636230469
 22
-6.5504045486450195
 32
-0.6207262277603149
 13
5.658439636230469
 23
-6.5504045486450195
 33
-0.6207262277603149
  0
3DFACE
  8
0
 10
5.727359771728516
 20
-6.707640171051025
 30
-0.6207262277603149
 11
5.73606014251709
 21
-6.704040050506592
 31
-0.6207262277603149
 12
5.658439636230469
 22
-6.5504045486450195
 32
-0.6207262277603149
 13
5.658439636230469
 23
-6.5504045486450195
 33
-0.6207262277603149
  0
3DFACE
  8
0
 10
5.658439636230469
 20
-6.5504045486450195
 30
-0.6207262277603149
 11
5.707640171051025
 21
-6.727359771728516
 31
-0.6207262277603149
 12
5.712870121002197
 22
-6.71953010559082
 32
-0.6207262277603149
 13
5.712870121002197
 23
-6.71953010559082
 33
-0.6207262277603149
  0
3DFACE
  8
0
 10
5.71953010559082
 20
-6.712870121002197
 30
-0.6207262277603149
 11
5.727359771728516
 21
-6.707640171051025
 31
-0.6207262277603149
 12
5.658439636230469
 22
-6.5504045486450195
 32
-0.6207262277603149
 13
5.658439636230469
 23
-6.5504045486450195
 33
-0.6207262277603149
  0
3DFACE
  8
0
 10
5.658439636230469
 20
-6.5504045486450195
 30
-0.6207262277603149
 11
5.712870121002197
 21
-6.71953010559082
 31
-0.6207262277603149
 12
5.71953010559082
 22
-6.712870121002197
 32
-0.6207262277603149
 13
5.71953010559082
 23
-6.712870121002197
 33
-0.6207262277603149
  0
ENDSEC
  0
EOF
